G04*
G04 #@! TF.GenerationSoftware,Altium Limited,Altium Designer,21.2.1 (34)*
G04*
G04 Layer_Color=255*
%FSLAX25Y25*%
%MOIN*%
G70*
G04*
G04 #@! TF.SameCoordinates,7F94B60C-EE6A-4D70-8C52-0CABB09C9AE7*
G04*
G04*
G04 #@! TF.FilePolarity,Positive*
G04*
G01*
G75*
%ADD17R,0.10630X0.10630*%
%ADD18R,0.00880X0.02620*%
%ADD19R,0.02620X0.00880*%
%ADD20R,0.05512X0.05118*%
%ADD21R,0.03150X0.03347*%
%ADD22R,0.03800X0.03500*%
%ADD23R,0.02165X0.03937*%
%ADD24R,0.03180X0.03400*%
%ADD25R,0.05000X0.02756*%
%ADD42C,0.04800*%
%ADD43C,0.08600*%
%ADD44O,0.04724X0.06299*%
%ADD45O,0.03937X0.08268*%
D17*
X421500Y326700D02*
D03*
D18*
X426220Y319190D02*
D03*
X424650D02*
D03*
X423070D02*
D03*
X421500D02*
D03*
X419920D02*
D03*
X418350D02*
D03*
X416780D02*
D03*
Y334210D02*
D03*
X418350Y334210D02*
D03*
X419920D02*
D03*
X421500D02*
D03*
X423070D02*
D03*
X424650Y334210D02*
D03*
X426220D02*
D03*
D19*
X413990Y321980D02*
D03*
X413990Y323550D02*
D03*
X413990Y325130D02*
D03*
Y326700D02*
D03*
Y328280D02*
D03*
X413990Y329850D02*
D03*
X413990Y331420D02*
D03*
X429010D02*
D03*
Y329850D02*
D03*
Y328280D02*
D03*
Y326700D02*
D03*
Y325130D02*
D03*
Y323550D02*
D03*
Y321980D02*
D03*
D20*
X370488Y320500D02*
D03*
X381512D02*
D03*
X370488Y332702D02*
D03*
X381512D02*
D03*
D21*
X336025Y331672D02*
D03*
X342573D02*
D03*
D22*
X401000Y320500D02*
D03*
X394100D02*
D03*
D23*
X336240Y310618D02*
D03*
X332500D02*
D03*
X328760D02*
D03*
Y300382D02*
D03*
X336240D02*
D03*
D24*
X336329Y322501D02*
D03*
X342269D02*
D03*
D25*
X449283Y203500D02*
D03*
X467000Y203500D02*
D03*
X467000Y211965D02*
D03*
X449284Y211965D02*
D03*
D42*
X332610Y293788D02*
D03*
Y222528D02*
D03*
X454658Y293788D02*
D03*
Y222528D02*
D03*
D43*
X322768Y200874D02*
D03*
D44*
X356784Y334732D02*
D03*
X322768D02*
D03*
D45*
X356784Y318276D02*
D03*
X322768D02*
D03*
M02*
