G04*
G04 #@! TF.GenerationSoftware,Altium Limited,Altium Designer,21.2.1 (34)*
G04*
G04 Layer_Physical_Order=1*
G04 Layer_Color=255*
%FSLAX25Y25*%
%MOIN*%
G70*
G04*
G04 #@! TF.SameCoordinates,7F94B60C-EE6A-4D70-8C52-0CABB09C9AE7*
G04*
G04*
G04 #@! TF.FilePolarity,Positive*
G04*
G01*
G75*
%ADD11C,0.01000*%
%ADD16C,0.00800*%
%ADD17R,0.10630X0.10630*%
%ADD18R,0.00880X0.02620*%
%ADD19R,0.02620X0.00880*%
%ADD20R,0.05512X0.05118*%
%ADD21R,0.03150X0.03347*%
%ADD22R,0.03800X0.03500*%
%ADD23R,0.02165X0.03937*%
%ADD24R,0.03180X0.03400*%
%ADD25R,0.05000X0.02756*%
%ADD26C,0.01600*%
%ADD42C,0.04800*%
%ADD43C,0.08600*%
%ADD44O,0.04724X0.06299*%
%ADD45O,0.03937X0.08268*%
%ADD46C,0.02500*%
%ADD47C,0.03000*%
%ADD48C,0.02800*%
G36*
X465842Y341479D02*
X467133Y341088D01*
X468322Y340452D01*
X469364Y339597D01*
X470220Y338554D01*
X470856Y337365D01*
X471247Y336074D01*
X471378Y334740D01*
X471377Y334732D01*
Y200874D01*
X471378Y200866D01*
X471247Y199532D01*
X470856Y198241D01*
X470220Y197052D01*
X469364Y196010D01*
X468322Y195154D01*
X467133Y194518D01*
X465842Y194127D01*
X464508Y193996D01*
X464500Y193997D01*
X322768D01*
X322760Y193996D01*
X321426Y194127D01*
X320135Y194518D01*
X318946Y195154D01*
X317903Y196010D01*
X317048Y197052D01*
X316412Y198241D01*
X316021Y199532D01*
X315889Y200866D01*
X315891Y200874D01*
Y209848D01*
X316373Y210001D01*
X316391Y210001D01*
X316889Y209503D01*
X316895Y209496D01*
X316920Y209456D01*
X316942Y209414D01*
X316961Y209368D01*
X316978Y209317D01*
X316991Y209260D01*
X317001Y209195D01*
X317007Y209122D01*
X317008Y209017D01*
X317022Y208951D01*
Y208607D01*
X317323Y207880D01*
X317880Y207323D01*
X318607Y207022D01*
X319393D01*
X320120Y207323D01*
X320677Y207880D01*
X320978Y208607D01*
Y209393D01*
X320677Y210120D01*
X320120Y210677D01*
X319393Y210978D01*
X319084D01*
X319024Y210992D01*
X318918Y210995D01*
X318843Y211003D01*
X318775Y211014D01*
X318716Y211029D01*
X318663Y211046D01*
X318615Y211067D01*
X318571Y211090D01*
X318530Y211116D01*
X318523Y211122D01*
X318350Y211295D01*
Y250857D01*
X318351Y250866D01*
X318361Y250913D01*
X318376Y250959D01*
X318395Y251006D01*
X318420Y251055D01*
X318451Y251106D01*
X318490Y251161D01*
X318538Y251218D01*
X318611Y251294D01*
X318646Y251349D01*
X318877Y251580D01*
X319178Y252307D01*
Y253093D01*
X318877Y253820D01*
X318320Y254377D01*
X317593Y254678D01*
X316807D01*
X316391Y254506D01*
X315891Y254840D01*
Y334732D01*
X315889Y334740D01*
X316021Y336074D01*
X316412Y337365D01*
X317048Y338554D01*
X317903Y339597D01*
X318946Y340452D01*
X320135Y341088D01*
X321426Y341479D01*
X322760Y341611D01*
X322768Y341609D01*
X326017D01*
X326017Y341609D01*
X449044Y341609D01*
X449143Y341109D01*
X448529Y340855D01*
X446871Y339898D01*
X445353Y338733D01*
X444000Y337379D01*
X442835Y335861D01*
X441878Y334204D01*
X441145Y332435D01*
X440650Y330587D01*
X440400Y328689D01*
Y326775D01*
X440650Y324878D01*
X441145Y323029D01*
X441878Y321261D01*
X442835Y319604D01*
X444000Y318085D01*
X445353Y316732D01*
X446871Y315567D01*
X448529Y314610D01*
X450297Y313877D01*
X452146Y313382D01*
X454043Y313132D01*
X455957D01*
X457854Y313382D01*
X459703Y313877D01*
X461471Y314610D01*
X463129Y315567D01*
X464647Y316732D01*
X466000Y318085D01*
X467166Y319604D01*
X468122Y321261D01*
X468855Y323029D01*
X469350Y324878D01*
X469600Y326775D01*
Y328689D01*
X469350Y330587D01*
X468855Y332435D01*
X468122Y334204D01*
X467166Y335861D01*
X466000Y337379D01*
X464647Y338733D01*
X463129Y339898D01*
X461471Y340855D01*
X460857Y341109D01*
X460956Y341609D01*
X464500D01*
X464508Y341611D01*
X465842Y341479D01*
D02*
G37*
G36*
X317985Y251713D02*
X317904Y251617D01*
X317833Y251518D01*
X317771Y251417D01*
X317719Y251314D01*
X317676Y251209D01*
X317643Y251101D01*
X317619Y250992D01*
X317605Y250880D01*
X317600Y250766D01*
X316800D01*
X316795Y250880D01*
X316781Y250992D01*
X316757Y251101D01*
X316724Y251209D01*
X316681Y251314D01*
X316629Y251417D01*
X316567Y251518D01*
X316496Y251617D01*
X316415Y251713D01*
X316325Y251807D01*
X318075D01*
X317985Y251713D01*
D02*
G37*
G36*
X318011Y210579D02*
X318101Y210510D01*
X318195Y210449D01*
X318294Y210397D01*
X318399Y210352D01*
X318509Y210315D01*
X318624Y210287D01*
X318744Y210266D01*
X318870Y210254D01*
X319001Y210250D01*
X317750Y209026D01*
X317749Y209156D01*
X317739Y209281D01*
X317721Y209401D01*
X317694Y209516D01*
X317658Y209625D01*
X317615Y209730D01*
X317563Y209829D01*
X317502Y209924D01*
X317433Y210013D01*
X317356Y210097D01*
X317928Y210657D01*
X318011Y210579D01*
D02*
G37*
%LPC*%
G36*
X427388Y336248D02*
X423482D01*
Y336248D01*
X417948D01*
Y336248D01*
X415612D01*
Y333015D01*
X415185D01*
Y332588D01*
X411952D01*
Y330252D01*
X411952D01*
Y329448D01*
X411952D01*
Y329430D01*
X385268D01*
Y332202D01*
X381512D01*
X377756D01*
Y329430D01*
X373972D01*
Y335989D01*
X367004D01*
Y334361D01*
X366940Y334335D01*
X366810Y334300D01*
X366632Y334271D01*
X366506Y334260D01*
X362402D01*
X361806Y334141D01*
X361300Y333803D01*
X360563Y333067D01*
X360090Y333300D01*
X360175Y333945D01*
Y334232D01*
X357283D01*
Y330620D01*
X357428Y330639D01*
X357662Y330165D01*
X355661Y328165D01*
X350985D01*
X350778Y328664D01*
X350845Y328732D01*
X351146Y329459D01*
Y330245D01*
X350845Y330973D01*
X350289Y331529D01*
X349562Y331830D01*
X349235D01*
X349172Y331844D01*
X349066Y331846D01*
X348992Y331853D01*
X348926Y331864D01*
X348868Y331878D01*
X348815Y331895D01*
X348769Y331914D01*
X348726Y331937D01*
X348686Y331963D01*
X348678Y331968D01*
X348162Y332485D01*
X347789Y332734D01*
X347349Y332822D01*
X344876D01*
Y334073D01*
X340270D01*
Y329270D01*
X344876D01*
Y330521D01*
X346872D01*
X347052Y330342D01*
X347058Y330335D01*
X347083Y330295D01*
X347106Y330252D01*
X347126Y330205D01*
X347143Y330153D01*
X347157Y330094D01*
X347167Y330028D01*
X347174Y329954D01*
X347176Y329849D01*
X347190Y329785D01*
Y329459D01*
X347492Y328732D01*
X347559Y328664D01*
X347352Y328165D01*
X337735D01*
Y328832D01*
X337741Y328914D01*
X337765Y329104D01*
X337794Y329249D01*
X337801Y329270D01*
X338328D01*
Y329996D01*
X338330Y330007D01*
X338328Y330019D01*
Y334073D01*
X333722D01*
Y329270D01*
X334517D01*
X334544Y329204D01*
X334579Y329074D01*
X334608Y328896D01*
X334619Y328771D01*
Y325374D01*
X334613Y325286D01*
X334589Y325097D01*
X334559Y324955D01*
X334550Y324929D01*
X334011D01*
Y324203D01*
X334009Y324192D01*
X334011Y324180D01*
Y320824D01*
X334009Y320813D01*
X334011Y320801D01*
Y320073D01*
X334601D01*
X334616Y320029D01*
X334648Y319892D01*
X334674Y319708D01*
X334682Y319604D01*
Y314045D01*
X334583Y313587D01*
X333000D01*
Y310618D01*
X332000D01*
Y313587D01*
X330417D01*
Y313315D01*
X326949D01*
Y312278D01*
X326885Y312251D01*
X326754Y312216D01*
X326576Y312187D01*
X326451Y312176D01*
X322618D01*
X322022Y312057D01*
X321516Y311720D01*
X318398Y308602D01*
X318061Y308096D01*
X317942Y307500D01*
Y300745D01*
X317934Y300651D01*
X317925Y300591D01*
X317915Y300547D01*
X317915Y300546D01*
X317696Y300327D01*
X317372Y299545D01*
Y298698D01*
X317696Y297916D01*
X318295Y297318D01*
X318886Y297073D01*
X318904Y297061D01*
X318925Y297057D01*
X319077Y296994D01*
X319241D01*
X319500Y296942D01*
X319759Y296994D01*
X319923D01*
X320075Y297057D01*
X320096Y297061D01*
X320114Y297073D01*
X320705Y297318D01*
X321304Y297916D01*
X321628Y298698D01*
Y299545D01*
X321304Y300327D01*
X321085Y300546D01*
X321085Y300547D01*
X321075Y300591D01*
X321067Y300644D01*
X321058Y300778D01*
Y306855D01*
X323263Y309060D01*
X326451D01*
X326576Y309049D01*
X326638Y309039D01*
X326947Y308662D01*
X326949Y308650D01*
Y307922D01*
X327187D01*
X327202Y307691D01*
Y307240D01*
X327321Y306644D01*
X327658Y306138D01*
X328898Y304898D01*
X329404Y304561D01*
X330000Y304442D01*
X335000D01*
X335596Y304561D01*
X336102Y304898D01*
X337342Y306138D01*
X337680Y306644D01*
X337798Y307240D01*
Y307765D01*
X337805Y307909D01*
X337806Y307922D01*
X338051D01*
Y308650D01*
X338053Y308662D01*
X338051Y308673D01*
Y312563D01*
X338053Y312575D01*
X338051Y312586D01*
Y313315D01*
X337827D01*
X337798Y313719D01*
Y317370D01*
X340990D01*
X341002Y317378D01*
X341378Y317085D01*
X341608Y316855D01*
X342335Y316553D01*
X343122D01*
X343849Y316855D01*
X344080Y317086D01*
X344134Y317120D01*
X344211Y317193D01*
X344268Y317241D01*
X344322Y317280D01*
X344373Y317312D01*
X344422Y317337D01*
X344469Y317356D01*
X344515Y317370D01*
X344562Y317380D01*
X344571Y317381D01*
X345531D01*
X345971Y317469D01*
X346345Y317718D01*
X348683Y320057D01*
X349190Y319856D01*
X349451Y319226D01*
X350016Y318661D01*
X350754Y318355D01*
X351552D01*
X352290Y318661D01*
X352855Y319226D01*
X353160Y319964D01*
Y320762D01*
X352855Y321500D01*
X352290Y322065D01*
X352106Y322141D01*
X351882Y322775D01*
X351923Y322850D01*
X354260D01*
X354506Y322350D01*
X354190Y321938D01*
X353891Y321216D01*
X353789Y320441D01*
Y318776D01*
X359778D01*
Y320441D01*
X359676Y321216D01*
X359376Y321938D01*
X359053Y322359D01*
X359051Y322407D01*
X359245Y322892D01*
X359472Y322937D01*
X359845Y323187D01*
X362448Y325790D01*
X362625Y325717D01*
X363312Y325627D01*
X363406Y325639D01*
X363639Y325166D01*
X361687Y323213D01*
X361437Y322840D01*
X361350Y322400D01*
Y311976D01*
X358492Y309119D01*
X342641D01*
X342634Y309120D01*
X342594Y309129D01*
X342557Y309141D01*
X342521Y309158D01*
X342483Y309179D01*
X342444Y309207D01*
X342408Y309236D01*
X342344Y309300D01*
X342291Y309361D01*
X342256Y309388D01*
X341880Y309764D01*
X341153Y310065D01*
X340366D01*
X339639Y309764D01*
X339083Y309208D01*
X338782Y308481D01*
Y307694D01*
X339083Y306967D01*
X339639Y306410D01*
X340366Y306109D01*
X341153D01*
X341880Y306410D01*
X342013Y306543D01*
X342028Y306551D01*
X342116Y306621D01*
X342184Y306670D01*
X342250Y306711D01*
X342313Y306744D01*
X342373Y306771D01*
X342430Y306791D01*
X342485Y306807D01*
X342539Y306817D01*
X342549Y306819D01*
X358969D01*
X359409Y306906D01*
X359782Y307155D01*
X362796Y310169D01*
X363258Y309978D01*
Y307954D01*
X363061Y307659D01*
X362942Y307063D01*
Y302645D01*
X362047Y301750D01*
X361974Y301689D01*
X361925Y301653D01*
X361887Y301628D01*
X361886Y301628D01*
X361577D01*
X360795Y301304D01*
X360576Y301085D01*
X360575Y301085D01*
X360530Y301075D01*
X360477Y301067D01*
X360343Y301058D01*
X338552D01*
X338429Y301069D01*
X338253Y301098D01*
X338125Y301133D01*
X338051Y301163D01*
Y303078D01*
X334430D01*
Y297685D01*
X337299D01*
X337311Y297683D01*
X337322Y297685D01*
X338051D01*
Y297912D01*
X338458Y297942D01*
X360376D01*
X360471Y297934D01*
X360530Y297925D01*
X360575Y297915D01*
X360576Y297915D01*
X360795Y297696D01*
X361577Y297372D01*
X362423D01*
X363205Y297696D01*
X363804Y298295D01*
X364128Y299077D01*
Y299386D01*
X364128Y299387D01*
X364153Y299425D01*
X364185Y299468D01*
X364273Y299570D01*
X365602Y300898D01*
X365939Y301404D01*
X366058Y302000D01*
Y305758D01*
X371100D01*
X371384Y305814D01*
X371625Y305975D01*
X371625Y305975D01*
X375461Y309811D01*
X385632D01*
X385784Y309321D01*
X385785Y309311D01*
X376987Y300513D01*
X376737Y300140D01*
X376650Y299700D01*
Y299043D01*
X376649Y299034D01*
X376639Y298987D01*
X376624Y298941D01*
X376605Y298894D01*
X376580Y298845D01*
X376549Y298794D01*
X376510Y298739D01*
X376462Y298682D01*
X376389Y298606D01*
X376354Y298551D01*
X376123Y298320D01*
X375822Y297593D01*
Y296807D01*
X376123Y296080D01*
X376680Y295523D01*
X377407Y295222D01*
X377442D01*
X377634Y294760D01*
X376490Y293617D01*
X376483Y293611D01*
X376443Y293585D01*
X376400Y293562D01*
X376353Y293543D01*
X376301Y293526D01*
X376242Y293512D01*
X376176Y293501D01*
X376102Y293494D01*
X375996Y293492D01*
X375933Y293478D01*
X375607D01*
X374880Y293177D01*
X374323Y292620D01*
X374022Y291893D01*
Y291107D01*
X374211Y290650D01*
X373899Y290150D01*
X372918D01*
X371255Y291813D01*
X370882Y292063D01*
X370442Y292150D01*
X354000D01*
X353560Y292063D01*
X353187Y291813D01*
X352490Y291116D01*
X352483Y291111D01*
X352443Y291085D01*
X352400Y291062D01*
X352353Y291043D01*
X352301Y291026D01*
X352242Y291012D01*
X352176Y291001D01*
X352102Y290994D01*
X351996Y290992D01*
X351933Y290978D01*
X351607D01*
X350880Y290677D01*
X350323Y290120D01*
X350022Y289393D01*
Y288607D01*
X350323Y287880D01*
X350880Y287323D01*
X351607Y287022D01*
X352393D01*
X353120Y287323D01*
X353677Y287880D01*
X353978Y288607D01*
Y288933D01*
X353992Y288997D01*
X353994Y289102D01*
X354001Y289176D01*
X354012Y289242D01*
X354026Y289301D01*
X354043Y289353D01*
X354062Y289400D01*
X354085Y289442D01*
X354111Y289483D01*
X354116Y289490D01*
X354476Y289850D01*
X357561D01*
X357768Y289350D01*
X357293Y288875D01*
X356972Y288100D01*
X361428D01*
X361107Y288875D01*
X360632Y289350D01*
X360839Y289850D01*
X369966D01*
X371629Y288187D01*
X372002Y287937D01*
X372442Y287850D01*
X377500D01*
X377940Y287937D01*
X378313Y288187D01*
X392976Y302850D01*
X404357D01*
X404366Y302849D01*
X404413Y302839D01*
X404459Y302824D01*
X404506Y302805D01*
X404555Y302780D01*
X404606Y302749D01*
X404661Y302710D01*
X404718Y302662D01*
X404794Y302589D01*
X404849Y302554D01*
X405080Y302323D01*
X405807Y302022D01*
X406593D01*
X407320Y302323D01*
X407877Y302880D01*
X408178Y303607D01*
Y304393D01*
X407947Y304950D01*
X408201Y305450D01*
X420100D01*
X420540Y305537D01*
X420913Y305787D01*
X425463Y310337D01*
X425713Y310710D01*
X425800Y311150D01*
Y317152D01*
X427388D01*
Y320385D01*
X427815D01*
Y320812D01*
X431048D01*
Y325550D01*
X434324D01*
X434850Y325024D01*
Y312976D01*
X421524Y299650D01*
X392500D01*
X392060Y299563D01*
X391687Y299313D01*
X378524Y286150D01*
X361576D01*
X361242Y286650D01*
X361428Y287100D01*
X356972D01*
X357158Y286650D01*
X356824Y286150D01*
X329000D01*
X328560Y286063D01*
X328187Y285813D01*
X322187Y279813D01*
X321937Y279440D01*
X321850Y279000D01*
Y254000D01*
Y245900D01*
X321937Y245460D01*
X322187Y245087D01*
X327645Y239628D01*
X328018Y239379D01*
X328458Y239291D01*
X333279D01*
X333288Y239290D01*
X333334Y239280D01*
X333381Y239266D01*
X333428Y239247D01*
X333476Y239222D01*
X333528Y239191D01*
X333582Y239151D01*
X333639Y239104D01*
X333715Y239030D01*
X333770Y238996D01*
X334001Y238765D01*
X334728Y238463D01*
X335515D01*
X336242Y238765D01*
X336798Y239321D01*
X337100Y240048D01*
Y240835D01*
X336798Y241562D01*
X336242Y242118D01*
X336141Y242160D01*
Y242660D01*
X336242Y242702D01*
X336798Y243258D01*
X337100Y243985D01*
Y244772D01*
X336798Y245499D01*
X336242Y246055D01*
X335515Y246357D01*
X334728D01*
X334001Y246055D01*
X333654Y245708D01*
X333381Y245707D01*
X333073Y245766D01*
X332698Y246254D01*
X332148Y246676D01*
X331508Y246941D01*
X330929Y247017D01*
X330821Y247039D01*
Y247031D01*
X330135Y246941D01*
X329958Y246868D01*
X326150Y250676D01*
Y277524D01*
X330476Y281850D01*
X379500D01*
X379940Y281937D01*
X380313Y282187D01*
X393476Y295350D01*
X423000D01*
X423440Y295437D01*
X423813Y295687D01*
X438813Y310687D01*
X439063Y311060D01*
X439150Y311500D01*
Y326500D01*
X439063Y326940D01*
X438813Y327313D01*
X437033Y329093D01*
X436660Y329343D01*
X436220Y329430D01*
X431048D01*
Y332588D01*
X427815D01*
Y333015D01*
X427388D01*
Y336248D01*
D02*
G37*
G36*
X357283Y338845D02*
Y335232D01*
X360175D01*
Y335520D01*
X360059Y336397D01*
X359720Y337215D01*
X359181Y337918D01*
X358479Y338457D01*
X357661Y338795D01*
X357283Y338845D01*
D02*
G37*
G36*
X356283D02*
X355906Y338795D01*
X355088Y338457D01*
X354385Y337918D01*
X353847Y337215D01*
X353508Y336397D01*
X353392Y335520D01*
Y335232D01*
X356283D01*
Y338845D01*
D02*
G37*
G36*
X323268D02*
Y335232D01*
X326159D01*
Y335520D01*
X326043Y336397D01*
X325705Y337215D01*
X325166Y337918D01*
X324463Y338457D01*
X323645Y338795D01*
X323268Y338845D01*
D02*
G37*
G36*
X322268D02*
X321890Y338795D01*
X321072Y338457D01*
X320370Y337918D01*
X319831Y337215D01*
X319492Y336397D01*
X319376Y335520D01*
Y335232D01*
X322268D01*
Y338845D01*
D02*
G37*
G36*
X385268Y336261D02*
X382012D01*
Y333202D01*
X385268D01*
Y336261D01*
D02*
G37*
G36*
X381012D02*
X377756D01*
Y333202D01*
X381012D01*
Y336261D01*
D02*
G37*
G36*
X356283Y334232D02*
X353392D01*
Y333945D01*
X353508Y333067D01*
X353847Y332249D01*
X354385Y331547D01*
X355088Y331008D01*
X355906Y330669D01*
X356283Y330620D01*
Y334232D01*
D02*
G37*
G36*
X326159D02*
X323268D01*
Y330620D01*
X323645Y330669D01*
X324463Y331008D01*
X325166Y331547D01*
X325705Y332249D01*
X326043Y333067D01*
X326159Y333945D01*
Y334232D01*
D02*
G37*
G36*
X322268D02*
X319376D01*
Y333945D01*
X319492Y333067D01*
X319831Y332249D01*
X320370Y331547D01*
X321072Y331008D01*
X321890Y330669D01*
X322268Y330620D01*
Y334232D01*
D02*
G37*
G36*
X323268Y323369D02*
Y318776D01*
X325762D01*
Y320441D01*
X325660Y321216D01*
X325361Y321938D01*
X324885Y322558D01*
X324265Y323034D01*
X323543Y323333D01*
X323268Y323369D01*
D02*
G37*
G36*
X322268D02*
X321993Y323333D01*
X321271Y323034D01*
X320651Y322558D01*
X320175Y321938D01*
X319876Y321216D01*
X319774Y320441D01*
Y318776D01*
X322268D01*
Y323369D01*
D02*
G37*
G36*
X328796Y322370D02*
X327998D01*
X327260Y322065D01*
X326695Y321500D01*
X326390Y320762D01*
Y319964D01*
X326695Y319226D01*
X327260Y318661D01*
X327998Y318355D01*
X328796D01*
X329534Y318661D01*
X330099Y319226D01*
X330404Y319964D01*
Y320762D01*
X330099Y321500D01*
X329534Y322065D01*
X328796Y322370D01*
D02*
G37*
G36*
X359778Y317776D02*
X357283D01*
Y313182D01*
X357558Y313218D01*
X358280Y313517D01*
X358901Y313993D01*
X359376Y314613D01*
X359676Y315335D01*
X359778Y316110D01*
Y317776D01*
D02*
G37*
G36*
X356283D02*
X353789D01*
Y316110D01*
X353891Y315335D01*
X354190Y314613D01*
X354666Y313993D01*
X355286Y313517D01*
X356009Y313218D01*
X356283Y313182D01*
Y317776D01*
D02*
G37*
G36*
X325762D02*
X323268D01*
Y313182D01*
X323543Y313218D01*
X324265Y313517D01*
X324885Y313993D01*
X325361Y314613D01*
X325660Y315335D01*
X325762Y316110D01*
Y317776D01*
D02*
G37*
G36*
X322268D02*
X319774D01*
Y316110D01*
X319876Y315335D01*
X320175Y314613D01*
X320651Y313993D01*
X321271Y313517D01*
X321993Y313218D01*
X322268Y313182D01*
Y317776D01*
D02*
G37*
G36*
X469000Y305228D02*
Y303500D01*
X470728D01*
X470407Y304275D01*
X469774Y304907D01*
X469000Y305228D01*
D02*
G37*
G36*
X468000D02*
X467226Y304907D01*
X466593Y304275D01*
X466272Y303500D01*
X468000D01*
Y305228D01*
D02*
G37*
G36*
X418500Y304728D02*
Y303000D01*
X420228D01*
X419908Y303774D01*
X419275Y304408D01*
X418500Y304728D01*
D02*
G37*
G36*
X417500D02*
X416725Y304408D01*
X416092Y303774D01*
X415772Y303000D01*
X417500D01*
Y304728D01*
D02*
G37*
G36*
X443000Y303228D02*
Y301500D01*
X444728D01*
X444408Y302274D01*
X443775Y302907D01*
X443000Y303228D01*
D02*
G37*
G36*
X442000D02*
X441225Y302907D01*
X440592Y302274D01*
X440272Y301500D01*
X442000D01*
Y303228D01*
D02*
G37*
G36*
X470728Y302500D02*
X469000D01*
Y300772D01*
X469774Y301093D01*
X470407Y301726D01*
X470728Y302500D01*
D02*
G37*
G36*
X468000D02*
X466272D01*
X466593Y301726D01*
X467226Y301093D01*
X468000Y300772D01*
Y302500D01*
D02*
G37*
G36*
X420228Y302000D02*
X418500D01*
Y300272D01*
X419275Y300592D01*
X419908Y301225D01*
X420228Y302000D01*
D02*
G37*
G36*
X417500D02*
X415772D01*
X416092Y301225D01*
X416725Y300592D01*
X417500Y300272D01*
Y302000D01*
D02*
G37*
G36*
X444728Y300500D02*
X443000D01*
Y298772D01*
X443775Y299093D01*
X444408Y299726D01*
X444728Y300500D01*
D02*
G37*
G36*
X442000D02*
X440272D01*
X440592Y299726D01*
X441225Y299093D01*
X442000Y298772D01*
Y300500D01*
D02*
G37*
G36*
X330571Y303078D02*
X326949D01*
Y297685D01*
X330571D01*
Y303078D01*
D02*
G37*
G36*
X432500Y292728D02*
Y291000D01*
X434228D01*
X433908Y291775D01*
X433275Y292407D01*
X432500Y292728D01*
D02*
G37*
G36*
X431500D02*
X430725Y292407D01*
X430092Y291775D01*
X429772Y291000D01*
X431500D01*
Y292728D01*
D02*
G37*
G36*
X455116Y297271D02*
X454199D01*
X453313Y297034D01*
X452518Y296575D01*
X451870Y295927D01*
X451411Y295132D01*
X451174Y294246D01*
Y293329D01*
X451411Y292443D01*
X451870Y291648D01*
X452518Y291000D01*
X453313Y290541D01*
X454199Y290304D01*
X455116D01*
X456002Y290541D01*
X456797Y291000D01*
X457445Y291648D01*
X457904Y292443D01*
X458141Y293329D01*
Y294246D01*
X457904Y295132D01*
X457445Y295927D01*
X456797Y296575D01*
X456002Y297034D01*
X455116Y297271D01*
D02*
G37*
G36*
X333069D02*
X332152D01*
X331265Y297034D01*
X330471Y296575D01*
X329822Y295927D01*
X329364Y295132D01*
X329126Y294246D01*
Y293329D01*
X329364Y292443D01*
X329822Y291648D01*
X330471Y291000D01*
X331265Y290541D01*
X332152Y290304D01*
X333069D01*
X333955Y290541D01*
X334749Y291000D01*
X335398Y291648D01*
X335857Y292443D01*
X336094Y293329D01*
Y294246D01*
X335857Y295132D01*
X335398Y295927D01*
X334749Y296575D01*
X333955Y297034D01*
X333069Y297271D01*
D02*
G37*
G36*
X434228Y290000D02*
X432500D01*
Y288272D01*
X433275Y288593D01*
X433908Y289226D01*
X434228Y290000D01*
D02*
G37*
G36*
X431500D02*
X429772D01*
X430092Y289226D01*
X430725Y288593D01*
X431500Y288272D01*
Y290000D01*
D02*
G37*
G36*
X445893Y311978D02*
X445107D01*
X444380Y311677D01*
X443823Y311120D01*
X443522Y310393D01*
Y310067D01*
X443508Y310003D01*
X443506Y309898D01*
X443499Y309824D01*
X443489Y309758D01*
X443474Y309699D01*
X443457Y309647D01*
X443438Y309600D01*
X443415Y309558D01*
X443389Y309517D01*
X443384Y309510D01*
X427324Y293450D01*
X397300D01*
X396860Y293363D01*
X396487Y293113D01*
X384903Y281530D01*
X384843D01*
X384834Y281531D01*
X384787Y281541D01*
X384741Y281555D01*
X384694Y281575D01*
X384645Y281599D01*
X384594Y281631D01*
X384539Y281670D01*
X384482Y281718D01*
X384406Y281791D01*
X384351Y281826D01*
X384120Y282056D01*
X383393Y282358D01*
X382607D01*
X381880Y282056D01*
X381323Y281500D01*
X381022Y280773D01*
Y279986D01*
X381226Y279493D01*
X380936Y278993D01*
X333443D01*
X333434Y278994D01*
X333387Y279004D01*
X333341Y279019D01*
X333294Y279038D01*
X333245Y279063D01*
X333194Y279094D01*
X333139Y279133D01*
X333082Y279181D01*
X333006Y279254D01*
X332951Y279289D01*
X332720Y279520D01*
X331993Y279821D01*
X331207D01*
X330480Y279520D01*
X329923Y278963D01*
X329622Y278237D01*
Y277450D01*
X329923Y276723D01*
X330480Y276166D01*
X330580Y276125D01*
Y275625D01*
X330480Y275583D01*
X329923Y275026D01*
X329622Y274300D01*
Y273513D01*
X329923Y272786D01*
X330480Y272229D01*
X330580Y272188D01*
Y271688D01*
X330480Y271646D01*
X329923Y271090D01*
X329622Y270362D01*
Y269576D01*
X329923Y268849D01*
X330480Y268292D01*
X330580Y268251D01*
Y267751D01*
X330480Y267709D01*
X329923Y267153D01*
X329622Y266425D01*
Y265639D01*
X329923Y264912D01*
X330480Y264355D01*
X330580Y264314D01*
Y263814D01*
X330480Y263772D01*
X329923Y263215D01*
X329622Y262489D01*
Y261702D01*
X329923Y260975D01*
X330224Y260674D01*
X330434Y260348D01*
X330224Y260021D01*
X329923Y259720D01*
X329622Y258993D01*
Y258207D01*
X329923Y257480D01*
X330480Y256923D01*
X331206Y256622D01*
X331993D01*
X332720Y256923D01*
X332951Y257154D01*
X333006Y257189D01*
X333082Y257262D01*
X333139Y257310D01*
X333194Y257349D01*
X333245Y257380D01*
X333294Y257405D01*
X333341Y257424D01*
X333387Y257439D01*
X333434Y257449D01*
X333443Y257450D01*
X393499Y257450D01*
X393753Y256950D01*
X393522Y256393D01*
Y255607D01*
X393823Y254880D01*
X394380Y254323D01*
X395107Y254022D01*
X395893D01*
X396620Y254323D01*
X396984Y254686D01*
X397579Y254746D01*
X397652Y254721D01*
X406150Y246224D01*
Y240943D01*
X406149Y240934D01*
X406139Y240887D01*
X406124Y240841D01*
X406105Y240794D01*
X406080Y240745D01*
X406049Y240694D01*
X406010Y240639D01*
X405962Y240582D01*
X405889Y240506D01*
X405854Y240451D01*
X405623Y240220D01*
X405322Y239493D01*
Y238707D01*
X405623Y237980D01*
X406180Y237423D01*
X406907Y237122D01*
X407693D01*
X408420Y237423D01*
X408977Y237980D01*
X409278Y238707D01*
Y239493D01*
X408977Y240220D01*
X408746Y240451D01*
X408711Y240506D01*
X408638Y240582D01*
X408590Y240639D01*
X408551Y240694D01*
X408520Y240745D01*
X408495Y240794D01*
X408476Y240841D01*
X408461Y240887D01*
X408451Y240934D01*
X408450Y240943D01*
Y246700D01*
X408363Y247140D01*
X408113Y247513D01*
X399504Y256122D01*
X399712Y256622D01*
X399993D01*
X400720Y256923D01*
X401081Y257283D01*
X401592Y257280D01*
X401677Y257226D01*
X402180Y256723D01*
X402907Y256422D01*
X403693D01*
X404420Y256723D01*
X404977Y257280D01*
X405278Y258007D01*
Y258793D01*
X404977Y259520D01*
X404420Y260077D01*
X404073Y260221D01*
Y260762D01*
X404220Y260823D01*
X404722Y261325D01*
X405037Y261331D01*
X405279Y261286D01*
X405323Y261180D01*
X405880Y260623D01*
X406607Y260322D01*
X407393D01*
X408120Y260623D01*
X408677Y261180D01*
X408771Y261406D01*
X409312D01*
X409323Y261380D01*
X409880Y260823D01*
X410606Y260522D01*
X411393D01*
X412120Y260823D01*
X412677Y261380D01*
X412978Y262107D01*
Y262893D01*
X412677Y263620D01*
X412120Y264177D01*
X412000Y264227D01*
Y266970D01*
X412028Y267028D01*
X412045Y267055D01*
X412066Y267080D01*
X412518Y267231D01*
X412594Y267158D01*
X412649Y267123D01*
X412880Y266892D01*
X413607Y266591D01*
X414394D01*
X415120Y266892D01*
X415677Y267448D01*
X415978Y268175D01*
Y268962D01*
X415677Y269689D01*
X415516Y269850D01*
X415723Y270350D01*
X416424D01*
X439850Y246924D01*
Y207500D01*
X439937Y207060D01*
X440187Y206687D01*
X444186Y202687D01*
X444560Y202438D01*
X445000Y202350D01*
X446055D01*
Y201394D01*
X452511D01*
Y202350D01*
X463772D01*
Y201394D01*
X465261D01*
X465468Y200894D01*
X464490Y199917D01*
X464483Y199911D01*
X464442Y199885D01*
X464400Y199862D01*
X464353Y199843D01*
X464301Y199826D01*
X464242Y199811D01*
X464176Y199801D01*
X464102Y199794D01*
X463997Y199792D01*
X463933Y199778D01*
X463607D01*
X462880Y199477D01*
X462323Y198921D01*
X462022Y198194D01*
Y197406D01*
X462323Y196679D01*
X462880Y196123D01*
X463607Y195822D01*
X464394D01*
X465120Y196123D01*
X465677Y196679D01*
X465978Y197406D01*
Y197733D01*
X465992Y197796D01*
X465994Y197902D01*
X466001Y197976D01*
X466011Y198042D01*
X466026Y198101D01*
X466043Y198153D01*
X466062Y198200D01*
X466085Y198242D01*
X466111Y198283D01*
X466117Y198290D01*
X467813Y199987D01*
X468063Y200360D01*
X468150Y200800D01*
Y201394D01*
X470228D01*
Y205606D01*
X463772D01*
Y204650D01*
X452511D01*
Y205606D01*
X446055D01*
Y204650D01*
X445476D01*
X442150Y207976D01*
Y247400D01*
X442063Y247840D01*
X441813Y248213D01*
X417713Y272313D01*
X417340Y272563D01*
X416900Y272650D01*
X413976D01*
X412991Y273636D01*
X413274Y274060D01*
X413607Y273922D01*
X414394D01*
X415120Y274223D01*
X415351Y274454D01*
X415406Y274489D01*
X415482Y274562D01*
X415540Y274610D01*
X415594Y274649D01*
X415645Y274680D01*
X415694Y274705D01*
X415741Y274724D01*
X415787Y274739D01*
X415834Y274749D01*
X415843Y274750D01*
X422624D01*
X451841Y245533D01*
X452214Y245284D01*
X452654Y245196D01*
X454357D01*
X454366Y245195D01*
X454413Y245185D01*
X454459Y245170D01*
X454506Y245151D01*
X454555Y245127D01*
X454606Y245095D01*
X454661Y245056D01*
X454718Y245008D01*
X454794Y244935D01*
X454849Y244900D01*
X455080Y244669D01*
X455806Y244368D01*
X456594D01*
X457320Y244669D01*
X457877Y245226D01*
X458178Y245953D01*
Y246740D01*
X457877Y247466D01*
X457320Y248023D01*
X457220Y248065D01*
Y248565D01*
X457320Y248606D01*
X457877Y249163D01*
X458178Y249890D01*
Y250676D01*
X457877Y251403D01*
X457320Y251960D01*
X457177Y252019D01*
Y252560D01*
X457451Y252674D01*
X458008Y253231D01*
X458309Y253958D01*
Y254745D01*
X458008Y255471D01*
X457451Y256028D01*
X457444Y256031D01*
X457422Y256581D01*
X457877Y257037D01*
X458178Y257764D01*
Y258551D01*
X457877Y259278D01*
X457320Y259834D01*
X456594Y260135D01*
X455806D01*
X455080Y259834D01*
X454849Y259603D01*
X454794Y259568D01*
X454718Y259495D01*
X454661Y259447D01*
X454606Y259408D01*
X454555Y259377D01*
X454506Y259352D01*
X454459Y259333D01*
X454413Y259318D01*
X454366Y259308D01*
X454357Y259307D01*
X452319D01*
X443308Y268318D01*
X443515Y268818D01*
X454357D01*
X454366Y268817D01*
X454413Y268807D01*
X454459Y268793D01*
X454506Y268773D01*
X454555Y268749D01*
X454606Y268717D01*
X454661Y268678D01*
X454718Y268630D01*
X454794Y268557D01*
X454849Y268522D01*
X455080Y268291D01*
X455806Y267990D01*
X456594D01*
X457320Y268291D01*
X457877Y268848D01*
X458178Y269575D01*
Y270362D01*
X457877Y271089D01*
X457320Y271645D01*
X457220Y271687D01*
Y272187D01*
X457320Y272228D01*
X457877Y272785D01*
X458178Y273512D01*
Y274299D01*
X457877Y275026D01*
X457320Y275582D01*
X456594Y275883D01*
X455806D01*
X455080Y275582D01*
X454849Y275351D01*
X454794Y275316D01*
X454718Y275243D01*
X454661Y275195D01*
X454606Y275156D01*
X454555Y275125D01*
X454506Y275100D01*
X454459Y275081D01*
X454413Y275066D01*
X454366Y275056D01*
X454357Y275055D01*
X442671D01*
X427522Y290204D01*
X427149Y290454D01*
X426709Y290541D01*
X415760D01*
X415682Y290597D01*
X415656Y290650D01*
X415968Y291150D01*
X427800D01*
X428240Y291237D01*
X428613Y291487D01*
X445010Y307884D01*
X445017Y307889D01*
X445057Y307915D01*
X445100Y307938D01*
X445147Y307957D01*
X445199Y307974D01*
X445258Y307989D01*
X445324Y307999D01*
X445398Y308006D01*
X445504Y308008D01*
X445567Y308022D01*
X445893D01*
X446620Y308323D01*
X447177Y308879D01*
X447478Y309607D01*
Y310393D01*
X447177Y311120D01*
X446620Y311677D01*
X445893Y311978D01*
D02*
G37*
G36*
X331322Y253050D02*
Y251322D01*
X333050D01*
X332729Y252096D01*
X332096Y252729D01*
X331322Y253050D01*
D02*
G37*
G36*
X330322D02*
X329547Y252729D01*
X328914Y252096D01*
X328593Y251322D01*
X330322D01*
Y253050D01*
D02*
G37*
G36*
X333050Y250322D02*
X331322D01*
Y248593D01*
X332096Y248914D01*
X332729Y249547D01*
X333050Y250322D01*
D02*
G37*
G36*
X330322D02*
X328593D01*
X328914Y249547D01*
X329547Y248914D01*
X330322Y248593D01*
Y250322D01*
D02*
G37*
G36*
X361500Y244228D02*
Y242500D01*
X363228D01*
X362908Y243274D01*
X362275Y243907D01*
X361500Y244228D01*
D02*
G37*
G36*
X360500D02*
X359725Y243907D01*
X359092Y243274D01*
X358772Y242500D01*
X360500D01*
Y244228D01*
D02*
G37*
G36*
X422000Y243728D02*
Y242000D01*
X423728D01*
X423408Y242775D01*
X422775Y243408D01*
X422000Y243728D01*
D02*
G37*
G36*
X421000D02*
X420225Y243408D01*
X419593Y242775D01*
X419272Y242000D01*
X421000D01*
Y243728D01*
D02*
G37*
G36*
X455158Y241886D02*
Y240158D01*
X456886D01*
X456565Y240932D01*
X455932Y241565D01*
X455158Y241886D01*
D02*
G37*
G36*
X454157D02*
X453383Y241565D01*
X452750Y240932D01*
X452429Y240158D01*
X454157D01*
Y241886D01*
D02*
G37*
G36*
X363228Y241500D02*
X361500D01*
Y239772D01*
X362275Y240092D01*
X362908Y240725D01*
X363228Y241500D01*
D02*
G37*
G36*
X360500D02*
X358772D01*
X359092Y240725D01*
X359725Y240092D01*
X360500Y239772D01*
Y241500D01*
D02*
G37*
G36*
X423728Y241000D02*
X422000D01*
Y239272D01*
X422775Y239593D01*
X423408Y240226D01*
X423728Y241000D01*
D02*
G37*
G36*
X421000D02*
X419272D01*
X419593Y240226D01*
X420225Y239593D01*
X421000Y239272D01*
Y241000D01*
D02*
G37*
G36*
X456886Y239158D02*
X455158D01*
Y237429D01*
X455932Y237750D01*
X456565Y238383D01*
X456886Y239158D01*
D02*
G37*
G36*
X454157D02*
X452429D01*
X452750Y238383D01*
X453383Y237750D01*
X454157Y237429D01*
Y239158D01*
D02*
G37*
G36*
X356000Y238728D02*
Y237000D01*
X357728D01*
X357407Y237774D01*
X356774Y238407D01*
X356000Y238728D01*
D02*
G37*
G36*
X355000D02*
X354225Y238407D01*
X353592Y237774D01*
X353272Y237000D01*
X355000D01*
Y238728D01*
D02*
G37*
G36*
X434500Y238228D02*
Y236500D01*
X436228D01*
X435908Y237275D01*
X435275Y237908D01*
X434500Y238228D01*
D02*
G37*
G36*
X433500D02*
X432725Y237908D01*
X432093Y237275D01*
X431772Y236500D01*
X433500D01*
Y238228D01*
D02*
G37*
G36*
X357728Y236000D02*
X356000D01*
Y234272D01*
X356774Y234593D01*
X357407Y235226D01*
X357728Y236000D01*
D02*
G37*
G36*
X355000D02*
X353272D01*
X353592Y235226D01*
X354225Y234593D01*
X355000Y234272D01*
Y236000D01*
D02*
G37*
G36*
X436228Y235500D02*
X434500D01*
Y233772D01*
X435275Y234092D01*
X435908Y234725D01*
X436228Y235500D01*
D02*
G37*
G36*
X433500D02*
X431772D01*
X432093Y234725D01*
X432725Y234092D01*
X433500Y233772D01*
Y235500D01*
D02*
G37*
G36*
X455158Y234886D02*
Y233157D01*
X456886D01*
X456565Y233932D01*
X455932Y234565D01*
X455158Y234886D01*
D02*
G37*
G36*
X454157D02*
X453383Y234565D01*
X452750Y233932D01*
X452429Y233157D01*
X454157D01*
Y234886D01*
D02*
G37*
G36*
X456886Y232157D02*
X455158D01*
Y230429D01*
X455932Y230750D01*
X456565Y231383D01*
X456886Y232157D01*
D02*
G37*
G36*
X454157D02*
X452429D01*
X452750Y231383D01*
X453383Y230750D01*
X454157Y230429D01*
Y232157D01*
D02*
G37*
G36*
X434500Y231228D02*
Y229500D01*
X436228D01*
X435908Y230275D01*
X435275Y230908D01*
X434500Y231228D01*
D02*
G37*
G36*
X433500D02*
X432725Y230908D01*
X432093Y230275D01*
X431772Y229500D01*
X433500D01*
Y231228D01*
D02*
G37*
G36*
X436228Y228500D02*
X434500D01*
Y226772D01*
X435275Y227093D01*
X435908Y227726D01*
X436228Y228500D01*
D02*
G37*
G36*
X433500D02*
X431772D01*
X432093Y227726D01*
X432725Y227093D01*
X433500Y226772D01*
Y228500D01*
D02*
G37*
G36*
X408000Y223228D02*
Y221500D01*
X409728D01*
X409408Y222274D01*
X408775Y222907D01*
X408000Y223228D01*
D02*
G37*
G36*
X407000D02*
X406225Y222907D01*
X405592Y222274D01*
X405272Y221500D01*
X407000D01*
Y223228D01*
D02*
G37*
G36*
X400000D02*
Y221500D01*
X401728D01*
X401407Y222274D01*
X400774Y222907D01*
X400000Y223228D01*
D02*
G37*
G36*
X399000D02*
X398225Y222907D01*
X397592Y222274D01*
X397272Y221500D01*
X399000D01*
Y223228D01*
D02*
G37*
G36*
X386500D02*
Y221500D01*
X388228D01*
X387908Y222274D01*
X387275Y222907D01*
X386500Y223228D01*
D02*
G37*
G36*
X385500D02*
X384725Y222907D01*
X384092Y222274D01*
X383772Y221500D01*
X385500D01*
Y223228D01*
D02*
G37*
G36*
X344500Y222228D02*
Y220500D01*
X346228D01*
X345907Y221274D01*
X345274Y221907D01*
X344500Y222228D01*
D02*
G37*
G36*
X343500D02*
X342725Y221907D01*
X342092Y221274D01*
X341772Y220500D01*
X343500D01*
Y222228D01*
D02*
G37*
G36*
X455116Y226011D02*
X454199D01*
X453313Y225774D01*
X452518Y225315D01*
X451870Y224667D01*
X451411Y223872D01*
X451174Y222986D01*
Y222069D01*
X451411Y221183D01*
X451870Y220388D01*
X452518Y219740D01*
X453313Y219281D01*
X454199Y219044D01*
X455116D01*
X456002Y219281D01*
X456797Y219740D01*
X457445Y220388D01*
X457904Y221183D01*
X458141Y222069D01*
Y222986D01*
X457904Y223872D01*
X457445Y224667D01*
X456797Y225315D01*
X456002Y225774D01*
X455116Y226011D01*
D02*
G37*
G36*
X333069D02*
X332152D01*
X331265Y225774D01*
X330471Y225315D01*
X329822Y224667D01*
X329364Y223872D01*
X329126Y222986D01*
Y222069D01*
X329364Y221183D01*
X329822Y220388D01*
X330471Y219740D01*
X331265Y219281D01*
X332152Y219044D01*
X333069D01*
X333955Y219281D01*
X334749Y219740D01*
X335398Y220388D01*
X335857Y221183D01*
X336094Y222069D01*
Y222986D01*
X335857Y223872D01*
X335398Y224667D01*
X334749Y225315D01*
X333955Y225774D01*
X333069Y226011D01*
D02*
G37*
G36*
X409728Y220500D02*
X408000D01*
Y218772D01*
X408775Y219092D01*
X409408Y219725D01*
X409728Y220500D01*
D02*
G37*
G36*
X407000D02*
X405272D01*
X405592Y219725D01*
X406225Y219092D01*
X407000Y218772D01*
Y220500D01*
D02*
G37*
G36*
X401728D02*
X400000D01*
Y218772D01*
X400774Y219092D01*
X401407Y219725D01*
X401728Y220500D01*
D02*
G37*
G36*
X399000D02*
X397272D01*
X397592Y219725D01*
X398225Y219092D01*
X399000Y218772D01*
Y220500D01*
D02*
G37*
G36*
X388228D02*
X386500D01*
Y218772D01*
X387275Y219092D01*
X387908Y219725D01*
X388228Y220500D01*
D02*
G37*
G36*
X385500D02*
X383772D01*
X384092Y219725D01*
X384725Y219092D01*
X385500Y218772D01*
Y220500D01*
D02*
G37*
G36*
X346228Y219500D02*
X344500D01*
Y217772D01*
X345274Y218092D01*
X345907Y218725D01*
X346228Y219500D01*
D02*
G37*
G36*
X343500D02*
X341772D01*
X342092Y218725D01*
X342725Y218092D01*
X343500Y217772D01*
Y219500D01*
D02*
G37*
G36*
X452783Y214343D02*
X449784D01*
Y212465D01*
X452783D01*
Y214343D01*
D02*
G37*
G36*
X448783D02*
X445784D01*
Y212465D01*
X448783D01*
Y214343D01*
D02*
G37*
G36*
X470500Y214343D02*
X467500D01*
Y212465D01*
X470500D01*
Y214343D01*
D02*
G37*
G36*
X466500D02*
X463500D01*
Y212465D01*
X466500D01*
Y214343D01*
D02*
G37*
G36*
X452783Y211465D02*
X449784D01*
Y209587D01*
X452783D01*
Y211465D01*
D02*
G37*
G36*
X448783D02*
X445784D01*
Y209587D01*
X448783D01*
Y211465D01*
D02*
G37*
G36*
X470500Y211465D02*
X467500D01*
Y209587D01*
X470500D01*
Y211465D01*
D02*
G37*
G36*
X466500D02*
X463500D01*
Y209587D01*
X466500D01*
Y211465D01*
D02*
G37*
G36*
X356500Y211228D02*
Y209500D01*
X358228D01*
X357908Y210275D01*
X357275Y210908D01*
X356500Y211228D01*
D02*
G37*
G36*
X355500D02*
X354726Y210908D01*
X354093Y210275D01*
X353772Y209500D01*
X355500D01*
Y211228D01*
D02*
G37*
G36*
X358228Y208500D02*
X356500D01*
Y206772D01*
X357275Y207092D01*
X357908Y207726D01*
X358228Y208500D01*
D02*
G37*
G36*
X355500D02*
X353772D01*
X354093Y207726D01*
X354726Y207092D01*
X355500Y206772D01*
Y208500D01*
D02*
G37*
G36*
X425500Y206228D02*
Y204500D01*
X427228D01*
X426907Y205275D01*
X426274Y205908D01*
X425500Y206228D01*
D02*
G37*
G36*
X424500D02*
X423726Y205908D01*
X423093Y205275D01*
X422772Y204500D01*
X424500D01*
Y206228D01*
D02*
G37*
G36*
X418500D02*
Y204500D01*
X420228D01*
X419908Y205275D01*
X419275Y205908D01*
X418500Y206228D01*
D02*
G37*
G36*
X417500D02*
X416725Y205908D01*
X416092Y205275D01*
X415772Y204500D01*
X417500D01*
Y206228D01*
D02*
G37*
G36*
X356500Y204228D02*
Y202500D01*
X358228D01*
X357908Y203274D01*
X357275Y203907D01*
X356500Y204228D01*
D02*
G37*
G36*
X355500D02*
X354726Y203907D01*
X354093Y203274D01*
X353772Y202500D01*
X355500D01*
Y204228D01*
D02*
G37*
G36*
X427228Y203500D02*
X425500D01*
Y201772D01*
X426274Y202093D01*
X426907Y202726D01*
X427228Y203500D01*
D02*
G37*
G36*
X424500D02*
X422772D01*
X423093Y202726D01*
X423726Y202093D01*
X424500Y201772D01*
Y203500D01*
D02*
G37*
G36*
X420228D02*
X418500D01*
Y201772D01*
X419275Y202093D01*
X419908Y202726D01*
X420228Y203500D01*
D02*
G37*
G36*
X417500D02*
X415772D01*
X416092Y202726D01*
X416725Y202093D01*
X417500Y201772D01*
Y203500D01*
D02*
G37*
G36*
X323465Y206174D02*
X323268D01*
Y201374D01*
X328068D01*
Y201572D01*
X327707Y202920D01*
X327009Y204128D01*
X326022Y205115D01*
X324813Y205813D01*
X323465Y206174D01*
D02*
G37*
G36*
X322268D02*
X322070D01*
X320722Y205813D01*
X319514Y205115D01*
X318527Y204128D01*
X317829Y202920D01*
X317468Y201572D01*
Y201374D01*
X322268D01*
Y206174D01*
D02*
G37*
G36*
X358228Y201500D02*
X356500D01*
Y199772D01*
X357275Y200093D01*
X357908Y200726D01*
X358228Y201500D01*
D02*
G37*
G36*
X355500D02*
X353772D01*
X354093Y200726D01*
X354726Y200093D01*
X355500Y199772D01*
Y201500D01*
D02*
G37*
G36*
X328068Y200374D02*
X323268D01*
Y195574D01*
X323465D01*
X324813Y195935D01*
X326022Y196633D01*
X327009Y197620D01*
X327707Y198828D01*
X328068Y200176D01*
Y200374D01*
D02*
G37*
G36*
X322268D02*
X317468D01*
Y200176D01*
X317829Y198828D01*
X318527Y197620D01*
X319514Y196633D01*
X320722Y195935D01*
X322070Y195574D01*
X322268D01*
Y200374D01*
D02*
G37*
%LPD*%
G36*
X367756Y331102D02*
X367740Y331254D01*
X367692Y331390D01*
X367611Y331510D01*
X367498Y331614D01*
X367353Y331702D01*
X367176Y331774D01*
X366966Y331830D01*
X366725Y331870D01*
X366451Y331894D01*
X366144Y331902D01*
Y333502D01*
X366451Y333510D01*
X366725Y333534D01*
X366966Y333574D01*
X367176Y333630D01*
X367353Y333702D01*
X367498Y333790D01*
X367611Y333894D01*
X367692Y334014D01*
X367740Y334150D01*
X367756Y334302D01*
Y331102D01*
D02*
G37*
G36*
X344132Y332396D02*
X344157Y332328D01*
X344197Y332268D01*
X344254Y332216D01*
X344327Y332172D01*
X344416Y332136D01*
X344522Y332108D01*
X344644Y332088D01*
X344782Y332076D01*
X344936Y332072D01*
Y331272D01*
X344782Y331268D01*
X344644Y331256D01*
X344522Y331236D01*
X344416Y331208D01*
X344327Y331172D01*
X344254Y331128D01*
X344197Y331076D01*
X344157Y331016D01*
X344132Y330948D01*
X344124Y330872D01*
Y332472D01*
X344132Y332396D01*
D02*
G37*
G36*
X348167Y331425D02*
X348257Y331356D01*
X348351Y331295D01*
X348450Y331243D01*
X348555Y331199D01*
X348665Y331163D01*
X348780Y331135D01*
X348900Y331116D01*
X349025Y331105D01*
X349156Y331102D01*
X347918Y329865D01*
X347916Y329995D01*
X347904Y330120D01*
X347885Y330240D01*
X347857Y330355D01*
X347822Y330465D01*
X347777Y330570D01*
X347725Y330669D01*
X347664Y330764D01*
X347595Y330853D01*
X347518Y330937D01*
X348083Y331503D01*
X348167Y331425D01*
D02*
G37*
G36*
X337588Y330010D02*
X337472Y329994D01*
X337368Y329946D01*
X337277Y329866D01*
X337197Y329754D01*
X337130Y329610D01*
X337075Y329434D01*
X337032Y329226D01*
X337002Y328986D01*
X336983Y328714D01*
X336977Y328410D01*
X335377D01*
X335369Y328716D01*
X335345Y328990D01*
X335305Y329231D01*
X335249Y329440D01*
X335177Y329618D01*
X335089Y329763D01*
X334985Y329876D01*
X334865Y329957D01*
X334729Y330006D01*
X334577Y330022D01*
X337588Y330010D01*
D02*
G37*
G36*
X336985Y325483D02*
X337009Y325209D01*
X337049Y324968D01*
X337105Y324759D01*
X337177Y324581D01*
X337265Y324436D01*
X337369Y324323D01*
X337489Y324242D01*
X337625Y324194D01*
X337777Y324177D01*
X334751Y324189D01*
X334870Y324205D01*
X334977Y324253D01*
X335070Y324333D01*
X335152Y324445D01*
X335221Y324589D01*
X335277Y324765D01*
X335321Y324973D01*
X335352Y325213D01*
X335371Y325485D01*
X335377Y325789D01*
X336977D01*
X336985Y325483D01*
D02*
G37*
G36*
X343851Y323948D02*
X343900Y323812D01*
X343980Y323692D01*
X344093Y323588D01*
X344238Y323500D01*
X344415Y323428D01*
X344423Y323426D01*
X344459Y323446D01*
X344500Y323480D01*
Y323405D01*
X344625Y323372D01*
X344867Y323332D01*
X345141Y323308D01*
X345447Y323300D01*
Y321700D01*
X345141Y321692D01*
X344867Y321668D01*
X344625Y321628D01*
X344500Y321595D01*
Y321520D01*
X344459Y321554D01*
X344423Y321574D01*
X344415Y321572D01*
X344238Y321500D01*
X344093Y321412D01*
X343980Y321308D01*
X343900Y321188D01*
X343851Y321052D01*
X343835Y320900D01*
Y321691D01*
X343811Y321693D01*
X343511Y321700D01*
Y323300D01*
X343667Y323302D01*
X343835Y323313D01*
Y324100D01*
X343851Y323948D01*
D02*
G37*
G36*
X337688Y320797D02*
X337552Y320749D01*
X337432Y320669D01*
X337328Y320557D01*
X337240Y320413D01*
X337168Y320237D01*
X337112Y320029D01*
X337072Y319789D01*
X337048Y319517D01*
X337040Y319213D01*
X335440D01*
X335433Y319517D01*
X335413Y319789D01*
X335378Y320029D01*
X335330Y320237D01*
X335268Y320413D01*
X335192Y320557D01*
X335103Y320669D01*
X334999Y320749D01*
X334882Y320797D01*
X334751Y320813D01*
X337840D01*
X337688Y320797D01*
D02*
G37*
G36*
X401905Y318752D02*
X401820Y318722D01*
X401745Y318672D01*
X401680Y318602D01*
X401625Y318512D01*
X401580Y318402D01*
X401545Y318272D01*
X401520Y318122D01*
X401505Y317952D01*
X401500Y317762D01*
X400500D01*
X400495Y317952D01*
X400480Y318122D01*
X400455Y318272D01*
X400420Y318402D01*
X400375Y318512D01*
X400320Y318602D01*
X400255Y318672D01*
X400180Y318722D01*
X400095Y318752D01*
X400000Y318762D01*
X402000D01*
X401905Y318752D01*
D02*
G37*
G36*
X343715Y319316D02*
X343812Y319235D01*
X343910Y319164D01*
X344011Y319102D01*
X344114Y319050D01*
X344219Y319007D01*
X344327Y318974D01*
X344437Y318950D01*
X344548Y318936D01*
X344662Y318931D01*
Y318131D01*
X344548Y318127D01*
X344437Y318112D01*
X344327Y318089D01*
X344219Y318055D01*
X344114Y318013D01*
X344011Y317960D01*
X343910Y317899D01*
X343812Y317827D01*
X343715Y317747D01*
X343621Y317656D01*
Y319406D01*
X343715Y319316D01*
D02*
G37*
G36*
X420320Y315000D02*
X419520Y314034D01*
X419514Y314192D01*
X419497Y314345D01*
X419469Y314493D01*
X419429Y314637D01*
X419379Y314776D01*
X419316Y314910D01*
X419243Y315039D01*
X419158Y315164D01*
X419062Y315284D01*
X418954Y315400D01*
Y316531D01*
X419062Y316432D01*
X419158Y316360D01*
X419243Y316315D01*
X419316Y316297D01*
X419379Y316307D01*
X419429Y316344D01*
X419469Y316409D01*
X419497Y316500D01*
X419514Y316619D01*
X419520Y316766D01*
X420320Y315000D01*
D02*
G37*
G36*
X337043Y313871D02*
X337108Y312975D01*
X337138Y312831D01*
X337173Y312719D01*
X337213Y312639D01*
X337259Y312591D01*
X337311Y312575D01*
X335170D01*
X335221Y312591D01*
X335267Y312639D01*
X335308Y312719D01*
X335343Y312831D01*
X335372Y312975D01*
X335397Y313151D01*
X335429Y313599D01*
X335440Y314175D01*
X337040D01*
X337043Y313871D01*
D02*
G37*
G36*
X411952Y324718D02*
X411952D01*
Y322382D01*
X411952D01*
Y320812D01*
X415185D01*
Y320385D01*
X415612D01*
Y317152D01*
X417200D01*
Y316570D01*
X417287Y316130D01*
X417537Y315757D01*
X418520Y314773D01*
X418560Y314723D01*
X418612Y314647D01*
X418656Y314570D01*
X418692Y314491D01*
X418722Y314410D01*
X418746Y314325D01*
X418763Y314234D01*
X418770Y314171D01*
Y313896D01*
X418053Y313179D01*
X418046Y313174D01*
X418006Y313148D01*
X417963Y313125D01*
X417916Y313106D01*
X417864Y313089D01*
X417805Y313074D01*
X417739Y313064D01*
X417665Y313057D01*
X417559Y313055D01*
X417496Y313041D01*
X417170D01*
X416442Y312740D01*
X416215Y312512D01*
X416163Y312480D01*
X416111Y312431D01*
X416081Y312408D01*
X416050Y312388D01*
X416015Y312369D01*
X415975Y312352D01*
X415929Y312337D01*
X415877Y312325D01*
X415819Y312315D01*
X403807D01*
X402611Y313510D01*
X402550Y313587D01*
X402477Y313694D01*
X402415Y313803D01*
X402363Y313916D01*
X402321Y314032D01*
X402287Y314153D01*
X402263Y314280D01*
X402252Y314377D01*
Y317974D01*
X402256Y318022D01*
X403628D01*
Y322978D01*
X398372D01*
Y318022D01*
X399744D01*
X399748Y317974D01*
Y314377D01*
X399737Y314280D01*
X399713Y314153D01*
X399679Y314032D01*
X399637Y313915D01*
X399585Y313803D01*
X399523Y313694D01*
X399450Y313587D01*
X399389Y313510D01*
X398193Y312315D01*
X375742D01*
X375742Y325500D01*
X375783Y325550D01*
X411952D01*
Y324718D01*
D02*
G37*
G36*
X401507Y314361D02*
X401528Y314170D01*
X401564Y313984D01*
X401613Y313805D01*
X401677Y313631D01*
X401755Y313463D01*
X401847Y313302D01*
X401953Y313145D01*
X402073Y312995D01*
X402207Y312851D01*
X401707Y311937D01*
X401566Y312064D01*
X401424Y312163D01*
X401283Y312234D01*
X401141Y312276D01*
X401000Y312290D01*
X400859Y312276D01*
X400717Y312234D01*
X400576Y312163D01*
X400434Y312064D01*
X400293Y311937D01*
X399793Y312851D01*
X399927Y312995D01*
X400047Y313145D01*
X400153Y313302D01*
X400245Y313463D01*
X400323Y313631D01*
X400387Y313805D01*
X400436Y313984D01*
X400472Y314170D01*
X400493Y314361D01*
X400500Y314558D01*
X401500D01*
X401507Y314361D01*
D02*
G37*
G36*
X419214Y312148D02*
X419136Y312064D01*
X419067Y311975D01*
X419006Y311880D01*
X418954Y311781D01*
X418910Y311676D01*
X418874Y311566D01*
X418846Y311451D01*
X418827Y311331D01*
X418816Y311206D01*
X418813Y311075D01*
X417576Y312313D01*
X417706Y312316D01*
X417831Y312327D01*
X417951Y312346D01*
X418066Y312374D01*
X418176Y312410D01*
X418281Y312454D01*
X418380Y312506D01*
X418475Y312567D01*
X418564Y312636D01*
X418648Y312714D01*
X419214Y312148D01*
D02*
G37*
G36*
X416670Y310188D02*
X416594Y310259D01*
X416513Y310323D01*
X416426Y310379D01*
X416333Y310428D01*
X416236Y310469D01*
X416133Y310503D01*
X416024Y310529D01*
X415911Y310548D01*
X415792Y310559D01*
X415667Y310563D01*
Y311563D01*
X415792Y311567D01*
X415911Y311578D01*
X416024Y311597D01*
X416133Y311623D01*
X416236Y311657D01*
X416333Y311698D01*
X416426Y311747D01*
X416513Y311803D01*
X416594Y311867D01*
X416670Y311938D01*
Y310188D01*
D02*
G37*
G36*
X327701Y309018D02*
X327685Y309170D01*
X327637Y309306D01*
X327556Y309426D01*
X327443Y309530D01*
X327298Y309618D01*
X327121Y309690D01*
X326911Y309746D01*
X326670Y309786D01*
X326395Y309810D01*
X326089Y309818D01*
Y311418D01*
X326395Y311426D01*
X326670Y311450D01*
X326911Y311490D01*
X327121Y311546D01*
X327298Y311618D01*
X327443Y311706D01*
X327556Y311810D01*
X327637Y311930D01*
X327685Y312066D01*
X327701Y312218D01*
Y309018D01*
D02*
G37*
G36*
X337259Y308647D02*
X337213Y308605D01*
X337173Y308534D01*
X337138Y308434D01*
X337108Y308306D01*
X337084Y308150D01*
X337065Y307965D01*
X337043Y307510D01*
X337040Y307240D01*
X335440D01*
X335437Y307510D01*
X335397Y308150D01*
X335372Y308306D01*
X335343Y308434D01*
X335308Y308534D01*
X335267Y308605D01*
X335221Y308647D01*
X335170Y308662D01*
X337311D01*
X337259Y308647D01*
D02*
G37*
G36*
X329779D02*
X329733Y308605D01*
X329693Y308534D01*
X329657Y308434D01*
X329627Y308306D01*
X329603Y308150D01*
X329584Y307965D01*
X329563Y307510D01*
X329560Y307240D01*
X327960D01*
X327957Y307510D01*
X327917Y308150D01*
X327892Y308306D01*
X327862Y308434D01*
X327827Y308534D01*
X327787Y308605D01*
X327741Y308647D01*
X327689Y308662D01*
X329831D01*
X329779Y308647D01*
D02*
G37*
G36*
X341815Y308778D02*
X341902Y308692D01*
X341993Y308616D01*
X342087Y308550D01*
X342185Y308495D01*
X342286Y308449D01*
X342391Y308414D01*
X342500Y308389D01*
X342612Y308374D01*
X342728Y308369D01*
X342647Y307569D01*
X342535Y307564D01*
X342424Y307551D01*
X342313Y307529D01*
X342204Y307499D01*
X342095Y307459D01*
X341987Y307411D01*
X341880Y307354D01*
X341775Y307289D01*
X341670Y307215D01*
X341565Y307132D01*
X341732Y308874D01*
X341815Y308778D01*
D02*
G37*
G36*
X375000Y325500D02*
X375000Y310400D01*
X371100Y306500D01*
X365000D01*
X364000Y307500D01*
Y322273D01*
X367227Y325500D01*
X375000Y325500D01*
D02*
G37*
G36*
X405307Y303125D02*
X405213Y303215D01*
X405117Y303296D01*
X405018Y303367D01*
X404917Y303429D01*
X404814Y303481D01*
X404709Y303524D01*
X404601Y303557D01*
X404492Y303581D01*
X404380Y303595D01*
X404266Y303600D01*
Y304400D01*
X404380Y304405D01*
X404492Y304419D01*
X404601Y304443D01*
X404709Y304476D01*
X404814Y304519D01*
X404917Y304571D01*
X405018Y304633D01*
X405117Y304704D01*
X405213Y304785D01*
X405307Y304875D01*
Y303125D01*
D02*
G37*
G36*
X320302Y300954D02*
X320329Y300562D01*
X320345Y300457D01*
X320365Y300364D01*
X320388Y300285D01*
X320415Y300217D01*
X320446Y300163D01*
X320480Y300121D01*
X318520D01*
X318554Y300163D01*
X318585Y300217D01*
X318612Y300285D01*
X318635Y300364D01*
X318655Y300457D01*
X318671Y300562D01*
X318693Y300811D01*
X318700Y301111D01*
X320300D01*
X320302Y300954D01*
D02*
G37*
G36*
X363972Y300341D02*
X363863Y300229D01*
X363605Y299933D01*
X363542Y299847D01*
X363490Y299767D01*
X363450Y299694D01*
X363422Y299628D01*
X363405Y299568D01*
X363400Y299514D01*
X362014Y300900D01*
X362068Y300905D01*
X362128Y300922D01*
X362194Y300950D01*
X362267Y300990D01*
X362347Y301042D01*
X362433Y301105D01*
X362624Y301265D01*
X362841Y301472D01*
X363972Y300341D01*
D02*
G37*
G36*
X361000Y298520D02*
X360959Y298554D01*
X360904Y298585D01*
X360837Y298612D01*
X360757Y298635D01*
X360665Y298655D01*
X360559Y298671D01*
X360311Y298693D01*
X360011Y298700D01*
Y300300D01*
X360167Y300302D01*
X360559Y300329D01*
X360665Y300345D01*
X360757Y300365D01*
X360837Y300388D01*
X360904Y300415D01*
X360959Y300446D01*
X361000Y300480D01*
Y298520D01*
D02*
G37*
G36*
X337327Y300948D02*
X337375Y300812D01*
X337455Y300692D01*
X337567Y300588D01*
X337711Y300500D01*
X337887Y300428D01*
X338095Y300372D01*
X338335Y300332D01*
X338607Y300308D01*
X338911Y300300D01*
Y298700D01*
X338607Y298697D01*
X337711Y298631D01*
X337567Y298601D01*
X337455Y298565D01*
X337375Y298524D01*
X337327Y298478D01*
X337311Y298425D01*
Y301100D01*
X337327Y300948D01*
D02*
G37*
G36*
X378205Y299020D02*
X378219Y298908D01*
X378243Y298799D01*
X378276Y298691D01*
X378319Y298586D01*
X378371Y298483D01*
X378433Y298382D01*
X378504Y298283D01*
X378585Y298187D01*
X378675Y298093D01*
X376925D01*
X377015Y298187D01*
X377096Y298283D01*
X377167Y298382D01*
X377229Y298483D01*
X377281Y298586D01*
X377324Y298691D01*
X377357Y298799D01*
X377381Y298908D01*
X377395Y299020D01*
X377400Y299134D01*
X378200D01*
X378205Y299020D01*
D02*
G37*
G36*
X377651Y292585D02*
X377573Y292501D01*
X377504Y292412D01*
X377444Y292317D01*
X377391Y292218D01*
X377347Y292113D01*
X377311Y292003D01*
X377283Y291888D01*
X377264Y291768D01*
X377253Y291643D01*
X377250Y291512D01*
X376012Y292750D01*
X376143Y292753D01*
X376268Y292764D01*
X376388Y292783D01*
X376503Y292811D01*
X376613Y292847D01*
X376718Y292891D01*
X376817Y292944D01*
X376912Y293004D01*
X377001Y293073D01*
X377085Y293151D01*
X377651Y292585D01*
D02*
G37*
G36*
X353651Y290085D02*
X353573Y290001D01*
X353504Y289912D01*
X353444Y289817D01*
X353391Y289718D01*
X353347Y289613D01*
X353311Y289503D01*
X353283Y289388D01*
X353264Y289268D01*
X353253Y289143D01*
X353250Y289013D01*
X352012Y290250D01*
X352143Y290253D01*
X352268Y290264D01*
X352388Y290283D01*
X352503Y290311D01*
X352613Y290347D01*
X352718Y290391D01*
X352817Y290443D01*
X352912Y290504D01*
X353001Y290573D01*
X353085Y290651D01*
X353651Y290085D01*
D02*
G37*
G36*
X334229Y239566D02*
X334135Y239657D01*
X334038Y239738D01*
X333940Y239809D01*
X333839Y239871D01*
X333736Y239923D01*
X333630Y239966D01*
X333523Y239999D01*
X333413Y240022D01*
X333301Y240037D01*
X333187Y240041D01*
Y240842D01*
X333301Y240846D01*
X333413Y240861D01*
X333523Y240884D01*
X333630Y240917D01*
X333736Y240960D01*
X333839Y241013D01*
X333940Y241074D01*
X334038Y241145D01*
X334135Y241226D01*
X334229Y241317D01*
Y239566D01*
D02*
G37*
%LPC*%
G36*
X385268Y324059D02*
X382012D01*
Y321000D01*
X385268D01*
Y324059D01*
D02*
G37*
G36*
X381012D02*
X377756D01*
Y321000D01*
X381012D01*
Y324059D01*
D02*
G37*
G36*
X397000Y323250D02*
X394600D01*
Y321000D01*
X397000D01*
Y323250D01*
D02*
G37*
G36*
X393600D02*
X391200D01*
Y321000D01*
X393600D01*
Y323250D01*
D02*
G37*
G36*
X397000Y320000D02*
X394600D01*
Y317750D01*
X397000D01*
Y320000D01*
D02*
G37*
G36*
X393600D02*
X391200D01*
Y317750D01*
X393600D01*
Y320000D01*
D02*
G37*
G36*
X385268Y320000D02*
X382012D01*
Y316941D01*
X385268D01*
Y320000D01*
D02*
G37*
G36*
X381012D02*
X377756D01*
Y316941D01*
X381012D01*
Y320000D01*
D02*
G37*
G36*
X410500Y318228D02*
Y316500D01*
X412228D01*
X411907Y317274D01*
X411274Y317908D01*
X410500Y318228D01*
D02*
G37*
G36*
X409500D02*
X408726Y317908D01*
X408092Y317274D01*
X407772Y316500D01*
X409500D01*
Y318228D01*
D02*
G37*
G36*
X412228Y315500D02*
X410500D01*
Y313772D01*
X411274Y314092D01*
X411907Y314725D01*
X412228Y315500D01*
D02*
G37*
G36*
X409500D02*
X407772D01*
X408092Y314725D01*
X408726Y314092D01*
X409500Y313772D01*
Y315500D01*
D02*
G37*
G36*
X374244Y324059D02*
X370988D01*
Y321000D01*
X374244D01*
Y324059D01*
D02*
G37*
G36*
X369988D02*
X366732D01*
Y321000D01*
X369988D01*
Y324059D01*
D02*
G37*
G36*
X374244Y320000D02*
X370988D01*
Y316941D01*
X374244D01*
Y320000D01*
D02*
G37*
G36*
X369988D02*
X366732D01*
Y316941D01*
X369988D01*
Y320000D01*
D02*
G37*
%LPD*%
G36*
X445487Y308750D02*
X445357Y308747D01*
X445232Y308736D01*
X445112Y308717D01*
X444997Y308689D01*
X444887Y308653D01*
X444782Y308609D01*
X444683Y308557D01*
X444588Y308496D01*
X444499Y308427D01*
X444415Y308349D01*
X443849Y308915D01*
X443927Y308999D01*
X443996Y309088D01*
X444057Y309183D01*
X444109Y309282D01*
X444153Y309387D01*
X444189Y309497D01*
X444217Y309612D01*
X444236Y309732D01*
X444247Y309857D01*
X444250Y309987D01*
X445487Y308750D01*
D02*
G37*
G36*
X414657Y290229D02*
X414724Y290137D01*
X414797Y290056D01*
X414877Y289986D01*
X414963Y289926D01*
X415055Y289878D01*
X415154Y289840D01*
X415260Y289813D01*
X415372Y289796D01*
X415490Y289791D01*
X415234Y288991D01*
X415127Y288988D01*
X415019Y288978D01*
X414909Y288961D01*
X414797Y288937D01*
X414684Y288907D01*
X414453Y288827D01*
X414335Y288776D01*
X414095Y288655D01*
X414597Y290332D01*
X414657Y290229D01*
D02*
G37*
G36*
X414987Y287181D02*
X415083Y287100D01*
X415182Y287029D01*
X415283Y286967D01*
X415386Y286915D01*
X415491Y286872D01*
X415599Y286839D01*
X415708Y286815D01*
X415820Y286801D01*
X415934Y286796D01*
Y285996D01*
X415820Y285991D01*
X415708Y285977D01*
X415599Y285953D01*
X415491Y285920D01*
X415386Y285877D01*
X415283Y285825D01*
X415182Y285763D01*
X415083Y285692D01*
X414987Y285611D01*
X414893Y285521D01*
Y287271D01*
X414987Y287181D01*
D02*
G37*
G36*
X396768Y286472D02*
X396779Y286347D01*
X396798Y286227D01*
X396826Y286112D01*
X396862Y286002D01*
X396906Y285897D01*
X396959Y285798D01*
X397020Y285704D01*
X397089Y285614D01*
X397166Y285530D01*
X396600Y284965D01*
X396516Y285042D01*
X396427Y285111D01*
X396333Y285172D01*
X396233Y285224D01*
X396128Y285268D01*
X396019Y285304D01*
X395904Y285332D01*
X395783Y285351D01*
X395658Y285363D01*
X395528Y285365D01*
X396765Y286603D01*
X396768Y286472D01*
D02*
G37*
G36*
X411787Y284731D02*
X411883Y284650D01*
X411982Y284579D01*
X412083Y284517D01*
X412186Y284465D01*
X412291Y284422D01*
X412399Y284389D01*
X412508Y284365D01*
X412620Y284351D01*
X412734Y284346D01*
Y283546D01*
X412620Y283541D01*
X412508Y283527D01*
X412399Y283503D01*
X412291Y283470D01*
X412186Y283427D01*
X412083Y283375D01*
X411982Y283313D01*
X411883Y283242D01*
X411787Y283161D01*
X411693Y283071D01*
Y284821D01*
X411787Y284731D01*
D02*
G37*
G36*
X414987Y282085D02*
X415083Y282004D01*
X415182Y281933D01*
X415283Y281871D01*
X415386Y281819D01*
X415491Y281776D01*
X415599Y281743D01*
X415708Y281719D01*
X415820Y281705D01*
X415934Y281700D01*
Y280900D01*
X415820Y280895D01*
X415708Y280881D01*
X415599Y280857D01*
X415491Y280824D01*
X415386Y280781D01*
X415283Y280729D01*
X415182Y280667D01*
X415083Y280596D01*
X414987Y280515D01*
X414893Y280425D01*
Y282175D01*
X414987Y282085D01*
D02*
G37*
G36*
X383987Y281164D02*
X384083Y281084D01*
X384182Y281012D01*
X384283Y280951D01*
X384386Y280898D01*
X384491Y280856D01*
X384599Y280822D01*
X384708Y280799D01*
X384820Y280784D01*
X384934Y280780D01*
Y279980D01*
X384820Y279975D01*
X384708Y279961D01*
X384599Y279937D01*
X384491Y279904D01*
X384386Y279861D01*
X384283Y279809D01*
X384182Y279747D01*
X384083Y279676D01*
X383987Y279595D01*
X383893Y279505D01*
Y281255D01*
X383987Y281164D01*
D02*
G37*
G36*
X411505Y279267D02*
X411601Y279186D01*
X411700Y279115D01*
X411800Y279053D01*
X411903Y279001D01*
X412009Y278958D01*
X412116Y278925D01*
X412226Y278901D01*
X412338Y278887D01*
X412452Y278882D01*
Y278082D01*
X412338Y278078D01*
X412226Y278063D01*
X412116Y278040D01*
X412009Y278006D01*
X411903Y277964D01*
X411800Y277911D01*
X411700Y277850D01*
X411601Y277778D01*
X411505Y277698D01*
X411410Y277607D01*
Y279357D01*
X411505Y279267D01*
D02*
G37*
G36*
X332587Y278628D02*
X332683Y278547D01*
X332782Y278476D01*
X332883Y278414D01*
X332986Y278362D01*
X333091Y278319D01*
X333199Y278286D01*
X333308Y278262D01*
X333420Y278248D01*
X333534Y278243D01*
Y277443D01*
X333420Y277438D01*
X333308Y277424D01*
X333199Y277400D01*
X333091Y277367D01*
X332986Y277324D01*
X332883Y277272D01*
X332782Y277210D01*
X332683Y277139D01*
X332587Y277058D01*
X332493Y276968D01*
Y278718D01*
X332587Y278628D01*
D02*
G37*
G36*
X414987Y276685D02*
X415083Y276604D01*
X415182Y276533D01*
X415283Y276471D01*
X415386Y276419D01*
X415491Y276376D01*
X415599Y276343D01*
X415708Y276319D01*
X415820Y276305D01*
X415934Y276300D01*
Y275500D01*
X415820Y275495D01*
X415708Y275481D01*
X415599Y275457D01*
X415491Y275424D01*
X415386Y275381D01*
X415283Y275329D01*
X415182Y275267D01*
X415083Y275196D01*
X414987Y275115D01*
X414893Y275025D01*
Y276775D01*
X414987Y276685D01*
D02*
G37*
G36*
X332587Y274691D02*
X332683Y274610D01*
X332782Y274539D01*
X332883Y274477D01*
X332986Y274425D01*
X333091Y274382D01*
X333199Y274349D01*
X333308Y274325D01*
X333420Y274311D01*
X333534Y274306D01*
Y273506D01*
X333420Y273501D01*
X333308Y273487D01*
X333199Y273463D01*
X333091Y273430D01*
X332986Y273387D01*
X332883Y273335D01*
X332782Y273273D01*
X332683Y273202D01*
X332587Y273121D01*
X332493Y273031D01*
Y274781D01*
X332587Y274691D01*
D02*
G37*
G36*
X455307Y273030D02*
X455213Y273120D01*
X455117Y273201D01*
X455018Y273272D01*
X454917Y273334D01*
X454814Y273386D01*
X454709Y273429D01*
X454601Y273462D01*
X454492Y273486D01*
X454380Y273500D01*
X454266Y273505D01*
Y274305D01*
X454380Y274310D01*
X454492Y274324D01*
X454601Y274348D01*
X454709Y274381D01*
X454814Y274424D01*
X454917Y274476D01*
X455018Y274538D01*
X455117Y274609D01*
X455213Y274690D01*
X455307Y274780D01*
Y273030D01*
D02*
G37*
G36*
X332587Y270754D02*
X332683Y270673D01*
X332782Y270602D01*
X332883Y270540D01*
X332986Y270488D01*
X333091Y270445D01*
X333199Y270412D01*
X333308Y270388D01*
X333420Y270374D01*
X333534Y270369D01*
Y269569D01*
X333420Y269564D01*
X333308Y269550D01*
X333199Y269526D01*
X333091Y269493D01*
X332986Y269450D01*
X332883Y269398D01*
X332782Y269336D01*
X332683Y269265D01*
X332587Y269184D01*
X332493Y269094D01*
Y270844D01*
X332587Y270754D01*
D02*
G37*
G36*
X455307Y269093D02*
X455213Y269183D01*
X455117Y269264D01*
X455018Y269335D01*
X454917Y269397D01*
X454814Y269449D01*
X454709Y269492D01*
X454601Y269525D01*
X454492Y269549D01*
X454380Y269563D01*
X454266Y269568D01*
Y270368D01*
X454380Y270373D01*
X454492Y270387D01*
X454601Y270411D01*
X454709Y270444D01*
X454814Y270487D01*
X454917Y270539D01*
X455018Y270601D01*
X455117Y270672D01*
X455213Y270753D01*
X455307Y270843D01*
Y269093D01*
D02*
G37*
G36*
X413107Y267694D02*
X413013Y267784D01*
X412917Y267865D01*
X412818Y267936D01*
X412717Y267998D01*
X412614Y268050D01*
X412509Y268093D01*
X412401Y268126D01*
X412292Y268150D01*
X412180Y268164D01*
X412066Y268169D01*
Y268969D01*
X412180Y268973D01*
X412292Y268988D01*
X412401Y269011D01*
X412509Y269045D01*
X412614Y269087D01*
X412717Y269140D01*
X412818Y269201D01*
X412917Y269273D01*
X413013Y269353D01*
X413107Y269444D01*
Y267694D01*
D02*
G37*
G36*
X332587Y266817D02*
X332683Y266736D01*
X332782Y266665D01*
X332883Y266603D01*
X332986Y266551D01*
X333091Y266508D01*
X333199Y266475D01*
X333308Y266451D01*
X333420Y266437D01*
X333534Y266432D01*
Y265632D01*
X333420Y265627D01*
X333308Y265613D01*
X333199Y265589D01*
X333091Y265556D01*
X332986Y265513D01*
X332883Y265461D01*
X332782Y265399D01*
X332683Y265328D01*
X332587Y265247D01*
X332493Y265157D01*
Y266907D01*
X332587Y266817D01*
D02*
G37*
G36*
X409999Y264073D02*
X410088Y264004D01*
X410183Y263944D01*
X410282Y263891D01*
X410387Y263847D01*
X410497Y263811D01*
X410612Y263783D01*
X410732Y263764D01*
X410857Y263753D01*
X410988Y263750D01*
X409750Y262512D01*
X409747Y262643D01*
X409736Y262768D01*
X409717Y262888D01*
X409689Y263003D01*
X409653Y263113D01*
X409609Y263218D01*
X409556Y263317D01*
X409496Y263412D01*
X409427Y263501D01*
X409349Y263585D01*
X409915Y264151D01*
X409999Y264073D01*
D02*
G37*
G36*
X402099D02*
X402188Y264004D01*
X402283Y263944D01*
X402382Y263891D01*
X402487Y263847D01*
X402597Y263811D01*
X402712Y263783D01*
X402832Y263764D01*
X402957Y263753D01*
X403088Y263750D01*
X401850Y262512D01*
X401847Y262643D01*
X401836Y262768D01*
X401817Y262888D01*
X401789Y263003D01*
X401753Y263113D01*
X401709Y263218D01*
X401656Y263317D01*
X401596Y263412D01*
X401527Y263501D01*
X401449Y263585D01*
X402015Y264151D01*
X402099Y264073D01*
D02*
G37*
G36*
X405999Y263873D02*
X406088Y263804D01*
X406183Y263743D01*
X406282Y263691D01*
X406387Y263647D01*
X406497Y263611D01*
X406612Y263583D01*
X406732Y263564D01*
X406857Y263553D01*
X406987Y263550D01*
X405750Y262313D01*
X405747Y262443D01*
X405736Y262568D01*
X405717Y262688D01*
X405689Y262803D01*
X405653Y262913D01*
X405609Y263018D01*
X405556Y263117D01*
X405496Y263212D01*
X405427Y263301D01*
X405349Y263385D01*
X405915Y263951D01*
X405999Y263873D01*
D02*
G37*
G36*
X332587Y262880D02*
X332683Y262799D01*
X332782Y262728D01*
X332883Y262666D01*
X332986Y262614D01*
X333091Y262571D01*
X333199Y262538D01*
X333308Y262514D01*
X333420Y262500D01*
X333534Y262495D01*
Y261695D01*
X333420Y261690D01*
X333308Y261676D01*
X333199Y261652D01*
X333091Y261619D01*
X332986Y261576D01*
X332883Y261524D01*
X332782Y261462D01*
X332683Y261391D01*
X332587Y261310D01*
X332493Y261220D01*
Y262970D01*
X332587Y262880D01*
D02*
G37*
G36*
X402299Y259973D02*
X402388Y259904D01*
X402483Y259843D01*
X402582Y259791D01*
X402687Y259747D01*
X402797Y259711D01*
X402912Y259683D01*
X403032Y259664D01*
X403157Y259653D01*
X403288Y259650D01*
X402050Y258413D01*
X402047Y258543D01*
X402036Y258668D01*
X402017Y258788D01*
X401989Y258903D01*
X401953Y259013D01*
X401909Y259118D01*
X401857Y259217D01*
X401796Y259312D01*
X401727Y259401D01*
X401649Y259485D01*
X402215Y260051D01*
X402299Y259973D01*
D02*
G37*
G36*
X398707Y257725D02*
X398613Y257815D01*
X398517Y257896D01*
X398418Y257967D01*
X398317Y258029D01*
X398214Y258081D01*
X398109Y258124D01*
X398001Y258157D01*
X397892Y258181D01*
X397780Y258195D01*
X397666Y258200D01*
Y259000D01*
X397780Y259005D01*
X397892Y259019D01*
X398001Y259043D01*
X398109Y259076D01*
X398214Y259119D01*
X398317Y259171D01*
X398418Y259233D01*
X398517Y259304D01*
X398613Y259385D01*
X398707Y259475D01*
Y257725D01*
D02*
G37*
G36*
X332587Y259385D02*
X332683Y259304D01*
X332782Y259233D01*
X332883Y259171D01*
X332986Y259119D01*
X333091Y259076D01*
X333199Y259043D01*
X333308Y259019D01*
X333420Y259005D01*
X333534Y259000D01*
X333534Y258200D01*
X333420Y258195D01*
X333308Y258181D01*
X333199Y258157D01*
X333091Y258124D01*
X332986Y258081D01*
X332883Y258029D01*
X332782Y257967D01*
X332683Y257896D01*
X332587Y257815D01*
X332493Y257725D01*
X332493Y259475D01*
X332587Y259385D01*
D02*
G37*
G36*
X455307Y257282D02*
X455213Y257372D01*
X455117Y257453D01*
X455018Y257524D01*
X454917Y257586D01*
X454814Y257638D01*
X454709Y257681D01*
X454601Y257714D01*
X454492Y257738D01*
X454380Y257752D01*
X454266Y257757D01*
Y258557D01*
X454380Y258562D01*
X454492Y258576D01*
X454601Y258600D01*
X454709Y258633D01*
X454814Y258676D01*
X454917Y258728D01*
X455018Y258790D01*
X455117Y258861D01*
X455213Y258942D01*
X455307Y259032D01*
Y257282D01*
D02*
G37*
G36*
X396352Y256929D02*
X396573Y256799D01*
X396683Y256746D01*
X396794Y256702D01*
X396904Y256665D01*
X397015Y256637D01*
X397125Y256616D01*
X397236Y256604D01*
X397347Y256600D01*
X397484Y255800D01*
X397367Y255795D01*
X397255Y255779D01*
X397147Y255753D01*
X397044Y255717D01*
X396946Y255670D01*
X396852Y255612D01*
X396762Y255545D01*
X396677Y255467D01*
X396597Y255378D01*
X396521Y255279D01*
X396241Y257007D01*
X396352Y256929D01*
D02*
G37*
G36*
X455438Y253476D02*
X455344Y253566D01*
X455248Y253647D01*
X455149Y253718D01*
X455048Y253780D01*
X454945Y253832D01*
X454840Y253875D01*
X454732Y253908D01*
X454623Y253932D01*
X454511Y253946D01*
X454397Y253951D01*
Y254751D01*
X454511Y254756D01*
X454623Y254770D01*
X454732Y254794D01*
X454840Y254827D01*
X454945Y254870D01*
X455048Y254922D01*
X455149Y254984D01*
X455248Y255055D01*
X455344Y255136D01*
X455438Y255226D01*
Y253476D01*
D02*
G37*
G36*
X455307Y249408D02*
X455213Y249498D01*
X455117Y249579D01*
X455018Y249650D01*
X454917Y249712D01*
X454814Y249764D01*
X454709Y249807D01*
X454601Y249840D01*
X454492Y249864D01*
X454380Y249878D01*
X454266Y249883D01*
Y250683D01*
X454380Y250688D01*
X454492Y250702D01*
X454601Y250726D01*
X454709Y250759D01*
X454814Y250802D01*
X454917Y250854D01*
X455018Y250916D01*
X455117Y250987D01*
X455213Y251068D01*
X455307Y251158D01*
Y249408D01*
D02*
G37*
G36*
Y245471D02*
X455213Y245561D01*
X455117Y245642D01*
X455018Y245713D01*
X454917Y245775D01*
X454814Y245827D01*
X454709Y245870D01*
X454601Y245903D01*
X454492Y245927D01*
X454380Y245941D01*
X454266Y245946D01*
Y246746D01*
X454380Y246751D01*
X454492Y246765D01*
X454601Y246789D01*
X454709Y246822D01*
X454814Y246865D01*
X454917Y246917D01*
X455018Y246979D01*
X455117Y247050D01*
X455213Y247131D01*
X455307Y247221D01*
Y245471D01*
D02*
G37*
G36*
X407705Y240920D02*
X407719Y240808D01*
X407743Y240699D01*
X407776Y240591D01*
X407819Y240486D01*
X407871Y240383D01*
X407933Y240282D01*
X408004Y240183D01*
X408085Y240087D01*
X408175Y239993D01*
X406425D01*
X406515Y240087D01*
X406596Y240183D01*
X406667Y240282D01*
X406729Y240383D01*
X406781Y240486D01*
X406824Y240591D01*
X406857Y240699D01*
X406881Y240808D01*
X406895Y240920D01*
X406900Y241034D01*
X407700D01*
X407705Y240920D01*
D02*
G37*
G36*
X446807Y202700D02*
X446799Y202776D01*
X446775Y202844D01*
X446734Y202904D01*
X446677Y202956D01*
X446604Y203000D01*
X446515Y203036D01*
X446410Y203064D01*
X446288Y203084D01*
X446150Y203096D01*
X445995Y203100D01*
Y203900D01*
X446150Y203904D01*
X446288Y203916D01*
X446410Y203936D01*
X446515Y203964D01*
X446604Y204000D01*
X446677Y204044D01*
X446734Y204096D01*
X446775Y204156D01*
X446799Y204224D01*
X446807Y204300D01*
Y202700D01*
D02*
G37*
G36*
X464524Y202700D02*
X464516Y202776D01*
X464492Y202844D01*
X464451Y202904D01*
X464394Y202956D01*
X464321Y203000D01*
X464232Y203036D01*
X464126Y203064D01*
X464004Y203084D01*
X463866Y203096D01*
X463712Y203100D01*
Y203900D01*
X463866Y203904D01*
X464004Y203916D01*
X464126Y203936D01*
X464232Y203964D01*
X464321Y204000D01*
X464394Y204044D01*
X464451Y204096D01*
X464492Y204156D01*
X464516Y204224D01*
X464524Y204300D01*
Y202700D01*
D02*
G37*
G36*
X451779Y204224D02*
X451803Y204156D01*
X451843Y204096D01*
X451899Y204044D01*
X451971Y204000D01*
X452059Y203964D01*
X452163Y203936D01*
X452283Y203916D01*
X452419Y203904D01*
X452571Y203900D01*
Y203100D01*
X452419Y203096D01*
X452283Y203084D01*
X452163Y203064D01*
X452059Y203036D01*
X451971Y203000D01*
X451899Y202956D01*
X451843Y202904D01*
X451803Y202844D01*
X451779Y202776D01*
X451771Y202700D01*
Y204300D01*
X451779Y204224D01*
D02*
G37*
G36*
X467724Y202138D02*
X467656Y202114D01*
X467596Y202073D01*
X467544Y202016D01*
X467500Y201943D01*
X467464Y201854D01*
X467436Y201748D01*
X467416Y201626D01*
X467404Y201488D01*
X467400Y201334D01*
X466600D01*
X466596Y201488D01*
X466584Y201626D01*
X466564Y201748D01*
X466536Y201854D01*
X466500Y201943D01*
X466456Y202016D01*
X466404Y202073D01*
X466344Y202114D01*
X466276Y202138D01*
X466200Y202146D01*
X467800D01*
X467724Y202138D01*
D02*
G37*
G36*
X465651Y198885D02*
X465573Y198801D01*
X465504Y198712D01*
X465444Y198617D01*
X465391Y198518D01*
X465347Y198413D01*
X465311Y198303D01*
X465283Y198188D01*
X465264Y198068D01*
X465253Y197943D01*
X465250Y197812D01*
X464012Y199050D01*
X464143Y199053D01*
X464268Y199064D01*
X464388Y199083D01*
X464503Y199111D01*
X464613Y199147D01*
X464718Y199191D01*
X464817Y199243D01*
X464912Y199304D01*
X465001Y199373D01*
X465085Y199451D01*
X465651Y198885D01*
D02*
G37*
D11*
X455000Y315732D02*
Y327732D01*
Y339732D01*
X443000Y327732D02*
X455000D01*
X446852Y335881D02*
X455000Y327732D01*
X446852Y319584D02*
X455000Y327732D01*
X463148Y319584D01*
X455000Y327732D02*
X463148Y335881D01*
X455000Y327732D02*
X467000D01*
X460000Y332732D02*
X466000D01*
X460000D02*
Y338732D01*
X444926Y323658D02*
X450926D01*
Y317658D02*
Y323658D01*
X459074Y317658D02*
Y323658D01*
X465074D01*
X450926Y331806D02*
Y337807D01*
X444926Y331806D02*
X450926D01*
X368500Y311063D02*
X398712D01*
X401000Y313351D01*
X403288Y311063D02*
X417563D01*
X401000Y313351D02*
X403288Y311063D01*
X401000Y313351D02*
Y320500D01*
D16*
X331924Y244378D02*
X335121D01*
X325000Y250200D02*
X330042Y245158D01*
X330821Y244378D02*
Y245481D01*
X342573Y331672D02*
X347349D01*
X349168Y329852D01*
X325000Y250200D02*
Y278000D01*
X362500Y322400D02*
X366800Y326700D01*
X362500Y311500D02*
Y322400D01*
X366800Y326700D02*
X413990D01*
X359032Y324000D02*
X363312Y328280D01*
X328458Y240441D02*
X335121D01*
X323000Y245900D02*
X328458Y240441D01*
X323000Y245900D02*
Y254000D01*
X358969Y307969D02*
X362500Y311500D01*
X340878Y307969D02*
X358969D01*
X363312Y328280D02*
X413990D01*
X429010Y326700D02*
X434800D01*
X436000Y325500D01*
X429010Y328280D02*
X436220D01*
X438000Y326500D01*
X419920Y315000D02*
Y319190D01*
Y313420D02*
Y315000D01*
X418350Y316570D02*
Y319190D01*
Y316570D02*
X419920Y315000D01*
X417563Y311063D02*
X419920Y313420D01*
X424650Y311150D02*
Y319190D01*
X420100Y306600D02*
X424650Y311150D01*
X423070Y312570D02*
Y319190D01*
X419000Y308500D02*
X423070Y312570D01*
X351000Y324000D02*
X359032D01*
X345531Y318531D02*
X351000Y324000D01*
X438000Y311500D02*
Y326500D01*
X436000Y312500D02*
Y325500D01*
X323000Y254000D02*
Y279000D01*
X331600Y258600D02*
X399600Y258600D01*
X395500Y256000D02*
X395700Y256200D01*
X397800D01*
X399605Y262095D02*
X403300Y258400D01*
X331600Y262095D02*
X399605D01*
X464000Y197800D02*
X467000Y200800D01*
Y203500D01*
X329000Y285000D02*
X379000D01*
X323000Y279000D02*
X329000Y285000D01*
X330000Y283000D02*
X379500D01*
X325000Y278000D02*
X330000Y283000D01*
X379500D02*
X393000Y296500D01*
X376000Y291500D02*
X391100Y306600D01*
X420100D01*
X404000Y281000D02*
X413500Y271500D01*
X416900D02*
X441000Y247400D01*
X413500Y271500D02*
X416900D01*
X411631Y268569D02*
X414000D01*
X402357Y277843D02*
X411631Y268569D01*
X401130Y281000D02*
X404000D01*
X395515Y286615D02*
X401130Y281000D01*
X385380Y280380D02*
X397300Y292300D01*
X427800D02*
X445500Y310000D01*
X397300Y292300D02*
X427800D01*
X413991Y289250D02*
X414132Y289391D01*
X426709D01*
X410518Y278482D02*
X424518D01*
X452717Y250283D01*
X441000Y207500D02*
Y247400D01*
X331600Y277843D02*
X402357D01*
X410800Y283946D02*
X426054D01*
X451843Y258157D01*
X414000Y286396D02*
X426804D01*
X414000Y275900D02*
X423100D01*
X452654Y246346D01*
X425700Y281300D02*
X452649Y254351D01*
X414000Y281300D02*
X425700D01*
X426804Y286396D02*
X443232Y269968D01*
X442195Y273905D02*
X456200D01*
X426709Y289391D02*
X442195Y273905D01*
X443232Y269968D02*
X456200D01*
X397800Y256200D02*
X407300Y246700D01*
Y239100D02*
Y246700D01*
X377500Y289000D02*
X392500Y304000D01*
X406200D01*
X377800Y299700D02*
X386600Y308500D01*
X377800Y297200D02*
Y299700D01*
X386600Y308500D02*
X419000D01*
X399594Y273906D02*
X411000Y262500D01*
X423000Y296500D02*
X438000Y311500D01*
X422000Y298500D02*
X436000Y312500D01*
X379000Y285000D02*
X392500Y298500D01*
X393000Y296500D02*
X423000D01*
X383000Y280380D02*
X385380D01*
X370442Y291000D02*
X372442Y289000D01*
X377500D01*
X354000Y291000D02*
X370442D01*
X392500Y298500D02*
X422000D01*
X352000Y289000D02*
X354000Y291000D01*
X317200Y210819D02*
X319000Y209019D01*
Y209000D02*
Y209019D01*
X317200Y210819D02*
Y252700D01*
X451843Y258157D02*
X456200D01*
X342728Y318531D02*
X345531D01*
X445000Y203500D02*
X449283D01*
X441000Y207500D02*
X445000Y203500D01*
X449284Y203500D02*
X467000D01*
X449283Y203500D02*
X449284Y203500D01*
X452649Y254351D02*
X456331D01*
X452717Y250283D02*
X456200D01*
X452654Y246346D02*
X456200D01*
X331600Y273906D02*
X399594D01*
X331600Y269969D02*
X399331D01*
X407000Y262300D01*
X331600Y266032D02*
X399568D01*
X403100Y262500D01*
D17*
X421500Y326700D02*
D03*
D18*
X426220Y319190D02*
D03*
X424650D02*
D03*
X423070D02*
D03*
X421500D02*
D03*
X419920D02*
D03*
X418350D02*
D03*
X416780D02*
D03*
Y334210D02*
D03*
X418350Y334210D02*
D03*
X419920D02*
D03*
X421500D02*
D03*
X423070D02*
D03*
X424650Y334210D02*
D03*
X426220D02*
D03*
D19*
X413990Y321980D02*
D03*
X413990Y323550D02*
D03*
X413990Y325130D02*
D03*
Y326700D02*
D03*
Y328280D02*
D03*
X413990Y329850D02*
D03*
X413990Y331420D02*
D03*
X429010D02*
D03*
Y329850D02*
D03*
Y328280D02*
D03*
Y326700D02*
D03*
Y325130D02*
D03*
Y323550D02*
D03*
Y321980D02*
D03*
D20*
X370488Y320500D02*
D03*
X381512D02*
D03*
X370488Y332702D02*
D03*
X381512D02*
D03*
D21*
X336025Y331672D02*
D03*
X342573D02*
D03*
D22*
X401000Y320500D02*
D03*
X394100D02*
D03*
D23*
X336240Y310618D02*
D03*
X332500D02*
D03*
X328760D02*
D03*
Y300382D02*
D03*
X336240D02*
D03*
D24*
X336329Y322501D02*
D03*
X342269D02*
D03*
D25*
X449283Y203500D02*
D03*
X467000Y203500D02*
D03*
X467000Y211965D02*
D03*
X449284Y211965D02*
D03*
D26*
X331924Y244378D02*
G03*
X331924Y244378I-1102J0D01*
G01*
X330821Y245481D02*
G03*
X330042Y245158I0J-1102D01*
G01*
X364414Y328280D02*
G03*
X364414Y328280I-1102J0D01*
G01*
X336025Y331672D02*
X336177Y331520D01*
Y322653D02*
Y331520D01*
X336257Y326607D02*
X356307D01*
X336177Y322653D02*
X336329Y322501D01*
X364500Y302000D02*
Y307063D01*
X368500Y311063D01*
X368532Y317836D02*
Y318741D01*
X370291Y320500D01*
X368500Y311063D02*
Y317804D01*
X368532Y317836D01*
X362000Y299500D02*
X364500Y302000D01*
X370291Y320500D02*
X370488D01*
X336323Y299500D02*
X362000D01*
X356307Y326607D02*
X362402Y332702D01*
X370488D01*
X336240Y310618D02*
Y322500D01*
X319500Y299121D02*
Y307500D01*
Y298500D02*
Y299121D01*
Y307500D02*
X322618Y310618D01*
X328760D01*
X342470Y322500D02*
X345500D01*
X336240Y299583D02*
X336323Y299500D01*
X336240Y299583D02*
Y300382D01*
X328760Y307240D02*
Y310618D01*
X330000Y306000D02*
X335000D01*
X328760Y307240D02*
X330000Y306000D01*
X335000D02*
X336240Y307240D01*
Y310618D01*
D42*
X332610Y293788D02*
D03*
Y222528D02*
D03*
X454658Y293788D02*
D03*
Y222528D02*
D03*
D43*
X322768Y200874D02*
D03*
D44*
X356784Y334732D02*
D03*
X322768D02*
D03*
D45*
X356784Y318276D02*
D03*
X322768D02*
D03*
D46*
X330821Y250821D02*
D03*
X349168Y329852D02*
D03*
X335121Y240441D02*
D03*
Y244378D02*
D03*
X340760Y308087D02*
D03*
X468500Y303000D02*
D03*
X442500Y301000D02*
D03*
X434000Y236000D02*
D03*
X421500Y241500D02*
D03*
Y326700D02*
D03*
X386000Y221000D02*
D03*
X355500Y236500D02*
D03*
X425000Y204000D02*
D03*
X418000D02*
D03*
X356000Y202000D02*
D03*
Y209000D02*
D03*
X434000Y229000D02*
D03*
X454658Y239657D02*
D03*
Y232658D02*
D03*
X359200Y287600D02*
D03*
X331600Y258600D02*
D03*
X395500Y256000D02*
D03*
X331600Y262095D02*
D03*
X414000Y268569D02*
D03*
X413491Y289750D02*
D03*
X410518Y278482D02*
D03*
X410800Y283946D02*
D03*
X414000Y286396D02*
D03*
Y275900D02*
D03*
Y281300D02*
D03*
X445500Y310000D02*
D03*
X407300Y239100D02*
D03*
X377800Y297200D02*
D03*
X395515Y286615D02*
D03*
X411000Y262500D02*
D03*
X418000Y302500D02*
D03*
X352000Y289000D02*
D03*
X406200Y304000D02*
D03*
X399500Y221000D02*
D03*
X407500D02*
D03*
X317200Y252700D02*
D03*
X344000Y220000D02*
D03*
X361000Y242000D02*
D03*
X432000Y290500D02*
D03*
X417563Y311063D02*
D03*
X410000Y316000D02*
D03*
X464000Y197800D02*
D03*
X456200Y273905D02*
D03*
X319000Y209000D02*
D03*
X383000Y280380D02*
D03*
X407000Y262300D02*
D03*
X456331Y254351D02*
D03*
X376000Y291500D02*
D03*
X342728Y318531D02*
D03*
X403100Y262500D02*
D03*
X403300Y258400D02*
D03*
X399600Y258600D02*
D03*
X456200Y246346D02*
D03*
Y250283D02*
D03*
Y258157D02*
D03*
Y269968D02*
D03*
X331600Y277843D02*
D03*
Y273906D02*
D03*
Y269969D02*
D03*
Y266032D02*
D03*
D47*
X460000Y332732D02*
D03*
D48*
X319500Y299121D02*
D03*
X345500Y322500D02*
D03*
X362000Y299500D02*
D03*
M02*
