G04*
G04 #@! TF.GenerationSoftware,Altium Limited,Altium Designer,21.2.1 (34)*
G04*
G04 Layer_Color=128*
%FSLAX25Y25*%
%MOIN*%
G70*
G04*
G04 #@! TF.SameCoordinates,1518C732-DF2A-4DFD-9B87-9E54171A1C2B*
G04*
G04*
G04 #@! TF.FilePolarity,Positive*
G04*
G01*
G75*
%ADD73C,0.00200*%
D73*
X132480Y90551D02*
X135236D01*
X133858Y89173D02*
Y91929D01*
X132480Y39370D02*
X135236D01*
X133858Y37992D02*
Y40748D01*
X22244Y90551D02*
X25000D01*
X23622Y89173D02*
Y91929D01*
X22244Y39370D02*
X25000D01*
X23622Y37992D02*
Y40748D01*
X3937Y7874D02*
X11811D01*
X7874Y3937D02*
Y11811D01*
X48422Y141750D02*
X51178D01*
X49800Y140373D02*
Y143128D01*
X47922Y126002D02*
X50678D01*
X49300Y124625D02*
Y127380D01*
X4328Y141750D02*
X7084D01*
X5706Y140373D02*
Y143128D01*
X4828Y126002D02*
X7584D01*
X6206Y124625D02*
Y127380D01*
X17900Y55400D02*
X19500D01*
X18700Y54600D02*
Y56200D01*
X152633Y57115D02*
X153633D01*
X153133Y56615D02*
Y57615D01*
X17998Y83858D02*
X18998D01*
X18498Y83358D02*
Y84358D01*
X17998Y80709D02*
X18998D01*
X18498Y80209D02*
Y81209D01*
X17998Y77559D02*
X18998D01*
X18498Y77059D02*
Y78059D01*
X17998Y74410D02*
X18998D01*
X18498Y73909D02*
Y74910D01*
X17998Y64961D02*
X18998D01*
X18498Y64461D02*
Y65461D01*
X17998Y71260D02*
X18998D01*
X18498Y70760D02*
Y71760D01*
X17998Y68110D02*
X18998D01*
X18498Y67610D02*
Y68610D01*
X63874Y107346D02*
X64874D01*
X64374Y106846D02*
Y107846D01*
X101874Y100374D02*
X102874D01*
X102374Y99874D02*
Y100874D01*
X139874Y71260D02*
X140874D01*
X140374Y70760D02*
Y71760D01*
X69874Y93374D02*
X70874D01*
X70374Y92874D02*
Y93874D01*
X60374Y110846D02*
X61374D01*
X60874Y110346D02*
Y111346D01*
X92074Y117847D02*
X93674D01*
X92874Y117046D02*
Y118647D01*
X89463Y44856D02*
X90463D01*
X89963Y44356D02*
Y45356D01*
X104892Y48864D02*
X105892D01*
X105392Y48364D02*
Y49364D01*
X99743Y45346D02*
X101343D01*
X100543Y44546D02*
Y46146D01*
X85374Y29847D02*
X86374D01*
X85874Y29346D02*
Y30347D01*
X91374Y29847D02*
X92374D01*
X91874Y29346D02*
Y30347D01*
X128074Y98374D02*
X129674D01*
X128874Y97574D02*
Y99174D01*
X91374Y23846D02*
X92374D01*
X91874Y23347D02*
Y24347D01*
X85374Y23846D02*
X86374D01*
X85874Y23347D02*
Y24347D01*
X61374Y85978D02*
X62374D01*
X61874Y85478D02*
Y86478D01*
X127374Y27874D02*
X128374D01*
X127874Y27374D02*
Y28374D01*
X127374Y21874D02*
X128374D01*
X127874Y21374D02*
Y22374D01*
X41638Y13374D02*
X42638D01*
X42138Y12874D02*
Y13874D01*
X47638Y13374D02*
X48638D01*
X48138Y12874D02*
Y13874D01*
X47638Y19374D02*
X48638D01*
X48138Y18874D02*
Y19874D01*
X41638Y19374D02*
X42638D01*
X42138Y18874D02*
Y19874D01*
X24374Y115806D02*
X25374D01*
X24874Y115306D02*
Y116306D01*
X39374Y45474D02*
X40974D01*
X40174Y44674D02*
Y46274D01*
X121074Y88874D02*
X122674D01*
X121874Y88074D02*
Y89674D01*
X139874Y52362D02*
X140874D01*
X140374Y51862D02*
Y52862D01*
X139874Y55512D02*
X140874D01*
X140374Y55012D02*
Y56012D01*
X139874Y58661D02*
X140874D01*
X140374Y58161D02*
Y59161D01*
X139874Y61811D02*
X140874D01*
X140374Y61311D02*
Y62311D01*
X47074Y98374D02*
X48674D01*
X47874Y97574D02*
Y99174D01*
X54712Y100044D02*
X56312D01*
X55512Y99244D02*
Y100844D01*
X64874Y95374D02*
X65874D01*
X65374Y94874D02*
Y95874D01*
X89067Y89969D02*
X90067D01*
X89567Y89468D02*
Y90469D01*
X75998Y83858D02*
X76998D01*
X76498Y83358D02*
Y84358D01*
X77256Y87968D02*
X78256D01*
X77756Y87468D02*
Y88468D01*
X32074Y89874D02*
X33674D01*
X32874Y89074D02*
Y90674D01*
X40838Y109638D02*
X42438D01*
X41638Y108838D02*
Y110438D01*
X17674Y107874D02*
X19274D01*
X18474Y107074D02*
Y108674D01*
X24300Y97890D02*
X25300D01*
X24800Y97390D02*
Y98390D01*
X30206Y97890D02*
X31205D01*
X30705Y97390D02*
Y98390D01*
X73374Y60374D02*
X74374D01*
X73874Y59874D02*
Y60874D01*
X83161Y93968D02*
X84161D01*
X83661Y93468D02*
Y94468D01*
X67446Y87923D02*
X68446D01*
X67946Y87423D02*
Y88423D01*
X61374Y88874D02*
X62374D01*
X61874Y88374D02*
Y89374D01*
X79224Y89969D02*
X80224D01*
X79724Y89468D02*
Y90469D01*
X81193Y91969D02*
X82193D01*
X81693Y91469D02*
Y92469D01*
X91035Y91969D02*
X92035D01*
X91535Y91469D02*
Y92469D01*
X93004Y93968D02*
X94004D01*
X93504Y93468D02*
Y94468D01*
X105374Y97874D02*
X106374D01*
X105874Y97374D02*
Y98374D01*
X83161Y62512D02*
X84161D01*
X83661Y62012D02*
Y63012D01*
X17998Y61811D02*
X18998D01*
X18498Y61311D02*
Y62311D01*
X75998Y80709D02*
X76998D01*
X76498Y80209D02*
Y81209D01*
X87066Y66423D02*
X88066D01*
X87566Y65923D02*
Y66923D01*
X85130Y64512D02*
X86130D01*
X85630Y64012D02*
Y65012D01*
X91003Y62423D02*
X92003D01*
X91503Y61923D02*
Y62923D01*
X92971Y60423D02*
X93971D01*
X93471Y59923D02*
Y60923D01*
X89034Y64423D02*
X90034D01*
X89534Y63923D02*
Y64923D01*
X139874Y74410D02*
X140874D01*
X140374Y73909D02*
Y74910D01*
X139874Y77559D02*
X140874D01*
X140374Y77059D02*
Y78059D01*
X28237Y114243D02*
X29237D01*
X28737Y113743D02*
Y114743D01*
M02*
