G04*
G04 #@! TF.GenerationSoftware,Altium Limited,Altium Designer,21.2.1 (34)*
G04*
G04 Layer_Color=32896*
%FSLAX25Y25*%
%MOIN*%
G70*
G04*
G04 #@! TF.SameCoordinates,1518C732-DF2A-4DFD-9B87-9E54171A1C2B*
G04*
G04*
G04 #@! TF.FilePolarity,Positive*
G04*
G01*
G75*
%ADD10C,0.01000*%
%ADD11C,0.00984*%
%ADD12C,0.00500*%
%ADD13C,0.00787*%
%ADD14C,0.00800*%
%ADD68C,0.01575*%
%ADD69C,0.00600*%
%ADD70C,0.00394*%
%ADD71R,0.03937X0.00787*%
G36*
X64961Y15748D02*
X61024D01*
X62992Y12205D01*
X64961Y15748D01*
D02*
G37*
G36*
X62402Y101279D02*
X59646Y99902D01*
Y102657D01*
X62402Y101279D01*
D02*
G37*
G36*
X14819Y96120D02*
X14614Y96098D01*
X14553Y96204D01*
X14486Y96287D01*
X14431Y96359D01*
X14375Y96414D01*
X14331Y96453D01*
X14298Y96481D01*
X14270Y96492D01*
X14264Y96498D01*
X14192Y96531D01*
X14115Y96553D01*
X14042Y96570D01*
X13970Y96581D01*
X13909Y96587D01*
X13865Y96592D01*
X13820D01*
X13759Y96587D01*
X13698Y96581D01*
X13593Y96548D01*
X13498Y96498D01*
X13426Y96448D01*
X13365Y96392D01*
X13326Y96342D01*
X13299Y96309D01*
X13293Y96303D01*
Y96298D01*
X13232Y96181D01*
X13188Y96054D01*
X13160Y95926D01*
X13138Y95810D01*
X13127Y95698D01*
X13121Y95654D01*
X13115Y95615D01*
Y95582D01*
Y95560D01*
Y95543D01*
Y95538D01*
Y95432D01*
X13127Y95338D01*
X13132Y95249D01*
X13149Y95160D01*
X13160Y95082D01*
X13176Y95016D01*
X13199Y94949D01*
X13215Y94888D01*
X13232Y94838D01*
X13254Y94794D01*
X13271Y94755D01*
X13282Y94722D01*
X13299Y94700D01*
X13304Y94683D01*
X13315Y94672D01*
Y94666D01*
X13354Y94616D01*
X13398Y94566D01*
X13443Y94527D01*
X13487Y94494D01*
X13582Y94439D01*
X13676Y94405D01*
X13759Y94383D01*
X13826Y94372D01*
X13854Y94367D01*
X13887D01*
X13981Y94372D01*
X14070Y94383D01*
X14153Y94394D01*
X14225Y94411D01*
X14287Y94428D01*
X14331Y94444D01*
X14359Y94450D01*
X14370Y94455D01*
X14442Y94494D01*
X14497Y94538D01*
X14536Y94589D01*
X14564Y94633D01*
X14581Y94672D01*
X14586Y94705D01*
X14592Y94733D01*
Y94738D01*
X14586Y94772D01*
X14581Y94805D01*
X14553Y94866D01*
X14542Y94888D01*
X14531Y94905D01*
X14525Y94916D01*
X14520Y94921D01*
X14497Y94949D01*
X14475Y94982D01*
X14459Y95055D01*
X14453Y95082D01*
X14447Y95110D01*
Y95127D01*
Y95132D01*
X14453Y95188D01*
X14470Y95243D01*
X14481Y95266D01*
X14492Y95282D01*
X14497Y95293D01*
Y95299D01*
X14520Y95332D01*
X14547Y95354D01*
X14575Y95371D01*
X14608Y95382D01*
X14636Y95388D01*
X14664Y95393D01*
X14686D01*
X14736Y95388D01*
X14781Y95377D01*
X14819Y95360D01*
X14847Y95343D01*
X14875Y95321D01*
X14891Y95304D01*
X14903Y95293D01*
X14908Y95288D01*
X14936Y95249D01*
X14953Y95205D01*
X14975Y95121D01*
X14980Y95088D01*
X14986Y95060D01*
Y95044D01*
Y95038D01*
X14980Y94971D01*
X14969Y94910D01*
X14958Y94855D01*
X14936Y94799D01*
X14880Y94694D01*
X14819Y94611D01*
X14764Y94538D01*
X14708Y94489D01*
X14686Y94472D01*
X14675Y94455D01*
X14664Y94450D01*
X14658Y94444D01*
X14597Y94400D01*
X14531Y94367D01*
X14403Y94305D01*
X14281Y94261D01*
X14164Y94233D01*
X14064Y94211D01*
X14020Y94205D01*
X13987D01*
X13953Y94200D01*
X13915D01*
X13804Y94205D01*
X13698Y94217D01*
X13604Y94233D01*
X13515Y94261D01*
X13432Y94289D01*
X13360Y94317D01*
X13293Y94350D01*
X13232Y94389D01*
X13182Y94422D01*
X13138Y94455D01*
X13099Y94483D01*
X13066Y94516D01*
X13043Y94538D01*
X13021Y94555D01*
X13016Y94566D01*
X13010Y94572D01*
X12960Y94644D01*
X12910Y94722D01*
X12871Y94805D01*
X12838Y94888D01*
X12788Y95060D01*
X12755Y95221D01*
X12738Y95293D01*
X12732Y95360D01*
X12727Y95426D01*
X12721Y95477D01*
X12716Y95521D01*
Y95554D01*
Y95576D01*
Y95582D01*
X12721Y95682D01*
X12727Y95782D01*
X12744Y95871D01*
X12760Y95959D01*
X12783Y96037D01*
X12805Y96115D01*
X12832Y96181D01*
X12855Y96242D01*
X12882Y96298D01*
X12910Y96342D01*
X12932Y96387D01*
X12955Y96420D01*
X12971Y96448D01*
X12988Y96464D01*
X12993Y96475D01*
X12999Y96481D01*
X13054Y96542D01*
X13110Y96592D01*
X13171Y96642D01*
X13232Y96681D01*
X13293Y96714D01*
X13354Y96742D01*
X13471Y96781D01*
X13571Y96808D01*
X13615Y96814D01*
X13654Y96820D01*
X13682Y96825D01*
X13726D01*
X13815Y96820D01*
X13893Y96814D01*
X13970Y96803D01*
X14042Y96792D01*
X14098Y96775D01*
X14142Y96764D01*
X14170Y96759D01*
X14181Y96753D01*
X14220Y96736D01*
X14264Y96714D01*
X14348Y96659D01*
X14420Y96598D01*
X14492Y96525D01*
X14553Y96459D01*
X14597Y96403D01*
X14614Y96387D01*
X14625Y96370D01*
X14631Y96359D01*
X14636Y96353D01*
X14542Y97902D01*
X12860D01*
X12788Y98251D01*
X14703D01*
X14819Y96120D01*
D02*
G37*
G36*
X12244Y98113D02*
X12128D01*
X12089Y98107D01*
X12050Y98102D01*
X12022Y98085D01*
X12000Y98074D01*
X11967Y98041D01*
X11955Y98035D01*
Y98030D01*
X11933Y97996D01*
X11917Y97957D01*
X11889Y97874D01*
X11883Y97835D01*
X11878Y97808D01*
X11872Y97785D01*
Y97780D01*
X11006Y94250D01*
X10868D01*
X9908Y97780D01*
X9891Y97846D01*
X9869Y97902D01*
X9847Y97946D01*
X9824Y97979D01*
X9808Y98007D01*
X9791Y98024D01*
X9786Y98035D01*
X9780Y98041D01*
X9747Y98063D01*
X9719Y98085D01*
X9658Y98102D01*
X9636Y98107D01*
X9619Y98113D01*
X9508D01*
Y98251D01*
X10352D01*
Y98113D01*
X10235D01*
X10196Y98102D01*
X10163Y98096D01*
X10141Y98085D01*
X10124Y98074D01*
X10113Y98063D01*
X10107Y98057D01*
Y98052D01*
X10085Y98007D01*
X10080Y97963D01*
X10074Y97935D01*
Y97930D01*
Y97924D01*
X10080Y97880D01*
X10085Y97835D01*
X10091Y97813D01*
Y97796D01*
X10096Y97785D01*
Y97780D01*
X10796Y95116D01*
X10846D01*
X11500Y97852D01*
X11506Y97930D01*
X11500Y97991D01*
Y98013D01*
X11495Y98030D01*
X11489Y98035D01*
Y98041D01*
X11473Y98063D01*
X11451Y98085D01*
X11395Y98102D01*
X11373Y98107D01*
X11351Y98113D01*
X11240D01*
Y98251D01*
X12244D01*
Y98113D01*
D02*
G37*
G36*
X7943Y98296D02*
X8037Y98279D01*
X8126Y98251D01*
X8209Y98213D01*
X8287Y98168D01*
X8359Y98124D01*
X8426Y98074D01*
X8481Y98018D01*
X8537Y97968D01*
X8587Y97913D01*
X8625Y97869D01*
X8659Y97824D01*
X8687Y97785D01*
X8703Y97758D01*
X8714Y97741D01*
X8720Y97735D01*
X8781Y97624D01*
X8831Y97513D01*
X8875Y97391D01*
X8914Y97269D01*
X8947Y97147D01*
X8975Y97019D01*
X8997Y96903D01*
X9014Y96786D01*
X9031Y96681D01*
X9042Y96581D01*
X9047Y96487D01*
X9053Y96409D01*
X9058Y96348D01*
Y96298D01*
Y96270D01*
Y96259D01*
X9053Y96081D01*
X9042Y95909D01*
X9025Y95754D01*
X9003Y95610D01*
X8975Y95471D01*
X8947Y95349D01*
X8914Y95232D01*
X8881Y95132D01*
X8853Y95038D01*
X8820Y94960D01*
X8792Y94894D01*
X8764Y94838D01*
X8742Y94794D01*
X8725Y94766D01*
X8714Y94744D01*
X8709Y94738D01*
X8642Y94644D01*
X8570Y94561D01*
X8498Y94489D01*
X8426Y94428D01*
X8354Y94378D01*
X8281Y94333D01*
X8209Y94294D01*
X8143Y94267D01*
X8082Y94244D01*
X8026Y94228D01*
X7971Y94217D01*
X7926Y94211D01*
X7893Y94205D01*
X7865Y94200D01*
X7843D01*
X7749Y94205D01*
X7660Y94222D01*
X7577Y94250D01*
X7493Y94289D01*
X7421Y94328D01*
X7349Y94372D01*
X7288Y94422D01*
X7227Y94477D01*
X7171Y94527D01*
X7127Y94577D01*
X7088Y94622D01*
X7055Y94666D01*
X7027Y94700D01*
X7011Y94727D01*
X6999Y94744D01*
X6994Y94749D01*
X6933Y94855D01*
X6883Y94971D01*
X6833Y95094D01*
X6794Y95216D01*
X6761Y95343D01*
X6733Y95471D01*
X6711Y95593D01*
X6694Y95710D01*
X6678Y95821D01*
X6666Y95926D01*
X6661Y96020D01*
X6655Y96098D01*
X6650Y96165D01*
Y96215D01*
Y96248D01*
Y96259D01*
X6655Y96437D01*
X6666Y96598D01*
X6683Y96753D01*
X6705Y96897D01*
X6727Y97031D01*
X6761Y97153D01*
X6788Y97269D01*
X6822Y97369D01*
X6855Y97458D01*
X6883Y97536D01*
X6916Y97602D01*
X6938Y97658D01*
X6961Y97702D01*
X6977Y97735D01*
X6988Y97752D01*
X6994Y97758D01*
X7060Y97852D01*
X7127Y97935D01*
X7199Y98007D01*
X7271Y98074D01*
X7338Y98124D01*
X7410Y98168D01*
X7482Y98207D01*
X7543Y98235D01*
X7604Y98257D01*
X7665Y98274D01*
X7715Y98285D01*
X7760Y98296D01*
X7793D01*
X7821Y98301D01*
X7843D01*
X7943Y98296D01*
D02*
G37*
G36*
X150673Y98290D02*
X150806Y98268D01*
X150923Y98229D01*
X151028Y98190D01*
X151112Y98146D01*
X151145Y98129D01*
X151173Y98107D01*
X151195Y98096D01*
X151212Y98085D01*
X151223Y98074D01*
X151228D01*
X151278Y98030D01*
X151328Y97985D01*
X151367Y97941D01*
X151400Y97891D01*
X151456Y97796D01*
X151489Y97708D01*
X151511Y97624D01*
X151522Y97563D01*
X151528Y97536D01*
Y97519D01*
Y97508D01*
Y97502D01*
X151522Y97436D01*
X151517Y97380D01*
X151506Y97336D01*
X151489Y97302D01*
X151472Y97275D01*
X151461Y97258D01*
X151456Y97247D01*
X151450Y97241D01*
X151417Y97219D01*
X151389Y97202D01*
X151328Y97186D01*
X151306Y97180D01*
X151289Y97175D01*
X151273D01*
X151234Y97180D01*
X151200Y97186D01*
X151173Y97197D01*
X151151Y97208D01*
X151123Y97230D01*
X151112Y97241D01*
X151084Y97302D01*
X151067Y97364D01*
X151062Y97391D01*
Y97413D01*
Y97425D01*
Y97430D01*
X151067Y97480D01*
X151084Y97513D01*
X151106Y97541D01*
X151112Y97547D01*
X151128Y97569D01*
X151139Y97602D01*
X151145Y97641D01*
X151151Y97680D01*
X151156Y97719D01*
Y97752D01*
Y97774D01*
Y97780D01*
X151151Y97846D01*
X151128Y97902D01*
X151101Y97946D01*
X151062Y97985D01*
X151028Y98013D01*
X151001Y98035D01*
X150978Y98046D01*
X150973Y98052D01*
X150901Y98079D01*
X150840Y98102D01*
X150779Y98113D01*
X150729Y98124D01*
X150684Y98129D01*
X150651Y98135D01*
X150557D01*
X150490Y98124D01*
X150379Y98096D01*
X150285Y98057D01*
X150207Y98013D01*
X150146Y97963D01*
X150107Y97924D01*
X150079Y97896D01*
X150074Y97891D01*
Y97885D01*
X150013Y97791D01*
X149968Y97691D01*
X149941Y97597D01*
X149918Y97508D01*
X149907Y97430D01*
X149896Y97369D01*
Y97347D01*
Y97330D01*
Y97319D01*
Y97313D01*
X149907Y97175D01*
X149929Y97053D01*
X149968Y96947D01*
X150007Y96859D01*
X150046Y96786D01*
X150085Y96736D01*
X150107Y96709D01*
X150118Y96697D01*
X150163Y96659D01*
X150213Y96625D01*
X150318Y96570D01*
X150435Y96531D01*
X150546Y96503D01*
X150645Y96487D01*
X150690Y96481D01*
X150729D01*
X150762Y96475D01*
X150806D01*
Y96309D01*
X150695D01*
X150595Y96298D01*
X150507Y96287D01*
X150423Y96270D01*
X150346Y96248D01*
X150279Y96226D01*
X150218Y96204D01*
X150168Y96181D01*
X150118Y96154D01*
X150079Y96131D01*
X150051Y96109D01*
X150024Y96087D01*
X150002Y96070D01*
X149990Y96059D01*
X149979Y96054D01*
Y96048D01*
X149902Y95948D01*
X149846Y95837D01*
X149807Y95721D01*
X149780Y95615D01*
X149763Y95521D01*
X149757Y95477D01*
Y95443D01*
X149752Y95410D01*
Y95388D01*
Y95377D01*
Y95371D01*
Y95277D01*
X149763Y95188D01*
X149768Y95110D01*
X149785Y95033D01*
X149802Y94966D01*
X149819Y94905D01*
X149835Y94849D01*
X149857Y94799D01*
X149880Y94755D01*
X149896Y94716D01*
X149913Y94683D01*
X149929Y94655D01*
X149941Y94639D01*
X149952Y94622D01*
X149963Y94616D01*
Y94611D01*
X150007Y94566D01*
X150051Y94533D01*
X150151Y94472D01*
X150257Y94428D01*
X150357Y94400D01*
X150451Y94378D01*
X150490Y94372D01*
X150523D01*
X150557Y94367D01*
X150595D01*
X150673Y94372D01*
X150745Y94383D01*
X150812Y94394D01*
X150867Y94411D01*
X150917Y94428D01*
X150951Y94444D01*
X150978Y94450D01*
X150984Y94455D01*
X151040Y94494D01*
X151084Y94533D01*
X151112Y94572D01*
X151134Y94611D01*
X151145Y94644D01*
X151151Y94672D01*
X151156Y94688D01*
Y94694D01*
X151151Y94749D01*
X151134Y94799D01*
X151123Y94822D01*
X151117Y94838D01*
X151112Y94849D01*
Y94855D01*
X151084Y94916D01*
X151067Y94977D01*
X151062Y95005D01*
Y95027D01*
Y95038D01*
Y95044D01*
Y95071D01*
X151073Y95105D01*
X151089Y95160D01*
X151101Y95182D01*
X151112Y95205D01*
X151117Y95216D01*
X151123Y95221D01*
X151151Y95254D01*
X151178Y95282D01*
X151212Y95299D01*
X151245Y95315D01*
X151273Y95321D01*
X151300Y95327D01*
X151322D01*
X151356Y95321D01*
X151389Y95310D01*
X151450Y95271D01*
X151478Y95249D01*
X151495Y95232D01*
X151506Y95221D01*
X151511Y95216D01*
X151539Y95177D01*
X151561Y95132D01*
X151578Y95094D01*
X151589Y95055D01*
X151594Y95021D01*
X151600Y94994D01*
Y94977D01*
Y94972D01*
X151594Y94916D01*
X151589Y94861D01*
X151556Y94761D01*
X151506Y94666D01*
X151450Y94589D01*
X151395Y94522D01*
X151345Y94472D01*
X151311Y94444D01*
X151306Y94439D01*
X151300Y94433D01*
X151184Y94355D01*
X151056Y94300D01*
X150934Y94256D01*
X150823Y94228D01*
X150723Y94211D01*
X150679Y94206D01*
X150645D01*
X150612Y94200D01*
X150573D01*
X150468Y94206D01*
X150368Y94217D01*
X150274Y94233D01*
X150185Y94256D01*
X150101Y94278D01*
X150029Y94305D01*
X149963Y94339D01*
X149902Y94372D01*
X149846Y94400D01*
X149796Y94433D01*
X149757Y94461D01*
X149724Y94489D01*
X149696Y94505D01*
X149680Y94522D01*
X149669Y94533D01*
X149663Y94538D01*
X149602Y94605D01*
X149552Y94672D01*
X149508Y94738D01*
X149469Y94805D01*
X149435Y94872D01*
X149413Y94933D01*
X149369Y95055D01*
X149358Y95110D01*
X149347Y95166D01*
X149341Y95210D01*
X149336Y95249D01*
X149330Y95277D01*
Y95299D01*
Y95315D01*
Y95321D01*
X149336Y95438D01*
X149358Y95543D01*
X149391Y95649D01*
X149424Y95743D01*
X149458Y95821D01*
X149491Y95882D01*
X149502Y95904D01*
X149513Y95920D01*
X149519Y95926D01*
Y95932D01*
X149558Y95987D01*
X149602Y96043D01*
X149707Y96137D01*
X149824Y96220D01*
X149941Y96292D01*
X150051Y96348D01*
X150096Y96370D01*
X150140Y96392D01*
X150174Y96409D01*
X150201Y96414D01*
X150218Y96425D01*
X150224D01*
X150090Y96475D01*
X149979Y96531D01*
X149885Y96592D01*
X149807Y96648D01*
X149752Y96703D01*
X149707Y96747D01*
X149680Y96775D01*
X149674Y96786D01*
X149613Y96886D01*
X149569Y96986D01*
X149541Y97086D01*
X149519Y97180D01*
X149508Y97264D01*
X149502Y97297D01*
X149497Y97325D01*
Y97352D01*
Y97369D01*
Y97380D01*
Y97386D01*
X149502Y97447D01*
X149508Y97508D01*
X149541Y97619D01*
X149585Y97724D01*
X149635Y97819D01*
X149691Y97896D01*
X149735Y97957D01*
X149752Y97979D01*
X149768Y97996D01*
X149774Y98002D01*
X149780Y98007D01*
X149835Y98057D01*
X149891Y98107D01*
X149952Y98146D01*
X150013Y98179D01*
X150140Y98229D01*
X150257Y98263D01*
X150362Y98285D01*
X150412Y98290D01*
X150451Y98296D01*
X150484Y98301D01*
X150529D01*
X150673Y98290D01*
D02*
G37*
G36*
X144679D02*
X144812Y98268D01*
X144929Y98229D01*
X145034Y98190D01*
X145118Y98146D01*
X145151Y98129D01*
X145179Y98107D01*
X145201Y98096D01*
X145218Y98085D01*
X145229Y98074D01*
X145234D01*
X145284Y98030D01*
X145334Y97985D01*
X145373Y97941D01*
X145406Y97891D01*
X145462Y97796D01*
X145495Y97708D01*
X145517Y97624D01*
X145528Y97563D01*
X145534Y97536D01*
Y97519D01*
Y97508D01*
Y97502D01*
X145528Y97436D01*
X145523Y97380D01*
X145512Y97336D01*
X145495Y97302D01*
X145478Y97275D01*
X145467Y97258D01*
X145462Y97247D01*
X145456Y97241D01*
X145423Y97219D01*
X145395Y97202D01*
X145334Y97186D01*
X145312Y97180D01*
X145295Y97175D01*
X145279D01*
X145240Y97180D01*
X145206Y97186D01*
X145179Y97197D01*
X145156Y97208D01*
X145129Y97230D01*
X145118Y97241D01*
X145090Y97302D01*
X145073Y97364D01*
X145068Y97391D01*
Y97413D01*
Y97425D01*
Y97430D01*
X145073Y97480D01*
X145090Y97513D01*
X145112Y97541D01*
X145118Y97547D01*
X145134Y97569D01*
X145145Y97602D01*
X145151Y97641D01*
X145156Y97680D01*
X145162Y97719D01*
Y97752D01*
Y97774D01*
Y97780D01*
X145156Y97846D01*
X145134Y97902D01*
X145106Y97946D01*
X145068Y97985D01*
X145034Y98013D01*
X145007Y98035D01*
X144984Y98046D01*
X144979Y98052D01*
X144907Y98079D01*
X144846Y98102D01*
X144785Y98113D01*
X144735Y98124D01*
X144690Y98129D01*
X144657Y98135D01*
X144563D01*
X144496Y98124D01*
X144385Y98096D01*
X144291Y98057D01*
X144213Y98013D01*
X144152Y97963D01*
X144113Y97924D01*
X144085Y97896D01*
X144080Y97891D01*
Y97885D01*
X144019Y97791D01*
X143974Y97691D01*
X143947Y97597D01*
X143924Y97508D01*
X143913Y97430D01*
X143902Y97369D01*
Y97347D01*
Y97330D01*
Y97319D01*
Y97313D01*
X143913Y97175D01*
X143935Y97053D01*
X143974Y96947D01*
X144013Y96859D01*
X144052Y96786D01*
X144091Y96736D01*
X144113Y96709D01*
X144124Y96697D01*
X144169Y96659D01*
X144219Y96625D01*
X144324Y96570D01*
X144440Y96531D01*
X144552Y96503D01*
X144651Y96487D01*
X144696Y96481D01*
X144735D01*
X144768Y96475D01*
X144812D01*
Y96309D01*
X144701D01*
X144601Y96298D01*
X144513Y96287D01*
X144429Y96270D01*
X144352Y96248D01*
X144285Y96226D01*
X144224Y96204D01*
X144174Y96181D01*
X144124Y96154D01*
X144085Y96131D01*
X144058Y96109D01*
X144030Y96087D01*
X144008Y96070D01*
X143997Y96059D01*
X143985Y96054D01*
Y96048D01*
X143908Y95948D01*
X143852Y95837D01*
X143813Y95721D01*
X143786Y95615D01*
X143769Y95521D01*
X143763Y95477D01*
Y95443D01*
X143758Y95410D01*
Y95388D01*
Y95377D01*
Y95371D01*
Y95277D01*
X143769Y95188D01*
X143774Y95110D01*
X143791Y95033D01*
X143808Y94966D01*
X143825Y94905D01*
X143841Y94849D01*
X143863Y94799D01*
X143886Y94755D01*
X143902Y94716D01*
X143919Y94683D01*
X143935Y94655D01*
X143947Y94639D01*
X143958Y94622D01*
X143969Y94616D01*
Y94611D01*
X144013Y94566D01*
X144058Y94533D01*
X144157Y94472D01*
X144263Y94428D01*
X144363Y94400D01*
X144457Y94378D01*
X144496Y94372D01*
X144529D01*
X144563Y94367D01*
X144601D01*
X144679Y94372D01*
X144751Y94383D01*
X144818Y94394D01*
X144873Y94411D01*
X144923Y94428D01*
X144957Y94444D01*
X144984Y94450D01*
X144990Y94455D01*
X145045Y94494D01*
X145090Y94533D01*
X145118Y94572D01*
X145140Y94611D01*
X145151Y94644D01*
X145156Y94672D01*
X145162Y94688D01*
Y94694D01*
X145156Y94749D01*
X145140Y94799D01*
X145129Y94822D01*
X145123Y94838D01*
X145118Y94849D01*
Y94855D01*
X145090Y94916D01*
X145073Y94977D01*
X145068Y95005D01*
Y95027D01*
Y95038D01*
Y95044D01*
Y95071D01*
X145079Y95105D01*
X145095Y95160D01*
X145106Y95182D01*
X145118Y95205D01*
X145123Y95216D01*
X145129Y95221D01*
X145156Y95254D01*
X145184Y95282D01*
X145218Y95299D01*
X145251Y95315D01*
X145279Y95321D01*
X145306Y95327D01*
X145328D01*
X145362Y95321D01*
X145395Y95310D01*
X145456Y95271D01*
X145484Y95249D01*
X145501Y95232D01*
X145512Y95221D01*
X145517Y95216D01*
X145545Y95177D01*
X145567Y95132D01*
X145584Y95094D01*
X145595Y95055D01*
X145600Y95021D01*
X145606Y94994D01*
Y94977D01*
Y94972D01*
X145600Y94916D01*
X145595Y94861D01*
X145562Y94761D01*
X145512Y94666D01*
X145456Y94589D01*
X145401Y94522D01*
X145351Y94472D01*
X145317Y94444D01*
X145312Y94439D01*
X145306Y94433D01*
X145190Y94355D01*
X145062Y94300D01*
X144940Y94256D01*
X144829Y94228D01*
X144729Y94211D01*
X144685Y94206D01*
X144651D01*
X144618Y94200D01*
X144579D01*
X144474Y94206D01*
X144374Y94217D01*
X144280Y94233D01*
X144191Y94256D01*
X144107Y94278D01*
X144035Y94305D01*
X143969Y94339D01*
X143908Y94372D01*
X143852Y94400D01*
X143802Y94433D01*
X143763Y94461D01*
X143730Y94489D01*
X143702Y94505D01*
X143686Y94522D01*
X143675Y94533D01*
X143669Y94538D01*
X143608Y94605D01*
X143558Y94672D01*
X143514Y94738D01*
X143475Y94805D01*
X143441Y94872D01*
X143419Y94933D01*
X143375Y95055D01*
X143364Y95110D01*
X143353Y95166D01*
X143347Y95210D01*
X143342Y95249D01*
X143336Y95277D01*
Y95299D01*
Y95315D01*
Y95321D01*
X143342Y95438D01*
X143364Y95543D01*
X143397Y95649D01*
X143430Y95743D01*
X143464Y95821D01*
X143497Y95882D01*
X143508Y95904D01*
X143519Y95920D01*
X143525Y95926D01*
Y95932D01*
X143564Y95987D01*
X143608Y96043D01*
X143713Y96137D01*
X143830Y96220D01*
X143947Y96292D01*
X144058Y96348D01*
X144102Y96370D01*
X144146Y96392D01*
X144180Y96409D01*
X144207Y96414D01*
X144224Y96425D01*
X144230D01*
X144096Y96475D01*
X143985Y96531D01*
X143891Y96592D01*
X143813Y96648D01*
X143758Y96703D01*
X143713Y96747D01*
X143686Y96775D01*
X143680Y96786D01*
X143619Y96886D01*
X143575Y96986D01*
X143547Y97086D01*
X143525Y97180D01*
X143514Y97264D01*
X143508Y97297D01*
X143502Y97325D01*
Y97352D01*
Y97369D01*
Y97380D01*
Y97386D01*
X143508Y97447D01*
X143514Y97508D01*
X143547Y97619D01*
X143591Y97724D01*
X143641Y97819D01*
X143697Y97896D01*
X143741Y97957D01*
X143758Y97979D01*
X143774Y97996D01*
X143780Y98002D01*
X143786Y98007D01*
X143841Y98057D01*
X143897Y98107D01*
X143958Y98146D01*
X144019Y98179D01*
X144146Y98229D01*
X144263Y98263D01*
X144368Y98285D01*
X144418Y98290D01*
X144457Y98296D01*
X144491Y98301D01*
X144535D01*
X144679Y98290D01*
D02*
G37*
G36*
X148858Y98113D02*
X148742D01*
X148703Y98107D01*
X148664Y98102D01*
X148636Y98085D01*
X148614Y98074D01*
X148581Y98041D01*
X148570Y98035D01*
Y98030D01*
X148547Y97996D01*
X148531Y97957D01*
X148503Y97874D01*
X148498Y97835D01*
X148492Y97808D01*
X148486Y97785D01*
Y97780D01*
X147621Y94250D01*
X147482D01*
X146522Y97780D01*
X146505Y97846D01*
X146483Y97902D01*
X146461Y97946D01*
X146439Y97979D01*
X146422Y98007D01*
X146405Y98024D01*
X146400Y98035D01*
X146394Y98041D01*
X146361Y98063D01*
X146333Y98085D01*
X146272Y98102D01*
X146250Y98107D01*
X146233Y98113D01*
X146122D01*
Y98251D01*
X146966D01*
Y98113D01*
X146849D01*
X146810Y98102D01*
X146777Y98096D01*
X146755Y98085D01*
X146738Y98074D01*
X146727Y98063D01*
X146722Y98057D01*
Y98052D01*
X146699Y98007D01*
X146694Y97963D01*
X146688Y97935D01*
Y97930D01*
Y97924D01*
X146694Y97880D01*
X146699Y97835D01*
X146705Y97813D01*
Y97796D01*
X146710Y97785D01*
Y97780D01*
X147410Y95116D01*
X147460D01*
X148115Y97852D01*
X148120Y97930D01*
X148115Y97991D01*
Y98013D01*
X148109Y98030D01*
X148103Y98035D01*
Y98041D01*
X148087Y98063D01*
X148065Y98085D01*
X148009Y98102D01*
X147987Y98107D01*
X147965Y98113D01*
X147854D01*
Y98251D01*
X148858D01*
Y98113D01*
D02*
G37*
G36*
X107236Y31751D02*
X106947D01*
X106881Y31745D01*
X106825Y31740D01*
X106781Y31729D01*
X106742Y31712D01*
X106709Y31701D01*
X106686Y31690D01*
X106675Y31684D01*
X106670Y31679D01*
X106637Y31646D01*
X106614Y31607D01*
X106598Y31568D01*
X106587Y31529D01*
X106581Y31496D01*
X106576Y31468D01*
Y31446D01*
Y31440D01*
Y27899D01*
X106381D01*
X106342Y27972D01*
X106298Y28032D01*
X106259Y28082D01*
X106215Y28121D01*
X106181Y28149D01*
X106154Y28171D01*
X106131Y28182D01*
X106126Y28188D01*
X106065Y28216D01*
X105998Y28232D01*
X105926Y28249D01*
X105859Y28255D01*
X105798Y28260D01*
X105754Y28266D01*
X105443D01*
Y28521D01*
X105915D01*
X105971Y28526D01*
X106015Y28543D01*
X106037Y28560D01*
X106043Y28565D01*
X106070Y28599D01*
X106081Y28632D01*
X106087Y28660D01*
Y28665D01*
Y28671D01*
Y31440D01*
X106081Y31496D01*
X106076Y31546D01*
X106059Y31585D01*
X106043Y31618D01*
X106026Y31646D01*
X106015Y31662D01*
X106004Y31673D01*
X105998Y31679D01*
X105959Y31701D01*
X105921Y31718D01*
X105821Y31740D01*
X105782Y31745D01*
X105743Y31751D01*
X105443D01*
Y32006D01*
X107236D01*
Y31751D01*
D02*
G37*
G36*
X81374Y108466D02*
X80273D01*
Y111695D01*
Y111963D01*
X80282Y112231D01*
X80292Y112472D01*
Y112694D01*
X80301Y112795D01*
Y112879D01*
X80310Y112962D01*
Y113027D01*
X80319Y113073D01*
Y113119D01*
Y113138D01*
Y113147D01*
X80292D01*
X80264Y113036D01*
X80246Y112934D01*
X80227Y112842D01*
X80208Y112759D01*
X80190Y112685D01*
X80172Y112620D01*
X80153Y112518D01*
X80134Y112444D01*
X80116Y112398D01*
X80107Y112379D01*
Y112370D01*
X78673Y108466D01*
X77702D01*
X76296Y112407D01*
X76268Y112490D01*
X76240Y112601D01*
X76213Y112722D01*
X76185Y112851D01*
X76157Y112962D01*
X76139Y113055D01*
X76129Y113092D01*
X76120Y113119D01*
Y113138D01*
Y113147D01*
X76083D01*
X76101Y112888D01*
X76111Y112647D01*
X76129Y112444D01*
Y112268D01*
X76139Y112129D01*
Y112074D01*
Y112019D01*
Y111981D01*
Y111954D01*
Y111944D01*
Y111935D01*
Y108466D01*
X74927D01*
Y114183D01*
X76657D01*
X77896Y110733D01*
X77942Y110603D01*
X77979Y110465D01*
X78026Y110326D01*
X78053Y110196D01*
X78081Y110085D01*
X78109Y110002D01*
X78118Y109965D01*
Y109937D01*
X78127Y109928D01*
Y109919D01*
X78155D01*
X78183Y110067D01*
X78211Y110205D01*
X78247Y110344D01*
X78285Y110465D01*
X78312Y110566D01*
X78340Y110650D01*
X78359Y110705D01*
X78368Y110723D01*
X79598Y114183D01*
X81374D01*
Y108466D01*
D02*
G37*
G36*
X71162Y114276D02*
X71393Y114248D01*
X71615Y114201D01*
X71819Y114146D01*
X72013Y114081D01*
X72198Y114007D01*
X72364Y113933D01*
X72513Y113850D01*
X72642Y113767D01*
X72762Y113693D01*
X72864Y113619D01*
X72947Y113554D01*
X73021Y113498D01*
X73067Y113452D01*
X73095Y113425D01*
X73105Y113415D01*
X73252Y113249D01*
X73382Y113073D01*
X73502Y112888D01*
X73595Y112703D01*
X73678Y112518D01*
X73752Y112333D01*
X73808Y112157D01*
X73844Y111981D01*
X73882Y111824D01*
X73909Y111667D01*
X73928Y111538D01*
X73946Y111417D01*
Y111325D01*
X73956Y111260D01*
Y111214D01*
Y111195D01*
X73946Y110964D01*
X73918Y110742D01*
X73882Y110529D01*
X73835Y110335D01*
X73780Y110150D01*
X73715Y109984D01*
X73650Y109826D01*
X73576Y109687D01*
X73502Y109558D01*
X73438Y109456D01*
X73373Y109364D01*
X73317Y109281D01*
X73271Y109225D01*
X73225Y109179D01*
X73206Y109151D01*
X73197Y109142D01*
X73049Y109003D01*
X72892Y108892D01*
X72725Y108790D01*
X72559Y108698D01*
X72383Y108624D01*
X72216Y108559D01*
X72050Y108513D01*
X71883Y108466D01*
X71736Y108439D01*
X71597Y108411D01*
X71467Y108402D01*
X71356Y108383D01*
X71264D01*
X71199Y108374D01*
X70959D01*
X70783Y108383D01*
X70616Y108402D01*
X70459Y108420D01*
X70320Y108439D01*
X70182Y108466D01*
X70061Y108494D01*
X69950Y108522D01*
X69849Y108550D01*
X69765Y108578D01*
X69691Y108605D01*
X69626Y108624D01*
X69580Y108642D01*
X69543Y108661D01*
X69525Y108670D01*
X69516D01*
Y109789D01*
X69756Y109669D01*
X69997Y109576D01*
X70228Y109512D01*
X70441Y109466D01*
X70542Y109447D01*
X70626Y109438D01*
X70709Y109429D01*
X70774D01*
X70829Y109419D01*
X70903D01*
X71051Y109429D01*
X71190Y109438D01*
X71449Y109502D01*
X71671Y109576D01*
X71763Y109623D01*
X71856Y109678D01*
X71930Y109724D01*
X72004Y109771D01*
X72059Y109808D01*
X72105Y109845D01*
X72152Y109882D01*
X72180Y109909D01*
X72189Y109919D01*
X72198Y109928D01*
X72281Y110030D01*
X72355Y110132D01*
X72420Y110242D01*
X72466Y110363D01*
X72559Y110585D01*
X72614Y110807D01*
X72633Y110899D01*
X72642Y110992D01*
X72651Y111075D01*
X72660Y111149D01*
X72670Y111205D01*
Y111251D01*
Y111278D01*
Y111288D01*
X72660Y111445D01*
X72651Y111602D01*
X72596Y111871D01*
X72549Y112000D01*
X72513Y112111D01*
X72466Y112213D01*
X72420Y112314D01*
X72374Y112398D01*
X72328Y112472D01*
X72281Y112537D01*
X72244Y112592D01*
X72216Y112629D01*
X72189Y112657D01*
X72180Y112675D01*
X72170Y112685D01*
X72069Y112777D01*
X71967Y112860D01*
X71865Y112934D01*
X71754Y112999D01*
X71634Y113045D01*
X71523Y113092D01*
X71310Y113156D01*
X71218Y113175D01*
X71125Y113193D01*
X71042Y113203D01*
X70968Y113212D01*
X70912Y113221D01*
X70829D01*
X70561Y113203D01*
X70311Y113165D01*
X70089Y113119D01*
X69895Y113055D01*
X69811Y113027D01*
X69737Y112990D01*
X69673Y112962D01*
X69617Y112943D01*
X69571Y112916D01*
X69543Y112907D01*
X69525Y112888D01*
X69516D01*
Y114063D01*
X69737Y114137D01*
X69969Y114192D01*
X70209Y114229D01*
X70422Y114257D01*
X70524Y114266D01*
X70616Y114276D01*
X70700D01*
X70774Y114285D01*
X70912D01*
X71162Y114276D01*
D02*
G37*
G36*
X68554Y110853D02*
X68544Y110631D01*
X68526Y110418D01*
X68498Y110224D01*
X68452Y110039D01*
X68405Y109863D01*
X68341Y109706D01*
X68276Y109558D01*
X68193Y109419D01*
X68110Y109299D01*
X68017Y109179D01*
X67924Y109077D01*
X67823Y108975D01*
X67619Y108818D01*
X67406Y108688D01*
X67194Y108578D01*
X66981Y108503D01*
X66787Y108448D01*
X66620Y108411D01*
X66472Y108393D01*
X66408Y108383D01*
X66361D01*
X66315Y108374D01*
X66259D01*
X66047Y108383D01*
X65843Y108402D01*
X65649Y108439D01*
X65473Y108485D01*
X65307Y108540D01*
X65159Y108615D01*
X65020Y108688D01*
X64881Y108772D01*
X64761Y108864D01*
X64650Y108966D01*
X64557Y109068D01*
X64465Y109179D01*
X64308Y109410D01*
X64178Y109651D01*
X64077Y109891D01*
X64012Y110122D01*
X63956Y110335D01*
X63919Y110529D01*
X63910Y110612D01*
X63901Y110696D01*
X63892Y110760D01*
X63882Y110816D01*
Y110862D01*
Y110899D01*
Y110918D01*
Y110927D01*
Y114183D01*
X65103D01*
Y110798D01*
X65113Y110557D01*
X65149Y110344D01*
X65205Y110159D01*
X65279Y110002D01*
X65362Y109863D01*
X65455Y109752D01*
X65547Y109669D01*
X65649Y109595D01*
X65760Y109539D01*
X65852Y109493D01*
X65945Y109466D01*
X66028Y109438D01*
X66102Y109429D01*
X66158Y109419D01*
X66204D01*
X66398Y109438D01*
X66574Y109484D01*
X66731Y109549D01*
X66852Y109641D01*
X66962Y109752D01*
X67055Y109872D01*
X67129Y110002D01*
X67194Y110141D01*
X67240Y110270D01*
X67277Y110400D01*
X67295Y110520D01*
X67314Y110631D01*
X67323Y110723D01*
X67333Y110788D01*
Y110835D01*
Y110853D01*
Y114183D01*
X68554D01*
Y110853D01*
D02*
G37*
%LPC*%
G36*
X7860Y98113D02*
X7843D01*
X7776Y98107D01*
X7710Y98090D01*
X7654Y98068D01*
X7599Y98035D01*
X7549Y97996D01*
X7504Y97952D01*
X7421Y97863D01*
X7360Y97769D01*
X7338Y97724D01*
X7316Y97685D01*
X7305Y97652D01*
X7294Y97630D01*
X7282Y97613D01*
Y97608D01*
X7249Y97508D01*
X7221Y97402D01*
X7171Y97186D01*
X7138Y96958D01*
X7127Y96847D01*
X7116Y96742D01*
X7110Y96642D01*
X7105Y96553D01*
X7099Y96470D01*
X7094Y96398D01*
Y96342D01*
Y96298D01*
Y96270D01*
Y96259D01*
Y96098D01*
X7105Y95943D01*
X7110Y95804D01*
X7127Y95671D01*
X7138Y95543D01*
X7155Y95432D01*
X7177Y95327D01*
X7194Y95238D01*
X7210Y95155D01*
X7232Y95082D01*
X7249Y95021D01*
X7260Y94966D01*
X7277Y94927D01*
X7282Y94899D01*
X7294Y94883D01*
Y94877D01*
X7332Y94794D01*
X7377Y94716D01*
X7416Y94649D01*
X7466Y94594D01*
X7510Y94550D01*
X7554Y94511D01*
X7599Y94477D01*
X7643Y94450D01*
X7682Y94428D01*
X7721Y94416D01*
X7788Y94394D01*
X7810D01*
X7826Y94389D01*
X7843D01*
X7904Y94394D01*
X7959Y94411D01*
X8015Y94433D01*
X8065Y94466D01*
X8115Y94500D01*
X8159Y94544D01*
X8243Y94633D01*
X8304Y94722D01*
X8331Y94766D01*
X8354Y94799D01*
X8370Y94833D01*
X8381Y94855D01*
X8392Y94871D01*
Y94877D01*
X8431Y94971D01*
X8465Y95077D01*
X8520Y95299D01*
X8559Y95532D01*
X8576Y95643D01*
X8587Y95754D01*
X8598Y95859D01*
X8603Y95954D01*
X8609Y96037D01*
Y96115D01*
X8614Y96176D01*
Y96220D01*
Y96248D01*
Y96259D01*
Y96414D01*
X8603Y96559D01*
X8592Y96697D01*
X8581Y96825D01*
X8564Y96947D01*
X8542Y97058D01*
X8526Y97158D01*
X8503Y97253D01*
X8481Y97330D01*
X8465Y97402D01*
X8442Y97463D01*
X8426Y97513D01*
X8415Y97558D01*
X8404Y97585D01*
X8392Y97602D01*
Y97608D01*
X8348Y97697D01*
X8304Y97774D01*
X8259Y97841D01*
X8215Y97902D01*
X8165Y97946D01*
X8121Y97991D01*
X8076Y98024D01*
X8032Y98052D01*
X7993Y98068D01*
X7959Y98085D01*
X7898Y98107D01*
X7876D01*
X7860Y98113D01*
D02*
G37*
%LPD*%
D10*
X82774Y146806D02*
G03*
X76918Y146754I-2897J-3545D01*
G01*
X76974Y135606D02*
G03*
X82830Y135659I2897J3545D01*
G01*
X74774Y146806D02*
G03*
X68918Y146754I-2897J-3545D01*
G01*
X68974Y135606D02*
G03*
X74830Y135659I2897J3545D01*
G01*
X46424Y58774D02*
G03*
X46476Y52918I3545J-2897D01*
G01*
X57624Y52974D02*
G03*
X57572Y58830I-3545J2897D01*
G01*
X58974Y114806D02*
G03*
X58922Y120662I-3545J2897D01*
G01*
X47774Y120606D02*
G03*
X47826Y114751I3545J-2897D01*
G01*
X54874Y146506D02*
G03*
X54926Y140651I3545J-2897D01*
G01*
X66074Y140706D02*
G03*
X66022Y146562I-3545J2897D01*
G01*
X71527Y42606D02*
G03*
X68574Y39654I0J-2953D01*
G01*
X112984D02*
G03*
X110031Y42606I-2953J0D01*
G01*
X122774Y42974D02*
G03*
X116918Y42922I-2897J-3545D01*
G01*
X116974Y31774D02*
G03*
X122830Y31826I2897J3545D01*
G01*
X95574Y108474D02*
G03*
X95522Y114330I-3545J2897D01*
G01*
X84374Y114274D02*
G03*
X84426Y108418I3545J-2897D01*
G01*
X110974Y52974D02*
G03*
X110922Y58830I-3545J2897D01*
G01*
X99774Y58774D02*
G03*
X99826Y52918I3545J-2897D01*
G01*
X81121Y13101D02*
G03*
X81069Y18957I-3545J2897D01*
G01*
X69921Y18901D02*
G03*
X69973Y13045I3545J-2897D01*
G01*
X76874Y135706D02*
Y139406D01*
X82874Y135706D02*
Y139406D01*
Y142906D02*
Y146706D01*
X76874Y142906D02*
Y146606D01*
X68874Y135706D02*
Y139406D01*
X74874Y135706D02*
Y139406D01*
Y142906D02*
Y146706D01*
X68874Y142906D02*
Y146606D01*
X53724Y58874D02*
X57424D01*
X53724Y52874D02*
X57524D01*
X46524D02*
X50224D01*
X46524Y58874D02*
X50224D01*
X47974Y114706D02*
X51674D01*
X47874Y120706D02*
X51674D01*
X55174D02*
X58874D01*
X55174Y114706D02*
X58874D01*
X62174Y146606D02*
X65874D01*
X62174Y140606D02*
X65974D01*
X54974D02*
X58674D01*
X54974Y146606D02*
X58674D01*
X116874Y31874D02*
Y35574D01*
X122874Y31874D02*
Y35574D01*
Y39074D02*
Y42874D01*
X116874Y39074D02*
Y42774D01*
X100374Y50874D02*
X110374D01*
X46874Y50874D02*
X56874D01*
X60236Y60236D02*
Y94488D01*
X62992Y97244D01*
X97244D01*
X60236Y60236D02*
X97244D01*
Y97244D01*
X22674Y99906D02*
X32674D01*
X22374Y101606D02*
X33374D01*
X84474Y114374D02*
X88174D01*
X84474Y108374D02*
X88174D01*
X91674D02*
X95474D01*
X91674Y114374D02*
X95374D01*
X99874Y58874D02*
X103574D01*
X99874Y52874D02*
X103574D01*
X107074D02*
X110874D01*
X107074Y58874D02*
X110774D01*
X70021Y19001D02*
X73721D01*
X70021Y13001D02*
X73721D01*
X77221D02*
X81021D01*
X77221Y19001D02*
X80921D01*
D11*
X131004Y40059D02*
G03*
X131004Y40059I-492J0D01*
G01*
X27461Y89862D02*
G03*
X27461Y89862I-492J0D01*
G01*
D12*
X78391Y141643D02*
X81344D01*
X78391Y140659D02*
X81344D01*
X70391Y141643D02*
X73344D01*
X70391Y140659D02*
X73344D01*
X51477Y54404D02*
Y57357D01*
X52461Y54404D02*
Y57357D01*
X53921Y116223D02*
Y119176D01*
X52937Y116223D02*
Y119176D01*
X59927Y142137D02*
Y145089D01*
X60911Y142137D02*
Y145089D01*
X118391Y37811D02*
X121344D01*
X118391Y36827D02*
X121344D01*
X90411Y109904D02*
Y112857D01*
X89427Y109904D02*
Y112857D01*
X105811Y54404D02*
Y57357D01*
X104827Y54404D02*
Y57357D01*
X75958Y14531D02*
Y17484D01*
X74974Y14531D02*
Y17484D01*
D13*
X48059Y108287D02*
Y113406D01*
X58689Y108287D02*
Y113406D01*
X54949D02*
X58689D01*
X48059D02*
X51799D01*
X54949Y108287D02*
X58689D01*
X48059D02*
X51799D01*
X101284Y13287D02*
X105024D01*
X108173D02*
X111913D01*
X101284Y18406D02*
X105024D01*
X108173D02*
X111913D01*
Y13287D02*
Y18406D01*
X101284Y13287D02*
Y18406D01*
X136024Y37205D02*
Y92716D01*
X141535Y37205D02*
Y92716D01*
X136024Y37205D02*
X141535D01*
X136024Y92716D02*
X141535D01*
X15945Y37205D02*
X21457D01*
X15945Y92716D02*
X21457D01*
X15945Y37205D02*
Y92716D01*
X21457Y37205D02*
Y92716D01*
X39265Y101449D02*
Y105189D01*
Y108339D02*
Y112079D01*
X34146Y101449D02*
Y105189D01*
Y108339D02*
Y112079D01*
X39265D01*
X34146Y101449D02*
X39265D01*
X27359D02*
Y105189D01*
Y108339D02*
Y112079D01*
X22241Y101449D02*
Y105189D01*
Y108339D02*
Y112079D01*
X27359D01*
X22241Y101449D02*
X27359D01*
X33265D02*
Y105189D01*
Y108339D02*
Y112079D01*
X28146Y101449D02*
Y105189D01*
Y108339D02*
Y112079D01*
X33265D01*
X28146Y101449D02*
X33265D01*
X87809Y13442D02*
X91550D01*
X94699D02*
X98439D01*
X87809Y18560D02*
X91550D01*
X94699D02*
X98439D01*
Y13442D02*
Y18560D01*
X87809Y13442D02*
Y18560D01*
X145374Y116606D02*
Y126559D01*
X95374Y116606D02*
Y126559D01*
X131595Y130102D02*
Y148606D01*
Y130102D02*
X133595D01*
X136594Y135102D01*
Y148606D01*
X104154Y135102D02*
Y148606D01*
Y135102D02*
X107153Y130102D01*
X109153D01*
Y148606D01*
X95374Y123606D02*
X145374D01*
X150374Y126559D02*
Y133606D01*
X145374Y126559D02*
X150374D01*
X90374D02*
Y133606D01*
Y126559D02*
X95374D01*
Y116606D02*
X145374D01*
X95374Y148606D02*
X145374D01*
D14*
X68574Y23538D02*
Y40638D01*
X112984Y25677D02*
Y40638D01*
Y25677D02*
X120858D01*
X121803Y24732D01*
Y14731D02*
Y24732D01*
D68*
X64567Y93307D02*
G03*
X64567Y93307I-394J0D01*
G01*
D69*
X75578Y126106D02*
X76578D01*
X70178D02*
X71178D01*
Y124106D02*
Y128106D01*
X75578Y124106D02*
Y128106D01*
X72378D02*
X74378D01*
X72378Y124106D02*
Y128106D01*
Y124106D02*
X74378D01*
Y128106D01*
X54874Y128406D02*
X58874D01*
X54874Y132806D02*
X58874D01*
X54874Y129606D02*
Y131606D01*
Y129606D02*
X58874D01*
Y131606D01*
X54874D02*
X58874D01*
D70*
X63878Y131506D02*
X82878D01*
X63878Y120706D02*
Y131506D01*
X82878Y120706D02*
Y131506D01*
X63878Y120706D02*
X82878D01*
D71*
X62992Y11811D02*
D03*
M02*
