G04*
G04 #@! TF.GenerationSoftware,Altium Limited,Altium Designer,21.2.1 (34)*
G04*
G04 Layer_Color=8421504*
%FSLAX25Y25*%
%MOIN*%
G70*
G04*
G04 #@! TF.SameCoordinates,1518C732-DF2A-4DFD-9B87-9E54171A1C2B*
G04*
G04*
G04 #@! TF.FilePolarity,Positive*
G04*
G01*
G75*
%ADD17R,0.03800X0.03500*%
%ADD18R,0.03347X0.03150*%
%ADD19R,0.03500X0.03800*%
%ADD20R,0.03150X0.03347*%
%ADD21R,0.01772X0.03937*%
%ADD22R,0.03937X0.02953*%
%ADD23R,0.05906X0.07874*%
%ADD24R,0.02165X0.03937*%
%ADD25R,0.09055X0.06299*%
D17*
X149574Y85809D02*
D03*
X142674D02*
D03*
Y93809D02*
D03*
X149574D02*
D03*
X11574Y76606D02*
D03*
X4674D02*
D03*
D18*
X134646Y97098D02*
D03*
Y102847D02*
D03*
X5724Y91080D02*
D03*
Y96828D02*
D03*
X12074Y91047D02*
D03*
Y96794D02*
D03*
D19*
X152800Y129700D02*
D03*
Y122800D02*
D03*
D20*
X143500Y66546D02*
D03*
X149248D02*
D03*
D21*
X150114Y102847D02*
D03*
X146374D02*
D03*
X142634D02*
D03*
Y113847D02*
D03*
X146374D02*
D03*
X150114D02*
D03*
D22*
X18474Y115502D02*
D03*
X4301D02*
D03*
D23*
X143296Y41105D02*
D03*
X143374Y9874D02*
D03*
D24*
X11554Y68106D02*
D03*
X7814D02*
D03*
X4074D02*
D03*
Y57870D02*
D03*
X11554D02*
D03*
D25*
X8174Y48976D02*
D03*
Y36772D02*
D03*
M02*
