M48
;Layer_Color=9474304
;FILE_FORMAT=2:5
INCH,LZ
;TYPE=PLATED
T1F00S00C0.01000
T2F00S00C0.01600
T3F00S00C0.02756
T5F00S00C0.07874
%
T01
X0127874Y0021874
X0048138Y0019374
Y0013374
X0042138
Y0019374
X0085874Y0023846
Y0029847
X0089963Y0044856
X0089534Y0064423
X0087566Y0066423
X008563Y0064512
X0083661Y0062512
X0073874Y0060374
X0076498Y0080709
Y0083858
X0077756Y0087968
X0079724Y0089969
X0081693Y0091969
X0083661Y0093968
X0089567Y0089969
X0070374Y0093374
X0065374Y0095374
X0061874Y0088874
Y0085978
X0067946Y0087923
X0064374Y0107346
X0060874Y0110846
X0028737Y0114243
X0024874Y0115806
X00248Y009789
X0030705
X0018498Y0083858
Y0080709
Y0077559
Y007441
Y007126
Y006811
Y0064961
Y0061811
X0091503Y0062423
X0093471Y0060423
X0105392Y0048864
X0091874Y0029847
Y0023846
X0127874Y0027874
X0140374Y0052362
Y0055512
Y0058661
Y0061811
Y007126
Y007441
Y0077559
X0153133Y0057115
X0105874Y0097874
X0102374Y0100374
X0093504Y0093968
X0091535Y0091969
T02
X00187Y00554
X0040174Y0045474
X0032874Y0089874
X0047874Y0098374
X0055512Y0100044
X0041638Y0109638
X0018474Y0107874
X0092874Y0117847
X0128874Y0098374
X0121874Y0088874
X0100543Y0045346
T03
X0023622Y003937
Y0090551
X0133858
Y003937
T05
X0007874Y0007874
M30
