G04*
G04 #@! TF.GenerationSoftware,Altium Limited,Altium Designer,21.2.1 (34)*
G04*
G04 Layer_Color=16711935*
%FSLAX25Y25*%
%MOIN*%
G70*
G04*
G04 #@! TF.SameCoordinates,1518C732-DF2A-4DFD-9B87-9E54171A1C2B*
G04*
G04*
G04 #@! TF.FilePolarity,Negative*
G04*
G01*
G75*
%ADD26R,0.04600X0.04300*%
%ADD27R,0.04147X0.03950*%
%ADD28R,0.04300X0.04600*%
%ADD29R,0.03950X0.04147*%
%ADD35C,0.03556*%
%ADD36C,0.09461*%
%ADD37O,0.05524X0.07493*%
%ADD38O,0.04737X0.07887*%
%ADD58O,0.02375X0.08674*%
%ADD59R,0.05524X0.09461*%
%ADD60O,0.01981X0.06312*%
%ADD61O,0.06312X0.01981*%
%ADD62O,0.08674X0.02178*%
%ADD63R,0.03753X0.04737*%
%ADD64R,0.06706X0.05524*%
%ADD65R,0.01981X0.05400*%
%ADD66R,0.08674X0.14580*%
%ADD67R,0.05524X0.14580*%
D26*
X48524Y55874D02*
D03*
X55424D02*
D03*
X56874Y117706D02*
D03*
X49974D02*
D03*
X56974Y143606D02*
D03*
X63874D02*
D03*
X93374Y111374D02*
D03*
X86474D02*
D03*
X108774Y55874D02*
D03*
X101874D02*
D03*
X78921Y16001D02*
D03*
X72021D02*
D03*
D27*
X36705Y103890D02*
D03*
Y109638D02*
D03*
X24800Y103890D02*
D03*
Y109638D02*
D03*
X30705Y103890D02*
D03*
Y109638D02*
D03*
D28*
X79874Y144606D02*
D03*
Y137706D02*
D03*
X71874Y144606D02*
D03*
Y137706D02*
D03*
X119874Y40774D02*
D03*
Y33874D02*
D03*
D29*
X56248Y110846D02*
D03*
X50500D02*
D03*
X103724Y15846D02*
D03*
X109473D02*
D03*
X90250Y16001D02*
D03*
X95998D02*
D03*
D35*
X133858Y90551D02*
D03*
Y39370D02*
D03*
X23622Y90551D02*
D03*
Y39370D02*
D03*
D36*
X7874Y7874D02*
D03*
D37*
X49800Y141750D02*
D03*
X5706D02*
D03*
D38*
X49300Y126002D02*
D03*
X6206D02*
D03*
D58*
X103724Y38638D02*
D03*
X100969D02*
D03*
X92701D02*
D03*
X95457D02*
D03*
X84433D02*
D03*
X87189D02*
D03*
X76165D02*
D03*
X78921D02*
D03*
X106480D02*
D03*
X98213D02*
D03*
X81677D02*
D03*
X89945D02*
D03*
D59*
X79574Y126106D02*
D03*
X67182D02*
D03*
D60*
X63976Y101969D02*
D03*
X65945D02*
D03*
X67913D02*
D03*
X69882D02*
D03*
X71850D02*
D03*
X73819D02*
D03*
X75787D02*
D03*
X77756D02*
D03*
X79724D02*
D03*
X81693D02*
D03*
X83661D02*
D03*
X85630D02*
D03*
X87598D02*
D03*
X89567D02*
D03*
X91535D02*
D03*
X93504D02*
D03*
Y55512D02*
D03*
X91535D02*
D03*
X89567D02*
D03*
X87598D02*
D03*
X85630D02*
D03*
X83661D02*
D03*
X81693D02*
D03*
X79724D02*
D03*
X77756D02*
D03*
X75787D02*
D03*
X73819D02*
D03*
X71850D02*
D03*
X69882D02*
D03*
X67913D02*
D03*
X65945D02*
D03*
X63976D02*
D03*
D61*
X101969Y93504D02*
D03*
Y91535D02*
D03*
Y89567D02*
D03*
Y87598D02*
D03*
Y85630D02*
D03*
Y83661D02*
D03*
Y81693D02*
D03*
Y79724D02*
D03*
Y77756D02*
D03*
Y75787D02*
D03*
Y73819D02*
D03*
Y71850D02*
D03*
Y69882D02*
D03*
Y67913D02*
D03*
Y65945D02*
D03*
Y63976D02*
D03*
X55512D02*
D03*
Y65945D02*
D03*
Y67913D02*
D03*
Y69882D02*
D03*
Y71850D02*
D03*
Y73819D02*
D03*
Y75787D02*
D03*
Y77756D02*
D03*
Y79724D02*
D03*
Y81693D02*
D03*
Y83661D02*
D03*
Y85630D02*
D03*
Y87598D02*
D03*
Y89567D02*
D03*
Y91535D02*
D03*
Y93504D02*
D03*
D62*
X130512Y42913D02*
D03*
Y46063D02*
D03*
Y49213D02*
D03*
Y52362D02*
D03*
Y55512D02*
D03*
Y58661D02*
D03*
Y61811D02*
D03*
Y64961D02*
D03*
Y68110D02*
D03*
Y71260D02*
D03*
Y74410D02*
D03*
Y77559D02*
D03*
Y80709D02*
D03*
Y83858D02*
D03*
Y87008D02*
D03*
X147047Y42913D02*
D03*
Y46063D02*
D03*
Y49213D02*
D03*
Y52362D02*
D03*
Y55512D02*
D03*
Y58661D02*
D03*
Y61811D02*
D03*
Y64961D02*
D03*
Y68110D02*
D03*
Y71260D02*
D03*
Y74410D02*
D03*
Y77559D02*
D03*
Y80709D02*
D03*
Y83858D02*
D03*
Y87008D02*
D03*
X10433Y42913D02*
D03*
Y46063D02*
D03*
Y49213D02*
D03*
Y52362D02*
D03*
Y55512D02*
D03*
Y58661D02*
D03*
Y61811D02*
D03*
Y64961D02*
D03*
Y68110D02*
D03*
Y71260D02*
D03*
Y74410D02*
D03*
Y77559D02*
D03*
Y80709D02*
D03*
Y83858D02*
D03*
Y87008D02*
D03*
X26969Y42913D02*
D03*
Y46063D02*
D03*
Y49213D02*
D03*
Y52362D02*
D03*
Y55512D02*
D03*
Y58661D02*
D03*
Y61811D02*
D03*
Y64961D02*
D03*
Y68110D02*
D03*
Y71260D02*
D03*
Y74410D02*
D03*
Y77559D02*
D03*
Y80709D02*
D03*
Y83858D02*
D03*
Y87008D02*
D03*
D63*
X62992Y20866D02*
D03*
Y6693D02*
D03*
D64*
X56874Y125094D02*
D03*
Y136118D02*
D03*
D65*
X40942Y119606D02*
D03*
X39761D02*
D03*
X37792D02*
D03*
X36611D02*
D03*
X34642D02*
D03*
X32674D02*
D03*
X30705D02*
D03*
X28737D02*
D03*
X26769D02*
D03*
X24800D02*
D03*
X22832D02*
D03*
X20863D02*
D03*
X18895D02*
D03*
X17714D02*
D03*
X15745D02*
D03*
X14564D02*
D03*
D66*
X93496Y141071D02*
D03*
X147252D02*
D03*
D67*
X105610Y112996D02*
D03*
X115453D02*
D03*
X125295D02*
D03*
X135138D02*
D03*
M02*
