G04*
G04 #@! TF.GenerationSoftware,Altium Limited,Altium Designer,21.2.1 (34)*
G04*
G04 Layer_Physical_Order=1*
G04 Layer_Color=255*
%FSLAX25Y25*%
%MOIN*%
G70*
G04*
G04 #@! TF.SameCoordinates,1518C732-DF2A-4DFD-9B87-9E54171A1C2B*
G04*
G04*
G04 #@! TF.FilePolarity,Positive*
G04*
G01*
G75*
%ADD10C,0.01000*%
%ADD14C,0.00800*%
%ADD17R,0.03800X0.03500*%
%ADD18R,0.03347X0.03150*%
%ADD19R,0.03500X0.03800*%
%ADD20R,0.03150X0.03347*%
%ADD21R,0.01772X0.03937*%
%ADD22R,0.03937X0.02953*%
%ADD23R,0.05906X0.07874*%
%ADD24R,0.02165X0.03937*%
%ADD25R,0.09055X0.06299*%
%ADD39C,0.01500*%
%ADD40C,0.02000*%
%ADD41C,0.01600*%
%ADD42C,0.02756*%
%ADD43C,0.08661*%
%ADD44O,0.04724X0.06693*%
%ADD45O,0.03937X0.07087*%
%ADD46C,0.02600*%
%ADD47C,0.01600*%
G36*
X150924Y148359D02*
X152192Y147975D01*
X153360Y147350D01*
X154384Y146510D01*
X155224Y145486D01*
X155849Y144318D01*
X156233Y143050D01*
X156361Y141746D01*
X156359Y141732D01*
Y128800D01*
X155550D01*
Y129200D01*
X152800D01*
X150050D01*
Y128800D01*
X144827D01*
X144374Y128347D01*
Y126874D01*
X144000Y126500D01*
X144000Y116815D01*
X143134D01*
Y113847D01*
X142634D01*
Y113347D01*
X140748D01*
Y110878D01*
X140261Y110846D01*
X139374D01*
Y128347D01*
X137874Y129847D01*
X115374Y129847D01*
X92874D01*
X89374Y133346D01*
X89374Y141889D01*
X89374Y148485D01*
X149606D01*
X149620Y148487D01*
X150924Y148359D01*
D02*
G37*
G36*
X21138Y117459D02*
X20918Y117231D01*
X20577Y116834D01*
X20456Y116664D01*
X20369Y116513D01*
X20315Y116381D01*
X20294Y116269D01*
X20306Y116175D01*
X20352Y116100D01*
X20430Y116044D01*
X19963Y116271D01*
X19224Y115502D01*
X18474Y116252D01*
X18492Y116263D01*
X18531Y116295D01*
X18671Y116422D01*
X18994Y116739D01*
X18524Y116966D01*
X18624Y116932D01*
X18733Y116921D01*
X18852Y116933D01*
X18979Y116969D01*
X19116Y117028D01*
X19262Y117110D01*
X19417Y117216D01*
X19582Y117345D01*
X19756Y117498D01*
X19938Y117674D01*
X21138Y117459D01*
D02*
G37*
G36*
X18639Y114050D02*
X18523Y114133D01*
X18386Y114175D01*
X18228Y114173D01*
X18048Y114130D01*
X17846Y114044D01*
X17624Y113915D01*
X17379Y113744D01*
X17113Y113531D01*
X16518Y112977D01*
X15457Y114038D01*
X15755Y114346D01*
X16224Y114899D01*
X16395Y115144D01*
X16523Y115367D01*
X16610Y115568D01*
X16653Y115748D01*
X16654Y115906D01*
X16613Y116043D01*
X16530Y116159D01*
X18639Y114050D01*
D02*
G37*
G36*
X42142Y111490D02*
X42154Y111368D01*
X42175Y111250D01*
X42203Y111138D01*
X42240Y111030D01*
X42285Y110927D01*
X42339Y110830D01*
X42400Y110737D01*
X42470Y110649D01*
X42548Y110566D01*
X40728D01*
X40806Y110649D01*
X40875Y110737D01*
X40937Y110830D01*
X40990Y110927D01*
X41035Y111030D01*
X41072Y111138D01*
X41101Y111250D01*
X41121Y111368D01*
X41134Y111490D01*
X41138Y111618D01*
X42138D01*
X42142Y111490D01*
D02*
G37*
G36*
X13039Y109483D02*
X12903Y109303D01*
X12819Y109144D01*
X12786Y109006D01*
X12805Y108889D01*
X12874Y108794D01*
X12995Y108720D01*
X13167Y108667D01*
X13390Y108635D01*
X13665Y108624D01*
X12165Y107124D01*
X11869Y107113D01*
X11582Y107082D01*
X11304Y107029D01*
X11035Y106954D01*
X10965Y106929D01*
X10774Y106859D01*
X10602Y106779D01*
X10523Y106742D01*
X10280Y106604D01*
X10046Y106445D01*
X9820Y106265D01*
X9604Y106063D01*
X9604Y106063D01*
X9604Y106063D01*
X9824Y108404D01*
X10884Y109465D01*
X13225Y109685D01*
X13225Y109685D01*
X13225Y109685D01*
X13039Y109483D01*
D02*
G37*
G36*
X7874Y148485D02*
X9372D01*
Y143975D01*
X8872Y143876D01*
X8642Y144430D01*
X8104Y145133D01*
X7401Y145671D01*
X6583Y146010D01*
X6206Y146060D01*
Y141750D01*
Y137441D01*
X6583Y137490D01*
X7401Y137829D01*
X8104Y138368D01*
X8642Y139071D01*
X8872Y139625D01*
X9372Y139525D01*
Y128996D01*
X8872Y128897D01*
X8799Y129074D01*
X8323Y129694D01*
X7703Y130170D01*
X6981Y130469D01*
X6706Y130506D01*
Y126002D01*
Y121499D01*
X6981Y121536D01*
X7703Y121835D01*
X8323Y122310D01*
X8799Y122931D01*
X8918Y123220D01*
X9313Y123212D01*
X9446Y123187D01*
X9596Y122962D01*
X9844Y122796D01*
X10137Y122738D01*
X45370D01*
X45663Y122796D01*
X45911Y122962D01*
X46060Y123186D01*
X46197Y123212D01*
X46588Y123218D01*
X46707Y122931D01*
X47183Y122310D01*
X47803Y121835D01*
X48525Y121536D01*
X48800Y121499D01*
Y126002D01*
Y130506D01*
X48525Y130469D01*
X47803Y130170D01*
X47183Y129694D01*
X46707Y129074D01*
X46635Y128899D01*
X46134Y128999D01*
Y139523D01*
X46635Y139622D01*
X46863Y139071D01*
X47402Y138368D01*
X48104Y137829D01*
X48922Y137490D01*
X49300Y137441D01*
Y141750D01*
Y146060D01*
X48922Y146010D01*
X48104Y145671D01*
X47402Y145133D01*
X46863Y144430D01*
X46635Y143878D01*
X46134Y143978D01*
Y148485D01*
X86874D01*
X86874Y132626D01*
X92200Y127300D01*
X136000D01*
X137100Y126200D01*
X137100Y110387D01*
X138915Y110387D01*
X139374Y110197D01*
X140261D01*
X140282Y110206D01*
X140303Y110198D01*
X140790Y110230D01*
X140996Y110331D01*
X141207Y110419D01*
X141216Y110440D01*
X141236Y110449D01*
X141310Y110666D01*
X141398Y110878D01*
Y111278D01*
X144120D01*
X144488Y110960D01*
Y110878D01*
X145874D01*
Y113847D01*
Y116815D01*
X145600D01*
Y125400D01*
X150050D01*
Y123300D01*
X152800D01*
X155550D01*
Y125400D01*
X156359D01*
Y7874D01*
X156361Y7860D01*
X156233Y6556D01*
X155849Y5288D01*
X155224Y4120D01*
X154384Y3096D01*
X153360Y2256D01*
X152192Y1632D01*
X150924Y1247D01*
X149620Y1119D01*
X149606Y1122D01*
X7874D01*
X7860Y1119D01*
X6556Y1247D01*
X5288Y1632D01*
X4120Y2256D01*
X3096Y3096D01*
X2256Y4120D01*
X1632Y5288D01*
X1247Y6556D01*
X1119Y7860D01*
X1122Y7874D01*
Y77466D01*
X1145Y77484D01*
X1622Y77647D01*
X2174Y77095D01*
Y75002D01*
X2141Y74942D01*
X2152Y74903D01*
X2137Y74866D01*
X2174Y74776D01*
Y74256D01*
X2653D01*
X2713Y74223D01*
X2713Y74223D01*
X2717Y74217D01*
X2748Y74134D01*
X2781Y74005D01*
X2807Y73832D01*
X2825Y73619D01*
X2831Y73352D01*
X2854Y73301D01*
Y71635D01*
X2831Y71586D01*
X2813Y71069D01*
X2794Y70887D01*
X2768Y70740D01*
X2752Y70675D01*
X2391D01*
Y70153D01*
X2354Y70063D01*
X2375Y70011D01*
X2363Y69957D01*
X2391Y69911D01*
Y66330D01*
X2373Y66305D01*
X2385Y66225D01*
X2354Y66150D01*
X2391Y66059D01*
Y65538D01*
X2626D01*
X2627Y65531D01*
X2672Y64908D01*
X2675Y64643D01*
X2698Y64589D01*
Y64225D01*
X2802Y63698D01*
X3101Y63252D01*
X3979Y62373D01*
X4426Y62075D01*
X4953Y61970D01*
X10676D01*
X11202Y62075D01*
X11649Y62373D01*
X12528Y63252D01*
X12826Y63698D01*
X12931Y64225D01*
Y64589D01*
X12954Y64643D01*
X12957Y64914D01*
X12981Y65360D01*
X12999Y65517D01*
X13002Y65538D01*
X13237D01*
Y66059D01*
X13274Y66150D01*
X13243Y66225D01*
X13256Y66305D01*
X13237Y66330D01*
Y70675D01*
X9897D01*
Y71075D01*
X8314D01*
Y68106D01*
X7314D01*
Y71075D01*
X5731D01*
X5630Y71533D01*
X5630Y71566D01*
X5607Y71621D01*
Y73300D01*
X5630Y73351D01*
X5636Y73618D01*
X5655Y73830D01*
X5683Y74001D01*
X5717Y74128D01*
X5750Y74208D01*
X5763Y74231D01*
X5801Y74235D01*
X5841Y74256D01*
X7174D01*
Y78956D01*
X4205D01*
X3850Y79311D01*
Y88906D01*
X7997D01*
Y89862D01*
X8013Y89866D01*
X8107Y89882D01*
X8232Y89893D01*
X8402Y89897D01*
X8464Y89925D01*
X9334D01*
X9396Y89897D01*
X9568Y89893D01*
X9696Y89882D01*
X9792Y89866D01*
X9801Y89864D01*
Y88872D01*
X14347D01*
Y93221D01*
X9801D01*
Y92229D01*
X9792Y92227D01*
X9696Y92211D01*
X9568Y92200D01*
X9396Y92196D01*
X9334Y92168D01*
X8464D01*
X8402Y92196D01*
X8232Y92200D01*
X8107Y92211D01*
X8013Y92227D01*
X7997Y92231D01*
Y93255D01*
X3850D01*
Y94254D01*
X5224D01*
Y96828D01*
Y99403D01*
X4537D01*
X4329Y99903D01*
X9977Y105551D01*
X10018Y105563D01*
X10028Y105581D01*
X10046Y105588D01*
X10245Y105773D01*
X10432Y105922D01*
X10623Y106052D01*
X10820Y106164D01*
X11023Y106258D01*
X11233Y106335D01*
X11451Y106395D01*
X11679Y106439D01*
X11916Y106465D01*
X12188Y106475D01*
X12237Y106498D01*
X16566D01*
X16617Y106475D01*
X16876Y106469D01*
X17067Y106453D01*
X17126Y106444D01*
X17170Y106435D01*
X17186Y106431D01*
X17195Y106426D01*
X17202Y106425D01*
X17222Y106417D01*
X17235Y106417D01*
X17733Y106084D01*
X18474Y105937D01*
X19215Y106084D01*
X19844Y106504D01*
X20264Y107133D01*
X20411Y107874D01*
X20264Y108615D01*
X19844Y109244D01*
X19215Y109664D01*
X18474Y109811D01*
X17733Y109664D01*
X17235Y109331D01*
X17222Y109331D01*
X17202Y109323D01*
X17195Y109322D01*
X17186Y109317D01*
X17170Y109313D01*
X17126Y109304D01*
X17073Y109296D01*
X16753Y109275D01*
X16625Y109273D01*
X16571Y109250D01*
X14384D01*
X14177Y109750D01*
X16909Y112483D01*
X16960Y112501D01*
X17538Y113039D01*
X17769Y113224D01*
X17972Y113367D01*
X18075Y113426D01*
X18577D01*
X18639Y113400D01*
X18689Y113421D01*
X18742Y113409D01*
X18770Y113426D01*
X21043D01*
Y116030D01*
X21071Y116154D01*
X21043Y116199D01*
Y116234D01*
X21044Y116258D01*
X21043Y116259D01*
Y116368D01*
X21089Y116434D01*
X21398Y116794D01*
X21604Y117007D01*
X21630Y117072D01*
X22810Y118253D01*
X38410D01*
X40516Y116146D01*
Y111700D01*
X40489Y111639D01*
X40485Y111533D01*
X40478Y111456D01*
X40465Y111387D01*
X40449Y111323D01*
X40430Y111266D01*
X40407Y111214D01*
X40380Y111165D01*
X40349Y111119D01*
X40314Y111074D01*
X40255Y111011D01*
X40234Y110957D01*
X39848Y110379D01*
X39701Y109638D01*
X39848Y108897D01*
X40268Y108268D01*
X40896Y107848D01*
X41638Y107701D01*
X42379Y107848D01*
X43008Y108268D01*
X43428Y108897D01*
X43575Y109638D01*
X43428Y110379D01*
X43041Y110957D01*
X43021Y111011D01*
X42962Y111074D01*
X42926Y111119D01*
X42895Y111165D01*
X42869Y111214D01*
X42846Y111266D01*
X42826Y111323D01*
X42810Y111387D01*
X42798Y111456D01*
X42790Y111533D01*
X42787Y111639D01*
X42759Y111700D01*
Y116610D01*
X42759Y116610D01*
X42674Y117039D01*
X42431Y117403D01*
X42431Y117403D01*
X39667Y120167D01*
X39303Y120410D01*
X38874Y120496D01*
X38874Y120496D01*
X22346D01*
X22346Y120496D01*
X21917Y120410D01*
X21553Y120167D01*
X21553Y120167D01*
X19599Y118214D01*
X19567Y118207D01*
X19538Y118161D01*
X19488Y118142D01*
X19316Y117976D01*
X19167Y117845D01*
X19034Y117741D01*
X18919Y117663D01*
X18827Y117611D01*
X18762Y117583D01*
X18747Y117578D01*
X18742D01*
X18736Y117580D01*
X18702Y117578D01*
X18334D01*
X18311Y117580D01*
X18309Y117578D01*
X15905D01*
Y116290D01*
X15888Y116262D01*
X15901Y116209D01*
X15880Y116159D01*
X15905Y116098D01*
Y115595D01*
X15847Y115493D01*
X15709Y115296D01*
X15273Y114783D01*
X14990Y114489D01*
X14969Y114436D01*
X10480Y109947D01*
X10425Y109924D01*
X9364Y108864D01*
X9341Y108808D01*
X1622Y101088D01*
X1145Y101251D01*
X1122Y101270D01*
Y112613D01*
X1332Y113026D01*
X1622Y113026D01*
X3801D01*
Y115502D01*
Y117979D01*
X1622D01*
X1332Y117979D01*
X1122Y118391D01*
Y141732D01*
X1119Y141746D01*
X1247Y143050D01*
X1632Y144318D01*
X2256Y145486D01*
X3096Y146510D01*
X4120Y147350D01*
X5288Y147975D01*
X6556Y148359D01*
X7860Y148487D01*
X7874Y148485D01*
D02*
G37*
G36*
X17546Y106964D02*
X17508Y106994D01*
X17459Y107022D01*
X17398Y107046D01*
X17324Y107066D01*
X17239Y107084D01*
X17142Y107098D01*
X16911Y107118D01*
X16632Y107124D01*
Y108624D01*
X16778Y108626D01*
X17142Y108650D01*
X17239Y108664D01*
X17324Y108682D01*
X17398Y108702D01*
X17459Y108726D01*
X17508Y108754D01*
X17546Y108784D01*
Y106964D01*
D02*
G37*
G36*
X10425Y90047D02*
X10415Y90141D01*
X10384Y90227D01*
X10334Y90302D01*
X10263Y90367D01*
X10172Y90421D01*
X10061Y90466D01*
X9929Y90501D01*
X9777Y90526D01*
X9605Y90541D01*
X9413Y90547D01*
Y91546D01*
X9605Y91552D01*
X9777Y91566D01*
X9929Y91592D01*
X10061Y91627D01*
X10172Y91672D01*
X10263Y91726D01*
X10334Y91791D01*
X10384Y91866D01*
X10415Y91952D01*
X10425Y92046D01*
Y90047D01*
D02*
G37*
G36*
X7395Y91952D02*
X7425Y91866D01*
X7475Y91791D01*
X7545Y91726D01*
X7635Y91672D01*
X7745Y91627D01*
X7875Y91592D01*
X8025Y91566D01*
X8195Y91552D01*
X8385Y91546D01*
Y90547D01*
X8195Y90541D01*
X8025Y90526D01*
X7875Y90501D01*
X7745Y90466D01*
X7635Y90421D01*
X7545Y90367D01*
X7475Y90302D01*
X7425Y90227D01*
X7395Y90141D01*
X7385Y90047D01*
Y92046D01*
X7395Y91952D01*
D02*
G37*
G36*
X5588Y74865D02*
X5460Y74819D01*
X5348Y74743D01*
X5250Y74637D01*
X5168Y74501D01*
X5100Y74335D01*
X5048Y74138D01*
X5010Y73912D01*
X4988Y73655D01*
X4980Y73368D01*
X3480D01*
X3473Y73653D01*
X3452Y73908D01*
X3418Y74133D01*
X3369Y74328D01*
X3307Y74493D01*
X3230Y74628D01*
X3140Y74733D01*
X3036Y74808D01*
X2918Y74853D01*
X2786Y74868D01*
X5730Y74880D01*
X5588Y74865D01*
D02*
G37*
G36*
X4982Y71278D02*
X5040Y70303D01*
X5061Y70198D01*
X5085Y70123D01*
X5113Y70078D01*
X5145Y70063D01*
X3003D01*
X3094Y70078D01*
X3175Y70123D01*
X3247Y70198D01*
X3309Y70303D01*
X3361Y70438D01*
X3404Y70603D01*
X3437Y70798D01*
X3461Y71023D01*
X3480Y71563D01*
X4980D01*
X4982Y71278D01*
D02*
G37*
G36*
X12564Y66135D02*
X12510Y66090D01*
X12461Y66015D01*
X12420Y65910D01*
X12385Y65775D01*
X12356Y65610D01*
X12333Y65415D01*
X12308Y64935D01*
X12304Y64650D01*
X10804D01*
X10801Y64935D01*
X10753Y65610D01*
X10724Y65775D01*
X10689Y65910D01*
X10647Y66015D01*
X10599Y66090D01*
X10545Y66135D01*
X10484Y66150D01*
X12625D01*
X12564Y66135D01*
D02*
G37*
G36*
X5084D02*
X5029Y66090D01*
X4981Y66015D01*
X4939Y65910D01*
X4904Y65775D01*
X4875Y65610D01*
X4853Y65415D01*
X4827Y64935D01*
X4824Y64650D01*
X3324D01*
X3321Y64935D01*
X3273Y65610D01*
X3244Y65775D01*
X3209Y65910D01*
X3167Y66015D01*
X3119Y66090D01*
X3064Y66135D01*
X3003Y66150D01*
X5145D01*
X5084Y66135D01*
D02*
G37*
%LPC*%
G36*
X155550Y132600D02*
X153300D01*
Y130200D01*
X155550D01*
Y132600D01*
D02*
G37*
G36*
X152300D02*
X150050D01*
Y130200D01*
X152300D01*
Y132600D01*
D02*
G37*
G36*
X142134Y116815D02*
X140748D01*
Y114347D01*
X142134D01*
Y116815D01*
D02*
G37*
G36*
X50300Y146060D02*
Y142250D01*
X53191D01*
Y142735D01*
X53076Y143612D01*
X52737Y144430D01*
X52198Y145133D01*
X51496Y145671D01*
X50678Y146010D01*
X50300Y146060D01*
D02*
G37*
G36*
X5206Y146060D02*
X4828Y146010D01*
X4010Y145671D01*
X3308Y145133D01*
X2769Y144430D01*
X2430Y143612D01*
X2314Y142735D01*
Y142250D01*
X5206D01*
Y146060D01*
D02*
G37*
G36*
X53191Y141250D02*
X50300D01*
Y137441D01*
X50678Y137490D01*
X51496Y137829D01*
X52198Y138368D01*
X52737Y139071D01*
X53076Y139888D01*
X53191Y140766D01*
Y141250D01*
D02*
G37*
G36*
X5206D02*
X2314D01*
Y140766D01*
X2430Y139888D01*
X2769Y139071D01*
X3308Y138368D01*
X4010Y137829D01*
X4828Y137490D01*
X5206Y137441D01*
Y141250D01*
D02*
G37*
G36*
X49800Y130506D02*
Y126502D01*
X52294D01*
Y127577D01*
X52192Y128352D01*
X51893Y129074D01*
X51417Y129694D01*
X50797Y130170D01*
X50075Y130469D01*
X49800Y130506D01*
D02*
G37*
G36*
X5706Y130506D02*
X5431Y130469D01*
X4709Y130170D01*
X4089Y129694D01*
X3613Y129074D01*
X3314Y128352D01*
X3212Y127577D01*
Y126502D01*
X5706D01*
Y130506D01*
D02*
G37*
G36*
X52294Y125502D02*
X49800D01*
Y121499D01*
X50075Y121536D01*
X50797Y121835D01*
X51417Y122310D01*
X51893Y122931D01*
X52192Y123653D01*
X52294Y124428D01*
Y125502D01*
D02*
G37*
G36*
X5706D02*
X3212D01*
Y124428D01*
X3314Y123653D01*
X3613Y122931D01*
X4089Y122310D01*
X4709Y121835D01*
X5431Y121536D01*
X5706Y121499D01*
Y125502D01*
D02*
G37*
G36*
X155550Y122300D02*
X153300D01*
Y119900D01*
X155550D01*
Y122300D01*
D02*
G37*
G36*
X152300D02*
X150050D01*
Y119900D01*
X152300D01*
Y122300D01*
D02*
G37*
G36*
X93374Y120092D02*
Y118347D01*
X95120D01*
X95041Y118744D01*
X94532Y119505D01*
X93771Y120013D01*
X93374Y120092D01*
D02*
G37*
G36*
X92374D02*
X91977Y120013D01*
X91216Y119505D01*
X90707Y118744D01*
X90628Y118347D01*
X92374D01*
Y120092D01*
D02*
G37*
G36*
X4801Y117979D02*
Y116002D01*
X7269D01*
Y117979D01*
X4801D01*
D02*
G37*
G36*
X95120Y117347D02*
X93374D01*
Y115601D01*
X93771Y115680D01*
X94532Y116188D01*
X95041Y116949D01*
X95120Y117347D01*
D02*
G37*
G36*
X92374D02*
X90628D01*
X90707Y116949D01*
X91216Y116188D01*
X91977Y115680D01*
X92374Y115601D01*
Y117347D01*
D02*
G37*
G36*
X7269Y115002D02*
X4801D01*
Y113026D01*
X7269D01*
Y115002D01*
D02*
G37*
G36*
X24874Y117234D02*
X24328Y117125D01*
X23865Y116816D01*
X23555Y116353D01*
X23447Y115806D01*
X23555Y115260D01*
X23865Y114797D01*
X24328Y114488D01*
X24746Y114404D01*
X24757Y114395D01*
X24771Y114381D01*
X24777Y114379D01*
X24782Y114375D01*
X24798Y114369D01*
X24803Y114367D01*
X24821Y114356D01*
X24840Y114342D01*
X24923Y114272D01*
X24970Y114226D01*
X25039Y114199D01*
X25716Y113522D01*
X26047Y113301D01*
X26437Y113224D01*
X27475D01*
X27539Y113194D01*
X27683Y113189D01*
X27718Y113185D01*
X27749Y113180D01*
X27769Y113175D01*
X27775Y113174D01*
X27790Y113166D01*
X27796Y113165D01*
X27803Y113163D01*
X27822Y113163D01*
X27836Y113162D01*
X28191Y112925D01*
X28737Y112816D01*
X29283Y112925D01*
X29746Y113234D01*
X30056Y113697D01*
X30164Y114243D01*
X30056Y114790D01*
X29746Y115253D01*
X29283Y115562D01*
X28737Y115671D01*
X28191Y115562D01*
X27836Y115325D01*
X27822Y115324D01*
X27803Y115324D01*
X27796Y115322D01*
X27790Y115321D01*
X27775Y115313D01*
X27769Y115311D01*
X27749Y115307D01*
X27726Y115303D01*
X27617Y115294D01*
X27552Y115293D01*
X27484Y115263D01*
X26859D01*
X26487Y115635D01*
X26463Y115701D01*
X26365Y115807D01*
X26343Y115834D01*
X26324Y115860D01*
X26314Y115877D01*
X26311Y115882D01*
X26306Y115899D01*
X26301Y115904D01*
X26299Y115910D01*
X26285Y115923D01*
X26276Y115934D01*
X26193Y116353D01*
X25883Y116816D01*
X25420Y117125D01*
X24874Y117234D01*
D02*
G37*
G36*
X148260Y116815D02*
X146874D01*
Y113847D01*
Y110878D01*
X148260D01*
Y110878D01*
X148654Y111215D01*
X148658Y111215D01*
X148816Y111176D01*
X149095Y110917D01*
Y109509D01*
X147952Y108366D01*
X65636D01*
X65572Y108395D01*
X65428Y108401D01*
X65393Y108405D01*
X65362Y108410D01*
X65342Y108414D01*
X65337Y108416D01*
X65321Y108424D01*
X65315Y108425D01*
X65308Y108427D01*
X65289Y108427D01*
X65275Y108428D01*
X64920Y108665D01*
X64374Y108774D01*
X63828Y108665D01*
X63365Y108356D01*
X63055Y107893D01*
X62947Y107346D01*
X63055Y106800D01*
X63365Y106337D01*
X63828Y106028D01*
X64374Y105919D01*
X64920Y106028D01*
X65275Y106265D01*
X65289Y106266D01*
X65308Y106266D01*
X65315Y106268D01*
X65321Y106269D01*
X65337Y106277D01*
X65342Y106279D01*
X65362Y106283D01*
X65385Y106287D01*
X65494Y106296D01*
X65559Y106297D01*
X65627Y106327D01*
X148374D01*
X148764Y106404D01*
X149095Y106625D01*
X150835Y108366D01*
X151056Y108696D01*
X151134Y109087D01*
Y111006D01*
X151163Y111073D01*
X151167Y111205D01*
X151173Y111278D01*
X151600D01*
Y116415D01*
X148760D01*
X148628Y116415D01*
X148260Y116732D01*
Y116815D01*
D02*
G37*
G36*
X51555Y104825D02*
X51555Y104825D01*
X19082D01*
X19082Y104825D01*
X18653Y104740D01*
X18289Y104497D01*
X18289Y104497D01*
X13355Y99563D01*
X13293Y99540D01*
X12915Y99189D01*
X12774Y99076D01*
X12653Y98992D01*
X12613Y98969D01*
X12411D01*
X12321Y99007D01*
X12272Y98986D01*
X12220Y98999D01*
X12172Y98969D01*
X9801D01*
Y94620D01*
X14347D01*
Y96794D01*
X14377Y96842D01*
X14364Y96894D01*
X14385Y96943D01*
X14347Y97034D01*
Y97235D01*
X14370Y97275D01*
X14449Y97388D01*
X14726Y97716D01*
X14910Y97906D01*
X14935Y97971D01*
X19546Y102582D01*
X51091D01*
X53193Y100480D01*
X53217Y100417D01*
X53291Y100339D01*
X53347Y100273D01*
X53395Y100208D01*
X53438Y100144D01*
X53475Y100080D01*
X53506Y100015D01*
X53532Y99950D01*
X53554Y99885D01*
X53572Y99818D01*
X53588Y99727D01*
X53659Y99619D01*
X53722Y99303D01*
X54142Y98674D01*
X54770Y98254D01*
X55512Y98107D01*
X56253Y98254D01*
X56882Y98674D01*
X57302Y99303D01*
X57449Y100044D01*
X57302Y100785D01*
X56882Y101414D01*
X56253Y101834D01*
X55512Y101981D01*
X55311Y101941D01*
X55209Y101969D01*
X55133Y101960D01*
X55092Y101959D01*
X55055Y101962D01*
X55019Y101969D01*
X54981Y101981D01*
X54940Y101998D01*
X54894Y102023D01*
X54844Y102057D01*
X54788Y102101D01*
X54712Y102172D01*
X54667Y102189D01*
X54641Y102229D01*
X54609Y102237D01*
X52348Y104497D01*
X51984Y104740D01*
X51555Y104825D01*
D02*
G37*
G36*
X144120Y105415D02*
X141148D01*
Y103905D01*
X141078Y103899D01*
X140943Y103896D01*
X140877Y103866D01*
X137191D01*
X137125Y103896D01*
X136990Y103899D01*
X136920Y103905D01*
Y105021D01*
X132373D01*
Y100672D01*
X136920D01*
Y101788D01*
X136990Y101794D01*
X137125Y101797D01*
X137191Y101827D01*
X140877D01*
X140943Y101797D01*
X141078Y101794D01*
X141148Y101788D01*
Y100278D01*
X144120D01*
Y105415D01*
D02*
G37*
G36*
X152000Y105815D02*
X150614D01*
Y103347D01*
X152000D01*
Y105815D01*
D02*
G37*
G36*
Y102347D02*
X150614D01*
Y99878D01*
X152000D01*
Y102347D01*
D02*
G37*
G36*
X149614Y105815D02*
X148228D01*
Y105732D01*
X147860Y105415D01*
X147728Y105415D01*
X144888D01*
Y101033D01*
X144857Y100980D01*
X144869Y100934D01*
X144851Y100890D01*
X144888Y100800D01*
Y100278D01*
X145200D01*
X145221Y100043D01*
X145225Y99877D01*
X145253Y99814D01*
Y97974D01*
X144455Y97177D01*
X144451Y97176D01*
X144437Y97159D01*
X144378Y97100D01*
X144313Y97074D01*
X144059Y96826D01*
X143617Y96437D01*
X143446Y96308D01*
X143303Y96213D01*
X143202Y96159D01*
X143044D01*
X142929Y96193D01*
X142871Y96162D01*
X142805Y96168D01*
X142795Y96159D01*
X140174D01*
Y94992D01*
X140166Y94990D01*
X140069Y94974D01*
X139942Y94963D01*
X139769Y94959D01*
X139707Y94931D01*
X139324D01*
X139264Y94959D01*
X139091Y94965D01*
X138950Y94980D01*
X138815Y95006D01*
X138686Y95042D01*
X138563Y95087D01*
X138444Y95142D01*
X138328Y95208D01*
X138214Y95285D01*
X138103Y95374D01*
X137976Y95492D01*
X137914Y95515D01*
X137513Y95916D01*
X137490Y95978D01*
X137136Y96359D01*
X137022Y96501D01*
X136936Y96624D01*
X136920Y96651D01*
Y96888D01*
X136945Y96950D01*
X136924Y97000D01*
X136937Y97053D01*
X136920Y97081D01*
Y99273D01*
X132373D01*
Y94924D01*
X134762D01*
X134790Y94907D01*
X134843Y94919D01*
X134894Y94898D01*
X134955Y94924D01*
X135192D01*
X135220Y94908D01*
X135335Y94827D01*
X135665Y94546D01*
X135856Y94362D01*
X135921Y94336D01*
X136328Y93929D01*
X136351Y93867D01*
X136469Y93740D01*
X136558Y93629D01*
X136635Y93515D01*
X136701Y93400D01*
X136757Y93280D01*
X136802Y93157D01*
X136837Y93028D01*
X136863Y92894D01*
X136879Y92752D01*
X136885Y92579D01*
X136912Y92519D01*
Y84666D01*
X136912Y84666D01*
X136998Y84237D01*
X137241Y83873D01*
X143378Y77736D01*
Y69287D01*
X143351Y69225D01*
X143346Y69053D01*
X143335Y68926D01*
X143319Y68830D01*
X143317Y68820D01*
X141325D01*
Y64273D01*
X142315D01*
X142320Y64257D01*
X142335Y64163D01*
X142346Y64038D01*
X142351Y63868D01*
X142378Y63806D01*
Y51465D01*
X137382Y46468D01*
X103479D01*
X103413Y46496D01*
X103049Y46498D01*
X102269Y46524D01*
X102229Y46535D01*
X102172Y46554D01*
X102119Y46577D01*
X102071Y46604D01*
X102024Y46635D01*
X101980Y46670D01*
X101917Y46729D01*
X101863Y46750D01*
X101285Y47136D01*
X100543Y47283D01*
X99802Y47136D01*
X99173Y46716D01*
X98753Y46088D01*
X98698Y45808D01*
X93868Y40978D01*
X35550D01*
X26398Y50130D01*
X25868Y50484D01*
X25244Y50608D01*
X14747D01*
X14707Y50626D01*
X14347Y50635D01*
X14051Y50661D01*
X13808Y50702D01*
X13618Y50753D01*
X13484Y50808D01*
X13404Y50857D01*
X13367Y50890D01*
X13355Y50909D01*
X13347Y50930D01*
X13336Y51044D01*
X13302Y51107D01*
Y51932D01*
X13319Y51956D01*
X13307Y52039D01*
X13339Y52117D01*
X13302Y52206D01*
Y52726D01*
X13061D01*
X13054Y52768D01*
X13007Y53436D01*
X13004Y53721D01*
X12982Y53773D01*
Y54251D01*
X13004Y54301D01*
X13014Y54860D01*
X13044Y55269D01*
X13048Y55302D01*
X13237D01*
Y55823D01*
X13274Y55914D01*
X13237Y56004D01*
Y56018D01*
X13245Y56107D01*
X13237Y56116D01*
Y60439D01*
X9872D01*
Y56116D01*
X9864Y56107D01*
X9872Y56018D01*
Y56004D01*
X9834Y55914D01*
X9872Y55823D01*
Y55302D01*
X10051D01*
X10102Y54591D01*
X10105Y54308D01*
X10127Y54256D01*
Y53780D01*
X10105Y53731D01*
X10098Y53445D01*
X10078Y53216D01*
X10047Y53031D01*
X10009Y52891D01*
X9972Y52799D01*
X9945Y52754D01*
X9883Y52747D01*
X9844Y52726D01*
X3046D01*
Y45227D01*
X13302D01*
Y46846D01*
X13336Y46908D01*
X13347Y47022D01*
X13355Y47044D01*
X13367Y47063D01*
X13404Y47096D01*
X13484Y47145D01*
X13618Y47200D01*
X13808Y47251D01*
X14051Y47292D01*
X14347Y47318D01*
X14707Y47327D01*
X14747Y47345D01*
X24568D01*
X33720Y38193D01*
X34250Y37839D01*
X34874Y37715D01*
X94543D01*
X95168Y37839D01*
X95697Y38193D01*
X101005Y43501D01*
X101285Y43556D01*
X101863Y43943D01*
X101917Y43963D01*
X101980Y44022D01*
X102024Y44058D01*
X102071Y44089D01*
X102119Y44115D01*
X102166Y44136D01*
X103060Y44195D01*
X103413Y44197D01*
X103479Y44225D01*
X137846D01*
X137846Y44225D01*
X138275Y44310D01*
X138639Y44553D01*
X139243Y45157D01*
X139743Y44949D01*
Y36568D01*
X146848D01*
Y43750D01*
X146878Y43798D01*
X146865Y43850D01*
X146886Y43899D01*
X146848Y43989D01*
Y44085D01*
X146854Y44095D01*
X146910Y44176D01*
X147125Y44431D01*
X147269Y44579D01*
X147296Y44649D01*
X153854Y51206D01*
X154075Y51537D01*
X154153Y51928D01*
Y55853D01*
X154182Y55917D01*
X154188Y56061D01*
X154192Y56096D01*
X154197Y56127D01*
X154201Y56147D01*
X154203Y56152D01*
X154211Y56168D01*
X154211Y56174D01*
X154214Y56180D01*
X154214Y56199D01*
X154215Y56214D01*
X154452Y56568D01*
X154561Y57115D01*
X154452Y57661D01*
X154215Y58016D01*
X154214Y58030D01*
X154214Y58049D01*
X154211Y58055D01*
X154211Y58062D01*
X154203Y58077D01*
X154201Y58083D01*
X154197Y58103D01*
X154193Y58126D01*
X154184Y58234D01*
X154183Y58300D01*
X154153Y58368D01*
Y62563D01*
X154075Y62953D01*
X153854Y63284D01*
X151877Y65261D01*
X151852Y65327D01*
X151575Y65626D01*
X151490Y65732D01*
X151428Y65821D01*
X151423Y65830D01*
Y65926D01*
X151460Y66017D01*
X151440Y66066D01*
X151452Y66118D01*
X151423Y66166D01*
Y68820D01*
X150307D01*
X150301Y68890D01*
X150297Y69024D01*
X150268Y69091D01*
Y79235D01*
X150190Y79626D01*
X149969Y79956D01*
X147328Y82598D01*
X147519Y83060D01*
X149074D01*
Y85309D01*
X146674D01*
Y83905D01*
X146212Y83713D01*
X145627Y84298D01*
X145603Y84364D01*
X145310Y84679D01*
X145219Y84790D01*
X145174Y84854D01*
Y84933D01*
X145194Y84967D01*
X145179Y85022D01*
X145199Y85076D01*
X145174Y85131D01*
Y88160D01*
X140174D01*
Y84765D01*
X139712Y84574D01*
X139155Y85131D01*
Y92125D01*
X139157Y92127D01*
X139155Y92143D01*
Y92219D01*
X139182Y92275D01*
X139190Y92426D01*
X139205Y92510D01*
X139222Y92561D01*
X139236Y92586D01*
X139245Y92598D01*
X139257Y92607D01*
X139282Y92621D01*
X139334Y92638D01*
X139418Y92653D01*
X139568Y92661D01*
X139625Y92688D01*
X139701D01*
X139709Y92687D01*
X139769Y92660D01*
X139942Y92656D01*
X140069Y92645D01*
X140166Y92629D01*
X140174Y92627D01*
Y91460D01*
X145174D01*
Y94171D01*
X145210Y94246D01*
X145192Y94298D01*
X145208Y94352D01*
X145174Y94414D01*
Y94589D01*
X145178Y94596D01*
X145259Y94712D01*
X145546Y95049D01*
X145736Y95246D01*
X145762Y95311D01*
X146212Y95761D01*
X146674Y95570D01*
Y94310D01*
X149074D01*
Y96560D01*
X147664D01*
X147396Y97060D01*
X147410Y97080D01*
X147496Y97509D01*
X147496Y97509D01*
Y99799D01*
X147500Y99824D01*
X147523Y99877D01*
X147524Y99918D01*
X147771Y100063D01*
X148228Y99878D01*
Y99878D01*
X149614D01*
Y102847D01*
Y105815D01*
D02*
G37*
G36*
X129374Y100620D02*
Y98874D01*
X131120D01*
X131041Y99271D01*
X130532Y100032D01*
X129771Y100541D01*
X129374Y100620D01*
D02*
G37*
G36*
X128374D02*
X127977Y100541D01*
X127216Y100032D01*
X126707Y99271D01*
X126628Y98874D01*
X128374D01*
Y100620D01*
D02*
G37*
G36*
X48374D02*
Y98874D01*
X50120D01*
X50041Y99271D01*
X49532Y100032D01*
X48771Y100541D01*
X48374Y100620D01*
D02*
G37*
G36*
X47374D02*
X46977Y100541D01*
X46216Y100032D01*
X45707Y99271D01*
X45628Y98874D01*
X47374D01*
Y100620D01*
D02*
G37*
G36*
X8397Y99403D02*
X6224D01*
Y97328D01*
X8397D01*
Y99403D01*
D02*
G37*
G36*
X60874Y112274D02*
X60328Y112165D01*
X59865Y111856D01*
X59555Y111393D01*
X59447Y110846D01*
X59555Y110300D01*
X59792Y109945D01*
X59794Y109931D01*
X59793Y109912D01*
X59796Y109906D01*
X59797Y109899D01*
X59804Y109884D01*
X59806Y109878D01*
X59811Y109859D01*
X59815Y109835D01*
X59824Y109727D01*
X59825Y109662D01*
X59854Y109593D01*
Y100347D01*
X59932Y99956D01*
X60153Y99625D01*
X62653Y97126D01*
X62984Y96904D01*
X63038Y96894D01*
X62989Y96394D01*
X49882D01*
X49651Y96894D01*
X50041Y97477D01*
X50120Y97874D01*
X45628D01*
X45707Y97477D01*
X46097Y96894D01*
X45867Y96394D01*
X33644D01*
X32319Y97719D01*
X32294Y97785D01*
X32196Y97890D01*
X32174Y97918D01*
X32156Y97943D01*
X32145Y97960D01*
X32142Y97965D01*
X32137Y97982D01*
X32133Y97987D01*
X32130Y97993D01*
X32117Y98007D01*
X32107Y98018D01*
X32024Y98436D01*
X31715Y98899D01*
X31252Y99208D01*
X30705Y99317D01*
X30159Y99208D01*
X29696Y98899D01*
X29387Y98436D01*
X29278Y97890D01*
X29387Y97343D01*
X29696Y96880D01*
X30159Y96571D01*
X30578Y96488D01*
X30589Y96479D01*
X30602Y96465D01*
X30608Y96462D01*
X30613Y96458D01*
X30630Y96453D01*
X30635Y96450D01*
X30652Y96439D01*
X30671Y96426D01*
X30754Y96355D01*
X30801Y96310D01*
X30871Y96283D01*
X32260Y94894D01*
X32053Y94394D01*
X29738D01*
X26413Y97719D01*
X26389Y97785D01*
X26291Y97890D01*
X26269Y97918D01*
X26250Y97943D01*
X26240Y97960D01*
X26237Y97965D01*
X26232Y97982D01*
X26228Y97987D01*
X26225Y97993D01*
X26211Y98007D01*
X26202Y98018D01*
X26119Y98436D01*
X25809Y98899D01*
X25346Y99208D01*
X24800Y99317D01*
X24254Y99208D01*
X23791Y98899D01*
X23481Y98436D01*
X23373Y97890D01*
X23481Y97343D01*
X23791Y96880D01*
X24254Y96571D01*
X24672Y96488D01*
X24683Y96479D01*
X24697Y96465D01*
X24703Y96462D01*
X24708Y96458D01*
X24724Y96453D01*
X24730Y96450D01*
X24747Y96439D01*
X24766Y96426D01*
X24849Y96355D01*
X24896Y96310D01*
X24965Y96283D01*
X28595Y92653D01*
X28926Y92432D01*
X29316Y92354D01*
X31546D01*
X31698Y91854D01*
X31216Y91532D01*
X30707Y90771D01*
X30628Y90374D01*
X35120D01*
X35041Y90771D01*
X34532Y91532D01*
X34050Y91854D01*
X34202Y92354D01*
X63739D01*
X63788Y91854D01*
X63456Y91788D01*
X63125Y91567D01*
X62045Y90487D01*
X61979Y90463D01*
X61873Y90365D01*
X61846Y90343D01*
X61821Y90324D01*
X61803Y90314D01*
X61798Y90311D01*
X61782Y90306D01*
X61777Y90301D01*
X61771Y90299D01*
X61757Y90285D01*
X61746Y90276D01*
X61328Y90193D01*
X60865Y89883D01*
X60555Y89420D01*
X60447Y88874D01*
X60555Y88328D01*
X60865Y87865D01*
X61083Y87719D01*
Y87133D01*
X60865Y86987D01*
X60555Y86524D01*
X60447Y85978D01*
X60555Y85431D01*
X60591Y85378D01*
X60324Y84878D01*
X19760D01*
X19696Y84907D01*
X19552Y84913D01*
X19517Y84917D01*
X19486Y84922D01*
X19466Y84926D01*
X19461Y84928D01*
X19445Y84936D01*
X19439Y84936D01*
X19433Y84939D01*
X19414Y84939D01*
X19399Y84940D01*
X19045Y85177D01*
X18498Y85286D01*
X17952Y85177D01*
X17489Y84868D01*
X17179Y84404D01*
X17071Y83858D01*
X17179Y83312D01*
X17489Y82849D01*
X17952Y82539D01*
X17958Y82538D01*
Y82029D01*
X17952Y82027D01*
X17489Y81718D01*
X17179Y81255D01*
X17071Y80709D01*
X17179Y80162D01*
X17489Y79699D01*
X17952Y79390D01*
X17958Y79389D01*
Y78879D01*
X17952Y78878D01*
X17489Y78568D01*
X17179Y78105D01*
X17071Y77559D01*
X17179Y77013D01*
X17489Y76550D01*
X17952Y76240D01*
X17958Y76239D01*
Y75729D01*
X17952Y75728D01*
X17489Y75419D01*
X17179Y74956D01*
X17071Y74410D01*
X17179Y73863D01*
X17489Y73400D01*
X17952Y73091D01*
X17958Y73089D01*
Y72580D01*
X17952Y72579D01*
X17489Y72269D01*
X17179Y71806D01*
X17071Y71260D01*
X17179Y70714D01*
X17489Y70250D01*
X17952Y69941D01*
X17958Y69940D01*
Y69430D01*
X17952Y69429D01*
X17489Y69120D01*
X17179Y68656D01*
X17071Y68110D01*
X17179Y67564D01*
X17489Y67101D01*
X17952Y66791D01*
X17958Y66790D01*
Y66281D01*
X17952Y66279D01*
X17489Y65970D01*
X17179Y65507D01*
X17071Y64961D01*
X17179Y64414D01*
X17489Y63951D01*
X17952Y63642D01*
X17958Y63641D01*
Y63131D01*
X17952Y63130D01*
X17489Y62820D01*
X17179Y62357D01*
X17071Y61811D01*
X17179Y61265D01*
X17489Y60802D01*
X17952Y60492D01*
X18498Y60384D01*
X19045Y60492D01*
X19508Y60802D01*
X19817Y61265D01*
X19861Y61484D01*
X19869Y61492D01*
X72336D01*
X72603Y60992D01*
X72555Y60920D01*
X72447Y60374D01*
X72555Y59828D01*
X72865Y59365D01*
X73328Y59055D01*
X73874Y58947D01*
X74420Y59055D01*
X74775Y59292D01*
X74789Y59294D01*
X74809Y59293D01*
X74815Y59296D01*
X74821Y59297D01*
X74836Y59304D01*
X74842Y59306D01*
X74862Y59311D01*
X74885Y59315D01*
X74993Y59324D01*
X75059Y59325D01*
X75127Y59354D01*
X81952D01*
X88943Y52363D01*
Y46118D01*
X88914Y46054D01*
X88908Y45910D01*
X88904Y45875D01*
X88899Y45844D01*
X88895Y45824D01*
X88893Y45819D01*
X88885Y45803D01*
X88885Y45797D01*
X88882Y45791D01*
X88882Y45772D01*
X88881Y45757D01*
X88644Y45403D01*
X88535Y44856D01*
X88644Y44310D01*
X88953Y43847D01*
X89416Y43538D01*
X89963Y43429D01*
X90509Y43538D01*
X90972Y43847D01*
X91281Y44310D01*
X91390Y44856D01*
X91281Y45403D01*
X91044Y45757D01*
X91043Y45772D01*
X91043Y45791D01*
X91041Y45797D01*
X91040Y45803D01*
X91032Y45819D01*
X91030Y45824D01*
X91026Y45844D01*
X91022Y45867D01*
X91013Y45976D01*
X91012Y46041D01*
X90982Y46109D01*
Y52785D01*
X90905Y53176D01*
X90684Y53506D01*
X83591Y60599D01*
X83613Y60752D01*
X83788Y61110D01*
X84208Y61193D01*
X84671Y61502D01*
X84980Y61966D01*
X85089Y62512D01*
X85053Y62689D01*
X85479Y63114D01*
X85630Y63084D01*
X86176Y63193D01*
X86639Y63503D01*
X86949Y63966D01*
X87057Y64512D01*
X87042Y64590D01*
X87467Y65015D01*
X87566Y64995D01*
X87717Y65026D01*
X88142Y64600D01*
X88107Y64423D01*
X88216Y63877D01*
X88525Y63414D01*
X88988Y63104D01*
X89534Y62995D01*
X89685Y63026D01*
X90111Y62600D01*
X90075Y62423D01*
X90184Y61877D01*
X90493Y61414D01*
X90956Y61104D01*
X91503Y60996D01*
X91654Y61026D01*
X92079Y60600D01*
X92044Y60423D01*
X92153Y59877D01*
X92462Y59414D01*
X92925Y59104D01*
X93471Y58995D01*
X94017Y59104D01*
X94481Y59414D01*
X94790Y59877D01*
X94899Y60423D01*
X94790Y60969D01*
X94553Y61324D01*
X94552Y61338D01*
X94552Y61357D01*
X94549Y61364D01*
X94549Y61370D01*
X94541Y61386D01*
X94539Y61391D01*
X94535Y61411D01*
X94531Y61434D01*
X94522Y61542D01*
X94521Y61608D01*
X94491Y61676D01*
Y68749D01*
X94413Y69139D01*
X94367Y69208D01*
X94756Y69527D01*
X112641Y51641D01*
X112972Y51420D01*
X113362Y51343D01*
X139112D01*
X139176Y51313D01*
X139320Y51308D01*
X139355Y51304D01*
X139386Y51299D01*
X139406Y51294D01*
X139411Y51293D01*
X139427Y51285D01*
X139433Y51284D01*
X139439Y51282D01*
X139459Y51282D01*
X139473Y51280D01*
X139828Y51043D01*
X140374Y50935D01*
X140920Y51043D01*
X141383Y51353D01*
X141693Y51816D01*
X141801Y52362D01*
X141693Y52908D01*
X141383Y53372D01*
X140920Y53681D01*
X140915Y53682D01*
Y54192D01*
X140920Y54193D01*
X141383Y54502D01*
X141693Y54966D01*
X141801Y55512D01*
X141693Y56058D01*
X141383Y56521D01*
X140920Y56831D01*
X140915Y56832D01*
Y57341D01*
X140920Y57343D01*
X141383Y57652D01*
X141693Y58115D01*
X141801Y58661D01*
X141693Y59208D01*
X141383Y59671D01*
X140920Y59980D01*
X140915Y59981D01*
Y60491D01*
X140920Y60492D01*
X141383Y60802D01*
X141693Y61265D01*
X141801Y61811D01*
X141693Y62357D01*
X141383Y62820D01*
X140920Y63130D01*
X140374Y63239D01*
X139828Y63130D01*
X139473Y62893D01*
X139459Y62892D01*
X139439Y62892D01*
X139433Y62889D01*
X139427Y62889D01*
X139411Y62880D01*
X139406Y62879D01*
X139386Y62874D01*
X139363Y62871D01*
X139254Y62862D01*
X139189Y62860D01*
X139121Y62831D01*
X114832D01*
X107847Y69816D01*
X108093Y70277D01*
X108275Y70240D01*
X139112D01*
X139176Y70211D01*
X139320Y70205D01*
X139355Y70202D01*
X139386Y70197D01*
X139406Y70192D01*
X139411Y70190D01*
X139427Y70182D01*
X139433Y70182D01*
X139439Y70179D01*
X139459Y70179D01*
X139473Y70178D01*
X139828Y69941D01*
X140374Y69832D01*
X140920Y69941D01*
X141383Y70250D01*
X141693Y70714D01*
X141801Y71260D01*
X141693Y71806D01*
X141383Y72269D01*
X140920Y72579D01*
X140915Y72580D01*
Y73090D01*
X140920Y73091D01*
X141383Y73400D01*
X141693Y73863D01*
X141801Y74410D01*
X141693Y74956D01*
X141383Y75419D01*
X140920Y75728D01*
X140915Y75729D01*
Y76239D01*
X140920Y76240D01*
X141383Y76550D01*
X141693Y77013D01*
X141801Y77559D01*
X141693Y78105D01*
X141383Y78568D01*
X140920Y78878D01*
X140374Y78987D01*
X139828Y78878D01*
X139473Y78641D01*
X139459Y78640D01*
X139439Y78640D01*
X139433Y78637D01*
X139427Y78637D01*
X139411Y78629D01*
X139406Y78627D01*
X139386Y78622D01*
X139363Y78619D01*
X139254Y78610D01*
X139189Y78608D01*
X139121Y78579D01*
X110336D01*
X95117Y93797D01*
X95093Y93863D01*
X94995Y93969D01*
X94973Y93996D01*
X94954Y94022D01*
X94943Y94039D01*
X94941Y94044D01*
X94936Y94061D01*
X94931Y94066D01*
X94929Y94072D01*
X94915Y94085D01*
X94906Y94096D01*
X94823Y94515D01*
X94513Y94978D01*
X94050Y95287D01*
X93504Y95396D01*
X92958Y95287D01*
X92495Y94978D01*
X92185Y94515D01*
X92076Y93968D01*
X92112Y93791D01*
X91686Y93366D01*
X91535Y93396D01*
X90989Y93287D01*
X90526Y92978D01*
X90217Y92515D01*
X90108Y91969D01*
X90143Y91791D01*
X89718Y91366D01*
X89567Y91396D01*
X89021Y91287D01*
X88558Y90978D01*
X88248Y90515D01*
X88183Y90187D01*
X87662Y90000D01*
X84719Y92943D01*
X84720Y92950D01*
X84725Y92981D01*
X84729Y93001D01*
X84731Y93006D01*
X84739Y93021D01*
X84740Y93028D01*
X84742Y93034D01*
X84742Y93053D01*
X84743Y93068D01*
X84980Y93422D01*
X85089Y93968D01*
X84980Y94515D01*
X84671Y94978D01*
X84345Y95196D01*
X84201Y95759D01*
X85296Y96854D01*
X104612D01*
X104676Y96825D01*
X104820Y96820D01*
X104855Y96816D01*
X104886Y96811D01*
X104906Y96806D01*
X104911Y96804D01*
X104927Y96797D01*
X104933Y96796D01*
X104939Y96793D01*
X104959Y96794D01*
X104973Y96792D01*
X105328Y96555D01*
X105874Y96447D01*
X106420Y96555D01*
X106883Y96865D01*
X107193Y97328D01*
X107301Y97874D01*
X107193Y98420D01*
X106883Y98883D01*
X106420Y99193D01*
X105874Y99301D01*
X105328Y99193D01*
X104973Y98956D01*
X104959Y98954D01*
X104939Y98955D01*
X104933Y98952D01*
X104927Y98952D01*
X104911Y98944D01*
X104906Y98942D01*
X104886Y98937D01*
X104863Y98934D01*
X104754Y98925D01*
X104689Y98923D01*
X104621Y98894D01*
X103578D01*
X103436Y99237D01*
X103403Y99394D01*
X103693Y99828D01*
X103801Y100374D01*
X103693Y100920D01*
X103383Y101383D01*
X102920Y101693D01*
X102374Y101801D01*
X101828Y101693D01*
X101473Y101456D01*
X101459Y101454D01*
X101439Y101455D01*
X101433Y101452D01*
X101427Y101452D01*
X101411Y101444D01*
X101406Y101442D01*
X101386Y101437D01*
X101363Y101434D01*
X101254Y101425D01*
X101189Y101423D01*
X101121Y101394D01*
X84874D01*
X84484Y101316D01*
X84153Y101095D01*
X74722Y91664D01*
X74316Y91956D01*
X74394Y92347D01*
Y95346D01*
X74316Y95737D01*
X74095Y96067D01*
X71595Y98567D01*
X71264Y98788D01*
X70874Y98866D01*
X63796D01*
X61894Y100769D01*
Y109585D01*
X61923Y109649D01*
X61928Y109793D01*
X61932Y109827D01*
X61937Y109859D01*
X61942Y109878D01*
X61944Y109884D01*
X61952Y109899D01*
X61952Y109906D01*
X61955Y109912D01*
X61954Y109931D01*
X61956Y109945D01*
X62193Y110300D01*
X62301Y110846D01*
X62193Y111393D01*
X61883Y111856D01*
X61420Y112165D01*
X60874Y112274D01*
D02*
G37*
G36*
X131120Y97874D02*
X129374D01*
Y96128D01*
X129771Y96207D01*
X130532Y96716D01*
X131041Y97477D01*
X131120Y97874D01*
D02*
G37*
G36*
X128374D02*
X126628D01*
X126707Y97477D01*
X127216Y96716D01*
X127977Y96207D01*
X128374Y96128D01*
Y97874D01*
D02*
G37*
G36*
X152474Y96560D02*
X150074D01*
Y94310D01*
X152474D01*
Y96560D01*
D02*
G37*
G36*
X8397Y96328D02*
X6224D01*
Y94254D01*
X8397D01*
Y96328D01*
D02*
G37*
G36*
X152474Y93309D02*
X150074D01*
Y91059D01*
X152474D01*
Y93309D01*
D02*
G37*
G36*
X149074D02*
X146674D01*
Y91059D01*
X149074D01*
Y93309D01*
D02*
G37*
G36*
X122374Y91120D02*
Y89374D01*
X124120D01*
X124041Y89771D01*
X123532Y90532D01*
X122771Y91041D01*
X122374Y91120D01*
D02*
G37*
G36*
X121374D02*
X120977Y91041D01*
X120216Y90532D01*
X119708Y89771D01*
X119628Y89374D01*
X121374D01*
Y91120D01*
D02*
G37*
G36*
X133858Y92568D02*
X133087Y92414D01*
X132432Y91977D01*
X131995Y91323D01*
X131842Y90551D01*
X131995Y89779D01*
X132432Y89125D01*
X133087Y88688D01*
X133858Y88534D01*
X134630Y88688D01*
X135284Y89125D01*
X135722Y89779D01*
X135875Y90551D01*
X135722Y91323D01*
X135284Y91977D01*
X134630Y92414D01*
X133858Y92568D01*
D02*
G37*
G36*
X23622D02*
X22850Y92414D01*
X22196Y91977D01*
X21759Y91323D01*
X21605Y90551D01*
X21759Y89779D01*
X22196Y89125D01*
X22850Y88688D01*
X23622Y88534D01*
X24394Y88688D01*
X25048Y89125D01*
X25485Y89779D01*
X25639Y90551D01*
X25485Y91323D01*
X25048Y91977D01*
X24394Y92414D01*
X23622Y92568D01*
D02*
G37*
G36*
X35120Y89374D02*
X33374D01*
Y87628D01*
X33771Y87708D01*
X34532Y88216D01*
X35041Y88977D01*
X35120Y89374D01*
D02*
G37*
G36*
X32374D02*
X30628D01*
X30707Y88977D01*
X31216Y88216D01*
X31977Y87708D01*
X32374Y87628D01*
Y89374D01*
D02*
G37*
G36*
X124120Y88374D02*
X122374D01*
Y86628D01*
X122771Y86708D01*
X123532Y87216D01*
X124041Y87977D01*
X124120Y88374D01*
D02*
G37*
G36*
X121374D02*
X119628D01*
X119708Y87977D01*
X120216Y87216D01*
X120977Y86708D01*
X121374Y86628D01*
Y88374D01*
D02*
G37*
G36*
X152474Y88560D02*
X150074D01*
Y86309D01*
X152474D01*
Y88560D01*
D02*
G37*
G36*
X149074D02*
X146674D01*
Y86309D01*
X149074D01*
Y88560D01*
D02*
G37*
G36*
X152474Y85309D02*
X150074D01*
Y83060D01*
X152474D01*
Y85309D01*
D02*
G37*
G36*
X14474Y79356D02*
X12074D01*
Y77106D01*
X14474D01*
Y79356D01*
D02*
G37*
G36*
X11074D02*
X8674D01*
Y77106D01*
X11074D01*
Y79356D01*
D02*
G37*
G36*
X14474Y76106D02*
X12074D01*
Y73856D01*
X14474D01*
Y76106D01*
D02*
G37*
G36*
X11074D02*
X8674D01*
Y73856D01*
X11074D01*
Y76106D01*
D02*
G37*
G36*
X19200Y57646D02*
Y55900D01*
X20946D01*
X20867Y56297D01*
X20358Y57058D01*
X19597Y57566D01*
X19200Y57646D01*
D02*
G37*
G36*
X18200D02*
X17803Y57566D01*
X17042Y57058D01*
X16533Y56297D01*
X16454Y55900D01*
X18200D01*
Y57646D01*
D02*
G37*
G36*
X5757Y60439D02*
X2391D01*
Y55302D01*
X5757D01*
Y60439D01*
D02*
G37*
G36*
X20946Y54900D02*
X19200D01*
Y53154D01*
X19597Y53233D01*
X20358Y53742D01*
X20867Y54503D01*
X20946Y54900D01*
D02*
G37*
G36*
X18200D02*
X16454D01*
X16533Y54503D01*
X17042Y53742D01*
X17803Y53233D01*
X18200Y53154D01*
Y54900D01*
D02*
G37*
G36*
X105892Y50600D02*
Y49364D01*
X107127D01*
X107087Y49567D01*
X106690Y50162D01*
X106094Y50560D01*
X105892Y50600D01*
D02*
G37*
G36*
X104892D02*
X104689Y50560D01*
X104094Y50162D01*
X103696Y49567D01*
X103656Y49364D01*
X104892D01*
Y50600D01*
D02*
G37*
G36*
X107127Y48364D02*
X105892D01*
Y47128D01*
X106094Y47169D01*
X106690Y47567D01*
X107087Y48162D01*
X107127Y48364D01*
D02*
G37*
G36*
X104892D02*
X103656D01*
X103696Y48162D01*
X104094Y47567D01*
X104689Y47169D01*
X104892Y47128D01*
Y48364D01*
D02*
G37*
G36*
X40674Y47720D02*
Y45974D01*
X42420D01*
X42341Y46371D01*
X41832Y47132D01*
X41071Y47641D01*
X40674Y47720D01*
D02*
G37*
G36*
X39674D02*
X39277Y47641D01*
X38516Y47132D01*
X38008Y46371D01*
X37928Y45974D01*
X39674D01*
Y47720D01*
D02*
G37*
G36*
X42420Y44974D02*
X40674D01*
Y43228D01*
X41071Y43308D01*
X41832Y43816D01*
X42341Y44577D01*
X42420Y44974D01*
D02*
G37*
G36*
X39674D02*
X37928D01*
X38008Y44577D01*
X38516Y43816D01*
X39277Y43308D01*
X39674Y43228D01*
Y44974D01*
D02*
G37*
G36*
X133858Y41387D02*
X133087Y41233D01*
X132432Y40796D01*
X131995Y40142D01*
X131842Y39370D01*
X131995Y38598D01*
X132432Y37944D01*
X133087Y37507D01*
X133858Y37353D01*
X134630Y37507D01*
X135284Y37944D01*
X135722Y38598D01*
X135875Y39370D01*
X135722Y40142D01*
X135284Y40796D01*
X134630Y41233D01*
X133858Y41387D01*
D02*
G37*
G36*
X23622D02*
X22850Y41233D01*
X22196Y40796D01*
X21759Y40142D01*
X21605Y39370D01*
X21759Y38598D01*
X22196Y37944D01*
X22850Y37507D01*
X23622Y37353D01*
X24394Y37507D01*
X25048Y37944D01*
X25485Y38598D01*
X25639Y39370D01*
X25485Y40142D01*
X25048Y40796D01*
X24394Y41233D01*
X23622Y41387D01*
D02*
G37*
G36*
X13702Y40921D02*
X8674D01*
Y37272D01*
X13702D01*
Y40921D01*
D02*
G37*
G36*
X7674D02*
X2647D01*
Y37272D01*
X7674D01*
Y40921D01*
D02*
G37*
G36*
X13702Y36272D02*
X8674D01*
Y32622D01*
X13702D01*
Y36272D01*
D02*
G37*
G36*
X7674D02*
X2647D01*
Y32622D01*
X7674D01*
Y36272D01*
D02*
G37*
G36*
X92374Y31582D02*
Y30347D01*
X93610D01*
X93570Y30549D01*
X93172Y31144D01*
X92576Y31542D01*
X92374Y31582D01*
D02*
G37*
G36*
X91374D02*
X91172Y31542D01*
X90576Y31144D01*
X90179Y30549D01*
X90138Y30347D01*
X91374D01*
Y31582D01*
D02*
G37*
G36*
X86374D02*
Y30347D01*
X87610D01*
X87570Y30549D01*
X87172Y31144D01*
X86576Y31542D01*
X86374Y31582D01*
D02*
G37*
G36*
X85374D02*
X85172Y31542D01*
X84576Y31144D01*
X84179Y30549D01*
X84138Y30347D01*
X85374D01*
Y31582D01*
D02*
G37*
G36*
X128374Y29610D02*
Y28374D01*
X129610D01*
X129570Y28576D01*
X129172Y29172D01*
X128576Y29570D01*
X128374Y29610D01*
D02*
G37*
G36*
X127374D02*
X127172Y29570D01*
X126576Y29172D01*
X126179Y28576D01*
X126138Y28374D01*
X127374D01*
Y29610D01*
D02*
G37*
G36*
X93610Y29346D02*
X92374D01*
Y28111D01*
X92576Y28151D01*
X93172Y28549D01*
X93570Y29144D01*
X93610Y29346D01*
D02*
G37*
G36*
X91374D02*
X90138D01*
X90179Y29144D01*
X90576Y28549D01*
X91172Y28151D01*
X91374Y28111D01*
Y29346D01*
D02*
G37*
G36*
X87610D02*
X86374D01*
Y28111D01*
X86576Y28151D01*
X87172Y28549D01*
X87570Y29144D01*
X87610Y29346D01*
D02*
G37*
G36*
X85374D02*
X84138D01*
X84179Y29144D01*
X84576Y28549D01*
X85172Y28151D01*
X85374Y28111D01*
Y29346D01*
D02*
G37*
G36*
X129610Y27374D02*
X128374D01*
Y26138D01*
X128576Y26179D01*
X129172Y26576D01*
X129570Y27172D01*
X129610Y27374D01*
D02*
G37*
G36*
X127374D02*
X126138D01*
X126179Y27172D01*
X126576Y26576D01*
X127172Y26179D01*
X127374Y26138D01*
Y27374D01*
D02*
G37*
G36*
X92374Y25582D02*
Y24347D01*
X93610D01*
X93570Y24549D01*
X93172Y25144D01*
X92576Y25542D01*
X92374Y25582D01*
D02*
G37*
G36*
X91374D02*
X91172Y25542D01*
X90576Y25144D01*
X90179Y24549D01*
X90138Y24347D01*
X91374D01*
Y25582D01*
D02*
G37*
G36*
X86374D02*
Y24347D01*
X87610D01*
X87570Y24549D01*
X87172Y25144D01*
X86576Y25542D01*
X86374Y25582D01*
D02*
G37*
G36*
X85374D02*
X85172Y25542D01*
X84576Y25144D01*
X84179Y24549D01*
X84138Y24347D01*
X85374D01*
Y25582D01*
D02*
G37*
G36*
X128374Y23610D02*
Y22374D01*
X129610D01*
X129570Y22576D01*
X129172Y23172D01*
X128576Y23570D01*
X128374Y23610D01*
D02*
G37*
G36*
X127374D02*
X127172Y23570D01*
X126576Y23172D01*
X126179Y22576D01*
X126138Y22374D01*
X127374D01*
Y23610D01*
D02*
G37*
G36*
X93610Y23347D02*
X92374D01*
Y22111D01*
X92576Y22151D01*
X93172Y22549D01*
X93570Y23144D01*
X93610Y23347D01*
D02*
G37*
G36*
X91374D02*
X90138D01*
X90179Y23144D01*
X90576Y22549D01*
X91172Y22151D01*
X91374Y22111D01*
Y23347D01*
D02*
G37*
G36*
X87610D02*
X86374D01*
Y22111D01*
X86576Y22151D01*
X87172Y22549D01*
X87570Y23144D01*
X87610Y23347D01*
D02*
G37*
G36*
X85374D02*
X84138D01*
X84179Y23144D01*
X84576Y22549D01*
X85172Y22151D01*
X85374Y22111D01*
Y23347D01*
D02*
G37*
G36*
X129610Y21374D02*
X128374D01*
Y20138D01*
X128576Y20178D01*
X129172Y20576D01*
X129570Y21172D01*
X129610Y21374D01*
D02*
G37*
G36*
X127374D02*
X126138D01*
X126179Y21172D01*
X126576Y20576D01*
X127172Y20178D01*
X127374Y20138D01*
Y21374D01*
D02*
G37*
G36*
X48638Y21110D02*
Y19874D01*
X49874D01*
X49834Y20076D01*
X49436Y20672D01*
X48840Y21070D01*
X48638Y21110D01*
D02*
G37*
G36*
X47638D02*
X47436Y21070D01*
X46841Y20672D01*
X46443Y20076D01*
X46402Y19874D01*
X47638D01*
Y21110D01*
D02*
G37*
G36*
X42638D02*
Y19874D01*
X43874D01*
X43834Y20076D01*
X43436Y20672D01*
X42840Y21070D01*
X42638Y21110D01*
D02*
G37*
G36*
X41638D02*
X41436Y21070D01*
X40841Y20672D01*
X40443Y20076D01*
X40402Y19874D01*
X41638D01*
Y21110D01*
D02*
G37*
G36*
X49874Y18874D02*
X48638D01*
Y17638D01*
X48840Y17679D01*
X49436Y18076D01*
X49834Y18672D01*
X49874Y18874D01*
D02*
G37*
G36*
X47638D02*
X46402D01*
X46443Y18672D01*
X46841Y18076D01*
X47436Y17679D01*
X47638Y17638D01*
Y18874D01*
D02*
G37*
G36*
X43874D02*
X42638D01*
Y17638D01*
X42840Y17679D01*
X43436Y18076D01*
X43834Y18672D01*
X43874Y18874D01*
D02*
G37*
G36*
X41638D02*
X40402D01*
X40443Y18672D01*
X40841Y18076D01*
X41436Y17679D01*
X41638Y17638D01*
Y18874D01*
D02*
G37*
G36*
X48638Y15110D02*
Y13874D01*
X49874D01*
X49834Y14076D01*
X49436Y14672D01*
X48840Y15070D01*
X48638Y15110D01*
D02*
G37*
G36*
X47638D02*
X47436Y15070D01*
X46841Y14672D01*
X46443Y14076D01*
X46402Y13874D01*
X47638D01*
Y15110D01*
D02*
G37*
G36*
X42638D02*
Y13874D01*
X43874D01*
X43834Y14076D01*
X43436Y14672D01*
X42840Y15070D01*
X42638Y15110D01*
D02*
G37*
G36*
X41638D02*
X41436Y15070D01*
X40841Y14672D01*
X40443Y14076D01*
X40402Y13874D01*
X41638D01*
Y15110D01*
D02*
G37*
G36*
X49874Y12874D02*
X48638D01*
Y11638D01*
X48840Y11678D01*
X49436Y12076D01*
X49834Y12672D01*
X49874Y12874D01*
D02*
G37*
G36*
X47638D02*
X46402D01*
X46443Y12672D01*
X46841Y12076D01*
X47436Y11678D01*
X47638Y11638D01*
Y12874D01*
D02*
G37*
G36*
X43874D02*
X42638D01*
Y11638D01*
X42840Y11678D01*
X43436Y12076D01*
X43834Y12672D01*
X43874Y12874D01*
D02*
G37*
G36*
X41638D02*
X40402D01*
X40443Y12672D01*
X40841Y12076D01*
X41436Y11678D01*
X41638Y11638D01*
Y12874D01*
D02*
G37*
G36*
X147327Y14811D02*
X143874D01*
Y10374D01*
X147327D01*
Y14811D01*
D02*
G37*
G36*
X142874D02*
X139421D01*
Y10374D01*
X142874D01*
Y14811D01*
D02*
G37*
G36*
X8374Y13185D02*
Y8374D01*
X13185D01*
X13068Y9266D01*
X12530Y10562D01*
X11676Y11676D01*
X10562Y12530D01*
X9266Y13068D01*
X8374Y13185D01*
D02*
G37*
G36*
X7374D02*
X6482Y13068D01*
X5186Y12530D01*
X4072Y11676D01*
X3218Y10562D01*
X2681Y9266D01*
X2563Y8374D01*
X7374D01*
Y13185D01*
D02*
G37*
G36*
X147327Y9374D02*
X143874D01*
Y4937D01*
X147327D01*
Y9374D01*
D02*
G37*
G36*
X142874D02*
X139421D01*
Y4937D01*
X142874D01*
Y9374D01*
D02*
G37*
G36*
X13185Y7374D02*
X8374D01*
Y2563D01*
X9266Y2681D01*
X10562Y3218D01*
X11676Y4072D01*
X12530Y5186D01*
X13068Y6482D01*
X13185Y7374D01*
D02*
G37*
G36*
X7374D02*
X2563D01*
X2681Y6482D01*
X3218Y5186D01*
X4072Y4072D01*
X5186Y3218D01*
X6482Y2681D01*
X7374Y2563D01*
Y7374D01*
D02*
G37*
%LPD*%
G36*
X25677Y115753D02*
X25686Y115705D01*
X25701Y115656D01*
X25723Y115605D01*
X25751Y115552D01*
X25785Y115497D01*
X25826Y115440D01*
X25873Y115382D01*
X25986Y115260D01*
X25420Y114694D01*
X25359Y114754D01*
X25240Y114854D01*
X25183Y114895D01*
X25129Y114929D01*
X25076Y114957D01*
X25025Y114979D01*
X24975Y114995D01*
X24928Y115004D01*
X24882Y115006D01*
X25674Y115798D01*
X25677Y115753D01*
D02*
G37*
G36*
X28166Y113683D02*
X28131Y113714D01*
X28091Y113741D01*
X28046Y113765D01*
X27994Y113786D01*
X27937Y113803D01*
X27874Y113818D01*
X27805Y113829D01*
X27731Y113837D01*
X27564Y113843D01*
Y114643D01*
X27650Y114645D01*
X27805Y114658D01*
X27874Y114669D01*
X27937Y114683D01*
X27994Y114701D01*
X28046Y114722D01*
X28091Y114746D01*
X28131Y114773D01*
X28166Y114803D01*
Y113683D01*
D02*
G37*
G36*
X150838Y111882D02*
X150770Y111858D01*
X150710Y111818D01*
X150658Y111762D01*
X150614Y111690D01*
X150578Y111602D01*
X150550Y111498D01*
X150530Y111378D01*
X150518Y111242D01*
X150514Y111090D01*
X149714D01*
X149710Y111242D01*
X149698Y111378D01*
X149678Y111498D01*
X149650Y111602D01*
X149614Y111690D01*
X149570Y111762D01*
X149518Y111818D01*
X149458Y111858D01*
X149390Y111882D01*
X149314Y111890D01*
X150914D01*
X150838Y111882D01*
D02*
G37*
G36*
X64980Y107876D02*
X65020Y107849D01*
X65065Y107825D01*
X65117Y107804D01*
X65174Y107787D01*
X65237Y107772D01*
X65306Y107761D01*
X65381Y107753D01*
X65547Y107747D01*
Y106947D01*
X65461Y106945D01*
X65306Y106932D01*
X65237Y106921D01*
X65174Y106906D01*
X65117Y106889D01*
X65065Y106868D01*
X65020Y106844D01*
X64980Y106817D01*
X64945Y106787D01*
Y107906D01*
X64980Y107876D01*
D02*
G37*
G36*
X54364Y101609D02*
X54460Y101532D01*
X54558Y101467D01*
X54657Y101413D01*
X54758Y101370D01*
X54861Y101338D01*
X54966Y101318D01*
X55072Y101309D01*
X55180Y101311D01*
X55289Y101325D01*
X54227Y99847D01*
X54206Y99959D01*
X54178Y100068D01*
X54142Y100176D01*
X54099Y100281D01*
X54049Y100384D01*
X53991Y100484D01*
X53926Y100582D01*
X53854Y100679D01*
X53775Y100772D01*
X53688Y100864D01*
X54269Y101697D01*
X54364Y101609D01*
D02*
G37*
G36*
X14442Y98357D02*
X14244Y98152D01*
X13933Y97785D01*
X13820Y97622D01*
X13735Y97473D01*
X13679Y97339D01*
X13650Y97219D01*
Y97113D01*
X13679Y97021D01*
X13735Y96943D01*
X12321Y98357D01*
X12399Y98301D01*
X12491Y98273D01*
X12597D01*
X12717Y98301D01*
X12851Y98357D01*
X13000Y98442D01*
X13162Y98555D01*
X13339Y98697D01*
X13735Y99064D01*
X14442Y98357D01*
D02*
G37*
G36*
X141772Y102047D02*
X141764Y102122D01*
X141740Y102190D01*
X141699Y102251D01*
X141642Y102303D01*
X141569Y102347D01*
X141480Y102383D01*
X141374Y102410D01*
X141252Y102430D01*
X141114Y102443D01*
X140960Y102446D01*
Y103246D01*
X141114Y103251D01*
X141252Y103262D01*
X141374Y103282D01*
X141480Y103311D01*
X141569Y103347D01*
X141642Y103391D01*
X141699Y103443D01*
X141740Y103503D01*
X141764Y103570D01*
X141772Y103647D01*
Y102047D01*
D02*
G37*
G36*
X136304Y103570D02*
X136328Y103503D01*
X136369Y103443D01*
X136426Y103391D01*
X136499Y103347D01*
X136588Y103311D01*
X136694Y103282D01*
X136815Y103262D01*
X136953Y103251D01*
X137108Y103246D01*
Y102446D01*
X136953Y102443D01*
X136815Y102430D01*
X136694Y102410D01*
X136588Y102383D01*
X136499Y102347D01*
X136426Y102303D01*
X136369Y102251D01*
X136328Y102190D01*
X136304Y102122D01*
X136296Y102047D01*
Y103647D01*
X136304Y103570D01*
D02*
G37*
G36*
X147177Y100880D02*
X147113Y100850D01*
X147057Y100800D01*
X147009Y100730D01*
X146967Y100640D01*
X146934Y100530D01*
X146908Y100400D01*
X146889Y100250D01*
X146878Y100080D01*
X146874Y99890D01*
X145874D01*
X145870Y100080D01*
X145840Y100400D01*
X145814Y100530D01*
X145781Y100640D01*
X145739Y100730D01*
X145691Y100800D01*
X145635Y100850D01*
X145571Y100880D01*
X145500Y100890D01*
X147248D01*
X147177Y100880D01*
D02*
G37*
G36*
X145269Y95697D02*
X145064Y95486D01*
X144744Y95109D01*
X144629Y94944D01*
X144543Y94795D01*
X144487Y94661D01*
X144461Y94543D01*
X144465Y94441D01*
X144499Y94354D01*
X144562Y94283D01*
X142998Y95547D01*
X143086Y95501D01*
X143194Y95489D01*
X143321Y95510D01*
X143468Y95565D01*
X143635Y95655D01*
X143822Y95778D01*
X144028Y95934D01*
X144500Y96350D01*
X144766Y96608D01*
X145269Y95697D01*
D02*
G37*
G36*
X136240Y96873D02*
X136213Y96782D01*
X136214Y96677D01*
X136244Y96557D01*
X136302Y96422D01*
X136388Y96274D01*
X136502Y96111D01*
X136645Y95934D01*
X137015Y95536D01*
X136308Y94828D01*
X136101Y95028D01*
X135732Y95341D01*
X135569Y95456D01*
X135421Y95542D01*
X135287Y95599D01*
X135167Y95629D01*
X135061Y95630D01*
X134970Y95603D01*
X134894Y95548D01*
X136296Y96950D01*
X136240Y96873D01*
D02*
G37*
G36*
X140798Y92809D02*
X140788Y92905D01*
X140758Y92989D01*
X140707Y93064D01*
X140636Y93129D01*
X140545Y93185D01*
X140434Y93230D01*
X140302Y93265D01*
X140150Y93290D01*
X139978Y93305D01*
X139786Y93309D01*
Y94310D01*
X139978Y94314D01*
X140150Y94330D01*
X140302Y94354D01*
X140434Y94389D01*
X140545Y94434D01*
X140636Y94490D01*
X140707Y94555D01*
X140758Y94630D01*
X140788Y94714D01*
X140798Y94810D01*
Y92809D01*
D02*
G37*
G36*
X137678Y94882D02*
X137828Y94762D01*
X137985Y94656D01*
X138146Y94564D01*
X138314Y94486D01*
X138488Y94423D01*
X138667Y94373D01*
X138853Y94338D01*
X139044Y94317D01*
X139241Y94310D01*
X139534Y93309D01*
X139344Y93300D01*
X139174Y93269D01*
X139024Y93220D01*
X138894Y93150D01*
X138784Y93059D01*
X138694Y92949D01*
X138624Y92819D01*
X138574Y92669D01*
X138544Y92500D01*
X138534Y92309D01*
X137534Y92602D01*
X137527Y92799D01*
X137506Y92991D01*
X137470Y93176D01*
X137421Y93356D01*
X137357Y93529D01*
X137279Y93697D01*
X137187Y93859D01*
X137081Y94015D01*
X136961Y94165D01*
X136827Y94310D01*
X137534Y95017D01*
X137678Y94882D01*
D02*
G37*
G36*
X144499Y84998D02*
X144473Y84931D01*
X144470Y84850D01*
X144492Y84757D01*
X144537Y84650D01*
X144607Y84531D01*
X144701Y84398D01*
X144819Y84252D01*
X145128Y83921D01*
X144695Y83223D01*
X144483Y83430D01*
X143940Y83889D01*
X143791Y83988D01*
X143658Y84061D01*
X143540Y84107D01*
X143438Y84126D01*
X143351Y84118D01*
X143281Y84083D01*
X144550Y85053D01*
X144499Y84998D01*
D02*
G37*
G36*
X149652Y68853D02*
X149664Y68715D01*
X149684Y68594D01*
X149712Y68488D01*
X149748Y68399D01*
X149792Y68326D01*
X149844Y68269D01*
X149904Y68228D01*
X149972Y68204D01*
X150048Y68196D01*
X148448D01*
X148524Y68204D01*
X148592Y68228D01*
X148652Y68269D01*
X148704Y68326D01*
X148748Y68399D01*
X148784Y68488D01*
X148812Y68594D01*
X148832Y68715D01*
X148844Y68853D01*
X148848Y69008D01*
X149648D01*
X149652Y68853D01*
D02*
G37*
G36*
X145001Y69018D02*
X145051Y68218D01*
X145063Y68208D01*
X143500Y68196D01*
X143595Y68207D01*
X143680Y68237D01*
X143755Y68288D01*
X143820Y68360D01*
X143875Y68451D01*
X143920Y68562D01*
X143955Y68693D01*
X143980Y68845D01*
X143995Y69016D01*
X144000Y69208D01*
X145000D01*
X145001Y69018D01*
D02*
G37*
G36*
X150766Y65954D02*
X150743Y65881D01*
Y65796D01*
X150766Y65700D01*
X150811Y65592D01*
X150879Y65474D01*
X150969Y65343D01*
X151082Y65202D01*
X151376Y64885D01*
X150811Y64320D01*
X150647Y64478D01*
X150353Y64727D01*
X150223Y64817D01*
X150104Y64885D01*
X149996Y64930D01*
X149900Y64953D01*
X149815D01*
X149742Y64930D01*
X149680Y64885D01*
X150811Y66017D01*
X150766Y65954D01*
D02*
G37*
G36*
X144405Y64875D02*
X144320Y64845D01*
X144245Y64795D01*
X144180Y64725D01*
X144125Y64635D01*
X144080Y64525D01*
X144045Y64395D01*
X144020Y64245D01*
X144005Y64075D01*
X144000Y63885D01*
X143000D01*
X142995Y64075D01*
X142980Y64245D01*
X142955Y64395D01*
X142920Y64525D01*
X142875Y64635D01*
X142820Y64725D01*
X142755Y64795D01*
X142680Y64845D01*
X142595Y64875D01*
X142500Y64885D01*
X144500D01*
X144405Y64875D01*
D02*
G37*
G36*
X12055Y58709D02*
X12064Y58622D01*
X12071Y58582D01*
X12081Y58545D01*
X12093Y58509D01*
X12107Y58476D01*
X12123Y58446D01*
X12141Y58417D01*
X12162Y58391D01*
X10947D01*
X10967Y58417D01*
X10986Y58446D01*
X11002Y58476D01*
X11016Y58509D01*
X11028Y58545D01*
X11037Y58582D01*
X11045Y58622D01*
X11050Y58665D01*
X11053Y58709D01*
X11054Y58756D01*
X12054D01*
X12055Y58709D01*
D02*
G37*
G36*
X153535Y58201D02*
X153548Y58047D01*
X153559Y57978D01*
X153573Y57915D01*
X153591Y57858D01*
X153612Y57806D01*
X153636Y57760D01*
X153663Y57720D01*
X153693Y57686D01*
X152573D01*
X152604Y57720D01*
X152631Y57760D01*
X152655Y57806D01*
X152676Y57858D01*
X152693Y57915D01*
X152708Y57978D01*
X152719Y58047D01*
X152727Y58121D01*
X152733Y58288D01*
X153533D01*
X153535Y58201D01*
D02*
G37*
G36*
X153663Y56509D02*
X153636Y56469D01*
X153612Y56423D01*
X153591Y56372D01*
X153573Y56315D01*
X153559Y56252D01*
X153548Y56183D01*
X153540Y56108D01*
X153533Y55942D01*
X152733D01*
X152732Y56028D01*
X152719Y56183D01*
X152708Y56252D01*
X152693Y56315D01*
X152676Y56372D01*
X152655Y56423D01*
X152631Y56469D01*
X152604Y56509D01*
X152573Y56543D01*
X153693D01*
X153663Y56509D01*
D02*
G37*
G36*
X12574Y55898D02*
X12528Y55850D01*
X12487Y55770D01*
X12452Y55658D01*
X12422Y55514D01*
X12398Y55338D01*
X12365Y54890D01*
X12354Y54314D01*
X10754D01*
X10752Y54618D01*
X10687Y55514D01*
X10657Y55658D01*
X10622Y55770D01*
X10581Y55850D01*
X10535Y55898D01*
X10484Y55914D01*
X12625D01*
X12574Y55898D01*
D02*
G37*
G36*
X12358Y53410D02*
X12408Y52690D01*
X12438Y52514D01*
X12475Y52370D01*
X12519Y52258D01*
X12569Y52178D01*
X12626Y52130D01*
X12690Y52114D01*
X9954Y52102D01*
X10106Y52119D01*
X10242Y52168D01*
X10362Y52249D01*
X10466Y52362D01*
X10554Y52507D01*
X10626Y52684D01*
X10682Y52893D01*
X10722Y53135D01*
X10746Y53408D01*
X10754Y53714D01*
X12354D01*
X12358Y53410D01*
D02*
G37*
G36*
X12710Y50786D02*
X12770Y50616D01*
X12870Y50466D01*
X13010Y50336D01*
X13190Y50226D01*
X13410Y50136D01*
X13670Y50066D01*
X13970Y50016D01*
X14310Y49986D01*
X14690Y49976D01*
Y47976D01*
X14310Y47966D01*
X13970Y47936D01*
X13670Y47886D01*
X13410Y47816D01*
X13190Y47726D01*
X13010Y47616D01*
X12870Y47486D01*
X12770Y47336D01*
X12710Y47166D01*
X12690Y46976D01*
Y50976D01*
X12710Y50786D01*
D02*
G37*
G36*
X101555Y46178D02*
X101642Y46109D01*
X101735Y46047D01*
X101833Y45994D01*
X101936Y45949D01*
X102043Y45912D01*
X102156Y45883D01*
X102189Y45877D01*
X103036Y45848D01*
X103409Y45846D01*
Y44846D01*
X103036Y44844D01*
X102035Y44778D01*
X101936Y44744D01*
X101833Y44699D01*
X101735Y44645D01*
X101642Y44584D01*
X101555Y44514D01*
X101472Y44436D01*
Y44730D01*
X101403Y44713D01*
X101309Y44678D01*
X101250Y44639D01*
Y46054D01*
X101309Y46014D01*
X101403Y45979D01*
X101472Y45962D01*
Y46256D01*
X101555Y46178D01*
D02*
G37*
G36*
X146802Y45030D02*
X146643Y44866D01*
X146395Y44572D01*
X146304Y44442D01*
X146236Y44323D01*
X146191Y44216D01*
X146168Y44120D01*
Y44035D01*
X146191Y43961D01*
X146236Y43899D01*
X145105Y45030D01*
X145167Y44985D01*
X145241Y44962D01*
X145326D01*
X145422Y44985D01*
X145529Y45030D01*
X145648Y45098D01*
X145778Y45189D01*
X145919Y45302D01*
X146236Y45596D01*
X146802Y45030D01*
D02*
G37*
G36*
X61404Y110241D02*
X61376Y110201D01*
X61352Y110155D01*
X61332Y110104D01*
X61314Y110046D01*
X61300Y109983D01*
X61288Y109915D01*
X61280Y109840D01*
X61274Y109674D01*
X60474D01*
X60472Y109760D01*
X60460Y109915D01*
X60448Y109983D01*
X60434Y110046D01*
X60416Y110104D01*
X60396Y110155D01*
X60372Y110201D01*
X60344Y110241D01*
X60314Y110275D01*
X61434D01*
X61404Y110241D01*
D02*
G37*
G36*
X101803Y99814D02*
X101769Y99844D01*
X101728Y99872D01*
X101683Y99896D01*
X101631Y99916D01*
X101574Y99934D01*
X101511Y99948D01*
X101442Y99960D01*
X101368Y99968D01*
X101201Y99974D01*
Y100774D01*
X101287Y100776D01*
X101442Y100788D01*
X101511Y100800D01*
X101574Y100814D01*
X101631Y100832D01*
X101683Y100852D01*
X101728Y100876D01*
X101769Y100904D01*
X101803Y100934D01*
Y99814D01*
D02*
G37*
G36*
X105303Y97314D02*
X105269Y97344D01*
X105228Y97372D01*
X105183Y97396D01*
X105131Y97416D01*
X105074Y97434D01*
X105011Y97448D01*
X104942Y97460D01*
X104868Y97468D01*
X104701Y97474D01*
Y98274D01*
X104787Y98276D01*
X104942Y98288D01*
X105011Y98300D01*
X105074Y98314D01*
X105131Y98332D01*
X105183Y98352D01*
X105228Y98376D01*
X105269Y98404D01*
X105303Y98434D01*
Y97314D01*
D02*
G37*
G36*
X31508Y97836D02*
X31517Y97789D01*
X31533Y97739D01*
X31554Y97688D01*
X31582Y97635D01*
X31617Y97580D01*
X31657Y97524D01*
X31705Y97465D01*
X31818Y97343D01*
X31252Y96778D01*
X31190Y96837D01*
X31071Y96938D01*
X31015Y96978D01*
X30960Y97013D01*
X30907Y97041D01*
X30856Y97063D01*
X30807Y97078D01*
X30759Y97087D01*
X30713Y97090D01*
X31506Y97882D01*
X31508Y97836D01*
D02*
G37*
G36*
X25603D02*
X25612Y97789D01*
X25627Y97739D01*
X25649Y97688D01*
X25677Y97635D01*
X25711Y97580D01*
X25752Y97524D01*
X25799Y97465D01*
X25912Y97343D01*
X25347Y96778D01*
X25285Y96837D01*
X25166Y96938D01*
X25109Y96978D01*
X25055Y97013D01*
X25002Y97041D01*
X24951Y97063D01*
X24901Y97078D01*
X24854Y97087D01*
X24808Y97090D01*
X25600Y97882D01*
X25603Y97836D01*
D02*
G37*
G36*
X64803Y94814D02*
X64768Y94844D01*
X64728Y94872D01*
X64683Y94896D01*
X64631Y94916D01*
X64574Y94934D01*
X64511Y94948D01*
X64442Y94960D01*
X64368Y94968D01*
X64201Y94974D01*
Y95774D01*
X64287Y95776D01*
X64442Y95788D01*
X64511Y95800D01*
X64574Y95814D01*
X64631Y95832D01*
X64683Y95852D01*
X64728Y95876D01*
X64768Y95904D01*
X64803Y95934D01*
Y94814D01*
D02*
G37*
G36*
X94307Y93915D02*
X94316Y93867D01*
X94331Y93818D01*
X94353Y93767D01*
X94381Y93714D01*
X94415Y93659D01*
X94456Y93603D01*
X94503Y93544D01*
X94616Y93422D01*
X94050Y92856D01*
X93988Y92916D01*
X93870Y93016D01*
X93813Y93057D01*
X93758Y93092D01*
X93706Y93120D01*
X93655Y93141D01*
X93605Y93157D01*
X93558Y93166D01*
X93512Y93169D01*
X94304Y93960D01*
X94307Y93915D01*
D02*
G37*
G36*
X69803Y92814D02*
X69769Y92844D01*
X69728Y92872D01*
X69683Y92896D01*
X69631Y92916D01*
X69574Y92934D01*
X69511Y92948D01*
X69442Y92960D01*
X69368Y92968D01*
X69201Y92974D01*
Y93774D01*
X69287Y93776D01*
X69442Y93788D01*
X69511Y93800D01*
X69574Y93814D01*
X69631Y93832D01*
X69683Y93852D01*
X69728Y93876D01*
X69769Y93904D01*
X69803Y93934D01*
Y92814D01*
D02*
G37*
G36*
X84191Y93363D02*
X84164Y93323D01*
X84140Y93277D01*
X84119Y93226D01*
X84101Y93168D01*
X84087Y93105D01*
X84076Y93037D01*
X84068Y92962D01*
X84061Y92796D01*
X83261D01*
X83260Y92882D01*
X83247Y93037D01*
X83236Y93105D01*
X83221Y93168D01*
X83204Y93226D01*
X83183Y93277D01*
X83159Y93323D01*
X83132Y93363D01*
X83101Y93397D01*
X84221D01*
X84191Y93363D01*
D02*
G37*
G36*
X92338Y91915D02*
X92347Y91867D01*
X92362Y91818D01*
X92384Y91767D01*
X92412Y91714D01*
X92447Y91659D01*
X92487Y91603D01*
X92534Y91544D01*
X92648Y91422D01*
X92082Y90856D01*
X92020Y90916D01*
X91901Y91017D01*
X91845Y91057D01*
X91790Y91092D01*
X91737Y91120D01*
X91686Y91141D01*
X91637Y91157D01*
X91589Y91166D01*
X91543Y91169D01*
X92335Y91961D01*
X92338Y91915D01*
D02*
G37*
G36*
X82496Y91915D02*
X82505Y91867D01*
X82520Y91818D01*
X82542Y91767D01*
X82570Y91714D01*
X82604Y91659D01*
X82645Y91603D01*
X82692Y91544D01*
X82805Y91422D01*
X82239Y90856D01*
X82177Y90916D01*
X82059Y91017D01*
X82002Y91057D01*
X81947Y91092D01*
X81895Y91120D01*
X81844Y91141D01*
X81794Y91157D01*
X81747Y91166D01*
X81701Y91169D01*
X82493Y91961D01*
X82496Y91915D01*
D02*
G37*
G36*
X62986Y89420D02*
X62926Y89359D01*
X62826Y89240D01*
X62785Y89183D01*
X62751Y89129D01*
X62723Y89076D01*
X62701Y89025D01*
X62686Y88975D01*
X62677Y88928D01*
X62674Y88882D01*
X61882Y89674D01*
X61928Y89677D01*
X61975Y89686D01*
X62025Y89701D01*
X62076Y89723D01*
X62129Y89751D01*
X62183Y89785D01*
X62240Y89826D01*
X62298Y89873D01*
X62420Y89986D01*
X62986Y89420D01*
D02*
G37*
G36*
X90370Y89915D02*
X90379Y89867D01*
X90394Y89818D01*
X90416Y89767D01*
X90444Y89714D01*
X90478Y89659D01*
X90519Y89603D01*
X90566Y89544D01*
X90679Y89422D01*
X90113Y88856D01*
X90051Y88916D01*
X89933Y89016D01*
X89876Y89057D01*
X89821Y89092D01*
X89769Y89120D01*
X89717Y89141D01*
X89668Y89157D01*
X89621Y89166D01*
X89575Y89169D01*
X90367Y89960D01*
X90370Y89915D01*
D02*
G37*
G36*
X80527D02*
X80536Y89867D01*
X80551Y89818D01*
X80573Y89767D01*
X80601Y89714D01*
X80636Y89659D01*
X80676Y89603D01*
X80723Y89544D01*
X80836Y89422D01*
X80271Y88856D01*
X80209Y88916D01*
X80090Y89016D01*
X80034Y89057D01*
X79979Y89092D01*
X79926Y89120D01*
X79875Y89141D01*
X79826Y89157D01*
X79778Y89166D01*
X79732Y89169D01*
X80524Y89960D01*
X80527Y89915D01*
D02*
G37*
G36*
X68552Y88453D02*
X68592Y88425D01*
X68637Y88401D01*
X68689Y88381D01*
X68746Y88363D01*
X68809Y88349D01*
X68878Y88337D01*
X68953Y88329D01*
X69119Y88323D01*
Y87523D01*
X69033Y87521D01*
X68878Y87509D01*
X68809Y87497D01*
X68746Y87483D01*
X68689Y87465D01*
X68637Y87445D01*
X68592Y87421D01*
X68552Y87393D01*
X68517Y87363D01*
Y88483D01*
X68552Y88453D01*
D02*
G37*
G36*
X78559Y87915D02*
X78568Y87867D01*
X78583Y87818D01*
X78605Y87767D01*
X78633Y87714D01*
X78667Y87659D01*
X78708Y87603D01*
X78755Y87544D01*
X78868Y87422D01*
X78302Y86856D01*
X78240Y86916D01*
X78122Y87016D01*
X78065Y87057D01*
X78010Y87092D01*
X77958Y87120D01*
X77906Y87141D01*
X77857Y87157D01*
X77810Y87166D01*
X77764Y87169D01*
X78556Y87960D01*
X78559Y87915D01*
D02*
G37*
G36*
X62480Y86507D02*
X62520Y86480D01*
X62565Y86456D01*
X62617Y86435D01*
X62674Y86418D01*
X62737Y86403D01*
X62806Y86392D01*
X62880Y86384D01*
X63047Y86378D01*
Y85577D01*
X62961Y85576D01*
X62806Y85563D01*
X62737Y85552D01*
X62674Y85537D01*
X62617Y85520D01*
X62565Y85499D01*
X62520Y85475D01*
X62480Y85448D01*
X62445Y85417D01*
Y86537D01*
X62480Y86507D01*
D02*
G37*
G36*
X19104Y84388D02*
X19144Y84361D01*
X19190Y84337D01*
X19241Y84316D01*
X19298Y84298D01*
X19361Y84284D01*
X19430Y84273D01*
X19505Y84265D01*
X19671Y84258D01*
Y83458D01*
X19585Y83457D01*
X19430Y83444D01*
X19361Y83433D01*
X19298Y83418D01*
X19241Y83401D01*
X19190Y83380D01*
X19144Y83356D01*
X19104Y83329D01*
X19070Y83298D01*
Y84418D01*
X19104Y84388D01*
D02*
G37*
G36*
Y81238D02*
X19144Y81211D01*
X19190Y81187D01*
X19241Y81166D01*
X19298Y81149D01*
X19361Y81134D01*
X19430Y81123D01*
X19505Y81115D01*
X19671Y81109D01*
Y80309D01*
X19585Y80307D01*
X19430Y80294D01*
X19361Y80283D01*
X19298Y80269D01*
X19241Y80251D01*
X19190Y80230D01*
X19144Y80206D01*
X19104Y80179D01*
X19070Y80149D01*
Y81269D01*
X19104Y81238D01*
D02*
G37*
G36*
X139803Y76999D02*
X139769Y77030D01*
X139728Y77057D01*
X139683Y77081D01*
X139631Y77101D01*
X139574Y77119D01*
X139511Y77134D01*
X139442Y77145D01*
X139368Y77153D01*
X139201Y77159D01*
Y77959D01*
X139287Y77961D01*
X139442Y77974D01*
X139511Y77985D01*
X139574Y77999D01*
X139631Y78017D01*
X139683Y78038D01*
X139728Y78061D01*
X139769Y78089D01*
X139803Y78119D01*
Y76999D01*
D02*
G37*
G36*
X19104Y78089D02*
X19144Y78061D01*
X19190Y78038D01*
X19241Y78017D01*
X19298Y77999D01*
X19361Y77985D01*
X19430Y77974D01*
X19505Y77965D01*
X19671Y77959D01*
X19671Y77159D01*
X19585Y77157D01*
X19430Y77145D01*
X19361Y77134D01*
X19298Y77119D01*
X19241Y77101D01*
X19189Y77081D01*
X19144Y77057D01*
X19104Y77029D01*
X19070Y76999D01*
X19070Y78119D01*
X19104Y78089D01*
D02*
G37*
G36*
X139803Y73849D02*
X139769Y73880D01*
X139728Y73907D01*
X139683Y73931D01*
X139631Y73952D01*
X139574Y73970D01*
X139511Y73984D01*
X139442Y73995D01*
X139368Y74003D01*
X139201Y74010D01*
Y74809D01*
X139287Y74811D01*
X139442Y74824D01*
X139511Y74835D01*
X139574Y74849D01*
X139631Y74867D01*
X139683Y74888D01*
X139728Y74912D01*
X139769Y74939D01*
X139803Y74970D01*
Y73849D01*
D02*
G37*
G36*
X19104Y74939D02*
X19144Y74912D01*
X19190Y74888D01*
X19241Y74867D01*
X19298Y74849D01*
X19361Y74835D01*
X19430Y74824D01*
X19505Y74816D01*
X19671Y74809D01*
X19671Y74009D01*
X19585Y74008D01*
X19430Y73995D01*
X19361Y73984D01*
X19298Y73969D01*
X19241Y73952D01*
X19189Y73931D01*
X19144Y73907D01*
X19104Y73880D01*
X19070Y73849D01*
X19070Y74969D01*
X19104Y74939D01*
D02*
G37*
G36*
X139803Y70700D02*
X139769Y70730D01*
X139728Y70758D01*
X139683Y70781D01*
X139631Y70802D01*
X139574Y70820D01*
X139511Y70834D01*
X139442Y70846D01*
X139368Y70854D01*
X139201Y70860D01*
Y71660D01*
X139287Y71662D01*
X139442Y71674D01*
X139511Y71685D01*
X139574Y71700D01*
X139631Y71718D01*
X139683Y71738D01*
X139728Y71762D01*
X139769Y71789D01*
X139803Y71820D01*
Y70700D01*
D02*
G37*
G36*
X19104Y71789D02*
X19144Y71762D01*
X19190Y71738D01*
X19241Y71717D01*
X19298Y71700D01*
X19361Y71685D01*
X19430Y71674D01*
X19505Y71666D01*
X19671Y71660D01*
X19671Y70860D01*
X19585Y70858D01*
X19430Y70845D01*
X19361Y70834D01*
X19298Y70820D01*
X19241Y70802D01*
X19189Y70781D01*
X19144Y70757D01*
X19104Y70730D01*
X19070Y70700D01*
X19070Y71820D01*
X19104Y71789D01*
D02*
G37*
G36*
Y68640D02*
X19144Y68613D01*
X19190Y68589D01*
X19241Y68568D01*
X19298Y68550D01*
X19361Y68536D01*
X19430Y68525D01*
X19505Y68517D01*
X19671Y68510D01*
X19671Y67710D01*
X19585Y67709D01*
X19430Y67696D01*
X19361Y67685D01*
X19298Y67670D01*
X19241Y67653D01*
X19189Y67632D01*
X19144Y67608D01*
X19104Y67581D01*
X19070Y67550D01*
X19070Y68670D01*
X19104Y68640D01*
D02*
G37*
G36*
X86960Y67432D02*
X87079Y67335D01*
X87136Y67296D01*
X87191Y67265D01*
X87245Y67241D01*
X87296Y67223D01*
X87347Y67213D01*
X87395Y67210D01*
X87441Y67213D01*
X86773Y66315D01*
X86765Y66355D01*
X86751Y66398D01*
X86731Y66444D01*
X86705Y66492D01*
X86674Y66542D01*
X86636Y66595D01*
X86544Y66707D01*
X86490Y66767D01*
X86429Y66829D01*
X86898Y67492D01*
X86960Y67432D01*
D02*
G37*
G36*
X89936Y65510D02*
X89949Y65355D01*
X89960Y65286D01*
X89974Y65223D01*
X89992Y65166D01*
X90013Y65114D01*
X90037Y65069D01*
X90064Y65029D01*
X90094Y64994D01*
X88974D01*
X89005Y65029D01*
X89032Y65069D01*
X89056Y65114D01*
X89077Y65166D01*
X89094Y65223D01*
X89109Y65286D01*
X89120Y65355D01*
X89128Y65429D01*
X89134Y65596D01*
X89934D01*
X89936Y65510D01*
D02*
G37*
G36*
X19104Y65490D02*
X19144Y65463D01*
X19190Y65439D01*
X19241Y65418D01*
X19298Y65401D01*
X19361Y65386D01*
X19430Y65375D01*
X19505Y65367D01*
X19671Y65361D01*
X19671Y64561D01*
X19585Y64559D01*
X19430Y64546D01*
X19361Y64535D01*
X19298Y64521D01*
X19241Y64503D01*
X19189Y64482D01*
X19144Y64458D01*
X19104Y64431D01*
X19070Y64401D01*
X19070Y65521D01*
X19104Y65490D01*
D02*
G37*
G36*
X91904Y63510D02*
X91917Y63355D01*
X91928Y63286D01*
X91943Y63223D01*
X91960Y63166D01*
X91981Y63114D01*
X92005Y63068D01*
X92032Y63029D01*
X92063Y62994D01*
X90943D01*
X90973Y63029D01*
X91000Y63068D01*
X91024Y63114D01*
X91045Y63166D01*
X91063Y63223D01*
X91077Y63286D01*
X91088Y63355D01*
X91096Y63429D01*
X91103Y63596D01*
X91903D01*
X91904Y63510D01*
D02*
G37*
G36*
X19637Y62168D02*
X19297Y61845D01*
X18830Y62539D01*
X18838Y62539D01*
X18852Y62545D01*
X18871Y62556D01*
X18894Y62573D01*
X18954Y62624D01*
X19081Y62743D01*
X19133Y62795D01*
X19637Y62168D01*
D02*
G37*
G36*
X83090Y61952D02*
X83056Y61982D01*
X83016Y62009D01*
X82970Y62033D01*
X82919Y62054D01*
X82861Y62072D01*
X82798Y62086D01*
X82730Y62097D01*
X82655Y62105D01*
X82489Y62112D01*
Y62912D01*
X82575Y62913D01*
X82730Y62926D01*
X82798Y62937D01*
X82861Y62952D01*
X82919Y62969D01*
X82970Y62990D01*
X83016Y63014D01*
X83056Y63041D01*
X83090Y63072D01*
Y61952D01*
D02*
G37*
G36*
X139803Y61251D02*
X139769Y61281D01*
X139728Y61309D01*
X139683Y61333D01*
X139631Y61353D01*
X139574Y61371D01*
X139511Y61385D01*
X139442Y61397D01*
X139368Y61405D01*
X139201Y61411D01*
Y62211D01*
X139287Y62213D01*
X139442Y62225D01*
X139511Y62237D01*
X139574Y62251D01*
X139631Y62269D01*
X139683Y62289D01*
X139728Y62313D01*
X139769Y62341D01*
X139803Y62371D01*
Y61251D01*
D02*
G37*
G36*
X93873Y61510D02*
X93886Y61355D01*
X93897Y61286D01*
X93911Y61223D01*
X93929Y61166D01*
X93950Y61114D01*
X93974Y61068D01*
X94001Y61028D01*
X94031Y60994D01*
X92911D01*
X92942Y61028D01*
X92969Y61068D01*
X92993Y61114D01*
X93014Y61166D01*
X93031Y61223D01*
X93046Y61286D01*
X93057Y61355D01*
X93065Y61429D01*
X93071Y61596D01*
X93871D01*
X93873Y61510D01*
D02*
G37*
G36*
X74480Y60904D02*
X74520Y60876D01*
X74565Y60852D01*
X74617Y60832D01*
X74674Y60814D01*
X74737Y60800D01*
X74806Y60788D01*
X74880Y60780D01*
X75047Y60774D01*
Y59974D01*
X74961Y59972D01*
X74806Y59960D01*
X74737Y59948D01*
X74674Y59934D01*
X74617Y59916D01*
X74565Y59896D01*
X74520Y59872D01*
X74480Y59844D01*
X74445Y59814D01*
Y60934D01*
X74480Y60904D01*
D02*
G37*
G36*
X139803Y58101D02*
X139769Y58132D01*
X139728Y58159D01*
X139683Y58183D01*
X139631Y58204D01*
X139574Y58221D01*
X139511Y58236D01*
X139442Y58247D01*
X139368Y58255D01*
X139201Y58261D01*
Y59061D01*
X139287Y59063D01*
X139442Y59076D01*
X139511Y59087D01*
X139574Y59101D01*
X139631Y59119D01*
X139683Y59140D01*
X139728Y59164D01*
X139769Y59191D01*
X139803Y59221D01*
Y58101D01*
D02*
G37*
G36*
Y54952D02*
X139769Y54982D01*
X139728Y55009D01*
X139683Y55033D01*
X139631Y55054D01*
X139574Y55072D01*
X139511Y55086D01*
X139442Y55097D01*
X139368Y55105D01*
X139201Y55112D01*
Y55912D01*
X139287Y55913D01*
X139442Y55926D01*
X139511Y55937D01*
X139574Y55952D01*
X139631Y55969D01*
X139683Y55990D01*
X139728Y56014D01*
X139769Y56041D01*
X139803Y56072D01*
Y54952D01*
D02*
G37*
G36*
Y51802D02*
X139769Y51833D01*
X139728Y51860D01*
X139683Y51884D01*
X139631Y51905D01*
X139574Y51922D01*
X139511Y51937D01*
X139442Y51948D01*
X139368Y51956D01*
X139201Y51962D01*
Y52762D01*
X139287Y52764D01*
X139442Y52777D01*
X139511Y52788D01*
X139574Y52802D01*
X139631Y52820D01*
X139683Y52841D01*
X139728Y52865D01*
X139769Y52892D01*
X139803Y52922D01*
Y51802D01*
D02*
G37*
G36*
X90364Y45943D02*
X90377Y45788D01*
X90388Y45720D01*
X90403Y45656D01*
X90420Y45599D01*
X90441Y45548D01*
X90465Y45502D01*
X90492Y45462D01*
X90523Y45428D01*
X89403D01*
X89433Y45462D01*
X89460Y45502D01*
X89484Y45548D01*
X89505Y45599D01*
X89523Y45656D01*
X89537Y45720D01*
X89548Y45788D01*
X89556Y45863D01*
X89563Y46029D01*
X90363D01*
X90364Y45943D01*
D02*
G37*
D10*
X138034Y84666D02*
X144500Y78200D01*
X138034Y84666D02*
Y93809D01*
X142674D01*
X134745Y97098D02*
X138034Y93809D01*
X134646Y97098D02*
X134745D01*
X144500Y67546D02*
Y78200D01*
X143500Y66546D02*
X144500Y67546D01*
X143500Y51000D02*
Y66546D01*
X142824Y93809D02*
X144074Y95060D01*
Y95209D01*
X146374Y97509D01*
Y102847D01*
X100543Y45346D02*
X137846D01*
X143500Y51000D01*
X19082Y103704D02*
X51555D01*
X12172Y96794D02*
X19082Y103704D01*
X12074Y96794D02*
X12172D01*
X5858Y91047D02*
X12074D01*
X11554Y57870D02*
Y58756D01*
X51555Y103704D02*
X55215Y100044D01*
X18474Y115502D02*
X22346Y119374D01*
X38874D01*
X55215Y100044D02*
X55512D01*
X41638Y109638D02*
Y116610D01*
X38874Y119374D02*
X41638Y116610D01*
D14*
X134646Y102847D02*
X142634D01*
X153133Y51928D02*
Y57115D01*
X143296Y41105D02*
Y42090D01*
X153133Y51928D01*
X149248Y66448D02*
Y66546D01*
Y66448D02*
X153133Y62563D01*
Y57115D02*
Y62563D01*
X149248Y66546D02*
Y79235D01*
X142674Y85809D02*
X142824D01*
X144174Y84460D01*
Y84310D02*
Y84460D01*
Y84310D02*
X149248Y79235D01*
X18498Y83858D02*
X75498D01*
X84965Y64961D02*
X85413Y64512D01*
X85630D01*
X18498Y68110D02*
X85714Y68110D01*
X18498Y80709D02*
X75498D01*
X18498Y74409D02*
X85311Y74410D01*
X18498Y64961D02*
X84965Y64961D01*
X18498Y77559D02*
X84661Y77559D01*
X87401Y66423D02*
X87566D01*
X85714Y68110D02*
X87401Y66423D01*
X18498Y71260D02*
X85961Y71260D01*
X85311Y74410D02*
X91503Y68218D01*
X26437Y114243D02*
X28737D01*
X24874Y115806D02*
X26437Y114243D01*
X19415Y62512D02*
X83661D01*
X18498Y61811D02*
X18715D01*
X19415Y62512D01*
X148374Y107346D02*
X150114Y109087D01*
Y113847D01*
X64374Y107346D02*
X148374D01*
X72423Y87923D02*
X84874Y100374D01*
X102374D01*
X108275Y71260D02*
X140374D01*
X73374Y92347D02*
Y95346D01*
X63846Y90847D02*
X71874D01*
X73374Y92347D01*
X61874Y88874D02*
X63846Y90847D01*
X67946Y87923D02*
X72423D01*
X70874Y97847D02*
X73374Y95346D01*
X63374Y97847D02*
X70874D01*
X60874Y100347D02*
Y110846D01*
Y100347D02*
X63374Y97847D01*
X29316Y93374D02*
X70374D01*
X85961Y71260D02*
X89534Y67686D01*
Y64423D02*
Y67686D01*
X91503Y62423D02*
Y68218D01*
X93471Y60423D02*
Y68749D01*
X84661Y77559D02*
X93471Y68749D01*
X83661Y92559D02*
Y93968D01*
Y92559D02*
X114409Y61811D01*
X140374D01*
X115000Y58661D02*
X140374D01*
X81693Y91969D02*
X115000Y58661D01*
X79724Y89969D02*
X114181Y55512D01*
X79724Y89969D02*
Y89969D01*
X114181Y55512D02*
X140374D01*
X113362Y52362D02*
X140374D01*
X77756Y87968D02*
Y87968D01*
Y87968D02*
X113362Y52362D01*
X82374Y60374D02*
X89963Y52785D01*
Y44856D02*
Y52785D01*
X73874Y60374D02*
X82374D01*
X30705Y97890D02*
X33221Y95374D01*
X65374D01*
X89567Y89969D02*
Y89969D01*
Y89969D02*
X108275Y71260D01*
X72978Y85978D02*
X84874Y97874D01*
X105874D01*
X24800Y97890D02*
X29316Y93374D01*
X61874Y85978D02*
X72978D01*
X109094Y74410D02*
X140374D01*
X91535Y91969D02*
Y91969D01*
Y91969D02*
X109094Y74410D01*
X109913Y77559D02*
X140374D01*
X93504Y93968D02*
X109913Y77559D01*
D17*
X149574Y85809D02*
D03*
X142674D02*
D03*
Y93809D02*
D03*
X149574D02*
D03*
X11574Y76606D02*
D03*
X4674D02*
D03*
D18*
X134646Y97098D02*
D03*
Y102847D02*
D03*
X5724Y91080D02*
D03*
Y96828D02*
D03*
X12074Y91047D02*
D03*
Y96794D02*
D03*
D19*
X152800Y129700D02*
D03*
Y122800D02*
D03*
D20*
X143500Y66546D02*
D03*
X149248D02*
D03*
D21*
X150114Y102847D02*
D03*
X146374D02*
D03*
X142634D02*
D03*
Y113847D02*
D03*
X146374D02*
D03*
X150114D02*
D03*
D22*
X18474Y115502D02*
D03*
X4301D02*
D03*
D23*
X143296Y41105D02*
D03*
X143374Y9874D02*
D03*
D24*
X11554Y68106D02*
D03*
X7814D02*
D03*
X4074D02*
D03*
Y57870D02*
D03*
X11554D02*
D03*
D25*
X8174Y48976D02*
D03*
Y36772D02*
D03*
D39*
X2474Y78741D02*
X3524Y77691D01*
Y77606D02*
Y77691D01*
Y77606D02*
X4524Y76606D01*
X2474Y78741D02*
Y99994D01*
X4524Y76606D02*
X4674D01*
X4230Y76163D02*
X4674Y76606D01*
X4230Y68263D02*
Y76163D01*
X4074Y68106D02*
X4230Y68263D01*
X10354Y107874D02*
X10354D01*
X2474Y99994D02*
X10354Y107874D01*
X10354D02*
X17982Y115502D01*
X10354Y107874D02*
X18474D01*
X17982Y115502D02*
X18474D01*
X4953Y63346D02*
X10676D01*
X11554Y64225D01*
Y68106D01*
X4074Y64225D02*
X4953Y63346D01*
X4074Y64225D02*
Y68106D01*
D40*
X94543Y39347D02*
X100543Y45346D01*
X34874Y39347D02*
X94543D01*
X25244Y48976D02*
X34874Y39347D01*
X8174Y48976D02*
X25244D01*
D41*
X11554Y51626D02*
Y57870D01*
D42*
X133858Y90551D02*
D03*
Y39370D02*
D03*
X23622Y90551D02*
D03*
Y39370D02*
D03*
D43*
X7874Y7874D02*
D03*
D44*
X49800Y141750D02*
D03*
X5706D02*
D03*
D45*
X49300Y126002D02*
D03*
X6206D02*
D03*
D46*
X18700Y55400D02*
D03*
X92874Y117847D02*
D03*
X100543Y45346D02*
D03*
X128874Y98374D02*
D03*
X40174Y45474D02*
D03*
X121874Y88874D02*
D03*
X47874Y98374D02*
D03*
X55512Y100044D02*
D03*
X32874Y89874D02*
D03*
X41638Y109638D02*
D03*
X18474Y107874D02*
D03*
D47*
X153133Y57115D02*
D03*
X18498Y83858D02*
D03*
Y80709D02*
D03*
Y77559D02*
D03*
Y74410D02*
D03*
Y64961D02*
D03*
Y71260D02*
D03*
Y68110D02*
D03*
X64374Y107346D02*
D03*
X102374Y100374D02*
D03*
X140374Y71260D02*
D03*
X70374Y93374D02*
D03*
X60874Y110846D02*
D03*
X89963Y44856D02*
D03*
X105392Y48864D02*
D03*
X85874Y29847D02*
D03*
X91874D02*
D03*
Y23846D02*
D03*
X85874D02*
D03*
X61874Y85978D02*
D03*
X127874Y27874D02*
D03*
Y21874D02*
D03*
X42138Y13374D02*
D03*
X48138D02*
D03*
Y19374D02*
D03*
X42138D02*
D03*
X24874Y115806D02*
D03*
X140374Y52362D02*
D03*
Y55512D02*
D03*
Y58661D02*
D03*
Y61811D02*
D03*
X65374Y95374D02*
D03*
X89567Y89969D02*
D03*
X76498Y83858D02*
D03*
X77756Y87968D02*
D03*
X24800Y97890D02*
D03*
X30705D02*
D03*
X73874Y60374D02*
D03*
X83661Y93968D02*
D03*
X67946Y87923D02*
D03*
X61874Y88874D02*
D03*
X79724Y89969D02*
D03*
X81693Y91969D02*
D03*
X91535D02*
D03*
X93504Y93968D02*
D03*
X105874Y97874D02*
D03*
X83661Y62512D02*
D03*
X18498Y61811D02*
D03*
X76498Y80709D02*
D03*
X87566Y66423D02*
D03*
X85630Y64512D02*
D03*
X91503Y62423D02*
D03*
X93471Y60423D02*
D03*
X89534Y64423D02*
D03*
X140374Y74410D02*
D03*
Y77559D02*
D03*
X28737Y114243D02*
D03*
M02*
