G04*
G04 #@! TF.GenerationSoftware,Altium Limited,Altium Designer,21.2.1 (34)*
G04*
G04 Layer_Color=65535*
%FSLAX25Y25*%
%MOIN*%
G70*
G04*
G04 #@! TF.SameCoordinates,1518C732-DF2A-4DFD-9B87-9E54171A1C2B*
G04*
G04*
G04 #@! TF.FilePolarity,Positive*
G04*
G01*
G75*
%ADD10C,0.01000*%
%ADD11C,0.00984*%
%ADD12C,0.00500*%
%ADD13C,0.00787*%
%ADD14C,0.00800*%
%ADD15C,0.00100*%
%ADD16R,0.00787X0.03937*%
G36*
X12074Y92739D02*
X13255Y94708D01*
X10893D01*
X12074Y92739D01*
D02*
G37*
G36*
X9419Y113534D02*
Y117471D01*
X12962Y115502D01*
X9419Y113534D01*
D02*
G37*
G36*
X141722Y58293D02*
X146782D01*
Y57543D01*
X141722D01*
Y55906D01*
X141065D01*
Y59939D01*
X141722D01*
Y58293D01*
D02*
G37*
G36*
X145440Y55360D02*
X145505Y55351D01*
X145579Y55342D01*
X145746Y55305D01*
X145940Y55240D01*
X146032Y55194D01*
X146125Y55138D01*
X146217Y55073D01*
X146310Y55009D01*
X146393Y54916D01*
X146476Y54824D01*
Y54814D01*
X146495Y54796D01*
X146513Y54768D01*
X146541Y54722D01*
X146569Y54667D01*
X146606Y54602D01*
X146634Y54519D01*
X146670Y54426D01*
X146707Y54324D01*
X146745Y54213D01*
X146782Y54093D01*
X146809Y53954D01*
X146837Y53806D01*
X146855Y53649D01*
X146865Y53483D01*
X146874Y53307D01*
Y53242D01*
X146865Y53177D01*
Y53075D01*
X146855Y52965D01*
X146837Y52826D01*
X146809Y52678D01*
X146782Y52511D01*
Y52493D01*
X146763Y52437D01*
X146745Y52354D01*
X146717Y52262D01*
X146689Y52150D01*
X146652Y52039D01*
X146606Y51938D01*
X146550Y51854D01*
X145709D01*
X145718Y51864D01*
X145746Y51901D01*
X145792Y51956D01*
X145838Y52039D01*
X145903Y52141D01*
X145967Y52252D01*
X146032Y52391D01*
X146088Y52548D01*
Y52557D01*
X146097Y52567D01*
X146106Y52622D01*
X146134Y52706D01*
X146162Y52816D01*
X146189Y52946D01*
X146208Y53094D01*
X146227Y53242D01*
X146236Y53390D01*
Y53446D01*
X146227Y53501D01*
Y53575D01*
X146208Y53667D01*
X146189Y53769D01*
X146162Y53880D01*
X146125Y53991D01*
X146079Y54102D01*
X146023Y54213D01*
X145958Y54315D01*
X145875Y54408D01*
X145773Y54482D01*
X145662Y54537D01*
X145524Y54583D01*
X145376Y54593D01*
X145366D01*
X145338D01*
X145292Y54583D01*
X145228Y54574D01*
X145098Y54537D01*
X145024Y54509D01*
X144950Y54463D01*
X144941Y54454D01*
X144913Y54435D01*
X144876Y54408D01*
X144830Y54370D01*
X144783Y54315D01*
X144719Y54260D01*
X144663Y54185D01*
X144608Y54102D01*
X144598Y54093D01*
X144580Y54056D01*
X144543Y54001D01*
X144497Y53917D01*
X144432Y53797D01*
X144358Y53658D01*
X144265Y53473D01*
X144210Y53372D01*
X144155Y53260D01*
X144145Y53251D01*
X144136Y53224D01*
X144108Y53177D01*
X144080Y53122D01*
X144044Y53057D01*
X143997Y52974D01*
X143895Y52798D01*
X143766Y52604D01*
X143637Y52419D01*
X143562Y52336D01*
X143498Y52252D01*
X143424Y52178D01*
X143359Y52123D01*
X143341Y52113D01*
X143294Y52086D01*
X143220Y52039D01*
X143119Y51993D01*
X142989Y51938D01*
X142850Y51901D01*
X142693Y51864D01*
X142517Y51854D01*
X142508D01*
X142490D01*
X142453D01*
X142397Y51864D01*
X142341Y51873D01*
X142268Y51882D01*
X142110Y51929D01*
X141925Y51993D01*
X141833Y52039D01*
X141740Y52095D01*
X141648Y52160D01*
X141555Y52243D01*
X141472Y52326D01*
X141389Y52428D01*
X141379Y52437D01*
X141370Y52456D01*
X141352Y52483D01*
X141324Y52530D01*
X141287Y52585D01*
X141250Y52659D01*
X141213Y52733D01*
X141176Y52826D01*
X141139Y52928D01*
X141102Y53029D01*
X141065Y53149D01*
X141028Y53279D01*
X140982Y53557D01*
X140963Y53714D01*
Y54010D01*
X140972Y54084D01*
Y54158D01*
X140991Y54352D01*
X141019Y54555D01*
X141056Y54759D01*
X141102Y54962D01*
X141139Y55046D01*
X141176Y55129D01*
X141981D01*
Y55120D01*
X141962Y55101D01*
X141944Y55073D01*
X141925Y55036D01*
X141897Y54981D01*
X141870Y54926D01*
X141833Y54852D01*
X141796Y54768D01*
X141768Y54685D01*
X141731Y54583D01*
X141675Y54361D01*
X141639Y54102D01*
X141620Y53816D01*
Y53732D01*
X141629Y53631D01*
X141648Y53510D01*
X141675Y53372D01*
X141712Y53233D01*
X141768Y53085D01*
X141842Y52955D01*
X141851Y52946D01*
X141879Y52909D01*
X141935Y52854D01*
X141999Y52798D01*
X142092Y52733D01*
X142193Y52687D01*
X142314Y52650D01*
X142453Y52631D01*
X142471D01*
X142508D01*
X142573Y52641D01*
X142656Y52659D01*
X142748Y52687D01*
X142841Y52724D01*
X142933Y52780D01*
X143026Y52854D01*
X143035Y52863D01*
X143063Y52900D01*
X143109Y52965D01*
X143174Y53066D01*
X143220Y53131D01*
X143257Y53196D01*
X143313Y53279D01*
X143359Y53372D01*
X143414Y53473D01*
X143479Y53593D01*
X143544Y53714D01*
X143609Y53852D01*
Y53862D01*
X143627Y53890D01*
X143646Y53936D01*
X143683Y53991D01*
X143720Y54056D01*
X143757Y54139D01*
X143859Y54315D01*
X143988Y54509D01*
X144127Y54703D01*
X144275Y54879D01*
X144349Y54962D01*
X144423Y55027D01*
X144441Y55046D01*
X144497Y55083D01*
X144571Y55138D01*
X144682Y55203D01*
X144820Y55259D01*
X144968Y55314D01*
X145135Y55351D01*
X145320Y55370D01*
X145329D01*
X145357D01*
X145394D01*
X145440Y55360D01*
D02*
G37*
G36*
X146782Y50485D02*
X145200Y49533D01*
X145191D01*
X145181Y49523D01*
X145126Y49487D01*
X145043Y49431D01*
X144941Y49357D01*
X144830Y49274D01*
X144719Y49191D01*
X144626Y49098D01*
X144552Y49005D01*
X144543Y48996D01*
X144525Y48968D01*
X144497Y48913D01*
X144460Y48848D01*
X144432Y48765D01*
X144404Y48673D01*
X144386Y48571D01*
X144377Y48450D01*
Y47914D01*
X146782D01*
Y47174D01*
X141065D01*
Y49005D01*
X141074Y49061D01*
Y49126D01*
X141084Y49209D01*
X141111Y49394D01*
X141167Y49607D01*
X141241Y49819D01*
X141333Y50032D01*
X141398Y50134D01*
X141472Y50226D01*
Y50236D01*
X141490Y50245D01*
X141546Y50301D01*
X141639Y50375D01*
X141759Y50467D01*
X141916Y50550D01*
X142110Y50624D01*
X142332Y50680D01*
X142462Y50689D01*
X142591Y50698D01*
X142601D01*
X142647D01*
X142702Y50689D01*
X142786Y50680D01*
X142878Y50661D01*
X142989Y50634D01*
X143109Y50596D01*
X143229Y50541D01*
X143359Y50476D01*
X143489Y50393D01*
X143618Y50291D01*
X143747Y50162D01*
X143859Y50023D01*
X143970Y49847D01*
X144062Y49653D01*
X144136Y49431D01*
X144155D01*
Y49440D01*
X144173Y49468D01*
X144201Y49514D01*
X144228Y49570D01*
X144321Y49709D01*
X144441Y49838D01*
X144450Y49847D01*
X144478Y49866D01*
X144525Y49912D01*
X144589Y49958D01*
X144673Y50023D01*
X144783Y50097D01*
X144913Y50190D01*
X145070Y50282D01*
X146782Y51355D01*
Y50485D01*
D02*
G37*
%LPC*%
G36*
X142656Y49931D02*
X142647D01*
X142638D01*
X142582D01*
X142499Y49912D01*
X142406Y49894D01*
X142295Y49856D01*
X142175Y49810D01*
X142064Y49736D01*
X141962Y49635D01*
X141953Y49625D01*
X141925Y49579D01*
X141879Y49514D01*
X141833Y49422D01*
X141796Y49301D01*
X141750Y49163D01*
X141722Y48996D01*
X141712Y48802D01*
Y47914D01*
X143729D01*
Y48839D01*
X143720Y48876D01*
X143710Y48968D01*
X143692Y49079D01*
X143655Y49209D01*
X143599Y49348D01*
X143535Y49477D01*
X143433Y49607D01*
X143414Y49625D01*
X143377Y49662D01*
X143313Y49709D01*
X143220Y49773D01*
X143109Y49829D01*
X142980Y49884D01*
X142832Y49921D01*
X142656Y49931D01*
D02*
G37*
%LPD*%
D10*
X151622Y82854D02*
G03*
X151674Y88709I-3492J2959D01*
G01*
X140526Y88765D02*
G03*
X140474Y82910I3492J-2959D01*
G01*
X140526Y96765D02*
G03*
X140474Y90909I3492J-2959D01*
G01*
X151622Y90854D02*
G03*
X151674Y96710I-3492J2959D01*
G01*
X155756Y131748D02*
G03*
X149900Y131800I-2959J-3492D01*
G01*
X149844Y120652D02*
G03*
X155700Y120600I2959J3492D01*
G01*
X13622Y73651D02*
G03*
X13674Y79506I-3492J2959D01*
G01*
X2526Y79562D02*
G03*
X2474Y73706I3492J-2959D01*
G01*
X140674Y88810D02*
X144374D01*
X140574Y82810D02*
X144374D01*
X147874D02*
X151574D01*
X147874Y88810D02*
X151574D01*
X147874Y96810D02*
X151574D01*
X147874Y90810D02*
X151574D01*
X140574D02*
X144374D01*
X140674Y96810D02*
X144374D01*
X149800Y120800D02*
Y124500D01*
X155800Y120700D02*
Y124500D01*
Y128000D02*
Y131700D01*
X149800Y128000D02*
Y131700D01*
X2674Y79606D02*
X6374D01*
X2574Y73606D02*
X6374D01*
X9874D02*
X13574D01*
X9874Y79606D02*
X13574D01*
X147896Y37764D02*
X150776D01*
X147896Y12961D02*
X150776D01*
X135815Y37764D02*
X139095D01*
X135815Y12961D02*
X139095D01*
X150776D02*
Y37764D01*
X135815Y12961D02*
Y37764D01*
X138295Y32605D02*
X141195D01*
X138295Y18605D02*
Y32605D01*
Y18605D02*
X141195D01*
X147295Y22605D02*
Y28505D01*
X142695Y25605D02*
X145296D01*
X138295D02*
X140895D01*
X3129Y61413D02*
Y64563D01*
Y61413D02*
X12578D01*
Y64563D01*
X3129D02*
X12578D01*
X2662Y44646D02*
X13686D01*
Y36378D02*
Y49764D01*
X2662Y36378D02*
Y49764D01*
D11*
X153362Y114847D02*
G03*
X153362Y114847I-492J0D01*
G01*
D12*
X146621Y84340D02*
Y87293D01*
X145637Y84340D02*
Y87293D01*
Y92340D02*
Y95293D01*
X146621Y92340D02*
Y95293D01*
X151317Y126747D02*
X154270D01*
X151317Y125763D02*
X154270D01*
X8621Y75137D02*
Y78089D01*
X7637Y75137D02*
Y78089D01*
D13*
X132087Y94657D02*
Y98398D01*
Y101547D02*
Y105287D01*
X137206Y94657D02*
Y98398D01*
Y101547D02*
Y105287D01*
X132087D02*
X137206D01*
X132087Y94657D02*
X137206D01*
X3165Y99269D02*
X8283D01*
X3165Y88639D02*
X8283D01*
X3165D02*
Y92379D01*
Y95529D02*
Y99269D01*
X8283Y88639D02*
Y92379D01*
Y95529D02*
Y99269D01*
X151689Y63987D02*
Y69105D01*
X141059Y63987D02*
Y69105D01*
X144799D01*
X147949D02*
X151689D01*
X141059Y63987D02*
X144799D01*
X147949D02*
X151689D01*
X140272Y106346D02*
X152476D01*
X140272Y110315D02*
X152476D01*
X140272Y106346D02*
Y110315D01*
X152476Y106346D02*
Y110315D01*
X9515Y96086D02*
Y99235D01*
X14633D01*
Y96184D02*
Y99235D01*
Y88605D02*
Y91755D01*
X9515Y88605D02*
X14633D01*
X9515D02*
Y91755D01*
D14*
X123756Y3568D02*
X130055D01*
Y9867D01*
X27063Y118607D02*
X33362D01*
X27063Y112308D02*
Y118607D01*
D15*
X78724Y128547D02*
X81324D01*
X75824D02*
X76224D01*
X74124D02*
X75324D01*
X71224D02*
X72224D01*
X70624D02*
X71024D01*
X70024D02*
X70324D01*
X66824D02*
X67124D01*
X79024Y128647D02*
X81324D01*
X78724D02*
X78924D01*
X75824D02*
X76224D01*
X74124D02*
X75424D01*
X71324D02*
X72324D01*
X70724D02*
X71024D01*
X70024D02*
X70424D01*
X68224D02*
X68324D01*
X66924D02*
X67224D01*
X79024Y128746D02*
X81424D01*
X78724D02*
X78824D01*
X76424D02*
X76524D01*
X75824D02*
X76224D01*
X74224D02*
X75424D01*
X71324D02*
X72324D01*
X70624D02*
X71124D01*
X70024D02*
X70424D01*
X68124D02*
X68324D01*
X66924D02*
X67324D01*
X79124Y128847D02*
X81424D01*
X78724D02*
X78824D01*
X76424D02*
X76624D01*
X75824D02*
X76224D01*
X74224D02*
X75424D01*
X71424D02*
X72424D01*
X70624D02*
X71124D01*
X70024D02*
X70424D01*
X68024D02*
X68324D01*
X66924D02*
X67724D01*
X79324Y128946D02*
X81424D01*
X76424D02*
X76624D01*
X76024D02*
X76224D01*
X74324D02*
X75124D01*
X71424D02*
X72424D01*
X70624D02*
X71124D01*
X70124D02*
X70524D01*
X67024D02*
X67624D01*
X79924Y129046D02*
X81424D01*
X79424D02*
X79624D01*
X78324D02*
X78924D01*
X76624D02*
X76724D01*
X76324D02*
X76524D01*
X74424D02*
X75224D01*
X71424D02*
X72424D01*
X70124D02*
X71224D01*
X67024D02*
X67524D01*
X79824Y129147D02*
X81424D01*
X79424D02*
X79724D01*
X78324D02*
X79324D01*
X76324D02*
X76424D01*
X75524D02*
X75624D01*
X74324D02*
X75424D01*
X71424D02*
X72524D01*
X70824D02*
X71224D01*
X70124D02*
X70724D01*
X68424D02*
X68624D01*
X67124D02*
X67524D01*
X78424Y129246D02*
X81324D01*
X74324D02*
X75724D01*
X71424D02*
X72524D01*
X70824D02*
X71224D01*
X70124D02*
X70724D01*
X68524D02*
X68624D01*
X67124D02*
X67624D01*
X78524Y129347D02*
X81324D01*
X76724D02*
X76824D01*
X74324D02*
X75724D01*
X71524D02*
X72524D01*
X70724D02*
X71224D01*
X70124D02*
X70624D01*
X68524D02*
X68624D01*
X68024D02*
X68124D01*
X67124D02*
X67724D01*
X78524Y129446D02*
X81324D01*
X76624D02*
X76824D01*
X75224D02*
X75724D01*
X74324D02*
X75124D01*
X71524D02*
X72524D01*
X70724D02*
X71224D01*
X70124D02*
X70524D01*
X68124D02*
X68224D01*
X67224D02*
X67824D01*
X78524Y129546D02*
X81224D01*
X75224D02*
X75724D01*
X74324D02*
X75124D01*
X71524D02*
X72624D01*
X70724D02*
X71324D01*
X70124D02*
X70524D01*
X68524D02*
X68724D01*
X68124D02*
X68324D01*
X67224D02*
X67824D01*
X78524Y129647D02*
X81224D01*
X75124D02*
X75724D01*
X74324D02*
X75024D01*
X71524D02*
X72624D01*
X70724D02*
X71324D01*
X70124D02*
X70524D01*
X68524D02*
X68824D01*
X67224D02*
X68324D01*
X80424Y129746D02*
X81124D01*
X78624D02*
X80224D01*
X74324D02*
X75824D01*
X71624D02*
X72624D01*
X70824D02*
X71324D01*
X70124D02*
X70524D01*
X68424D02*
X68724D01*
X67324D02*
X68124D01*
X80424Y129847D02*
X81124D01*
X78624D02*
X80324D01*
X75024D02*
X75824D01*
X74224D02*
X74924D01*
X71624D02*
X72624D01*
X70824D02*
X71324D01*
X70224D02*
X70524D01*
X68424D02*
X68724D01*
X67324D02*
X68124D01*
X78624Y129946D02*
X81024D01*
X75124D02*
X75924D01*
X74224D02*
X74924D01*
X71624D02*
X72724D01*
X70824D02*
X71324D01*
X70224D02*
X70524D01*
X68424D02*
X68724D01*
X67424D02*
X68124D01*
X78524Y130046D02*
X80924D01*
X75224D02*
X76024D01*
X74224D02*
X74924D01*
X71724D02*
X72724D01*
X70724D02*
X71424D01*
X70224D02*
X70524D01*
X68424D02*
X68624D01*
X67524D02*
X68124D01*
X78624Y130147D02*
X80824D01*
X75224D02*
X76124D01*
X74224D02*
X74924D01*
X71724D02*
X72724D01*
X70724D02*
X71424D01*
X70224D02*
X70524D01*
X67524D02*
X68624D01*
X78724Y130246D02*
X80724D01*
X75224D02*
X76124D01*
X74124D02*
X74924D01*
X71824D02*
X72724D01*
X70724D02*
X71424D01*
X70224D02*
X70524D01*
X67624D02*
X68624D01*
X78624Y130347D02*
X80624D01*
X75224D02*
X75724D01*
X74124D02*
X74924D01*
X71824D02*
X72724D01*
X70824D02*
X71524D01*
X70224D02*
X70624D01*
X67824D02*
X68524D01*
X78624Y130447D02*
X80524D01*
X75324D02*
X75724D01*
X74224D02*
X74924D01*
X71824D02*
X72724D01*
X71224D02*
X71524D01*
X70824D02*
X71124D01*
X70224D02*
X70624D01*
X67924D02*
X68624D01*
X78424Y130546D02*
X80524D01*
X75424D02*
X75824D01*
X74224D02*
X75124D01*
X71824D02*
X72724D01*
X71224D02*
X71524D01*
X70824D02*
X71124D01*
X70224D02*
X70624D01*
X68024D02*
X68624D01*
X78324Y130647D02*
X80424D01*
X75424D02*
X75824D01*
X74224D02*
X75224D01*
X71824D02*
X72724D01*
X71224D02*
X71524D01*
X70824D02*
X71124D01*
X70324D02*
X70624D01*
X68324D02*
X68724D01*
X77924Y130746D02*
X80324D01*
X75624D02*
X75824D01*
X74524D02*
X75224D01*
X71824D02*
X72624D01*
X71324D02*
X71524D01*
X70724D02*
X71124D01*
X70324D02*
X70624D01*
X68424D02*
X68724D01*
X77824Y130847D02*
X80224D01*
X76024D02*
X76224D01*
X74624D02*
X75324D01*
X73824D02*
X73924D01*
X71924D02*
X72524D01*
X71424D02*
X71624D01*
X70724D02*
X71124D01*
X70324D02*
X70624D01*
X68524D02*
X68724D01*
X77824Y130947D02*
X80224D01*
X75924D02*
X76224D01*
X74724D02*
X75424D01*
X72024D02*
X72524D01*
X71424D02*
X71624D01*
X70724D02*
X71224D01*
X70324D02*
X70624D01*
X68624D02*
X68724D01*
X77824Y131046D02*
X80124D01*
X76024D02*
X76224D01*
X74724D02*
X75424D01*
X72024D02*
X72524D01*
X71424D02*
X71624D01*
X70724D02*
X71224D01*
X70324D02*
X70624D01*
X68624D02*
X68824D01*
X77724Y131147D02*
X80124D01*
X74724D02*
X75524D01*
X72024D02*
X72524D01*
X71524D02*
X71724D01*
X70924D02*
X71224D01*
X70424D02*
X70724D01*
X68624D02*
X68824D01*
X77624Y131246D02*
X80024D01*
X76024D02*
X76124D01*
X74724D02*
X75624D01*
X72124D02*
X72424D01*
X71524D02*
X71724D01*
X70924D02*
X71224D01*
X70424D02*
X70724D01*
X68624D02*
X68824D01*
X77524Y131346D02*
X80024D01*
X76024D02*
X76524D01*
X74724D02*
X75624D01*
X73924D02*
X74024D01*
X72124D02*
X72424D01*
X71624D02*
X71724D01*
X70924D02*
X71224D01*
X70424D02*
X70724D01*
X68624D02*
X68824D01*
X77524Y131447D02*
X79924D01*
X76324D02*
X76624D01*
X74624D02*
X75724D01*
X72124D02*
X72424D01*
X71024D02*
X71324D01*
X70524D02*
X70724D01*
X68524D02*
X68724D01*
X77224Y131546D02*
X79924D01*
X76324D02*
X76624D01*
X74624D02*
X75824D01*
X72124D02*
X72424D01*
X71024D02*
X71324D01*
X70524D02*
X70724D01*
X68624D02*
X68724D01*
X77224Y131647D02*
X79924D01*
X75224D02*
X76024D01*
X74524D02*
X75124D01*
X72224D02*
X72424D01*
X71024D02*
X71324D01*
X70524D02*
X70724D01*
X77524Y131746D02*
X79824D01*
X77224D02*
X77324D01*
X75324D02*
X76024D01*
X74524D02*
X75024D01*
X74024D02*
X74224D01*
X72224D02*
X72424D01*
X71824D02*
X71924D01*
X71124D02*
X71424D01*
X70524D02*
X70824D01*
X77624Y131846D02*
X79824D01*
X77124D02*
X77324D01*
X76224D02*
X76424D01*
X75424D02*
X76024D01*
X74624D02*
X75124D01*
X74024D02*
X74224D01*
X72224D02*
X72524D01*
X71824D02*
X71924D01*
X71224D02*
X71424D01*
X70524D02*
X70824D01*
X76624Y131947D02*
X79724D01*
X76224D02*
X76524D01*
X75524D02*
X76024D01*
X74624D02*
X75124D01*
X74024D02*
X74224D01*
X72224D02*
X72424D01*
X71824D02*
X71924D01*
X71224D02*
X71424D01*
X70524D02*
X70824D01*
X76124Y132046D02*
X79624D01*
X75624D02*
X76024D01*
X74624D02*
X75124D01*
X74024D02*
X74124D01*
X73224D02*
X73324D01*
X72224D02*
X72424D01*
X71224D02*
X71324D01*
X70524D02*
X70924D01*
X75624Y132147D02*
X79624D01*
X74724D02*
X75124D01*
X74024D02*
X74224D01*
X73224D02*
X73324D01*
X72124D02*
X72424D01*
X70524D02*
X70924D01*
X75724Y132246D02*
X79524D01*
X74724D02*
X75124D01*
X74024D02*
X74324D01*
X71824D02*
X72424D01*
X70524D02*
X70924D01*
X75724Y132346D02*
X79424D01*
X75324D02*
X75524D01*
X74724D02*
X75124D01*
X74124D02*
X74324D01*
X71824D02*
X72324D01*
X70624D02*
X70924D01*
X75724Y132447D02*
X79324D01*
X75424D02*
X75524D01*
X74724D02*
X75124D01*
X74124D02*
X74324D01*
X72424D02*
X72524D01*
X71824D02*
X72224D01*
X71224D02*
X71324D01*
X70624D02*
X70924D01*
X75824Y132546D02*
X79224D01*
X74724D02*
X75124D01*
X74224D02*
X74324D01*
X72424D02*
X72524D01*
X71724D02*
X72224D01*
X70624D02*
X70924D01*
X75724Y132647D02*
X79124D01*
X74824D02*
X75224D01*
X74224D02*
X74324D01*
X71624D02*
X72024D01*
X70624D02*
X70924D01*
X75624Y132747D02*
X79024D01*
X74924D02*
X75224D01*
X74224D02*
X74524D01*
X71524D02*
X71924D01*
X70624D02*
X70924D01*
X76024Y132846D02*
X79024D01*
X75624D02*
X75824D01*
X74924D02*
X75324D01*
X74224D02*
X74524D01*
X71524D02*
X71924D01*
X70624D02*
X70924D01*
X75624Y132947D02*
X79024D01*
X74924D02*
X75424D01*
X74324D02*
X74624D01*
X71424D02*
X71824D01*
X70624D02*
X70924D01*
X75824Y133046D02*
X78924D01*
X74924D02*
X75624D01*
X74324D02*
X74624D01*
X72024D02*
X72124D01*
X71424D02*
X71724D01*
X70724D02*
X70924D01*
X75824Y133147D02*
X78924D01*
X75024D02*
X75724D01*
X74324D02*
X74724D01*
X71924D02*
X72124D01*
X71424D02*
X71824D01*
X70724D02*
X70924D01*
X75124Y133247D02*
X79024D01*
X74324D02*
X74724D01*
X71324D02*
X72124D01*
X70724D02*
X70924D01*
X75224Y133346D02*
X79024D01*
X74324D02*
X74924D01*
X71324D02*
X72124D01*
X70724D02*
X70924D01*
X75324Y133447D02*
X78924D01*
X74424D02*
X75124D01*
X71324D02*
X72124D01*
X70724D02*
X70924D01*
X74724Y133546D02*
X78824D01*
X71324D02*
X72124D01*
X70824D02*
X71024D01*
X74824Y133647D02*
X78824D01*
X74224D02*
X74324D01*
X71424D02*
X72324D01*
X70924D02*
X71024D01*
X74824Y133747D02*
X78824D01*
X74224D02*
X74424D01*
X71424D02*
X72324D01*
X70924D02*
X71124D01*
X74924Y133846D02*
X78824D01*
X71524D02*
X72524D01*
X70924D02*
X71224D01*
X75124Y133947D02*
X78924D01*
X71624D02*
X72524D01*
X71024D02*
X71224D01*
X75124Y134046D02*
X78924D01*
X74724D02*
X74824D01*
X71724D02*
X72424D01*
X71124D02*
X71324D01*
X74624Y134146D02*
X78924D01*
X71824D02*
X72424D01*
X71324D02*
X71524D01*
X70824D02*
X70924D01*
X74624Y134247D02*
X78924D01*
X71924D02*
X72524D01*
X71424D02*
X71524D01*
X78224Y134346D02*
X78924D01*
X74624D02*
X77924D01*
X72124D02*
X72724D01*
X78224Y134447D02*
X78824D01*
X74624D02*
X77624D01*
X72224D02*
X72824D01*
X70524D02*
X70624D01*
X78124Y134546D02*
X78824D01*
X74524D02*
X77524D01*
X72324D02*
X73024D01*
X70424D02*
X70624D01*
X78024Y134646D02*
X78624D01*
X74524D02*
X77624D01*
X72424D02*
X73224D01*
X70424D02*
X70624D01*
X74324Y134747D02*
X78224D01*
X72624D02*
X73424D01*
X70424D02*
X70624D01*
X72924Y134846D02*
X77824D01*
X70424D02*
X70624D01*
X73124Y134947D02*
X77824D01*
X70424D02*
X70624D01*
X73324Y135047D02*
X77724D01*
X73324Y135146D02*
X77724D01*
X73624Y135247D02*
X77724D01*
X73324D02*
X73524D01*
X74024Y135346D02*
X77724D01*
X73524D02*
X73824D01*
X74224Y135447D02*
X77624D01*
X73624D02*
X73924D01*
X70424D02*
X70524D01*
X74324Y135547D02*
X77624D01*
X73724D02*
X74124D01*
X70424D02*
X70624D01*
X76624Y135646D02*
X77624D01*
X74524D02*
X76524D01*
X73824D02*
X74324D01*
X70424D02*
X70524D01*
X76624Y135747D02*
X77624D01*
X74624D02*
X76524D01*
X73924D02*
X74424D01*
X70324D02*
X70524D01*
X76924Y135846D02*
X77624D01*
X73924D02*
X76624D01*
X70324D02*
X70524D01*
X76924Y135947D02*
X77524D01*
X75724D02*
X76524D01*
X74224D02*
X75624D01*
X73924D02*
X74024D01*
X69824D02*
X70624D01*
X76924Y136047D02*
X77424D01*
X74224D02*
X76424D01*
X73924D02*
X74024D01*
X69624D02*
X70824D01*
X76924Y136146D02*
X77324D01*
X73924D02*
X76324D01*
X73324D02*
X73424D01*
X69524D02*
X70924D01*
X76924Y136247D02*
X77224D01*
X73824D02*
X76324D01*
X73324D02*
X73624D01*
X70024D02*
X71524D01*
X69424D02*
X69724D01*
X68824D02*
X69024D01*
X76924Y136346D02*
X77224D01*
X73324D02*
X76224D01*
X70424D02*
X71824D01*
X68524D02*
X69624D01*
X67824D02*
X68324D01*
X76524Y136446D02*
X76724D01*
X73424D02*
X76224D01*
X70624D02*
X72024D01*
X67724D02*
X69624D01*
X76624Y136547D02*
X76724D01*
X73524D02*
X76324D01*
X71624D02*
X72224D01*
X70824D02*
X71324D01*
X70224D02*
X70424D01*
X69024D02*
X69524D01*
X67724D02*
X68724D01*
X73524Y136646D02*
X76424D01*
X71824D02*
X72324D01*
X70724D02*
X71424D01*
X70124D02*
X70624D01*
X69924D02*
X70024D01*
X69124D02*
X69424D01*
X68324D02*
X68624D01*
X67724D02*
X67924D01*
X73524Y136747D02*
X76424D01*
X71824D02*
X72324D01*
X69924D02*
X71424D01*
X67724D02*
X67924D01*
X73324Y136846D02*
X76324D01*
X72724D02*
X72924D01*
X71824D02*
X72424D01*
X70024D02*
X71524D01*
X67724D02*
X67924D01*
X73324Y136946D02*
X76224D01*
X72724D02*
X73024D01*
X71924D02*
X72424D01*
X70524D02*
X71524D01*
X67724D02*
X67824D01*
X73324Y137047D02*
X76224D01*
X72824D02*
X73124D01*
X71924D02*
X72424D01*
X71424D02*
X71524D01*
X70724D02*
X71324D01*
X72824Y137146D02*
X76124D01*
X71924D02*
X72524D01*
X71024D02*
X71424D01*
X71924Y137247D02*
X76124D01*
X71024D02*
X71424D01*
X72024Y137346D02*
X76124D01*
X71124D02*
X71524D01*
X67924D02*
X68124D01*
X72124Y137446D02*
X76124D01*
X71224D02*
X71524D01*
X67824D02*
X68224D01*
X72124Y137547D02*
X76124D01*
X71224D02*
X71524D01*
X67824D02*
X68324D01*
X75324Y137646D02*
X76124D01*
X72124D02*
X75124D01*
X71224D02*
X71524D01*
X67724D02*
X68524D01*
X75324Y137747D02*
X76124D01*
X72124D02*
X75124D01*
X71324D02*
X71524D01*
X67724D02*
X68624D01*
X75224Y137847D02*
X76124D01*
X71824D02*
X74924D01*
X71324D02*
X71524D01*
X68224D02*
X68624D01*
X67824D02*
X68024D01*
X75224Y137946D02*
X76124D01*
X71824D02*
X74824D01*
X71324D02*
X71424D01*
X68224D02*
X68724D01*
X75324Y138047D02*
X76024D01*
X71724D02*
X74924D01*
X68024D02*
X68724D01*
X75324Y138146D02*
X76024D01*
X71624D02*
X75024D01*
X67924D02*
X68624D01*
X75324Y138247D02*
X76024D01*
X73124D02*
X75024D01*
X71624D02*
X72924D01*
X67824D02*
X68324D01*
X75224Y138347D02*
X76024D01*
X74724D02*
X74924D01*
X73124D02*
X74524D01*
X71624D02*
X72924D01*
X67724D02*
X68024D01*
X75224Y138446D02*
X75924D01*
X74724D02*
X74924D01*
X73124D02*
X74524D01*
X71624D02*
X72924D01*
X67724D02*
X67924D01*
X75224Y138547D02*
X75924D01*
X73624D02*
X74524D01*
X73124D02*
X73524D01*
X71624D02*
X72924D01*
X67724D02*
X67924D01*
X75124Y138646D02*
X75824D01*
X73624D02*
X74324D01*
X73124D02*
X73424D01*
X71624D02*
X72824D01*
X67724D02*
X67924D01*
X75124Y138747D02*
X75824D01*
X73624D02*
X74224D01*
X73124D02*
X73424D01*
X71424D02*
X72824D01*
X67724D02*
X68024D01*
X75024Y138847D02*
X75824D01*
X73924D02*
X74124D01*
X73624D02*
X73724D01*
X73124D02*
X73324D01*
X71424D02*
X72824D01*
X70924D02*
X71024D01*
X68324D02*
X68424D01*
X67724D02*
X68024D01*
X74924Y138946D02*
X75724D01*
X73924D02*
X74124D01*
X73124D02*
X73324D01*
X72124D02*
X72824D01*
X71324D02*
X71924D01*
X70624D02*
X71024D01*
X68224D02*
X68324D01*
X67124D02*
X68024D01*
X75024Y139047D02*
X75624D01*
X74424D02*
X74524D01*
X73824D02*
X74024D01*
X73024D02*
X73224D01*
X72224D02*
X72724D01*
X71124D02*
X71924D01*
X70624D02*
X71024D01*
X68224D02*
X68324D01*
X68024D02*
X68124D01*
X67124D02*
X67924D01*
X76424Y139146D02*
X77324D01*
X75124D02*
X75524D01*
X74224D02*
X74624D01*
X73724D02*
X73924D01*
X73024D02*
X73224D01*
X72224D02*
X72424D01*
X70624D02*
X71924D01*
X70224D02*
X70424D01*
X68024D02*
X68224D01*
X67524D02*
X67724D01*
X67024D02*
X67124D01*
X75824Y139246D02*
X77724D01*
X75024D02*
X75524D01*
X74124D02*
X74524D01*
X73024D02*
X73224D01*
X72224D02*
X72424D01*
X70624D02*
X71924D01*
X70224D02*
X70324D01*
X68024D02*
X68224D01*
X74924Y139347D02*
X77924D01*
X74124D02*
X74324D01*
X72224D02*
X72324D01*
X70624D02*
X71924D01*
X70224D02*
X70324D01*
X67924D02*
X68224D01*
X74724Y139446D02*
X78124D01*
X74024D02*
X74224D01*
X70324D02*
X72024D01*
X68024D02*
X68124D01*
X74524Y139547D02*
X78324D01*
X71824D02*
X72024D01*
X70824D02*
X71324D01*
X70324D02*
X70724D01*
X74224Y139646D02*
X78424D01*
X71824D02*
X71924D01*
X70924D02*
X71324D01*
X70424D02*
X70724D01*
X74024Y139746D02*
X78524D01*
X70924D02*
X71324D01*
X70424D02*
X70724D01*
X73824Y139847D02*
X78624D01*
X71324D02*
X71524D01*
X70924D02*
X71124D01*
X70524D02*
X70724D01*
X73624Y139946D02*
X78724D01*
X71324D02*
X71524D01*
X70924D02*
X71124D01*
X70624D02*
X70724D01*
X75724Y140047D02*
X78724D01*
X73424D02*
X75624D01*
X70924D02*
X71124D01*
X70624D02*
X70724D01*
X75624Y140147D02*
X78824D01*
X73124D02*
X75424D01*
X70924D02*
X71124D01*
X75524Y140246D02*
X78824D01*
X72824D02*
X75324D01*
X70824D02*
X71124D01*
X75424Y140347D02*
X78924D01*
X72424D02*
X75224D01*
X70724D02*
X71124D01*
X72324Y140446D02*
X78924D01*
X70624D02*
X71024D01*
X68324D02*
X68724D01*
X67524D02*
X67624D01*
X75124Y140547D02*
X78924D01*
X72224D02*
X75024D01*
X70624D02*
X70924D01*
X67924D02*
X68724D01*
X67524D02*
X67624D01*
X71924Y140647D02*
X78924D01*
X67924D02*
X68624D01*
X67524D02*
X67624D01*
X71524Y140746D02*
X78924D01*
X67524D02*
X68624D01*
X71424Y140847D02*
X78924D01*
X67524D02*
X68624D01*
X71124Y140946D02*
X78824D01*
X67524D02*
X68624D01*
X70924Y141047D02*
X78824D01*
X70024D02*
X70224D01*
X67524D02*
X68524D01*
X70624Y141147D02*
X78724D01*
X70024D02*
X70124D01*
X67424D02*
X68524D01*
X70424Y141246D02*
X78724D01*
X67424D02*
X68424D01*
X70324Y141347D02*
X78624D01*
X67524D02*
X68224D01*
X70124Y141446D02*
X78524D01*
X67524D02*
X67724D01*
X69724Y141546D02*
X78424D01*
X67524D02*
X67724D01*
X74124Y141647D02*
X78224D01*
X69524D02*
X73924D01*
X67624D02*
X67724D01*
X74024Y141746D02*
X78124D01*
X69324D02*
X73924D01*
X67624D02*
X67824D01*
X73924Y141847D02*
X77824D01*
X69024D02*
X73724D01*
X67624D02*
X68024D01*
X73924Y141946D02*
X77624D01*
X68924D02*
X73724D01*
X67624D02*
X68024D01*
X73724Y142046D02*
X77424D01*
X68724D02*
X73624D01*
X67724D02*
X68024D01*
X73724Y142147D02*
X77224D01*
X68524D02*
X73524D01*
X67724D02*
X67924D01*
X75524Y142246D02*
X76824D01*
X73624D02*
X75124D01*
X68324D02*
X73424D01*
X67824D02*
X68024D01*
X73524Y142347D02*
X75124D01*
X67824D02*
X73324D01*
X73424Y142446D02*
X75124D01*
X67724D02*
X73224D01*
X67624Y142546D02*
X75224D01*
X67424Y142647D02*
X75224D01*
X67224Y142746D02*
X75224D01*
X73024Y142847D02*
X75224D01*
X67024D02*
X72924D01*
X66824Y142947D02*
X75224D01*
X72624Y143046D02*
X75224D01*
X66624D02*
X72524D01*
X66424Y143147D02*
X75224D01*
X66324Y143246D02*
X75324D01*
X66124Y143347D02*
X75324D01*
X66024Y143447D02*
X75324D01*
X65924Y143546D02*
X75324D01*
X65824Y143647D02*
X75224D01*
X65724Y143746D02*
X75124D01*
X65624Y143846D02*
X75124D01*
X71624Y143947D02*
X75024D01*
X65524D02*
X71524D01*
X65424Y144046D02*
X74924D01*
X65324Y144147D02*
X74824D01*
X65224Y144246D02*
X74624D01*
X65224Y144346D02*
X74524D01*
X65124Y144447D02*
X74424D01*
X65024Y144546D02*
X74224D01*
X64924Y144647D02*
X74124D01*
X64924Y144746D02*
X73924D01*
X64824Y144846D02*
X73824D01*
X64724Y144947D02*
X73624D01*
X64724Y145046D02*
X73424D01*
X64624Y145147D02*
X73224D01*
X64524Y145247D02*
X73024D01*
X64424Y145346D02*
X72724D01*
X64424Y145447D02*
X72424D01*
X69124Y145546D02*
X72224D01*
X64324D02*
X68824D01*
X69224Y145647D02*
X72024D01*
X64324D02*
X68724D01*
X69224Y145747D02*
X71824D01*
X64324D02*
X68424D01*
X69224Y145846D02*
X71524D01*
X67124D02*
X68224D01*
X64224D02*
X67024D01*
X69224Y145947D02*
X71224D01*
X67224D02*
X68024D01*
X64224D02*
X67024D01*
X69324Y146046D02*
X70824D01*
X66724D02*
X67724D01*
X64224D02*
X66424D01*
X70024Y146147D02*
X70224D01*
X69724D02*
X69924D01*
X66524D02*
X67524D01*
X64124D02*
X66024D01*
X66124Y146247D02*
X67324D01*
X64124D02*
X65824D01*
Y146346D02*
X67124D01*
X64024D02*
X65424D01*
X65524Y146447D02*
X66924D01*
X64024D02*
X65224D01*
X65324Y146546D02*
X66624D01*
X64024D02*
X64924D01*
Y146646D02*
X66324D01*
X63924D02*
X64724D01*
X64624Y146747D02*
X66024D01*
X63924D02*
X64524D01*
X63924Y146846D02*
X65624D01*
X63924Y146947D02*
X65324D01*
X63924Y147046D02*
X65024D01*
X63924Y147146D02*
X64724D01*
X63924Y147247D02*
X64424D01*
X64024Y147346D02*
X64124D01*
D16*
X13356Y115502D02*
D03*
M02*
