G04*
G04 #@! TF.GenerationSoftware,Altium Limited,Altium Designer,21.2.1 (34)*
G04*
G04 Layer_Color=2752767*
%FSLAX25Y25*%
%MOIN*%
G70*
G04*
G04 #@! TF.SameCoordinates,1518C732-DF2A-4DFD-9B87-9E54171A1C2B*
G04*
G04*
G04 #@! TF.FilePolarity,Positive*
G04*
G01*
G75*
%ADD73C,0.00200*%
%ADD74C,0.00267*%
D73*
X133058Y89751D02*
Y91351D01*
X134658D01*
Y89751D01*
X133058D01*
Y38570D02*
Y40170D01*
X134658D01*
Y38570D01*
X133058D01*
X22822Y89751D02*
Y91351D01*
X24422D01*
Y89751D01*
X22822D01*
Y38570D02*
Y40170D01*
X24422D01*
Y38570D01*
X22822D01*
X49800Y140950D02*
X49000Y142550D01*
X50600D01*
X49800Y140950D01*
X49300Y125202D02*
X49700Y125602D01*
X50100D01*
X49700Y126002D01*
X50100Y126402D01*
X49700D01*
X49300Y126802D01*
X48900Y126402D01*
X48500D01*
X48900Y126002D01*
X48500Y125602D01*
X48900D01*
X49300Y125202D01*
X5706Y140950D02*
X4906Y142550D01*
X6506D01*
X5706Y140950D01*
X6206Y125202D02*
X6606Y125602D01*
X7006D01*
X6606Y126002D01*
X7006Y126402D01*
X6606D01*
X6206Y126802D01*
X5806Y126402D01*
X5406D01*
X5806Y126002D01*
X5406Y125602D01*
X5806D01*
X6206Y125202D01*
X17900Y54600D02*
X18300Y55400D01*
X17900Y56200D01*
X18700Y55800D01*
X19500Y56200D01*
X19100Y55400D01*
X19500Y54600D01*
X18700Y55000D01*
X17900Y54600D01*
X152733Y56715D02*
Y56315D01*
X153533D01*
Y56715D01*
X153933D01*
Y57515D01*
X153533D01*
Y57915D01*
X152733D01*
Y57515D01*
X152333D01*
Y56715D01*
X152733D01*
X18098Y83458D02*
Y83058D01*
X18898D01*
Y83458D01*
X19298D01*
Y84258D01*
X18898D01*
Y84658D01*
X18098D01*
Y84258D01*
X17698D01*
Y83458D01*
X18098D01*
Y80309D02*
Y79909D01*
X18898D01*
Y80309D01*
X19298D01*
Y81109D01*
X18898D01*
Y81509D01*
X18098D01*
Y81109D01*
X17698D01*
Y80309D01*
X18098D01*
Y77159D02*
Y76759D01*
X18898D01*
Y77159D01*
X19298D01*
Y77959D01*
X18898D01*
Y78359D01*
X18098D01*
Y77959D01*
X17698D01*
Y77159D01*
X18098D01*
Y74010D02*
Y73610D01*
X18898D01*
Y74010D01*
X19298D01*
Y74809D01*
X18898D01*
Y75209D01*
X18098D01*
Y74809D01*
X17698D01*
Y74010D01*
X18098D01*
Y64561D02*
Y64161D01*
X18898D01*
Y64561D01*
X19298D01*
Y65361D01*
X18898D01*
Y65761D01*
X18098D01*
Y65361D01*
X17698D01*
Y64561D01*
X18098D01*
Y70860D02*
Y70460D01*
X18898D01*
Y70860D01*
X19298D01*
Y71660D01*
X18898D01*
Y72060D01*
X18098D01*
Y71660D01*
X17698D01*
Y70860D01*
X18098D01*
Y67710D02*
Y67310D01*
X18898D01*
Y67710D01*
X19298D01*
Y68510D01*
X18898D01*
Y68910D01*
X18098D01*
Y68510D01*
X17698D01*
Y67710D01*
X18098D01*
X63974Y106947D02*
Y106546D01*
X64774D01*
Y106947D01*
X65174D01*
Y107747D01*
X64774D01*
Y108147D01*
X63974D01*
Y107747D01*
X63574D01*
Y106947D01*
X63974D01*
X101974Y99974D02*
Y99574D01*
X102774D01*
Y99974D01*
X103174D01*
Y100774D01*
X102774D01*
Y101174D01*
X101974D01*
Y100774D01*
X101574D01*
Y99974D01*
X101974D01*
X139974Y70860D02*
Y70460D01*
X140774D01*
Y70860D01*
X141174D01*
Y71660D01*
X140774D01*
Y72060D01*
X139974D01*
Y71660D01*
X139574D01*
Y70860D01*
X139974D01*
X69974Y92974D02*
Y92574D01*
X70774D01*
Y92974D01*
X71174D01*
Y93774D01*
X70774D01*
Y94174D01*
X69974D01*
Y93774D01*
X69574D01*
Y92974D01*
X69974D01*
X60474Y110447D02*
Y110047D01*
X61274D01*
Y110447D01*
X61674D01*
Y111247D01*
X61274D01*
Y111646D01*
X60474D01*
Y111247D01*
X60074D01*
Y110447D01*
X60474D01*
X92074Y117046D02*
X92474Y117847D01*
X92074Y118647D01*
X92874Y118246D01*
X93674Y118647D01*
X93274Y117847D01*
X93674Y117046D01*
X92874Y117446D01*
X92074Y117046D01*
X89563Y44456D02*
Y44056D01*
X90363D01*
Y44456D01*
X90763D01*
Y45256D01*
X90363D01*
Y45656D01*
X89563D01*
Y45256D01*
X89163D01*
Y44456D01*
X89563D01*
X104992Y48464D02*
Y48064D01*
X105792D01*
Y48464D01*
X106192D01*
Y49264D01*
X105792D01*
Y49664D01*
X104992D01*
Y49264D01*
X104592D01*
Y48464D01*
X104992D01*
X99743Y44546D02*
X100143Y45346D01*
X99743Y46146D01*
X100543Y45746D01*
X101343Y46146D01*
X100943Y45346D01*
X101343Y44546D01*
X100543Y44946D01*
X99743Y44546D01*
X85474Y29447D02*
Y29046D01*
X86274D01*
Y29447D01*
X86674D01*
Y30246D01*
X86274D01*
Y30646D01*
X85474D01*
Y30246D01*
X85074D01*
Y29447D01*
X85474D01*
X91474D02*
Y29046D01*
X92274D01*
Y29447D01*
X92674D01*
Y30246D01*
X92274D01*
Y30646D01*
X91474D01*
Y30246D01*
X91074D01*
Y29447D01*
X91474D01*
X128074Y97574D02*
X128474Y98374D01*
X128074Y99174D01*
X128874Y98774D01*
X129674Y99174D01*
X129274Y98374D01*
X129674Y97574D01*
X128874Y97974D01*
X128074Y97574D01*
X91474Y23447D02*
Y23046D01*
X92274D01*
Y23447D01*
X92674D01*
Y24247D01*
X92274D01*
Y24646D01*
X91474D01*
Y24247D01*
X91074D01*
Y23447D01*
X91474D01*
X85474D02*
Y23046D01*
X86274D01*
Y23447D01*
X86674D01*
Y24247D01*
X86274D01*
Y24646D01*
X85474D01*
Y24247D01*
X85074D01*
Y23447D01*
X85474D01*
X61474Y85577D02*
Y85177D01*
X62274D01*
Y85577D01*
X62674D01*
Y86378D01*
X62274D01*
Y86778D01*
X61474D01*
Y86378D01*
X61074D01*
Y85577D01*
X61474D01*
X127474Y27474D02*
Y27074D01*
X128274D01*
Y27474D01*
X128674D01*
Y28274D01*
X128274D01*
Y28674D01*
X127474D01*
Y28274D01*
X127074D01*
Y27474D01*
X127474D01*
Y21474D02*
Y21074D01*
X128274D01*
Y21474D01*
X128674D01*
Y22274D01*
X128274D01*
Y22674D01*
X127474D01*
Y22274D01*
X127074D01*
Y21474D01*
X127474D01*
X41738Y12974D02*
Y12574D01*
X42538D01*
Y12974D01*
X42938D01*
Y13774D01*
X42538D01*
Y14174D01*
X41738D01*
Y13774D01*
X41338D01*
Y12974D01*
X41738D01*
X47738D02*
Y12574D01*
X48538D01*
Y12974D01*
X48938D01*
Y13774D01*
X48538D01*
Y14174D01*
X47738D01*
Y13774D01*
X47338D01*
Y12974D01*
X47738D01*
Y18974D02*
Y18574D01*
X48538D01*
Y18974D01*
X48938D01*
Y19774D01*
X48538D01*
Y20174D01*
X47738D01*
Y19774D01*
X47338D01*
Y18974D01*
X47738D01*
X41738D02*
Y18574D01*
X42538D01*
Y18974D01*
X42938D01*
Y19774D01*
X42538D01*
Y20174D01*
X41738D01*
Y19774D01*
X41338D01*
Y18974D01*
X41738D01*
X24474Y115406D02*
Y115006D01*
X25274D01*
Y115406D01*
X25674D01*
Y116206D01*
X25274D01*
Y116606D01*
X24474D01*
Y116206D01*
X24074D01*
Y115406D01*
X24474D01*
X39374Y44674D02*
X39774Y45474D01*
X39374Y46274D01*
X40174Y45874D01*
X40974Y46274D01*
X40574Y45474D01*
X40974Y44674D01*
X40174Y45074D01*
X39374Y44674D01*
X121074Y88074D02*
X121474Y88874D01*
X121074Y89674D01*
X121874Y89274D01*
X122674Y89674D01*
X122274Y88874D01*
X122674Y88074D01*
X121874Y88474D01*
X121074Y88074D01*
X139974Y51962D02*
Y51562D01*
X140774D01*
Y51962D01*
X141174D01*
Y52762D01*
X140774D01*
Y53162D01*
X139974D01*
Y52762D01*
X139574D01*
Y51962D01*
X139974D01*
Y55112D02*
Y54712D01*
X140774D01*
Y55112D01*
X141174D01*
Y55912D01*
X140774D01*
Y56312D01*
X139974D01*
Y55912D01*
X139574D01*
Y55112D01*
X139974D01*
Y58261D02*
Y57861D01*
X140774D01*
Y58261D01*
X141174D01*
Y59061D01*
X140774D01*
Y59461D01*
X139974D01*
Y59061D01*
X139574D01*
Y58261D01*
X139974D01*
Y61411D02*
Y61011D01*
X140774D01*
Y61411D01*
X141174D01*
Y62211D01*
X140774D01*
Y62611D01*
X139974D01*
Y62211D01*
X139574D01*
Y61411D01*
X139974D01*
X47074Y97574D02*
X47474Y98374D01*
X47074Y99174D01*
X47874Y98774D01*
X48674Y99174D01*
X48274Y98374D01*
X48674Y97574D01*
X47874Y97974D01*
X47074Y97574D01*
X54712Y99244D02*
X55112Y100044D01*
X54712Y100844D01*
X55512Y100444D01*
X56312Y100844D01*
X55912Y100044D01*
X56312Y99244D01*
X55512Y99644D01*
X54712Y99244D01*
X64974Y94974D02*
Y94574D01*
X65774D01*
Y94974D01*
X66174D01*
Y95774D01*
X65774D01*
Y96174D01*
X64974D01*
Y95774D01*
X64574D01*
Y94974D01*
X64974D01*
X89167Y89569D02*
Y89169D01*
X89967D01*
Y89569D01*
X90367D01*
Y90368D01*
X89967D01*
Y90768D01*
X89167D01*
Y90368D01*
X88767D01*
Y89569D01*
X89167D01*
X76098Y83458D02*
Y83058D01*
X76898D01*
Y83458D01*
X77298D01*
Y84258D01*
X76898D01*
Y84658D01*
X76098D01*
Y84258D01*
X75698D01*
Y83458D01*
X76098D01*
X77356Y87568D02*
Y87169D01*
X78156D01*
Y87568D01*
X78556D01*
Y88368D01*
X78156D01*
Y88769D01*
X77356D01*
Y88368D01*
X76956D01*
Y87568D01*
X77356D01*
X32074Y89074D02*
X32474Y89874D01*
X32074Y90674D01*
X32874Y90274D01*
X33674Y90674D01*
X33274Y89874D01*
X33674Y89074D01*
X32874Y89474D01*
X32074Y89074D01*
X40838Y108838D02*
X41238Y109638D01*
X40838Y110438D01*
X41638Y110038D01*
X42438Y110438D01*
X42038Y109638D01*
X42438Y108838D01*
X41638Y109238D01*
X40838Y108838D01*
X17674Y107074D02*
X18074Y107874D01*
X17674Y108674D01*
X18474Y108274D01*
X19274Y108674D01*
X18874Y107874D01*
X19274Y107074D01*
X18474Y107474D01*
X17674Y107074D01*
X24400Y97490D02*
Y97090D01*
X25200D01*
Y97490D01*
X25600D01*
Y98290D01*
X25200D01*
Y98690D01*
X24400D01*
Y98290D01*
X24000D01*
Y97490D01*
X24400D01*
X30305D02*
Y97090D01*
X31106D01*
Y97490D01*
X31506D01*
Y98290D01*
X31106D01*
Y98690D01*
X30305D01*
Y98290D01*
X29906D01*
Y97490D01*
X30305D01*
X73474Y59974D02*
Y59574D01*
X74274D01*
Y59974D01*
X74674D01*
Y60774D01*
X74274D01*
Y61174D01*
X73474D01*
Y60774D01*
X73074D01*
Y59974D01*
X73474D01*
X83261Y93568D02*
Y93168D01*
X84061D01*
Y93568D01*
X84461D01*
Y94368D01*
X84061D01*
Y94769D01*
X83261D01*
Y94368D01*
X82861D01*
Y93568D01*
X83261D01*
X67546Y87523D02*
Y87123D01*
X68346D01*
Y87523D01*
X68746D01*
Y88323D01*
X68346D01*
Y88723D01*
X67546D01*
Y88323D01*
X67146D01*
Y87523D01*
X67546D01*
X61474Y88474D02*
Y88074D01*
X62274D01*
Y88474D01*
X62674D01*
Y89274D01*
X62274D01*
Y89674D01*
X61474D01*
Y89274D01*
X61074D01*
Y88474D01*
X61474D01*
X79324Y89569D02*
Y89169D01*
X80124D01*
Y89569D01*
X80524D01*
Y90368D01*
X80124D01*
Y90768D01*
X79324D01*
Y90368D01*
X78924D01*
Y89569D01*
X79324D01*
X81293Y91568D02*
Y91168D01*
X82093D01*
Y91568D01*
X82493D01*
Y92369D01*
X82093D01*
Y92769D01*
X81293D01*
Y92369D01*
X80893D01*
Y91568D01*
X81293D01*
X91135D02*
Y91168D01*
X91935D01*
Y91568D01*
X92335D01*
Y92369D01*
X91935D01*
Y92769D01*
X91135D01*
Y92369D01*
X90735D01*
Y91568D01*
X91135D01*
X93104Y93568D02*
Y93168D01*
X93904D01*
Y93568D01*
X94304D01*
Y94368D01*
X93904D01*
Y94769D01*
X93104D01*
Y94368D01*
X92704D01*
Y93568D01*
X93104D01*
X105474Y97474D02*
Y97074D01*
X106274D01*
Y97474D01*
X106674D01*
Y98274D01*
X106274D01*
Y98674D01*
X105474D01*
Y98274D01*
X105074D01*
Y97474D01*
X105474D01*
X83261Y62112D02*
Y61712D01*
X84061D01*
Y62112D01*
X84461D01*
Y62912D01*
X84061D01*
Y63312D01*
X83261D01*
Y62912D01*
X82861D01*
Y62112D01*
X83261D01*
X18098Y61411D02*
Y61011D01*
X18898D01*
Y61411D01*
X19298D01*
Y62211D01*
X18898D01*
Y62611D01*
X18098D01*
Y62211D01*
X17698D01*
Y61411D01*
X18098D01*
X76098Y80309D02*
Y79909D01*
X76898D01*
Y80309D01*
X77298D01*
Y81109D01*
X76898D01*
Y81509D01*
X76098D01*
Y81109D01*
X75698D01*
Y80309D01*
X76098D01*
X87166Y66023D02*
Y65623D01*
X87966D01*
Y66023D01*
X88366D01*
Y66823D01*
X87966D01*
Y67223D01*
X87166D01*
Y66823D01*
X86766D01*
Y66023D01*
X87166D01*
X85230Y64112D02*
Y63712D01*
X86030D01*
Y64112D01*
X86430D01*
Y64912D01*
X86030D01*
Y65312D01*
X85230D01*
Y64912D01*
X84830D01*
Y64112D01*
X85230D01*
X91103Y62023D02*
Y61623D01*
X91903D01*
Y62023D01*
X92303D01*
Y62823D01*
X91903D01*
Y63223D01*
X91103D01*
Y62823D01*
X90703D01*
Y62023D01*
X91103D01*
X93071Y60023D02*
Y59623D01*
X93871D01*
Y60023D01*
X94271D01*
Y60823D01*
X93871D01*
Y61223D01*
X93071D01*
Y60823D01*
X92671D01*
Y60023D01*
X93071D01*
X89134Y64023D02*
Y63623D01*
X89934D01*
Y64023D01*
X90334D01*
Y64823D01*
X89934D01*
Y65223D01*
X89134D01*
Y64823D01*
X88734D01*
Y64023D01*
X89134D01*
X139974Y74010D02*
Y73610D01*
X140774D01*
Y74010D01*
X141174D01*
Y74809D01*
X140774D01*
Y75209D01*
X139974D01*
Y74809D01*
X139574D01*
Y74010D01*
X139974D01*
Y77159D02*
Y76759D01*
X140774D01*
Y77159D01*
X141174D01*
Y77959D01*
X140774D01*
Y78359D01*
X139974D01*
Y77959D01*
X139574D01*
Y77159D01*
X139974D01*
X28337Y113843D02*
Y113443D01*
X29137D01*
Y113843D01*
X29537D01*
Y114643D01*
X29137D01*
Y115043D01*
X28337D01*
Y114643D01*
X27937D01*
Y113843D01*
X28337D01*
D74*
X8674Y7874D02*
G03*
X8674Y7874I-800J0D01*
G01*
M02*
