G04*
G04 #@! TF.GenerationSoftware,Altium Limited,Altium Designer,21.2.1 (34)*
G04*
G04 Layer_Color=128*
%FSLAX25Y25*%
%MOIN*%
G70*
G04*
G04 #@! TF.SameCoordinates,2553E21A-E740-48D2-A68A-D9BBB884D7A6*
G04*
G04*
G04 #@! TF.FilePolarity,Positive*
G04*
G01*
G75*
%ADD21R,0.03150X0.03347*%
%ADD22R,0.03800X0.03500*%
%ADD50R,0.02360X0.04530*%
%ADD51R,0.01180X0.04530*%
%ADD52R,0.03347X0.03150*%
%ADD53R,0.13386X0.05906*%
%ADD54R,0.05906X0.02362*%
%ADD55R,0.03500X0.03800*%
%ADD56R,0.01772X0.03937*%
G04:AMPARAMS|DCode=57|XSize=38mil|YSize=35mil|CornerRadius=0mil|HoleSize=0mil|Usage=FLASHONLY|Rotation=45.000|XOffset=0mil|YOffset=0mil|HoleType=Round|Shape=Rectangle|*
%AMROTATEDRECTD57*
4,1,4,-0.00106,-0.02581,-0.02581,-0.00106,0.00106,0.02581,0.02581,0.00106,-0.00106,-0.02581,0.0*
%
%ADD57ROTATEDRECTD57*%

%ADD58R,0.02953X0.03937*%
%ADD59O,0.01181X0.05512*%
%ADD60O,0.05512X0.01181*%
%ADD61O,0.01575X0.07874*%
G04:AMPARAMS|DCode=62|XSize=38mil|YSize=35mil|CornerRadius=0mil|HoleSize=0mil|Usage=FLASHONLY|Rotation=315.000|XOffset=0mil|YOffset=0mil|HoleType=Round|Shape=Rectangle|*
%AMROTATEDRECTD62*
4,1,4,-0.02581,0.00106,-0.00106,0.02581,0.02581,-0.00106,0.00106,-0.02581,-0.02581,0.00106,0.0*
%
%ADD62ROTATEDRECTD62*%

%ADD63R,0.07480X0.09450*%
%ADD64R,0.05906X0.04724*%
G36*
X334268Y311856D02*
X335448D01*
Y316386D01*
X334268D01*
Y311856D01*
D01*
D02*
G37*
G36*
X332298Y311866D02*
X333478D01*
Y316386D01*
X332298D01*
Y311866D01*
D01*
D02*
G37*
G36*
X338208Y311856D02*
X339388D01*
Y316386D01*
X338208D01*
Y311856D01*
D01*
D02*
G37*
G36*
X336238Y311866D02*
X337418D01*
Y316396D01*
X336238D01*
Y311866D01*
D01*
D02*
G37*
G36*
X325998Y311876D02*
X328368D01*
Y316406D01*
X325998D01*
Y311876D01*
D01*
D02*
G37*
G36*
X329148D02*
X331508D01*
Y316406D01*
X329148D01*
Y311876D01*
D01*
D02*
G37*
G36*
X320408Y316106D02*
Y315635D01*
X320768Y314766D01*
X321433Y314101D01*
X322302Y313741D01*
X323243D01*
X324112Y314101D01*
X324778Y314766D01*
X325138Y315635D01*
Y316106D01*
D01*
Y320436D01*
Y320906D01*
X324778Y321775D01*
X324112Y322441D01*
X323243Y322801D01*
X322302D01*
X321433Y322441D01*
X320768Y321775D01*
X320408Y320906D01*
Y320436D01*
D01*
Y316106D01*
D01*
D02*
G37*
G36*
Y333036D02*
Y332565D01*
X320768Y331696D01*
X321433Y331031D01*
X322302Y330671D01*
X323243D01*
X324112Y331031D01*
X324778Y331696D01*
X325138Y332565D01*
Y333036D01*
D01*
Y336186D01*
Y336656D01*
X324778Y337525D01*
X324112Y338191D01*
X323243Y338551D01*
X322302D01*
X321433Y338191D01*
X320768Y337525D01*
X320408Y336656D01*
Y336186D01*
D01*
Y333036D01*
D01*
D02*
G37*
G36*
X358124Y338186D02*
X358788Y337522D01*
X359148Y336655D01*
Y336186D01*
Y333036D01*
Y332566D01*
X358788Y331699D01*
X358124Y331035D01*
X357257Y330676D01*
X356318D01*
X355451Y331035D01*
X354787Y331699D01*
X354428Y332566D01*
Y333036D01*
Y336186D01*
Y336655D01*
X354787Y337522D01*
X355451Y338186D01*
X356318Y338546D01*
X357257D01*
X358124Y338186D01*
D02*
G37*
G36*
Y322436D02*
X358788Y321772D01*
X359148Y320905D01*
Y320436D01*
Y316106D01*
Y315636D01*
X358788Y314769D01*
X358124Y314105D01*
X357257Y313746D01*
X356318D01*
X355451Y314105D01*
X354787Y314769D01*
X354428Y315636D01*
Y316106D01*
Y320436D01*
Y320905D01*
X354787Y321772D01*
X355451Y322436D01*
X356318Y322796D01*
X357257D01*
X358124Y322436D01*
D02*
G37*
G36*
X345288Y311866D02*
X344108D01*
Y316386D01*
X345288D01*
Y311866D01*
D02*
G37*
G36*
X341358D02*
X340178D01*
Y316396D01*
X341358D01*
Y311866D01*
D02*
G37*
G36*
X353558Y311856D02*
X351198D01*
Y316386D01*
X353558D01*
Y311856D01*
D02*
G37*
G36*
X350408D02*
X348048D01*
Y316386D01*
X350408D01*
Y311856D01*
D02*
G37*
G36*
X347258D02*
X346078D01*
Y316386D01*
X347258D01*
Y311856D01*
D02*
G37*
G36*
X343328D02*
X342138D01*
Y316386D01*
X343328D01*
Y311856D01*
D02*
G37*
D21*
X451626Y199000D02*
D03*
X457374D02*
D03*
X346626Y307000D02*
D03*
X352374D02*
D03*
X451626Y310000D02*
D03*
X457374D02*
D03*
X352374Y300500D02*
D03*
X346626D02*
D03*
X399563Y213173D02*
D03*
X393815D02*
D03*
X424366Y212563D02*
D03*
X418618D02*
D03*
D22*
X432100Y310000D02*
D03*
X439000D02*
D03*
X348500Y293000D02*
D03*
X355400D02*
D03*
X404477Y332863D02*
D03*
X411377D02*
D03*
X458000Y207000D02*
D03*
X451100D02*
D03*
X369900Y293000D02*
D03*
X363000D02*
D03*
X395737Y332863D02*
D03*
X388837Y332863D02*
D03*
X380362D02*
D03*
X373462D02*
D03*
X366562Y305859D02*
D03*
X373462Y305859D02*
D03*
D50*
X352378Y314126D02*
D03*
X349228D02*
D03*
X330328Y314136D02*
D03*
X327178D02*
D03*
D51*
X346668Y314126D02*
D03*
X344698D02*
D03*
X342728D02*
D03*
X340758D02*
D03*
X338798D02*
D03*
X336828D02*
D03*
X334858Y314116D02*
D03*
X332888Y314126D02*
D03*
D52*
X364300Y318226D02*
D03*
Y323974D02*
D03*
D53*
X332611Y300875D02*
D03*
Y215442D02*
D03*
X454657Y300874D02*
D03*
Y215441D02*
D03*
D54*
X341469Y228630D02*
D03*
X323752Y230599D02*
D03*
X341469Y232568D02*
D03*
X323752Y234536D02*
D03*
X341469Y236505D02*
D03*
X323752Y238473D02*
D03*
X341469Y240441D02*
D03*
X323752Y242410D02*
D03*
X341469Y244378D02*
D03*
X323752Y246347D02*
D03*
X341469Y248316D02*
D03*
X323752Y250284D02*
D03*
X341469Y252253D02*
D03*
X323752Y254221D02*
D03*
X341469Y256190D02*
D03*
X323752Y258158D02*
D03*
X341469Y260127D02*
D03*
X323752Y262095D02*
D03*
X341469Y264064D02*
D03*
X323752Y266032D02*
D03*
X341469Y268001D02*
D03*
X323752Y269969D02*
D03*
X341469Y271938D02*
D03*
X323752Y273906D02*
D03*
X341469Y275875D02*
D03*
X323752Y277843D02*
D03*
X341469Y279812D02*
D03*
X323752Y281780D02*
D03*
X341469Y283749D02*
D03*
X323752Y285717D02*
D03*
X341469Y287686D02*
D03*
X445799Y228630D02*
D03*
X463515Y230598D02*
D03*
X445799Y232567D02*
D03*
X463515Y234535D02*
D03*
X445799Y236504D02*
D03*
X463515Y238472D02*
D03*
X445799Y240441D02*
D03*
X463515Y242409D02*
D03*
X445799Y244378D02*
D03*
X463515Y246346D02*
D03*
X445799Y248315D02*
D03*
X463515Y250283D02*
D03*
X445799Y252252D02*
D03*
X463515Y254220D02*
D03*
X445799Y256189D02*
D03*
X463515Y258157D02*
D03*
X445799Y260126D02*
D03*
X463515Y262094D02*
D03*
X445799Y264063D02*
D03*
X463515Y266031D02*
D03*
X445799Y268000D02*
D03*
X463515Y269968D02*
D03*
X445799Y271937D02*
D03*
X463515Y273905D02*
D03*
X445799Y275874D02*
D03*
X463515Y277842D02*
D03*
X445799Y279811D02*
D03*
X463515Y281779D02*
D03*
X445799Y283748D02*
D03*
X463515Y285716D02*
D03*
X445799Y287685D02*
D03*
D55*
X366500Y202500D02*
D03*
Y209400D02*
D03*
X467000Y316900D02*
D03*
Y310000D02*
D03*
X376000Y226900D02*
D03*
Y220000D02*
D03*
D56*
X431860Y333500D02*
D03*
X435600Y333500D02*
D03*
X439340Y333500D02*
D03*
X439340Y322500D02*
D03*
X435600D02*
D03*
X431860D02*
D03*
D57*
X369516Y245382D02*
D03*
X374395Y250262D02*
D03*
D58*
X319500Y291500D02*
D03*
Y305673D02*
D03*
X376000Y199000D02*
D03*
Y213173D02*
D03*
D59*
X384395Y295218D02*
D03*
X386363D02*
D03*
X388332D02*
D03*
X390300D02*
D03*
X392269D02*
D03*
X394237D02*
D03*
X396206D02*
D03*
X398174D02*
D03*
X400143D02*
D03*
X402111D02*
D03*
X404080D02*
D03*
X406048D02*
D03*
X408017D02*
D03*
X409985D02*
D03*
X411954Y295218D02*
D03*
X413922D02*
D03*
X413922Y248762D02*
D03*
X411954D02*
D03*
X409985Y248762D02*
D03*
X408017Y248762D02*
D03*
X406048Y248762D02*
D03*
X404080D02*
D03*
X402111D02*
D03*
X400143D02*
D03*
X398174D02*
D03*
X396206D02*
D03*
X394237D02*
D03*
X392269D02*
D03*
X390300D02*
D03*
X388332D02*
D03*
X386363D02*
D03*
X384395D02*
D03*
D60*
X422387Y286754D02*
D03*
Y284785D02*
D03*
Y282817D02*
D03*
X422387Y280848D02*
D03*
X422387Y278880D02*
D03*
Y276911D02*
D03*
X422387Y274943D02*
D03*
Y272974D02*
D03*
Y271006D02*
D03*
Y269037D02*
D03*
Y267069D02*
D03*
Y265100D02*
D03*
X422387Y263132D02*
D03*
X422387Y261163D02*
D03*
X422387Y259195D02*
D03*
Y257226D02*
D03*
X375930D02*
D03*
Y259195D02*
D03*
Y261163D02*
D03*
X375930Y263132D02*
D03*
X375930Y265100D02*
D03*
Y267069D02*
D03*
Y269037D02*
D03*
Y271006D02*
D03*
Y272974D02*
D03*
Y274943D02*
D03*
Y276911D02*
D03*
Y278880D02*
D03*
X375930Y280848D02*
D03*
X375930Y282817D02*
D03*
X375930Y284785D02*
D03*
Y286754D02*
D03*
D61*
X404839Y229338D02*
D03*
X396571D02*
D03*
X413106D02*
D03*
X421374D02*
D03*
X393815D02*
D03*
X391059D02*
D03*
X402083D02*
D03*
X399327D02*
D03*
X410350D02*
D03*
X407594D02*
D03*
X415862D02*
D03*
X418618D02*
D03*
D62*
X428801Y245382D02*
D03*
X423922Y250262D02*
D03*
D63*
X401323Y319384D02*
D03*
X385183Y319384D02*
D03*
D64*
X373462Y324873D02*
D03*
X373462Y313849D02*
D03*
M02*
