G04*
G04 #@! TF.GenerationSoftware,Altium Limited,Altium Designer,21.2.1 (34)*
G04*
G04 Layer_Physical_Order=2*
G04 Layer_Color=16711680*
%FSLAX25Y25*%
%MOIN*%
G70*
G04*
G04 #@! TF.SameCoordinates,2553E21A-E740-48D2-A68A-D9BBB884D7A6*
G04*
G04*
G04 #@! TF.FilePolarity,Positive*
G04*
G01*
G75*
%ADD11C,0.01000*%
%ADD16C,0.00800*%
%ADD21R,0.03150X0.03347*%
%ADD22R,0.03800X0.03500*%
%ADD27C,0.01600*%
%ADD43O,0.04720X0.09060*%
%ADD44O,0.04720X0.07870*%
%ADD45C,0.04800*%
%ADD46C,0.08600*%
%ADD47C,0.02500*%
%ADD48C,0.03000*%
%ADD49C,0.02800*%
%ADD50R,0.02360X0.04530*%
%ADD51R,0.01180X0.04530*%
%ADD52R,0.03347X0.03150*%
%ADD53R,0.13386X0.05906*%
%ADD54R,0.05906X0.02362*%
%ADD55R,0.03500X0.03800*%
%ADD56R,0.01772X0.03937*%
G04:AMPARAMS|DCode=57|XSize=38mil|YSize=35mil|CornerRadius=0mil|HoleSize=0mil|Usage=FLASHONLY|Rotation=45.000|XOffset=0mil|YOffset=0mil|HoleType=Round|Shape=Rectangle|*
%AMROTATEDRECTD57*
4,1,4,-0.00106,-0.02581,-0.02581,-0.00106,0.00106,0.02581,0.02581,0.00106,-0.00106,-0.02581,0.0*
%
%ADD57ROTATEDRECTD57*%

%ADD58R,0.02953X0.03937*%
%ADD59O,0.01181X0.05512*%
%ADD60O,0.05512X0.01181*%
%ADD61O,0.01575X0.07874*%
G04:AMPARAMS|DCode=62|XSize=38mil|YSize=35mil|CornerRadius=0mil|HoleSize=0mil|Usage=FLASHONLY|Rotation=315.000|XOffset=0mil|YOffset=0mil|HoleType=Round|Shape=Rectangle|*
%AMROTATEDRECTD62*
4,1,4,-0.02581,0.00106,-0.00106,0.02581,0.02581,-0.00106,0.00106,-0.02581,-0.02581,0.00106,0.0*
%
%ADD62ROTATEDRECTD62*%

%ADD63R,0.07480X0.09450*%
%ADD64R,0.05906X0.04724*%
G36*
X322768Y341638D02*
X326017D01*
X326017Y341638D01*
X437500Y341638D01*
Y336963D01*
X437486Y336469D01*
X437000Y336469D01*
X436100D01*
Y333500D01*
Y330532D01*
X437486Y330532D01*
X437500Y330037D01*
Y325538D01*
X437186Y325168D01*
X434121Y325168D01*
X433746Y325468D01*
X433638Y325468D01*
X432360D01*
Y322500D01*
Y319531D01*
X433746D01*
X433877Y319636D01*
X434335Y319415D01*
X434376Y319334D01*
Y317474D01*
X434366Y317416D01*
X434352Y317374D01*
X434344Y317359D01*
X434343Y317357D01*
X434341Y317356D01*
X434326Y317348D01*
X434284Y317334D01*
X434226Y317323D01*
X422600D01*
X422132Y317230D01*
X421735Y316965D01*
X417930Y313160D01*
X417879Y313124D01*
X417831Y313094D01*
X417786Y313071D01*
X417744Y313054D01*
X417703Y313042D01*
X417664Y313034D01*
X417624Y313029D01*
X417552Y313026D01*
X417495Y313013D01*
X417175D01*
X416458Y312716D01*
X415910Y312168D01*
X415613Y311451D01*
Y311131D01*
X415600Y311074D01*
X415597Y311002D01*
X415592Y310962D01*
X415584Y310923D01*
X415572Y310882D01*
X415555Y310840D01*
X415532Y310795D01*
X415502Y310747D01*
X415466Y310696D01*
X407152Y302382D01*
X406886Y301985D01*
X406793Y301517D01*
Y299354D01*
X406548Y299160D01*
Y295218D01*
Y291531D01*
X406669Y291555D01*
X407195Y291906D01*
X407361Y291939D01*
X407513Y291837D01*
X408017Y291737D01*
X408364Y291806D01*
X408771Y291566D01*
X408864Y291465D01*
Y286715D01*
X408864Y286715D01*
X408949Y286285D01*
X409192Y285922D01*
X410256Y284858D01*
X410128Y284278D01*
X409695Y284099D01*
X409466Y283870D01*
X409414Y283836D01*
X409337Y283763D01*
X409278Y283713D01*
X409222Y283673D01*
X409169Y283641D01*
X409118Y283615D01*
X409069Y283595D01*
X409020Y283579D01*
X408971Y283569D01*
X408959Y283567D01*
X408819D01*
X405201Y287185D01*
Y291150D01*
X405548Y291393D01*
Y295218D01*
Y298906D01*
X405428Y298882D01*
X404902Y298530D01*
X404736Y298497D01*
X404583Y298599D01*
X404080Y298699D01*
X403576Y298599D01*
X403149Y298314D01*
X403042D01*
X402615Y298599D01*
X402111Y298699D01*
X401608Y298599D01*
X401522Y298542D01*
X401127Y298341D01*
X400732Y298542D01*
X400646Y298599D01*
X400143Y298699D01*
X399639Y298599D01*
X399554Y298542D01*
X399159Y298341D01*
X398763Y298542D01*
X398678Y298599D01*
X398174Y298699D01*
X397671Y298599D01*
X397585Y298542D01*
X397190Y298341D01*
X396795Y298542D01*
X396709Y298599D01*
X396206Y298699D01*
X395961Y298651D01*
X395488Y298975D01*
X395461Y299022D01*
Y305024D01*
X397636Y307200D01*
X402200D01*
X407000Y312000D01*
X407000Y327000D01*
X404087Y329913D01*
X404294Y330413D01*
X407077D01*
Y335313D01*
X401877D01*
Y332432D01*
X401876Y332430D01*
X401877Y332426D01*
Y332051D01*
X401841Y332000D01*
X401600Y331716D01*
X401247Y331363D01*
X398637D01*
Y332363D01*
X392837D01*
Y331363D01*
X391437D01*
Y335313D01*
X386237D01*
Y332643D01*
X385972Y332378D01*
X385707Y331981D01*
X385702Y331958D01*
X385107Y331363D01*
X383262D01*
Y332363D01*
X377462D01*
Y331363D01*
X376062D01*
Y335313D01*
X370862D01*
Y330862D01*
X368000Y328000D01*
Y312000D01*
X371229Y308771D01*
X371038Y308309D01*
X370862D01*
Y303409D01*
X370398Y303322D01*
X369462D01*
Y305359D01*
X366562D01*
X363662D01*
Y303322D01*
X359200D01*
X359200Y303322D01*
X358771Y303236D01*
X358407Y302993D01*
X358407Y302993D01*
X355411Y299997D01*
X355403Y300000D01*
X352374D01*
X349799D01*
Y297827D01*
X352587D01*
X352779Y297365D01*
X351207Y295793D01*
X350978Y295450D01*
X345900D01*
Y294640D01*
X345900Y294640D01*
X345816Y294606D01*
X345683Y294570D01*
X345503Y294541D01*
X345375Y294529D01*
X343000D01*
X342415Y294413D01*
X341919Y294081D01*
X340387Y292550D01*
X340056Y292054D01*
X339939Y291469D01*
Y290092D01*
X339928Y289964D01*
X339898Y289783D01*
X339863Y289650D01*
X339829Y289567D01*
X339829Y289567D01*
X338537D01*
X338528Y289568D01*
X338520Y289567D01*
X337816D01*
Y289250D01*
X337361Y289215D01*
X330686D01*
X330100Y289099D01*
X329604Y288767D01*
X328084Y287246D01*
X327802D01*
X327542Y287262D01*
X327405Y287278D01*
Y287598D01*
X326702D01*
X326693Y287600D01*
X326684Y287598D01*
X325392D01*
X325392Y287598D01*
X325358Y287682D01*
X325323Y287815D01*
X325293Y287995D01*
X325282Y288123D01*
Y290248D01*
X325165Y290833D01*
X324834Y291329D01*
X323581Y292581D01*
X323085Y292913D01*
X322500Y293029D01*
X322140D01*
X322034Y293038D01*
X321966Y293049D01*
X321678Y293457D01*
X321676Y293465D01*
Y294168D01*
X321114D01*
X321094Y294226D01*
X321065Y294356D01*
X321029Y294702D01*
Y297499D01*
X321038Y297596D01*
X321047Y297657D01*
X321057Y297704D01*
X321059Y297711D01*
X321280Y297932D01*
X321600Y298704D01*
Y299539D01*
X321280Y300311D01*
X320690Y300902D01*
X319918Y301221D01*
X319082D01*
X318310Y300902D01*
X317720Y300311D01*
X317400Y299539D01*
Y298704D01*
X317720Y297932D01*
X317941Y297711D01*
X317943Y297704D01*
X317953Y297657D01*
X317961Y297602D01*
X317971Y297466D01*
Y294655D01*
X317963Y294555D01*
X317937Y294368D01*
X317906Y294226D01*
X317886Y294168D01*
X317324D01*
Y293465D01*
X317322Y293457D01*
X317324Y293448D01*
Y288831D01*
X321676D01*
Y288903D01*
X322176Y289170D01*
X322223Y289139D01*
Y288123D01*
X322212Y287995D01*
X322182Y287815D01*
X322146Y287682D01*
X322112Y287598D01*
X322112Y287598D01*
X320100D01*
Y284161D01*
X320100Y283836D01*
X320100Y283336D01*
Y280224D01*
X320100Y279899D01*
X320100Y279399D01*
Y276287D01*
X320100Y275962D01*
X320100Y275462D01*
Y272350D01*
X320100Y272025D01*
X320100Y271525D01*
Y268413D01*
X320100Y268088D01*
X320100Y267588D01*
Y264476D01*
X320100Y264151D01*
X320100Y263651D01*
Y260214D01*
X320100D01*
Y260039D01*
X320100D01*
Y256602D01*
X320100Y256277D01*
X320100Y255696D01*
X319746Y255343D01*
X318721D01*
X318292Y255257D01*
X317928Y255014D01*
X317928Y255014D01*
X317709Y254795D01*
X317699Y254787D01*
X317657Y254760D01*
X317612Y254736D01*
X317563Y254716D01*
X317509Y254698D01*
X317448Y254683D01*
X317380Y254673D01*
X317304Y254666D01*
X317197Y254663D01*
X317136Y254650D01*
X316812D01*
X316362Y254464D01*
X315862Y254773D01*
Y334732D01*
X315861Y334739D01*
X315993Y336080D01*
X316386Y337376D01*
X317024Y338570D01*
X317883Y339616D01*
X318930Y340476D01*
X320124Y341114D01*
X321420Y341507D01*
X322761Y341639D01*
X322768Y341638D01*
D02*
G37*
G36*
X440212Y334405D02*
X440242Y334320D01*
X440293Y334245D01*
X440364Y334180D01*
X440455Y334125D01*
X440566Y334080D01*
X440698Y334045D01*
X440850Y334020D01*
X441022Y334005D01*
X441214Y334000D01*
Y333000D01*
X441022Y332995D01*
X440850Y332980D01*
X440698Y332955D01*
X440566Y332920D01*
X440455Y332875D01*
X440364Y332820D01*
X440293Y332755D01*
X440242Y332680D01*
X440212Y332595D01*
X440202Y332500D01*
Y334500D01*
X440212Y334405D01*
D02*
G37*
G36*
X404153Y331125D02*
X404069Y331175D01*
X403972Y331198D01*
X403862Y331194D01*
X403739Y331164D01*
X403604Y331106D01*
X403456Y331022D01*
X403296Y330911D01*
X403123Y330773D01*
X402937Y330609D01*
X402739Y330418D01*
X401882Y330975D01*
X402087Y331187D01*
X402407Y331563D01*
X402522Y331728D01*
X402608Y331877D01*
X402664Y332011D01*
X402690Y332129D01*
X402686Y332231D01*
X402652Y332318D01*
X402589Y332389D01*
X404153Y331125D01*
D02*
G37*
G36*
X460229Y330782D02*
X460119Y330887D01*
X460007Y330980D01*
X459891Y331063D01*
X459771Y331134D01*
X459649Y331195D01*
X459522Y331244D01*
X459393Y331283D01*
X459261Y331310D01*
X459125Y331327D01*
X458986Y331332D01*
Y332332D01*
X459125Y332338D01*
X459261Y332354D01*
X459393Y332382D01*
X459522Y332420D01*
X459649Y332470D01*
X459771Y332530D01*
X459891Y332602D01*
X460007Y332684D01*
X460119Y332778D01*
X460229Y332882D01*
Y330782D01*
D02*
G37*
G36*
X374186Y331117D02*
X374118Y331093D01*
X374058Y331053D01*
X374006Y330997D01*
X373962Y330925D01*
X373926Y330837D01*
X373898Y330733D01*
X373878Y330613D01*
X373866Y330477D01*
X373862Y330325D01*
X373062D01*
X373058Y330477D01*
X373046Y330613D01*
X373026Y330733D01*
X372998Y330837D01*
X372962Y330925D01*
X372918Y330997D01*
X372866Y331053D01*
X372806Y331093D01*
X372738Y331117D01*
X372662Y331125D01*
X374262D01*
X374186Y331117D01*
D02*
G37*
G36*
X462803Y331666D02*
X462817Y331520D01*
X462841Y331380D01*
X462875Y331245D01*
X462919Y331115D01*
X462973Y330991D01*
X463037Y330873D01*
X463111Y330759D01*
X463196Y330652D01*
X463290Y330549D01*
X462583Y329842D01*
X462481Y329937D01*
X462373Y330021D01*
X462260Y330096D01*
X462141Y330160D01*
X462017Y330214D01*
X461888Y330258D01*
X461753Y330292D01*
X461612Y330315D01*
X461466Y330329D01*
X461315Y330332D01*
X462800Y331817D01*
X462803Y331666D01*
D02*
G37*
G36*
X373866Y327869D02*
X373878Y327730D01*
X373898Y327609D01*
X373926Y327503D01*
X373962Y327414D01*
X374006Y327341D01*
X374058Y327284D01*
X374118Y327243D01*
X374186Y327219D01*
X374262Y327211D01*
X372662D01*
X372738Y327219D01*
X372806Y327243D01*
X372866Y327284D01*
X372918Y327341D01*
X372962Y327414D01*
X372998Y327503D01*
X373026Y327609D01*
X373046Y327730D01*
X373058Y327869D01*
X373062Y328023D01*
X373862D01*
X373866Y327869D01*
D02*
G37*
G36*
X385688Y324907D02*
X385703Y324737D01*
X385728Y324587D01*
X385763Y324457D01*
X385808Y324347D01*
X385863Y324257D01*
X385928Y324187D01*
X386003Y324137D01*
X386088Y324107D01*
X386183Y324097D01*
X384183D01*
X384278Y324107D01*
X384363Y324137D01*
X384438Y324187D01*
X384503Y324257D01*
X384558Y324347D01*
X384603Y324457D01*
X384638Y324587D01*
X384663Y324737D01*
X384678Y324907D01*
X384683Y325097D01*
X385683D01*
X385688Y324907D01*
D02*
G37*
G36*
X401828Y324907D02*
X401843Y324737D01*
X401868Y324587D01*
X401903Y324457D01*
X401948Y324347D01*
X402003Y324257D01*
X402068Y324187D01*
X402143Y324137D01*
X402228Y324107D01*
X402323Y324097D01*
X400323D01*
X400418Y324107D01*
X400503Y324137D01*
X400578Y324187D01*
X400643Y324257D01*
X400698Y324347D01*
X400743Y324457D01*
X400778Y324587D01*
X400803Y324737D01*
X400818Y324907D01*
X400823Y325097D01*
X401823D01*
X401828Y324907D01*
D02*
G37*
G36*
X376399Y323634D02*
X376424Y323566D01*
X376465Y323506D01*
X376522Y323454D01*
X376595Y323410D01*
X376685Y323374D01*
X376790Y323346D01*
X376911Y323326D01*
X377049Y323314D01*
X377202Y323310D01*
Y322510D01*
X376402Y322522D01*
X376390Y323710D01*
X376399Y323634D01*
D02*
G37*
G36*
X440143Y320533D02*
X440079Y320503D01*
X440023Y320454D01*
X439975Y320384D01*
X439934Y320293D01*
X439900Y320183D01*
X439874Y320054D01*
X439855Y319903D01*
X439844Y319734D01*
X439840Y319544D01*
X438840D01*
X438836Y319734D01*
X438806Y320054D01*
X438780Y320183D01*
X438747Y320293D01*
X438706Y320384D01*
X438657Y320454D01*
X438601Y320503D01*
X438537Y320533D01*
X438466Y320544D01*
X440214D01*
X440143Y320533D01*
D02*
G37*
G36*
X436403D02*
X436339Y320503D01*
X436283Y320454D01*
X436235Y320384D01*
X436194Y320293D01*
X436160Y320183D01*
X436134Y320054D01*
X436115Y319903D01*
X436104Y319734D01*
X436100Y319544D01*
X435100D01*
X435096Y319734D01*
X435066Y320054D01*
X435040Y320183D01*
X435007Y320293D01*
X434965Y320384D01*
X434917Y320454D01*
X434861Y320503D01*
X434797Y320533D01*
X434726Y320544D01*
X436474D01*
X436403Y320533D01*
D02*
G37*
G36*
X467505Y319596D02*
X467520Y319424D01*
X467545Y319272D01*
X467580Y319140D01*
X467625Y319029D01*
X467680Y318938D01*
X467745Y318867D01*
X467820Y318816D01*
X467905Y318786D01*
X468000Y318776D01*
X466000D01*
X466095Y318786D01*
X466180Y318816D01*
X466255Y318867D01*
X466320Y318938D01*
X466375Y319029D01*
X466420Y319140D01*
X466455Y319272D01*
X466480Y319424D01*
X466495Y319596D01*
X466500Y319788D01*
X467500D01*
X467505Y319596D01*
D02*
G37*
G36*
X436110Y317410D02*
X436140Y317240D01*
X436190Y317090D01*
X436260Y316960D01*
X436350Y316850D01*
X436460Y316760D01*
X436590Y316690D01*
X436740Y316640D01*
X436910Y316610D01*
X437100Y316600D01*
X435600Y315600D01*
X434100Y316600D01*
X434290Y316610D01*
X434460Y316640D01*
X434610Y316690D01*
X434740Y316760D01*
X434850Y316850D01*
X434940Y316960D01*
X435010Y317090D01*
X435060Y317240D01*
X435090Y317410D01*
X435100Y317600D01*
X436100D01*
X436110Y317410D01*
D02*
G37*
G36*
X439840Y316100D02*
X438840Y314600D01*
X438830Y314790D01*
X438800Y314960D01*
X438750Y315110D01*
X438680Y315240D01*
X438590Y315350D01*
X438480Y315440D01*
X438350Y315510D01*
X438200Y315560D01*
X438030Y315590D01*
X437840Y315600D01*
Y316600D01*
X438030Y316610D01*
X438200Y316640D01*
X438350Y316690D01*
X438480Y316760D01*
X438590Y316850D01*
X438680Y316960D01*
X438750Y317090D01*
X438800Y317240D01*
X438830Y317410D01*
X438840Y317600D01*
X439840Y316100D01*
D02*
G37*
G36*
X386088Y314673D02*
X386003Y314643D01*
X385928Y314592D01*
X385863Y314522D01*
X385808Y314430D01*
X385763Y314319D01*
X385728Y314188D01*
X385703Y314036D01*
X385688Y313864D01*
X385683Y313671D01*
X384683D01*
X384678Y313864D01*
X384663Y314036D01*
X384638Y314188D01*
X384603Y314319D01*
X384558Y314430D01*
X384503Y314522D01*
X384438Y314592D01*
X384363Y314643D01*
X384278Y314673D01*
X384183Y314683D01*
X386183D01*
X386088Y314673D01*
D02*
G37*
G36*
X402228Y314673D02*
X402143Y314643D01*
X402068Y314592D01*
X402003Y314522D01*
X401948Y314430D01*
X401903Y314319D01*
X401868Y314188D01*
X401843Y314036D01*
X401828Y313864D01*
X401823Y313671D01*
X400823D01*
X400818Y313864D01*
X400803Y314036D01*
X400778Y314188D01*
X400743Y314319D01*
X400698Y314430D01*
X400643Y314522D01*
X400578Y314592D01*
X400503Y314643D01*
X400418Y314673D01*
X400323Y314683D01*
X402323D01*
X402228Y314673D01*
D02*
G37*
G36*
X439845Y312546D02*
X439860Y312374D01*
X439885Y312222D01*
X439920Y312090D01*
X439965Y311979D01*
X440020Y311888D01*
X440085Y311817D01*
X440160Y311767D01*
X440245Y311736D01*
X440340Y311726D01*
X438340D01*
X438435Y311736D01*
X438520Y311767D01*
X438595Y311817D01*
X438660Y311888D01*
X438715Y311979D01*
X438760Y312090D01*
X438795Y312222D01*
X438820Y312374D01*
X438835Y312546D01*
X438840Y312738D01*
X439840D01*
X439845Y312546D01*
D02*
G37*
G36*
X376399Y312611D02*
X376424Y312543D01*
X376465Y312483D01*
X376522Y312431D01*
X376595Y312387D01*
X376685Y312351D01*
X376790Y312323D01*
X376911Y312303D01*
X377049Y312291D01*
X377202Y312287D01*
Y311487D01*
X376402Y311499D01*
X376390Y312687D01*
X376399Y312611D01*
D02*
G37*
G36*
X419257Y312050D02*
X419172Y311959D01*
X419095Y311867D01*
X419028Y311773D01*
X418970Y311678D01*
X418921Y311582D01*
X418882Y311483D01*
X418851Y311384D01*
X418829Y311282D01*
X418816Y311180D01*
X418813Y311075D01*
X417576Y312313D01*
X417680Y312316D01*
X417782Y312329D01*
X417884Y312351D01*
X417983Y312381D01*
X418082Y312421D01*
X418178Y312470D01*
X418273Y312528D01*
X418367Y312595D01*
X418459Y312672D01*
X418550Y312757D01*
X419257Y312050D01*
D02*
G37*
G36*
X374186Y311503D02*
X374118Y311478D01*
X374058Y311438D01*
X374006Y311381D01*
X373962Y311308D01*
X373926Y311218D01*
X373898Y311113D01*
X373878Y310991D01*
X373866Y310853D01*
X373862Y310699D01*
X373062D01*
X373058Y310853D01*
X373046Y310991D01*
X373026Y311113D01*
X372998Y311218D01*
X372962Y311308D01*
X372918Y311381D01*
X372866Y311438D01*
X372806Y311478D01*
X372738Y311503D01*
X372662Y311511D01*
X374262D01*
X374186Y311503D01*
D02*
G37*
G36*
X417551Y309813D02*
X417446Y309810D01*
X417344Y309797D01*
X417242Y309775D01*
X417143Y309745D01*
X417044Y309705D01*
X416948Y309656D01*
X416853Y309598D01*
X416759Y309530D01*
X416667Y309454D01*
X416576Y309369D01*
X415869Y310076D01*
X415954Y310167D01*
X416031Y310259D01*
X416098Y310352D01*
X416156Y310448D01*
X416205Y310544D01*
X416245Y310643D01*
X416275Y310742D01*
X416297Y310843D01*
X416310Y310946D01*
X416313Y311051D01*
X417551Y309813D01*
D02*
G37*
G36*
X450075Y309200D02*
X450067Y309276D01*
X450043Y309344D01*
X450002Y309404D01*
X449945Y309456D01*
X449872Y309500D01*
X449783Y309536D01*
X449677Y309564D01*
X449555Y309584D01*
X449417Y309596D01*
X449263Y309600D01*
Y310400D01*
X449417Y310404D01*
X449555Y310416D01*
X449677Y310436D01*
X449783Y310464D01*
X449872Y310500D01*
X449945Y310544D01*
X450002Y310596D01*
X450043Y310656D01*
X450067Y310724D01*
X450075Y310800D01*
Y309200D01*
D02*
G37*
G36*
X446487Y310785D02*
X446583Y310704D01*
X446682Y310633D01*
X446783Y310571D01*
X446886Y310519D01*
X446991Y310476D01*
X447099Y310443D01*
X447208Y310419D01*
X447320Y310405D01*
X447434Y310400D01*
Y309600D01*
X447320Y309595D01*
X447208Y309581D01*
X447099Y309557D01*
X446991Y309524D01*
X446886Y309481D01*
X446783Y309429D01*
X446682Y309367D01*
X446583Y309296D01*
X446487Y309215D01*
X446393Y309125D01*
Y310875D01*
X446487Y310785D01*
D02*
G37*
G36*
X373866Y308245D02*
X373878Y308109D01*
X373898Y307989D01*
X373926Y307885D01*
X373962Y307797D01*
X374006Y307725D01*
X374058Y307669D01*
X374118Y307629D01*
X374186Y307605D01*
X374262Y307597D01*
X372662D01*
X372738Y307605D01*
X372806Y307629D01*
X372866Y307669D01*
X372918Y307725D01*
X372962Y307797D01*
X372998Y307885D01*
X373026Y307989D01*
X373046Y308109D01*
X373058Y308245D01*
X373062Y308397D01*
X373862D01*
X373866Y308245D01*
D02*
G37*
G36*
X440825Y309455D02*
X440791Y309368D01*
X440787Y309266D01*
X440813Y309148D01*
X440869Y309015D01*
X440955Y308865D01*
X441070Y308700D01*
X441215Y308520D01*
X441595Y308112D01*
X441091Y307201D01*
X440826Y307460D01*
X440148Y308032D01*
X439961Y308155D01*
X439794Y308244D01*
X439647Y308299D01*
X439520Y308321D01*
X439412Y308308D01*
X439324Y308262D01*
X440888Y309526D01*
X440825Y309455D01*
D02*
G37*
G36*
X363041Y300446D02*
X363096Y300415D01*
X363163Y300388D01*
X363243Y300365D01*
X363335Y300345D01*
X363441Y300329D01*
X363689Y300307D01*
X363989Y300300D01*
Y298700D01*
X363833Y298698D01*
X363441Y298671D01*
X363335Y298655D01*
X363243Y298635D01*
X363163Y298612D01*
X363096Y298585D01*
X363041Y298554D01*
X363000Y298520D01*
Y300480D01*
X363041Y300446D01*
D02*
G37*
G36*
X371553Y299346D02*
X371394Y299185D01*
X370781Y298491D01*
X370736Y298420D01*
X370708Y298363D01*
X370696Y298318D01*
X369818Y299196D01*
X369863Y299208D01*
X369920Y299236D01*
X369991Y299281D01*
X370074Y299342D01*
X370280Y299514D01*
X370685Y299894D01*
X370847Y300054D01*
X371553Y299346D01*
D02*
G37*
G36*
X408562Y297609D02*
X407472D01*
X407480Y297632D01*
X407488Y297674D01*
X407495Y297734D01*
X407510Y298026D01*
X407517Y298677D01*
X408517D01*
X408562Y297609D01*
D02*
G37*
G36*
X394782D02*
X393692D01*
X393701Y297632D01*
X393708Y297674D01*
X393715Y297734D01*
X393730Y298026D01*
X393737Y298677D01*
X394737D01*
X394782Y297609D01*
D02*
G37*
G36*
X392814D02*
X391724D01*
X391732Y297632D01*
X391740Y297674D01*
X391747Y297734D01*
X391762Y298026D01*
X391769Y298677D01*
X392769D01*
X392814Y297609D01*
D02*
G37*
G36*
X390702Y298461D02*
X390737Y297969D01*
X390753Y297874D01*
X390771Y297791D01*
X390793Y297719D01*
X390818Y297658D01*
X390845Y297609D01*
X389755D01*
X389783Y297658D01*
X389808Y297719D01*
X389829Y297791D01*
X389848Y297874D01*
X389864Y297969D01*
X389887Y298192D01*
X389899Y298461D01*
X389900Y298612D01*
X390700D01*
X390702Y298461D01*
D02*
G37*
G36*
X388733D02*
X388768Y297969D01*
X388784Y297874D01*
X388803Y297791D01*
X388825Y297719D01*
X388849Y297658D01*
X388877Y297609D01*
X387787D01*
X387814Y297658D01*
X387839Y297719D01*
X387861Y297791D01*
X387880Y297874D01*
X387895Y297969D01*
X387919Y298192D01*
X387930Y298461D01*
X387932Y298612D01*
X388732D01*
X388733Y298461D01*
D02*
G37*
G36*
X386765D02*
X386800Y297969D01*
X386816Y297874D01*
X386834Y297791D01*
X386856Y297719D01*
X386881Y297658D01*
X386908Y297609D01*
X385818D01*
X385846Y297658D01*
X385871Y297719D01*
X385892Y297791D01*
X385911Y297874D01*
X385927Y297969D01*
X385950Y298192D01*
X385962Y298461D01*
X385963Y298612D01*
X386763D01*
X386765Y298461D01*
D02*
G37*
G36*
X384940Y297609D02*
X383850D01*
X383858Y297632D01*
X383866Y297674D01*
X383873Y297734D01*
X383888Y298026D01*
X383895Y298677D01*
X384895D01*
X384940Y297609D01*
D02*
G37*
G36*
X320446Y298080D02*
X320415Y298026D01*
X320388Y297959D01*
X320365Y297879D01*
X320345Y297786D01*
X320329Y297681D01*
X320307Y297432D01*
X320300Y297133D01*
X318700D01*
X318698Y297289D01*
X318671Y297681D01*
X318655Y297786D01*
X318635Y297879D01*
X318612Y297959D01*
X318585Y298026D01*
X318554Y298080D01*
X318520Y298122D01*
X320480D01*
X320446Y298080D01*
D02*
G37*
G36*
X370454Y297806D02*
X370442Y297747D01*
X370432Y297658D01*
X370411Y297206D01*
X370400Y296176D01*
X369400D01*
X369334Y297835D01*
X370466D01*
X370454Y297806D01*
D02*
G37*
G36*
X379485Y295913D02*
X379404Y295817D01*
X379333Y295718D01*
X379271Y295617D01*
X379219Y295514D01*
X379176Y295409D01*
X379143Y295301D01*
X379119Y295192D01*
X379105Y295080D01*
X379100Y294966D01*
X378300D01*
X378295Y295080D01*
X378281Y295192D01*
X378257Y295301D01*
X378224Y295409D01*
X378181Y295514D01*
X378129Y295617D01*
X378067Y295718D01*
X377996Y295817D01*
X377915Y295913D01*
X377825Y296007D01*
X379575D01*
X379485Y295913D01*
D02*
G37*
G36*
X370405Y295546D02*
X370420Y295374D01*
X370445Y295222D01*
X370480Y295090D01*
X370525Y294979D01*
X370580Y294888D01*
X370645Y294817D01*
X370720Y294766D01*
X370805Y294736D01*
X370900Y294726D01*
X368900D01*
X368995Y294736D01*
X369080Y294766D01*
X369155Y294817D01*
X369220Y294888D01*
X369275Y294979D01*
X369320Y295090D01*
X369355Y295222D01*
X369380Y295374D01*
X369395Y295546D01*
X369400Y295738D01*
X370400D01*
X370405Y295546D01*
D02*
G37*
G36*
X414508Y295942D02*
X414533Y295874D01*
X414573Y295814D01*
X414630Y295762D01*
X414703Y295718D01*
X414792Y295682D01*
X414898Y295654D01*
X415020Y295634D01*
X415158Y295622D01*
X415312Y295618D01*
Y294818D01*
X415158Y294814D01*
X415020Y294802D01*
X414898Y294782D01*
X414792Y294754D01*
X414703Y294718D01*
X414630Y294674D01*
X414573Y294622D01*
X414533Y294562D01*
X414508Y294494D01*
X414500Y294418D01*
Y296018D01*
X414508Y295942D01*
D02*
G37*
G36*
X320307Y294753D02*
X320360Y294240D01*
X320406Y294033D01*
X320466Y293857D01*
X320539Y293712D01*
X320626Y293601D01*
X320725Y293520D01*
X320838Y293473D01*
X320964Y293457D01*
X318036D01*
X318162Y293473D01*
X318275Y293520D01*
X318374Y293601D01*
X318461Y293712D01*
X318534Y293857D01*
X318594Y294033D01*
X318640Y294240D01*
X318673Y294480D01*
X318693Y294753D01*
X318700Y295057D01*
X320300D01*
X320307Y294753D01*
D02*
G37*
G36*
X437500Y313500D02*
X438117D01*
Y312522D01*
X438111Y312463D01*
X438109Y312450D01*
X436400D01*
Y307550D01*
X439579D01*
X439596Y307541D01*
X439720Y307459D01*
X440299Y306970D01*
X442135Y305135D01*
X442532Y304870D01*
X443000Y304777D01*
X446964D01*
Y301374D01*
X454657D01*
Y300374D01*
X446964D01*
Y296921D01*
X452216D01*
X452403Y296421D01*
X451892Y295910D01*
X451437Y295122D01*
X451202Y294243D01*
Y293592D01*
X450702Y293385D01*
X448075Y296011D01*
X447711Y296254D01*
X447282Y296340D01*
X447282Y296340D01*
X415238D01*
Y297384D01*
X415138Y297887D01*
X414853Y298314D01*
X414426Y298599D01*
X413922Y298699D01*
X413419Y298599D01*
X413333Y298542D01*
X412938Y298341D01*
X412543Y298542D01*
X412457Y298599D01*
X411954Y298699D01*
X411450Y298599D01*
X411023Y298314D01*
X410574Y298542D01*
X410489Y298599D01*
X409985Y298699D01*
X409740Y298651D01*
X409267Y298975D01*
X409240Y299022D01*
Y301010D01*
X417196Y308966D01*
X417247Y309002D01*
X417295Y309032D01*
X417340Y309054D01*
X417382Y309072D01*
X417423Y309084D01*
X417462Y309092D01*
X417502Y309097D01*
X417574Y309100D01*
X417631Y309113D01*
X417951D01*
X418668Y309410D01*
X419216Y309958D01*
X419513Y310675D01*
Y310995D01*
X419526Y311052D01*
X419529Y311124D01*
X419534Y311164D01*
X419542Y311203D01*
X419554Y311244D01*
X419571Y311286D01*
X419594Y311331D01*
X419624Y311379D01*
X419660Y311430D01*
X423107Y314877D01*
X437500D01*
Y313500D01*
D02*
G37*
G36*
X371798Y294712D02*
X371828Y294688D01*
X371878Y294668D01*
X371948Y294650D01*
X372038Y294635D01*
X372148Y294622D01*
X372428Y294605D01*
X372788Y294600D01*
Y293600D01*
X372596Y293595D01*
X372425Y293580D01*
X372273Y293555D01*
X372142Y293520D01*
X372031Y293475D01*
X371940Y293420D01*
X371869Y293355D01*
X371818Y293280D01*
X371787Y293195D01*
X371776Y293100D01*
X371788Y294738D01*
X371798Y294712D01*
D02*
G37*
G36*
X384931Y292806D02*
X384924Y292769D01*
X384917Y292716D01*
X384906Y292563D01*
X384895Y291905D01*
X383895D01*
X383850Y292827D01*
X384940D01*
X384931Y292806D01*
D02*
G37*
G36*
X410503Y292778D02*
X410478Y292718D01*
X410456Y292646D01*
X410437Y292563D01*
X410422Y292468D01*
X410398Y292245D01*
X410387Y291976D01*
X410385Y291824D01*
X409585D01*
X409584Y291976D01*
X409549Y292468D01*
X409533Y292563D01*
X409514Y292646D01*
X409492Y292718D01*
X409468Y292778D01*
X409440Y292827D01*
X410530D01*
X410503Y292778D01*
D02*
G37*
G36*
X404597D02*
X404573Y292718D01*
X404551Y292646D01*
X404532Y292563D01*
X404516Y292468D01*
X404493Y292245D01*
X404481Y291976D01*
X404480Y291824D01*
X403680D01*
X403678Y291976D01*
X403644Y292468D01*
X403628Y292563D01*
X403609Y292646D01*
X403587Y292718D01*
X403562Y292778D01*
X403535Y292827D01*
X404625D01*
X404597Y292778D01*
D02*
G37*
G36*
X402629D02*
X402604Y292718D01*
X402582Y292646D01*
X402563Y292563D01*
X402548Y292468D01*
X402524Y292245D01*
X402513Y291976D01*
X402511Y291824D01*
X401711D01*
X401710Y291976D01*
X401675Y292468D01*
X401659Y292563D01*
X401640Y292646D01*
X401618Y292718D01*
X401594Y292778D01*
X401566Y292827D01*
X402656D01*
X402629Y292778D01*
D02*
G37*
G36*
X400660D02*
X400636Y292718D01*
X400614Y292646D01*
X400595Y292563D01*
X400579Y292468D01*
X400556Y292245D01*
X400544Y291976D01*
X400543Y291824D01*
X399743D01*
X399741Y291976D01*
X399707Y292468D01*
X399691Y292563D01*
X399672Y292646D01*
X399650Y292718D01*
X399625Y292778D01*
X399598Y292827D01*
X400688D01*
X400660Y292778D01*
D02*
G37*
G36*
X398692D02*
X398667Y292718D01*
X398645Y292646D01*
X398626Y292563D01*
X398610Y292468D01*
X398587Y292245D01*
X398576Y291976D01*
X398574Y291824D01*
X397774D01*
X397773Y291976D01*
X397738Y292468D01*
X397722Y292563D01*
X397703Y292646D01*
X397681Y292718D01*
X397657Y292778D01*
X397629Y292827D01*
X398719D01*
X398692Y292778D01*
D02*
G37*
G36*
X396723D02*
X396699Y292718D01*
X396677Y292646D01*
X396658Y292563D01*
X396642Y292468D01*
X396619Y292245D01*
X396607Y291976D01*
X396606Y291824D01*
X395806D01*
X395804Y291976D01*
X395770Y292468D01*
X395754Y292563D01*
X395735Y292646D01*
X395713Y292718D01*
X395688Y292778D01*
X395661Y292827D01*
X396751D01*
X396723Y292778D01*
D02*
G37*
G36*
X412471Y292778D02*
X412447Y292718D01*
X412425Y292646D01*
X412406Y292563D01*
X412390Y292468D01*
X412367Y292245D01*
X412355Y291976D01*
X412354Y291824D01*
X411554D01*
X411552Y291976D01*
X411517Y292468D01*
X411502Y292563D01*
X411483Y292646D01*
X411461Y292718D01*
X411436Y292778D01*
X411409Y292827D01*
X412499D01*
X412471Y292778D01*
D02*
G37*
G36*
X346624Y291400D02*
X346608Y291552D01*
X346560Y291688D01*
X346479Y291808D01*
X346366Y291912D01*
X346221Y292000D01*
X346044Y292072D01*
X345834Y292128D01*
X345592Y292168D01*
X345318Y292192D01*
X345012Y292200D01*
Y293800D01*
X345318Y293808D01*
X345592Y293832D01*
X345834Y293872D01*
X346044Y293928D01*
X346221Y294000D01*
X346366Y294088D01*
X346479Y294192D01*
X346560Y294312D01*
X346608Y294448D01*
X346624Y294600D01*
Y291400D01*
D02*
G37*
G36*
X370805Y291252D02*
X370720Y291222D01*
X370645Y291172D01*
X370580Y291102D01*
X370525Y291012D01*
X370480Y290902D01*
X370445Y290772D01*
X370420Y290622D01*
X370405Y290452D01*
X370400Y290262D01*
X369400D01*
X369395Y290452D01*
X369380Y290622D01*
X369355Y290772D01*
X369320Y290902D01*
X369275Y291012D01*
X369220Y291102D01*
X369155Y291172D01*
X369080Y291222D01*
X368995Y291252D01*
X368900Y291262D01*
X370900D01*
X370805Y291252D01*
D02*
G37*
G36*
X375868Y291671D02*
X375953Y291585D01*
X376042Y291508D01*
X376135Y291442D01*
X376231Y291386D01*
X376332Y291340D01*
X376436Y291304D01*
X376545Y291279D01*
X376657Y291263D01*
X376773Y291258D01*
X376677Y290458D01*
X376565Y290454D01*
X376454Y290441D01*
X376343Y290420D01*
X376233Y290390D01*
X376124Y290351D01*
X376016Y290304D01*
X375908Y290248D01*
X375800Y290184D01*
X375694Y290111D01*
X375588Y290029D01*
X375786Y291768D01*
X375868Y291671D01*
D02*
G37*
G36*
X320980Y292896D02*
X321026Y292771D01*
X321103Y292660D01*
X321210Y292565D01*
X321348Y292484D01*
X321517Y292418D01*
X321717Y292366D01*
X321947Y292329D01*
X322208Y292307D01*
X322500Y292300D01*
Y290700D01*
X322208Y290693D01*
X321947Y290671D01*
X321717Y290634D01*
X321517Y290582D01*
X321348Y290516D01*
X321210Y290435D01*
X321103Y290340D01*
X321026Y290229D01*
X320980Y290104D01*
X320964Y289964D01*
Y293036D01*
X320980Y292896D01*
D02*
G37*
G36*
X352405Y290820D02*
X352419Y290708D01*
X352443Y290599D01*
X352476Y290491D01*
X352519Y290386D01*
X352571Y290283D01*
X352633Y290182D01*
X352704Y290083D01*
X352785Y289987D01*
X352875Y289893D01*
X351125D01*
X351215Y289987D01*
X351296Y290083D01*
X351367Y290182D01*
X351429Y290283D01*
X351481Y290386D01*
X351524Y290491D01*
X351557Y290599D01*
X351581Y290708D01*
X351595Y290820D01*
X351600Y290934D01*
X352400D01*
X352405Y290820D01*
D02*
G37*
G36*
X448186Y290028D02*
X447995Y289566D01*
X442146D01*
Y288915D01*
X442133Y288913D01*
X442074Y288908D01*
X436785D01*
X436316Y288815D01*
X435920Y288550D01*
X431410Y284040D01*
X426523D01*
X426328Y284285D01*
X422387D01*
Y285285D01*
X426075D01*
X426051Y285406D01*
X425699Y285932D01*
X425666Y286098D01*
X425768Y286250D01*
X425868Y286754D01*
X425768Y287257D01*
X425483Y287684D01*
X425056Y287969D01*
X424552Y288070D01*
X423508D01*
Y290722D01*
X424665Y291879D01*
X431039D01*
X431138Y291378D01*
X430725Y291208D01*
X430092Y290575D01*
X429772Y289800D01*
X434228D01*
X433908Y290575D01*
X433275Y291208D01*
X432862Y291378D01*
X432961Y291879D01*
X446335D01*
X448186Y290028D01*
D02*
G37*
G36*
X342277Y290148D02*
X342301Y289874D01*
X342341Y289633D01*
X342397Y289423D01*
X342469Y289246D01*
X342557Y289101D01*
X342661Y288988D01*
X342781Y288907D01*
X342917Y288859D01*
X343069Y288843D01*
X339869D01*
X340021Y288859D01*
X340157Y288907D01*
X340277Y288988D01*
X340381Y289101D01*
X340469Y289246D01*
X340541Y289423D01*
X340597Y289633D01*
X340637Y289874D01*
X340661Y290148D01*
X340669Y290455D01*
X342269D01*
X342277Y290148D01*
D02*
G37*
G36*
X351988Y287750D02*
X351857Y287747D01*
X351732Y287736D01*
X351612Y287717D01*
X351497Y287689D01*
X351387Y287653D01*
X351282Y287609D01*
X351183Y287557D01*
X351088Y287496D01*
X350999Y287427D01*
X350915Y287349D01*
X350349Y287915D01*
X350427Y287999D01*
X350496Y288088D01*
X350556Y288183D01*
X350609Y288282D01*
X350653Y288387D01*
X350689Y288497D01*
X350717Y288612D01*
X350736Y288732D01*
X350747Y288857D01*
X350750Y288987D01*
X351988Y287750D01*
D02*
G37*
G36*
X422791Y287989D02*
X422803Y287851D01*
X422823Y287729D01*
X422851Y287624D01*
X422887Y287534D01*
X422931Y287461D01*
X422983Y287405D01*
X423043Y287364D01*
X423111Y287340D01*
X423187Y287332D01*
X421587D01*
X421663Y287340D01*
X421731Y287364D01*
X421791Y287405D01*
X421843Y287461D01*
X421887Y287534D01*
X421923Y287624D01*
X421951Y287729D01*
X421971Y287851D01*
X421983Y287989D01*
X421987Y288143D01*
X422787D01*
X422791Y287989D01*
D02*
G37*
G36*
X414907Y287025D02*
X414813Y287115D01*
X414717Y287196D01*
X414618Y287267D01*
X414517Y287329D01*
X414414Y287381D01*
X414309Y287424D01*
X414201Y287457D01*
X414092Y287481D01*
X413980Y287495D01*
X413866Y287500D01*
Y288300D01*
X413980Y288305D01*
X414092Y288319D01*
X414201Y288343D01*
X414309Y288376D01*
X414414Y288419D01*
X414517Y288471D01*
X414618Y288533D01*
X414717Y288604D01*
X414813Y288685D01*
X414907Y288775D01*
Y287025D01*
D02*
G37*
G36*
X324560Y288180D02*
X324584Y287906D01*
X324624Y287664D01*
X324680Y287455D01*
X324752Y287277D01*
X324840Y287132D01*
X324944Y287019D01*
X325064Y286939D01*
X325200Y286890D01*
X325352Y286874D01*
X322152D01*
X322304Y286890D01*
X322440Y286939D01*
X322560Y287019D01*
X322664Y287132D01*
X322752Y287277D01*
X322824Y287455D01*
X322880Y287664D01*
X322920Y287906D01*
X322944Y288180D01*
X322952Y288486D01*
X324552D01*
X324560Y288180D01*
D02*
G37*
G36*
X464020Y287693D02*
X464035Y287521D01*
X464060Y287369D01*
X464095Y287238D01*
X464140Y287126D01*
X464195Y287035D01*
X464260Y286964D01*
X464335Y286914D01*
X464420Y286883D01*
X464515Y286873D01*
X462515D01*
X462610Y286883D01*
X462695Y286914D01*
X462770Y286964D01*
X462835Y287035D01*
X462890Y287126D01*
X462935Y287238D01*
X462970Y287369D01*
X462995Y287521D01*
X463010Y287693D01*
X463015Y287885D01*
X464015D01*
X464020Y287693D01*
D02*
G37*
G36*
X442870Y286685D02*
X442860Y286780D01*
X442830Y286865D01*
X442779Y286940D01*
X442708Y287005D01*
X442617Y287060D01*
X442506Y287105D01*
X442374Y287140D01*
X442222Y287165D01*
X442050Y287180D01*
X441858Y287185D01*
Y288185D01*
X442050Y288190D01*
X442222Y288205D01*
X442374Y288230D01*
X442506Y288265D01*
X442617Y288310D01*
X442708Y288365D01*
X442779Y288430D01*
X442830Y288505D01*
X442860Y288590D01*
X442870Y288685D01*
Y286685D01*
D02*
G37*
G36*
X338528Y286516D02*
X338512Y286587D01*
X338464Y286649D01*
X338384Y286705D01*
X338272Y286753D01*
X338128Y286793D01*
X337952Y286826D01*
X337744Y286852D01*
X337232Y286882D01*
X336928Y286886D01*
Y288486D01*
X337232Y288489D01*
X337952Y288545D01*
X338128Y288578D01*
X338272Y288618D01*
X338384Y288666D01*
X338464Y288722D01*
X338512Y288785D01*
X338528Y288855D01*
Y286516D01*
D02*
G37*
G36*
X373539Y286209D02*
X373490Y286236D01*
X373429Y286261D01*
X373358Y286283D01*
X373274Y286301D01*
X373180Y286317D01*
X372957Y286341D01*
X372688Y286352D01*
X372536Y286354D01*
Y287154D01*
X372688Y287155D01*
X373180Y287190D01*
X373274Y287206D01*
X373358Y287225D01*
X373429Y287246D01*
X373490Y287271D01*
X373539Y287299D01*
Y286209D01*
D02*
G37*
G36*
X395920Y286935D02*
X395934Y286824D01*
X395958Y286714D01*
X395991Y286606D01*
X396034Y286501D01*
X396086Y286398D01*
X396148Y286297D01*
X396219Y286199D01*
X396300Y286102D01*
X396390Y286008D01*
X394640D01*
X394730Y286102D01*
X394811Y286199D01*
X394882Y286297D01*
X394944Y286398D01*
X394997Y286501D01*
X395039Y286606D01*
X395073Y286714D01*
X395096Y286824D01*
X395111Y286935D01*
X395115Y287050D01*
X395915D01*
X395920Y286935D01*
D02*
G37*
G36*
X326709Y286816D02*
X326757Y286753D01*
X326837Y286698D01*
X326949Y286650D01*
X327093Y286609D01*
X327269Y286576D01*
X327477Y286550D01*
X327989Y286521D01*
X328293Y286517D01*
Y284917D01*
X327989Y284913D01*
X327269Y284858D01*
X327093Y284825D01*
X326949Y284784D01*
X326837Y284736D01*
X326757Y284681D01*
X326709Y284618D01*
X326693Y284548D01*
Y286886D01*
X326709Y286816D01*
D02*
G37*
G36*
X413107Y284021D02*
X413013Y284111D01*
X412917Y284192D01*
X412818Y284263D01*
X412717Y284325D01*
X412614Y284377D01*
X412509Y284420D01*
X412401Y284453D01*
X412292Y284477D01*
X412180Y284491D01*
X412066Y284496D01*
Y285296D01*
X412180Y285301D01*
X412292Y285315D01*
X412401Y285339D01*
X412509Y285372D01*
X412614Y285415D01*
X412717Y285467D01*
X412818Y285529D01*
X412917Y285600D01*
X413013Y285681D01*
X413107Y285771D01*
Y284021D01*
D02*
G37*
G36*
X359809Y300867D02*
X360083Y300360D01*
X359900Y299918D01*
Y299082D01*
X360220Y298310D01*
X360810Y297720D01*
X361582Y297400D01*
X362418D01*
X363190Y297720D01*
X363410Y297941D01*
X363418Y297943D01*
X363464Y297953D01*
X363520Y297961D01*
X363656Y297971D01*
X368166D01*
X368633Y297504D01*
X368676Y296407D01*
Y295522D01*
X368671Y295463D01*
X368669Y295450D01*
X367300D01*
Y290550D01*
X368668D01*
X368671Y290532D01*
X368676Y290475D01*
Y289600D01*
X368770Y289132D01*
X368778Y289119D01*
Y287726D01*
X368778Y287725D01*
X368864Y287296D01*
X369107Y286932D01*
X370079Y285961D01*
X370079Y285961D01*
X370443Y285718D01*
X370872Y285632D01*
X370872Y285632D01*
X371862D01*
X372105Y285285D01*
X375930D01*
Y284285D01*
X372105D01*
X371862Y283938D01*
X355317D01*
X355317Y283938D01*
X354888Y283853D01*
X354524Y283610D01*
X354524Y283610D01*
X351847Y280933D01*
X345122D01*
Y281693D01*
X345122D01*
Y281868D01*
X345122D01*
Y282627D01*
X346748D01*
X346749Y282627D01*
X347178Y282712D01*
X347542Y282956D01*
X351491Y286905D01*
X351501Y286912D01*
X351543Y286940D01*
X351588Y286964D01*
X351637Y286984D01*
X351691Y287002D01*
X351752Y287017D01*
X351820Y287028D01*
X351896Y287034D01*
X352003Y287036D01*
X352064Y287050D01*
X352388D01*
X353105Y287347D01*
X353653Y287895D01*
X353950Y288612D01*
Y289388D01*
X353800Y289750D01*
X354134Y290250D01*
X354900D01*
Y293000D01*
Y295966D01*
X354798Y296212D01*
X359496Y300910D01*
X359809Y300867D01*
D02*
G37*
G36*
X344406Y284473D02*
X344430Y284405D01*
X344471Y284345D01*
X344528Y284293D01*
X344601Y284249D01*
X344690Y284213D01*
X344795Y284185D01*
X344917Y284165D01*
X345055Y284153D01*
X345210Y284149D01*
Y283349D01*
X345055Y283345D01*
X344917Y283333D01*
X344795Y283313D01*
X344690Y283285D01*
X344601Y283249D01*
X344528Y283205D01*
X344471Y283153D01*
X344430Y283093D01*
X344406Y283025D01*
X344398Y282949D01*
Y284549D01*
X344406Y284473D01*
D02*
G37*
G36*
X442870Y282948D02*
X442862Y283024D01*
X442838Y283092D01*
X442797Y283152D01*
X442740Y283204D01*
X442667Y283248D01*
X442578Y283284D01*
X442472Y283312D01*
X442350Y283332D01*
X442212Y283344D01*
X442058Y283348D01*
Y284148D01*
X442212Y284152D01*
X442350Y284164D01*
X442472Y284184D01*
X442578Y284212D01*
X442667Y284248D01*
X442740Y284292D01*
X442797Y284344D01*
X442838Y284404D01*
X442862Y284472D01*
X442870Y284548D01*
Y282948D01*
D02*
G37*
G36*
X373539Y282272D02*
X373490Y282299D01*
X373430Y282324D01*
X373358Y282346D01*
X373274Y282365D01*
X373180Y282380D01*
X372957Y282404D01*
X372688Y282415D01*
X372536Y282417D01*
Y283217D01*
X372688Y283218D01*
X373180Y283253D01*
X373274Y283269D01*
X373358Y283288D01*
X373430Y283310D01*
X373490Y283334D01*
X373539Y283362D01*
Y282272D01*
D02*
G37*
G36*
X424801Y283353D02*
X424842Y283345D01*
X424902Y283339D01*
X425195Y283324D01*
X425845Y283317D01*
Y282317D01*
X424778Y282272D01*
Y283362D01*
X424801Y283353D01*
D02*
G37*
G36*
X419996Y282272D02*
X419973Y282280D01*
X419932Y282288D01*
X419872Y282295D01*
X419579Y282310D01*
X418928Y282317D01*
Y283317D01*
X419996Y283362D01*
Y282272D01*
D02*
G37*
G36*
X409907Y281571D02*
X409813Y281661D01*
X409717Y281742D01*
X409618Y281813D01*
X409517Y281875D01*
X409414Y281927D01*
X409309Y281970D01*
X409201Y282003D01*
X409092Y282027D01*
X408980Y282041D01*
X408866Y282046D01*
Y282846D01*
X408980Y282851D01*
X409092Y282865D01*
X409201Y282889D01*
X409309Y282922D01*
X409414Y282965D01*
X409517Y283017D01*
X409618Y283079D01*
X409717Y283150D01*
X409813Y283231D01*
X409907Y283321D01*
Y281571D01*
D02*
G37*
G36*
X460587Y280979D02*
X460578Y281055D01*
X460554Y281123D01*
X460514Y281183D01*
X460457Y281235D01*
X460384Y281279D01*
X460294Y281315D01*
X460189Y281343D01*
X460067Y281363D01*
X459929Y281375D01*
X459775Y281379D01*
Y282179D01*
X459929Y282183D01*
X460067Y282195D01*
X460189Y282215D01*
X460294Y282243D01*
X460384Y282279D01*
X460457Y282323D01*
X460514Y282375D01*
X460554Y282435D01*
X460578Y282503D01*
X460587Y282579D01*
Y280979D01*
D02*
G37*
G36*
X373539Y280303D02*
X373490Y280331D01*
X373430Y280355D01*
X373358Y280377D01*
X373274Y280396D01*
X373180Y280412D01*
X372957Y280435D01*
X372688Y280447D01*
X372536Y280448D01*
Y281248D01*
X372688Y281250D01*
X373180Y281284D01*
X373274Y281300D01*
X373358Y281319D01*
X373430Y281341D01*
X373490Y281366D01*
X373539Y281393D01*
Y280303D01*
D02*
G37*
G36*
X424827Y281366D02*
X424888Y281341D01*
X424959Y281319D01*
X425043Y281300D01*
X425137Y281284D01*
X425360Y281261D01*
X425629Y281250D01*
X425781Y281248D01*
Y280448D01*
X425629Y280447D01*
X425137Y280412D01*
X425043Y280396D01*
X424959Y280377D01*
X424888Y280355D01*
X424827Y280331D01*
X424778Y280303D01*
Y281393D01*
X424827Y281366D01*
D02*
G37*
G36*
X344406Y280536D02*
X344430Y280468D01*
X344471Y280408D01*
X344528Y280356D01*
X344601Y280312D01*
X344690Y280276D01*
X344795Y280248D01*
X344917Y280228D01*
X345055Y280216D01*
X345210Y280212D01*
Y279412D01*
X345055Y279408D01*
X344917Y279396D01*
X344795Y279376D01*
X344690Y279348D01*
X344601Y279312D01*
X344528Y279268D01*
X344471Y279216D01*
X344430Y279156D01*
X344406Y279088D01*
X344398Y279012D01*
Y280612D01*
X344406Y280536D01*
D02*
G37*
G36*
X442870Y279011D02*
X442862Y279087D01*
X442838Y279155D01*
X442797Y279215D01*
X442740Y279267D01*
X442667Y279311D01*
X442578Y279347D01*
X442472Y279375D01*
X442350Y279395D01*
X442212Y279407D01*
X442058Y279411D01*
Y280211D01*
X442212Y280215D01*
X442350Y280227D01*
X442472Y280247D01*
X442578Y280275D01*
X442667Y280311D01*
X442740Y280355D01*
X442797Y280407D01*
X442838Y280467D01*
X442862Y280535D01*
X442870Y280611D01*
Y279011D01*
D02*
G37*
G36*
X413107Y278925D02*
X413013Y279015D01*
X412917Y279096D01*
X412818Y279167D01*
X412717Y279229D01*
X412614Y279281D01*
X412509Y279324D01*
X412401Y279357D01*
X412292Y279381D01*
X412180Y279395D01*
X412066Y279400D01*
Y280200D01*
X412180Y280205D01*
X412292Y280219D01*
X412401Y280243D01*
X412509Y280276D01*
X412614Y280319D01*
X412717Y280371D01*
X412818Y280433D01*
X412917Y280504D01*
X413013Y280585D01*
X413107Y280675D01*
Y278925D01*
D02*
G37*
G36*
X424821Y279401D02*
X424877Y279380D01*
X424945Y279361D01*
X425025Y279345D01*
X425223Y279320D01*
X425469Y279305D01*
X425765Y279300D01*
X425794Y278500D01*
X425646Y278498D01*
X425263Y278473D01*
X425156Y278459D01*
X424973Y278419D01*
X424898Y278394D01*
X424833Y278366D01*
X424778Y278335D01*
Y279425D01*
X424821Y279401D01*
D02*
G37*
G36*
X378376Y279393D02*
X378442Y279365D01*
X378518Y279340D01*
X378604Y279318D01*
X378700Y279300D01*
X378925Y279273D01*
X379052Y279265D01*
X379339Y279258D01*
X379306Y278458D01*
X379152Y278457D01*
X378567Y278414D01*
X378487Y278397D01*
X378420Y278379D01*
X378364Y278358D01*
X378321Y278335D01*
Y279425D01*
X378376Y279393D01*
D02*
G37*
G36*
X380805Y277983D02*
X380710Y278073D01*
X380614Y278154D01*
X380515Y278225D01*
X380414Y278287D01*
X380311Y278339D01*
X380206Y278382D01*
X380099Y278415D01*
X379989Y278439D01*
X379877Y278453D01*
X379763Y278458D01*
Y279258D01*
X379877Y279263D01*
X379989Y279277D01*
X380099Y279301D01*
X380206Y279334D01*
X380311Y279377D01*
X380414Y279429D01*
X380515Y279491D01*
X380614Y279562D01*
X380710Y279643D01*
X380805Y279733D01*
Y277983D01*
D02*
G37*
G36*
X326689Y278567D02*
X326714Y278499D01*
X326754Y278439D01*
X326811Y278387D01*
X326884Y278343D01*
X326973Y278307D01*
X327079Y278279D01*
X327201Y278259D01*
X327339Y278247D01*
X327493Y278243D01*
Y277443D01*
X327339Y277439D01*
X327201Y277427D01*
X327079Y277407D01*
X326973Y277379D01*
X326884Y277343D01*
X326811Y277299D01*
X326754Y277247D01*
X326714Y277187D01*
X326689Y277119D01*
X326681Y277043D01*
Y278643D01*
X326689Y278567D01*
D02*
G37*
G36*
X460587Y277042D02*
X460578Y277118D01*
X460554Y277186D01*
X460514Y277246D01*
X460457Y277298D01*
X460384Y277342D01*
X460294Y277378D01*
X460189Y277406D01*
X460067Y277426D01*
X459929Y277438D01*
X459775Y277442D01*
Y278242D01*
X459929Y278246D01*
X460067Y278258D01*
X460189Y278278D01*
X460294Y278306D01*
X460384Y278342D01*
X460457Y278386D01*
X460514Y278438D01*
X460554Y278498D01*
X460578Y278566D01*
X460587Y278642D01*
Y277042D01*
D02*
G37*
G36*
X330707Y276968D02*
X330613Y277058D01*
X330517Y277139D01*
X330418Y277210D01*
X330317Y277272D01*
X330214Y277324D01*
X330109Y277367D01*
X330001Y277400D01*
X329892Y277424D01*
X329780Y277438D01*
X329666Y277443D01*
Y278243D01*
X329780Y278248D01*
X329892Y278262D01*
X330001Y278286D01*
X330109Y278319D01*
X330214Y278362D01*
X330317Y278414D01*
X330418Y278476D01*
X330517Y278547D01*
X330613Y278628D01*
X330707Y278718D01*
Y276968D01*
D02*
G37*
G36*
X424827Y277429D02*
X424888Y277404D01*
X424959Y277382D01*
X425043Y277363D01*
X425137Y277347D01*
X425360Y277324D01*
X425629Y277313D01*
X425781Y277311D01*
Y276511D01*
X425629Y276510D01*
X425137Y276475D01*
X425043Y276459D01*
X424959Y276440D01*
X424888Y276418D01*
X424827Y276394D01*
X424778Y276366D01*
Y277456D01*
X424827Y277429D01*
D02*
G37*
G36*
X373539Y276366D02*
X373490Y276394D01*
X373430Y276418D01*
X373358Y276440D01*
X373274Y276459D01*
X373180Y276475D01*
X372957Y276498D01*
X372688Y276510D01*
X372536Y276511D01*
Y277311D01*
X372688Y277313D01*
X373180Y277347D01*
X373274Y277363D01*
X373358Y277382D01*
X373430Y277404D01*
X373490Y277429D01*
X373539Y277456D01*
Y276366D01*
D02*
G37*
G36*
X409625Y276107D02*
X409531Y276198D01*
X409434Y276278D01*
X409336Y276350D01*
X409235Y276411D01*
X409132Y276464D01*
X409026Y276506D01*
X408919Y276540D01*
X408809Y276563D01*
X408697Y276578D01*
X408583Y276582D01*
Y277382D01*
X408697Y277387D01*
X408809Y277401D01*
X408919Y277425D01*
X409026Y277458D01*
X409132Y277501D01*
X409235Y277553D01*
X409336Y277615D01*
X409434Y277686D01*
X409531Y277767D01*
X409625Y277857D01*
Y276107D01*
D02*
G37*
G36*
X344406Y276599D02*
X344430Y276531D01*
X344471Y276471D01*
X344528Y276419D01*
X344601Y276375D01*
X344690Y276339D01*
X344795Y276311D01*
X344917Y276291D01*
X345055Y276279D01*
X345210Y276275D01*
Y275475D01*
X345055Y275471D01*
X344917Y275459D01*
X344795Y275439D01*
X344690Y275411D01*
X344601Y275375D01*
X344528Y275331D01*
X344471Y275279D01*
X344430Y275219D01*
X344406Y275151D01*
X344398Y275075D01*
Y276675D01*
X344406Y276599D01*
D02*
G37*
G36*
X442870Y275074D02*
X442862Y275150D01*
X442838Y275218D01*
X442797Y275278D01*
X442740Y275330D01*
X442667Y275374D01*
X442578Y275410D01*
X442472Y275438D01*
X442350Y275458D01*
X442212Y275470D01*
X442058Y275474D01*
Y276274D01*
X442212Y276278D01*
X442350Y276290D01*
X442472Y276310D01*
X442578Y276338D01*
X442667Y276374D01*
X442740Y276418D01*
X442797Y276470D01*
X442838Y276530D01*
X442862Y276598D01*
X442870Y276674D01*
Y275074D01*
D02*
G37*
G36*
X471405Y200874D02*
X471407Y200868D01*
X471275Y199527D01*
X470882Y198231D01*
X470243Y197037D01*
X469384Y195990D01*
X468337Y195131D01*
X467143Y194492D01*
X465847Y194099D01*
X464506Y193967D01*
X464500Y193969D01*
X322768D01*
X322761Y193967D01*
X321420Y194099D01*
X320124Y194492D01*
X318930Y195131D01*
X317883Y195990D01*
X317024Y197037D01*
X316386Y198231D01*
X315993Y199527D01*
X315861Y200868D01*
X315862Y200874D01*
Y213861D01*
X316324Y214052D01*
X318927Y211450D01*
X318720Y210950D01*
X318612D01*
X317895Y210653D01*
X317347Y210105D01*
X317050Y209388D01*
Y208612D01*
X317347Y207895D01*
X317895Y207347D01*
X318612Y207050D01*
X318936D01*
X318997Y207036D01*
X319104Y207034D01*
X319180Y207028D01*
X319248Y207016D01*
X319309Y207002D01*
X319363Y206984D01*
X319412Y206963D01*
X319457Y206940D01*
X319499Y206912D01*
X319509Y206905D01*
X320355Y206059D01*
X320290Y205563D01*
X319514Y205115D01*
X318527Y204128D01*
X317829Y202920D01*
X317468Y201572D01*
Y201374D01*
X328068D01*
Y201572D01*
X327707Y202920D01*
X327009Y204128D01*
X326270Y204867D01*
X326477Y205367D01*
X347589D01*
X347589Y205367D01*
X348018Y205453D01*
X348382Y205696D01*
X376039Y233353D01*
X388932D01*
X389309Y232853D01*
X389237Y232487D01*
Y229838D01*
X391059D01*
Y229338D01*
X391559D01*
Y224465D01*
X391757Y224504D01*
X392193Y224797D01*
X392673Y224594D01*
X392693Y224575D01*
Y215546D01*
X391540D01*
Y214295D01*
X378176D01*
Y215842D01*
X377121D01*
Y217400D01*
X378450D01*
Y222600D01*
X373550D01*
Y217400D01*
X374879D01*
Y215842D01*
X373824D01*
Y210505D01*
X378176D01*
Y212052D01*
X391540D01*
Y210800D01*
X396090D01*
Y215546D01*
X394936D01*
Y224784D01*
X395233Y225061D01*
X395345Y225118D01*
X395405Y225137D01*
X395498Y225116D01*
X395990Y224787D01*
X396571Y224672D01*
X397151Y224787D01*
X397643Y225116D01*
X397699Y225199D01*
X398199D01*
X398254Y225116D01*
X398746Y224787D01*
X399327Y224672D01*
X399907Y224787D01*
X400399Y225116D01*
X400455Y225199D01*
X400955D01*
X401010Y225116D01*
X401502Y224787D01*
X402083Y224672D01*
X402663Y224787D01*
X403155Y225116D01*
X403211Y225199D01*
X403711D01*
X403766Y225116D01*
X404258Y224787D01*
X404839Y224672D01*
X405419Y224787D01*
X405911Y225116D01*
X406349Y224871D01*
X406897Y224504D01*
X407094Y224465D01*
Y229338D01*
X408095D01*
Y224465D01*
X408292Y224504D01*
X408591Y224704D01*
X408972Y224863D01*
X409354Y224704D01*
X409653Y224504D01*
X409850Y224465D01*
Y229338D01*
X410850D01*
Y224465D01*
X411048Y224504D01*
X411276Y224657D01*
X411776Y224390D01*
Y216900D01*
X409273Y214397D01*
X401909D01*
X401851Y214402D01*
X401838Y214404D01*
Y215546D01*
X397288D01*
Y210800D01*
X398332D01*
X398334Y210787D01*
X398340Y210728D01*
Y200374D01*
X398329Y200316D01*
X398315Y200274D01*
X398307Y200259D01*
X398306Y200257D01*
X398304Y200256D01*
X398289Y200248D01*
X398247Y200234D01*
X398189Y200223D01*
X378251D01*
X378194Y200229D01*
X378176Y200232D01*
Y201669D01*
X373824D01*
Y200231D01*
X373811Y200229D01*
X373752Y200223D01*
X370507D01*
X369511Y201219D01*
X369178Y201598D01*
X369051Y201765D01*
X368959Y201904D01*
X368950Y201921D01*
Y205100D01*
X364050D01*
Y199900D01*
X366931D01*
X366933Y199899D01*
X366937Y199900D01*
X367312D01*
X367363Y199864D01*
X367647Y199623D01*
X369135Y198135D01*
X369532Y197870D01*
X370000Y197776D01*
X373752D01*
X373811Y197771D01*
X373824Y197769D01*
Y196332D01*
X378176D01*
Y197768D01*
X378194Y197772D01*
X378251Y197776D01*
X449279D01*
X449338Y197771D01*
X449351Y197769D01*
Y196627D01*
X453901D01*
Y201373D01*
X449351D01*
Y200231D01*
X449338Y200229D01*
X449279Y200223D01*
X400937D01*
X400879Y200234D01*
X400837Y200248D01*
X400822Y200256D01*
X400820Y200257D01*
X400819Y200259D01*
X400811Y200274D01*
X400797Y200316D01*
X400786Y200374D01*
Y210728D01*
X400792Y210787D01*
X400794Y210800D01*
X401838D01*
Y211943D01*
X401851Y211945D01*
X401909Y211950D01*
X409780D01*
X410248Y212043D01*
X410645Y212308D01*
X413865Y215528D01*
X414130Y215926D01*
X414223Y216394D01*
Y224733D01*
X414239Y224917D01*
X414255Y225016D01*
X414265Y225024D01*
X414537Y225128D01*
X414707Y225132D01*
X414790Y225116D01*
X415282Y224787D01*
X415862Y224672D01*
X416443Y224787D01*
X416935Y225116D01*
X417028Y225137D01*
X417061Y225127D01*
X417257Y225014D01*
X417497Y224784D01*
Y214936D01*
X416343D01*
Y210190D01*
X420893D01*
Y214936D01*
X419740D01*
Y224575D01*
X419760Y224594D01*
X420240Y224797D01*
X420677Y224504D01*
X420874Y224465D01*
Y229338D01*
Y234210D01*
X420677Y234171D01*
X420128Y233805D01*
X419691Y233560D01*
X419199Y233889D01*
X418618Y234004D01*
X418038Y233889D01*
X417603Y233598D01*
X417336Y233659D01*
X417089Y233776D01*
X417086Y233823D01*
Y241000D01*
Y255853D01*
X417096Y255910D01*
X417110Y255952D01*
X417118Y255967D01*
X417119Y255969D01*
X417121Y255970D01*
X417136Y255979D01*
X417178Y255993D01*
X417236Y256003D01*
X419612D01*
X419807Y255993D01*
X420222Y255910D01*
X424552D01*
X425056Y256011D01*
X425483Y256296D01*
X425768Y256723D01*
X425853Y257153D01*
X426089Y257289D01*
X426351Y257363D01*
X427680Y256034D01*
Y251046D01*
X427218Y250855D01*
X426220Y251853D01*
X424629Y250262D01*
X426326Y248565D01*
X427218Y249456D01*
X427680Y249265D01*
Y248239D01*
X427673Y248050D01*
X427659Y247918D01*
X425230Y245489D01*
X428907Y241812D01*
X432372Y245276D01*
X429987Y247662D01*
X429972Y247736D01*
X429923Y248327D01*
Y256499D01*
X429923Y256499D01*
X429838Y256928D01*
X429594Y257292D01*
X429594Y257292D01*
X427345Y259542D01*
X427552Y260042D01*
X428272D01*
X440792Y247521D01*
X440792Y247521D01*
X441156Y247278D01*
X441585Y247193D01*
X441793D01*
X442146Y246839D01*
X442146Y246433D01*
X442146Y245933D01*
Y242822D01*
X442146Y242496D01*
X442146Y241997D01*
Y238885D01*
X442146Y238560D01*
X442146Y238059D01*
Y234748D01*
X441846D01*
Y233067D01*
X445799D01*
X449752D01*
Y234748D01*
X449452D01*
Y238059D01*
X449452Y238385D01*
X449452Y238885D01*
Y241997D01*
X449452Y242322D01*
X449452Y242822D01*
Y245933D01*
X449452Y246259D01*
X449452Y246759D01*
Y250196D01*
X449452D01*
Y250371D01*
X449452D01*
Y254133D01*
X449452D01*
Y254308D01*
X449452D01*
Y258070D01*
X449452D01*
Y258244D01*
X449452D01*
Y262007D01*
X449452D01*
Y262181D01*
X449452D01*
Y265944D01*
X449452D01*
Y266119D01*
X449452D01*
Y269881D01*
X449452D01*
Y270056D01*
X449452D01*
Y273818D01*
X449452D01*
Y273993D01*
X449452D01*
Y277755D01*
X449452D01*
Y277930D01*
X449452D01*
Y281692D01*
X449452D01*
Y281867D01*
X449452D01*
Y285629D01*
X449452D01*
Y285804D01*
X449452D01*
Y288109D01*
X449914Y288300D01*
X450878Y287335D01*
Y282000D01*
X450878Y282000D01*
X450964Y281571D01*
X451207Y281207D01*
X455365Y277049D01*
X455365Y277049D01*
X455729Y276806D01*
X456158Y276721D01*
X459509D01*
X459863Y276367D01*
X459863Y275961D01*
X459863Y275380D01*
X459509Y275027D01*
X458041D01*
X458029Y275028D01*
X457980Y275039D01*
X457931Y275054D01*
X457882Y275074D01*
X457831Y275100D01*
X457778Y275132D01*
X457722Y275173D01*
X457663Y275222D01*
X457586Y275296D01*
X457534Y275329D01*
X457305Y275558D01*
X456588Y275855D01*
X455812D01*
X455095Y275558D01*
X454547Y275010D01*
X454250Y274293D01*
Y273517D01*
X454547Y272801D01*
X455095Y272252D01*
X455203Y272207D01*
Y271666D01*
X455095Y271621D01*
X454547Y271073D01*
X454250Y270356D01*
Y269580D01*
X454547Y268864D01*
X455095Y268315D01*
X455812Y268018D01*
X456588D01*
X457305Y268315D01*
X457534Y268544D01*
X457586Y268578D01*
X457663Y268652D01*
X457722Y268701D01*
X457778Y268741D01*
X457831Y268774D01*
X457882Y268799D01*
X457931Y268819D01*
X457980Y268834D01*
X458029Y268845D01*
X458041Y268847D01*
X459509D01*
X459863Y268493D01*
X459863Y268087D01*
X459863Y267587D01*
Y264475D01*
X459863Y264150D01*
X459863Y263650D01*
Y260538D01*
X459863Y260213D01*
X459863Y259632D01*
X459509Y259279D01*
X458041D01*
X458029Y259280D01*
X457980Y259291D01*
X457931Y259306D01*
X457882Y259326D01*
X457831Y259352D01*
X457778Y259384D01*
X457722Y259425D01*
X457663Y259474D01*
X457586Y259547D01*
X457534Y259581D01*
X457305Y259810D01*
X456588Y260107D01*
X455812D01*
X455095Y259810D01*
X454547Y259262D01*
X454250Y258545D01*
Y257769D01*
X454547Y257052D01*
X455095Y256504D01*
X455161Y256477D01*
X455159Y255937D01*
X454678Y255456D01*
X454381Y254739D01*
Y253963D01*
X454678Y253246D01*
X455226Y252698D01*
X455427Y252615D01*
Y252074D01*
X455095Y251936D01*
X454547Y251388D01*
X454250Y250671D01*
Y249895D01*
X454547Y249179D01*
X455095Y248630D01*
X455203Y248585D01*
Y248044D01*
X455095Y247999D01*
X454547Y247451D01*
X454250Y246734D01*
Y245958D01*
X454547Y245241D01*
X455095Y244693D01*
X455812Y244396D01*
X456588D01*
X457305Y244693D01*
X457534Y244922D01*
X457586Y244956D01*
X457663Y245029D01*
X457722Y245078D01*
X457778Y245119D01*
X457831Y245151D01*
X457882Y245177D01*
X457931Y245197D01*
X457980Y245212D01*
X458029Y245223D01*
X458041Y245224D01*
X459509D01*
X459863Y244871D01*
X459863Y244465D01*
X459863Y243965D01*
Y240853D01*
X459863Y240528D01*
X459863Y240028D01*
Y236716D01*
X459563D01*
Y235035D01*
X463515D01*
X467468D01*
Y236716D01*
X467168D01*
Y240028D01*
X467168Y240353D01*
X467168Y240853D01*
Y243965D01*
X467168Y244290D01*
X467168Y244790D01*
Y247902D01*
X467168Y248227D01*
X467168Y248727D01*
Y251839D01*
X467168Y252164D01*
X467168Y252664D01*
Y256101D01*
X467168D01*
Y256276D01*
X467168D01*
Y259713D01*
X467168Y260038D01*
X467168Y260538D01*
Y263650D01*
X467168Y263975D01*
X467168Y264475D01*
Y267587D01*
X467168Y267912D01*
X467168Y268412D01*
Y271524D01*
X467168Y271849D01*
X467168Y272349D01*
Y275461D01*
X467168Y275786D01*
X467168Y276286D01*
Y279723D01*
X467168D01*
Y279898D01*
X467168D01*
Y283660D01*
X467168D01*
Y283835D01*
X467168D01*
Y287597D01*
X464746D01*
X464744Y287610D01*
X464739Y287669D01*
Y304485D01*
X464646Y304953D01*
X464381Y305350D01*
X462865Y306865D01*
X462468Y307130D01*
X462000Y307224D01*
X460406D01*
X459949Y307327D01*
X459949Y307723D01*
Y309500D01*
X454799D01*
X454799Y307327D01*
X454342Y307224D01*
X454134D01*
X453901Y307627D01*
X453901Y307723D01*
Y312373D01*
X449351D01*
Y311122D01*
X447341D01*
X447329Y311123D01*
X447280Y311134D01*
X447231Y311149D01*
X447182Y311169D01*
X447131Y311195D01*
X447078Y311227D01*
X447022Y311268D01*
X446963Y311317D01*
X446886Y311390D01*
X446834Y311424D01*
X446605Y311653D01*
X445888Y311950D01*
X445112D01*
X444395Y311653D01*
X443847Y311105D01*
X443550Y310388D01*
Y309612D01*
X443847Y308895D01*
X444395Y308347D01*
X445112Y308050D01*
X445888D01*
X446605Y308347D01*
X446834Y308576D01*
X446886Y308610D01*
X446963Y308683D01*
X447022Y308732D01*
X447078Y308773D01*
X447131Y308805D01*
X447182Y308831D01*
X447231Y308851D01*
X447280Y308866D01*
X447329Y308877D01*
X447341Y308878D01*
X449351D01*
Y307723D01*
X449351Y307627D01*
X449118Y307224D01*
X443507D01*
X441923Y308807D01*
X441755Y308987D01*
X441641Y309129D01*
X441600Y309188D01*
Y309563D01*
X441601Y309567D01*
X441600Y309569D01*
Y312450D01*
X440571D01*
X440569Y312463D01*
X440564Y312522D01*
Y313500D01*
X471405D01*
Y200874D01*
D02*
G37*
G36*
X424827Y275460D02*
X424888Y275435D01*
X424959Y275414D01*
X425043Y275395D01*
X425137Y275379D01*
X425360Y275356D01*
X425629Y275344D01*
X425781Y275343D01*
Y274543D01*
X425629Y274541D01*
X425137Y274506D01*
X425043Y274490D01*
X424959Y274472D01*
X424888Y274450D01*
X424827Y274425D01*
X424778Y274398D01*
Y275488D01*
X424827Y275460D01*
D02*
G37*
G36*
X373539Y274398D02*
X373490Y274425D01*
X373430Y274450D01*
X373358Y274472D01*
X373274Y274490D01*
X373180Y274506D01*
X372957Y274530D01*
X372688Y274541D01*
X372536Y274543D01*
Y275343D01*
X372688Y275344D01*
X373180Y275379D01*
X373274Y275395D01*
X373358Y275414D01*
X373430Y275435D01*
X373490Y275460D01*
X373539Y275488D01*
Y274398D01*
D02*
G37*
G36*
X413107Y273525D02*
X413013Y273615D01*
X412917Y273696D01*
X412818Y273767D01*
X412717Y273829D01*
X412614Y273881D01*
X412509Y273924D01*
X412401Y273957D01*
X412292Y273981D01*
X412180Y273995D01*
X412066Y274000D01*
Y274800D01*
X412180Y274805D01*
X412292Y274819D01*
X412401Y274843D01*
X412509Y274876D01*
X412614Y274919D01*
X412717Y274971D01*
X412818Y275033D01*
X412917Y275104D01*
X413013Y275185D01*
X413107Y275275D01*
Y273525D01*
D02*
G37*
G36*
X326689Y274630D02*
X326714Y274562D01*
X326754Y274502D01*
X326811Y274450D01*
X326884Y274406D01*
X326973Y274370D01*
X327079Y274342D01*
X327201Y274322D01*
X327339Y274310D01*
X327493Y274306D01*
Y273506D01*
X327339Y273502D01*
X327201Y273490D01*
X327079Y273470D01*
X326973Y273442D01*
X326884Y273406D01*
X326811Y273362D01*
X326754Y273310D01*
X326714Y273250D01*
X326689Y273182D01*
X326681Y273106D01*
Y274706D01*
X326689Y274630D01*
D02*
G37*
G36*
X460587Y273105D02*
X460578Y273181D01*
X460554Y273249D01*
X460514Y273309D01*
X460457Y273361D01*
X460384Y273405D01*
X460294Y273441D01*
X460189Y273469D01*
X460067Y273489D01*
X459929Y273501D01*
X459775Y273505D01*
Y274305D01*
X459929Y274309D01*
X460067Y274321D01*
X460189Y274341D01*
X460294Y274369D01*
X460384Y274405D01*
X460457Y274449D01*
X460514Y274501D01*
X460554Y274561D01*
X460578Y274629D01*
X460587Y274705D01*
Y273105D01*
D02*
G37*
G36*
X330707Y273031D02*
X330613Y273121D01*
X330517Y273202D01*
X330418Y273273D01*
X330317Y273335D01*
X330214Y273387D01*
X330109Y273430D01*
X330001Y273463D01*
X329892Y273487D01*
X329780Y273501D01*
X329666Y273506D01*
Y274306D01*
X329780Y274311D01*
X329892Y274325D01*
X330001Y274349D01*
X330109Y274382D01*
X330214Y274425D01*
X330317Y274477D01*
X330418Y274539D01*
X330517Y274610D01*
X330613Y274691D01*
X330707Y274781D01*
Y273031D01*
D02*
G37*
G36*
X457187Y274690D02*
X457283Y274609D01*
X457382Y274538D01*
X457483Y274476D01*
X457586Y274424D01*
X457691Y274381D01*
X457799Y274348D01*
X457908Y274324D01*
X458020Y274310D01*
X458134Y274305D01*
Y273505D01*
X458020Y273500D01*
X457908Y273486D01*
X457799Y273462D01*
X457691Y273429D01*
X457586Y273386D01*
X457483Y273334D01*
X457382Y273272D01*
X457283Y273201D01*
X457187Y273120D01*
X457093Y273030D01*
Y274780D01*
X457187Y274690D01*
D02*
G37*
G36*
X424827Y273492D02*
X424888Y273467D01*
X424959Y273445D01*
X425043Y273426D01*
X425137Y273410D01*
X425360Y273387D01*
X425629Y273376D01*
X425781Y273374D01*
Y272574D01*
X425629Y272573D01*
X425137Y272538D01*
X425043Y272522D01*
X424959Y272503D01*
X424888Y272481D01*
X424827Y272457D01*
X424778Y272429D01*
Y273519D01*
X424827Y273492D01*
D02*
G37*
G36*
X373539Y272429D02*
X373490Y272457D01*
X373430Y272481D01*
X373358Y272503D01*
X373274Y272522D01*
X373180Y272538D01*
X372957Y272561D01*
X372688Y272573D01*
X372536Y272574D01*
Y273374D01*
X372688Y273376D01*
X373180Y273410D01*
X373274Y273426D01*
X373358Y273445D01*
X373430Y273467D01*
X373490Y273492D01*
X373539Y273519D01*
Y272429D01*
D02*
G37*
G36*
X344406Y272662D02*
X344430Y272594D01*
X344471Y272534D01*
X344528Y272482D01*
X344601Y272438D01*
X344690Y272402D01*
X344795Y272374D01*
X344917Y272354D01*
X345055Y272342D01*
X345210Y272338D01*
Y271538D01*
X345055Y271534D01*
X344917Y271522D01*
X344795Y271502D01*
X344690Y271474D01*
X344601Y271438D01*
X344528Y271394D01*
X344471Y271342D01*
X344430Y271282D01*
X344406Y271214D01*
X344398Y271138D01*
Y272738D01*
X344406Y272662D01*
D02*
G37*
G36*
X442870Y271137D02*
X442862Y271213D01*
X442838Y271281D01*
X442797Y271341D01*
X442740Y271393D01*
X442667Y271437D01*
X442578Y271473D01*
X442472Y271501D01*
X442350Y271521D01*
X442212Y271533D01*
X442058Y271537D01*
Y272337D01*
X442212Y272341D01*
X442350Y272353D01*
X442472Y272373D01*
X442578Y272401D01*
X442667Y272437D01*
X442740Y272481D01*
X442797Y272533D01*
X442838Y272593D01*
X442862Y272661D01*
X442870Y272737D01*
Y271137D01*
D02*
G37*
G36*
X424827Y271523D02*
X424888Y271498D01*
X424959Y271477D01*
X425043Y271458D01*
X425137Y271442D01*
X425360Y271419D01*
X425629Y271407D01*
X425781Y271406D01*
Y270606D01*
X425629Y270604D01*
X425137Y270569D01*
X425043Y270553D01*
X424959Y270535D01*
X424888Y270513D01*
X424827Y270488D01*
X424778Y270461D01*
Y271551D01*
X424827Y271523D01*
D02*
G37*
G36*
X373539Y270461D02*
X373490Y270488D01*
X373430Y270513D01*
X373358Y270535D01*
X373274Y270553D01*
X373180Y270569D01*
X372957Y270593D01*
X372688Y270604D01*
X372536Y270606D01*
Y271406D01*
X372688Y271407D01*
X373180Y271442D01*
X373274Y271458D01*
X373358Y271477D01*
X373430Y271498D01*
X373490Y271523D01*
X373539Y271551D01*
Y270461D01*
D02*
G37*
G36*
X399414Y281000D02*
X406807Y273607D01*
X406807Y273607D01*
X406950Y273511D01*
X406950Y271057D01*
X407307Y270700D01*
X407124Y270693D01*
X406975Y270672D01*
X406950Y270664D01*
Y270062D01*
X407014Y269993D01*
X406950Y270017D01*
Y269600D01*
X395050D01*
Y281000D01*
X399414Y281000D01*
D02*
G37*
G36*
X326689Y270693D02*
X326714Y270625D01*
X326754Y270565D01*
X326811Y270513D01*
X326884Y270469D01*
X326973Y270433D01*
X327079Y270405D01*
X327201Y270385D01*
X327339Y270373D01*
X327493Y270369D01*
Y269569D01*
X327339Y269565D01*
X327201Y269553D01*
X327079Y269533D01*
X326973Y269505D01*
X326884Y269469D01*
X326811Y269425D01*
X326754Y269373D01*
X326714Y269313D01*
X326689Y269245D01*
X326681Y269169D01*
Y270769D01*
X326689Y270693D01*
D02*
G37*
G36*
X460587Y269168D02*
X460578Y269244D01*
X460554Y269312D01*
X460514Y269372D01*
X460457Y269424D01*
X460384Y269468D01*
X460294Y269504D01*
X460189Y269532D01*
X460067Y269552D01*
X459929Y269564D01*
X459775Y269568D01*
Y270368D01*
X459929Y270372D01*
X460067Y270384D01*
X460189Y270404D01*
X460294Y270432D01*
X460384Y270468D01*
X460457Y270512D01*
X460514Y270564D01*
X460554Y270624D01*
X460578Y270692D01*
X460587Y270768D01*
Y269168D01*
D02*
G37*
G36*
X330707Y269094D02*
X330613Y269184D01*
X330517Y269265D01*
X330418Y269336D01*
X330317Y269398D01*
X330214Y269450D01*
X330109Y269493D01*
X330001Y269526D01*
X329892Y269550D01*
X329780Y269564D01*
X329666Y269569D01*
Y270369D01*
X329780Y270374D01*
X329892Y270388D01*
X330001Y270412D01*
X330109Y270445D01*
X330214Y270488D01*
X330317Y270540D01*
X330418Y270602D01*
X330517Y270673D01*
X330613Y270754D01*
X330707Y270844D01*
Y269094D01*
D02*
G37*
G36*
X457187Y270753D02*
X457283Y270672D01*
X457382Y270601D01*
X457483Y270539D01*
X457586Y270487D01*
X457691Y270444D01*
X457799Y270411D01*
X457908Y270387D01*
X458020Y270373D01*
X458134Y270368D01*
Y269568D01*
X458020Y269563D01*
X457908Y269549D01*
X457799Y269525D01*
X457691Y269492D01*
X457586Y269449D01*
X457483Y269397D01*
X457382Y269335D01*
X457283Y269264D01*
X457187Y269183D01*
X457093Y269093D01*
Y270843D01*
X457187Y270753D01*
D02*
G37*
G36*
X424827Y269555D02*
X424888Y269530D01*
X424959Y269508D01*
X425043Y269489D01*
X425137Y269473D01*
X425360Y269450D01*
X425629Y269439D01*
X425781Y269437D01*
Y268637D01*
X425629Y268636D01*
X425137Y268601D01*
X425043Y268585D01*
X424959Y268566D01*
X424888Y268544D01*
X424827Y268520D01*
X424778Y268492D01*
Y269582D01*
X424827Y269555D01*
D02*
G37*
G36*
X373539Y268492D02*
X373490Y268520D01*
X373430Y268544D01*
X373358Y268566D01*
X373274Y268585D01*
X373180Y268601D01*
X372957Y268624D01*
X372688Y268636D01*
X372536Y268637D01*
Y269437D01*
X372688Y269439D01*
X373180Y269473D01*
X373274Y269489D01*
X373358Y269508D01*
X373430Y269530D01*
X373490Y269555D01*
X373539Y269582D01*
Y268492D01*
D02*
G37*
G36*
X344406Y268725D02*
X344430Y268657D01*
X344471Y268597D01*
X344528Y268545D01*
X344601Y268501D01*
X344690Y268465D01*
X344795Y268437D01*
X344917Y268417D01*
X345055Y268405D01*
X345210Y268401D01*
Y267601D01*
X345055Y267597D01*
X344917Y267585D01*
X344795Y267565D01*
X344690Y267537D01*
X344601Y267501D01*
X344528Y267457D01*
X344471Y267405D01*
X344430Y267345D01*
X344406Y267277D01*
X344398Y267201D01*
Y268801D01*
X344406Y268725D01*
D02*
G37*
G36*
X442870Y267200D02*
X442862Y267276D01*
X442838Y267344D01*
X442797Y267404D01*
X442740Y267456D01*
X442667Y267500D01*
X442578Y267536D01*
X442472Y267564D01*
X442350Y267584D01*
X442212Y267596D01*
X442058Y267600D01*
Y268400D01*
X442212Y268404D01*
X442350Y268416D01*
X442472Y268436D01*
X442578Y268464D01*
X442667Y268500D01*
X442740Y268544D01*
X442797Y268596D01*
X442838Y268656D01*
X442862Y268724D01*
X442870Y268800D01*
Y267200D01*
D02*
G37*
G36*
X419996Y266524D02*
X419947Y266551D01*
X419886Y266576D01*
X419814Y266598D01*
X419731Y266617D01*
X419637Y266632D01*
X419413Y266656D01*
X419144Y266667D01*
X418993Y266669D01*
Y267469D01*
X419144Y267470D01*
X419637Y267505D01*
X419731Y267521D01*
X419814Y267540D01*
X419886Y267562D01*
X419947Y267586D01*
X419996Y267614D01*
Y266524D01*
D02*
G37*
G36*
X373539Y266524D02*
X373490Y266551D01*
X373430Y266576D01*
X373358Y266598D01*
X373274Y266617D01*
X373180Y266632D01*
X372957Y266656D01*
X372688Y266667D01*
X372536Y266669D01*
Y267469D01*
X372688Y267470D01*
X373180Y267505D01*
X373274Y267521D01*
X373358Y267540D01*
X373430Y267562D01*
X373490Y267586D01*
X373539Y267614D01*
Y266524D01*
D02*
G37*
G36*
X414987Y267853D02*
X415083Y267773D01*
X415182Y267701D01*
X415283Y267640D01*
X415386Y267587D01*
X415491Y267545D01*
X415599Y267511D01*
X415708Y267488D01*
X415820Y267473D01*
X415934Y267469D01*
Y266669D01*
X415820Y266664D01*
X415708Y266650D01*
X415599Y266626D01*
X415491Y266593D01*
X415386Y266550D01*
X415283Y266498D01*
X415182Y266436D01*
X415083Y266365D01*
X414987Y266284D01*
X414893Y266194D01*
Y267944D01*
X414987Y267853D01*
D02*
G37*
G36*
X326689Y266756D02*
X326714Y266688D01*
X326754Y266628D01*
X326811Y266576D01*
X326884Y266532D01*
X326973Y266496D01*
X327079Y266468D01*
X327201Y266448D01*
X327339Y266436D01*
X327493Y266432D01*
Y265632D01*
X327339Y265628D01*
X327201Y265616D01*
X327079Y265596D01*
X326973Y265568D01*
X326884Y265532D01*
X326811Y265488D01*
X326754Y265436D01*
X326714Y265376D01*
X326689Y265308D01*
X326681Y265232D01*
Y266832D01*
X326689Y266756D01*
D02*
G37*
G36*
X330707Y265157D02*
X330613Y265247D01*
X330517Y265328D01*
X330418Y265399D01*
X330317Y265461D01*
X330214Y265513D01*
X330109Y265556D01*
X330001Y265589D01*
X329892Y265613D01*
X329780Y265627D01*
X329666Y265632D01*
Y266432D01*
X329780Y266437D01*
X329892Y266451D01*
X330001Y266475D01*
X330109Y266508D01*
X330214Y266551D01*
X330317Y266603D01*
X330418Y266665D01*
X330517Y266736D01*
X330613Y266817D01*
X330707Y266907D01*
Y265157D01*
D02*
G37*
G36*
X424827Y265618D02*
X424888Y265593D01*
X424959Y265571D01*
X425043Y265552D01*
X425137Y265536D01*
X425360Y265513D01*
X425629Y265502D01*
X425781Y265500D01*
Y264700D01*
X425629Y264699D01*
X425137Y264664D01*
X425043Y264648D01*
X424959Y264629D01*
X424888Y264607D01*
X424827Y264583D01*
X424778Y264555D01*
Y265645D01*
X424827Y265618D01*
D02*
G37*
G36*
X373539Y264555D02*
X373490Y264583D01*
X373430Y264607D01*
X373358Y264629D01*
X373274Y264648D01*
X373180Y264664D01*
X372957Y264687D01*
X372688Y264699D01*
X372536Y264700D01*
Y265500D01*
X372688Y265502D01*
X373180Y265536D01*
X373274Y265552D01*
X373358Y265571D01*
X373430Y265593D01*
X373490Y265618D01*
X373539Y265645D01*
Y264555D01*
D02*
G37*
G36*
X408253Y264857D02*
X408264Y264732D01*
X408283Y264612D01*
X408311Y264497D01*
X408347Y264387D01*
X408391Y264282D01*
X408443Y264183D01*
X408504Y264088D01*
X408573Y263999D01*
X408651Y263915D01*
X408085Y263349D01*
X408001Y263427D01*
X407912Y263496D01*
X407817Y263557D01*
X407718Y263609D01*
X407613Y263653D01*
X407503Y263689D01*
X407388Y263717D01*
X407268Y263736D01*
X407143Y263747D01*
X407013Y263750D01*
X408250Y264987D01*
X408253Y264857D01*
D02*
G37*
G36*
X344406Y264788D02*
X344430Y264720D01*
X344471Y264660D01*
X344528Y264608D01*
X344601Y264564D01*
X344690Y264528D01*
X344795Y264500D01*
X344917Y264480D01*
X345055Y264468D01*
X345210Y264464D01*
Y263664D01*
X345055Y263660D01*
X344917Y263648D01*
X344795Y263628D01*
X344690Y263600D01*
X344601Y263564D01*
X344528Y263520D01*
X344471Y263468D01*
X344430Y263408D01*
X344406Y263340D01*
X344398Y263264D01*
Y264864D01*
X344406Y264788D01*
D02*
G37*
G36*
X442870Y263263D02*
X442862Y263339D01*
X442838Y263407D01*
X442797Y263467D01*
X442740Y263519D01*
X442667Y263563D01*
X442578Y263599D01*
X442472Y263627D01*
X442350Y263647D01*
X442212Y263659D01*
X442058Y263663D01*
Y264463D01*
X442212Y264467D01*
X442350Y264479D01*
X442472Y264499D01*
X442578Y264527D01*
X442667Y264563D01*
X442740Y264607D01*
X442797Y264659D01*
X442838Y264719D01*
X442862Y264787D01*
X442870Y264863D01*
Y263263D01*
D02*
G37*
G36*
X373539Y262587D02*
X373490Y262614D01*
X373430Y262639D01*
X373358Y262661D01*
X373274Y262680D01*
X373180Y262695D01*
X372957Y262719D01*
X372688Y262730D01*
X372536Y262732D01*
Y263532D01*
X372688Y263533D01*
X373180Y263568D01*
X373274Y263584D01*
X373358Y263603D01*
X373430Y263625D01*
X373490Y263649D01*
X373539Y263677D01*
Y262587D01*
D02*
G37*
G36*
X424827Y263649D02*
X424888Y263624D01*
X424959Y263603D01*
X425043Y263584D01*
X425137Y263568D01*
X425360Y263545D01*
X425629Y263533D01*
X425781Y263532D01*
Y262732D01*
X425629Y262730D01*
X425137Y262695D01*
X425043Y262680D01*
X424959Y262661D01*
X424888Y262639D01*
X424827Y262614D01*
X424778Y262587D01*
Y263677D01*
X424827Y263649D01*
D02*
G37*
G36*
X326689Y262819D02*
X326714Y262751D01*
X326754Y262691D01*
X326811Y262639D01*
X326884Y262595D01*
X326973Y262559D01*
X327079Y262531D01*
X327201Y262511D01*
X327339Y262499D01*
X327493Y262495D01*
Y261695D01*
X327339Y261691D01*
X327201Y261679D01*
X327079Y261659D01*
X326973Y261631D01*
X326884Y261595D01*
X326811Y261551D01*
X326754Y261499D01*
X326714Y261439D01*
X326689Y261371D01*
X326681Y261295D01*
Y262895D01*
X326689Y262819D01*
D02*
G37*
G36*
X330707Y261220D02*
X330613Y261310D01*
X330517Y261391D01*
X330418Y261462D01*
X330317Y261524D01*
X330214Y261576D01*
X330109Y261619D01*
X330001Y261652D01*
X329892Y261676D01*
X329780Y261690D01*
X329666Y261695D01*
Y262495D01*
X329780Y262500D01*
X329892Y262514D01*
X330001Y262538D01*
X330109Y262571D01*
X330214Y262614D01*
X330317Y262666D01*
X330418Y262728D01*
X330517Y262799D01*
X330613Y262880D01*
X330707Y262970D01*
Y261220D01*
D02*
G37*
G36*
X373539Y260618D02*
X373490Y260646D01*
X373430Y260670D01*
X373358Y260692D01*
X373274Y260711D01*
X373180Y260727D01*
X372957Y260750D01*
X372688Y260762D01*
X372536Y260763D01*
Y261563D01*
X372688Y261565D01*
X373180Y261599D01*
X373274Y261615D01*
X373358Y261634D01*
X373430Y261656D01*
X373490Y261681D01*
X373539Y261708D01*
Y260618D01*
D02*
G37*
G36*
X424827Y261681D02*
X424888Y261656D01*
X424959Y261634D01*
X425043Y261615D01*
X425137Y261599D01*
X425360Y261576D01*
X425629Y261565D01*
X425781Y261563D01*
Y260763D01*
X425629Y260762D01*
X425137Y260727D01*
X425043Y260711D01*
X424959Y260692D01*
X424888Y260670D01*
X424827Y260646D01*
X424778Y260618D01*
Y261708D01*
X424827Y261681D01*
D02*
G37*
G36*
X404353Y260857D02*
X404364Y260732D01*
X404383Y260612D01*
X404411Y260497D01*
X404447Y260387D01*
X404491Y260282D01*
X404543Y260183D01*
X404604Y260088D01*
X404673Y259999D01*
X404751Y259915D01*
X404185Y259349D01*
X404101Y259427D01*
X404012Y259496D01*
X403917Y259557D01*
X403818Y259609D01*
X403713Y259653D01*
X403603Y259689D01*
X403488Y259717D01*
X403368Y259736D01*
X403243Y259747D01*
X403113Y259750D01*
X404350Y260987D01*
X404353Y260857D01*
D02*
G37*
G36*
X344406Y260851D02*
X344430Y260783D01*
X344471Y260723D01*
X344528Y260671D01*
X344601Y260627D01*
X344690Y260591D01*
X344795Y260563D01*
X344917Y260542D01*
X345055Y260530D01*
X345210Y260526D01*
Y259727D01*
X345055Y259723D01*
X344917Y259711D01*
X344795Y259690D01*
X344690Y259663D01*
X344601Y259627D01*
X344528Y259582D01*
X344471Y259530D01*
X344430Y259471D01*
X344406Y259403D01*
X344398Y259327D01*
Y260927D01*
X344406Y260851D01*
D02*
G37*
G36*
X442870Y259326D02*
X442862Y259402D01*
X442838Y259470D01*
X442797Y259530D01*
X442740Y259582D01*
X442667Y259626D01*
X442578Y259662D01*
X442472Y259690D01*
X442350Y259710D01*
X442212Y259722D01*
X442058Y259726D01*
Y260526D01*
X442212Y260530D01*
X442350Y260542D01*
X442472Y260562D01*
X442578Y260590D01*
X442667Y260626D01*
X442740Y260670D01*
X442797Y260722D01*
X442838Y260782D01*
X442862Y260850D01*
X442870Y260926D01*
Y259326D01*
D02*
G37*
G36*
X408253Y260657D02*
X408264Y260532D01*
X408283Y260412D01*
X408311Y260297D01*
X408347Y260187D01*
X408391Y260082D01*
X408443Y259983D01*
X408504Y259888D01*
X408573Y259799D01*
X408651Y259715D01*
X408085Y259149D01*
X408001Y259227D01*
X407912Y259296D01*
X407817Y259356D01*
X407718Y259409D01*
X407613Y259453D01*
X407503Y259489D01*
X407388Y259517D01*
X407268Y259536D01*
X407143Y259547D01*
X407013Y259550D01*
X408250Y260788D01*
X408253Y260657D01*
D02*
G37*
G36*
X424826Y259713D02*
X424885Y259689D01*
X424956Y259668D01*
X425038Y259650D01*
X425132Y259635D01*
X425355Y259613D01*
X425625Y259601D01*
X425777Y259600D01*
X425784Y258800D01*
X425634Y258799D01*
X425142Y258762D01*
X425047Y258746D01*
X424963Y258726D01*
X424890Y258704D01*
X424828Y258678D01*
X424778Y258650D01*
Y259740D01*
X424826Y259713D01*
D02*
G37*
G36*
X373539Y258650D02*
X373490Y258677D01*
X373430Y258702D01*
X373358Y258724D01*
X373274Y258742D01*
X373180Y258758D01*
X372957Y258782D01*
X372688Y258793D01*
X372536Y258795D01*
Y259595D01*
X372688Y259596D01*
X373180Y259631D01*
X373274Y259647D01*
X373358Y259666D01*
X373430Y259687D01*
X373490Y259712D01*
X373539Y259740D01*
Y258650D01*
D02*
G37*
G36*
X326701Y259265D02*
X326725Y259209D01*
X326765Y259160D01*
X326821Y259118D01*
X326893Y259082D01*
X326981Y259052D01*
X327085Y259029D01*
X327205Y259013D01*
X327341Y259003D01*
X327493Y259000D01*
Y258200D01*
X327339Y258196D01*
X327202Y258184D01*
X327080Y258164D01*
X326975Y258136D01*
X326886Y258100D01*
X326813Y258056D01*
X326755Y258004D01*
X326715Y257944D01*
X326690Y257876D01*
X326681Y257800D01*
X326693Y259327D01*
X326701Y259265D01*
D02*
G37*
G36*
X330707Y257725D02*
X330613Y257815D01*
X330517Y257896D01*
X330418Y257967D01*
X330317Y258029D01*
X330214Y258081D01*
X330109Y258124D01*
X330001Y258157D01*
X329892Y258181D01*
X329780Y258195D01*
X329666Y258200D01*
Y259000D01*
X329780Y259005D01*
X329892Y259019D01*
X330001Y259043D01*
X330109Y259076D01*
X330214Y259119D01*
X330317Y259171D01*
X330418Y259233D01*
X330517Y259304D01*
X330613Y259385D01*
X330707Y259475D01*
Y257725D01*
D02*
G37*
G36*
X460587Y257357D02*
X460578Y257433D01*
X460554Y257501D01*
X460514Y257561D01*
X460457Y257613D01*
X460384Y257657D01*
X460294Y257693D01*
X460189Y257721D01*
X460067Y257741D01*
X459929Y257753D01*
X459775Y257757D01*
Y258557D01*
X459929Y258561D01*
X460067Y258573D01*
X460189Y258593D01*
X460294Y258621D01*
X460384Y258657D01*
X460457Y258701D01*
X460514Y258753D01*
X460554Y258813D01*
X460578Y258881D01*
X460587Y258957D01*
Y257357D01*
D02*
G37*
G36*
X457187Y258942D02*
X457283Y258861D01*
X457382Y258790D01*
X457483Y258728D01*
X457586Y258676D01*
X457691Y258633D01*
X457799Y258600D01*
X457908Y258576D01*
X458020Y258562D01*
X458134Y258557D01*
Y257757D01*
X458020Y257752D01*
X457908Y257738D01*
X457799Y257714D01*
X457691Y257681D01*
X457586Y257638D01*
X457483Y257586D01*
X457382Y257524D01*
X457283Y257453D01*
X457187Y257372D01*
X457093Y257282D01*
Y259032D01*
X457187Y258942D01*
D02*
G37*
G36*
X399053Y258657D02*
X399064Y258532D01*
X399083Y258412D01*
X399111Y258297D01*
X399147Y258187D01*
X399191Y258082D01*
X399243Y257983D01*
X399304Y257888D01*
X399373Y257799D01*
X399451Y257715D01*
X398885Y257149D01*
X398801Y257227D01*
X398712Y257296D01*
X398617Y257357D01*
X398518Y257409D01*
X398413Y257453D01*
X398303Y257489D01*
X398188Y257517D01*
X398068Y257536D01*
X397943Y257547D01*
X397813Y257550D01*
X399050Y258787D01*
X399053Y258657D01*
D02*
G37*
G36*
X419996Y256681D02*
X419973Y256690D01*
X419932Y256697D01*
X419872Y256704D01*
X419579Y256719D01*
X418928Y256726D01*
Y257726D01*
X419996Y257771D01*
Y256681D01*
D02*
G37*
G36*
X378370Y257744D02*
X378431Y257719D01*
X378503Y257697D01*
X378586Y257678D01*
X378680Y257662D01*
X378904Y257639D01*
X379173Y257628D01*
X379324Y257626D01*
Y256826D01*
X379173Y256825D01*
X378680Y256790D01*
X378586Y256774D01*
X378503Y256755D01*
X378431Y256733D01*
X378370Y256709D01*
X378321Y256681D01*
Y257771D01*
X378370Y257744D01*
D02*
G37*
G36*
X337461Y286154D02*
X337816Y285805D01*
Y285630D01*
X337816D01*
Y281868D01*
X337816D01*
Y281693D01*
X337816D01*
Y277930D01*
X337816D01*
Y277756D01*
X337816D01*
Y273993D01*
X337816D01*
Y273819D01*
X337816D01*
Y270057D01*
X337816D01*
Y269882D01*
X337816D01*
Y266120D01*
X337816D01*
Y265945D01*
X337816D01*
Y262182D01*
X337816D01*
Y262008D01*
X337816D01*
Y258245D01*
X337816D01*
Y258071D01*
X337816D01*
Y254309D01*
X337816D01*
Y254134D01*
X337816D01*
Y250372D01*
X337816D01*
Y250197D01*
X337816D01*
Y246434D01*
X337816D01*
Y246259D01*
X337816D01*
Y245500D01*
X336963D01*
X336951Y245501D01*
X336901Y245512D01*
X336853Y245527D01*
X336804Y245547D01*
X336753Y245573D01*
X336699Y245606D01*
X336644Y245646D01*
X336585Y245695D01*
X336508Y245769D01*
X336455Y245802D01*
X336226Y246032D01*
X335509Y246328D01*
X334734D01*
X334017Y246032D01*
X333468Y245483D01*
X333172Y244766D01*
Y243991D01*
X333468Y243274D01*
X334017Y242725D01*
X334125Y242681D01*
Y242139D01*
X334017Y242095D01*
X333468Y241546D01*
X333172Y240829D01*
Y240054D01*
X333468Y239337D01*
X334017Y238788D01*
X334734Y238492D01*
X335509D01*
X336226Y238788D01*
X336455Y239018D01*
X336508Y239051D01*
X336585Y239125D01*
X336644Y239174D01*
X336699Y239214D01*
X336753Y239247D01*
X336804Y239273D01*
X336853Y239293D01*
X336901Y239308D01*
X336951Y239318D01*
X336963Y239320D01*
X337816D01*
Y238560D01*
X337816D01*
Y238386D01*
X337816D01*
Y234749D01*
X337516D01*
Y233067D01*
X341469D01*
X345422D01*
Y234749D01*
X345122D01*
Y235383D01*
X346504D01*
X346504Y235383D01*
X346934Y235468D01*
X347298Y235711D01*
X369659Y258073D01*
X372223D01*
X372518Y257573D01*
X372449Y257226D01*
X372549Y256723D01*
X372834Y256296D01*
X373261Y256011D01*
X373765Y255910D01*
X378096D01*
X378599Y256011D01*
X378676Y256062D01*
X378676Y256062D01*
X378685Y256065D01*
X378724Y256073D01*
X378765Y256080D01*
X379107Y256105D01*
X380726D01*
X380726Y256105D01*
X381155Y256190D01*
X381519Y256433D01*
X382713Y257627D01*
X383173Y257380D01*
X383171Y257369D01*
Y251536D01*
X383161Y251341D01*
X383079Y250927D01*
Y246596D01*
X383179Y246093D01*
X383360Y245821D01*
X383156Y245339D01*
X383139Y245321D01*
X380921D01*
X376920Y249322D01*
X377966Y250368D01*
X374501Y253833D01*
X370824Y250155D01*
X374289Y246691D01*
X375334Y247736D01*
X378987Y244083D01*
X378795Y243621D01*
X372351D01*
X372144Y244122D01*
X373511Y245489D01*
X371920Y247080D01*
X369869Y245029D01*
X367819Y242978D01*
X369349Y241448D01*
X354722Y226821D01*
X345122D01*
Y230386D01*
X345422D01*
Y232067D01*
X341469D01*
X337516D01*
Y230386D01*
X337816D01*
Y227923D01*
X337354Y227732D01*
X333622Y231465D01*
Y234400D01*
X333622Y234400D01*
X333536Y234829D01*
X333293Y235193D01*
X333293Y235193D01*
X329220Y239266D01*
X328856Y239509D01*
X328427Y239595D01*
X328427Y239595D01*
X327405D01*
Y240354D01*
X327405Y240354D01*
Y240529D01*
X327405D01*
X327405Y240854D01*
Y244291D01*
X327405D01*
Y244466D01*
X327405D01*
Y248228D01*
X327405D01*
Y248403D01*
X327405D01*
Y252165D01*
X327405D01*
Y252340D01*
X327405D01*
Y255777D01*
X327405Y256102D01*
X327405Y256602D01*
Y257478D01*
X329759D01*
X329771Y257477D01*
X329820Y257466D01*
X329869Y257451D01*
X329918Y257431D01*
X329969Y257405D01*
X330022Y257373D01*
X330078Y257332D01*
X330137Y257283D01*
X330214Y257210D01*
X330266Y257176D01*
X330495Y256947D01*
X331212Y256650D01*
X331988D01*
X332705Y256947D01*
X333253Y257495D01*
X333550Y258212D01*
Y258988D01*
X333253Y259705D01*
X332937Y260021D01*
X332757Y260348D01*
X332937Y260674D01*
X333253Y260991D01*
X333550Y261707D01*
Y262483D01*
X333253Y263200D01*
X332705Y263748D01*
X332596Y263793D01*
Y264334D01*
X332705Y264379D01*
X333253Y264928D01*
X333550Y265644D01*
Y266420D01*
X333253Y267137D01*
X332705Y267685D01*
X332596Y267730D01*
Y268271D01*
X332705Y268316D01*
X333253Y268864D01*
X333550Y269581D01*
Y270357D01*
X333253Y271074D01*
X332705Y271622D01*
X332596Y271667D01*
Y272208D01*
X332705Y272253D01*
X333253Y272801D01*
X333550Y273518D01*
Y274294D01*
X333253Y275011D01*
X332705Y275559D01*
X332596Y275604D01*
Y276145D01*
X332705Y276190D01*
X333253Y276739D01*
X333550Y277455D01*
Y278231D01*
X333253Y278948D01*
X332705Y279496D01*
X331988Y279793D01*
X331212D01*
X330495Y279496D01*
X330266Y279267D01*
X330214Y279234D01*
X330137Y279160D01*
X330078Y279111D01*
X330022Y279070D01*
X329969Y279038D01*
X329918Y279012D01*
X329869Y278992D01*
X329820Y278977D01*
X329771Y278966D01*
X329759Y278965D01*
X327759D01*
X327405Y279318D01*
X327405Y279724D01*
X327405Y280224D01*
Y283336D01*
X327405Y283661D01*
X327405Y284080D01*
X327891Y284188D01*
X328717D01*
X329302Y284304D01*
X329799Y284636D01*
X331319Y286156D01*
X337419D01*
X337461Y286154D01*
D02*
G37*
G36*
X416372Y258536D02*
X416402Y258366D01*
X416452Y258216D01*
X416522Y258086D01*
X416612Y257976D01*
X416722Y257886D01*
X416852Y257816D01*
X417002Y257766D01*
X417172Y257736D01*
X417362Y257726D01*
Y256726D01*
X417172Y256716D01*
X417002Y256686D01*
X416852Y256636D01*
X416722Y256566D01*
X416612Y256476D01*
X416522Y256366D01*
X416452Y256236D01*
X416402Y256086D01*
X416372Y255916D01*
X416362Y255726D01*
X415362Y257226D01*
X416362Y258726D01*
X416372Y258536D01*
D02*
G37*
G36*
X344406Y256914D02*
X344430Y256846D01*
X344471Y256786D01*
X344528Y256734D01*
X344601Y256690D01*
X344690Y256654D01*
X344795Y256626D01*
X344917Y256606D01*
X345055Y256594D01*
X345210Y256590D01*
Y255790D01*
X345055Y255786D01*
X344917Y255774D01*
X344795Y255754D01*
X344690Y255726D01*
X344601Y255690D01*
X344528Y255646D01*
X344471Y255594D01*
X344430Y255534D01*
X344406Y255466D01*
X344398Y255390D01*
Y256990D01*
X344406Y256914D01*
D02*
G37*
G36*
X442870Y255389D02*
X442862Y255465D01*
X442838Y255533D01*
X442797Y255593D01*
X442740Y255645D01*
X442667Y255689D01*
X442578Y255725D01*
X442472Y255753D01*
X442350Y255773D01*
X442212Y255785D01*
X442058Y255789D01*
Y256589D01*
X442212Y256593D01*
X442350Y256605D01*
X442472Y256625D01*
X442578Y256653D01*
X442667Y256689D01*
X442740Y256733D01*
X442797Y256785D01*
X442838Y256845D01*
X442862Y256913D01*
X442870Y256989D01*
Y255389D01*
D02*
G37*
G36*
X404553Y256757D02*
X404564Y256632D01*
X404583Y256512D01*
X404611Y256397D01*
X404647Y256287D01*
X404691Y256182D01*
X404743Y256083D01*
X404804Y255988D01*
X404873Y255899D01*
X404951Y255815D01*
X404385Y255249D01*
X404301Y255327D01*
X404212Y255396D01*
X404117Y255456D01*
X404018Y255509D01*
X403913Y255553D01*
X403803Y255589D01*
X403688Y255617D01*
X403568Y255636D01*
X403443Y255647D01*
X403312Y255650D01*
X404550Y256888D01*
X404553Y256757D01*
D02*
G37*
G36*
X460587Y253485D02*
X460578Y253561D01*
X460554Y253629D01*
X460514Y253690D01*
X460457Y253742D01*
X460384Y253785D01*
X460294Y253821D01*
X460189Y253850D01*
X460067Y253870D01*
X459929Y253882D01*
X459775Y253886D01*
Y254685D01*
X459929Y254690D01*
X460067Y254701D01*
X460189Y254721D01*
X460294Y254749D01*
X460384Y254785D01*
X460457Y254830D01*
X460514Y254882D01*
X460554Y254942D01*
X460578Y255010D01*
X460587Y255085D01*
Y253485D01*
D02*
G37*
G36*
X457357Y255084D02*
X457448Y255001D01*
X457542Y254927D01*
X457640Y254863D01*
X457740Y254809D01*
X457843Y254764D01*
X457949Y254730D01*
X458058Y254705D01*
X458170Y254691D01*
X458285Y254685D01*
X458241Y253886D01*
X458128Y253881D01*
X458016Y253867D01*
X457906Y253845D01*
X457798Y253813D01*
X457690Y253772D01*
X457585Y253722D01*
X457480Y253663D01*
X457378Y253594D01*
X457276Y253517D01*
X457177Y253431D01*
X457268Y255178D01*
X457357Y255084D01*
D02*
G37*
G36*
X320812Y253421D02*
X320804Y253497D01*
X320780Y253565D01*
X320740Y253625D01*
X320684Y253677D01*
X320612Y253721D01*
X320524Y253757D01*
X320420Y253785D01*
X320300Y253805D01*
X320164Y253817D01*
X320012Y253821D01*
Y254621D01*
X320164Y254625D01*
X320300Y254637D01*
X320420Y254657D01*
X320524Y254685D01*
X320612Y254721D01*
X320684Y254765D01*
X320740Y254817D01*
X320780Y254877D01*
X320804Y254945D01*
X320812Y255021D01*
Y253421D01*
D02*
G37*
G36*
X395269Y253272D02*
X395204Y253279D01*
X395138Y253276D01*
X395069Y253263D01*
X394997Y253240D01*
X394923Y253208D01*
X394847Y253166D01*
X394769Y253114D01*
X394689Y253052D01*
X394605Y252980D01*
X394520Y252899D01*
X393954Y253464D01*
X394032Y253546D01*
X394100Y253626D01*
X394158Y253704D01*
X394207Y253779D01*
X394245Y253853D01*
X394273Y253925D01*
X394292Y253994D01*
X394301Y254062D01*
X394300Y254128D01*
X394289Y254191D01*
X395269Y253272D01*
D02*
G37*
G36*
X318851Y253785D02*
X318773Y253701D01*
X318704Y253612D01*
X318643Y253517D01*
X318591Y253418D01*
X318547Y253313D01*
X318511Y253203D01*
X318483Y253088D01*
X318464Y252968D01*
X318453Y252843D01*
X318450Y252712D01*
X317213Y253950D01*
X317343Y253953D01*
X317468Y253964D01*
X317588Y253983D01*
X317703Y254011D01*
X317813Y254047D01*
X317918Y254091D01*
X318017Y254144D01*
X318112Y254204D01*
X318201Y254273D01*
X318285Y254351D01*
X318851Y253785D01*
D02*
G37*
G36*
X344406Y252977D02*
X344430Y252909D01*
X344471Y252849D01*
X344528Y252797D01*
X344601Y252753D01*
X344690Y252717D01*
X344795Y252689D01*
X344917Y252669D01*
X345055Y252657D01*
X345210Y252653D01*
Y251853D01*
X345055Y251849D01*
X344917Y251837D01*
X344795Y251817D01*
X344690Y251789D01*
X344601Y251753D01*
X344528Y251709D01*
X344471Y251657D01*
X344430Y251597D01*
X344406Y251529D01*
X344398Y251453D01*
Y253053D01*
X344406Y252977D01*
D02*
G37*
G36*
X442870Y251452D02*
X442862Y251528D01*
X442838Y251596D01*
X442797Y251656D01*
X442740Y251708D01*
X442667Y251752D01*
X442578Y251788D01*
X442472Y251816D01*
X442350Y251836D01*
X442212Y251848D01*
X442058Y251852D01*
Y252652D01*
X442212Y252656D01*
X442350Y252668D01*
X442472Y252688D01*
X442578Y252716D01*
X442667Y252752D01*
X442740Y252796D01*
X442797Y252848D01*
X442838Y252908D01*
X442862Y252976D01*
X442870Y253052D01*
Y251452D01*
D02*
G37*
G36*
X412355Y252004D02*
X412390Y251512D01*
X412406Y251417D01*
X412425Y251334D01*
X412447Y251262D01*
X412471Y251202D01*
X412499Y251153D01*
X411409D01*
X411436Y251202D01*
X411461Y251262D01*
X411483Y251334D01*
X411502Y251417D01*
X411517Y251512D01*
X411541Y251735D01*
X411552Y252004D01*
X411554Y252155D01*
X412354D01*
X412355Y252004D01*
D02*
G37*
G36*
X406450D02*
X406485Y251512D01*
X406500Y251417D01*
X406519Y251334D01*
X406541Y251262D01*
X406566Y251202D01*
X406593Y251153D01*
X405503D01*
X405531Y251202D01*
X405555Y251262D01*
X405577Y251334D01*
X405596Y251417D01*
X405612Y251512D01*
X405635Y251735D01*
X405647Y252004D01*
X405648Y252155D01*
X406448D01*
X406450Y252004D01*
D02*
G37*
G36*
X404481D02*
X404516Y251512D01*
X404532Y251417D01*
X404551Y251334D01*
X404573Y251262D01*
X404597Y251202D01*
X404625Y251153D01*
X403535D01*
X403562Y251202D01*
X403587Y251262D01*
X403609Y251334D01*
X403628Y251417D01*
X403644Y251512D01*
X403667Y251735D01*
X403678Y252004D01*
X403680Y252155D01*
X404480D01*
X404481Y252004D01*
D02*
G37*
G36*
X394639D02*
X394673Y251512D01*
X394689Y251417D01*
X394708Y251334D01*
X394730Y251262D01*
X394755Y251202D01*
X394782Y251153D01*
X393692D01*
X393720Y251202D01*
X393744Y251262D01*
X393766Y251334D01*
X393785Y251417D01*
X393801Y251512D01*
X393824Y251735D01*
X393836Y252004D01*
X393837Y252155D01*
X394637D01*
X394639Y252004D01*
D02*
G37*
G36*
X388733D02*
X388768Y251512D01*
X388784Y251417D01*
X388803Y251334D01*
X388825Y251262D01*
X388849Y251202D01*
X388877Y251153D01*
X387787D01*
X387814Y251202D01*
X387839Y251262D01*
X387861Y251334D01*
X387880Y251417D01*
X387895Y251512D01*
X387919Y251735D01*
X387930Y252004D01*
X387932Y252155D01*
X388732D01*
X388733Y252004D01*
D02*
G37*
G36*
X384940Y251153D02*
X383850D01*
X383858Y251175D01*
X383866Y251217D01*
X383873Y251277D01*
X383888Y251569D01*
X383895Y252220D01*
X384895D01*
X384940Y251153D01*
D02*
G37*
G36*
X408418Y252004D02*
X408453Y251512D01*
X408469Y251417D01*
X408488Y251334D01*
X408510Y251262D01*
X408534Y251202D01*
X408562Y251153D01*
X407472D01*
X407499Y251202D01*
X407524Y251262D01*
X407546Y251334D01*
X407565Y251417D01*
X407581Y251512D01*
X407604Y251735D01*
X407615Y252004D01*
X407617Y252155D01*
X408417D01*
X408418Y252004D01*
D02*
G37*
G36*
X410387Y252004D02*
X410422Y251512D01*
X410437Y251417D01*
X410456Y251334D01*
X410478Y251262D01*
X410503Y251202D01*
X410530Y251153D01*
X409440D01*
X409468Y251202D01*
X409492Y251262D01*
X409514Y251334D01*
X409533Y251417D01*
X409549Y251512D01*
X409572Y251735D01*
X409584Y252004D01*
X409585Y252155D01*
X410385D01*
X410387Y252004D01*
D02*
G37*
G36*
X320812Y249484D02*
X320804Y249560D01*
X320780Y249628D01*
X320740Y249688D01*
X320684Y249740D01*
X320612Y249784D01*
X320524Y249820D01*
X320420Y249848D01*
X320300Y249868D01*
X320164Y249880D01*
X320012Y249884D01*
Y250684D01*
X320164Y250688D01*
X320300Y250700D01*
X320420Y250720D01*
X320524Y250748D01*
X320612Y250784D01*
X320684Y250828D01*
X320740Y250880D01*
X320780Y250940D01*
X320804Y251008D01*
X320812Y251084D01*
Y249484D01*
D02*
G37*
G36*
X460587Y249483D02*
X460578Y249559D01*
X460554Y249627D01*
X460514Y249687D01*
X460457Y249739D01*
X460384Y249783D01*
X460294Y249819D01*
X460189Y249847D01*
X460067Y249867D01*
X459929Y249879D01*
X459775Y249883D01*
Y250683D01*
X459929Y250687D01*
X460067Y250699D01*
X460189Y250719D01*
X460294Y250747D01*
X460384Y250783D01*
X460457Y250827D01*
X460514Y250879D01*
X460554Y250939D01*
X460578Y251007D01*
X460587Y251083D01*
Y249483D01*
D02*
G37*
G36*
X457187Y251068D02*
X457283Y250987D01*
X457382Y250916D01*
X457483Y250854D01*
X457586Y250802D01*
X457691Y250759D01*
X457799Y250726D01*
X457908Y250702D01*
X458020Y250688D01*
X458134Y250683D01*
Y249883D01*
X458020Y249878D01*
X457908Y249864D01*
X457799Y249840D01*
X457691Y249807D01*
X457586Y249764D01*
X457483Y249712D01*
X457382Y249650D01*
X457283Y249579D01*
X457187Y249498D01*
X457093Y249408D01*
Y251158D01*
X457187Y251068D01*
D02*
G37*
G36*
X376141Y249539D02*
X376110Y249474D01*
X376096Y249403D01*
X376099Y249327D01*
X376119Y249245D01*
X376155Y249157D01*
X376209Y249064D01*
X376280Y248965D01*
X376368Y248860D01*
X376472Y248750D01*
X375907Y248184D01*
X375796Y248289D01*
X375692Y248376D01*
X375593Y248447D01*
X375499Y248501D01*
X375412Y248538D01*
X375330Y248557D01*
X375253Y248560D01*
X375183Y248546D01*
X375117Y248515D01*
X375058Y248467D01*
X376189Y249598D01*
X376141Y249539D01*
D02*
G37*
G36*
X344406Y249040D02*
X344430Y248972D01*
X344471Y248911D01*
X344528Y248860D01*
X344601Y248815D01*
X344690Y248780D01*
X344795Y248751D01*
X344917Y248731D01*
X345055Y248720D01*
X345210Y248715D01*
Y247916D01*
X345055Y247912D01*
X344917Y247900D01*
X344795Y247880D01*
X344690Y247851D01*
X344601Y247815D01*
X344528Y247772D01*
X344471Y247720D01*
X344430Y247659D01*
X344406Y247591D01*
X344398Y247516D01*
Y249115D01*
X344406Y249040D01*
D02*
G37*
G36*
X442870Y247515D02*
X442862Y247591D01*
X442838Y247659D01*
X442797Y247719D01*
X442740Y247771D01*
X442667Y247815D01*
X442578Y247851D01*
X442472Y247879D01*
X442350Y247899D01*
X442212Y247911D01*
X442058Y247915D01*
Y248715D01*
X442212Y248719D01*
X442350Y248731D01*
X442472Y248751D01*
X442578Y248779D01*
X442667Y248815D01*
X442740Y248859D01*
X442797Y248911D01*
X442838Y248971D01*
X442862Y249039D01*
X442870Y249115D01*
Y247515D01*
D02*
G37*
G36*
X429205Y248344D02*
X429264Y247636D01*
X429299Y247460D01*
X429342Y247315D01*
X429393Y247199D01*
X429452Y247113D01*
X429518Y247058D01*
X429593Y247032D01*
X428010Y247244D01*
X428084Y247247D01*
X428151Y247276D01*
X428209Y247331D01*
X428260Y247412D01*
X428303Y247520D01*
X428339Y247654D01*
X428366Y247814D01*
X428386Y248001D01*
X428401Y248453D01*
X429201Y248640D01*
X429205Y248344D01*
D02*
G37*
G36*
X320812Y245547D02*
X320804Y245623D01*
X320780Y245691D01*
X320740Y245751D01*
X320684Y245803D01*
X320612Y245847D01*
X320524Y245883D01*
X320420Y245911D01*
X320300Y245931D01*
X320164Y245943D01*
X320012Y245947D01*
Y246747D01*
X320164Y246751D01*
X320300Y246763D01*
X320420Y246783D01*
X320524Y246811D01*
X320612Y246847D01*
X320684Y246891D01*
X320740Y246943D01*
X320780Y247003D01*
X320804Y247071D01*
X320812Y247147D01*
Y245547D01*
D02*
G37*
G36*
X460587Y245546D02*
X460578Y245622D01*
X460554Y245690D01*
X460514Y245750D01*
X460457Y245802D01*
X460384Y245846D01*
X460294Y245882D01*
X460189Y245910D01*
X460067Y245930D01*
X459929Y245942D01*
X459775Y245946D01*
Y246746D01*
X459929Y246750D01*
X460067Y246762D01*
X460189Y246782D01*
X460294Y246810D01*
X460384Y246846D01*
X460457Y246890D01*
X460514Y246942D01*
X460554Y247002D01*
X460578Y247070D01*
X460587Y247146D01*
Y245546D01*
D02*
G37*
G36*
X457187Y247131D02*
X457283Y247050D01*
X457382Y246979D01*
X457483Y246917D01*
X457586Y246865D01*
X457691Y246822D01*
X457799Y246789D01*
X457908Y246765D01*
X458020Y246751D01*
X458134Y246746D01*
Y245946D01*
X458020Y245941D01*
X457908Y245927D01*
X457799Y245903D01*
X457691Y245870D01*
X457586Y245827D01*
X457483Y245775D01*
X457382Y245713D01*
X457283Y245642D01*
X457187Y245561D01*
X457093Y245471D01*
Y247221D01*
X457187Y247131D01*
D02*
G37*
G36*
X408534Y246322D02*
X408510Y246263D01*
X408488Y246194D01*
X408469Y246114D01*
X408453Y246024D01*
X408430Y245813D01*
X408418Y245561D01*
X408417Y245420D01*
X407617D01*
X407615Y245561D01*
X407581Y246024D01*
X407565Y246114D01*
X407546Y246194D01*
X407524Y246263D01*
X407499Y246322D01*
X407472Y246371D01*
X408562D01*
X408534Y246322D01*
D02*
G37*
G36*
X412471Y246321D02*
X412447Y246261D01*
X412425Y246189D01*
X412406Y246106D01*
X412390Y246011D01*
X412367Y245788D01*
X412355Y245519D01*
X412354Y245368D01*
X411554D01*
X411552Y245519D01*
X411517Y246011D01*
X411502Y246106D01*
X411483Y246189D01*
X411461Y246261D01*
X411436Y246321D01*
X411409Y246371D01*
X412499D01*
X412471Y246321D01*
D02*
G37*
G36*
X398692D02*
X398667Y246261D01*
X398645Y246189D01*
X398626Y246106D01*
X398610Y246011D01*
X398587Y245788D01*
X398576Y245519D01*
X398574Y245368D01*
X397774D01*
X397773Y245519D01*
X397738Y246011D01*
X397722Y246106D01*
X397703Y246189D01*
X397681Y246261D01*
X397657Y246321D01*
X397629Y246371D01*
X398719D01*
X398692Y246321D01*
D02*
G37*
G36*
X396723D02*
X396699Y246261D01*
X396677Y246189D01*
X396658Y246106D01*
X396642Y246011D01*
X396619Y245788D01*
X396607Y245519D01*
X396606Y245368D01*
X395806D01*
X395804Y245519D01*
X395770Y246011D01*
X395754Y246106D01*
X395735Y246189D01*
X395713Y246261D01*
X395688Y246321D01*
X395661Y246371D01*
X396751D01*
X396723Y246321D01*
D02*
G37*
G36*
X390818D02*
X390793Y246261D01*
X390771Y246189D01*
X390753Y246106D01*
X390737Y246011D01*
X390713Y245788D01*
X390702Y245519D01*
X390700Y245368D01*
X389900D01*
X389899Y245519D01*
X389864Y246011D01*
X389848Y246106D01*
X389829Y246189D01*
X389808Y246261D01*
X389783Y246321D01*
X389755Y246371D01*
X390845D01*
X390818Y246321D01*
D02*
G37*
G36*
X386881D02*
X386856Y246261D01*
X386834Y246189D01*
X386816Y246106D01*
X386800Y246011D01*
X386776Y245788D01*
X386765Y245519D01*
X386763Y245368D01*
X385963D01*
X385962Y245519D01*
X385927Y246011D01*
X385911Y246106D01*
X385892Y246189D01*
X385871Y246261D01*
X385846Y246321D01*
X385818Y246371D01*
X386908D01*
X386881Y246321D01*
D02*
G37*
G36*
X402628Y246320D02*
X402602Y246258D01*
X402579Y246185D01*
X402560Y246101D01*
X402543Y246006D01*
X402519Y245783D01*
X402507Y245515D01*
X402506Y245364D01*
X401706Y245372D01*
X401704Y245524D01*
X401671Y246017D01*
X401655Y246111D01*
X401637Y246193D01*
X401616Y246264D01*
X401593Y246323D01*
X401566Y246371D01*
X402656D01*
X402628Y246320D01*
D02*
G37*
G36*
X414435Y246315D02*
X414407Y246250D01*
X414382Y246174D01*
X414360Y246088D01*
X414342Y245991D01*
X414315Y245767D01*
X414307Y245639D01*
X414300Y245353D01*
X413500Y245387D01*
X413499Y245541D01*
X413456Y246125D01*
X413440Y246205D01*
X413421Y246272D01*
X413401Y246328D01*
X413377Y246371D01*
X414467D01*
X414435Y246315D01*
D02*
G37*
G36*
X392779Y246311D02*
X392749Y246243D01*
X392722Y246164D01*
X392698Y246076D01*
X392678Y245978D01*
X392649Y245754D01*
X392640Y245627D01*
X392633Y245344D01*
X391833Y245407D01*
X391832Y245561D01*
X391794Y246138D01*
X391779Y246215D01*
X391763Y246280D01*
X391744Y246332D01*
X391724Y246371D01*
X392814D01*
X392779Y246311D01*
D02*
G37*
G36*
X400671Y246338D02*
X400656Y246291D01*
X400643Y246232D01*
X400632Y246158D01*
X400614Y245972D01*
X400601Y245592D01*
X400600Y245439D01*
X399800Y245329D01*
X399798Y245473D01*
X399768Y245850D01*
X399749Y245959D01*
X399727Y246059D01*
X399701Y246150D01*
X399671Y246232D01*
X399636Y246306D01*
X399598Y246371D01*
X400688D01*
X400671Y246338D01*
D02*
G37*
G36*
X344406Y245103D02*
X344430Y245035D01*
X344471Y244974D01*
X344528Y244922D01*
X344601Y244879D01*
X344690Y244843D01*
X344795Y244814D01*
X344917Y244795D01*
X345055Y244782D01*
X345210Y244778D01*
Y243979D01*
X345055Y243974D01*
X344917Y243963D01*
X344795Y243942D01*
X344690Y243915D01*
X344601Y243879D01*
X344528Y243834D01*
X344471Y243782D01*
X344430Y243723D01*
X344406Y243654D01*
X344398Y243579D01*
Y245179D01*
X344406Y245103D01*
D02*
G37*
G36*
X338528Y243579D02*
X338520Y243654D01*
X338496Y243723D01*
X338456Y243782D01*
X338400Y243834D01*
X338328Y243879D01*
X338240Y243915D01*
X338136Y243942D01*
X338016Y243963D01*
X337880Y243974D01*
X337728Y243979D01*
Y244778D01*
X337880Y244782D01*
X338016Y244795D01*
X338136Y244814D01*
X338240Y244843D01*
X338328Y244879D01*
X338400Y244922D01*
X338456Y244974D01*
X338496Y245035D01*
X338520Y245103D01*
X338528Y245179D01*
Y243579D01*
D02*
G37*
G36*
X336108Y245163D02*
X336205Y245082D01*
X336303Y245011D01*
X336404Y244950D01*
X336507Y244897D01*
X336613Y244854D01*
X336720Y244821D01*
X336830Y244797D01*
X336942Y244783D01*
X337056Y244778D01*
Y243979D01*
X336942Y243974D01*
X336830Y243959D01*
X336720Y243936D01*
X336613Y243902D01*
X336507Y243860D01*
X336404Y243808D01*
X336303Y243746D01*
X336205Y243674D01*
X336108Y243594D01*
X336014Y243503D01*
Y245253D01*
X336108Y245163D01*
D02*
G37*
G36*
X320812Y241241D02*
X320804Y241283D01*
X320782Y241321D01*
X320745Y241354D01*
X320693Y241383D01*
X320626Y241408D01*
X320544Y241428D01*
X320447Y241443D01*
X320336Y241454D01*
X320068Y241463D01*
Y242263D01*
X320210Y242267D01*
X320336Y242277D01*
X320447Y242294D01*
X320544Y242318D01*
X320626Y242349D01*
X320693Y242387D01*
X320745Y242431D01*
X320782Y242483D01*
X320804Y242541D01*
X320812Y242607D01*
Y241241D01*
D02*
G37*
G36*
X344406Y241165D02*
X344430Y241097D01*
X344471Y241038D01*
X344528Y240985D01*
X344601Y240942D01*
X344690Y240905D01*
X344795Y240878D01*
X344917Y240858D01*
X345055Y240845D01*
X345210Y240842D01*
Y240041D01*
X345055Y240037D01*
X344917Y240025D01*
X344795Y240005D01*
X344690Y239978D01*
X344601Y239942D01*
X344528Y239897D01*
X344471Y239845D01*
X344430Y239786D01*
X344406Y239718D01*
X344398Y239641D01*
Y241242D01*
X344406Y241165D01*
D02*
G37*
G36*
X338528Y239641D02*
X338520Y239718D01*
X338496Y239786D01*
X338456Y239845D01*
X338400Y239897D01*
X338328Y239942D01*
X338240Y239978D01*
X338136Y240005D01*
X338016Y240025D01*
X337880Y240037D01*
X337728Y240041D01*
Y240842D01*
X337880Y240845D01*
X338016Y240858D01*
X338136Y240878D01*
X338240Y240905D01*
X338328Y240942D01*
X338400Y240985D01*
X338456Y241038D01*
X338496Y241097D01*
X338520Y241165D01*
X338528Y241242D01*
Y239641D01*
D02*
G37*
G36*
X336108Y241226D02*
X336205Y241145D01*
X336303Y241074D01*
X336404Y241013D01*
X336507Y240960D01*
X336613Y240917D01*
X336720Y240884D01*
X336830Y240861D01*
X336942Y240846D01*
X337056Y240842D01*
Y240041D01*
X336942Y240037D01*
X336830Y240022D01*
X336720Y239999D01*
X336613Y239966D01*
X336507Y239923D01*
X336404Y239871D01*
X336303Y239809D01*
X336205Y239738D01*
X336108Y239657D01*
X336014Y239566D01*
Y241317D01*
X336108Y241226D01*
D02*
G37*
G36*
X416362Y241000D02*
X415362Y238793D01*
X415355Y238976D01*
X415334Y239125D01*
X415299Y239239D01*
X415249Y239320D01*
X415185Y239366D01*
X415108Y239378D01*
X415016Y239356D01*
X414910Y239300D01*
X414789Y239210D01*
X414655Y239086D01*
Y240500D01*
X414789Y240644D01*
X414910Y240795D01*
X415016Y240951D01*
X415108Y241113D01*
X415185Y241280D01*
X415249Y241454D01*
X415299Y241634D01*
X415334Y241819D01*
X415355Y242010D01*
X415362Y242207D01*
X416362Y241000D01*
D02*
G37*
G36*
X326689Y239197D02*
X326714Y239129D01*
X326754Y239069D01*
X326811Y239017D01*
X326884Y238973D01*
X326973Y238937D01*
X327079Y238909D01*
X327201Y238889D01*
X327339Y238877D01*
X327493Y238873D01*
Y238073D01*
X327339Y238069D01*
X327201Y238057D01*
X327079Y238037D01*
X326973Y238009D01*
X326884Y237973D01*
X326811Y237929D01*
X326754Y237877D01*
X326714Y237817D01*
X326689Y237749D01*
X326681Y237673D01*
Y239273D01*
X326689Y239197D01*
D02*
G37*
G36*
X344406Y237228D02*
X344430Y237160D01*
X344471Y237101D01*
X344528Y237049D01*
X344601Y237004D01*
X344690Y236968D01*
X344795Y236941D01*
X344917Y236920D01*
X345055Y236909D01*
X345210Y236905D01*
Y236104D01*
X345055Y236101D01*
X344917Y236088D01*
X344795Y236069D01*
X344690Y236040D01*
X344601Y236004D01*
X344528Y235961D01*
X344471Y235909D01*
X344430Y235848D01*
X344406Y235781D01*
X344398Y235704D01*
Y237304D01*
X344406Y237228D01*
D02*
G37*
G36*
X408007Y235625D02*
X407913Y235715D01*
X407817Y235796D01*
X407718Y235867D01*
X407617Y235929D01*
X407514Y235981D01*
X407409Y236024D01*
X407301Y236057D01*
X407192Y236081D01*
X407080Y236095D01*
X406966Y236100D01*
Y236900D01*
X407080Y236905D01*
X407192Y236919D01*
X407301Y236943D01*
X407409Y236976D01*
X407514Y237019D01*
X407617Y237071D01*
X407718Y237133D01*
X407817Y237204D01*
X407913Y237285D01*
X408007Y237375D01*
Y235625D01*
D02*
G37*
G36*
X326689Y235260D02*
X326714Y235192D01*
X326754Y235132D01*
X326811Y235080D01*
X326884Y235036D01*
X326973Y235000D01*
X327079Y234972D01*
X327201Y234952D01*
X327339Y234940D01*
X327493Y234936D01*
Y234136D01*
X327339Y234132D01*
X327201Y234120D01*
X327079Y234100D01*
X326973Y234072D01*
X326884Y234036D01*
X326811Y233992D01*
X326754Y233940D01*
X326714Y233880D01*
X326689Y233812D01*
X326681Y233736D01*
Y235336D01*
X326689Y235260D01*
D02*
G37*
G36*
X396974Y233740D02*
X397017Y233238D01*
X397042Y233115D01*
X397074Y233014D01*
X397111Y232936D01*
X397154Y232880D01*
X397202Y232846D01*
X397257Y232835D01*
X395885D01*
X395939Y232846D01*
X395988Y232880D01*
X396031Y232936D01*
X396068Y233014D01*
X396099Y233115D01*
X396125Y233238D01*
X396145Y233383D01*
X396168Y233740D01*
X396171Y233953D01*
X396971D01*
X396974Y233740D01*
D02*
G37*
G36*
X416364Y233902D02*
X416399Y233422D01*
X416420Y233286D01*
X416475Y233051D01*
X416510Y232952D01*
X416549Y232865D01*
X416593Y232790D01*
X415132D01*
X415176Y232865D01*
X415215Y232952D01*
X415249Y233051D01*
X415279Y233163D01*
X415305Y233286D01*
X415342Y233570D01*
X415353Y233730D01*
X415362Y234086D01*
X416362D01*
X416364Y233902D01*
D02*
G37*
G36*
X413609D02*
X413643Y233422D01*
X413664Y233286D01*
X413719Y233051D01*
X413754Y232952D01*
X413793Y232865D01*
X413837Y232790D01*
X412376D01*
X412420Y232865D01*
X412459Y232952D01*
X412493Y233051D01*
X412523Y233163D01*
X412549Y233286D01*
X412586Y233570D01*
X412597Y233730D01*
X412606Y234086D01*
X413606D01*
X413609Y233902D01*
D02*
G37*
G36*
X405242Y233821D02*
X405268Y233567D01*
X405292Y233446D01*
X405321Y233328D01*
X405358Y233213D01*
X405401Y233102D01*
X405450Y232995D01*
X405506Y232891D01*
X405569Y232790D01*
X404108D01*
X404171Y232891D01*
X404227Y232995D01*
X404277Y233102D01*
X404320Y233213D01*
X404356Y233328D01*
X404386Y233446D01*
X404409Y233567D01*
X404425Y233692D01*
X404435Y233821D01*
X404439Y233953D01*
X405239D01*
X405242Y233821D01*
D02*
G37*
G36*
X402486D02*
X402512Y233567D01*
X402536Y233446D01*
X402565Y233328D01*
X402602Y233213D01*
X402645Y233102D01*
X402694Y232995D01*
X402750Y232891D01*
X402813Y232790D01*
X401352D01*
X401415Y232891D01*
X401471Y232995D01*
X401521Y233102D01*
X401564Y233213D01*
X401600Y233328D01*
X401630Y233446D01*
X401653Y233567D01*
X401670Y233692D01*
X401679Y233821D01*
X401683Y233953D01*
X402483D01*
X402486Y233821D01*
D02*
G37*
G36*
X399730D02*
X399757Y233567D01*
X399780Y233446D01*
X399809Y233328D01*
X399846Y233213D01*
X399889Y233102D01*
X399938Y232995D01*
X399994Y232891D01*
X400057Y232790D01*
X398596D01*
X398659Y232891D01*
X398715Y232995D01*
X398765Y233102D01*
X398808Y233213D01*
X398844Y233328D01*
X398874Y233446D01*
X398897Y233567D01*
X398914Y233692D01*
X398923Y233821D01*
X398927Y233953D01*
X399727D01*
X399730Y233821D01*
D02*
G37*
G36*
X419286Y225785D02*
X419230Y225681D01*
X419180Y225573D01*
X419137Y225462D01*
X419101Y225348D01*
X419071Y225230D01*
X419048Y225108D01*
X419031Y224983D01*
X419021Y224855D01*
X419018Y224723D01*
X418218D01*
X418215Y224855D01*
X418188Y225108D01*
X418165Y225230D01*
X418135Y225348D01*
X418099Y225462D01*
X418056Y225573D01*
X418007Y225681D01*
X417950Y225785D01*
X417888Y225886D01*
X419348D01*
X419286Y225785D01*
D02*
G37*
G36*
X394483D02*
X394426Y225681D01*
X394377Y225573D01*
X394334Y225462D01*
X394298Y225348D01*
X394268Y225230D01*
X394245Y225108D01*
X394228Y224983D01*
X394218Y224855D01*
X394215Y224723D01*
X393415D01*
X393412Y224855D01*
X393385Y225108D01*
X393362Y225230D01*
X393332Y225348D01*
X393296Y225462D01*
X393253Y225573D01*
X393203Y225681D01*
X393147Y225785D01*
X393085Y225886D01*
X394545D01*
X394483Y225785D01*
D02*
G37*
G36*
X413773Y225781D02*
X413716Y225670D01*
X413665Y225551D01*
X413621Y225425D01*
X413584Y225292D01*
X413554Y225152D01*
X413530Y225004D01*
X413503Y224688D01*
X413500Y224519D01*
X412500Y224700D01*
X412499Y224892D01*
X412455Y225607D01*
X412439Y225701D01*
X412421Y225779D01*
X412399Y225840D01*
X412376Y225886D01*
X413837D01*
X413773Y225781D01*
D02*
G37*
G36*
X376724Y218116D02*
X376656Y218092D01*
X376596Y218051D01*
X376544Y217994D01*
X376500Y217921D01*
X376464Y217832D01*
X376436Y217726D01*
X376416Y217604D01*
X376404Y217466D01*
X376400Y217312D01*
X375600D01*
X375596Y217466D01*
X375584Y217604D01*
X375564Y217726D01*
X375536Y217832D01*
X375500Y217921D01*
X375456Y217994D01*
X375404Y218051D01*
X375344Y218092D01*
X375276Y218116D01*
X375200Y218124D01*
X376800D01*
X376724Y218116D01*
D02*
G37*
G36*
X376404Y215775D02*
X376416Y215637D01*
X376436Y215516D01*
X376464Y215410D01*
X376500Y215321D01*
X376544Y215248D01*
X376596Y215191D01*
X376656Y215150D01*
X376724Y215126D01*
X376800Y215118D01*
X375200D01*
X375276Y215126D01*
X375344Y215150D01*
X375404Y215191D01*
X375456Y215248D01*
X375500Y215321D01*
X375536Y215410D01*
X375564Y215516D01*
X375584Y215637D01*
X375596Y215775D01*
X375600Y215930D01*
X376400D01*
X376404Y215775D01*
D02*
G37*
G36*
X394219Y215482D02*
X394231Y215347D01*
X394251Y215227D01*
X394279Y215122D01*
X394315Y215035D01*
X394359Y214962D01*
X394411Y214906D01*
X394471Y214866D01*
X394539Y214843D01*
X394615Y214834D01*
X393015D01*
X393091Y214843D01*
X393159Y214866D01*
X393219Y214906D01*
X393271Y214962D01*
X393315Y215035D01*
X393351Y215122D01*
X393379Y215227D01*
X393399Y215347D01*
X393411Y215482D01*
X393415Y215634D01*
X394215D01*
X394219Y215482D01*
D02*
G37*
G36*
X419022Y214872D02*
X419034Y214736D01*
X419054Y214616D01*
X419082Y214512D01*
X419118Y214424D01*
X419162Y214352D01*
X419214Y214296D01*
X419274Y214256D01*
X419342Y214232D01*
X419418Y214224D01*
X417818D01*
X417894Y214232D01*
X417962Y214256D01*
X418022Y214296D01*
X418074Y214352D01*
X418118Y214424D01*
X418154Y214512D01*
X418182Y214616D01*
X418202Y214736D01*
X418214Y214872D01*
X418218Y215024D01*
X419018D01*
X419022Y214872D01*
D02*
G37*
G36*
X329023Y232655D02*
Y230820D01*
X329023Y230820D01*
X329108Y230391D01*
X329351Y230027D01*
X332895Y226483D01*
X332688Y225984D01*
X332155D01*
X331276Y225748D01*
X330488Y225293D01*
X329845Y224650D01*
X329390Y223862D01*
X329154Y222983D01*
Y222073D01*
X329390Y221194D01*
X329845Y220406D01*
X330356Y219894D01*
X330169Y219394D01*
X324918D01*
Y215942D01*
X332611D01*
X340303D01*
Y219394D01*
X335051D01*
X334864Y219894D01*
X335376Y220406D01*
X335831Y221194D01*
X336066Y222073D01*
Y222709D01*
X336195Y222833D01*
X336541Y223043D01*
X336864Y222979D01*
X336864Y222979D01*
X354751D01*
X354942Y222517D01*
X344836Y212410D01*
X340303D01*
Y214942D01*
X332611D01*
X324918D01*
Y213810D01*
X324456Y213619D01*
X320721Y217353D01*
Y228718D01*
X327405D01*
Y232480D01*
X327405D01*
Y232655D01*
X327405D01*
Y233414D01*
X328264D01*
X329023Y232655D01*
D02*
G37*
G36*
X392264Y212373D02*
X392256Y212449D01*
X392232Y212517D01*
X392191Y212577D01*
X392134Y212629D01*
X392061Y212673D01*
X391972Y212709D01*
X391866Y212737D01*
X391744Y212757D01*
X391606Y212769D01*
X391452Y212773D01*
Y213573D01*
X391606Y213577D01*
X391744Y213589D01*
X391866Y213609D01*
X391972Y213637D01*
X392061Y213673D01*
X392134Y213717D01*
X392191Y213769D01*
X392232Y213829D01*
X392256Y213897D01*
X392264Y213973D01*
Y212373D01*
D02*
G37*
G36*
X377472Y213897D02*
X377496Y213829D01*
X377536Y213769D01*
X377592Y213717D01*
X377664Y213673D01*
X377752Y213637D01*
X377856Y213609D01*
X377976Y213589D01*
X378112Y213577D01*
X378264Y213573D01*
Y212773D01*
X378112Y212769D01*
X377976Y212757D01*
X377856Y212737D01*
X377752Y212709D01*
X377664Y212673D01*
X377592Y212629D01*
X377536Y212577D01*
X377496Y212517D01*
X377472Y212449D01*
X377464Y212373D01*
Y213973D01*
X377472Y213897D01*
D02*
G37*
G36*
X401124Y214078D02*
X401154Y213993D01*
X401205Y213918D01*
X401276Y213853D01*
X401367Y213798D01*
X401478Y213753D01*
X401610Y213718D01*
X401761Y213693D01*
X401933Y213678D01*
X402126Y213673D01*
Y212673D01*
X401933Y212668D01*
X401761Y212653D01*
X401610Y212628D01*
X401478Y212593D01*
X401367Y212548D01*
X401276Y212493D01*
X401205Y212428D01*
X401154Y212353D01*
X401124Y212268D01*
X401114Y212173D01*
Y214173D01*
X401124Y214078D01*
D02*
G37*
G36*
X400468Y211514D02*
X400383Y211484D01*
X400308Y211433D01*
X400243Y211362D01*
X400188Y211271D01*
X400143Y211160D01*
X400108Y211028D01*
X400083Y210876D01*
X400068Y210704D01*
X400063Y210512D01*
X399063D01*
X399058Y210704D01*
X399043Y210876D01*
X399018Y211028D01*
X398983Y211160D01*
X398938Y211271D01*
X398883Y211362D01*
X398818Y211433D01*
X398743Y211484D01*
X398658Y211514D01*
X398563Y211524D01*
X400563D01*
X400468Y211514D01*
D02*
G37*
G36*
X320253Y208857D02*
X320264Y208732D01*
X320283Y208612D01*
X320311Y208497D01*
X320347Y208387D01*
X320391Y208282D01*
X320444Y208183D01*
X320504Y208088D01*
X320573Y207999D01*
X320651Y207915D01*
X320085Y207349D01*
X320001Y207427D01*
X319912Y207496D01*
X319817Y207557D01*
X319718Y207609D01*
X319613Y207653D01*
X319503Y207689D01*
X319388Y207717D01*
X319268Y207736D01*
X319143Y207747D01*
X319012Y207750D01*
X320250Y208987D01*
X320253Y208857D01*
D02*
G37*
G36*
X368192Y202088D02*
X368179Y201980D01*
X368201Y201853D01*
X368256Y201706D01*
X368345Y201539D01*
X368468Y201352D01*
X368625Y201146D01*
X369040Y200674D01*
X369299Y200408D01*
X368388Y199905D01*
X368176Y200110D01*
X367799Y200430D01*
X367635Y200545D01*
X367485Y200631D01*
X367352Y200687D01*
X367234Y200713D01*
X367131Y200709D01*
X367045Y200675D01*
X366974Y200612D01*
X368238Y202176D01*
X368192Y202088D01*
D02*
G37*
G36*
X400073Y200310D02*
X400103Y200140D01*
X400153Y199990D01*
X400223Y199860D01*
X400313Y199750D01*
X400423Y199660D01*
X400553Y199590D01*
X400703Y199540D01*
X400873Y199510D01*
X401063Y199500D01*
X399563Y198500D01*
X398063Y199500D01*
X398253Y199510D01*
X398423Y199540D01*
X398573Y199590D01*
X398703Y199660D01*
X398813Y199750D01*
X398903Y199860D01*
X398973Y199990D01*
X399023Y200140D01*
X399053Y200310D01*
X399063Y200500D01*
X400063D01*
X400073Y200310D01*
D02*
G37*
G36*
X450075Y198000D02*
X450065Y198095D01*
X450035Y198180D01*
X449984Y198255D01*
X449913Y198320D01*
X449822Y198375D01*
X449711Y198420D01*
X449579Y198455D01*
X449428Y198480D01*
X449256Y198495D01*
X449063Y198500D01*
Y199500D01*
X449256Y199505D01*
X449428Y199520D01*
X449579Y199545D01*
X449711Y199580D01*
X449822Y199625D01*
X449913Y199680D01*
X449984Y199745D01*
X450035Y199820D01*
X450065Y199905D01*
X450075Y200000D01*
Y198000D01*
D02*
G37*
G36*
X377474Y199905D02*
X377504Y199820D01*
X377554Y199745D01*
X377624Y199680D01*
X377714Y199625D01*
X377824Y199580D01*
X377954Y199545D01*
X378104Y199520D01*
X378274Y199505D01*
X378464Y199500D01*
Y198500D01*
X378274Y198495D01*
X378104Y198480D01*
X377954Y198455D01*
X377824Y198420D01*
X377714Y198375D01*
X377624Y198320D01*
X377554Y198255D01*
X377504Y198180D01*
X377474Y198095D01*
X377464Y198000D01*
Y200000D01*
X377474Y199905D01*
D02*
G37*
G36*
X374548Y198000D02*
X374537Y198095D01*
X374507Y198180D01*
X374457Y198255D01*
X374386Y198320D01*
X374295Y198375D01*
X374183Y198420D01*
X374052Y198455D01*
X373900Y198480D01*
X373728Y198495D01*
X373536Y198500D01*
Y199500D01*
X373728Y199505D01*
X373900Y199520D01*
X374052Y199545D01*
X374183Y199580D01*
X374295Y199625D01*
X374386Y199680D01*
X374457Y199745D01*
X374507Y199820D01*
X374537Y199905D01*
X374548Y200000D01*
Y198000D01*
D02*
G37*
%LPC*%
G36*
X387900Y340928D02*
Y339200D01*
X389628D01*
X389307Y339974D01*
X388674Y340608D01*
X387900Y340928D01*
D02*
G37*
G36*
X386900D02*
X386125Y340608D01*
X385492Y339974D01*
X385172Y339200D01*
X386900D01*
Y340928D01*
D02*
G37*
G36*
X389628Y338200D02*
X387900D01*
Y336472D01*
X388674Y336792D01*
X389307Y337425D01*
X389628Y338200D01*
D02*
G37*
G36*
X386900D02*
X385172D01*
X385492Y337425D01*
X386125Y336792D01*
X386900Y336472D01*
Y338200D01*
D02*
G37*
G36*
X398637Y335613D02*
X396237D01*
Y333363D01*
X398637D01*
Y335613D01*
D02*
G37*
G36*
X395237D02*
X392837D01*
Y333363D01*
X395237D01*
Y335613D01*
D02*
G37*
G36*
X383262Y335613D02*
X380862D01*
Y333363D01*
X383262D01*
Y335613D01*
D02*
G37*
G36*
X379862D02*
X377462D01*
Y333363D01*
X379862D01*
Y335613D01*
D02*
G37*
G36*
X414277Y335613D02*
X411877D01*
Y333363D01*
X414277D01*
Y335613D01*
D02*
G37*
G36*
X410877D02*
X408477D01*
Y333363D01*
X410877D01*
Y335613D01*
D02*
G37*
G36*
X433714Y336469D02*
X433338Y336169D01*
X433214Y336169D01*
X430274D01*
Y330832D01*
X430338D01*
X430545Y330331D01*
X423835Y323622D01*
X423100D01*
X423100Y323622D01*
X422671Y323536D01*
X422307Y323293D01*
X422307Y323293D01*
X406909Y307895D01*
X406899Y307888D01*
X406857Y307860D01*
X406812Y307837D01*
X406763Y307816D01*
X406709Y307798D01*
X406648Y307784D01*
X406580Y307772D01*
X406504Y307766D01*
X406397Y307764D01*
X406336Y307750D01*
X406012D01*
X405295Y307453D01*
X404747Y306905D01*
X404450Y306188D01*
Y305412D01*
X404747Y304695D01*
X405295Y304147D01*
X406012Y303850D01*
X406788D01*
X407505Y304147D01*
X408053Y304695D01*
X408350Y305412D01*
Y305736D01*
X408363Y305797D01*
X408366Y305904D01*
X408372Y305980D01*
X408384Y306048D01*
X408398Y306109D01*
X408416Y306163D01*
X408436Y306212D01*
X408460Y306257D01*
X408488Y306299D01*
X408495Y306309D01*
X423565Y321378D01*
X424300D01*
X424300Y321378D01*
X424729Y321464D01*
X425093Y321707D01*
X432653Y329267D01*
X432653Y329267D01*
X432896Y329631D01*
X432981Y330060D01*
X432981Y330060D01*
Y330478D01*
X433054Y330551D01*
X433481Y330717D01*
X433714Y330532D01*
X433821Y330532D01*
X435100D01*
Y333500D01*
Y336469D01*
X433714Y336469D01*
D02*
G37*
G36*
X414277Y332363D02*
X411877D01*
Y330113D01*
X414277D01*
Y332363D01*
D02*
G37*
G36*
X410877D02*
X408477D01*
Y330113D01*
X410877D01*
Y332363D01*
D02*
G37*
G36*
X356788Y339267D02*
X355989Y339162D01*
X355244Y338854D01*
X354605Y338363D01*
X354115Y337724D01*
X353806Y336979D01*
X353701Y336181D01*
Y333031D01*
X353806Y332232D01*
X354115Y331487D01*
X354605Y330848D01*
X355244Y330358D01*
X355989Y330049D01*
X356788Y329944D01*
X357587Y330049D01*
X358331Y330358D01*
X358970Y330848D01*
X359461Y331487D01*
X359769Y332232D01*
X359874Y333031D01*
Y336181D01*
X359769Y336979D01*
X359461Y337724D01*
X358970Y338363D01*
X358331Y338854D01*
X357587Y339162D01*
X356788Y339267D01*
D02*
G37*
G36*
X322768D02*
X321969Y339162D01*
X321224Y338854D01*
X320585Y338363D01*
X320095Y337724D01*
X319787Y336979D01*
X319681Y336181D01*
Y333031D01*
X319787Y332232D01*
X320095Y331487D01*
X320585Y330848D01*
X321224Y330358D01*
X321969Y330049D01*
X322768Y329944D01*
X323567Y330049D01*
X324311Y330358D01*
X324950Y330848D01*
X325441Y331487D01*
X325749Y332232D01*
X325854Y333031D01*
Y336181D01*
X325749Y336979D01*
X325441Y337724D01*
X324950Y338363D01*
X324311Y338854D01*
X323567Y339162D01*
X322768Y339267D01*
D02*
G37*
G36*
X421600Y328928D02*
Y327200D01*
X423328D01*
X423007Y327975D01*
X422374Y328608D01*
X421600Y328928D01*
D02*
G37*
G36*
X420600D02*
X419826Y328608D01*
X419193Y327975D01*
X418872Y327200D01*
X420600D01*
Y328928D01*
D02*
G37*
G36*
X423328Y326200D02*
X421600D01*
Y324472D01*
X422374Y324793D01*
X423007Y325426D01*
X423328Y326200D01*
D02*
G37*
G36*
X420600D02*
X418872D01*
X419193Y325426D01*
X419826Y324793D01*
X420600Y324472D01*
Y326200D01*
D02*
G37*
G36*
X431360Y325468D02*
X429974D01*
Y323000D01*
X431360D01*
Y325468D01*
D02*
G37*
G36*
X349556Y331802D02*
X348780D01*
X348064Y331505D01*
X347515Y330957D01*
X347218Y330240D01*
Y329464D01*
X347515Y328748D01*
X348064Y328199D01*
X348780Y327902D01*
X349105D01*
X349166Y327889D01*
X349272Y327886D01*
X349348Y327880D01*
X349416Y327869D01*
X349477Y327854D01*
X349531Y327836D01*
X349580Y327816D01*
X349625Y327792D01*
X349668Y327765D01*
X349677Y327757D01*
X350927Y326507D01*
X350927Y326507D01*
X351291Y326264D01*
X351720Y326178D01*
X351720Y326179D01*
X360411D01*
X361708Y324882D01*
X361830Y324751D01*
X361913Y324647D01*
X361927Y324628D01*
Y321699D01*
X366673D01*
Y326249D01*
X363548D01*
X363537Y326257D01*
X363325Y326436D01*
X361669Y328093D01*
X361305Y328336D01*
X360876Y328422D01*
X360876Y328421D01*
X352185D01*
X351263Y329343D01*
X351256Y329353D01*
X351229Y329395D01*
X351205Y329440D01*
X351184Y329489D01*
X351166Y329543D01*
X351152Y329604D01*
X351141Y329672D01*
X351134Y329748D01*
X351132Y329855D01*
X351118Y329916D01*
Y330240D01*
X350821Y330957D01*
X350273Y331505D01*
X349556Y331802D01*
D02*
G37*
G36*
X345918Y324600D02*
X345082D01*
X344310Y324280D01*
X344060Y324030D01*
X344009Y323998D01*
X343933Y323925D01*
X343875Y323879D01*
X343818Y323839D01*
X343761Y323807D01*
X343702Y323779D01*
X343641Y323757D01*
X343577Y323739D01*
X343508Y323725D01*
X343491Y323724D01*
X334051D01*
X333583Y323630D01*
X333186Y323365D01*
X330945Y321124D01*
X330355Y321242D01*
X330312Y321347D01*
X330157Y321579D01*
X329741Y321995D01*
X329509Y322150D01*
X328965Y322375D01*
X328692Y322429D01*
X328103D01*
X327830Y322375D01*
X327286Y322150D01*
X327055Y321995D01*
X326638Y321579D01*
X326484Y321347D01*
X326299Y320900D01*
X325950Y320889D01*
X325790Y320934D01*
X325749Y321244D01*
X325441Y321989D01*
X324950Y322628D01*
X324311Y323118D01*
X323567Y323427D01*
X322768Y323532D01*
X321969Y323427D01*
X321224Y323118D01*
X320585Y322628D01*
X320095Y321989D01*
X319787Y321244D01*
X319681Y320446D01*
Y316106D01*
X319787Y315307D01*
X320095Y314562D01*
X320585Y313923D01*
X321224Y313433D01*
X321969Y313124D01*
X322768Y313019D01*
X323567Y313124D01*
X324311Y313433D01*
X324498Y313576D01*
X324998Y313330D01*
Y310871D01*
X326678D01*
Y314136D01*
X327678D01*
Y310871D01*
X329358D01*
Y311171D01*
X331598D01*
Y311161D01*
X333568D01*
Y311151D01*
X333733D01*
Y307946D01*
X333733Y307946D01*
X333818Y307516D01*
X334061Y307153D01*
X335925Y305289D01*
X335733Y304827D01*
X333110D01*
Y301375D01*
X340303D01*
Y304379D01*
X341161D01*
X344128Y301412D01*
X344246Y301285D01*
X344327Y301184D01*
X344351Y301149D01*
Y298127D01*
X348901D01*
Y302873D01*
X345870D01*
X345657Y303055D01*
X344585Y304127D01*
X344793Y304627D01*
X348901D01*
Y309373D01*
X347747D01*
Y311161D01*
X350198D01*
Y310861D01*
X351878D01*
Y314126D01*
X352878D01*
Y310861D01*
X354558D01*
Y313330D01*
X355058Y313576D01*
X355244Y313433D01*
X355989Y313124D01*
X356788Y313019D01*
X357587Y313124D01*
X358331Y313433D01*
X358970Y313923D01*
X359461Y314562D01*
X359769Y315307D01*
X359874Y316106D01*
Y320446D01*
X359769Y321244D01*
X359461Y321989D01*
X358970Y322628D01*
X358331Y323118D01*
X357587Y323427D01*
X356788Y323532D01*
X355989Y323427D01*
X355244Y323118D01*
X354605Y322628D01*
X354115Y321989D01*
X353806Y321244D01*
X353766Y320934D01*
X353606Y320889D01*
X353257Y320900D01*
X353072Y321347D01*
X352917Y321579D01*
X352501Y321995D01*
X352269Y322150D01*
X351725Y322375D01*
X351452Y322429D01*
X350863D01*
X350590Y322375D01*
X350046Y322150D01*
X349815Y321995D01*
X349398Y321579D01*
X349244Y321347D01*
X349199Y321239D01*
X348609Y321121D01*
X347786Y321944D01*
X347775Y321958D01*
X347736Y322016D01*
X347703Y322074D01*
X347675Y322133D01*
X347654Y322194D01*
X347636Y322258D01*
X347624Y322326D01*
X347616Y322399D01*
X347613Y322505D01*
X347600Y322564D01*
Y322918D01*
X347280Y323690D01*
X346690Y324280D01*
X345918Y324600D01*
D02*
G37*
G36*
X431360Y322000D02*
X429974D01*
Y319531D01*
X431360D01*
Y322000D01*
D02*
G37*
G36*
X366973Y320801D02*
X364800D01*
Y318726D01*
X366973D01*
Y320801D01*
D02*
G37*
G36*
X363800D02*
X361627D01*
Y318726D01*
X363800D01*
Y320801D01*
D02*
G37*
G36*
X410500Y318228D02*
Y316500D01*
X412228D01*
X411907Y317274D01*
X411274Y317908D01*
X410500Y318228D01*
D02*
G37*
G36*
X409500D02*
X408726Y317908D01*
X408092Y317274D01*
X407772Y316500D01*
X409500D01*
Y318228D01*
D02*
G37*
G36*
X366973Y317726D02*
X364800D01*
Y315651D01*
X366973D01*
Y317726D01*
D02*
G37*
G36*
X363800D02*
X361627D01*
Y315651D01*
X363800D01*
Y317726D01*
D02*
G37*
G36*
X412228Y315500D02*
X410500D01*
Y313772D01*
X411274Y314092D01*
X411907Y314725D01*
X412228Y315500D01*
D02*
G37*
G36*
X409500D02*
X407772D01*
X408092Y314725D01*
X408726Y314092D01*
X409500Y313772D01*
Y315500D01*
D02*
G37*
G36*
X354949Y309673D02*
X352874D01*
Y307500D01*
X354949D01*
Y309673D01*
D02*
G37*
G36*
X351874D02*
X349799D01*
Y307500D01*
X351874D01*
Y309673D01*
D02*
G37*
G36*
X369462Y308609D02*
X367062D01*
Y306359D01*
X369462D01*
Y308609D01*
D02*
G37*
G36*
X366062D02*
X363662D01*
Y306359D01*
X366062D01*
Y308609D01*
D02*
G37*
G36*
X321976Y308642D02*
X320000D01*
Y306173D01*
X321976D01*
Y308642D01*
D02*
G37*
G36*
X319000D02*
X317024D01*
Y306173D01*
X319000D01*
Y308642D01*
D02*
G37*
G36*
X354949Y306500D02*
X352874D01*
Y304327D01*
X354949D01*
Y306500D01*
D02*
G37*
G36*
X351874D02*
X349799D01*
Y304327D01*
X351874D01*
Y306500D01*
D02*
G37*
G36*
X321976Y305173D02*
X320000D01*
Y302705D01*
X321976D01*
Y305173D01*
D02*
G37*
G36*
X319000D02*
X317024D01*
Y302705D01*
X319000D01*
Y305173D01*
D02*
G37*
G36*
X332111Y304827D02*
X324918D01*
Y301375D01*
X332111D01*
Y304827D01*
D02*
G37*
G36*
X354949Y303173D02*
X352874D01*
Y301000D01*
X354949D01*
Y303173D01*
D02*
G37*
G36*
X351874D02*
X349799D01*
Y301000D01*
X351874D01*
Y303173D01*
D02*
G37*
G36*
X340303Y300375D02*
X332611D01*
X324918D01*
Y296922D01*
X330172D01*
X330357Y296422D01*
X329845Y295910D01*
X329390Y295122D01*
X329154Y294243D01*
Y293333D01*
X329390Y292454D01*
X329845Y291666D01*
X330488Y291022D01*
X331276Y290567D01*
X332155Y290332D01*
X333065D01*
X333944Y290567D01*
X334732Y291022D01*
X335376Y291666D01*
X335831Y292454D01*
X336066Y293333D01*
Y294243D01*
X335831Y295122D01*
X335376Y295910D01*
X334863Y296422D01*
X335049Y296922D01*
X340303D01*
Y300375D01*
D02*
G37*
%LPD*%
G36*
X432584Y331547D02*
X432516Y331523D01*
X432456Y331482D01*
X432404Y331426D01*
X432360Y331352D01*
X432324Y331263D01*
X432296Y331158D01*
X432276Y331036D01*
X432264Y330898D01*
X432260Y330744D01*
X431460D01*
X431456Y330898D01*
X431444Y331036D01*
X431424Y331158D01*
X431396Y331263D01*
X431360Y331352D01*
X431316Y331426D01*
X431264Y331482D01*
X431204Y331523D01*
X431136Y331547D01*
X431060Y331556D01*
X432660D01*
X432584Y331547D01*
D02*
G37*
G36*
X408051Y306885D02*
X407973Y306801D01*
X407904Y306712D01*
X407843Y306617D01*
X407791Y306518D01*
X407747Y306413D01*
X407711Y306303D01*
X407683Y306188D01*
X407664Y306068D01*
X407653Y305943D01*
X407650Y305813D01*
X406413Y307050D01*
X406543Y307053D01*
X406668Y307064D01*
X406788Y307083D01*
X406903Y307111D01*
X407013Y307147D01*
X407118Y307191D01*
X407217Y307243D01*
X407312Y307304D01*
X407401Y307373D01*
X407485Y307451D01*
X408051Y306885D01*
D02*
G37*
G36*
X350421Y329709D02*
X350432Y329584D01*
X350451Y329464D01*
X350479Y329349D01*
X350515Y329239D01*
X350559Y329134D01*
X350612Y329035D01*
X350673Y328940D01*
X350742Y328851D01*
X350819Y328767D01*
X350253Y328202D01*
X350169Y328279D01*
X350080Y328348D01*
X349986Y328409D01*
X349886Y328461D01*
X349781Y328505D01*
X349672Y328541D01*
X349557Y328569D01*
X349437Y328588D01*
X349311Y328599D01*
X349181Y328602D01*
X350418Y329840D01*
X350421Y329709D01*
D02*
G37*
G36*
X362804Y325943D02*
X363100Y325692D01*
X363230Y325600D01*
X363349Y325531D01*
X363456Y325484D01*
X363552Y325461D01*
X363636Y325459D01*
X363709Y325481D01*
X363770Y325525D01*
X362651Y324406D01*
X362695Y324467D01*
X362716Y324539D01*
X362715Y324623D01*
X362691Y324719D01*
X362645Y324827D01*
X362576Y324946D01*
X362484Y325076D01*
X362370Y325218D01*
X362073Y325537D01*
X362639Y326102D01*
X362804Y325943D01*
D02*
G37*
G36*
X344500Y321520D02*
X344404Y321611D01*
X344304Y321693D01*
X344199Y321765D01*
X344091Y321827D01*
X343978Y321880D01*
X343861Y321923D01*
X343740Y321957D01*
X343615Y321981D01*
X343486Y321995D01*
X343352Y322000D01*
Y323000D01*
X343486Y323005D01*
X343615Y323019D01*
X343740Y323043D01*
X343861Y323077D01*
X343978Y323120D01*
X344091Y323173D01*
X344199Y323235D01*
X344304Y323307D01*
X344404Y323389D01*
X344500Y323480D01*
Y321520D01*
D02*
G37*
G36*
X346903Y322354D02*
X346917Y322225D01*
X346940Y322100D01*
X346972Y321979D01*
X347015Y321862D01*
X347067Y321749D01*
X347129Y321640D01*
X347200Y321534D01*
X347281Y321433D01*
X347372Y321335D01*
X346665Y320628D01*
X346567Y320719D01*
X346466Y320800D01*
X346360Y320871D01*
X346251Y320933D01*
X346138Y320985D01*
X346021Y321028D01*
X345900Y321060D01*
X345775Y321083D01*
X345647Y321097D01*
X345514Y321100D01*
X346900Y322486D01*
X346903Y322354D01*
D02*
G37*
G36*
X341836Y317656D02*
X341741Y317747D01*
X341645Y317827D01*
X341546Y317899D01*
X341445Y317960D01*
X341342Y318013D01*
X341237Y318055D01*
X341130Y318089D01*
X341020Y318112D01*
X340908Y318127D01*
X340794Y318131D01*
Y318931D01*
X340908Y318936D01*
X341020Y318950D01*
X341130Y318974D01*
X341237Y319007D01*
X341342Y319050D01*
X341445Y319102D01*
X341546Y319164D01*
X341645Y319235D01*
X341741Y319316D01*
X341836Y319406D01*
Y317656D01*
D02*
G37*
G36*
X343513Y317545D02*
X343432Y317448D01*
X343361Y317349D01*
X343299Y317249D01*
X343247Y317145D01*
X343204Y317040D01*
X343171Y316933D01*
X343147Y316823D01*
X343146Y316812D01*
X343157Y316667D01*
X343173Y316579D01*
X343192Y316507D01*
X343215Y316451D01*
X343242Y316411D01*
X343272Y316387D01*
X343306Y316379D01*
X342150D01*
X342184Y316387D01*
X342214Y316411D01*
X342241Y316451D01*
X342264Y316507D01*
X342284Y316579D01*
X342300Y316667D01*
X342312Y316771D01*
X342313Y316791D01*
X342309Y316823D01*
X342285Y316933D01*
X342252Y317040D01*
X342210Y317145D01*
X342157Y317249D01*
X342095Y317349D01*
X342024Y317448D01*
X341944Y317545D01*
X341853Y317639D01*
X343603D01*
X343513Y317545D01*
D02*
G37*
G36*
X339193Y317027D02*
X339221Y316667D01*
X339237Y316579D01*
X339258Y316507D01*
X339282Y316451D01*
X339309Y316411D01*
X339341Y316387D01*
X339376Y316379D01*
X338220D01*
X338252Y316387D01*
X338281Y316411D01*
X338307Y316451D01*
X338330Y316507D01*
X338348Y316579D01*
X338364Y316667D01*
X338376Y316771D01*
X338390Y317027D01*
X338391Y317179D01*
X339191D01*
X339193Y317027D01*
D02*
G37*
G36*
X331496Y316389D02*
X329978Y316377D01*
X330073Y316387D01*
X330158Y316418D01*
X330233Y316469D01*
X330298Y316540D01*
X330353Y316632D01*
X330398Y316743D01*
X330433Y316874D01*
X330458Y317025D01*
X330473Y317197D01*
X330478Y317389D01*
X331478D01*
X331496Y316389D01*
D02*
G37*
G36*
X349078Y317187D02*
X349093Y317016D01*
X349118Y316864D01*
X349153Y316733D01*
X349198Y316622D01*
X349253Y316530D01*
X349318Y316459D01*
X349393Y316408D01*
X349478Y316377D01*
X349573Y316367D01*
X348060Y316379D01*
X348062Y316389D01*
X348065Y316419D01*
X348071Y316739D01*
X348073Y317379D01*
X349073D01*
X349078Y317187D01*
D02*
G37*
G36*
X347204Y311865D02*
X347167Y311841D01*
X347134Y311801D01*
X347105Y311745D01*
X347081Y311673D01*
X347061Y311585D01*
X347046Y311481D01*
X347035Y311361D01*
X347026Y311073D01*
X346226D01*
X346224Y311225D01*
X346192Y311673D01*
X346177Y311745D01*
X346159Y311801D01*
X346139Y311841D01*
X346116Y311865D01*
X346090Y311873D01*
X347246D01*
X347204Y311865D01*
D02*
G37*
G36*
X341302D02*
X341272Y311841D01*
X341246Y311801D01*
X341223Y311745D01*
X341204Y311673D01*
X341188Y311585D01*
X341176Y311481D01*
X341161Y311225D01*
X341160Y311073D01*
X340360D01*
X340358Y311225D01*
X340331Y311585D01*
X340315Y311673D01*
X340295Y311745D01*
X340271Y311801D01*
X340245Y311841D01*
X340214Y311865D01*
X340180Y311873D01*
X341336D01*
X341302Y311865D01*
D02*
G37*
G36*
X337371D02*
X337340Y311841D01*
X337313Y311801D01*
X337289Y311745D01*
X337269Y311673D01*
X337252Y311585D01*
X337239Y311481D01*
X337225Y311225D01*
X337223Y311073D01*
X336423D01*
X336421Y311225D01*
X336395Y311585D01*
X336380Y311673D01*
X336361Y311745D01*
X336338Y311801D01*
X336312Y311841D01*
X336283Y311865D01*
X336250Y311873D01*
X337406D01*
X337371Y311865D01*
D02*
G37*
G36*
X335401Y311855D02*
X335370Y311831D01*
X335343Y311791D01*
X335320Y311735D01*
X335300Y311663D01*
X335283Y311575D01*
X335271Y311471D01*
X335256Y311215D01*
X335254Y311063D01*
X334454D01*
X334453Y311215D01*
X334426Y311575D01*
X334411Y311663D01*
X334391Y311735D01*
X334369Y311791D01*
X334343Y311831D01*
X334313Y311855D01*
X334280Y311863D01*
X335436D01*
X335401Y311855D01*
D02*
G37*
G36*
X341164Y309908D02*
X341179Y309796D01*
X341202Y309686D01*
X341236Y309578D01*
X341279Y309473D01*
X341331Y309370D01*
X341392Y309269D01*
X341464Y309171D01*
X341545Y309074D01*
X341635Y308980D01*
X339885D01*
X339975Y309074D01*
X340056Y309171D01*
X340127Y309269D01*
X340189Y309370D01*
X340241Y309473D01*
X340284Y309578D01*
X340317Y309686D01*
X340341Y309796D01*
X340355Y309908D01*
X340360Y310022D01*
X341160D01*
X341164Y309908D01*
D02*
G37*
G36*
X347030Y309309D02*
X347042Y309173D01*
X347062Y309053D01*
X347090Y308949D01*
X347126Y308861D01*
X347170Y308789D01*
X347222Y308733D01*
X347282Y308693D01*
X347350Y308669D01*
X347426Y308661D01*
X345826D01*
X345902Y308669D01*
X345970Y308693D01*
X346030Y308733D01*
X346082Y308789D01*
X346126Y308861D01*
X346162Y308949D01*
X346190Y309053D01*
X346210Y309173D01*
X346222Y309309D01*
X346226Y309461D01*
X347026D01*
X347030Y309309D01*
D02*
G37*
G36*
X339867Y307212D02*
X339773Y307303D01*
X339676Y307383D01*
X339578Y307455D01*
X339477Y307516D01*
X339374Y307569D01*
X339269Y307611D01*
X339161Y307645D01*
X339052Y307668D01*
X338940Y307683D01*
X338825Y307687D01*
Y308487D01*
X338940Y308492D01*
X339052Y308506D01*
X339161Y308530D01*
X339269Y308563D01*
X339374Y308606D01*
X339477Y308658D01*
X339578Y308720D01*
X339676Y308791D01*
X339773Y308872D01*
X339867Y308962D01*
Y307212D01*
D02*
G37*
G36*
X345134Y302563D02*
X345436Y302306D01*
X345568Y302213D01*
X345687Y302143D01*
X345794Y302097D01*
X345888Y302075D01*
X345970Y302076D01*
X346039Y302101D01*
X346096Y302149D01*
X345075Y300931D01*
X345115Y300997D01*
X345133Y301073D01*
X345129Y301160D01*
X345104Y301257D01*
X345057Y301365D01*
X344988Y301483D01*
X344898Y301612D01*
X344786Y301752D01*
X344497Y302063D01*
X344965Y302727D01*
X345134Y302563D01*
D02*
G37*
%LPC*%
G36*
X435000Y312750D02*
X432600D01*
Y310500D01*
X435000D01*
Y312750D01*
D02*
G37*
G36*
X431600D02*
X429200D01*
Y310500D01*
X431600D01*
Y312750D01*
D02*
G37*
G36*
X435000Y309500D02*
X432600D01*
Y307250D01*
X435000D01*
Y309500D01*
D02*
G37*
G36*
X431600D02*
X429200D01*
Y307250D01*
X431600D01*
Y309500D01*
D02*
G37*
G36*
X418500Y304728D02*
Y303000D01*
X420228D01*
X419908Y303774D01*
X419275Y304408D01*
X418500Y304728D01*
D02*
G37*
G36*
X417500D02*
X416725Y304408D01*
X416092Y303774D01*
X415772Y303000D01*
X417500D01*
Y304728D01*
D02*
G37*
G36*
X443000Y303228D02*
Y301500D01*
X444728D01*
X444408Y302274D01*
X443775Y302907D01*
X443000Y303228D01*
D02*
G37*
G36*
X442000D02*
X441225Y302907D01*
X440592Y302274D01*
X440272Y301500D01*
X442000D01*
Y303228D01*
D02*
G37*
G36*
X420228Y302000D02*
X418500D01*
Y300272D01*
X419275Y300592D01*
X419908Y301225D01*
X420228Y302000D01*
D02*
G37*
G36*
X417500D02*
X415772D01*
X416092Y301225D01*
X416725Y300592D01*
X417500Y300272D01*
Y302000D01*
D02*
G37*
G36*
X444728Y300500D02*
X443000D01*
Y298772D01*
X443775Y299093D01*
X444408Y299726D01*
X444728Y300500D01*
D02*
G37*
G36*
X442000D02*
X440272D01*
X440592Y299726D01*
X441225Y299093D01*
X442000Y298772D01*
Y300500D01*
D02*
G37*
G36*
X434228Y288800D02*
X432500D01*
Y287072D01*
X433275Y287392D01*
X433908Y288025D01*
X434228Y288800D01*
D02*
G37*
G36*
X431500D02*
X429772D01*
X430092Y288025D01*
X430725Y287392D01*
X431500Y287072D01*
Y288800D01*
D02*
G37*
G36*
X358300Y295750D02*
X355900D01*
Y293500D01*
X358300D01*
Y295750D01*
D02*
G37*
G36*
X365900D02*
X363500D01*
Y293500D01*
X365900D01*
Y295750D01*
D02*
G37*
G36*
X362500D02*
X360100D01*
Y293500D01*
X362500D01*
Y295750D01*
D02*
G37*
G36*
X365900Y292500D02*
X363500D01*
Y290250D01*
X365900D01*
Y292500D01*
D02*
G37*
G36*
X362500D02*
X360100D01*
Y290250D01*
X362500D01*
Y292500D01*
D02*
G37*
G36*
X358300D02*
X355900D01*
Y290250D01*
X358300D01*
Y292500D01*
D02*
G37*
G36*
X359700Y289828D02*
Y288100D01*
X361428D01*
X361107Y288875D01*
X360474Y289508D01*
X359700Y289828D01*
D02*
G37*
G36*
X358700D02*
X357926Y289508D01*
X357293Y288875D01*
X356972Y288100D01*
X358700D01*
Y289828D01*
D02*
G37*
G36*
X361428Y287100D02*
X359700D01*
Y285372D01*
X360474Y285693D01*
X361107Y286326D01*
X361428Y287100D01*
D02*
G37*
G36*
X358700D02*
X356972D01*
X357293Y286326D01*
X357926Y285693D01*
X358700Y285372D01*
Y287100D01*
D02*
G37*
G36*
X469750Y312900D02*
X467500D01*
Y310500D01*
X469750D01*
Y312900D01*
D02*
G37*
G36*
X466500D02*
X464250D01*
Y310500D01*
X466500D01*
Y312900D01*
D02*
G37*
G36*
X459949Y312673D02*
X457874D01*
Y310500D01*
X459949D01*
Y312673D01*
D02*
G37*
G36*
X456874D02*
X454799D01*
Y310500D01*
X456874D01*
Y312673D01*
D02*
G37*
G36*
X469750Y309500D02*
X467500D01*
Y307100D01*
X469750D01*
Y309500D01*
D02*
G37*
G36*
X466500D02*
X464250D01*
Y307100D01*
X466500D01*
Y309500D01*
D02*
G37*
G36*
X469000Y305228D02*
Y303500D01*
X470728D01*
X470407Y304275D01*
X469774Y304907D01*
X469000Y305228D01*
D02*
G37*
G36*
X468000D02*
X467226Y304907D01*
X466593Y304275D01*
X466272Y303500D01*
X468000D01*
Y305228D01*
D02*
G37*
G36*
X470728Y302500D02*
X469000D01*
Y300772D01*
X469774Y301093D01*
X470407Y301726D01*
X470728Y302500D01*
D02*
G37*
G36*
X468000D02*
X466272D01*
X466593Y301726D01*
X467226Y301093D01*
X468000Y300772D01*
Y302500D01*
D02*
G37*
G36*
X423816Y254257D02*
X422225Y252666D01*
X423922Y250969D01*
X425513Y252560D01*
X423816Y254257D01*
D02*
G37*
G36*
X421518Y251959D02*
X419927Y250368D01*
X421624Y248671D01*
X423215Y250262D01*
X421518Y251959D01*
D02*
G37*
G36*
X423922Y249554D02*
X422331Y247964D01*
X424028Y246266D01*
X425619Y247857D01*
X423922Y249554D01*
D02*
G37*
G36*
X422000Y243728D02*
Y242000D01*
X423728D01*
X423408Y242775D01*
X422775Y243408D01*
X422000Y243728D01*
D02*
G37*
G36*
X421000D02*
X420225Y243408D01*
X419593Y242775D01*
X419272Y242000D01*
X421000D01*
Y243728D01*
D02*
G37*
G36*
X455158Y241886D02*
Y240158D01*
X456886D01*
X456565Y240932D01*
X455932Y241565D01*
X455158Y241886D01*
D02*
G37*
G36*
X454157D02*
X453383Y241565D01*
X452750Y240932D01*
X452429Y240158D01*
X454157D01*
Y241886D01*
D02*
G37*
G36*
X423728Y241000D02*
X422000D01*
Y239272D01*
X422775Y239593D01*
X423408Y240226D01*
X423728Y241000D01*
D02*
G37*
G36*
X421000D02*
X419272D01*
X419593Y240226D01*
X420225Y239593D01*
X421000Y239272D01*
Y241000D01*
D02*
G37*
G36*
X456886Y239158D02*
X455158D01*
Y237429D01*
X455932Y237750D01*
X456565Y238383D01*
X456886Y239158D01*
D02*
G37*
G36*
X454157D02*
X452429D01*
X452750Y238383D01*
X453383Y237750D01*
X454157Y237429D01*
Y239158D01*
D02*
G37*
G36*
X434500Y238228D02*
Y236500D01*
X436228D01*
X435908Y237275D01*
X435275Y237908D01*
X434500Y238228D01*
D02*
G37*
G36*
X433500D02*
X432725Y237908D01*
X432093Y237275D01*
X431772Y236500D01*
X433500D01*
Y238228D01*
D02*
G37*
G36*
X436228Y235500D02*
X434500D01*
Y233772D01*
X435275Y234092D01*
X435908Y234725D01*
X436228Y235500D01*
D02*
G37*
G36*
X433500D02*
X431772D01*
X432093Y234725D01*
X432725Y234092D01*
X433500Y233772D01*
Y235500D01*
D02*
G37*
G36*
X455158Y234886D02*
Y233157D01*
X456886D01*
X456565Y233932D01*
X455932Y234565D01*
X455158Y234886D01*
D02*
G37*
G36*
X454157D02*
X453383Y234565D01*
X452750Y233932D01*
X452429Y233157D01*
X454157D01*
Y234886D01*
D02*
G37*
G36*
X456886Y232157D02*
X455158D01*
Y230429D01*
X455932Y230750D01*
X456565Y231383D01*
X456886Y232157D01*
D02*
G37*
G36*
X454157D02*
X452429D01*
X452750Y231383D01*
X453383Y230750D01*
X454157Y230429D01*
Y232157D01*
D02*
G37*
G36*
X421874Y234210D02*
Y229838D01*
X423197D01*
Y232487D01*
X423058Y233185D01*
X422663Y233776D01*
X422072Y234171D01*
X421874Y234210D01*
D02*
G37*
G36*
X434500Y231228D02*
Y229500D01*
X436228D01*
X435908Y230275D01*
X435275Y230908D01*
X434500Y231228D01*
D02*
G37*
G36*
X433500D02*
X432725Y230908D01*
X432093Y230275D01*
X431772Y229500D01*
X433500D01*
Y231228D01*
D02*
G37*
G36*
X467468Y234035D02*
X463515D01*
X459563D01*
Y232354D01*
X459863D01*
Y228717D01*
X467168D01*
Y232354D01*
X467468D01*
Y234035D01*
D02*
G37*
G36*
X378750Y229800D02*
X376500D01*
Y227400D01*
X378750D01*
Y229800D01*
D02*
G37*
G36*
X375500D02*
X373250D01*
Y227400D01*
X375500D01*
Y229800D01*
D02*
G37*
G36*
X436228Y228500D02*
X434500D01*
Y226772D01*
X435275Y227093D01*
X435908Y227726D01*
X436228Y228500D01*
D02*
G37*
G36*
X433500D02*
X431772D01*
X432093Y227726D01*
X432725Y227093D01*
X433500Y226772D01*
Y228500D01*
D02*
G37*
G36*
X449752Y232067D02*
X445799D01*
X441846D01*
Y230385D01*
X442146D01*
Y226748D01*
X449452D01*
Y230385D01*
X449752D01*
Y232067D01*
D02*
G37*
G36*
X423197Y228838D02*
X421874D01*
Y224465D01*
X422072Y224504D01*
X422663Y224900D01*
X423058Y225491D01*
X423197Y226188D01*
Y228838D01*
D02*
G37*
G36*
X390559D02*
X389237D01*
Y226188D01*
X389375Y225491D01*
X389770Y224900D01*
X390362Y224504D01*
X390559Y224465D01*
Y228838D01*
D02*
G37*
G36*
X378750Y226400D02*
X376500D01*
Y224000D01*
X378750D01*
Y226400D01*
D02*
G37*
G36*
X375500D02*
X373250D01*
Y224000D01*
X375500D01*
Y226400D01*
D02*
G37*
G36*
X408000Y223228D02*
Y221500D01*
X409728D01*
X409408Y222274D01*
X408775Y222907D01*
X408000Y223228D01*
D02*
G37*
G36*
X407000D02*
X406225Y222907D01*
X405592Y222274D01*
X405272Y221500D01*
X407000D01*
Y223228D01*
D02*
G37*
G36*
X400000D02*
Y221500D01*
X401728D01*
X401407Y222274D01*
X400774Y222907D01*
X400000Y223228D01*
D02*
G37*
G36*
X399000D02*
X398225Y222907D01*
X397592Y222274D01*
X397272Y221500D01*
X399000D01*
Y223228D01*
D02*
G37*
G36*
X386500D02*
Y221500D01*
X388228D01*
X387908Y222274D01*
X387275Y222907D01*
X386500Y223228D01*
D02*
G37*
G36*
X385500D02*
X384725Y222907D01*
X384092Y222274D01*
X383772Y221500D01*
X385500D01*
Y223228D01*
D02*
G37*
G36*
X409728Y220500D02*
X408000D01*
Y218772D01*
X408775Y219092D01*
X409408Y219725D01*
X409728Y220500D01*
D02*
G37*
G36*
X407000D02*
X405272D01*
X405592Y219725D01*
X406225Y219092D01*
X407000Y218772D01*
Y220500D01*
D02*
G37*
G36*
X401728D02*
X400000D01*
Y218772D01*
X400774Y219092D01*
X401407Y219725D01*
X401728Y220500D01*
D02*
G37*
G36*
X399000D02*
X397272D01*
X397592Y219725D01*
X398225Y219092D01*
X399000Y218772D01*
Y220500D01*
D02*
G37*
G36*
X388228D02*
X386500D01*
Y218772D01*
X387275Y219092D01*
X387908Y219725D01*
X388228Y220500D01*
D02*
G37*
G36*
X385500D02*
X383772D01*
X384092Y219725D01*
X384725Y219092D01*
X385500Y218772D01*
Y220500D01*
D02*
G37*
G36*
X455113Y225984D02*
X454203D01*
X453324Y225748D01*
X452535Y225293D01*
X451892Y224650D01*
X451437Y223862D01*
X451202Y222983D01*
Y222073D01*
X451437Y221194D01*
X451892Y220406D01*
X452404Y219893D01*
X452219Y219393D01*
X446964D01*
Y215940D01*
X454657D01*
X462350D01*
Y219393D01*
X457096D01*
X456911Y219893D01*
X457423Y220406D01*
X457878Y221194D01*
X458113Y222073D01*
Y222983D01*
X457878Y223862D01*
X457423Y224650D01*
X456779Y225293D01*
X455991Y225748D01*
X455113Y225984D01*
D02*
G37*
G36*
X426941Y215236D02*
X424866D01*
Y213063D01*
X426941D01*
Y215236D01*
D02*
G37*
G36*
X423866D02*
X421791D01*
Y213063D01*
X423866D01*
Y215236D01*
D02*
G37*
G36*
X462350Y214940D02*
X455157D01*
Y211488D01*
X462350D01*
Y214940D01*
D02*
G37*
G36*
X454157D02*
X446964D01*
Y211488D01*
X454157D01*
Y214940D01*
D02*
G37*
G36*
X369250Y212300D02*
X367000D01*
Y209900D01*
X369250D01*
Y212300D01*
D02*
G37*
G36*
X366000D02*
X363750D01*
Y209900D01*
X366000D01*
Y212300D01*
D02*
G37*
G36*
X426941Y212063D02*
X424866D01*
Y209890D01*
X426941D01*
Y212063D01*
D02*
G37*
G36*
X423866D02*
X421791D01*
Y209890D01*
X423866D01*
Y212063D01*
D02*
G37*
G36*
X356500Y211228D02*
Y209500D01*
X358228D01*
X357908Y210275D01*
X357275Y210908D01*
X356500Y211228D01*
D02*
G37*
G36*
X355500D02*
X354726Y210908D01*
X354093Y210275D01*
X353772Y209500D01*
X355500D01*
Y211228D01*
D02*
G37*
G36*
X454000Y209750D02*
X451600D01*
Y207500D01*
X454000D01*
Y209750D01*
D02*
G37*
G36*
X450600D02*
X448200D01*
Y207500D01*
X450600D01*
Y209750D01*
D02*
G37*
G36*
X358228Y208500D02*
X356500D01*
Y206772D01*
X357275Y207092D01*
X357908Y207726D01*
X358228Y208500D01*
D02*
G37*
G36*
X355500D02*
X353772D01*
X354093Y207726D01*
X354726Y207092D01*
X355500Y206772D01*
Y208500D01*
D02*
G37*
G36*
X369250Y208900D02*
X367000D01*
Y206500D01*
X369250D01*
Y208900D01*
D02*
G37*
G36*
X366000D02*
X363750D01*
Y206500D01*
X366000D01*
Y208900D01*
D02*
G37*
G36*
X425500Y206228D02*
Y204500D01*
X427228D01*
X426907Y205275D01*
X426274Y205908D01*
X425500Y206228D01*
D02*
G37*
G36*
X424500D02*
X423726Y205908D01*
X423093Y205275D01*
X422772Y204500D01*
X424500D01*
Y206228D01*
D02*
G37*
G36*
X418500D02*
Y204500D01*
X420228D01*
X419908Y205275D01*
X419275Y205908D01*
X418500Y206228D01*
D02*
G37*
G36*
X417500D02*
X416725Y205908D01*
X416092Y205275D01*
X415772Y204500D01*
X417500D01*
Y206228D01*
D02*
G37*
G36*
X454000Y206500D02*
X451600D01*
Y204250D01*
X454000D01*
Y206500D01*
D02*
G37*
G36*
X450600D02*
X448200D01*
Y204250D01*
X450600D01*
Y206500D01*
D02*
G37*
G36*
X356500Y204228D02*
Y202500D01*
X358228D01*
X357908Y203274D01*
X357275Y203907D01*
X356500Y204228D01*
D02*
G37*
G36*
X355500D02*
X354726Y203907D01*
X354093Y203274D01*
X353772Y202500D01*
X355500D01*
Y204228D01*
D02*
G37*
G36*
X427228Y203500D02*
X425500D01*
Y201772D01*
X426274Y202093D01*
X426907Y202726D01*
X427228Y203500D01*
D02*
G37*
G36*
X424500D02*
X422772D01*
X423093Y202726D01*
X423726Y202093D01*
X424500Y201772D01*
Y203500D01*
D02*
G37*
G36*
X420228D02*
X418500D01*
Y201772D01*
X419275Y202093D01*
X419908Y202726D01*
X420228Y203500D01*
D02*
G37*
G36*
X417500D02*
X415772D01*
X416092Y202726D01*
X416725Y202093D01*
X417500Y201772D01*
Y203500D01*
D02*
G37*
G36*
X358228Y201500D02*
X356500D01*
Y199772D01*
X357275Y200093D01*
X357908Y200726D01*
X358228Y201500D01*
D02*
G37*
G36*
X355500D02*
X353772D01*
X354093Y200726D01*
X354726Y200093D01*
X355500Y199772D01*
Y201500D01*
D02*
G37*
G36*
X460600Y209450D02*
X455400D01*
Y204550D01*
X456252D01*
Y201373D01*
X455099D01*
Y196627D01*
X458935D01*
X458944Y196625D01*
X458952Y196627D01*
X459649D01*
Y196678D01*
X462159D01*
X462171Y196677D01*
X462220Y196666D01*
X462269Y196651D01*
X462318Y196631D01*
X462369Y196605D01*
X462422Y196573D01*
X462478Y196532D01*
X462537Y196483D01*
X462614Y196410D01*
X462666Y196376D01*
X462895Y196147D01*
X463612Y195850D01*
X464388D01*
X465105Y196147D01*
X465653Y196695D01*
X465950Y197412D01*
Y198188D01*
X465653Y198905D01*
X465105Y199453D01*
X464388Y199750D01*
X463612D01*
X462895Y199453D01*
X462666Y199224D01*
X462614Y199190D01*
X462537Y199117D01*
X462478Y199068D01*
X462422Y199027D01*
X462369Y198995D01*
X462318Y198969D01*
X462269Y198949D01*
X462220Y198934D01*
X462171Y198923D01*
X462159Y198922D01*
X459649D01*
Y201373D01*
X458496D01*
Y204550D01*
X460600D01*
Y209450D01*
D02*
G37*
G36*
X328068Y200374D02*
X323268D01*
Y195574D01*
X323465D01*
X324813Y195935D01*
X326022Y196633D01*
X327009Y197620D01*
X327707Y198828D01*
X328068Y200176D01*
Y200374D01*
D02*
G37*
G36*
X322268D02*
X317468D01*
Y200176D01*
X317829Y198828D01*
X318527Y197620D01*
X319514Y196633D01*
X320722Y195935D01*
X322070Y195574D01*
X322268D01*
Y200374D01*
D02*
G37*
%LPD*%
G36*
X458098Y205254D02*
X458030Y205230D01*
X457970Y205190D01*
X457918Y205134D01*
X457874Y205062D01*
X457838Y204974D01*
X457810Y204870D01*
X457790Y204750D01*
X457778Y204614D01*
X457774Y204462D01*
X456974D01*
X456970Y204614D01*
X456958Y204750D01*
X456938Y204870D01*
X456910Y204974D01*
X456874Y205062D01*
X456830Y205134D01*
X456778Y205190D01*
X456718Y205230D01*
X456650Y205254D01*
X456574Y205262D01*
X458174D01*
X458098Y205254D01*
D02*
G37*
G36*
X457778Y201307D02*
X457790Y201169D01*
X457810Y201047D01*
X457838Y200941D01*
X457874Y200852D01*
X457918Y200779D01*
X457970Y200722D01*
X458030Y200682D01*
X458098Y200657D01*
X458174Y200649D01*
X456574D01*
X456650Y200657D01*
X456718Y200682D01*
X456778Y200722D01*
X456830Y200779D01*
X456874Y200852D01*
X456910Y200941D01*
X456938Y201047D01*
X456958Y201169D01*
X456970Y201307D01*
X456974Y201461D01*
X457774D01*
X457778Y201307D01*
D02*
G37*
G36*
X458934Y198524D02*
X458958Y198456D01*
X458999Y198396D01*
X459057Y198344D01*
X459130Y198300D01*
X459219Y198264D01*
X459324Y198236D01*
X459446Y198216D01*
X459583Y198204D01*
X459737Y198200D01*
Y197400D01*
X459585Y197399D01*
X458969Y197361D01*
X458945Y197350D01*
X458937Y197339D01*
X458925Y198600D01*
X458934Y198524D01*
D02*
G37*
G36*
X463107Y196925D02*
X463013Y197015D01*
X462917Y197096D01*
X462818Y197167D01*
X462717Y197229D01*
X462614Y197281D01*
X462509Y197324D01*
X462401Y197357D01*
X462292Y197381D01*
X462180Y197395D01*
X462066Y197400D01*
Y198200D01*
X462180Y198205D01*
X462292Y198219D01*
X462401Y198243D01*
X462509Y198276D01*
X462614Y198319D01*
X462717Y198371D01*
X462818Y198433D01*
X462917Y198504D01*
X463013Y198585D01*
X463107Y198675D01*
Y196925D01*
D02*
G37*
%LPC*%
G36*
X331322Y253050D02*
Y251322D01*
X333050D01*
X332729Y252096D01*
X332096Y252729D01*
X331322Y253050D01*
D02*
G37*
G36*
X330322D02*
X329547Y252729D01*
X328914Y252096D01*
X328593Y251322D01*
X330322D01*
Y253050D01*
D02*
G37*
G36*
X333050Y250322D02*
X331322D01*
Y248593D01*
X332096Y248914D01*
X332729Y249547D01*
X333050Y250322D01*
D02*
G37*
G36*
X330322D02*
X328593D01*
X328914Y249547D01*
X329547Y248914D01*
X330322Y248593D01*
Y250322D01*
D02*
G37*
G36*
X369622Y249378D02*
X367925Y247681D01*
X369516Y246090D01*
X371213Y247787D01*
X369622Y249378D01*
D02*
G37*
G36*
X367218Y246973D02*
X365521Y245276D01*
X367112Y243686D01*
X368809Y245382D01*
X367218Y246973D01*
D02*
G37*
G36*
X361500Y244228D02*
Y242500D01*
X363228D01*
X362908Y243274D01*
X362275Y243907D01*
X361500Y244228D01*
D02*
G37*
G36*
X360500D02*
X359725Y243907D01*
X359092Y243274D01*
X358772Y242500D01*
X360500D01*
Y244228D01*
D02*
G37*
G36*
X363228Y241500D02*
X361500D01*
Y239772D01*
X362275Y240092D01*
X362908Y240725D01*
X363228Y241500D01*
D02*
G37*
G36*
X360500D02*
X358772D01*
X359092Y240725D01*
X359725Y240092D01*
X360500Y239772D01*
Y241500D01*
D02*
G37*
G36*
X356000Y238728D02*
Y237000D01*
X357728D01*
X357407Y237774D01*
X356774Y238407D01*
X356000Y238728D01*
D02*
G37*
G36*
X355000D02*
X354225Y238407D01*
X353592Y237774D01*
X353272Y237000D01*
X355000D01*
Y238728D01*
D02*
G37*
G36*
X357728Y236000D02*
X356000D01*
Y234272D01*
X356774Y234593D01*
X357407Y235226D01*
X357728Y236000D01*
D02*
G37*
G36*
X355000D02*
X353272D01*
X353592Y235226D01*
X354225Y234593D01*
X355000Y234272D01*
Y236000D01*
D02*
G37*
G36*
X344500Y222228D02*
Y220500D01*
X346228D01*
X345907Y221274D01*
X345274Y221907D01*
X344500Y222228D01*
D02*
G37*
G36*
X343500D02*
X342725Y221907D01*
X342092Y221274D01*
X341772Y220500D01*
X343500D01*
Y222228D01*
D02*
G37*
G36*
X346228Y219500D02*
X344500D01*
Y217772D01*
X345274Y218092D01*
X345907Y218725D01*
X346228Y219500D01*
D02*
G37*
G36*
X343500D02*
X341772D01*
X342092Y218725D01*
X342725Y218092D01*
X343500Y217772D01*
Y219500D01*
D02*
G37*
%LPD*%
D11*
X348573Y314780D02*
X349228Y314126D01*
X330328Y314136D02*
X330978Y314786D01*
Y319427D01*
X394237Y305531D02*
X401323Y312617D01*
Y319384D01*
X394237Y295218D02*
Y305531D01*
X392269Y295218D02*
Y305531D01*
X385183Y312617D02*
Y319384D01*
Y312617D02*
X392269Y305531D01*
X456168Y331832D02*
X461300D01*
X439340Y333500D02*
X454500D01*
X456168Y331832D01*
X461300D02*
X461300D01*
X467000Y316900D02*
Y326132D01*
X461300Y331832D02*
X467000Y326132D01*
X386300Y259275D02*
Y284200D01*
X384395Y257369D02*
X386300Y259275D01*
X384395Y248762D02*
Y257369D01*
X370000Y199000D02*
X399563D01*
X384395Y295218D02*
Y299114D01*
Y291905D02*
Y295218D01*
Y291905D02*
X405100Y271200D01*
X376400Y294100D02*
X386300Y284200D01*
X371000Y294100D02*
X376400D01*
X422387Y282817D02*
X431917D01*
X383809Y299700D02*
X384395Y299114D01*
X371200Y299700D02*
X383809D01*
X369900Y298400D02*
X371200Y299700D01*
X415862Y241000D02*
Y257226D01*
Y260438D01*
X413106Y238244D02*
X415862Y241000D01*
X413106Y229338D02*
Y238244D01*
X409780Y213173D02*
X413000Y216394D01*
Y229232D02*
X413106Y229338D01*
X413000Y216394D02*
Y229232D01*
X439340Y316100D02*
Y322500D01*
Y310340D02*
Y316100D01*
X435600D02*
X439340D01*
X439000Y310000D02*
X439340Y310340D01*
X422600Y316100D02*
X435600D01*
Y322500D01*
X366500Y202350D02*
X367750Y201100D01*
X367900D01*
X370000Y199000D01*
X366500Y202350D02*
Y202500D01*
X431917Y282817D02*
X436785Y287685D01*
X445799D01*
X405100Y271200D02*
X415200D01*
X417000Y273000D01*
X405100Y271200D02*
X415862Y260438D01*
X417000Y281700D02*
X418117Y282817D01*
X417000Y273000D02*
Y281700D01*
X418117Y282817D02*
X422387D01*
X399563Y199000D02*
X451626D01*
X443000Y306000D02*
X462000D01*
X440400Y308600D02*
X443000Y306000D01*
X462000D02*
X463515Y304485D01*
Y285716D02*
Y304485D01*
X439150Y310000D02*
X440400Y308750D01*
X439000Y310000D02*
X439150D01*
X440400Y308600D02*
Y308750D01*
X369900Y293000D02*
X371000Y294100D01*
X415862Y257226D02*
X422387D01*
X348573Y314780D02*
Y319427D01*
X330978D02*
X334051Y322500D01*
X345500D02*
X348573Y319427D01*
X417563Y311063D02*
X422600Y316100D01*
X408017Y295218D02*
Y301517D01*
X417563Y311063D01*
X334051Y322500D02*
X345500D01*
X401323Y329709D02*
X404477Y332863D01*
X401323Y319384D02*
Y329709D01*
X385183Y319384D02*
Y329709D01*
X388187Y332863D02*
X388337D01*
X386837Y331513D02*
X388187Y332863D01*
X386837Y331363D02*
Y331513D01*
X385183Y329709D02*
X386837Y331363D01*
X399563Y199000D02*
Y213173D01*
X409780D01*
X369900Y289600D02*
Y293000D01*
Y298400D01*
X415862Y229338D02*
Y241000D01*
D16*
X328728Y234536D02*
X330145Y233120D01*
X323752Y234536D02*
X328728D01*
X355813Y224100D02*
X372613Y240900D01*
X392233Y248726D02*
X392269Y248762D01*
X388864Y240900D02*
X392233Y244269D01*
Y248726D01*
X372613Y240900D02*
X388864D01*
X330145Y230820D02*
X336864Y224100D01*
X330145Y230820D02*
Y233120D01*
X336864Y224100D02*
X355813D01*
X335121Y240441D02*
X341469D01*
X347442D01*
X334854Y307946D02*
Y314116D01*
X336823Y308877D02*
Y314126D01*
X338791Y313472D02*
Y317491D01*
X346626Y307000D02*
Y314126D01*
X340760Y313353D02*
X340878D01*
X340760Y308087D02*
Y313353D01*
X422392Y259200D02*
X426100D01*
X422387Y259195D02*
X422392Y259200D01*
X426100D02*
X428801Y256499D01*
Y247504D02*
Y256499D01*
X348815Y248316D02*
X365600Y265100D01*
X375930D02*
X375930Y265100D01*
X365600Y265100D02*
X375930D01*
X348378Y244378D02*
X367132Y263132D01*
X375930D01*
X335121Y244378D02*
X341469D01*
X348378D01*
X406400Y305800D02*
X423100Y322500D01*
X424300D02*
X431860Y330060D01*
X423100Y322500D02*
X424300D01*
X375930Y257226D02*
X380726D01*
X384300Y260800D02*
Y283500D01*
X380726Y257226D02*
X384300Y260800D01*
X406700Y236500D02*
X408900D01*
X404839Y234639D02*
X406700Y236500D01*
X404839Y229338D02*
Y234639D01*
X402083Y234783D02*
X406900Y239600D01*
X402083Y229338D02*
Y234783D01*
X406900Y239600D02*
X410700D01*
X399327Y229338D02*
Y234327D01*
X406200Y241200D02*
X409000D01*
X399327Y234327D02*
X406200Y241200D01*
X396571Y229338D02*
X396571Y229338D01*
Y233974D01*
X408017Y245420D02*
Y256083D01*
X396571Y233974D02*
X408017Y245420D01*
X409000Y241200D02*
X411954Y244154D01*
X407000Y265000D02*
X407000D01*
X411954Y260046D01*
Y248762D02*
Y260046D01*
X323874Y208089D02*
X346789D01*
X374800Y236100D02*
X393500D01*
X346789Y208089D02*
X374800Y236100D01*
X347589Y206489D02*
X375575Y234475D01*
X394138D01*
X337800Y225700D02*
X355186D01*
X373312Y239300D02*
X391400D01*
X345301Y211289D02*
X373312Y239300D01*
X345963Y209689D02*
X373974Y237700D01*
X324537Y209689D02*
X345963D01*
X325199Y211289D02*
X345301D01*
X355186Y225700D02*
X371986Y242500D01*
X388000D01*
X373974Y237700D02*
X392800D01*
X397800Y258800D02*
X404080Y252520D01*
Y248762D02*
Y252520D01*
X403300Y256900D02*
X406048Y254152D01*
Y248762D02*
Y254152D01*
X378700Y294700D02*
Y296900D01*
Y294700D02*
X388332Y285068D01*
Y248762D02*
Y285068D01*
X407600Y274400D02*
X414000D01*
X398174Y283826D02*
Y295218D01*
Y283826D02*
X407600Y274400D01*
X400143Y284857D02*
X408018Y276982D01*
X400143Y284857D02*
Y295218D01*
X408018Y276982D02*
X410518D01*
X395515Y287715D02*
X396206Y288406D01*
X395515Y285115D02*
Y287715D01*
X411954Y289146D02*
X413200Y287900D01*
X415800D01*
X411954Y289146D02*
Y295218D01*
X411804Y284896D02*
X414000D01*
X409985Y286715D02*
X411804Y284896D01*
X409985Y286715D02*
Y295218D01*
X447282Y295218D02*
X454000Y288500D01*
X413922Y295218D02*
X447282D01*
X446800Y293000D02*
X452000Y287800D01*
X424200Y293000D02*
X446800D01*
X422387Y291187D02*
X424200Y293000D01*
X422407Y278900D02*
X436700D01*
X422387Y278880D02*
X422407Y278900D01*
X437611Y279811D02*
X445799D01*
X436700Y278900D02*
X437611Y279811D01*
X434048Y280848D02*
X436948Y283748D01*
X422387Y280848D02*
X434048D01*
X422387Y276911D02*
X436589D01*
X437626Y275874D01*
X435057Y274943D02*
X438063Y271937D01*
X422387Y274943D02*
X435057D01*
X437500Y268000D02*
X445799D01*
X422387Y272974D02*
X432526D01*
X437500Y268000D01*
X422387Y271006D02*
X430294D01*
X437237Y264063D01*
X445799D01*
X429263Y269037D02*
X438174Y260126D01*
X422387Y269037D02*
X429263D01*
X438174Y260126D02*
X445799D01*
X430500Y265100D02*
X439411Y256189D01*
X422387Y265100D02*
X430500D01*
X429668Y263132D02*
X440548Y252252D01*
X422387Y263132D02*
X429668D01*
X428737Y261163D02*
X441585Y248315D01*
X422387Y261163D02*
X428737D01*
X359200Y302200D02*
X385300D01*
X386363Y301137D01*
X352000Y295000D02*
X359200Y302200D01*
X431860Y330060D02*
Y333500D01*
X374942Y290858D02*
X376942D01*
X384300Y283500D01*
X374800Y291000D02*
X374942Y290858D01*
X375952Y278858D02*
X381697D01*
X375930Y278880D02*
X375952Y278858D01*
X404007Y248834D02*
X404080Y248762D01*
X403100Y261000D02*
X408017Y256083D01*
X369900Y287725D02*
X370872Y286754D01*
X369900Y287725D02*
Y289600D01*
X370872Y286754D02*
X375930D01*
X352312Y279812D02*
X355317Y282817D01*
X375930D01*
X351875Y275875D02*
X356848Y280848D01*
X375930D01*
X356411Y276911D02*
X375930D01*
X351438Y271938D02*
X356411Y276911D01*
X341469Y275875D02*
X351875D01*
X357943Y274943D02*
X375930D01*
X351001Y268001D02*
X357943Y274943D01*
X341469Y268001D02*
X351001D01*
X341469Y264064D02*
X350564D01*
X359474Y272974D02*
X375930D01*
X350564Y264064D02*
X359474Y272974D01*
X350127Y260126D02*
X361006Y271006D01*
X375930D01*
X341469Y260126D02*
X350127D01*
X362537Y269037D02*
X375930D01*
X341469Y256190D02*
X349690D01*
X362537Y269037D01*
X349253Y252253D02*
X364069Y267069D01*
X375930D01*
X341469Y248316D02*
X348815D01*
X347442Y240441D02*
X368163Y261163D01*
X375930D01*
X369195Y259195D02*
X375930D01*
X346504Y236505D02*
X369195Y259195D01*
X385400Y244200D02*
X386363Y245163D01*
Y248762D01*
X380456Y244200D02*
X385400D01*
X374395Y250262D02*
X380456Y244200D01*
X393500Y236100D02*
X400200Y242800D01*
X392800Y237700D02*
X398174Y243074D01*
X391400Y239300D02*
X396206Y244106D01*
X388000Y242500D02*
X390300Y244800D01*
X410700Y239600D02*
X413900Y242800D01*
X411954Y244154D02*
Y248762D01*
X413900Y242800D02*
Y248739D01*
X413922Y248762D01*
X394138Y234475D02*
X402106Y242443D01*
Y248756D01*
X402111Y248762D01*
X398174Y243074D02*
Y248762D01*
X400200Y242800D02*
Y248704D01*
X400143Y248762D02*
X400200Y248704D01*
X390300Y244800D02*
Y248762D01*
X396206Y244106D02*
Y248762D01*
X349168Y329852D02*
X351720Y327300D01*
X349168Y329852D02*
X349168D01*
X351720Y327300D02*
X360876D01*
X364202Y323974D01*
X364300D01*
X332500Y231000D02*
X337800Y225700D01*
X328427Y238473D02*
X332500Y234400D01*
Y231000D02*
Y234400D01*
X323752Y238473D02*
X328427D01*
X341469Y252253D02*
X349253D01*
X337613Y308087D02*
X340760D01*
X336823Y308877D02*
X337613Y308087D01*
X337300Y305500D02*
X341626D01*
X334854Y307946D02*
X337300Y305500D01*
X339831Y318531D02*
X342728D01*
X338791Y317491D02*
X339831Y318531D01*
X454000Y284000D02*
X456221Y281779D01*
X454000Y284000D02*
Y288500D01*
X456221Y281779D02*
X463515D01*
X456158Y277842D02*
X463515D01*
X452000Y282000D02*
Y287800D01*
Y282000D02*
X456158Y277842D01*
X324194Y258600D02*
X331600D01*
X323752Y258158D02*
X324194Y258600D01*
X394237Y253181D02*
X395500Y254444D01*
Y254500D01*
X394237Y248762D02*
Y253181D01*
X323752Y262095D02*
X331600D01*
X316344Y215619D02*
X323874Y208089D01*
X316344Y248344D02*
X318284Y250284D01*
X316344Y215619D02*
Y248344D01*
X320068Y241863D02*
X323206D01*
X318000Y216226D02*
Y245100D01*
X319600Y241394D02*
X320068Y241863D01*
X318000Y245100D02*
X319247Y246347D01*
X323206Y241863D02*
X323752Y242410D01*
X319600Y216889D02*
X325199Y211289D01*
X319600Y216889D02*
Y241394D01*
X318000Y216226D02*
X324537Y209689D01*
X321511Y206489D02*
X347589D01*
X458549Y197800D02*
X464000D01*
X457374Y198975D02*
Y206374D01*
Y198975D02*
X458549Y197800D01*
X414000Y267069D02*
X422387D01*
X404080Y286720D02*
X408354Y282446D01*
X410800D01*
X404080Y286720D02*
Y295218D01*
X408200Y279800D02*
X414000D01*
X402111Y285889D02*
Y295218D01*
Y285889D02*
X408200Y279800D01*
X439411Y256189D02*
X445799D01*
X441585Y248315D02*
X445799D01*
X440548Y252252D02*
X445799D01*
X319000Y209000D02*
X321511Y206489D01*
X374395Y250262D02*
X374395D01*
X445500Y310000D02*
X451626D01*
X352000Y289000D02*
Y295000D01*
X341469Y283749D02*
X346749D01*
X352000Y289000D01*
X318721Y254221D02*
X323752D01*
X317200Y252700D02*
X318721Y254221D01*
X373462Y324873D02*
Y332863D01*
X376000Y213173D02*
X393815D01*
Y229338D01*
X376000Y213173D02*
Y220000D01*
X457374Y206374D02*
X458000Y207000D01*
X396206Y288406D02*
Y295218D01*
X456200Y273905D02*
X463515D01*
X345353Y301773D02*
X345451D01*
X341626Y305500D02*
X345353Y301773D01*
X346626Y300500D02*
Y300598D01*
X345451Y301773D02*
X346626Y300598D01*
X407000Y260800D02*
X409985Y257815D01*
Y248762D02*
Y257815D01*
X456396Y254286D02*
X463450D01*
X463515Y254220D01*
X456331Y254351D02*
X456396Y254286D01*
X428695Y245489D02*
Y247398D01*
Y245489D02*
X428801Y245382D01*
X428695Y247398D02*
X428801Y247504D01*
X342728Y314126D02*
Y318531D01*
X436948Y283748D02*
X445799D01*
X318284Y250284D02*
X323752D01*
X456200Y269968D02*
X463515D01*
X456200Y258157D02*
X463515D01*
X456200Y246346D02*
X463515D01*
X456200Y250283D02*
X463515D01*
X422387Y286754D02*
Y291187D01*
X437626Y275874D02*
X445799D01*
X438063Y271937D02*
X445799D01*
X323752Y277843D02*
X331600D01*
X323752Y273906D02*
X331600D01*
X323752Y266032D02*
X331600D01*
X323752Y269969D02*
X331600D01*
X323752Y262095D02*
X324347Y261500D01*
X319247Y246347D02*
X323752D01*
X418618Y212563D02*
Y229338D01*
X386363Y295218D02*
Y301137D01*
X341469Y279812D02*
X352312D01*
X341469Y271938D02*
X351438D01*
X341469Y236505D02*
X346504D01*
X378900Y314922D02*
X390300Y303522D01*
X377912Y322910D02*
X378900Y321922D01*
Y314922D02*
Y321922D01*
X373462Y324873D02*
Y331400D01*
Y305859D02*
Y313849D01*
Y324873D02*
X375424Y322910D01*
X377912D01*
X390300Y295218D02*
Y303522D01*
X373462Y313849D02*
X375424Y311887D01*
X378936D01*
X388332Y302491D01*
Y295218D02*
Y302491D01*
D21*
X451626Y199000D02*
D03*
X457374D02*
D03*
X346626Y307000D02*
D03*
X352374D02*
D03*
X451626Y310000D02*
D03*
X457374D02*
D03*
X352374Y300500D02*
D03*
X346626D02*
D03*
X399563Y213173D02*
D03*
X393815D02*
D03*
X424366Y212563D02*
D03*
X418618D02*
D03*
D22*
X432100Y310000D02*
D03*
X439000D02*
D03*
X348500Y293000D02*
D03*
X355400D02*
D03*
X404477Y332863D02*
D03*
X411377D02*
D03*
X458000Y207000D02*
D03*
X451100D02*
D03*
X369900Y293000D02*
D03*
X363000D02*
D03*
X395737Y332863D02*
D03*
X388837Y332863D02*
D03*
X380362D02*
D03*
X373462D02*
D03*
X366562Y305859D02*
D03*
X373462Y305859D02*
D03*
D27*
X362000Y299500D02*
X368800D01*
X319500Y291500D02*
Y299121D01*
X368800Y299500D02*
X369900Y298400D01*
X323752Y285717D02*
Y290248D01*
X322500Y291500D02*
X323752Y290248D01*
X319500Y291500D02*
X322500D01*
X341469Y287686D02*
Y291469D01*
X343000Y293000D02*
X348500D01*
X341469Y291469D02*
X343000Y293000D01*
X330686Y287686D02*
X341469D01*
X328717Y285717D02*
X330686Y287686D01*
X323752Y285717D02*
X328717D01*
D43*
X322768Y318276D02*
D03*
X356788D02*
D03*
D44*
Y334606D02*
D03*
X322768D02*
D03*
D45*
X332610Y293788D02*
D03*
Y222528D02*
D03*
X454658Y293788D02*
D03*
Y222528D02*
D03*
D46*
X322768Y200874D02*
D03*
D47*
X387400Y338700D02*
D03*
X335121Y244378D02*
D03*
X408900Y236500D02*
D03*
X421100Y326700D02*
D03*
X407000Y265000D02*
D03*
X395515Y285115D02*
D03*
X414000Y284896D02*
D03*
X415800Y287900D02*
D03*
X378700Y296900D02*
D03*
X406400Y305800D02*
D03*
X381697Y278858D02*
D03*
X374800Y291000D02*
D03*
X403300Y256900D02*
D03*
X397800Y258800D02*
D03*
X403100Y261000D02*
D03*
X330821Y250821D02*
D03*
X349168Y329852D02*
D03*
X335121Y240441D02*
D03*
X340760Y308087D02*
D03*
X468500Y303000D02*
D03*
X442500Y301000D02*
D03*
X434000Y236000D02*
D03*
X421500Y241500D02*
D03*
X386000Y221000D02*
D03*
X355500Y236500D02*
D03*
X425000Y204000D02*
D03*
X418000D02*
D03*
X356000Y202000D02*
D03*
Y209000D02*
D03*
X434000Y229000D02*
D03*
X454658Y239657D02*
D03*
Y232658D02*
D03*
X359200Y287600D02*
D03*
X331600Y258600D02*
D03*
X395500Y254500D02*
D03*
X331600Y262095D02*
D03*
X414000Y267069D02*
D03*
X410518Y276982D02*
D03*
X410800Y282446D02*
D03*
X414000Y274400D02*
D03*
Y279800D02*
D03*
X445500Y310000D02*
D03*
X418000Y302500D02*
D03*
X352000Y289000D02*
D03*
X399500Y221000D02*
D03*
X407500D02*
D03*
X317200Y252700D02*
D03*
X344000Y220000D02*
D03*
X361000Y242000D02*
D03*
X432000Y289300D02*
D03*
X417563Y311063D02*
D03*
X410000Y316000D02*
D03*
X464000Y197800D02*
D03*
X456200Y273905D02*
D03*
X319000Y209000D02*
D03*
X407000Y260800D02*
D03*
X456331Y254351D02*
D03*
X342728Y318531D02*
D03*
X456200Y246346D02*
D03*
Y250283D02*
D03*
Y258157D02*
D03*
Y269968D02*
D03*
X331600Y277843D02*
D03*
Y273906D02*
D03*
Y269969D02*
D03*
Y266032D02*
D03*
D48*
X461300Y331832D02*
D03*
D49*
X362000Y299500D02*
D03*
X319500Y299121D02*
D03*
X345500Y322500D02*
D03*
D50*
X352378Y314126D02*
D03*
X349228D02*
D03*
X330328Y314136D02*
D03*
X327178D02*
D03*
D51*
X346668Y314126D02*
D03*
X344698D02*
D03*
X342728D02*
D03*
X340758D02*
D03*
X338798D02*
D03*
X336828D02*
D03*
X334858Y314116D02*
D03*
X332888Y314126D02*
D03*
D52*
X364300Y318226D02*
D03*
Y323974D02*
D03*
D53*
X332611Y300875D02*
D03*
Y215442D02*
D03*
X454657Y300874D02*
D03*
Y215441D02*
D03*
D54*
X341469Y228630D02*
D03*
X323752Y230599D02*
D03*
X341469Y232568D02*
D03*
X323752Y234536D02*
D03*
X341469Y236505D02*
D03*
X323752Y238473D02*
D03*
X341469Y240441D02*
D03*
X323752Y242410D02*
D03*
X341469Y244378D02*
D03*
X323752Y246347D02*
D03*
X341469Y248316D02*
D03*
X323752Y250284D02*
D03*
X341469Y252253D02*
D03*
X323752Y254221D02*
D03*
X341469Y256190D02*
D03*
X323752Y258158D02*
D03*
X341469Y260127D02*
D03*
X323752Y262095D02*
D03*
X341469Y264064D02*
D03*
X323752Y266032D02*
D03*
X341469Y268001D02*
D03*
X323752Y269969D02*
D03*
X341469Y271938D02*
D03*
X323752Y273906D02*
D03*
X341469Y275875D02*
D03*
X323752Y277843D02*
D03*
X341469Y279812D02*
D03*
X323752Y281780D02*
D03*
X341469Y283749D02*
D03*
X323752Y285717D02*
D03*
X341469Y287686D02*
D03*
X445799Y228630D02*
D03*
X463515Y230598D02*
D03*
X445799Y232567D02*
D03*
X463515Y234535D02*
D03*
X445799Y236504D02*
D03*
X463515Y238472D02*
D03*
X445799Y240441D02*
D03*
X463515Y242409D02*
D03*
X445799Y244378D02*
D03*
X463515Y246346D02*
D03*
X445799Y248315D02*
D03*
X463515Y250283D02*
D03*
X445799Y252252D02*
D03*
X463515Y254220D02*
D03*
X445799Y256189D02*
D03*
X463515Y258157D02*
D03*
X445799Y260126D02*
D03*
X463515Y262094D02*
D03*
X445799Y264063D02*
D03*
X463515Y266031D02*
D03*
X445799Y268000D02*
D03*
X463515Y269968D02*
D03*
X445799Y271937D02*
D03*
X463515Y273905D02*
D03*
X445799Y275874D02*
D03*
X463515Y277842D02*
D03*
X445799Y279811D02*
D03*
X463515Y281779D02*
D03*
X445799Y283748D02*
D03*
X463515Y285716D02*
D03*
X445799Y287685D02*
D03*
D55*
X366500Y202500D02*
D03*
Y209400D02*
D03*
X467000Y316900D02*
D03*
Y310000D02*
D03*
X376000Y226900D02*
D03*
Y220000D02*
D03*
D56*
X431860Y333500D02*
D03*
X435600Y333500D02*
D03*
X439340Y333500D02*
D03*
X439340Y322500D02*
D03*
X435600D02*
D03*
X431860D02*
D03*
D57*
X369516Y245382D02*
D03*
X374395Y250262D02*
D03*
D58*
X319500Y291500D02*
D03*
Y305673D02*
D03*
X376000Y199000D02*
D03*
Y213173D02*
D03*
D59*
X384395Y295218D02*
D03*
X386363D02*
D03*
X388332D02*
D03*
X390300D02*
D03*
X392269D02*
D03*
X394237D02*
D03*
X396206D02*
D03*
X398174D02*
D03*
X400143D02*
D03*
X402111D02*
D03*
X404080D02*
D03*
X406048D02*
D03*
X408017D02*
D03*
X409985D02*
D03*
X411954Y295218D02*
D03*
X413922D02*
D03*
X413922Y248762D02*
D03*
X411954D02*
D03*
X409985Y248762D02*
D03*
X408017Y248762D02*
D03*
X406048Y248762D02*
D03*
X404080D02*
D03*
X402111D02*
D03*
X400143D02*
D03*
X398174D02*
D03*
X396206D02*
D03*
X394237D02*
D03*
X392269D02*
D03*
X390300D02*
D03*
X388332D02*
D03*
X386363D02*
D03*
X384395D02*
D03*
D60*
X422387Y286754D02*
D03*
Y284785D02*
D03*
Y282817D02*
D03*
X422387Y280848D02*
D03*
X422387Y278880D02*
D03*
Y276911D02*
D03*
X422387Y274943D02*
D03*
Y272974D02*
D03*
Y271006D02*
D03*
Y269037D02*
D03*
Y267069D02*
D03*
Y265100D02*
D03*
X422387Y263132D02*
D03*
X422387Y261163D02*
D03*
X422387Y259195D02*
D03*
Y257226D02*
D03*
X375930D02*
D03*
Y259195D02*
D03*
Y261163D02*
D03*
X375930Y263132D02*
D03*
X375930Y265100D02*
D03*
Y267069D02*
D03*
Y269037D02*
D03*
Y271006D02*
D03*
Y272974D02*
D03*
Y274943D02*
D03*
Y276911D02*
D03*
Y278880D02*
D03*
X375930Y280848D02*
D03*
X375930Y282817D02*
D03*
X375930Y284785D02*
D03*
Y286754D02*
D03*
D61*
X404839Y229338D02*
D03*
X396571D02*
D03*
X413106D02*
D03*
X421374D02*
D03*
X393815D02*
D03*
X391059D02*
D03*
X402083D02*
D03*
X399327D02*
D03*
X410350D02*
D03*
X407594D02*
D03*
X415862D02*
D03*
X418618D02*
D03*
D62*
X428801Y245382D02*
D03*
X423922Y250262D02*
D03*
D63*
X401323Y319384D02*
D03*
X385183Y319384D02*
D03*
D64*
X373462Y324873D02*
D03*
X373462Y313849D02*
D03*
M02*
