G04*
G04 #@! TF.GenerationSoftware,Altium Limited,Altium Designer,21.2.1 (34)*
G04*
G04 Layer_Color=128*
%FSLAX25Y25*%
%MOIN*%
G70*
G04*
G04 #@! TF.SameCoordinates,7F94B60C-EE6A-4D70-8C52-0CABB09C9AE7*
G04*
G04*
G04 #@! TF.FilePolarity,Positive*
G04*
G01*
G75*
%ADD84C,0.00200*%
D84*
X329854Y293788D02*
X335366D01*
X332610Y291032D02*
Y296544D01*
X329854Y222528D02*
X335366D01*
X332610Y219772D02*
Y225284D01*
X451902Y293788D02*
X457413D01*
X454658Y291032D02*
Y296544D01*
X451902Y222528D02*
X457413D01*
X454658Y219772D02*
Y225284D01*
X318868Y200874D02*
X326668D01*
X322768Y196974D02*
Y204774D01*
X355209Y334732D02*
X358358D01*
X356784Y333157D02*
Y336307D01*
X355484Y318276D02*
X358083D01*
X356784Y316976D02*
Y319575D01*
X321468Y318276D02*
X324067D01*
X322768Y316976D02*
Y319575D01*
X321193Y334732D02*
X324342D01*
X322768Y333157D02*
Y336307D01*
X327117Y320363D02*
X329677D01*
X328397Y319083D02*
Y321642D01*
X349873Y320363D02*
X352432D01*
X351153Y319083D02*
Y321642D01*
X330222Y250821D02*
X331421D01*
X330821Y250221D02*
Y251421D01*
X459400Y332732D02*
X460600D01*
X460000Y332132D02*
Y333332D01*
X348568Y329852D02*
X349768D01*
X349168Y329252D02*
Y330452D01*
X334522Y240441D02*
X335721D01*
X335121Y239842D02*
Y241041D01*
X334522Y244378D02*
X335721D01*
X335121Y243778D02*
Y244978D01*
X340160Y308087D02*
X341360D01*
X340760Y307487D02*
Y308687D01*
X467900Y303000D02*
X469100D01*
X468500Y302400D02*
Y303600D01*
X441900Y301000D02*
X443100D01*
X442500Y300400D02*
Y301600D01*
X433400Y236000D02*
X434600D01*
X434000Y235400D02*
Y236600D01*
X420900Y241500D02*
X422100D01*
X421500Y240900D02*
Y242100D01*
X420900Y326700D02*
X422100D01*
X421500Y326100D02*
Y327300D01*
X385400Y221000D02*
X386600D01*
X386000Y220400D02*
Y221600D01*
X354900Y236500D02*
X356100D01*
X355500Y235900D02*
Y237100D01*
X424400Y204000D02*
X425600D01*
X425000Y203400D02*
Y204600D01*
X417400Y204000D02*
X418600D01*
X418000Y203400D02*
Y204600D01*
X355400Y202000D02*
X356600D01*
X356000Y201400D02*
Y202600D01*
X355400Y209000D02*
X356600D01*
X356000Y208400D02*
Y209600D01*
X433400Y229000D02*
X434600D01*
X434000Y228400D02*
Y229600D01*
X454058Y239657D02*
X455258D01*
X454658Y239057D02*
Y240258D01*
X454058Y232658D02*
X455258D01*
X454658Y232057D02*
Y233258D01*
X358600Y287600D02*
X359800D01*
X359200Y287000D02*
Y288200D01*
X331000Y258600D02*
X332200D01*
X331600Y258000D02*
Y259200D01*
X394900Y256000D02*
X396100D01*
X395500Y255400D02*
Y256600D01*
X331000Y262095D02*
X332200D01*
X331600Y261495D02*
Y262695D01*
X413400Y268569D02*
X414600D01*
X414000Y267969D02*
Y269169D01*
X412891Y289750D02*
X414091D01*
X413491Y289150D02*
Y290350D01*
X409918Y278482D02*
X411118D01*
X410518Y277882D02*
Y279082D01*
X410200Y283946D02*
X411400D01*
X410800Y283346D02*
Y284546D01*
X413400Y286396D02*
X414600D01*
X414000Y285796D02*
Y286996D01*
X413400Y275900D02*
X414600D01*
X414000Y275300D02*
Y276500D01*
X413400Y281300D02*
X414600D01*
X414000Y280700D02*
Y281900D01*
X444900Y310000D02*
X446100D01*
X445500Y309400D02*
Y310600D01*
X406700Y239100D02*
X407900D01*
X407300Y238500D02*
Y239700D01*
X377200Y297200D02*
X378400D01*
X377800Y296600D02*
Y297800D01*
X394915Y286615D02*
X396115D01*
X395515Y286015D02*
Y287215D01*
X410400Y262500D02*
X411600D01*
X411000Y261900D02*
Y263100D01*
X417400Y302500D02*
X418600D01*
X418000Y301900D02*
Y303100D01*
X351400Y289000D02*
X352600D01*
X352000Y288400D02*
Y289600D01*
X405600Y304000D02*
X406800D01*
X406200Y303400D02*
Y304600D01*
X398900Y221000D02*
X400100D01*
X399500Y220400D02*
Y221600D01*
X406900Y221000D02*
X408100D01*
X407500Y220400D02*
Y221600D01*
X318900Y299121D02*
X320100D01*
X319500Y298521D02*
Y299722D01*
X316600Y252700D02*
X317800D01*
X317200Y252100D02*
Y253300D01*
X343400Y220000D02*
X344600D01*
X344000Y219400D02*
Y220600D01*
X360400Y242000D02*
X361600D01*
X361000Y241400D02*
Y242600D01*
X431400Y290500D02*
X432600D01*
X432000Y289900D02*
Y291100D01*
X416963Y311063D02*
X418163D01*
X417563Y310463D02*
Y311663D01*
X409400Y316000D02*
X410600D01*
X410000Y315400D02*
Y316600D01*
X344900Y322500D02*
X346100D01*
X345500Y321900D02*
Y323100D01*
X361400Y299500D02*
X362600D01*
X362000Y298900D02*
Y300100D01*
X463400Y197800D02*
X464600D01*
X464000Y197200D02*
Y198400D01*
X455600Y273905D02*
X456800D01*
X456200Y273305D02*
Y274505D01*
X318400Y209000D02*
X319600D01*
X319000Y208400D02*
Y209600D01*
X382400Y280380D02*
X383600D01*
X383000Y279780D02*
Y280980D01*
X406400Y262300D02*
X407600D01*
X407000Y261700D02*
Y262900D01*
X455731Y254351D02*
X456931D01*
X456331Y253751D02*
Y254951D01*
X375400Y291500D02*
X376600D01*
X376000Y290900D02*
Y292100D01*
X342128Y318531D02*
X343328D01*
X342728Y317931D02*
Y319131D01*
X402500Y262500D02*
X403700D01*
X403100Y261900D02*
Y263100D01*
X402700Y258400D02*
X403900D01*
X403300Y257800D02*
Y259000D01*
X399000Y258600D02*
X400200D01*
X399600Y258000D02*
Y259200D01*
X455600Y246346D02*
X456800D01*
X456200Y245746D02*
Y246946D01*
X455600Y250283D02*
X456800D01*
X456200Y249683D02*
Y250883D01*
X455600Y258157D02*
X456800D01*
X456200Y257557D02*
Y258757D01*
X455600Y269968D02*
X456800D01*
X456200Y269368D02*
Y270568D01*
X331000Y277843D02*
X332200D01*
X331600Y277243D02*
Y278443D01*
X331000Y273906D02*
X332200D01*
X331600Y273306D02*
Y274506D01*
X331000Y269969D02*
X332200D01*
X331600Y269369D02*
Y270569D01*
X331000Y266032D02*
X332200D01*
X331600Y265432D02*
Y266632D01*
M02*
