G04*
G04 #@! TF.GenerationSoftware,Altium Limited,Altium Designer,21.2.1 (34)*
G04*
G04 Layer_Color=128*
%FSLAX25Y25*%
%MOIN*%
G70*
G04*
G04 #@! TF.SameCoordinates,2553E21A-E740-48D2-A68A-D9BBB884D7A6*
G04*
G04*
G04 #@! TF.FilePolarity,Positive*
G04*
G01*
G75*
%ADD89C,0.00200*%
D89*
X431800Y320363D02*
X429241D01*
X430520Y319083D02*
Y321642D01*
X454556Y320363D02*
X451997D01*
X453276Y319083D02*
Y321642D01*
X460290Y318276D02*
X457530D01*
X458910Y316896D02*
Y319656D01*
X426270Y318276D02*
X423510D01*
X424890Y316896D02*
Y319656D01*
X426465Y334606D02*
X423315D01*
X424890Y333031D02*
Y336181D01*
X460485Y334606D02*
X457335D01*
X458910Y333031D02*
Y336181D01*
X451823Y293788D02*
X446311D01*
X449067Y291032D02*
Y296544D01*
X451823Y222528D02*
X446311D01*
X449067Y219772D02*
Y225284D01*
X329776Y293788D02*
X324264D01*
X327020Y291032D02*
Y296544D01*
X329776Y222528D02*
X324264D01*
X327020Y219772D02*
Y225284D01*
X462810Y200874D02*
X455010D01*
X458910Y196974D02*
Y204774D01*
X394878Y338700D02*
X393678D01*
X394278Y338100D02*
Y339300D01*
X447156Y244378D02*
X445956D01*
X446556Y243778D02*
Y244978D01*
X320978Y331832D02*
X319778D01*
X320378Y331232D02*
Y332432D01*
X373378Y236500D02*
X372178D01*
X372778Y235900D02*
Y237100D01*
X361178Y326700D02*
X359978D01*
X360578Y326100D02*
Y327300D01*
X375278Y265000D02*
X374078D01*
X374678Y264400D02*
Y265600D01*
X386762Y285115D02*
X385562D01*
X386162Y284515D02*
Y285715D01*
X368278Y284896D02*
X367078D01*
X367678Y284296D02*
Y285496D01*
X366478Y287900D02*
X365278D01*
X365878Y287300D02*
Y288500D01*
X403578Y296900D02*
X402378D01*
X402978Y296300D02*
Y297500D01*
X420278Y299500D02*
X419078D01*
X419678Y298900D02*
Y300100D01*
X375878Y305800D02*
X374678D01*
X375278Y305200D02*
Y306400D01*
X400580Y278858D02*
X399380D01*
X399980Y278258D02*
Y279458D01*
X407478Y291000D02*
X406278D01*
X406878Y290400D02*
Y291600D01*
X378978Y256900D02*
X377778D01*
X378378Y256300D02*
Y257500D01*
X384478Y258800D02*
X383278D01*
X383878Y258200D02*
Y259400D01*
X379178Y261000D02*
X377978D01*
X378578Y260400D02*
Y261600D01*
X451456Y250821D02*
X450256D01*
X450856Y250221D02*
Y251421D01*
X433109Y329852D02*
X431909D01*
X432509Y329252D02*
Y330452D01*
X447156Y240441D02*
X445956D01*
X446556Y239842D02*
Y241041D01*
X441518Y308087D02*
X440318D01*
X440918Y307487D02*
Y308687D01*
X313778Y303000D02*
X312578D01*
X313178Y302400D02*
Y303600D01*
X339778Y301000D02*
X338578D01*
X339178Y300400D02*
Y301600D01*
X348278Y236000D02*
X347078D01*
X347678Y235400D02*
Y236600D01*
X360778Y241500D02*
X359578D01*
X360178Y240900D02*
Y242100D01*
X396278Y221000D02*
X395078D01*
X395678Y220400D02*
Y221600D01*
X426778Y236500D02*
X425578D01*
X426178Y235900D02*
Y237100D01*
X357278Y204000D02*
X356078D01*
X356678Y203400D02*
Y204600D01*
X364278Y204000D02*
X363078D01*
X363678Y203400D02*
Y204600D01*
X426278Y202000D02*
X425078D01*
X425678Y201400D02*
Y202600D01*
X426278Y209000D02*
X425078D01*
X425678Y208400D02*
Y209600D01*
X348278Y229000D02*
X347078D01*
X347678Y228400D02*
Y229600D01*
X327620Y239657D02*
X326420D01*
X327020Y239057D02*
Y240258D01*
X327620Y232658D02*
X326420D01*
X327020Y232057D02*
Y233258D01*
X423078Y287600D02*
X421878D01*
X422478Y287000D02*
Y288200D01*
X450678Y258600D02*
X449478D01*
X450078Y258000D02*
Y259200D01*
X386778Y254500D02*
X385578D01*
X386178Y253900D02*
Y255100D01*
X450678Y262095D02*
X449478D01*
X450078Y261495D02*
Y262695D01*
X368278Y267069D02*
X367078D01*
X367678Y266469D02*
Y267669D01*
X371760Y276982D02*
X370560D01*
X371160Y276382D02*
Y277582D01*
X371478Y282446D02*
X370278D01*
X370878Y281846D02*
Y283046D01*
X368278Y274400D02*
X367078D01*
X367678Y273800D02*
Y275000D01*
X368278Y279800D02*
X367078D01*
X367678Y279200D02*
Y280400D01*
X336778Y310000D02*
X335578D01*
X336178Y309400D02*
Y310600D01*
X364278Y302500D02*
X363078D01*
X363678Y301900D02*
Y303100D01*
X430278Y289000D02*
X429078D01*
X429678Y288400D02*
Y289600D01*
X382778Y221000D02*
X381578D01*
X382178Y220400D02*
Y221600D01*
X374778Y221000D02*
X373578D01*
X374178Y220400D02*
Y221600D01*
X462778Y299121D02*
X461578D01*
X462178Y298521D02*
Y299722D01*
X465078Y252700D02*
X463878D01*
X464478Y252100D02*
Y253300D01*
X438278Y220000D02*
X437078D01*
X437678Y219400D02*
Y220600D01*
X421278Y242000D02*
X420078D01*
X420678Y241400D02*
Y242600D01*
X350278Y289300D02*
X349078D01*
X349678Y288700D02*
Y289900D01*
X364715Y311063D02*
X363515D01*
X364115Y310463D02*
Y311663D01*
X372278Y316000D02*
X371078D01*
X371678Y315400D02*
Y316600D01*
X436778Y322500D02*
X435578D01*
X436178Y321900D02*
Y323100D01*
X318278Y197800D02*
X317078D01*
X317678Y197200D02*
Y198400D01*
X326078Y273905D02*
X324878D01*
X325478Y273305D02*
Y274505D01*
X463278Y209000D02*
X462078D01*
X462678Y208400D02*
Y209600D01*
X375278Y260800D02*
X374078D01*
X374678Y260200D02*
Y261400D01*
X325947Y254351D02*
X324747D01*
X325347Y253751D02*
Y254951D01*
X439549Y318531D02*
X438349D01*
X438949Y317931D02*
Y319131D01*
X326078Y246346D02*
X324878D01*
X325478Y245746D02*
Y246946D01*
X326078Y250283D02*
X324878D01*
X325478Y249683D02*
Y250883D01*
X326078Y258157D02*
X324878D01*
X325478Y257557D02*
Y258757D01*
X326078Y269968D02*
X324878D01*
X325478Y269368D02*
Y270568D01*
X450678Y277843D02*
X449478D01*
X450078Y277243D02*
Y278443D01*
X450678Y273906D02*
X449478D01*
X450078Y273306D02*
Y274506D01*
X450678Y269969D02*
X449478D01*
X450078Y269369D02*
Y270569D01*
X450678Y266032D02*
X449478D01*
X450078Y265432D02*
Y266632D01*
M02*
