%FSLAX26Y26*%
%MOIN*%
%ADD10C,0.005*%
%ADD11C,0.0393701*%
%ADD14C,0.005*%
%IPPOS*%
G75*
G54D14*
X3227680Y3426060D02*
G03X3148940Y3347320I000000J-078739D01*
X4723740D02*
X4645000Y3426060I-078739J000000D01*
Y1930000D02*
X4723740Y2008740I000000J078740D01*
X3148940D02*
X3227680Y1930000I078740J000000D01*
Y3426060D02*
G01X3260170D01*
X4645000D01*
X4723740Y2008740D02*
Y3347320D01*
X3227680Y1930000D02*
X4645000D01*
X3148940Y2008740D02*
Y3347320D01*
X3227680Y4922120D02*
G03X3148940Y4843380I000000J-078739D01*
X4723740D02*
X4645000Y4922120I-078739J000000D01*
Y3426060D02*
X4723740Y3504800I000000J078740D01*
X3148940D02*
X3227680Y3426060I078740J000000D01*
Y4922120D02*
G01X3260170D01*
X4645000D01*
X4723740Y3504800D02*
Y4843380D01*
X3227680Y3426060D02*
X4645000D01*
X3148940Y3504800D02*
Y4843380D01*
X4802480Y3426060D02*
G03X4723740Y3347320I000000J-078739D01*
X6298540D02*
X6219800Y3426060I-078739J000000D01*
Y1930000D02*
X6298540Y2008740I000000J078740D01*
X4723740D02*
X4802480Y1930000I078740J000000D01*
Y3426060D02*
G01X4834970D01*
X6219800D01*
X6298540Y2008740D02*
Y3347320D01*
X4802480Y1930000D02*
X6219800D01*
X4723740Y2008740D02*
Y3347320D01*
X4802480Y4922120D02*
G03X4723740Y4843380I000000J-078739D01*
X6298540D02*
X6219800Y4922120I-078739J000000D01*
Y3426060D02*
X6298540Y3504800I000000J078740D01*
X4723740D02*
X4802480Y3426060I078740J000000D01*
Y4922120D02*
G01X4834970D01*
X6219800D01*
X6298540Y3504800D02*
Y4843380D01*
X4802480Y3426060D02*
X6219800D01*
X4723740Y3504800D02*
Y4843380D01*
G54D10*
X6298540Y5079600D02*
G03X6259170Y5118970I-039369J000000D01*
X3188310D02*
X3148940Y5079600I000000J-039369D01*
Y4922120D02*
G01X6298540D01*
Y5079600D01*
X6259170Y5118970D02*
X3188310D01*
X3148940Y5079600D02*
Y4922120D01*
X3463901Y5020545D02*
G03I-039369J000000D01*
X6141060D02*
I-039369J000000D01*
G54D11*
X3621381Y4961490D03*
X5904839D03*
G54D10*
X3148940Y1772520D02*
G03X3188310Y1733150I039370J000000D01*
X6259170D02*
X6298540Y1772520I000000J039370D01*
X3188310Y1733150D02*
G01X6259170D01*
X6298540Y1772520D02*
Y1930000D01*
X3148940D01*
Y1772520D01*
X3385160Y1831575D02*
G03I-039369J000000D01*
X6141060D02*
I-039369J000000D01*
G54D11*
X3542641Y1890630D03*
X5904839D03*
M02*
