M48
;Layer_Color=9474304
;FILE_FORMAT=2:5
INCH,LZ
;TYPE=PLATED
T1F00S00C0.01200
T2F00S00C0.02559
T5F00S00C0.07800
;TYPE=NON_PLATED
T6F00S00C0.05512
%
T01
X0319Y0209
X0344Y022
X0356Y0209
Y0202
X03555Y02365
X0361Y0242
X0335121Y0240441
Y0244378
X0330821Y0250821
X03316Y02586
Y0262095
X03316Y0266032
Y0269969
Y0273906
Y0277843
X0352Y0289
X03592Y02876
X0362Y02995
X03778Y02972
X0376Y02915
X0383Y028038
X0395515Y0286615
X04108Y0283946
X0414Y0286396
X0413491Y028975
X0414Y02813
Y02759
X0410518Y0278482
X0414Y0268569
X0411Y02625
X0407Y02623
X04031Y02625
X04033Y02584
X03996Y02586
X03955Y0256
X04073Y02391
X04215Y02415
X0434Y0236
Y0229
X0454658Y0232658
Y0239657
X04562Y0246346
Y0250283
X0456331Y0254351
X04562Y0258157
Y0269968
Y0273905
X04425Y0301
X04455Y031
X0417563Y0311063
X0418Y03025
X04062Y0304
X0432Y02905
X04685Y0303
X0464Y01978
X0425Y0204
X0418
X04075Y0221
X03995
X0386
X03172Y02527
X03195Y0299121
X034076Y0308087
X0342728Y0318531
X03455Y03225
X0349168Y0329852
X041Y0316
X04215Y03267
X046Y0332732
T02
X0328397Y0320363
X0351153
T05
X0322768Y0200874
T06
X033261Y0222528
Y0293788
X0454658
Y0222528
M30
