M48
;Layer_Color=9474304
;FILE_FORMAT=2:5
INCH,LZ
;TYPE=PLATED
T1F00S00C0.01200
T2F00S00C0.02559
T5F00S00C0.07800
;TYPE=NON_PLATED
T6F00S00C0.05512
%
T01
X0319Y0209
X0344Y022
X0356Y0209
Y0202
X03555Y02365
X0361Y0242
X0335121Y0240441
Y0244378
X0330821Y0250821
X03316Y02586
Y0262095
X03316Y0266032
Y0269969
Y0273906
Y0277843
X0352Y0289
X03592Y02876
X0362Y02995
X03787Y02969
X03748Y0291
X0381697Y0278858
X0395515Y0285115
X04108Y0282446
X0414Y0284896
X04158Y02879
X0414Y02798
Y02744
X0410518Y0276982
X0414Y0267069
X0407Y0265
Y02608
X04031Y0261
X04033Y02569
X03978Y02588
X03955Y02545
X04089Y02365
X04075Y0221
X03995
X0386
X0418Y0204
X0425
X0434Y0229
Y0236
X04215Y02415
X0454658Y0239657
Y0232658
X04562Y0246346
Y0250283
X0456331Y0254351
X04562Y0258157
Y0269968
Y0273905
X0432Y02893
X04425Y0301
X04455Y031
X0417563Y0311063
X0418Y03025
X04064Y03058
X04685Y0303
X0464Y01978
X03172Y02527
X03195Y0299121
X034076Y0308087
X0342728Y0318531
X03455Y03225
X0349168Y0329852
X03874Y03387
X041Y0316
X04211Y03267
X04613Y0331832
T02
X0328401Y0320363
X0351157
T05
X0322768Y0200874
T06
X033261Y0222528
Y0293788
X0454658
Y0222528
M30
