G04*
G04 #@! TF.GenerationSoftware,Altium Limited,Altium Designer,21.2.1 (34)*
G04*
G04 Layer_Color=2752767*
%FSLAX25Y25*%
%MOIN*%
G70*
G04*
G04 #@! TF.SameCoordinates,7F94B60C-EE6A-4D70-8C52-0CABB09C9AE7*
G04*
G04*
G04 #@! TF.FilePolarity,Positive*
G04*
G01*
G75*
%ADD84C,0.00200*%
%ADD85C,0.00267*%
D84*
X331810Y292988D02*
Y294588D01*
X333410D01*
Y292988D01*
X331810D01*
Y221728D02*
Y223328D01*
X333410D01*
Y221728D01*
X331810D01*
X453858Y292988D02*
Y294588D01*
X455457D01*
Y292988D01*
X453858D01*
Y221728D02*
Y223328D01*
X455457D01*
Y221728D01*
X453858D01*
X356784Y333932D02*
X355983Y335532D01*
X357583D01*
X356784Y333932D01*
Y317476D02*
X357184Y317876D01*
X357583D01*
X357184Y318276D01*
X357583Y318676D01*
X357184D01*
X356784Y319076D01*
X356383Y318676D01*
X355983D01*
X356383Y318276D01*
X355983Y317876D01*
X356383D01*
X356784Y317476D01*
X322768D02*
X323168Y317876D01*
X323568D01*
X323168Y318276D01*
X323568Y318676D01*
X323168D01*
X322768Y319076D01*
X322368Y318676D01*
X321968D01*
X322368Y318276D01*
X321968Y317876D01*
X322368D01*
X322768Y317476D01*
Y333932D02*
X321968Y335532D01*
X323568D01*
X322768Y333932D01*
X327597Y319563D02*
X327997Y320363D01*
X327597Y321163D01*
X328397Y320763D01*
X329197Y321163D01*
X328797Y320363D01*
X329197Y319563D01*
X328397Y319963D01*
X327597Y319563D01*
X350353D02*
X350753Y320363D01*
X350353Y321163D01*
X351153Y320763D01*
X351953Y321163D01*
X351553Y320363D01*
X351953Y319563D01*
X351153Y319963D01*
X350353Y319563D01*
X330421Y250422D02*
Y250022D01*
X331222D01*
Y250422D01*
X331622D01*
Y251221D01*
X331222D01*
Y251622D01*
X330421D01*
Y251221D01*
X330022D01*
Y250422D01*
X330421D01*
X459600Y332332D02*
Y331932D01*
X460400D01*
Y332332D01*
X460800D01*
Y333132D01*
X460400D01*
Y333532D01*
X459600D01*
Y333132D01*
X459200D01*
Y332332D01*
X459600D01*
X348768Y329452D02*
Y329052D01*
X349568D01*
Y329452D01*
X349968D01*
Y330252D01*
X349568D01*
Y330652D01*
X348768D01*
Y330252D01*
X348368D01*
Y329452D01*
X348768D01*
X334721Y240041D02*
Y239641D01*
X335522D01*
Y240041D01*
X335922D01*
Y240842D01*
X335522D01*
Y241242D01*
X334721D01*
Y240842D01*
X334321D01*
Y240041D01*
X334721D01*
Y243979D02*
Y243579D01*
X335522D01*
Y243979D01*
X335922D01*
Y244778D01*
X335522D01*
Y245179D01*
X334721D01*
Y244778D01*
X334321D01*
Y243979D01*
X334721D01*
X340360Y307687D02*
Y307287D01*
X341160D01*
Y307687D01*
X341560D01*
Y308487D01*
X341160D01*
Y308887D01*
X340360D01*
Y308487D01*
X339960D01*
Y307687D01*
X340360D01*
X468100Y302600D02*
Y302200D01*
X468900D01*
Y302600D01*
X469300D01*
Y303400D01*
X468900D01*
Y303800D01*
X468100D01*
Y303400D01*
X467700D01*
Y302600D01*
X468100D01*
X442100Y300600D02*
Y300200D01*
X442900D01*
Y300600D01*
X443300D01*
Y301400D01*
X442900D01*
Y301800D01*
X442100D01*
Y301400D01*
X441700D01*
Y300600D01*
X442100D01*
X433600Y235600D02*
Y235200D01*
X434400D01*
Y235600D01*
X434800D01*
Y236400D01*
X434400D01*
Y236800D01*
X433600D01*
Y236400D01*
X433200D01*
Y235600D01*
X433600D01*
X421100Y241100D02*
Y240700D01*
X421900D01*
Y241100D01*
X422300D01*
Y241900D01*
X421900D01*
Y242300D01*
X421100D01*
Y241900D01*
X420700D01*
Y241100D01*
X421100D01*
Y326300D02*
Y325900D01*
X421900D01*
Y326300D01*
X422300D01*
Y327100D01*
X421900D01*
Y327500D01*
X421100D01*
Y327100D01*
X420700D01*
Y326300D01*
X421100D01*
X385600Y220600D02*
Y220200D01*
X386400D01*
Y220600D01*
X386800D01*
Y221400D01*
X386400D01*
Y221800D01*
X385600D01*
Y221400D01*
X385200D01*
Y220600D01*
X385600D01*
X355100Y236100D02*
Y235700D01*
X355900D01*
Y236100D01*
X356300D01*
Y236900D01*
X355900D01*
Y237300D01*
X355100D01*
Y236900D01*
X354700D01*
Y236100D01*
X355100D01*
X424600Y203600D02*
Y203200D01*
X425400D01*
Y203600D01*
X425800D01*
Y204400D01*
X425400D01*
Y204800D01*
X424600D01*
Y204400D01*
X424200D01*
Y203600D01*
X424600D01*
X417600D02*
Y203200D01*
X418400D01*
Y203600D01*
X418800D01*
Y204400D01*
X418400D01*
Y204800D01*
X417600D01*
Y204400D01*
X417200D01*
Y203600D01*
X417600D01*
X355600Y201600D02*
Y201200D01*
X356400D01*
Y201600D01*
X356800D01*
Y202400D01*
X356400D01*
Y202800D01*
X355600D01*
Y202400D01*
X355200D01*
Y201600D01*
X355600D01*
Y208600D02*
Y208200D01*
X356400D01*
Y208600D01*
X356800D01*
Y209400D01*
X356400D01*
Y209800D01*
X355600D01*
Y209400D01*
X355200D01*
Y208600D01*
X355600D01*
X433600Y228600D02*
Y228200D01*
X434400D01*
Y228600D01*
X434800D01*
Y229400D01*
X434400D01*
Y229800D01*
X433600D01*
Y229400D01*
X433200D01*
Y228600D01*
X433600D01*
X454257Y239258D02*
Y238858D01*
X455057D01*
Y239258D01*
X455457D01*
Y240057D01*
X455057D01*
Y240458D01*
X454257D01*
Y240057D01*
X453858D01*
Y239258D01*
X454257D01*
Y232258D02*
Y231857D01*
X455057D01*
Y232258D01*
X455457D01*
Y233057D01*
X455057D01*
Y233457D01*
X454257D01*
Y233057D01*
X453858D01*
Y232258D01*
X454257D01*
X358800Y287200D02*
Y286800D01*
X359600D01*
Y287200D01*
X360000D01*
Y288000D01*
X359600D01*
Y288400D01*
X358800D01*
Y288000D01*
X358400D01*
Y287200D01*
X358800D01*
X331200Y258200D02*
Y257800D01*
X332000D01*
Y258200D01*
X332400D01*
Y259000D01*
X332000D01*
Y259400D01*
X331200D01*
Y259000D01*
X330800D01*
Y258200D01*
X331200D01*
X395100Y255600D02*
Y255200D01*
X395900D01*
Y255600D01*
X396300D01*
Y256400D01*
X395900D01*
Y256800D01*
X395100D01*
Y256400D01*
X394700D01*
Y255600D01*
X395100D01*
X331200Y261695D02*
Y261295D01*
X332000D01*
Y261695D01*
X332400D01*
Y262495D01*
X332000D01*
Y262895D01*
X331200D01*
Y262495D01*
X330800D01*
Y261695D01*
X331200D01*
X413600Y268169D02*
Y267769D01*
X414400D01*
Y268169D01*
X414800D01*
Y268969D01*
X414400D01*
Y269369D01*
X413600D01*
Y268969D01*
X413200D01*
Y268169D01*
X413600D01*
X413091Y289350D02*
Y288950D01*
X413891D01*
Y289350D01*
X414291D01*
Y290150D01*
X413891D01*
Y290550D01*
X413091D01*
Y290150D01*
X412691D01*
Y289350D01*
X413091D01*
X410118Y278082D02*
Y277682D01*
X410918D01*
Y278082D01*
X411318D01*
Y278882D01*
X410918D01*
Y279282D01*
X410118D01*
Y278882D01*
X409718D01*
Y278082D01*
X410118D01*
X410400Y283546D02*
Y283146D01*
X411200D01*
Y283546D01*
X411600D01*
Y284346D01*
X411200D01*
Y284746D01*
X410400D01*
Y284346D01*
X410000D01*
Y283546D01*
X410400D01*
X413600Y285996D02*
Y285596D01*
X414400D01*
Y285996D01*
X414800D01*
Y286796D01*
X414400D01*
Y287196D01*
X413600D01*
Y286796D01*
X413200D01*
Y285996D01*
X413600D01*
Y275500D02*
Y275100D01*
X414400D01*
Y275500D01*
X414800D01*
Y276300D01*
X414400D01*
Y276700D01*
X413600D01*
Y276300D01*
X413200D01*
Y275500D01*
X413600D01*
Y280900D02*
Y280500D01*
X414400D01*
Y280900D01*
X414800D01*
Y281700D01*
X414400D01*
Y282100D01*
X413600D01*
Y281700D01*
X413200D01*
Y280900D01*
X413600D01*
X445100Y309600D02*
Y309200D01*
X445900D01*
Y309600D01*
X446300D01*
Y310400D01*
X445900D01*
Y310800D01*
X445100D01*
Y310400D01*
X444700D01*
Y309600D01*
X445100D01*
X406900Y238700D02*
Y238300D01*
X407700D01*
Y238700D01*
X408100D01*
Y239500D01*
X407700D01*
Y239900D01*
X406900D01*
Y239500D01*
X406500D01*
Y238700D01*
X406900D01*
X377400Y296800D02*
Y296400D01*
X378200D01*
Y296800D01*
X378600D01*
Y297600D01*
X378200D01*
Y298000D01*
X377400D01*
Y297600D01*
X377000D01*
Y296800D01*
X377400D01*
X395115Y286215D02*
Y285815D01*
X395915D01*
Y286215D01*
X396315D01*
Y287015D01*
X395915D01*
Y287415D01*
X395115D01*
Y287015D01*
X394715D01*
Y286215D01*
X395115D01*
X410600Y262100D02*
Y261700D01*
X411400D01*
Y262100D01*
X411800D01*
Y262900D01*
X411400D01*
Y263300D01*
X410600D01*
Y262900D01*
X410200D01*
Y262100D01*
X410600D01*
X417600Y302100D02*
Y301700D01*
X418400D01*
Y302100D01*
X418800D01*
Y302900D01*
X418400D01*
Y303300D01*
X417600D01*
Y302900D01*
X417200D01*
Y302100D01*
X417600D01*
X351600Y288600D02*
Y288200D01*
X352400D01*
Y288600D01*
X352800D01*
Y289400D01*
X352400D01*
Y289800D01*
X351600D01*
Y289400D01*
X351200D01*
Y288600D01*
X351600D01*
X405800Y303600D02*
Y303200D01*
X406600D01*
Y303600D01*
X407000D01*
Y304400D01*
X406600D01*
Y304800D01*
X405800D01*
Y304400D01*
X405400D01*
Y303600D01*
X405800D01*
X399100Y220600D02*
Y220200D01*
X399900D01*
Y220600D01*
X400300D01*
Y221400D01*
X399900D01*
Y221800D01*
X399100D01*
Y221400D01*
X398700D01*
Y220600D01*
X399100D01*
X407100D02*
Y220200D01*
X407900D01*
Y220600D01*
X408300D01*
Y221400D01*
X407900D01*
Y221800D01*
X407100D01*
Y221400D01*
X406700D01*
Y220600D01*
X407100D01*
X319100Y298722D02*
Y298322D01*
X319900D01*
Y298722D01*
X320300D01*
Y299521D01*
X319900D01*
Y299921D01*
X319100D01*
Y299521D01*
X318700D01*
Y298722D01*
X319100D01*
X316800Y252300D02*
Y251900D01*
X317600D01*
Y252300D01*
X318000D01*
Y253100D01*
X317600D01*
Y253500D01*
X316800D01*
Y253100D01*
X316400D01*
Y252300D01*
X316800D01*
X343600Y219600D02*
Y219200D01*
X344400D01*
Y219600D01*
X344800D01*
Y220400D01*
X344400D01*
Y220800D01*
X343600D01*
Y220400D01*
X343200D01*
Y219600D01*
X343600D01*
X360600Y241600D02*
Y241200D01*
X361400D01*
Y241600D01*
X361800D01*
Y242400D01*
X361400D01*
Y242800D01*
X360600D01*
Y242400D01*
X360200D01*
Y241600D01*
X360600D01*
X431600Y290100D02*
Y289700D01*
X432400D01*
Y290100D01*
X432800D01*
Y290900D01*
X432400D01*
Y291300D01*
X431600D01*
Y290900D01*
X431200D01*
Y290100D01*
X431600D01*
X417163Y310663D02*
Y310263D01*
X417963D01*
Y310663D01*
X418363D01*
Y311463D01*
X417963D01*
Y311863D01*
X417163D01*
Y311463D01*
X416763D01*
Y310663D01*
X417163D01*
X409600Y315600D02*
Y315200D01*
X410400D01*
Y315600D01*
X410800D01*
Y316400D01*
X410400D01*
Y316800D01*
X409600D01*
Y316400D01*
X409200D01*
Y315600D01*
X409600D01*
X345100Y322100D02*
Y321700D01*
X345900D01*
Y322100D01*
X346300D01*
Y322900D01*
X345900D01*
Y323300D01*
X345100D01*
Y322900D01*
X344700D01*
Y322100D01*
X345100D01*
X361600Y299100D02*
Y298700D01*
X362400D01*
Y299100D01*
X362800D01*
Y299900D01*
X362400D01*
Y300300D01*
X361600D01*
Y299900D01*
X361200D01*
Y299100D01*
X361600D01*
X463600Y197400D02*
Y197000D01*
X464400D01*
Y197400D01*
X464800D01*
Y198200D01*
X464400D01*
Y198600D01*
X463600D01*
Y198200D01*
X463200D01*
Y197400D01*
X463600D01*
X455800Y273505D02*
Y273105D01*
X456600D01*
Y273505D01*
X457000D01*
Y274305D01*
X456600D01*
Y274705D01*
X455800D01*
Y274305D01*
X455400D01*
Y273505D01*
X455800D01*
X318600Y208600D02*
Y208200D01*
X319400D01*
Y208600D01*
X319800D01*
Y209400D01*
X319400D01*
Y209800D01*
X318600D01*
Y209400D01*
X318200D01*
Y208600D01*
X318600D01*
X382600Y279980D02*
Y279580D01*
X383400D01*
Y279980D01*
X383800D01*
Y280780D01*
X383400D01*
Y281180D01*
X382600D01*
Y280780D01*
X382200D01*
Y279980D01*
X382600D01*
X406600Y261900D02*
Y261500D01*
X407400D01*
Y261900D01*
X407800D01*
Y262700D01*
X407400D01*
Y263100D01*
X406600D01*
Y262700D01*
X406200D01*
Y261900D01*
X406600D01*
X455931Y253951D02*
Y253551D01*
X456731D01*
Y253951D01*
X457131D01*
Y254751D01*
X456731D01*
Y255151D01*
X455931D01*
Y254751D01*
X455531D01*
Y253951D01*
X455931D01*
X375600Y291100D02*
Y290700D01*
X376400D01*
Y291100D01*
X376800D01*
Y291900D01*
X376400D01*
Y292300D01*
X375600D01*
Y291900D01*
X375200D01*
Y291100D01*
X375600D01*
X342328Y318131D02*
Y317731D01*
X343128D01*
Y318131D01*
X343528D01*
Y318931D01*
X343128D01*
Y319331D01*
X342328D01*
Y318931D01*
X341928D01*
Y318131D01*
X342328D01*
X402700Y262100D02*
Y261700D01*
X403500D01*
Y262100D01*
X403900D01*
Y262900D01*
X403500D01*
Y263300D01*
X402700D01*
Y262900D01*
X402300D01*
Y262100D01*
X402700D01*
X402900Y258000D02*
Y257600D01*
X403700D01*
Y258000D01*
X404100D01*
Y258800D01*
X403700D01*
Y259200D01*
X402900D01*
Y258800D01*
X402500D01*
Y258000D01*
X402900D01*
X399200Y258200D02*
Y257800D01*
X400000D01*
Y258200D01*
X400400D01*
Y259000D01*
X400000D01*
Y259400D01*
X399200D01*
Y259000D01*
X398800D01*
Y258200D01*
X399200D01*
X455800Y245946D02*
Y245546D01*
X456600D01*
Y245946D01*
X457000D01*
Y246746D01*
X456600D01*
Y247146D01*
X455800D01*
Y246746D01*
X455400D01*
Y245946D01*
X455800D01*
Y249883D02*
Y249483D01*
X456600D01*
Y249883D01*
X457000D01*
Y250683D01*
X456600D01*
Y251083D01*
X455800D01*
Y250683D01*
X455400D01*
Y249883D01*
X455800D01*
Y257757D02*
Y257357D01*
X456600D01*
Y257757D01*
X457000D01*
Y258557D01*
X456600D01*
Y258957D01*
X455800D01*
Y258557D01*
X455400D01*
Y257757D01*
X455800D01*
Y269568D02*
Y269168D01*
X456600D01*
Y269568D01*
X457000D01*
Y270368D01*
X456600D01*
Y270768D01*
X455800D01*
Y270368D01*
X455400D01*
Y269568D01*
X455800D01*
X331200Y277443D02*
Y277043D01*
X332000D01*
Y277443D01*
X332400D01*
Y278243D01*
X332000D01*
Y278643D01*
X331200D01*
Y278243D01*
X330800D01*
Y277443D01*
X331200D01*
Y273506D02*
Y273106D01*
X332000D01*
Y273506D01*
X332400D01*
Y274306D01*
X332000D01*
Y274706D01*
X331200D01*
Y274306D01*
X330800D01*
Y273506D01*
X331200D01*
Y269569D02*
Y269169D01*
X332000D01*
Y269569D01*
X332400D01*
Y270369D01*
X332000D01*
Y270769D01*
X331200D01*
Y270369D01*
X330800D01*
Y269569D01*
X331200D01*
Y265632D02*
Y265232D01*
X332000D01*
Y265632D01*
X332400D01*
Y266432D01*
X332000D01*
Y266832D01*
X331200D01*
Y266432D01*
X330800D01*
Y265632D01*
X331200D01*
D85*
X323568Y200874D02*
G03*
X323568Y200874I-800J0D01*
G01*
M02*
