G04*
G04 #@! TF.GenerationSoftware,Altium Limited,Altium Designer,21.2.1 (34)*
G04*
G04 Layer_Physical_Order=1*
G04 Layer_Color=255*
%FSLAX25Y25*%
%MOIN*%
G70*
G04*
G04 #@! TF.SameCoordinates,2553E21A-E740-48D2-A68A-D9BBB884D7A6*
G04*
G04*
G04 #@! TF.FilePolarity,Positive*
G04*
G01*
G75*
%ADD11C,0.01000*%
%ADD16C,0.00800*%
%ADD17O,0.00860X0.02800*%
%ADD18O,0.02800X0.00860*%
%ADD19R,0.10630X0.10630*%
%ADD20R,0.05512X0.05118*%
%ADD21R,0.03150X0.03347*%
%ADD22R,0.03800X0.03500*%
%ADD23R,0.02165X0.03937*%
%ADD24R,0.03180X0.03400*%
%ADD25R,0.05000X0.02756*%
%ADD26C,0.03000*%
%ADD27C,0.01600*%
%ADD43O,0.04720X0.09060*%
%ADD44O,0.04720X0.07870*%
%ADD45C,0.04800*%
%ADD46C,0.08600*%
%ADD47C,0.02500*%
%ADD48C,0.03000*%
%ADD49C,0.02800*%
G36*
X452726Y332114D02*
X452733Y331916D01*
X452754Y331725D01*
X452789Y331540D01*
X452839Y331361D01*
X452903Y331187D01*
X452980Y331019D01*
X453072Y330857D01*
X453178Y330701D01*
X453299Y330551D01*
X453433Y330406D01*
X452726Y329699D01*
X452726D01*
D01*
X452582Y329834D01*
X452431Y329954D01*
X452275Y330060D01*
X452113Y330152D01*
X451945Y330230D01*
X451772Y330293D01*
X451592Y330343D01*
X451407Y330378D01*
X451216Y330399D01*
X451019Y330406D01*
X450019Y331406D01*
X450202Y331414D01*
X450350Y331435D01*
X450465Y331470D01*
X450546Y331520D01*
X450592Y331583D01*
X450604Y331661D01*
X450582Y331753D01*
X450526Y331859D01*
X450436Y331979D01*
X450312Y332114D01*
X451019Y332821D01*
X451153Y332696D01*
X451273Y332606D01*
X451379Y332550D01*
X451471Y332528D01*
X451549Y332540D01*
X451613Y332587D01*
X451662Y332667D01*
X451697Y332782D01*
X451719Y332931D01*
X451726Y333114D01*
X451726Y333114D01*
Y333114D01*
X452726Y332114D01*
D02*
G37*
G36*
X461805Y334007D02*
X461822Y333872D01*
X461849Y333739D01*
X461888Y333610D01*
X461938Y333484D01*
X461963Y333433D01*
X462017Y333451D01*
X462141Y333505D01*
X462260Y333569D01*
X462373Y333643D01*
X462481Y333728D01*
X462583Y333822D01*
X463290Y333115D01*
X463196Y333013D01*
X463111Y332905D01*
X463037Y332792D01*
X462973Y332673D01*
X462919Y332549D01*
X462900Y332495D01*
X462952Y332470D01*
X463077Y332420D01*
X463207Y332382D01*
X463339Y332354D01*
X463475Y332338D01*
X463614Y332332D01*
Y331332D01*
X463475Y331327D01*
X463339Y331310D01*
X463207Y331283D01*
X463077Y331244D01*
X462952Y331195D01*
X462829Y331134D01*
X462710Y331063D01*
X462594Y330980D01*
X462481Y330887D01*
X462371Y330782D01*
Y331843D01*
X461300Y331832D01*
X461285Y330332D01*
X461134Y330329D01*
X460988Y330315D01*
X460847Y330292D01*
X460712Y330258D01*
X460583Y330214D01*
X460459Y330160D01*
X460340Y330096D01*
X460227Y330021D01*
X460119Y329937D01*
X460017Y329842D01*
X459310Y330549D01*
X459405Y330652D01*
X459489Y330759D01*
X459563Y330873D01*
X459627Y330991D01*
X459681Y331115D01*
X459725Y331245D01*
X459759Y331380D01*
X459783Y331520D01*
X459797Y331666D01*
X459800Y331817D01*
X461300Y331832D01*
X461311Y332904D01*
X460250D01*
X460355Y333013D01*
X460448Y333126D01*
X460531Y333242D01*
X460602Y333361D01*
X460663Y333484D01*
X460712Y333610D01*
X460750Y333739D01*
X460778Y333872D01*
X460794Y334007D01*
X460800Y334146D01*
X461800D01*
X461805Y334007D01*
D02*
G37*
G36*
X456807Y328856D02*
X456828Y328708D01*
X456864Y328593D01*
X456913Y328513D01*
X456977Y328466D01*
X457055Y328454D01*
X457147Y328476D01*
X457253Y328532D01*
X457373Y328622D01*
X457507Y328747D01*
X458214Y328039D01*
X458090Y327905D01*
X458000Y327785D01*
X457944Y327679D01*
X457922Y327587D01*
X457934Y327509D01*
X457980Y327445D01*
X458061Y327396D01*
X458175Y327361D01*
X458324Y327339D01*
X458507Y327332D01*
Y326332D01*
X458324Y326325D01*
X458175Y326304D01*
X458061Y326269D01*
X457980Y326219D01*
X457934Y326155D01*
X457922Y326078D01*
X457944Y325986D01*
X458000Y325880D01*
X458090Y325760D01*
X458214Y325625D01*
X457507Y324918D01*
X457373Y325042D01*
X457253Y325133D01*
X457147Y325189D01*
X457055Y325211D01*
X456977Y325198D01*
X456913Y325152D01*
X456864Y325072D01*
X456828Y324957D01*
X456807Y324808D01*
X456800Y324625D01*
X455800D01*
X455793Y324808D01*
X455772Y324957D01*
X455736Y325072D01*
X455687Y325152D01*
X455623Y325198D01*
X455545Y325211D01*
X455453Y325189D01*
X455347Y325133D01*
X455227Y325042D01*
X455093Y324918D01*
X454386Y325625D01*
X454510Y325760D01*
X454600Y325880D01*
X454656Y325986D01*
X454678Y326078D01*
X454666Y326155D01*
X454620Y326219D01*
X454539Y326269D01*
X454425Y326304D01*
X454276Y326325D01*
X454093Y326332D01*
Y327332D01*
X454276Y327339D01*
X454425Y327361D01*
X454539Y327396D01*
X454620Y327445D01*
X454666Y327509D01*
X454678Y327587D01*
X454656Y327679D01*
X454600Y327785D01*
X454510Y327905D01*
X454386Y328039D01*
X455093Y328747D01*
X455227Y328622D01*
X455347Y328532D01*
X455453Y328476D01*
X455545Y328454D01*
X455623Y328466D01*
X455687Y328513D01*
X455736Y328593D01*
X455772Y328708D01*
X455793Y328856D01*
X455800Y329039D01*
X456800D01*
X456807Y328856D01*
D02*
G37*
G36*
X460018Y323831D02*
X460169Y323711D01*
X460325Y323605D01*
X460487Y323513D01*
X460654Y323435D01*
X460828Y323371D01*
X461008Y323322D01*
X461193Y323286D01*
X461384Y323265D01*
X461581Y323258D01*
X462581Y322258D01*
X462398Y322251D01*
X462250Y322230D01*
X462135Y322195D01*
X462054Y322145D01*
X462008Y322081D01*
X461996Y322004D01*
X462018Y321912D01*
X462074Y321806D01*
X462164Y321685D01*
X462288Y321551D01*
X461581Y320844D01*
X461447Y320968D01*
X461327Y321058D01*
X461221Y321114D01*
X461129Y321136D01*
X461051Y321124D01*
X460987Y321078D01*
X460938Y320997D01*
X460903Y320883D01*
X460881Y320734D01*
X460874Y320551D01*
X459874Y321551D01*
X459867Y321748D01*
X459846Y321939D01*
X459811Y322125D01*
X459761Y322304D01*
X459697Y322478D01*
X459620Y322646D01*
X459528Y322808D01*
X459422Y322964D01*
X459301Y323114D01*
X459167Y323258D01*
X459874Y323965D01*
X460018Y323831D01*
D02*
G37*
G36*
X453433Y323258D02*
X453299Y323114D01*
X453178Y322964D01*
X453072Y322808D01*
X452980Y322646D01*
X452903Y322478D01*
X452839Y322304D01*
X452789Y322125D01*
X452754Y321939D01*
X452733Y321748D01*
X452726Y321551D01*
X451726Y320551D01*
X451719Y320734D01*
X451697Y320883D01*
X451662Y320997D01*
X451613Y321078D01*
X451549Y321124D01*
X451471Y321136D01*
X451379Y321114D01*
X451273Y321058D01*
X451153Y320968D01*
X451019Y320844D01*
X450312Y321551D01*
X450436Y321685D01*
X450526Y321806D01*
X450582Y321912D01*
X450604Y322004D01*
X450592Y322081D01*
X450546Y322145D01*
X450465Y322195D01*
X450350Y322230D01*
X450202Y322251D01*
X450019Y322258D01*
X451019Y323258D01*
X451216Y323265D01*
X451407Y323286D01*
X451592Y323322D01*
X451772Y323371D01*
X451945Y323435D01*
X452113Y323513D01*
X452275Y323605D01*
X452431Y323711D01*
X452582Y323831D01*
X452726Y323965D01*
X453433Y323258D01*
D02*
G37*
G36*
X317985Y251713D02*
X317904Y251617D01*
X317833Y251518D01*
X317771Y251417D01*
X317719Y251314D01*
X317676Y251209D01*
X317643Y251101D01*
X317619Y250992D01*
X317605Y250880D01*
X317600Y250766D01*
X316800D01*
X316795Y250880D01*
X316781Y250992D01*
X316757Y251101D01*
X316724Y251209D01*
X316681Y251314D01*
X316629Y251417D01*
X316567Y251518D01*
X316496Y251617D01*
X316415Y251713D01*
X316325Y251807D01*
X318075D01*
X317985Y251713D01*
D02*
G37*
G36*
X318011Y210579D02*
X318101Y210510D01*
X318195Y210449D01*
X318294Y210397D01*
X318399Y210352D01*
X318509Y210315D01*
X318624Y210287D01*
X318744Y210266D01*
X318870Y210254D01*
X319001Y210250D01*
X317750Y209026D01*
X317749Y209156D01*
X317739Y209281D01*
X317721Y209401D01*
X317694Y209516D01*
X317658Y209625D01*
X317615Y209730D01*
X317563Y209829D01*
X317502Y209924D01*
X317433Y210013D01*
X317356Y210097D01*
X317928Y210657D01*
X318011Y210579D01*
D02*
G37*
G36*
X322768Y341638D02*
X326017D01*
X326017Y341638D01*
X452826Y341638D01*
X452905Y341038D01*
X451597Y340687D01*
X449829Y339955D01*
X448171Y338998D01*
X446653Y337833D01*
X445300Y336479D01*
X444135Y334961D01*
X443178Y333304D01*
X442445Y331535D01*
X441950Y329687D01*
X441700Y327789D01*
Y325875D01*
X441950Y323978D01*
X442445Y322129D01*
X443178Y320361D01*
X444135Y318704D01*
X445300Y317185D01*
X446653Y315832D01*
X448171Y314667D01*
X449829Y313710D01*
X451597Y312977D01*
X453446Y312482D01*
X455343Y312232D01*
X457257D01*
X459154Y312482D01*
X461003Y312977D01*
X462771Y313710D01*
X464429Y314667D01*
X465947Y315832D01*
X467300Y317185D01*
X468466Y318704D01*
X469422Y320361D01*
X470155Y322129D01*
X470650Y323978D01*
X470805Y325157D01*
X471405Y325118D01*
Y200874D01*
X471407Y200868D01*
X471275Y199527D01*
X470882Y198231D01*
X470243Y197037D01*
X469384Y195990D01*
X468337Y195131D01*
X467143Y194492D01*
X465847Y194099D01*
X464506Y193967D01*
X464500Y193969D01*
X322768D01*
X322761Y193967D01*
X321420Y194099D01*
X320124Y194492D01*
X318930Y195131D01*
X317883Y195990D01*
X317024Y197037D01*
X316386Y198231D01*
X315993Y199527D01*
X315861Y200868D01*
X315862Y200874D01*
Y209761D01*
X316231Y209940D01*
X316462Y209970D01*
X316911Y209522D01*
X316918Y209512D01*
X316945Y209471D01*
X316968Y209426D01*
X316988Y209378D01*
X317005Y209325D01*
X317019Y209265D01*
X317029Y209198D01*
X317035Y209123D01*
X317037Y209017D01*
X317050Y208954D01*
Y208612D01*
X317347Y207895D01*
X317895Y207347D01*
X318612Y207050D01*
X319388D01*
X320105Y207347D01*
X320653Y207895D01*
X320950Y208612D01*
Y209388D01*
X320653Y210105D01*
X320105Y210653D01*
X319388Y210950D01*
X319081D01*
X319023Y210963D01*
X318916Y210967D01*
X318839Y210974D01*
X318770Y210986D01*
X318708Y211001D01*
X318653Y211020D01*
X318602Y211041D01*
X318557Y211065D01*
X318514Y211093D01*
X318504Y211101D01*
X318321Y211283D01*
Y250859D01*
X318323Y250871D01*
X318334Y250920D01*
X318349Y250969D01*
X318369Y251018D01*
X318395Y251069D01*
X318427Y251122D01*
X318468Y251178D01*
X318517Y251237D01*
X318590Y251314D01*
X318624Y251366D01*
X318853Y251595D01*
X319150Y252312D01*
Y253088D01*
X318853Y253805D01*
X318305Y254353D01*
X317588Y254650D01*
X316812D01*
X316462Y254505D01*
X315862Y254904D01*
Y334732D01*
X315861Y334739D01*
X315993Y336080D01*
X316386Y337376D01*
X317024Y338570D01*
X317883Y339616D01*
X318930Y340476D01*
X320124Y341114D01*
X321420Y341507D01*
X322761Y341639D01*
X322768Y341638D01*
D02*
G37*
%LPC*%
G36*
X387900Y340928D02*
Y339200D01*
X389628D01*
X389307Y339974D01*
X388674Y340608D01*
X387900Y340928D01*
D02*
G37*
G36*
X386900D02*
X386125Y340608D01*
X385492Y339974D01*
X385172Y339200D01*
X386900D01*
Y340928D01*
D02*
G37*
G36*
X389628Y338200D02*
X387900D01*
Y336472D01*
X388674Y336792D01*
X389307Y337425D01*
X389628Y338200D01*
D02*
G37*
G36*
X386900D02*
X385172D01*
X385492Y337425D01*
X386125Y336792D01*
X386900Y336472D01*
Y338200D01*
D02*
G37*
G36*
X385268Y336261D02*
X382012D01*
Y333202D01*
X385268D01*
Y336261D01*
D02*
G37*
G36*
X381012D02*
X377756D01*
Y333202D01*
X381012D01*
Y336261D01*
D02*
G37*
G36*
X322768Y339267D02*
X321969Y339162D01*
X321224Y338854D01*
X320585Y338363D01*
X320095Y337724D01*
X319787Y336979D01*
X319681Y336181D01*
Y333031D01*
X319787Y332232D01*
X320095Y331487D01*
X320585Y330848D01*
X321224Y330358D01*
X321969Y330049D01*
X322768Y329944D01*
X323567Y330049D01*
X324311Y330358D01*
X324950Y330848D01*
X325441Y331487D01*
X325749Y332232D01*
X325854Y333031D01*
Y336181D01*
X325749Y336979D01*
X325441Y337724D01*
X324950Y338363D01*
X324311Y338854D01*
X323567Y339162D01*
X322768Y339267D01*
D02*
G37*
G36*
X356788D02*
X355989Y339162D01*
X355244Y338854D01*
X354605Y338363D01*
X354115Y337724D01*
X353806Y336979D01*
X353701Y336181D01*
Y333031D01*
X353806Y332232D01*
X354115Y331487D01*
X354605Y330848D01*
X355244Y330358D01*
X355989Y330049D01*
X356651Y329962D01*
X356951Y329414D01*
X355673Y328136D01*
X351059D01*
X350810Y328736D01*
X350821Y328748D01*
X351118Y329464D01*
Y330240D01*
X350821Y330957D01*
X350273Y331505D01*
X349556Y331802D01*
X349232D01*
X349171Y331816D01*
X349065Y331818D01*
X348988Y331825D01*
X348920Y331836D01*
X348860Y331850D01*
X348805Y331868D01*
X348757Y331889D01*
X348711Y331912D01*
X348669Y331940D01*
X348659Y331947D01*
X348142Y332465D01*
X347778Y332708D01*
X347349Y332793D01*
X347349Y332793D01*
X344848D01*
Y334045D01*
X340299D01*
Y329298D01*
X344848D01*
Y330550D01*
X346884D01*
X347073Y330361D01*
X347081Y330351D01*
X347108Y330309D01*
X347132Y330264D01*
X347152Y330215D01*
X347170Y330161D01*
X347185Y330100D01*
X347196Y330032D01*
X347203Y329956D01*
X347205Y329849D01*
X347218Y329788D01*
Y329464D01*
X347515Y328748D01*
X347527Y328736D01*
X347278Y328136D01*
X337707D01*
Y328832D01*
X337712Y328917D01*
X337737Y329109D01*
X337767Y329256D01*
X337780Y329298D01*
X338300D01*
Y329999D01*
X338302Y330008D01*
X338300Y330016D01*
Y334045D01*
X333750D01*
Y329298D01*
X334536D01*
X334537Y329296D01*
X334571Y329213D01*
X334607Y329080D01*
X334637Y328900D01*
X334648Y328772D01*
Y325373D01*
X334642Y325284D01*
X334617Y325093D01*
X334586Y324948D01*
X334571Y324901D01*
X334039D01*
Y324200D01*
X334037Y324192D01*
X334039Y324183D01*
Y320821D01*
X334037Y320813D01*
X334039Y320804D01*
Y320101D01*
X334621D01*
X334644Y320037D01*
X334676Y319897D01*
X334703Y319711D01*
X334711Y319605D01*
Y314134D01*
X334583Y313587D01*
X333000D01*
Y310618D01*
X332000D01*
Y313587D01*
X330417D01*
Y313287D01*
X326977D01*
Y312258D01*
X326977Y312258D01*
X326893Y312224D01*
X326761Y312189D01*
X326580Y312159D01*
X326452Y312147D01*
X322618D01*
X322033Y312031D01*
X321537Y311700D01*
X318419Y308581D01*
X318087Y308085D01*
X317971Y307500D01*
Y300744D01*
X317962Y300647D01*
X317953Y300586D01*
X317943Y300539D01*
X317941Y300532D01*
X317720Y300311D01*
X317400Y299539D01*
Y298704D01*
X317720Y297932D01*
X318310Y297341D01*
X318899Y297097D01*
X318915Y297087D01*
X318933Y297083D01*
X319082Y297022D01*
X319244D01*
X319500Y296971D01*
X319756Y297022D01*
X319918D01*
X320067Y297083D01*
X320085Y297087D01*
X320101Y297097D01*
X320690Y297341D01*
X321280Y297932D01*
X321600Y298704D01*
Y299539D01*
X321280Y300311D01*
X321059Y300532D01*
X321057Y300539D01*
X321047Y300586D01*
X321039Y300641D01*
X321029Y300777D01*
Y306867D01*
X323252Y309089D01*
X326452D01*
X326580Y309078D01*
X326582Y309077D01*
X326975Y308662D01*
X326977Y308653D01*
Y307950D01*
X327214D01*
X327231Y307692D01*
Y307240D01*
X327347Y306655D01*
X327678Y306159D01*
X328919Y304919D01*
X329415Y304587D01*
X330000Y304471D01*
X335000D01*
X335585Y304587D01*
X336081Y304919D01*
X337322Y306159D01*
X337653Y306655D01*
X337770Y307240D01*
Y307766D01*
X337776Y307912D01*
X337780Y307950D01*
X338023D01*
Y308653D01*
X338024Y308662D01*
X338023Y308670D01*
Y312566D01*
X338024Y312575D01*
X338023Y312583D01*
Y313287D01*
X337801D01*
X337770Y313718D01*
Y317370D01*
X340990D01*
X341002Y317378D01*
X341460Y317042D01*
X341624Y316878D01*
X342340Y316581D01*
X343116D01*
X343833Y316878D01*
X344062Y317107D01*
X344115Y317141D01*
X344192Y317215D01*
X344250Y317264D01*
X344306Y317304D01*
X344359Y317337D01*
X344410Y317363D01*
X344460Y317383D01*
X344508Y317398D01*
X344557Y317408D01*
X344569Y317410D01*
X345531D01*
X345531Y317410D01*
X345961Y317495D01*
X346324Y317738D01*
X348381Y319795D01*
X348407Y319799D01*
X348826Y319709D01*
X349043Y319608D01*
X349244Y319124D01*
X349398Y318893D01*
X349815Y318476D01*
X350046Y318321D01*
X350590Y318096D01*
X350863Y318042D01*
X351452D01*
X351725Y318096D01*
X352269Y318321D01*
X352501Y318476D01*
X352917Y318893D01*
X353072Y319124D01*
X353101Y319195D01*
X353701Y319076D01*
Y316106D01*
X353806Y315307D01*
X354115Y314562D01*
X354605Y313923D01*
X355244Y313433D01*
X355989Y313124D01*
X356788Y313019D01*
X357587Y313124D01*
X358331Y313433D01*
X358970Y313923D01*
X359461Y314562D01*
X359769Y315307D01*
X359874Y316106D01*
Y320446D01*
X359769Y321244D01*
X359461Y321989D01*
X359219Y322304D01*
X359461Y322964D01*
X359466Y322967D01*
X359824Y323207D01*
X360669Y324052D01*
X361222Y323756D01*
X361125Y323269D01*
X361296Y322410D01*
X361782Y321682D01*
X361851Y321637D01*
X361905Y321543D01*
X361973Y321381D01*
X362041Y321163D01*
X362103Y320893D01*
X362153Y320587D01*
X362247Y319337D01*
Y312833D01*
X358504Y309090D01*
X342639D01*
X342629Y309092D01*
X342586Y309102D01*
X342547Y309115D01*
X342508Y309132D01*
X342468Y309155D01*
X342426Y309184D01*
X342394Y309211D01*
X342318Y309286D01*
X342270Y309342D01*
X342238Y309367D01*
X341864Y309740D01*
X341148Y310037D01*
X340372D01*
X339655Y309740D01*
X339107Y309192D01*
X338810Y308475D01*
Y307699D01*
X339107Y306983D01*
X339655Y306434D01*
X340372Y306137D01*
X341148D01*
X341864Y306434D01*
X341997Y306566D01*
X342010Y306573D01*
X342098Y306644D01*
X342169Y306694D01*
X342236Y306735D01*
X342301Y306769D01*
X342362Y306797D01*
X342422Y306819D01*
X342479Y306835D01*
X342535Y306846D01*
X342547Y306847D01*
X358969D01*
X358969Y306847D01*
X359398Y306932D01*
X359762Y307176D01*
X362732Y310146D01*
X363286Y309916D01*
Y307946D01*
X363087Y307648D01*
X362971Y307063D01*
Y302634D01*
X362066Y301729D01*
X361992Y301666D01*
X361941Y301629D01*
X361902Y301604D01*
X361895Y301600D01*
X361582D01*
X360810Y301280D01*
X360590Y301059D01*
X360582Y301057D01*
X360536Y301047D01*
X360480Y301039D01*
X360344Y301029D01*
X338551D01*
X338425Y301041D01*
X338247Y301070D01*
X338116Y301105D01*
X338034Y301139D01*
X338024Y301145D01*
X338023Y301154D01*
Y303050D01*
X334457D01*
Y297713D01*
X337302D01*
X337311Y297712D01*
X337319Y297713D01*
X338023D01*
Y297939D01*
X338457Y297971D01*
X360378D01*
X360474Y297962D01*
X360536Y297953D01*
X360582Y297943D01*
X360590Y297941D01*
X360810Y297720D01*
X361582Y297400D01*
X362418D01*
X363190Y297720D01*
X363780Y298310D01*
X364100Y299082D01*
Y299395D01*
X364104Y299402D01*
X364129Y299441D01*
X364162Y299486D01*
X364252Y299589D01*
X365581Y300919D01*
X365913Y301415D01*
X366029Y302000D01*
Y305786D01*
X371100D01*
X371373Y305841D01*
X371605Y305995D01*
X375449Y309840D01*
X387045D01*
X387225Y309464D01*
X387253Y309240D01*
X377907Y299893D01*
X377664Y299529D01*
X377578Y299100D01*
X377578Y299100D01*
Y298741D01*
X377577Y298729D01*
X377566Y298680D01*
X377551Y298631D01*
X377531Y298582D01*
X377505Y298531D01*
X377473Y298478D01*
X377432Y298422D01*
X377383Y298363D01*
X377310Y298286D01*
X377276Y298234D01*
X377047Y298005D01*
X376750Y297288D01*
Y296512D01*
X377047Y295795D01*
X377221Y295621D01*
X376972Y295022D01*
X357119D01*
X357119Y295022D01*
X356689Y294936D01*
X356326Y294693D01*
X356326Y294693D01*
X352652Y291019D01*
X352643Y291013D01*
X352608Y290991D01*
X352573Y290974D01*
X352536Y290960D01*
X352496Y290950D01*
X352449Y290942D01*
X352413Y290940D01*
X352388Y290950D01*
X351612D01*
X350895Y290653D01*
X350347Y290105D01*
X350050Y289388D01*
Y288612D01*
X350347Y287895D01*
X350895Y287347D01*
X351612Y287050D01*
X352388D01*
X353105Y287347D01*
X353653Y287895D01*
X353950Y288612D01*
Y288768D01*
X353965Y288872D01*
X353982Y288959D01*
X354002Y289039D01*
X354026Y289111D01*
X354052Y289176D01*
X354081Y289236D01*
X354112Y289289D01*
X354145Y289338D01*
X354153Y289348D01*
X357583Y292778D01*
X372972D01*
X373221Y292179D01*
X373147Y292105D01*
X372850Y291388D01*
Y290612D01*
X373147Y289895D01*
X373695Y289347D01*
X374412Y289050D01*
X375188D01*
X375905Y289347D01*
X376134Y289576D01*
X376186Y289610D01*
X376263Y289683D01*
X376322Y289732D01*
X376378Y289773D01*
X376431Y289805D01*
X376482Y289831D01*
X376531Y289851D01*
X376580Y289866D01*
X376629Y289877D01*
X376641Y289879D01*
X378600D01*
X378600Y289878D01*
X379029Y289964D01*
X379393Y290207D01*
X391365Y302179D01*
X411800D01*
X411800Y302178D01*
X412229Y302264D01*
X412593Y302507D01*
X415565Y305479D01*
X420100D01*
X420100Y305478D01*
X420529Y305564D01*
X420893Y305807D01*
X425043Y309957D01*
X425286Y310321D01*
X425372Y310750D01*
X425372Y310750D01*
Y316145D01*
X425820Y316668D01*
X426261Y316756D01*
X426635Y317005D01*
X426884Y317379D01*
X426972Y317820D01*
Y319760D01*
X426967Y319785D01*
X427415Y320385D01*
X428015Y320833D01*
X428040Y320828D01*
X429980D01*
X430421Y320916D01*
X430795Y321165D01*
X431044Y321539D01*
X431132Y321980D01*
X431044Y322421D01*
X430815Y322765D01*
X431044Y323109D01*
X431132Y323550D01*
X431044Y323991D01*
X430811Y324340D01*
X431044Y324689D01*
X431132Y325130D01*
X431655Y325578D01*
X434335D01*
X434878Y325035D01*
Y312965D01*
X421535Y299622D01*
X392500D01*
X392071Y299536D01*
X391707Y299293D01*
X391707Y299293D01*
X378535Y286122D01*
X361672D01*
X361272Y286722D01*
X361428Y287100D01*
X356972D01*
X357129Y286722D01*
X356728Y286122D01*
X329000D01*
X329000Y286122D01*
X328571Y286036D01*
X328207Y285793D01*
X328207Y285793D01*
X322207Y279793D01*
X321964Y279429D01*
X321878Y279000D01*
X321879Y279000D01*
Y245900D01*
X321878Y245900D01*
X321964Y245471D01*
X322207Y245107D01*
X327665Y239648D01*
X327665Y239648D01*
X328029Y239405D01*
X328458Y239320D01*
X328459Y239320D01*
X333280D01*
X333293Y239318D01*
X333342Y239308D01*
X333390Y239293D01*
X333439Y239273D01*
X333490Y239247D01*
X333544Y239214D01*
X333600Y239174D01*
X333658Y239125D01*
X333735Y239051D01*
X333788Y239018D01*
X334017Y238788D01*
X334734Y238492D01*
X335509D01*
X336226Y238788D01*
X336775Y239337D01*
X337071Y240054D01*
Y240829D01*
X336775Y241546D01*
X336226Y242095D01*
Y242725D01*
X336775Y243274D01*
X337071Y243991D01*
Y244766D01*
X336775Y245483D01*
X336226Y246032D01*
X335509Y246328D01*
X334734D01*
X334017Y246032D01*
X333788Y245802D01*
X333735Y245769D01*
X333658Y245695D01*
X333600Y245646D01*
X333544Y245606D01*
X333520Y245591D01*
X333476Y245595D01*
X333180Y245648D01*
X332920Y245712D01*
X332707Y245782D01*
X332542Y245854D01*
X332519Y245868D01*
X332435Y245992D01*
X331708Y246479D01*
X330849Y246649D01*
X330693Y246618D01*
X330636Y246634D01*
X330473Y246700D01*
X330272Y246806D01*
X330037Y246953D01*
X329784Y247134D01*
X328835Y247952D01*
X326121Y250665D01*
Y277535D01*
X330465Y281878D01*
X379500D01*
X379500Y281878D01*
X379929Y281964D01*
X380293Y282207D01*
X393465Y295378D01*
X423000D01*
X423000Y295378D01*
X423429Y295464D01*
X423793Y295707D01*
X438793Y310707D01*
X438793Y310707D01*
X439036Y311071D01*
X439122Y311500D01*
Y326500D01*
X439122Y326500D01*
X439036Y326929D01*
X438793Y327293D01*
X437013Y329073D01*
X436649Y329316D01*
X436220Y329402D01*
X436220Y329401D01*
X431655D01*
X431132Y329850D01*
X431044Y330291D01*
X430815Y330635D01*
X431044Y330979D01*
X431132Y331420D01*
X431044Y331861D01*
X430795Y332235D01*
X430421Y332484D01*
X429980Y332572D01*
X428040D01*
X428015Y332567D01*
X427415Y333015D01*
X426967Y333615D01*
X426972Y333640D01*
Y335580D01*
X426885Y336021D01*
X426635Y336395D01*
X426261Y336645D01*
X425820Y336732D01*
X425379Y336645D01*
X425035Y336415D01*
X424691Y336645D01*
X424250Y336732D01*
X423809Y336645D01*
X423460Y336411D01*
X423111Y336644D01*
X422670Y336732D01*
X422229Y336644D01*
X421885Y336415D01*
X421541Y336644D01*
X421100Y336732D01*
X420659Y336644D01*
X420310Y336411D01*
X419961Y336644D01*
X419520Y336732D01*
X419079Y336644D01*
X418735Y336415D01*
X418391Y336644D01*
X417950Y336732D01*
X417509Y336644D01*
X417165Y336415D01*
X416821Y336645D01*
X416380Y336732D01*
X415939Y336645D01*
X415565Y336395D01*
X415315Y336021D01*
X415228Y335580D01*
Y333640D01*
X415233Y333615D01*
X414785Y333015D01*
X414185Y332567D01*
X414160Y332572D01*
X412220D01*
X411779Y332484D01*
X411405Y332235D01*
X411156Y331861D01*
X411068Y331420D01*
X411156Y330979D01*
X411385Y330635D01*
X411156Y330291D01*
X411068Y329850D01*
X410545Y329401D01*
X385268D01*
Y332202D01*
X381512D01*
X377756D01*
Y329401D01*
X374527D01*
X373944Y329443D01*
Y335961D01*
X367032D01*
Y334342D01*
X367032Y334342D01*
X366949Y334308D01*
X366816Y334272D01*
X366635Y334242D01*
X366507Y334231D01*
X362402D01*
X361816Y334115D01*
X361320Y333783D01*
X360408Y332871D01*
X359874Y333186D01*
Y336181D01*
X359769Y336979D01*
X359461Y337724D01*
X358970Y338363D01*
X358331Y338854D01*
X357587Y339162D01*
X356788Y339267D01*
D02*
G37*
G36*
X322768Y323532D02*
X321969Y323427D01*
X321224Y323118D01*
X320585Y322628D01*
X320095Y321989D01*
X319787Y321244D01*
X319681Y320446D01*
Y316106D01*
X319787Y315307D01*
X320095Y314562D01*
X320585Y313923D01*
X321224Y313433D01*
X321969Y313124D01*
X322768Y313019D01*
X323567Y313124D01*
X324311Y313433D01*
X324950Y313923D01*
X325441Y314562D01*
X325749Y315307D01*
X325854Y316106D01*
Y319076D01*
X326454Y319195D01*
X326484Y319124D01*
X326638Y318893D01*
X327055Y318476D01*
X327286Y318321D01*
X327830Y318096D01*
X328103Y318042D01*
X328692D01*
X328965Y318096D01*
X329509Y318321D01*
X329741Y318476D01*
X330157Y318893D01*
X330312Y319124D01*
X330537Y319668D01*
X330591Y319941D01*
Y320530D01*
X330537Y320803D01*
X330312Y321347D01*
X330157Y321579D01*
X329741Y321995D01*
X329509Y322150D01*
X328965Y322375D01*
X328692Y322429D01*
X328103D01*
X327830Y322375D01*
X327286Y322150D01*
X327055Y321995D01*
X326638Y321579D01*
X326484Y321347D01*
X326375Y321085D01*
X325759Y321166D01*
X325749Y321244D01*
X325441Y321989D01*
X324950Y322628D01*
X324311Y323118D01*
X323567Y323427D01*
X322768Y323532D01*
D02*
G37*
G36*
X469000Y305228D02*
Y303500D01*
X470728D01*
X470407Y304275D01*
X469774Y304907D01*
X469000Y305228D01*
D02*
G37*
G36*
X468000D02*
X467226Y304907D01*
X466593Y304275D01*
X466272Y303500D01*
X468000D01*
Y305228D01*
D02*
G37*
G36*
X418500Y304728D02*
Y303000D01*
X420228D01*
X419908Y303774D01*
X419275Y304408D01*
X418500Y304728D01*
D02*
G37*
G36*
X417500D02*
X416725Y304408D01*
X416092Y303774D01*
X415772Y303000D01*
X417500D01*
Y304728D01*
D02*
G37*
G36*
X443000Y303228D02*
Y301500D01*
X444728D01*
X444408Y302274D01*
X443775Y302907D01*
X443000Y303228D01*
D02*
G37*
G36*
X442000D02*
X441225Y302907D01*
X440592Y302274D01*
X440272Y301500D01*
X442000D01*
Y303228D01*
D02*
G37*
G36*
X470728Y302500D02*
X469000D01*
Y300772D01*
X469774Y301093D01*
X470407Y301726D01*
X470728Y302500D01*
D02*
G37*
G36*
X468000D02*
X466272D01*
X466593Y301726D01*
X467226Y301093D01*
X468000Y300772D01*
Y302500D01*
D02*
G37*
G36*
X420228Y302000D02*
X418500D01*
Y300272D01*
X419275Y300592D01*
X419908Y301225D01*
X420228Y302000D01*
D02*
G37*
G36*
X417500D02*
X415772D01*
X416092Y301225D01*
X416725Y300592D01*
X417500Y300272D01*
Y302000D01*
D02*
G37*
G36*
X444728Y300500D02*
X443000D01*
Y298772D01*
X443775Y299093D01*
X444408Y299726D01*
X444728Y300500D01*
D02*
G37*
G36*
X442000D02*
X440272D01*
X440592Y299726D01*
X441225Y299093D01*
X442000Y298772D01*
Y300500D01*
D02*
G37*
G36*
X330542Y303050D02*
X326977D01*
Y297713D01*
X330542D01*
Y303050D01*
D02*
G37*
G36*
X445888Y311950D02*
X445112D01*
X444395Y311653D01*
X443847Y311105D01*
X443550Y310388D01*
Y310064D01*
X443537Y310003D01*
X443534Y309896D01*
X443528Y309820D01*
X443516Y309752D01*
X443502Y309691D01*
X443484Y309637D01*
X443464Y309588D01*
X443440Y309543D01*
X443412Y309501D01*
X443405Y309491D01*
X427335Y293422D01*
X397300D01*
X396871Y293336D01*
X396507Y293093D01*
X396507Y293093D01*
X383450Y280036D01*
X383406Y280049D01*
X383353Y280070D01*
X383298Y280097D01*
X383241Y280130D01*
X383180Y280171D01*
X383118Y280221D01*
X383037Y280293D01*
X382994Y280319D01*
X382802Y280511D01*
X382085Y280808D01*
X381309D01*
X380593Y280511D01*
X380044Y279962D01*
X379747Y279246D01*
Y278470D01*
X380044Y277753D01*
X380076Y277722D01*
X379827Y277121D01*
X376571D01*
X375056Y278636D01*
X374692Y278879D01*
X374263Y278965D01*
X374263Y278965D01*
X333441D01*
X333429Y278966D01*
X333380Y278977D01*
X333331Y278992D01*
X333282Y279012D01*
X333231Y279038D01*
X333178Y279070D01*
X333122Y279111D01*
X333063Y279160D01*
X332986Y279234D01*
X332934Y279267D01*
X332705Y279496D01*
X331988Y279793D01*
X331212D01*
X330495Y279496D01*
X329947Y278948D01*
X329650Y278231D01*
Y277455D01*
X329947Y276739D01*
X330495Y276190D01*
Y275559D01*
X329947Y275011D01*
X329650Y274294D01*
Y273518D01*
X329947Y272801D01*
X330495Y272253D01*
Y271622D01*
X329947Y271074D01*
X329650Y270357D01*
Y269581D01*
X329947Y268864D01*
X330495Y268316D01*
Y267685D01*
X329947Y267137D01*
X329650Y266420D01*
Y265644D01*
X329947Y264928D01*
X330495Y264379D01*
X330495Y263748D01*
X329947Y263200D01*
X329650Y262483D01*
Y261707D01*
X329947Y260991D01*
X330198Y260739D01*
X330438Y260348D01*
X330198Y259956D01*
X329947Y259705D01*
X329650Y258988D01*
Y258212D01*
X329947Y257495D01*
X330495Y256947D01*
X331212Y256650D01*
X331988D01*
X332705Y256947D01*
X333049Y257291D01*
X333091Y257323D01*
X333159Y257398D01*
X333208Y257445D01*
X333253Y257483D01*
X333297Y257512D01*
X333338Y257535D01*
X333379Y257553D01*
X333420Y257567D01*
X333464Y257577D01*
X333474Y257578D01*
X396003D01*
X396016Y257577D01*
X396070Y257566D01*
X396126Y257550D01*
X396184Y257529D01*
X396244Y257501D01*
X396307Y257467D01*
X396372Y257426D01*
X396441Y257376D01*
X396527Y257305D01*
X396549Y257293D01*
X396695Y257147D01*
X397412Y256850D01*
X398188D01*
X398905Y257147D01*
X399453Y257695D01*
X399634Y258132D01*
X400304Y258310D01*
X401205Y257409D01*
X401213Y257399D01*
X401240Y257357D01*
X401264Y257312D01*
X401284Y257263D01*
X401302Y257209D01*
X401316Y257148D01*
X401328Y257080D01*
X401334Y257004D01*
X401336Y256897D01*
X401350Y256836D01*
Y256512D01*
X401535Y256065D01*
X401085Y255585D01*
X400900Y255622D01*
X400900Y255622D01*
X397341D01*
X397329Y255623D01*
X397280Y255634D01*
X397231Y255649D01*
X397182Y255669D01*
X397131Y255695D01*
X397078Y255727D01*
X397022Y255768D01*
X396963Y255817D01*
X396886Y255890D01*
X396834Y255924D01*
X396605Y256153D01*
X395888Y256450D01*
X395112D01*
X394395Y256153D01*
X393847Y255605D01*
X393550Y254888D01*
Y254112D01*
X393847Y253395D01*
X394395Y252847D01*
X395112Y252550D01*
X395888D01*
X396605Y252847D01*
X396834Y253076D01*
X396886Y253110D01*
X396963Y253183D01*
X397022Y253232D01*
X397078Y253273D01*
X397131Y253305D01*
X397182Y253331D01*
X397231Y253351D01*
X397280Y253366D01*
X397329Y253377D01*
X397341Y253379D01*
X400435D01*
X407779Y246035D01*
Y238341D01*
X407777Y238329D01*
X407766Y238280D01*
X407751Y238231D01*
X407731Y238182D01*
X407705Y238131D01*
X407673Y238078D01*
X407632Y238022D01*
X407583Y237963D01*
X407510Y237886D01*
X407476Y237834D01*
X407247Y237605D01*
X406950Y236888D01*
Y236112D01*
X407247Y235395D01*
X407795Y234847D01*
X408512Y234550D01*
X409288D01*
X410005Y234847D01*
X410553Y235395D01*
X410850Y236112D01*
Y236888D01*
X410553Y237605D01*
X410324Y237834D01*
X410290Y237886D01*
X410217Y237963D01*
X410168Y238022D01*
X410127Y238078D01*
X410095Y238131D01*
X410069Y238182D01*
X410049Y238231D01*
X410034Y238280D01*
X410023Y238329D01*
X410022Y238341D01*
Y246500D01*
X410022Y246500D01*
X409936Y246929D01*
X409693Y247293D01*
X409693Y247293D01*
X402525Y254461D01*
X402865Y254969D01*
X402912Y254950D01*
X403688D01*
X404405Y255247D01*
X404953Y255795D01*
X405250Y256512D01*
Y257288D01*
X404953Y258005D01*
X404405Y258553D01*
X404130Y258667D01*
Y259316D01*
X404205Y259347D01*
X404655Y259797D01*
X405117Y259791D01*
X405333Y259728D01*
X405347Y259695D01*
X405895Y259147D01*
X406612Y258850D01*
X407388D01*
X408105Y259147D01*
X408653Y259695D01*
X408950Y260412D01*
Y261188D01*
X408862Y261400D01*
X409263Y262000D01*
X412000D01*
Y265390D01*
X412014Y265425D01*
X412023Y265442D01*
X412040Y265469D01*
X412071Y265506D01*
X412119Y265553D01*
X412189Y265601D01*
X412279Y265640D01*
X412600Y265691D01*
X412614Y265678D01*
X412666Y265645D01*
X412895Y265416D01*
X413612Y265119D01*
X414388D01*
X415105Y265416D01*
X415653Y265964D01*
X415950Y266681D01*
Y267457D01*
X415653Y268173D01*
X415448Y268378D01*
X415696Y268979D01*
X417835D01*
X439878Y246935D01*
Y207500D01*
X439878Y207500D01*
X439964Y207071D01*
X440207Y206707D01*
X444207Y202707D01*
X444207Y202707D01*
X444570Y202464D01*
X445000Y202379D01*
X446083D01*
Y201422D01*
X452483D01*
Y202378D01*
X463800D01*
Y201422D01*
X465187D01*
X465436Y200822D01*
X464509Y199895D01*
X464499Y199888D01*
X464457Y199860D01*
X464412Y199837D01*
X464363Y199816D01*
X464309Y199798D01*
X464248Y199784D01*
X464180Y199773D01*
X464104Y199766D01*
X463997Y199764D01*
X463936Y199750D01*
X463612D01*
X462895Y199453D01*
X462347Y198905D01*
X462050Y198188D01*
Y197412D01*
X462347Y196695D01*
X462895Y196147D01*
X463612Y195850D01*
X464388D01*
X465105Y196147D01*
X465653Y196695D01*
X465950Y197412D01*
Y197736D01*
X465964Y197797D01*
X465966Y197904D01*
X465973Y197980D01*
X465983Y198048D01*
X465998Y198109D01*
X466016Y198163D01*
X466037Y198212D01*
X466060Y198257D01*
X466087Y198299D01*
X466095Y198309D01*
X467793Y200007D01*
X468036Y200371D01*
X468122Y200800D01*
X468122Y200800D01*
Y201422D01*
X470200D01*
Y205578D01*
X463800D01*
Y204622D01*
X452483D01*
Y205578D01*
X446083D01*
Y204622D01*
X445464D01*
X442122Y207965D01*
Y247400D01*
X442122Y247400D01*
X442036Y247829D01*
X441793Y248193D01*
X441793Y248193D01*
X419093Y270893D01*
X418729Y271136D01*
X418300Y271222D01*
X418300Y271221D01*
X411278D01*
X408500Y274000D01*
X408217D01*
X397610Y284606D01*
X397603Y284616D01*
X397576Y284658D01*
X397552Y284703D01*
X397531Y284752D01*
X397513Y284807D01*
X397499Y284867D01*
X397488Y284935D01*
X397481Y285012D01*
X397479Y285118D01*
X397465Y285179D01*
Y285503D01*
X397168Y286220D01*
X396620Y286768D01*
X395903Y287065D01*
X395127D01*
X394411Y286768D01*
X393862Y286220D01*
X393565Y285503D01*
Y284727D01*
X393862Y284011D01*
X394411Y283462D01*
X395127Y283165D01*
X395451D01*
X395512Y283152D01*
X395619Y283150D01*
X395695Y283143D01*
X395763Y283132D01*
X395824Y283117D01*
X395878Y283099D01*
X395927Y283079D01*
X395972Y283055D01*
X396014Y283028D01*
X396024Y283020D01*
X401413Y277631D01*
X401118Y277078D01*
X400900Y277122D01*
X400900Y277121D01*
X384085D01*
X384037Y277158D01*
X383824Y277520D01*
X383825Y277529D01*
X383972Y277793D01*
X384329Y277864D01*
X384693Y278107D01*
X397765Y291178D01*
X427800D01*
X427800Y291178D01*
X428229Y291264D01*
X428593Y291507D01*
X444991Y307905D01*
X445001Y307912D01*
X445043Y307940D01*
X445088Y307963D01*
X445137Y307984D01*
X445191Y308002D01*
X445252Y308016D01*
X445320Y308028D01*
X445396Y308034D01*
X445503Y308036D01*
X445564Y308050D01*
X445888D01*
X446605Y308347D01*
X447153Y308895D01*
X447450Y309612D01*
Y310388D01*
X447153Y311105D01*
X446605Y311653D01*
X445888Y311950D01*
D02*
G37*
G36*
X455113Y297243D02*
X454203D01*
X453324Y297008D01*
X452535Y296553D01*
X451892Y295910D01*
X451437Y295122D01*
X451202Y294243D01*
Y293333D01*
X451437Y292454D01*
X451892Y291666D01*
X452535Y291022D01*
X453324Y290567D01*
X454203Y290332D01*
X455113D01*
X455991Y290567D01*
X456779Y291022D01*
X457423Y291666D01*
X457878Y292454D01*
X458113Y293333D01*
Y294243D01*
X457878Y295122D01*
X457423Y295910D01*
X456779Y296553D01*
X455991Y297008D01*
X455113Y297243D01*
D02*
G37*
G36*
X333065D02*
X332155D01*
X331276Y297008D01*
X330488Y296553D01*
X329845Y295910D01*
X329390Y295122D01*
X329154Y294243D01*
Y293333D01*
X329390Y292454D01*
X329845Y291666D01*
X330488Y291022D01*
X331276Y290567D01*
X332155Y290332D01*
X333065D01*
X333944Y290567D01*
X334732Y291022D01*
X335376Y291666D01*
X335831Y292454D01*
X336066Y293333D01*
Y294243D01*
X335831Y295122D01*
X335376Y295910D01*
X334732Y296553D01*
X333944Y297008D01*
X333065Y297243D01*
D02*
G37*
G36*
X432500Y291528D02*
Y289800D01*
X434228D01*
X433908Y290575D01*
X433275Y291208D01*
X432500Y291528D01*
D02*
G37*
G36*
X431500D02*
X430725Y291208D01*
X430092Y290575D01*
X429772Y289800D01*
X431500D01*
Y291528D01*
D02*
G37*
G36*
X359700Y289828D02*
Y288100D01*
X361428D01*
X361107Y288875D01*
X360474Y289508D01*
X359700Y289828D01*
D02*
G37*
G36*
X358700D02*
X357926Y289508D01*
X357293Y288875D01*
X356972Y288100D01*
X358700D01*
Y289828D01*
D02*
G37*
G36*
X434228Y288800D02*
X432500D01*
Y287072D01*
X433275Y287392D01*
X433908Y288025D01*
X434228Y288800D01*
D02*
G37*
G36*
X416188Y289850D02*
X415412D01*
X414695Y289553D01*
X414147Y289005D01*
X413850Y288288D01*
Y287512D01*
X413929Y287321D01*
X413869Y287230D01*
X413496Y286798D01*
X412895Y286549D01*
X412347Y286000D01*
X412050Y285284D01*
Y284688D01*
X411668Y284340D01*
X411501Y284266D01*
X411188Y284396D01*
X410412D01*
X409695Y284099D01*
X409147Y283550D01*
X408850Y282834D01*
Y282058D01*
X409147Y281341D01*
X409695Y280793D01*
X410412Y280496D01*
X411188D01*
X411599Y280666D01*
X412058Y280207D01*
X412050Y280188D01*
Y279412D01*
X412069Y279367D01*
X411713Y278658D01*
X411622Y278636D01*
X410906Y278932D01*
X410130D01*
X409413Y278636D01*
X408864Y278087D01*
X408568Y277370D01*
Y276594D01*
X408864Y275878D01*
X409413Y275329D01*
X410130Y275032D01*
X410906D01*
X411622Y275329D01*
X411627Y275334D01*
X412135Y274994D01*
X412050Y274788D01*
Y274012D01*
X412347Y273295D01*
X412895Y272747D01*
X413612Y272450D01*
X414388D01*
X415105Y272747D01*
X415334Y272976D01*
X415386Y273010D01*
X415463Y273083D01*
X415522Y273132D01*
X415578Y273173D01*
X415631Y273205D01*
X415682Y273231D01*
X415731Y273251D01*
X415780Y273266D01*
X415829Y273277D01*
X415841Y273278D01*
X424135D01*
X451861Y245553D01*
X451861Y245553D01*
X452225Y245310D01*
X452654Y245224D01*
X454359D01*
X454371Y245223D01*
X454420Y245212D01*
X454469Y245197D01*
X454518Y245177D01*
X454569Y245151D01*
X454622Y245119D01*
X454678Y245078D01*
X454737Y245029D01*
X454814Y244956D01*
X454866Y244922D01*
X455095Y244693D01*
X455812Y244396D01*
X456588D01*
X457305Y244693D01*
X457853Y245241D01*
X458150Y245958D01*
Y246734D01*
X457853Y247451D01*
X457305Y247999D01*
Y248630D01*
X457853Y249179D01*
X458150Y249895D01*
Y250671D01*
X457853Y251388D01*
X457305Y251936D01*
X457235Y251965D01*
Y252615D01*
X457436Y252698D01*
X457984Y253246D01*
X458281Y253963D01*
Y254739D01*
X457984Y255456D01*
X457503Y255937D01*
X457438Y256123D01*
X457449Y256648D01*
X457853Y257052D01*
X458150Y257769D01*
Y258545D01*
X457853Y259262D01*
X457305Y259810D01*
X456588Y260107D01*
X455812D01*
X455095Y259810D01*
X454866Y259581D01*
X454814Y259547D01*
X454737Y259474D01*
X454678Y259425D01*
X454622Y259384D01*
X454569Y259352D01*
X454518Y259326D01*
X454469Y259306D01*
X454420Y259291D01*
X454371Y259280D01*
X454359Y259279D01*
X452308D01*
X443339Y268247D01*
X443588Y268847D01*
X454359D01*
X454371Y268845D01*
X454420Y268834D01*
X454469Y268819D01*
X454518Y268799D01*
X454569Y268774D01*
X454622Y268741D01*
X454678Y268701D01*
X454737Y268652D01*
X454814Y268578D01*
X454866Y268544D01*
X455095Y268315D01*
X455812Y268018D01*
X456588D01*
X457305Y268315D01*
X457853Y268864D01*
X458150Y269580D01*
Y270356D01*
X457853Y271073D01*
X457305Y271621D01*
Y272252D01*
X457853Y272801D01*
X458150Y273517D01*
Y274293D01*
X457853Y275010D01*
X457305Y275558D01*
X456588Y275855D01*
X455812D01*
X455095Y275558D01*
X454866Y275329D01*
X454814Y275296D01*
X454737Y275222D01*
X454678Y275173D01*
X454622Y275132D01*
X454569Y275100D01*
X454518Y275074D01*
X454469Y275054D01*
X454420Y275039D01*
X454371Y275028D01*
X454359Y275027D01*
X442659D01*
X431097Y286589D01*
X431437Y287098D01*
X431500Y287072D01*
Y288800D01*
X429772D01*
X429798Y288737D01*
X429289Y288397D01*
X428993Y288693D01*
X428629Y288936D01*
X428200Y289022D01*
X428200Y289021D01*
X417641D01*
X417629Y289023D01*
X417580Y289034D01*
X417531Y289049D01*
X417482Y289069D01*
X417431Y289095D01*
X417378Y289127D01*
X417322Y289168D01*
X417263Y289217D01*
X417186Y289290D01*
X417134Y289324D01*
X416905Y289553D01*
X416188Y289850D01*
D02*
G37*
G36*
X331322Y253050D02*
Y251322D01*
X333050D01*
X332729Y252096D01*
X332096Y252729D01*
X331322Y253050D01*
D02*
G37*
G36*
X330322D02*
X329547Y252729D01*
X328914Y252096D01*
X328593Y251322D01*
X330322D01*
Y253050D01*
D02*
G37*
G36*
X333050Y250322D02*
X331322D01*
Y248593D01*
X332096Y248914D01*
X332729Y249547D01*
X333050Y250322D01*
D02*
G37*
G36*
X330322D02*
X328593D01*
X328914Y249547D01*
X329547Y248914D01*
X330322Y248593D01*
Y250322D01*
D02*
G37*
G36*
X361500Y244228D02*
Y242500D01*
X363228D01*
X362908Y243274D01*
X362275Y243907D01*
X361500Y244228D01*
D02*
G37*
G36*
X360500D02*
X359725Y243907D01*
X359092Y243274D01*
X358772Y242500D01*
X360500D01*
Y244228D01*
D02*
G37*
G36*
X422000Y243728D02*
Y242000D01*
X423728D01*
X423408Y242775D01*
X422775Y243408D01*
X422000Y243728D01*
D02*
G37*
G36*
X421000D02*
X420225Y243408D01*
X419593Y242775D01*
X419272Y242000D01*
X421000D01*
Y243728D01*
D02*
G37*
G36*
X455158Y241886D02*
Y240158D01*
X456886D01*
X456565Y240932D01*
X455932Y241565D01*
X455158Y241886D01*
D02*
G37*
G36*
X454157D02*
X453383Y241565D01*
X452750Y240932D01*
X452429Y240158D01*
X454157D01*
Y241886D01*
D02*
G37*
G36*
X363228Y241500D02*
X361500D01*
Y239772D01*
X362275Y240092D01*
X362908Y240725D01*
X363228Y241500D01*
D02*
G37*
G36*
X360500D02*
X358772D01*
X359092Y240725D01*
X359725Y240092D01*
X360500Y239772D01*
Y241500D01*
D02*
G37*
G36*
X423728Y241000D02*
X422000D01*
Y239272D01*
X422775Y239593D01*
X423408Y240226D01*
X423728Y241000D01*
D02*
G37*
G36*
X421000D02*
X419272D01*
X419593Y240226D01*
X420225Y239593D01*
X421000Y239272D01*
Y241000D01*
D02*
G37*
G36*
X456886Y239158D02*
X455158D01*
Y237429D01*
X455932Y237750D01*
X456565Y238383D01*
X456886Y239158D01*
D02*
G37*
G36*
X454157D02*
X452429D01*
X452750Y238383D01*
X453383Y237750D01*
X454157Y237429D01*
Y239158D01*
D02*
G37*
G36*
X356000Y238728D02*
Y237000D01*
X357728D01*
X357407Y237774D01*
X356774Y238407D01*
X356000Y238728D01*
D02*
G37*
G36*
X355000D02*
X354225Y238407D01*
X353592Y237774D01*
X353272Y237000D01*
X355000D01*
Y238728D01*
D02*
G37*
G36*
X434500Y238228D02*
Y236500D01*
X436228D01*
X435908Y237275D01*
X435275Y237908D01*
X434500Y238228D01*
D02*
G37*
G36*
X433500D02*
X432725Y237908D01*
X432093Y237275D01*
X431772Y236500D01*
X433500D01*
Y238228D01*
D02*
G37*
G36*
X357728Y236000D02*
X356000D01*
Y234272D01*
X356774Y234593D01*
X357407Y235226D01*
X357728Y236000D01*
D02*
G37*
G36*
X355000D02*
X353272D01*
X353592Y235226D01*
X354225Y234593D01*
X355000Y234272D01*
Y236000D01*
D02*
G37*
G36*
X436228Y235500D02*
X434500D01*
Y233772D01*
X435275Y234092D01*
X435908Y234725D01*
X436228Y235500D01*
D02*
G37*
G36*
X433500D02*
X431772D01*
X432093Y234725D01*
X432725Y234092D01*
X433500Y233772D01*
Y235500D01*
D02*
G37*
G36*
X455158Y234886D02*
Y233157D01*
X456886D01*
X456565Y233932D01*
X455932Y234565D01*
X455158Y234886D01*
D02*
G37*
G36*
X454157D02*
X453383Y234565D01*
X452750Y233932D01*
X452429Y233157D01*
X454157D01*
Y234886D01*
D02*
G37*
G36*
X456886Y232157D02*
X455158D01*
Y230429D01*
X455932Y230750D01*
X456565Y231383D01*
X456886Y232157D01*
D02*
G37*
G36*
X454157D02*
X452429D01*
X452750Y231383D01*
X453383Y230750D01*
X454157Y230429D01*
Y232157D01*
D02*
G37*
G36*
X434500Y231228D02*
Y229500D01*
X436228D01*
X435908Y230275D01*
X435275Y230908D01*
X434500Y231228D01*
D02*
G37*
G36*
X433500D02*
X432725Y230908D01*
X432093Y230275D01*
X431772Y229500D01*
X433500D01*
Y231228D01*
D02*
G37*
G36*
X436228Y228500D02*
X434500D01*
Y226772D01*
X435275Y227093D01*
X435908Y227726D01*
X436228Y228500D01*
D02*
G37*
G36*
X433500D02*
X431772D01*
X432093Y227726D01*
X432725Y227093D01*
X433500Y226772D01*
Y228500D01*
D02*
G37*
G36*
X408000Y223228D02*
Y221500D01*
X409728D01*
X409408Y222274D01*
X408775Y222907D01*
X408000Y223228D01*
D02*
G37*
G36*
X407000D02*
X406225Y222907D01*
X405592Y222274D01*
X405272Y221500D01*
X407000D01*
Y223228D01*
D02*
G37*
G36*
X400000D02*
Y221500D01*
X401728D01*
X401407Y222274D01*
X400774Y222907D01*
X400000Y223228D01*
D02*
G37*
G36*
X399000D02*
X398225Y222907D01*
X397592Y222274D01*
X397272Y221500D01*
X399000D01*
Y223228D01*
D02*
G37*
G36*
X386500D02*
Y221500D01*
X388228D01*
X387908Y222274D01*
X387275Y222907D01*
X386500Y223228D01*
D02*
G37*
G36*
X385500D02*
X384725Y222907D01*
X384092Y222274D01*
X383772Y221500D01*
X385500D01*
Y223228D01*
D02*
G37*
G36*
X344500Y222228D02*
Y220500D01*
X346228D01*
X345907Y221274D01*
X345274Y221907D01*
X344500Y222228D01*
D02*
G37*
G36*
X343500D02*
X342725Y221907D01*
X342092Y221274D01*
X341772Y220500D01*
X343500D01*
Y222228D01*
D02*
G37*
G36*
X455113Y225984D02*
X454203D01*
X453324Y225748D01*
X452535Y225293D01*
X451892Y224650D01*
X451437Y223862D01*
X451202Y222983D01*
Y222073D01*
X451437Y221194D01*
X451892Y220406D01*
X452535Y219762D01*
X453324Y219307D01*
X454203Y219072D01*
X455113D01*
X455991Y219307D01*
X456779Y219762D01*
X457423Y220406D01*
X457878Y221194D01*
X458113Y222073D01*
Y222983D01*
X457878Y223862D01*
X457423Y224650D01*
X456779Y225293D01*
X455991Y225748D01*
X455113Y225984D01*
D02*
G37*
G36*
X333065D02*
X332155D01*
X331276Y225748D01*
X330488Y225293D01*
X329845Y224650D01*
X329390Y223862D01*
X329154Y222983D01*
Y222073D01*
X329390Y221194D01*
X329845Y220406D01*
X330488Y219762D01*
X331276Y219307D01*
X332155Y219072D01*
X333065D01*
X333944Y219307D01*
X334732Y219762D01*
X335376Y220406D01*
X335831Y221194D01*
X336066Y222073D01*
Y222983D01*
X335831Y223862D01*
X335376Y224650D01*
X334732Y225293D01*
X333944Y225748D01*
X333065Y225984D01*
D02*
G37*
G36*
X409728Y220500D02*
X408000D01*
Y218772D01*
X408775Y219092D01*
X409408Y219725D01*
X409728Y220500D01*
D02*
G37*
G36*
X407000D02*
X405272D01*
X405592Y219725D01*
X406225Y219092D01*
X407000Y218772D01*
Y220500D01*
D02*
G37*
G36*
X401728D02*
X400000D01*
Y218772D01*
X400774Y219092D01*
X401407Y219725D01*
X401728Y220500D01*
D02*
G37*
G36*
X399000D02*
X397272D01*
X397592Y219725D01*
X398225Y219092D01*
X399000Y218772D01*
Y220500D01*
D02*
G37*
G36*
X388228D02*
X386500D01*
Y218772D01*
X387275Y219092D01*
X387908Y219725D01*
X388228Y220500D01*
D02*
G37*
G36*
X385500D02*
X383772D01*
X384092Y219725D01*
X384725Y219092D01*
X385500Y218772D01*
Y220500D01*
D02*
G37*
G36*
X346228Y219500D02*
X344500D01*
Y217772D01*
X345274Y218092D01*
X345907Y218725D01*
X346228Y219500D01*
D02*
G37*
G36*
X343500D02*
X341772D01*
X342092Y218725D01*
X342725Y218092D01*
X343500Y217772D01*
Y219500D01*
D02*
G37*
G36*
X452783Y214343D02*
X449784D01*
Y212465D01*
X452783D01*
Y214343D01*
D02*
G37*
G36*
X448783D02*
X445784D01*
Y212465D01*
X448783D01*
Y214343D01*
D02*
G37*
G36*
X470500Y214343D02*
X467500D01*
Y212465D01*
X470500D01*
Y214343D01*
D02*
G37*
G36*
X466500D02*
X463500D01*
Y212465D01*
X466500D01*
Y214343D01*
D02*
G37*
G36*
X452783Y211465D02*
X449784D01*
Y209587D01*
X452783D01*
Y211465D01*
D02*
G37*
G36*
X448783D02*
X445784D01*
Y209587D01*
X448783D01*
Y211465D01*
D02*
G37*
G36*
X470500Y211465D02*
X467500D01*
Y209587D01*
X470500D01*
Y211465D01*
D02*
G37*
G36*
X466500D02*
X463500D01*
Y209587D01*
X466500D01*
Y211465D01*
D02*
G37*
G36*
X356500Y211228D02*
Y209500D01*
X358228D01*
X357908Y210275D01*
X357275Y210908D01*
X356500Y211228D01*
D02*
G37*
G36*
X355500D02*
X354726Y210908D01*
X354093Y210275D01*
X353772Y209500D01*
X355500D01*
Y211228D01*
D02*
G37*
G36*
X358228Y208500D02*
X356500D01*
Y206772D01*
X357275Y207092D01*
X357908Y207726D01*
X358228Y208500D01*
D02*
G37*
G36*
X355500D02*
X353772D01*
X354093Y207726D01*
X354726Y207092D01*
X355500Y206772D01*
Y208500D01*
D02*
G37*
G36*
X425500Y206228D02*
Y204500D01*
X427228D01*
X426907Y205275D01*
X426274Y205908D01*
X425500Y206228D01*
D02*
G37*
G36*
X424500D02*
X423726Y205908D01*
X423093Y205275D01*
X422772Y204500D01*
X424500D01*
Y206228D01*
D02*
G37*
G36*
X418500D02*
Y204500D01*
X420228D01*
X419908Y205275D01*
X419275Y205908D01*
X418500Y206228D01*
D02*
G37*
G36*
X417500D02*
X416725Y205908D01*
X416092Y205275D01*
X415772Y204500D01*
X417500D01*
Y206228D01*
D02*
G37*
G36*
X356500Y204228D02*
Y202500D01*
X358228D01*
X357908Y203274D01*
X357275Y203907D01*
X356500Y204228D01*
D02*
G37*
G36*
X355500D02*
X354726Y203907D01*
X354093Y203274D01*
X353772Y202500D01*
X355500D01*
Y204228D01*
D02*
G37*
G36*
X427228Y203500D02*
X425500D01*
Y201772D01*
X426274Y202093D01*
X426907Y202726D01*
X427228Y203500D01*
D02*
G37*
G36*
X424500D02*
X422772D01*
X423093Y202726D01*
X423726Y202093D01*
X424500Y201772D01*
Y203500D01*
D02*
G37*
G36*
X420228D02*
X418500D01*
Y201772D01*
X419275Y202093D01*
X419908Y202726D01*
X420228Y203500D01*
D02*
G37*
G36*
X417500D02*
X415772D01*
X416092Y202726D01*
X416725Y202093D01*
X417500Y201772D01*
Y203500D01*
D02*
G37*
G36*
X323465Y206174D02*
X323268D01*
Y201374D01*
X328068D01*
Y201572D01*
X327707Y202920D01*
X327009Y204128D01*
X326022Y205115D01*
X324813Y205813D01*
X323465Y206174D01*
D02*
G37*
G36*
X322268D02*
X322070D01*
X320722Y205813D01*
X319514Y205115D01*
X318527Y204128D01*
X317829Y202920D01*
X317468Y201572D01*
Y201374D01*
X322268D01*
Y206174D01*
D02*
G37*
G36*
X358228Y201500D02*
X356500D01*
Y199772D01*
X357275Y200093D01*
X357908Y200726D01*
X358228Y201500D01*
D02*
G37*
G36*
X355500D02*
X353772D01*
X354093Y200726D01*
X354726Y200093D01*
X355500Y199772D01*
Y201500D01*
D02*
G37*
G36*
X328068Y200374D02*
X323268D01*
Y195574D01*
X323465D01*
X324813Y195935D01*
X326022Y196633D01*
X327009Y197620D01*
X327707Y198828D01*
X328068Y200176D01*
Y200374D01*
D02*
G37*
G36*
X322268D02*
X317468D01*
Y200176D01*
X317829Y198828D01*
X318527Y197620D01*
X319514Y196633D01*
X320722Y195935D01*
X322070Y195574D01*
X322268D01*
Y200374D01*
D02*
G37*
%LPD*%
G36*
X367756Y331102D02*
X367740Y331254D01*
X367692Y331390D01*
X367611Y331510D01*
X367498Y331614D01*
X367353Y331702D01*
X367176Y331774D01*
X366966Y331830D01*
X366725Y331870D01*
X366451Y331894D01*
X366144Y331902D01*
Y333502D01*
X366451Y333510D01*
X366725Y333534D01*
X366966Y333574D01*
X367176Y333630D01*
X367353Y333702D01*
X367498Y333790D01*
X367611Y333894D01*
X367692Y334014D01*
X367740Y334150D01*
X367756Y334302D01*
Y331102D01*
D02*
G37*
G36*
X344132Y332396D02*
X344157Y332328D01*
X344197Y332268D01*
X344254Y332216D01*
X344327Y332172D01*
X344416Y332136D01*
X344522Y332108D01*
X344644Y332088D01*
X344782Y332076D01*
X344936Y332072D01*
Y331272D01*
X344782Y331268D01*
X344644Y331256D01*
X344522Y331236D01*
X344416Y331208D01*
X344327Y331172D01*
X344254Y331128D01*
X344197Y331076D01*
X344157Y331016D01*
X344132Y330948D01*
X344124Y330872D01*
Y332472D01*
X344132Y332396D01*
D02*
G37*
G36*
X348167Y331425D02*
X348257Y331356D01*
X348351Y331295D01*
X348450Y331243D01*
X348555Y331199D01*
X348665Y331163D01*
X348780Y331135D01*
X348900Y331116D01*
X349025Y331105D01*
X349156Y331102D01*
X347918Y329865D01*
X347916Y329995D01*
X347904Y330120D01*
X347885Y330240D01*
X347857Y330355D01*
X347822Y330465D01*
X347777Y330570D01*
X347725Y330669D01*
X347664Y330764D01*
X347595Y330853D01*
X347518Y330937D01*
X348083Y331503D01*
X348167Y331425D01*
D02*
G37*
G36*
X337588Y330010D02*
X337472Y329994D01*
X337368Y329946D01*
X337277Y329866D01*
X337197Y329754D01*
X337130Y329610D01*
X337075Y329434D01*
X337032Y329226D01*
X337002Y328986D01*
X336983Y328714D01*
X336977Y328410D01*
X335377D01*
X335369Y328716D01*
X335345Y328990D01*
X335305Y329231D01*
X335249Y329440D01*
X335177Y329618D01*
X335089Y329763D01*
X334985Y329876D01*
X334865Y329957D01*
X334729Y330006D01*
X334577Y330022D01*
X337588Y330010D01*
D02*
G37*
G36*
X364525Y329216D02*
X364719Y329103D01*
X364954Y329004D01*
X365231Y328918D01*
X365549Y328845D01*
X365908Y328786D01*
X366750Y328706D01*
X367233Y328687D01*
X367757Y328680D01*
Y327880D01*
X367233Y327873D01*
X365908Y327774D01*
X365549Y327715D01*
X365231Y327642D01*
X364954Y327556D01*
X364719Y327457D01*
X364525Y327344D01*
X364371Y327219D01*
Y329341D01*
X364525Y329216D01*
D02*
G37*
G36*
X411068Y325130D02*
X411156Y324689D01*
X411389Y324340D01*
X411156Y323991D01*
X411068Y323550D01*
X411156Y323109D01*
X411385Y322765D01*
X411156Y322421D01*
X411068Y321980D01*
X411156Y321539D01*
X411405Y321165D01*
X411779Y320916D01*
X412220Y320828D01*
X414160D01*
X414185Y320833D01*
X414785Y320385D01*
X415233Y319785D01*
X415228Y319760D01*
Y317820D01*
X415315Y317379D01*
X415565Y317005D01*
X415939Y316756D01*
X416380Y316668D01*
X416828Y316145D01*
Y314590D01*
X416828Y314590D01*
X416914Y314161D01*
X417157Y313797D01*
X417341Y313613D01*
X417244Y313261D01*
X417117Y312989D01*
X416458Y312716D01*
X416232Y312490D01*
X416183Y312459D01*
X416130Y312410D01*
X416098Y312385D01*
X416064Y312363D01*
X416027Y312343D01*
X415985Y312326D01*
X415937Y312310D01*
X415882Y312297D01*
X415821Y312286D01*
X403795D01*
X402590Y313491D01*
X402527Y313570D01*
X402453Y313679D01*
X402390Y313790D01*
X402337Y313905D01*
X402293Y314023D01*
X402259Y314146D01*
X402235Y314276D01*
X402223Y314376D01*
Y317975D01*
X402228Y318032D01*
X402232Y318050D01*
X403600D01*
Y322950D01*
X398400D01*
Y318050D01*
X399768D01*
X399771Y318032D01*
X399777Y317975D01*
Y314376D01*
X399765Y314276D01*
X399741Y314146D01*
X399707Y314023D01*
X399663Y313905D01*
X399610Y313790D01*
X399547Y313679D01*
X399473Y313570D01*
X399410Y313491D01*
X398205Y312286D01*
X375714D01*
X375714Y324879D01*
X409120D01*
X409120Y324878D01*
X409549Y324964D01*
X409913Y325207D01*
X410285Y325578D01*
X410545D01*
X411068Y325130D01*
D02*
G37*
G36*
X363312Y326780D02*
X363115Y326761D01*
X362898Y326703D01*
X362662Y326606D01*
X362405Y326471D01*
X362129Y326298D01*
X361833Y326086D01*
X361181Y325547D01*
X360826Y325219D01*
X360451Y324854D01*
X359885Y325419D01*
X360251Y325795D01*
X361118Y326801D01*
X361330Y327098D01*
X361503Y327374D01*
X361638Y327630D01*
X361734Y327867D01*
X361792Y328084D01*
X361811Y328281D01*
X363312Y326780D01*
D02*
G37*
G36*
X336985Y325483D02*
X337009Y325209D01*
X337049Y324968D01*
X337105Y324759D01*
X337177Y324581D01*
X337265Y324436D01*
X337369Y324323D01*
X337489Y324242D01*
X337625Y324194D01*
X337777Y324177D01*
X334751Y324189D01*
X334870Y324205D01*
X334977Y324253D01*
X335070Y324333D01*
X335152Y324445D01*
X335221Y324589D01*
X335277Y324765D01*
X335321Y324973D01*
X335352Y325213D01*
X335371Y325485D01*
X335377Y325789D01*
X336977D01*
X336985Y325483D01*
D02*
G37*
G36*
X366383Y325717D02*
X366111Y325435D01*
X365648Y324889D01*
X365457Y324626D01*
X365294Y324369D01*
X365157Y324118D01*
X365047Y323874D01*
X364964Y323636D01*
X364908Y323404D01*
X364879Y323178D01*
X363278Y324779D01*
X363504Y324808D01*
X363736Y324864D01*
X363974Y324947D01*
X364218Y325057D01*
X364469Y325194D01*
X364726Y325357D01*
X364989Y325548D01*
X365259Y325766D01*
X365817Y326283D01*
X366383Y325717D01*
D02*
G37*
G36*
X343851Y323948D02*
X343900Y323812D01*
X343980Y323692D01*
X344093Y323588D01*
X344238Y323500D01*
X344415Y323428D01*
X344423Y323426D01*
X344459Y323446D01*
X344500Y323480D01*
Y323405D01*
X344625Y323372D01*
X344867Y323332D01*
X345141Y323308D01*
X345447Y323300D01*
Y321700D01*
X345141Y321692D01*
X344867Y321668D01*
X344625Y321628D01*
X344500Y321595D01*
Y321520D01*
X344459Y321554D01*
X344423Y321574D01*
X344415Y321572D01*
X344238Y321500D01*
X344093Y321412D01*
X343980Y321308D01*
X343900Y321188D01*
X343851Y321052D01*
X343835Y320900D01*
Y321691D01*
X343811Y321693D01*
X343511Y321700D01*
Y323300D01*
X343667Y323302D01*
X343835Y323313D01*
Y324100D01*
X343851Y323948D01*
D02*
G37*
G36*
X337688Y320797D02*
X337552Y320749D01*
X337432Y320669D01*
X337328Y320557D01*
X337240Y320413D01*
X337168Y320237D01*
X337112Y320029D01*
X337072Y319789D01*
X337048Y319517D01*
X337040Y319213D01*
X335440D01*
X335433Y319517D01*
X335413Y319789D01*
X335378Y320029D01*
X335330Y320237D01*
X335268Y320413D01*
X335192Y320557D01*
X335103Y320669D01*
X334999Y320749D01*
X334882Y320797D01*
X334751Y320813D01*
X337840D01*
X337688Y320797D01*
D02*
G37*
G36*
X364304Y322056D02*
X364192Y321861D01*
X364093Y321626D01*
X364007Y321349D01*
X363934Y321031D01*
X363874Y320672D01*
X363795Y319830D01*
X363775Y319347D01*
X363769Y318823D01*
X362968D01*
X362962Y319347D01*
X362863Y320672D01*
X362803Y321031D01*
X362730Y321349D01*
X362645Y321626D01*
X362545Y321861D01*
X362433Y322056D01*
X362307Y322208D01*
X364430D01*
X364304Y322056D01*
D02*
G37*
G36*
X401905Y318752D02*
X401820Y318722D01*
X401745Y318672D01*
X401680Y318602D01*
X401625Y318512D01*
X401580Y318402D01*
X401545Y318272D01*
X401520Y318122D01*
X401505Y317952D01*
X401500Y317762D01*
X400500D01*
X400495Y317952D01*
X400480Y318122D01*
X400455Y318272D01*
X400420Y318402D01*
X400375Y318512D01*
X400320Y318602D01*
X400255Y318672D01*
X400180Y318722D01*
X400095Y318752D01*
X400000Y318762D01*
X402000D01*
X401905Y318752D01*
D02*
G37*
G36*
X343715Y319316D02*
X343812Y319235D01*
X343910Y319164D01*
X344011Y319102D01*
X344114Y319050D01*
X344219Y319007D01*
X344327Y318974D01*
X344437Y318950D01*
X344548Y318936D01*
X344662Y318931D01*
Y318131D01*
X344548Y318127D01*
X344437Y318112D01*
X344327Y318089D01*
X344219Y318055D01*
X344114Y318013D01*
X344011Y317960D01*
X343910Y317899D01*
X343812Y317827D01*
X343715Y317747D01*
X343621Y317656D01*
Y319406D01*
X343715Y319316D01*
D02*
G37*
G36*
X419520Y313020D02*
X418734Y312627D01*
X419214Y312148D01*
X419136Y312064D01*
X419067Y311975D01*
X419006Y311880D01*
X418954Y311781D01*
X418910Y311676D01*
X418874Y311566D01*
X418846Y311451D01*
X418827Y311331D01*
X418816Y311206D01*
X418813Y311075D01*
X417576Y312313D01*
X417706Y312316D01*
X417831Y312327D01*
X417951Y312346D01*
X418066Y312374D01*
X418176Y312410D01*
X418281Y312454D01*
X418380Y312506D01*
X418475Y312567D01*
X418509Y312594D01*
X418570Y312681D01*
X418626Y312794D01*
X418660Y312907D01*
X418672Y313020D01*
X418660Y313133D01*
X418626Y313246D01*
X418570Y313359D01*
X418491Y313473D01*
X418389Y313586D01*
X418554Y314551D01*
X418662Y314452D01*
X418758Y314380D01*
X418843Y314335D01*
X418916Y314317D01*
X418979Y314327D01*
X419030Y314364D01*
X419069Y314429D01*
X419097Y314520D01*
X419114Y314639D01*
X419120Y314786D01*
X419520Y313020D01*
D02*
G37*
G36*
X337043Y313871D02*
X337108Y312975D01*
X337138Y312831D01*
X337173Y312719D01*
X337213Y312639D01*
X337259Y312591D01*
X337311Y312575D01*
X335170D01*
X335221Y312591D01*
X335267Y312639D01*
X335308Y312719D01*
X335343Y312831D01*
X335372Y312975D01*
X335397Y313151D01*
X335429Y313599D01*
X335440Y314175D01*
X337040D01*
X337043Y313871D01*
D02*
G37*
G36*
X401507Y314361D02*
X401528Y314170D01*
X401564Y313984D01*
X401613Y313805D01*
X401677Y313631D01*
X401755Y313463D01*
X401847Y313302D01*
X401953Y313145D01*
X402073Y312995D01*
X402207Y312851D01*
X401707Y311937D01*
X401566Y312064D01*
X401424Y312163D01*
X401283Y312234D01*
X401141Y312276D01*
X401000Y312290D01*
X400859Y312276D01*
X400717Y312234D01*
X400576Y312163D01*
X400434Y312064D01*
X400293Y311937D01*
X399793Y312851D01*
X399927Y312995D01*
X400047Y313145D01*
X400153Y313302D01*
X400245Y313463D01*
X400323Y313631D01*
X400387Y313805D01*
X400436Y313984D01*
X400472Y314170D01*
X400493Y314361D01*
X400500Y314558D01*
X401500D01*
X401507Y314361D01*
D02*
G37*
G36*
X416670Y310188D02*
X416594Y310259D01*
X416513Y310323D01*
X416426Y310379D01*
X416333Y310428D01*
X416236Y310469D01*
X416133Y310503D01*
X416024Y310529D01*
X415911Y310548D01*
X415792Y310559D01*
X415667Y310563D01*
Y311563D01*
X415792Y311567D01*
X415911Y311578D01*
X416024Y311597D01*
X416133Y311623D01*
X416236Y311657D01*
X416333Y311698D01*
X416426Y311747D01*
X416513Y311803D01*
X416594Y311867D01*
X416670Y311938D01*
Y310188D01*
D02*
G37*
G36*
X327701Y309018D02*
X327685Y309170D01*
X327637Y309306D01*
X327556Y309426D01*
X327443Y309530D01*
X327298Y309618D01*
X327121Y309690D01*
X326911Y309746D01*
X326670Y309786D01*
X326395Y309810D01*
X326089Y309818D01*
Y311418D01*
X326395Y311426D01*
X326670Y311450D01*
X326911Y311490D01*
X327121Y311546D01*
X327298Y311618D01*
X327443Y311706D01*
X327556Y311810D01*
X327637Y311930D01*
X327685Y312066D01*
X327701Y312218D01*
Y309018D01*
D02*
G37*
G36*
X337259Y308647D02*
X337213Y308605D01*
X337173Y308534D01*
X337138Y308434D01*
X337108Y308306D01*
X337084Y308150D01*
X337065Y307965D01*
X337043Y307510D01*
X337040Y307240D01*
X335440D01*
X335437Y307510D01*
X335397Y308150D01*
X335372Y308306D01*
X335343Y308434D01*
X335308Y308534D01*
X335267Y308605D01*
X335221Y308647D01*
X335170Y308662D01*
X337311D01*
X337259Y308647D01*
D02*
G37*
G36*
X329779D02*
X329733Y308605D01*
X329693Y308534D01*
X329657Y308434D01*
X329627Y308306D01*
X329603Y308150D01*
X329584Y307965D01*
X329563Y307510D01*
X329560Y307240D01*
X327960D01*
X327957Y307510D01*
X327917Y308150D01*
X327892Y308306D01*
X327862Y308434D01*
X327827Y308534D01*
X327787Y308605D01*
X327741Y308647D01*
X327689Y308662D01*
X329831D01*
X329779Y308647D01*
D02*
G37*
G36*
X341815Y308778D02*
X341902Y308692D01*
X341993Y308616D01*
X342087Y308550D01*
X342185Y308495D01*
X342286Y308449D01*
X342391Y308414D01*
X342500Y308389D01*
X342612Y308374D01*
X342728Y308369D01*
X342647Y307569D01*
X342535Y307564D01*
X342424Y307551D01*
X342313Y307529D01*
X342204Y307499D01*
X342095Y307459D01*
X341987Y307411D01*
X341880Y307354D01*
X341775Y307289D01*
X341670Y307215D01*
X341565Y307132D01*
X341732Y308874D01*
X341815Y308778D01*
D02*
G37*
G36*
X375000Y310400D02*
X371100Y306500D01*
X365000D01*
X364000Y307500D01*
Y311414D01*
X364162Y311576D01*
X364405Y311939D01*
X364490Y312368D01*
X364490Y312369D01*
Y319362D01*
X364507Y319782D01*
X364582Y320580D01*
X364634Y320893D01*
X364696Y321163D01*
X364764Y321381D01*
X364832Y321543D01*
X364887Y321637D01*
X364955Y321682D01*
X364968Y321696D01*
X365455Y322424D01*
X365626Y323282D01*
X365620Y323312D01*
X365649Y323434D01*
X365710Y323610D01*
X365796Y323801D01*
X365908Y324006D01*
X366048Y324224D01*
X366210Y324448D01*
X366575Y324879D01*
X375000D01*
X375000Y310400D01*
D02*
G37*
G36*
X405507Y304925D02*
X405413Y305015D01*
X405317Y305096D01*
X405218Y305167D01*
X405117Y305229D01*
X405014Y305281D01*
X404909Y305324D01*
X404801Y305357D01*
X404692Y305381D01*
X404580Y305395D01*
X404466Y305400D01*
Y306200D01*
X404580Y306205D01*
X404692Y306219D01*
X404801Y306243D01*
X404909Y306276D01*
X405014Y306319D01*
X405117Y306371D01*
X405218Y306433D01*
X405317Y306504D01*
X405413Y306585D01*
X405507Y306675D01*
Y304925D01*
D02*
G37*
G36*
X320302Y300954D02*
X320329Y300562D01*
X320345Y300457D01*
X320365Y300364D01*
X320388Y300285D01*
X320415Y300217D01*
X320446Y300163D01*
X320480Y300121D01*
X318520D01*
X318554Y300163D01*
X318585Y300217D01*
X318612Y300285D01*
X318635Y300364D01*
X318655Y300457D01*
X318671Y300562D01*
X318693Y300811D01*
X318700Y301111D01*
X320300D01*
X320302Y300954D01*
D02*
G37*
G36*
X363972Y300341D02*
X363863Y300229D01*
X363605Y299933D01*
X363542Y299847D01*
X363490Y299767D01*
X363450Y299694D01*
X363422Y299628D01*
X363405Y299568D01*
X363400Y299514D01*
X362014Y300900D01*
X362068Y300905D01*
X362128Y300922D01*
X362194Y300950D01*
X362267Y300990D01*
X362347Y301042D01*
X362433Y301105D01*
X362624Y301265D01*
X362841Y301472D01*
X363972Y300341D01*
D02*
G37*
G36*
X361000Y298520D02*
X360959Y298554D01*
X360904Y298585D01*
X360837Y298612D01*
X360757Y298635D01*
X360665Y298655D01*
X360559Y298671D01*
X360311Y298693D01*
X360011Y298700D01*
Y300300D01*
X360167Y300302D01*
X360559Y300329D01*
X360665Y300345D01*
X360757Y300365D01*
X360837Y300388D01*
X360904Y300415D01*
X360959Y300446D01*
X361000Y300480D01*
Y298520D01*
D02*
G37*
G36*
X337327Y300948D02*
X337375Y300812D01*
X337455Y300692D01*
X337567Y300588D01*
X337711Y300500D01*
X337887Y300428D01*
X338095Y300372D01*
X338335Y300332D01*
X338607Y300308D01*
X338911Y300300D01*
Y298700D01*
X338607Y298697D01*
X337711Y298631D01*
X337567Y298601D01*
X337455Y298565D01*
X337375Y298524D01*
X337327Y298478D01*
X337311Y298425D01*
Y301100D01*
X337327Y300948D01*
D02*
G37*
G36*
X379105Y298720D02*
X379119Y298608D01*
X379143Y298499D01*
X379176Y298391D01*
X379219Y298286D01*
X379271Y298183D01*
X379333Y298082D01*
X379404Y297983D01*
X379485Y297887D01*
X379575Y297793D01*
X377825D01*
X377915Y297887D01*
X377996Y297983D01*
X378067Y298082D01*
X378129Y298183D01*
X378181Y298286D01*
X378224Y298391D01*
X378257Y298499D01*
X378281Y298608D01*
X378295Y298720D01*
X378300Y298834D01*
X379100D01*
X379105Y298720D01*
D02*
G37*
G36*
X353715Y289930D02*
X353639Y289848D01*
X353569Y289761D01*
X353506Y289668D01*
X353449Y289569D01*
X353399Y289465D01*
X353355Y289354D01*
X353317Y289239D01*
X353286Y289118D01*
X353261Y288990D01*
X353242Y288858D01*
X352167Y290239D01*
X352292Y290227D01*
X352414Y290225D01*
X352530Y290232D01*
X352643Y290251D01*
X352750Y290279D01*
X352854Y290317D01*
X352953Y290365D01*
X353047Y290424D01*
X353138Y290492D01*
X353223Y290570D01*
X353715Y289930D01*
D02*
G37*
G36*
X375787Y291785D02*
X375883Y291704D01*
X375982Y291633D01*
X376083Y291571D01*
X376186Y291519D01*
X376291Y291476D01*
X376399Y291443D01*
X376508Y291419D01*
X376620Y291405D01*
X376734Y291400D01*
Y290600D01*
X376620Y290595D01*
X376508Y290581D01*
X376399Y290557D01*
X376291Y290524D01*
X376186Y290481D01*
X376083Y290429D01*
X375982Y290367D01*
X375883Y290296D01*
X375787Y290215D01*
X375693Y290125D01*
Y291875D01*
X375787Y291785D01*
D02*
G37*
G36*
X328336Y247439D02*
X329343Y246572D01*
X329639Y246360D01*
X329915Y246187D01*
X330172Y246052D01*
X330409Y245956D01*
X330625Y245898D01*
X330822Y245879D01*
X329322Y244377D01*
X329302Y244575D01*
X329244Y244792D01*
X329148Y245028D01*
X329013Y245285D01*
X328840Y245561D01*
X328628Y245857D01*
X328088Y246509D01*
X327761Y246864D01*
X327395Y247239D01*
X327961Y247805D01*
X328336Y247439D01*
D02*
G37*
G36*
X332019Y245333D02*
X332218Y245217D01*
X332453Y245114D01*
X332724Y245025D01*
X333032Y244950D01*
X333377Y244888D01*
X333645Y244861D01*
X333736Y244897D01*
X333839Y244950D01*
X333940Y245011D01*
X334038Y245082D01*
X334135Y245163D01*
X334229Y245253D01*
Y244804D01*
X334630Y244785D01*
X335121Y244778D01*
Y243979D01*
X334630Y243972D01*
X334229Y243939D01*
Y243503D01*
X334135Y243594D01*
X334038Y243674D01*
X333940Y243746D01*
X333839Y243808D01*
X333736Y243860D01*
X333657Y243892D01*
X333377Y243869D01*
X333032Y243807D01*
X332724Y243732D01*
X332453Y243643D01*
X332218Y243540D01*
X332019Y243424D01*
X331857Y243293D01*
Y245464D01*
X332019Y245333D01*
D02*
G37*
G36*
X334229Y239566D02*
X334135Y239657D01*
X334038Y239738D01*
X333940Y239809D01*
X333839Y239871D01*
X333736Y239923D01*
X333630Y239966D01*
X333523Y239999D01*
X333413Y240022D01*
X333301Y240037D01*
X333187Y240041D01*
Y240842D01*
X333301Y240846D01*
X333413Y240861D01*
X333523Y240884D01*
X333630Y240917D01*
X333736Y240960D01*
X333839Y241013D01*
X333940Y241074D01*
X334038Y241145D01*
X334135Y241226D01*
X334229Y241317D01*
Y239566D01*
D02*
G37*
%LPC*%
G36*
X385268Y324059D02*
X382012D01*
Y321000D01*
X385268D01*
Y324059D01*
D02*
G37*
G36*
X381012D02*
X377756D01*
Y321000D01*
X381012D01*
Y324059D01*
D02*
G37*
G36*
X397000Y323250D02*
X394600D01*
Y321000D01*
X397000D01*
Y323250D01*
D02*
G37*
G36*
X393600D02*
X391200D01*
Y321000D01*
X393600D01*
Y323250D01*
D02*
G37*
G36*
X397000Y320000D02*
X394600D01*
Y317750D01*
X397000D01*
Y320000D01*
D02*
G37*
G36*
X393600D02*
X391200D01*
Y317750D01*
X393600D01*
Y320000D01*
D02*
G37*
G36*
X385268Y320000D02*
X382012D01*
Y316941D01*
X385268D01*
Y320000D01*
D02*
G37*
G36*
X381012D02*
X377756D01*
Y316941D01*
X381012D01*
Y320000D01*
D02*
G37*
G36*
X410500Y318228D02*
Y316500D01*
X412228D01*
X411907Y317274D01*
X411274Y317908D01*
X410500Y318228D01*
D02*
G37*
G36*
X409500D02*
X408726Y317908D01*
X408092Y317274D01*
X407772Y316500D01*
X409500D01*
Y318228D01*
D02*
G37*
G36*
X412228Y315500D02*
X410500D01*
Y313772D01*
X411274Y314092D01*
X411907Y314725D01*
X412228Y315500D01*
D02*
G37*
G36*
X409500D02*
X407772D01*
X408092Y314725D01*
X408726Y314092D01*
X409500Y313772D01*
Y315500D01*
D02*
G37*
G36*
X374244Y324059D02*
X370988D01*
Y321000D01*
X374244D01*
Y324059D01*
D02*
G37*
G36*
X369988D02*
X366732D01*
Y321000D01*
X369988D01*
Y324059D01*
D02*
G37*
G36*
X374244Y320000D02*
X370988D01*
Y316941D01*
X374244D01*
Y320000D01*
D02*
G37*
G36*
X369988D02*
X366732D01*
Y316941D01*
X369988D01*
Y320000D01*
D02*
G37*
%LPD*%
G36*
X445487Y308750D02*
X445357Y308747D01*
X445232Y308736D01*
X445112Y308717D01*
X444997Y308689D01*
X444887Y308653D01*
X444782Y308609D01*
X444683Y308557D01*
X444588Y308496D01*
X444499Y308427D01*
X444415Y308349D01*
X443849Y308915D01*
X443927Y308999D01*
X443996Y309088D01*
X444057Y309183D01*
X444109Y309282D01*
X444153Y309387D01*
X444189Y309497D01*
X444217Y309612D01*
X444236Y309732D01*
X444247Y309857D01*
X444250Y309987D01*
X445487Y308750D01*
D02*
G37*
G36*
X396768Y284972D02*
X396779Y284847D01*
X396798Y284727D01*
X396826Y284612D01*
X396862Y284502D01*
X396906Y284397D01*
X396959Y284298D01*
X397020Y284204D01*
X397089Y284114D01*
X397166Y284030D01*
X396600Y283465D01*
X396516Y283542D01*
X396427Y283611D01*
X396333Y283672D01*
X396233Y283724D01*
X396128Y283769D01*
X396019Y283804D01*
X395904Y283832D01*
X395783Y283851D01*
X395658Y283862D01*
X395528Y283865D01*
X396765Y285103D01*
X396768Y284972D01*
D02*
G37*
G36*
X382658Y279675D02*
X382757Y279596D01*
X382859Y279527D01*
X382962Y279467D01*
X383067Y279416D01*
X383173Y279374D01*
X383281Y279342D01*
X383391Y279318D01*
X383503Y279305D01*
X383616Y279300D01*
X383645Y278500D01*
X383530Y278495D01*
X383418Y278481D01*
X383309Y278456D01*
X383202Y278422D01*
X383098Y278378D01*
X382997Y278325D01*
X382898Y278262D01*
X382803Y278189D01*
X382709Y278106D01*
X382619Y278013D01*
X382560Y279763D01*
X382658Y279675D01*
D02*
G37*
G36*
X332587Y278628D02*
X332683Y278547D01*
X332782Y278476D01*
X332883Y278414D01*
X332986Y278362D01*
X333091Y278319D01*
X333199Y278286D01*
X333308Y278262D01*
X333420Y278248D01*
X333534Y278243D01*
Y277443D01*
X333420Y277438D01*
X333308Y277424D01*
X333199Y277400D01*
X333091Y277367D01*
X332986Y277324D01*
X332883Y277272D01*
X332782Y277210D01*
X332683Y277139D01*
X332587Y277058D01*
X332493Y276968D01*
Y278718D01*
X332587Y278628D01*
D02*
G37*
G36*
Y274691D02*
X332683Y274610D01*
X332782Y274539D01*
X332883Y274477D01*
X332986Y274425D01*
X333091Y274382D01*
X333199Y274349D01*
X333308Y274325D01*
X333420Y274311D01*
X333534Y274306D01*
Y273506D01*
X333420Y273501D01*
X333308Y273487D01*
X333199Y273463D01*
X333091Y273430D01*
X332986Y273387D01*
X332883Y273335D01*
X332782Y273273D01*
X332683Y273202D01*
X332587Y273121D01*
X332493Y273031D01*
Y274781D01*
X332587Y274691D01*
D02*
G37*
G36*
Y270754D02*
X332683Y270673D01*
X332782Y270602D01*
X332883Y270540D01*
X332986Y270488D01*
X333091Y270445D01*
X333199Y270412D01*
X333308Y270388D01*
X333420Y270374D01*
X333534Y270369D01*
Y269569D01*
X333420Y269564D01*
X333308Y269550D01*
X333199Y269526D01*
X333091Y269493D01*
X332986Y269450D01*
X332883Y269398D01*
X332782Y269336D01*
X332683Y269265D01*
X332587Y269184D01*
X332493Y269094D01*
Y270844D01*
X332587Y270754D01*
D02*
G37*
G36*
X413107Y266194D02*
X413013Y266284D01*
X412917Y266365D01*
X412818Y266436D01*
X412717Y266498D01*
X412614Y266550D01*
X412509Y266593D01*
X412401Y266626D01*
X412292Y266650D01*
X412180Y266664D01*
X412066Y266669D01*
Y267469D01*
X412180Y267473D01*
X412292Y267488D01*
X412401Y267511D01*
X412509Y267545D01*
X412614Y267587D01*
X412717Y267640D01*
X412818Y267701D01*
X412917Y267773D01*
X413013Y267853D01*
X413107Y267944D01*
Y266194D01*
D02*
G37*
G36*
X332587Y266817D02*
X332683Y266736D01*
X332782Y266665D01*
X332883Y266603D01*
X332986Y266551D01*
X333091Y266508D01*
X333199Y266475D01*
X333308Y266451D01*
X333420Y266437D01*
X333534Y266432D01*
Y265632D01*
X333420Y265627D01*
X333308Y265613D01*
X333199Y265589D01*
X333091Y265556D01*
X332986Y265513D01*
X332883Y265461D01*
X332782Y265399D01*
X332683Y265328D01*
X332587Y265247D01*
X332493Y265157D01*
Y266907D01*
X332587Y266817D01*
D02*
G37*
G36*
X405999Y266573D02*
X406088Y266504D01*
X406183Y266443D01*
X406282Y266391D01*
X406387Y266347D01*
X406497Y266311D01*
X406612Y266283D01*
X406732Y266264D01*
X406857Y266253D01*
X406987Y266250D01*
X405750Y265013D01*
X405747Y265143D01*
X405736Y265268D01*
X405717Y265388D01*
X405689Y265503D01*
X405653Y265613D01*
X405609Y265718D01*
X405556Y265817D01*
X405496Y265912D01*
X405427Y266001D01*
X405349Y266085D01*
X405915Y266651D01*
X405999Y266573D01*
D02*
G37*
G36*
X332587Y262880D02*
X332683Y262799D01*
X332782Y262728D01*
X332883Y262666D01*
X332986Y262614D01*
X333091Y262571D01*
X333199Y262538D01*
X333308Y262514D01*
X333420Y262500D01*
X333534Y262495D01*
Y261695D01*
X333420Y261690D01*
X333308Y261676D01*
X333199Y261652D01*
X333091Y261619D01*
X332986Y261576D01*
X332883Y261524D01*
X332782Y261462D01*
X332683Y261391D01*
X332587Y261310D01*
X332493Y261220D01*
Y262970D01*
X332587Y262880D01*
D02*
G37*
G36*
X402099Y262573D02*
X402188Y262504D01*
X402283Y262443D01*
X402382Y262391D01*
X402487Y262347D01*
X402597Y262311D01*
X402712Y262283D01*
X402832Y262264D01*
X402957Y262253D01*
X403088Y262250D01*
X401850Y261013D01*
X401847Y261143D01*
X401836Y261268D01*
X401817Y261388D01*
X401789Y261503D01*
X401753Y261613D01*
X401709Y261718D01*
X401656Y261817D01*
X401596Y261912D01*
X401527Y262001D01*
X401449Y262085D01*
X402015Y262651D01*
X402099Y262573D01*
D02*
G37*
G36*
X405999Y262373D02*
X406088Y262304D01*
X406183Y262244D01*
X406282Y262191D01*
X406387Y262147D01*
X406497Y262111D01*
X406612Y262083D01*
X406732Y262064D01*
X406857Y262053D01*
X406987Y262050D01*
X405750Y260812D01*
X405747Y260943D01*
X405736Y261068D01*
X405717Y261188D01*
X405689Y261303D01*
X405653Y261413D01*
X405609Y261518D01*
X405556Y261617D01*
X405496Y261712D01*
X405427Y261801D01*
X405349Y261885D01*
X405915Y262451D01*
X405999Y262373D01*
D02*
G37*
G36*
X396980Y257856D02*
X396878Y257941D01*
X396774Y258016D01*
X396669Y258083D01*
X396563Y258140D01*
X396456Y258189D01*
X396348Y258229D01*
X396239Y258260D01*
X396128Y258282D01*
X396017Y258296D01*
X395904Y258300D01*
X395836Y259100D01*
X395952Y259105D01*
X396064Y259120D01*
X396173Y259145D01*
X396278Y259180D01*
X396380Y259225D01*
X396479Y259280D01*
X396574Y259345D01*
X396666Y259420D01*
X396755Y259506D01*
X396840Y259601D01*
X396980Y257856D01*
D02*
G37*
G36*
X332523Y259459D02*
X332626Y259384D01*
X332731Y259317D01*
X332837Y259260D01*
X332944Y259211D01*
X333052Y259171D01*
X333161Y259140D01*
X333272Y259118D01*
X333383Y259104D01*
X333496Y259100D01*
X333563Y258300D01*
X333448Y258295D01*
X333336Y258280D01*
X333227Y258255D01*
X333122Y258220D01*
X333020Y258175D01*
X332921Y258120D01*
X332826Y258055D01*
X332734Y257979D01*
X332645Y257894D01*
X332560Y257799D01*
X332420Y259544D01*
X332523Y259459D01*
D02*
G37*
G36*
X402299Y258473D02*
X402388Y258404D01*
X402483Y258344D01*
X402582Y258291D01*
X402687Y258247D01*
X402797Y258211D01*
X402912Y258183D01*
X403032Y258164D01*
X403157Y258153D01*
X403288Y258150D01*
X402050Y256912D01*
X402047Y257043D01*
X402036Y257168D01*
X402017Y257288D01*
X401989Y257403D01*
X401953Y257513D01*
X401909Y257618D01*
X401857Y257717D01*
X401796Y257812D01*
X401727Y257901D01*
X401649Y257985D01*
X402215Y258551D01*
X402299Y258473D01*
D02*
G37*
G36*
X396487Y255285D02*
X396583Y255204D01*
X396682Y255133D01*
X396783Y255071D01*
X396886Y255019D01*
X396991Y254976D01*
X397099Y254943D01*
X397208Y254919D01*
X397320Y254905D01*
X397434Y254900D01*
Y254100D01*
X397320Y254095D01*
X397208Y254081D01*
X397099Y254057D01*
X396991Y254024D01*
X396886Y253981D01*
X396783Y253929D01*
X396682Y253867D01*
X396583Y253796D01*
X396487Y253715D01*
X396393Y253625D01*
Y255375D01*
X396487Y255285D01*
D02*
G37*
G36*
X409305Y238320D02*
X409319Y238208D01*
X409343Y238099D01*
X409376Y237991D01*
X409419Y237886D01*
X409471Y237783D01*
X409533Y237682D01*
X409604Y237583D01*
X409685Y237487D01*
X409775Y237393D01*
X408025D01*
X408115Y237487D01*
X408196Y237583D01*
X408267Y237682D01*
X408329Y237783D01*
X408381Y237886D01*
X408424Y237991D01*
X408457Y238099D01*
X408481Y238208D01*
X408495Y238320D01*
X408500Y238434D01*
X409300D01*
X409305Y238320D01*
D02*
G37*
G36*
X446807Y202700D02*
X446799Y202776D01*
X446775Y202844D01*
X446734Y202904D01*
X446677Y202956D01*
X446604Y203000D01*
X446515Y203036D01*
X446410Y203064D01*
X446288Y203084D01*
X446150Y203096D01*
X445995Y203100D01*
Y203900D01*
X446150Y203904D01*
X446288Y203916D01*
X446410Y203936D01*
X446515Y203964D01*
X446604Y204000D01*
X446677Y204044D01*
X446734Y204096D01*
X446775Y204156D01*
X446799Y204224D01*
X446807Y204300D01*
Y202700D01*
D02*
G37*
G36*
X464524Y202700D02*
X464516Y202776D01*
X464492Y202844D01*
X464451Y202904D01*
X464394Y202956D01*
X464321Y203000D01*
X464232Y203036D01*
X464126Y203064D01*
X464004Y203084D01*
X463866Y203096D01*
X463712Y203100D01*
Y203900D01*
X463866Y203904D01*
X464004Y203916D01*
X464126Y203936D01*
X464232Y203964D01*
X464321Y204000D01*
X464394Y204044D01*
X464451Y204096D01*
X464492Y204156D01*
X464516Y204224D01*
X464524Y204300D01*
Y202700D01*
D02*
G37*
G36*
X451779Y204224D02*
X451803Y204156D01*
X451843Y204096D01*
X451899Y204044D01*
X451971Y204000D01*
X452059Y203964D01*
X452163Y203936D01*
X452283Y203916D01*
X452419Y203904D01*
X452571Y203900D01*
Y203100D01*
X452419Y203096D01*
X452283Y203084D01*
X452163Y203064D01*
X452059Y203036D01*
X451971Y203000D01*
X451899Y202956D01*
X451843Y202904D01*
X451803Y202844D01*
X451779Y202776D01*
X451771Y202700D01*
Y204300D01*
X451779Y204224D01*
D02*
G37*
G36*
X467724Y202138D02*
X467656Y202114D01*
X467596Y202073D01*
X467544Y202016D01*
X467500Y201943D01*
X467464Y201854D01*
X467436Y201748D01*
X467416Y201626D01*
X467404Y201488D01*
X467400Y201334D01*
X466600D01*
X466596Y201488D01*
X466584Y201626D01*
X466564Y201748D01*
X466536Y201854D01*
X466500Y201943D01*
X466456Y202016D01*
X466404Y202073D01*
X466344Y202114D01*
X466276Y202138D01*
X466200Y202146D01*
X467800D01*
X467724Y202138D01*
D02*
G37*
G36*
X465651Y198885D02*
X465573Y198801D01*
X465504Y198712D01*
X465444Y198617D01*
X465391Y198518D01*
X465347Y198413D01*
X465311Y198303D01*
X465283Y198188D01*
X465264Y198068D01*
X465253Y197943D01*
X465250Y197812D01*
X464012Y199050D01*
X464143Y199053D01*
X464268Y199064D01*
X464388Y199083D01*
X464503Y199111D01*
X464613Y199147D01*
X464718Y199191D01*
X464817Y199243D01*
X464912Y199304D01*
X465001Y199373D01*
X465085Y199451D01*
X465651Y198885D01*
D02*
G37*
G36*
X416787Y288685D02*
X416883Y288604D01*
X416982Y288533D01*
X417083Y288471D01*
X417186Y288419D01*
X417291Y288376D01*
X417399Y288343D01*
X417508Y288319D01*
X417620Y288305D01*
X417734Y288300D01*
Y287500D01*
X417620Y287495D01*
X417508Y287481D01*
X417399Y287457D01*
X417291Y287424D01*
X417186Y287381D01*
X417083Y287329D01*
X416982Y287267D01*
X416883Y287196D01*
X416787Y287115D01*
X416693Y287025D01*
Y288775D01*
X416787Y288685D01*
D02*
G37*
G36*
X414987Y285681D02*
X415083Y285600D01*
X415182Y285529D01*
X415283Y285467D01*
X415386Y285415D01*
X415491Y285372D01*
X415599Y285339D01*
X415708Y285315D01*
X415820Y285301D01*
X415934Y285296D01*
Y284496D01*
X415820Y284491D01*
X415708Y284477D01*
X415599Y284453D01*
X415491Y284420D01*
X415386Y284377D01*
X415283Y284325D01*
X415182Y284263D01*
X415083Y284192D01*
X414987Y284111D01*
X414893Y284021D01*
Y285771D01*
X414987Y285681D01*
D02*
G37*
G36*
X411787Y283231D02*
X411883Y283150D01*
X411982Y283079D01*
X412083Y283017D01*
X412186Y282965D01*
X412291Y282922D01*
X412399Y282889D01*
X412508Y282865D01*
X412620Y282851D01*
X412734Y282846D01*
Y282046D01*
X412620Y282041D01*
X412508Y282027D01*
X412399Y282003D01*
X412291Y281970D01*
X412186Y281927D01*
X412083Y281875D01*
X411982Y281813D01*
X411883Y281742D01*
X411787Y281661D01*
X411693Y281571D01*
Y283321D01*
X411787Y283231D01*
D02*
G37*
G36*
X414987Y280585D02*
X415083Y280504D01*
X415182Y280433D01*
X415283Y280371D01*
X415386Y280319D01*
X415491Y280276D01*
X415599Y280243D01*
X415708Y280219D01*
X415820Y280205D01*
X415934Y280200D01*
Y279400D01*
X415820Y279395D01*
X415708Y279381D01*
X415599Y279357D01*
X415491Y279324D01*
X415386Y279281D01*
X415283Y279229D01*
X415182Y279167D01*
X415083Y279096D01*
X414987Y279015D01*
X414893Y278925D01*
Y280675D01*
X414987Y280585D01*
D02*
G37*
G36*
X411505Y277767D02*
X411601Y277686D01*
X411700Y277615D01*
X411800Y277553D01*
X411903Y277501D01*
X412009Y277458D01*
X412116Y277425D01*
X412226Y277401D01*
X412338Y277387D01*
X412452Y277382D01*
Y276582D01*
X412338Y276578D01*
X412226Y276563D01*
X412116Y276540D01*
X412009Y276506D01*
X411903Y276464D01*
X411800Y276411D01*
X411700Y276350D01*
X411601Y276278D01*
X411505Y276198D01*
X411410Y276107D01*
Y277857D01*
X411505Y277767D01*
D02*
G37*
G36*
X414987Y275185D02*
X415083Y275104D01*
X415182Y275033D01*
X415283Y274971D01*
X415386Y274919D01*
X415491Y274876D01*
X415599Y274843D01*
X415708Y274819D01*
X415820Y274805D01*
X415934Y274800D01*
Y274000D01*
X415820Y273995D01*
X415708Y273981D01*
X415599Y273957D01*
X415491Y273924D01*
X415386Y273881D01*
X415283Y273829D01*
X415182Y273767D01*
X415083Y273696D01*
X414987Y273615D01*
X414893Y273525D01*
Y275275D01*
X414987Y275185D01*
D02*
G37*
G36*
X455307Y273030D02*
X455213Y273120D01*
X455117Y273201D01*
X455018Y273272D01*
X454917Y273334D01*
X454814Y273386D01*
X454709Y273429D01*
X454601Y273462D01*
X454492Y273486D01*
X454380Y273500D01*
X454266Y273505D01*
Y274305D01*
X454380Y274310D01*
X454492Y274324D01*
X454601Y274348D01*
X454709Y274381D01*
X454814Y274424D01*
X454917Y274476D01*
X455018Y274538D01*
X455117Y274609D01*
X455213Y274690D01*
X455307Y274780D01*
Y273030D01*
D02*
G37*
G36*
Y269093D02*
X455213Y269183D01*
X455117Y269264D01*
X455018Y269335D01*
X454917Y269397D01*
X454814Y269449D01*
X454709Y269492D01*
X454601Y269525D01*
X454492Y269549D01*
X454380Y269563D01*
X454266Y269568D01*
Y270368D01*
X454380Y270373D01*
X454492Y270387D01*
X454601Y270411D01*
X454709Y270444D01*
X454814Y270487D01*
X454917Y270539D01*
X455018Y270601D01*
X455117Y270672D01*
X455213Y270753D01*
X455307Y270843D01*
Y269093D01*
D02*
G37*
G36*
Y257282D02*
X455213Y257372D01*
X455117Y257453D01*
X455018Y257524D01*
X454917Y257586D01*
X454814Y257638D01*
X454709Y257681D01*
X454601Y257714D01*
X454492Y257738D01*
X454380Y257752D01*
X454266Y257757D01*
Y258557D01*
X454380Y258562D01*
X454492Y258576D01*
X454601Y258600D01*
X454709Y258633D01*
X454814Y258676D01*
X454917Y258728D01*
X455018Y258790D01*
X455117Y258861D01*
X455213Y258942D01*
X455307Y259032D01*
Y257282D01*
D02*
G37*
G36*
X455438Y253476D02*
X455344Y253566D01*
X455248Y253647D01*
X455149Y253718D01*
X455048Y253780D01*
X454945Y253832D01*
X454840Y253875D01*
X454732Y253908D01*
X454623Y253932D01*
X454511Y253946D01*
X454397Y253951D01*
Y254751D01*
X454511Y254756D01*
X454623Y254770D01*
X454732Y254794D01*
X454840Y254827D01*
X454945Y254870D01*
X455048Y254922D01*
X455149Y254984D01*
X455248Y255055D01*
X455344Y255136D01*
X455438Y255226D01*
Y253476D01*
D02*
G37*
G36*
X455307Y249408D02*
X455213Y249498D01*
X455117Y249579D01*
X455018Y249650D01*
X454917Y249712D01*
X454814Y249764D01*
X454709Y249807D01*
X454601Y249840D01*
X454492Y249864D01*
X454380Y249878D01*
X454266Y249883D01*
Y250683D01*
X454380Y250688D01*
X454492Y250702D01*
X454601Y250726D01*
X454709Y250759D01*
X454814Y250802D01*
X454917Y250854D01*
X455018Y250916D01*
X455117Y250987D01*
X455213Y251068D01*
X455307Y251158D01*
Y249408D01*
D02*
G37*
G36*
Y245471D02*
X455213Y245561D01*
X455117Y245642D01*
X455018Y245713D01*
X454917Y245775D01*
X454814Y245827D01*
X454709Y245870D01*
X454601Y245903D01*
X454492Y245927D01*
X454380Y245941D01*
X454266Y245946D01*
Y246746D01*
X454380Y246751D01*
X454492Y246765D01*
X454601Y246789D01*
X454709Y246822D01*
X454814Y246865D01*
X454917Y246917D01*
X455018Y246979D01*
X455117Y247050D01*
X455213Y247131D01*
X455307Y247221D01*
Y245471D01*
D02*
G37*
D11*
X452226Y330907D02*
X456300Y326832D01*
X448152Y334981D02*
X452226Y330907D01*
X452226D01*
X446226D02*
X452226D01*
X452226D02*
Y336907D01*
X460374Y322758D02*
X466374D01*
X460374Y316758D02*
Y322758D01*
X452226Y316758D02*
Y322758D01*
X446226D02*
X452226D01*
X461300Y331832D02*
Y337832D01*
Y331832D02*
X467300D01*
X456300Y326832D02*
X468300D01*
X456300D02*
X464448Y334981D01*
X456300Y326832D02*
X464448Y318684D01*
X448152D02*
X456300Y326832D01*
X444300D02*
X456300D01*
Y338832D01*
Y314832D02*
Y326832D01*
X368500Y311063D02*
X398712D01*
X401000Y313351D01*
X403288Y311063D02*
X417563D01*
X401000Y313351D02*
X403288Y311063D01*
X401000Y313351D02*
Y320500D01*
D16*
X330821Y244378D02*
X335121D01*
X325000Y250200D02*
X330821Y244378D01*
X325000Y250200D02*
Y278000D01*
X409831Y267069D02*
X414000D01*
X376106Y276000D02*
X400900D01*
X409831Y267069D01*
X358969Y307969D02*
X363369Y312368D01*
Y323269D01*
X363312Y328280D02*
X413190D01*
X359032Y324000D02*
X363312Y328280D01*
X366100Y326000D02*
X409120D01*
X409800Y326680D01*
X363382Y323282D02*
X366100Y326000D01*
X409800Y326700D02*
X413190D01*
X408900Y236500D02*
Y246500D01*
X395500Y254500D02*
X400900D01*
X408900Y246500D01*
X398094Y273906D02*
X407000Y265000D01*
X331600Y273906D02*
X398094D01*
X395515Y285115D02*
X410531Y270100D01*
X418300D02*
X441000Y247400D01*
X410531Y270100D02*
X418300D01*
X410800Y282446D02*
X427554D01*
X451843Y258157D01*
X414000Y284896D02*
X428304D01*
X415800Y287900D02*
X428200D01*
X442195Y273905D01*
X428304Y284896D02*
X443232Y269968D01*
X451843Y258157D02*
X456200D01*
X414000Y279800D02*
X427200D01*
X452649Y254351D01*
X426018Y276982D02*
X452717Y250283D01*
X410518Y276982D02*
X426018D01*
X452717Y250283D02*
X456200D01*
X452654Y246346D02*
X456200D01*
X424600Y274400D02*
X452654Y246346D01*
X414000Y274400D02*
X424600D01*
X388100Y308500D02*
X419000D01*
X378700Y296900D02*
Y299100D01*
X388100Y308500D01*
X411800Y303300D02*
X415100Y306600D01*
X390900Y303300D02*
X411800D01*
X378600Y291000D02*
X390900Y303300D01*
X391100Y305800D02*
X406400D01*
X379200Y293900D02*
X391100Y305800D01*
X415100Y306600D02*
X420100D01*
X374800Y291000D02*
X378600D01*
X381739Y278900D02*
X383900D01*
X381697Y278858D02*
X381739Y278900D01*
X383900D02*
X397300Y292300D01*
X374263Y277843D02*
X376106Y276000D01*
X331600Y277843D02*
X374263D01*
X352219Y289000D02*
X357119Y293900D01*
X379200D01*
X352000Y289000D02*
X352219D01*
X331600Y262095D02*
X398105D01*
X403300Y256900D01*
X331600Y258600D02*
X331700Y258700D01*
X397700D02*
X397800Y258800D01*
X331700Y258700D02*
X397700D01*
X397300Y292300D02*
X427800D01*
X397831Y269969D02*
X407000Y260800D01*
X331600Y269969D02*
X397831D01*
X403100Y261000D02*
X403300Y260800D01*
X398068Y266032D02*
X403100Y261000D01*
X331600Y266032D02*
X398068D01*
X420100Y306600D02*
X424250Y310750D01*
Y318790D01*
X419000Y308500D02*
X422670Y312170D01*
Y318790D01*
X417950Y314590D02*
X419520Y313020D01*
X417950Y314590D02*
Y318790D01*
X419520Y313020D02*
Y318790D01*
X417563Y311063D02*
X419520Y313020D01*
X342573Y331672D02*
X347349D01*
X349168Y329852D01*
X328458Y240441D02*
X335121D01*
X323000Y245900D02*
X328458Y240441D01*
X323000Y245900D02*
Y279000D01*
X340878Y307969D02*
X358969D01*
X429010Y326700D02*
X434800D01*
X436000Y325500D01*
X429010Y328280D02*
X436220D01*
X438000Y326500D01*
X351000Y324000D02*
X359032D01*
X345531Y318531D02*
X351000Y324000D01*
X438000Y311500D02*
Y326500D01*
X436000Y312500D02*
Y325500D01*
X464000Y197800D02*
X467000Y200800D01*
Y203500D01*
X329000Y285000D02*
X379000D01*
X323000Y279000D02*
X329000Y285000D01*
X330000Y283000D02*
X379500D01*
X325000Y278000D02*
X330000Y283000D01*
X379500D02*
X393000Y296500D01*
X427800Y292300D02*
X445500Y310000D01*
X441000Y207500D02*
Y247400D01*
X442195Y273905D02*
X456200D01*
X443232Y269968D02*
X456200D01*
X423000Y296500D02*
X438000Y311500D01*
X422000Y298500D02*
X436000Y312500D01*
X379000Y285000D02*
X392500Y298500D01*
X393000Y296500D02*
X423000D01*
X392500Y298500D02*
X422000D01*
X317200Y210819D02*
X319000Y209019D01*
Y209000D02*
Y209019D01*
X317200Y210819D02*
Y252700D01*
X342728Y318531D02*
X345531D01*
X445000Y203500D02*
X449283D01*
X441000Y207500D02*
X445000Y203500D01*
X449284Y203500D02*
X467000D01*
X449283Y203500D02*
X449284Y203500D01*
X452649Y254351D02*
X456331D01*
D17*
X425820Y334610D02*
D03*
X425820Y318790D02*
D03*
X424250D02*
D03*
Y334610D02*
D03*
X422670Y318790D02*
D03*
Y334610D02*
D03*
X421100Y318790D02*
D03*
X421100Y334610D02*
D03*
X419520Y318790D02*
D03*
Y334610D02*
D03*
X417950Y318790D02*
D03*
Y334610D02*
D03*
X416380Y318790D02*
D03*
Y334610D02*
D03*
D18*
X429010Y321980D02*
D03*
Y323550D02*
D03*
Y325130D02*
D03*
Y326700D02*
D03*
Y328280D02*
D03*
Y329850D02*
D03*
Y331420D02*
D03*
X413190D02*
D03*
X413190Y329850D02*
D03*
X413190Y328280D02*
D03*
Y326700D02*
D03*
Y325130D02*
D03*
X413190Y323550D02*
D03*
X413190Y321980D02*
D03*
D19*
X421100Y326700D02*
D03*
D20*
X370488Y320500D02*
D03*
X381512D02*
D03*
X370488Y332702D02*
D03*
X381512D02*
D03*
D21*
X336025Y331672D02*
D03*
X342573D02*
D03*
D22*
X401000Y320500D02*
D03*
X394100D02*
D03*
D23*
X336240Y310618D02*
D03*
X332500D02*
D03*
X328760D02*
D03*
Y300382D02*
D03*
X336240D02*
D03*
D24*
X336329Y322501D02*
D03*
X342269D02*
D03*
D25*
X449283Y203500D02*
D03*
X467000Y203500D02*
D03*
X467000Y211965D02*
D03*
X449284Y211965D02*
D03*
D26*
X330821Y244378D02*
X330849Y244406D01*
X363369Y323269D02*
X363382Y323282D01*
X363312Y328280D02*
X363339Y328308D01*
D27*
X336240Y299583D02*
Y300382D01*
X336323Y299500D02*
X362000D01*
X336240Y299583D02*
X336323Y299500D01*
X336025Y331672D02*
X336177Y331520D01*
Y322653D02*
Y331520D01*
X336257Y326607D02*
X356307D01*
X336177Y322653D02*
X336329Y322501D01*
X364500Y302000D02*
Y307063D01*
X368500Y311063D01*
X368532Y317836D02*
Y318741D01*
X370291Y320500D01*
X368500Y311063D02*
Y317804D01*
X368532Y317836D01*
X362000Y299500D02*
X364500Y302000D01*
X370291Y320500D02*
X370488D01*
X356307Y326607D02*
X362402Y332702D01*
X370488D01*
X336240Y310618D02*
Y322500D01*
X319500Y299121D02*
Y307500D01*
Y298500D02*
Y299121D01*
Y307500D02*
X322618Y310618D01*
X328760D01*
X342470Y322500D02*
X345500D01*
X328760Y307240D02*
Y310618D01*
X330000Y306000D02*
X335000D01*
X328760Y307240D02*
X330000Y306000D01*
X335000D02*
X336240Y307240D01*
Y310618D01*
D43*
X322768Y318276D02*
D03*
X356788D02*
D03*
D44*
Y334606D02*
D03*
X322768D02*
D03*
D45*
X332610Y293788D02*
D03*
Y222528D02*
D03*
X454658Y293788D02*
D03*
Y222528D02*
D03*
D46*
X322768Y200874D02*
D03*
D47*
X387400Y338700D02*
D03*
X335121Y244378D02*
D03*
X408900Y236500D02*
D03*
X421100Y326700D02*
D03*
X407000Y265000D02*
D03*
X395515Y285115D02*
D03*
X414000Y284896D02*
D03*
X415800Y287900D02*
D03*
X378700Y296900D02*
D03*
X406400Y305800D02*
D03*
X381697Y278858D02*
D03*
X374800Y291000D02*
D03*
X403300Y256900D02*
D03*
X397800Y258800D02*
D03*
X403100Y261000D02*
D03*
X330821Y250821D02*
D03*
X349168Y329852D02*
D03*
X335121Y240441D02*
D03*
X340760Y308087D02*
D03*
X468500Y303000D02*
D03*
X442500Y301000D02*
D03*
X434000Y236000D02*
D03*
X421500Y241500D02*
D03*
X386000Y221000D02*
D03*
X355500Y236500D02*
D03*
X425000Y204000D02*
D03*
X418000D02*
D03*
X356000Y202000D02*
D03*
Y209000D02*
D03*
X434000Y229000D02*
D03*
X454658Y239657D02*
D03*
Y232658D02*
D03*
X359200Y287600D02*
D03*
X331600Y258600D02*
D03*
X395500Y254500D02*
D03*
X331600Y262095D02*
D03*
X414000Y267069D02*
D03*
X410518Y276982D02*
D03*
X410800Y282446D02*
D03*
X414000Y274400D02*
D03*
Y279800D02*
D03*
X445500Y310000D02*
D03*
X418000Y302500D02*
D03*
X352000Y289000D02*
D03*
X399500Y221000D02*
D03*
X407500D02*
D03*
X317200Y252700D02*
D03*
X344000Y220000D02*
D03*
X361000Y242000D02*
D03*
X432000Y289300D02*
D03*
X417563Y311063D02*
D03*
X410000Y316000D02*
D03*
X464000Y197800D02*
D03*
X456200Y273905D02*
D03*
X319000Y209000D02*
D03*
X407000Y260800D02*
D03*
X456331Y254351D02*
D03*
X342728Y318531D02*
D03*
X456200Y246346D02*
D03*
Y250283D02*
D03*
Y258157D02*
D03*
Y269968D02*
D03*
X331600Y277843D02*
D03*
Y273906D02*
D03*
Y269969D02*
D03*
Y266032D02*
D03*
D48*
X461300Y331832D02*
D03*
D49*
X362000Y299500D02*
D03*
X319500Y299121D02*
D03*
X345500Y322500D02*
D03*
M02*
