G04*
G04 #@! TF.GenerationSoftware,Altium Limited,Altium Designer,21.2.1 (34)*
G04*
G04 Layer_Color=128*
%FSLAX25Y25*%
%MOIN*%
G70*
G04*
G04 #@! TF.SameCoordinates,7F94B60C-EE6A-4D70-8C52-0CABB09C9AE7*
G04*
G04*
G04 #@! TF.FilePolarity,Positive*
G04*
G01*
G75*
%ADD21R,0.03150X0.03347*%
%ADD22R,0.03800X0.03500*%
%ADD49R,0.03347X0.03150*%
%ADD50R,0.13386X0.05906*%
%ADD51R,0.05906X0.02362*%
%ADD52R,0.03500X0.03800*%
%ADD53R,0.01772X0.03937*%
G04:AMPARAMS|DCode=54|XSize=38mil|YSize=35mil|CornerRadius=0mil|HoleSize=0mil|Usage=FLASHONLY|Rotation=45.000|XOffset=0mil|YOffset=0mil|HoleType=Round|Shape=Rectangle|*
%AMROTATEDRECTD54*
4,1,4,-0.00106,-0.02581,-0.02581,-0.00106,0.00106,0.02581,0.02581,0.00106,-0.00106,-0.02581,0.0*
%
%ADD54ROTATEDRECTD54*%

%ADD55R,0.02953X0.03937*%
%ADD56O,0.01181X0.05512*%
%ADD57O,0.05512X0.01181*%
%ADD58R,0.01181X0.04724*%
%ADD59O,0.01575X0.07874*%
G04:AMPARAMS|DCode=60|XSize=38mil|YSize=35mil|CornerRadius=0mil|HoleSize=0mil|Usage=FLASHONLY|Rotation=315.000|XOffset=0mil|YOffset=0mil|HoleType=Round|Shape=Rectangle|*
%AMROTATEDRECTD60*
4,1,4,-0.02581,0.00106,-0.00106,0.02581,0.02581,-0.00106,0.00106,-0.02581,-0.02581,0.00106,0.0*
%
%ADD60ROTATEDRECTD60*%

%ADD61R,0.07480X0.09450*%
%ADD62R,0.05906X0.04724*%
D21*
X451626Y199000D02*
D03*
X457374D02*
D03*
X346626Y307000D02*
D03*
X352374D02*
D03*
X451626Y310000D02*
D03*
X457374D02*
D03*
X352374Y300500D02*
D03*
X346626D02*
D03*
X399563Y213173D02*
D03*
X393815D02*
D03*
X424366Y212563D02*
D03*
X418618D02*
D03*
D22*
X432100Y310000D02*
D03*
X439000D02*
D03*
X348500Y293000D02*
D03*
X355400D02*
D03*
X404477Y332863D02*
D03*
X411377D02*
D03*
X458000Y207000D02*
D03*
X451100D02*
D03*
X369900Y293000D02*
D03*
X363000D02*
D03*
X395737Y332863D02*
D03*
X388837Y332863D02*
D03*
X380362D02*
D03*
X373462D02*
D03*
X366562Y305859D02*
D03*
X373462Y305859D02*
D03*
D49*
X364300Y318226D02*
D03*
Y323974D02*
D03*
D50*
X332611Y300875D02*
D03*
Y215442D02*
D03*
X454657Y300874D02*
D03*
Y215441D02*
D03*
D51*
X341469Y228630D02*
D03*
X323752Y230599D02*
D03*
X341469Y232568D02*
D03*
X323752Y234536D02*
D03*
X341469Y236505D02*
D03*
X323752Y238473D02*
D03*
X341469Y240441D02*
D03*
X323752Y242410D02*
D03*
X341469Y244378D02*
D03*
X323752Y246347D02*
D03*
X341469Y248316D02*
D03*
X323752Y250284D02*
D03*
X341469Y252253D02*
D03*
X323752Y254221D02*
D03*
X341469Y256190D02*
D03*
X323752Y258158D02*
D03*
X341469Y260127D02*
D03*
X323752Y262095D02*
D03*
X341469Y264064D02*
D03*
X323752Y266032D02*
D03*
X341469Y268001D02*
D03*
X323752Y269969D02*
D03*
X341469Y271938D02*
D03*
X323752Y273906D02*
D03*
X341469Y275875D02*
D03*
X323752Y277843D02*
D03*
X341469Y279812D02*
D03*
X323752Y281780D02*
D03*
X341469Y283749D02*
D03*
X323752Y285717D02*
D03*
X341469Y287686D02*
D03*
X445799Y228630D02*
D03*
X463515Y230598D02*
D03*
X445799Y232567D02*
D03*
X463515Y234535D02*
D03*
X445799Y236504D02*
D03*
X463515Y238472D02*
D03*
X445799Y240441D02*
D03*
X463515Y242409D02*
D03*
X445799Y244378D02*
D03*
X463515Y246346D02*
D03*
X445799Y248315D02*
D03*
X463515Y250283D02*
D03*
X445799Y252252D02*
D03*
X463515Y254220D02*
D03*
X445799Y256189D02*
D03*
X463515Y258157D02*
D03*
X445799Y260126D02*
D03*
X463515Y262094D02*
D03*
X445799Y264063D02*
D03*
X463515Y266031D02*
D03*
X445799Y268000D02*
D03*
X463515Y269968D02*
D03*
X445799Y271937D02*
D03*
X463515Y273905D02*
D03*
X445799Y275874D02*
D03*
X463515Y277842D02*
D03*
X445799Y279811D02*
D03*
X463515Y281779D02*
D03*
X445799Y283748D02*
D03*
X463515Y285716D02*
D03*
X445799Y287685D02*
D03*
D52*
X366500Y202500D02*
D03*
Y209400D02*
D03*
X467000Y316900D02*
D03*
Y310000D02*
D03*
X376000Y226900D02*
D03*
Y220000D02*
D03*
D53*
X431860Y333500D02*
D03*
X435600Y333500D02*
D03*
X439340Y333500D02*
D03*
X439340Y322500D02*
D03*
X435600D02*
D03*
X431860D02*
D03*
D54*
X369516Y245382D02*
D03*
X374395Y250262D02*
D03*
D55*
X319500Y291500D02*
D03*
Y305673D02*
D03*
X376000Y199000D02*
D03*
Y213173D02*
D03*
D56*
X384395Y296718D02*
D03*
X386363D02*
D03*
X388332D02*
D03*
X390300D02*
D03*
X392269D02*
D03*
X394237D02*
D03*
X396206D02*
D03*
X398174D02*
D03*
X400143D02*
D03*
X402111D02*
D03*
X404080D02*
D03*
X406048D02*
D03*
X408017D02*
D03*
X409985D02*
D03*
X411954Y296718D02*
D03*
X413922D02*
D03*
X413922Y250262D02*
D03*
X411954D02*
D03*
X409985Y250262D02*
D03*
X408017Y250262D02*
D03*
X406048Y250262D02*
D03*
X404080D02*
D03*
X402111D02*
D03*
X400143D02*
D03*
X398174D02*
D03*
X396206D02*
D03*
X394237D02*
D03*
X392269D02*
D03*
X390300D02*
D03*
X388332D02*
D03*
X386363D02*
D03*
X384395D02*
D03*
D57*
X422387Y288254D02*
D03*
Y286285D02*
D03*
Y284317D02*
D03*
X422387Y282348D02*
D03*
X422387Y280380D02*
D03*
Y278411D02*
D03*
X422387Y276443D02*
D03*
Y274474D02*
D03*
Y272506D02*
D03*
Y270537D02*
D03*
Y268569D02*
D03*
Y266600D02*
D03*
X422387Y264632D02*
D03*
X422387Y262663D02*
D03*
X422387Y260695D02*
D03*
Y258726D02*
D03*
X375930D02*
D03*
Y260695D02*
D03*
Y262663D02*
D03*
X375930Y264632D02*
D03*
X375930Y266600D02*
D03*
Y268569D02*
D03*
Y270537D02*
D03*
Y272506D02*
D03*
Y274474D02*
D03*
Y276443D02*
D03*
Y278411D02*
D03*
Y280380D02*
D03*
X375930Y282348D02*
D03*
X375930Y284317D02*
D03*
X375930Y286285D02*
D03*
Y288254D02*
D03*
D58*
X326587Y313472D02*
D03*
X327768D02*
D03*
X329736D02*
D03*
X330918D02*
D03*
X332886D02*
D03*
X334854D02*
D03*
X336823D02*
D03*
X338791D02*
D03*
X340760D02*
D03*
X342728D02*
D03*
X344697D02*
D03*
X346665D02*
D03*
X348634D02*
D03*
X349815D02*
D03*
X351783D02*
D03*
X352964D02*
D03*
D59*
X404839Y231338D02*
D03*
X396571D02*
D03*
X413106D02*
D03*
X421374D02*
D03*
X393815D02*
D03*
X391059D02*
D03*
X402083D02*
D03*
X399327D02*
D03*
X410350D02*
D03*
X407594D02*
D03*
X415862D02*
D03*
X418618D02*
D03*
D60*
X428801Y245382D02*
D03*
X423922Y250262D02*
D03*
D61*
X401323Y319384D02*
D03*
X385183Y319384D02*
D03*
D62*
X373462Y324873D02*
D03*
X373462Y313849D02*
D03*
M02*
