G04*
G04 #@! TF.GenerationSoftware,Altium Limited,Altium Designer,21.2.1 (34)*
G04*
G04 Layer_Color=32896*
%FSLAX25Y25*%
%MOIN*%
G70*
G04*
G04 #@! TF.SameCoordinates,2553E21A-E740-48D2-A68A-D9BBB884D7A6*
G04*
G04*
G04 #@! TF.FilePolarity,Positive*
G04*
G01*
G75*
%ADD11C,0.01000*%
%ADD12C,0.00600*%
%ADD13C,0.00787*%
%ADD14C,0.00500*%
%ADD16C,0.00800*%
%ADD80C,0.00984*%
%ADD81C,0.01575*%
%ADD82C,0.00390*%
%ADD83R,0.03937X0.00787*%
G36*
X321468Y300555D02*
X317531D01*
X319500Y297012D01*
X321468Y300555D01*
D02*
G37*
G36*
X344028Y292410D02*
Y290048D01*
X341666Y291229D01*
X344028Y292410D01*
D02*
G37*
G36*
X377969Y208055D02*
X374031D01*
X376000Y204512D01*
X377969Y208055D01*
D02*
G37*
G36*
X443240Y223905D02*
Y226267D01*
X445602Y225086D01*
X443240Y223905D01*
D02*
G37*
G36*
X382820Y294529D02*
X380064Y293151D01*
Y295907D01*
X382820Y294529D01*
D02*
G37*
G36*
X459900Y314446D02*
X458833D01*
X458745Y314451D01*
X458662Y314455D01*
X458583Y314469D01*
X458509Y314483D01*
X458445Y314497D01*
X458380Y314520D01*
X458325Y314539D01*
X458274Y314562D01*
X458228Y314580D01*
X458186Y314603D01*
X458154Y314622D01*
X458126Y314636D01*
X458103Y314654D01*
X458089Y314663D01*
X458080Y314668D01*
X458075Y314673D01*
X458024Y314719D01*
X457983Y314765D01*
X457946Y314816D01*
X457913Y314867D01*
X457886Y314917D01*
X457867Y314968D01*
X457830Y315070D01*
X457812Y315158D01*
X457807Y315195D01*
X457802Y315227D01*
X457798Y315255D01*
Y315273D01*
Y315287D01*
Y315292D01*
X457807Y315393D01*
X457826Y315481D01*
X457858Y315560D01*
X457890Y315629D01*
X457923Y315680D01*
X457955Y315721D01*
X457973Y315744D01*
X457983Y315754D01*
X458057Y315818D01*
X458135Y315864D01*
X458214Y315906D01*
X458292Y315934D01*
X458361Y315952D01*
X458412Y315966D01*
X458435Y315971D01*
X458449Y315975D01*
X458463D01*
Y315985D01*
X458380Y316012D01*
X458301Y316049D01*
X458237Y316091D01*
X458177Y316128D01*
X458131Y316165D01*
X458098Y316197D01*
X458080Y316216D01*
X458071Y316225D01*
X458020Y316294D01*
X457978Y316364D01*
X457950Y316433D01*
X457932Y316497D01*
X457923Y316553D01*
X457913Y316595D01*
Y316613D01*
Y316627D01*
Y316632D01*
Y316636D01*
X457918Y316691D01*
X457923Y316747D01*
X457955Y316844D01*
X457992Y316927D01*
X458038Y317001D01*
X458089Y317052D01*
X458126Y317093D01*
X458158Y317117D01*
X458163Y317126D01*
X458168D01*
X458218Y317158D01*
X458269Y317186D01*
X458385Y317227D01*
X458505Y317260D01*
X458620Y317278D01*
X458671Y317287D01*
X458722Y317292D01*
X458768Y317297D01*
X458805D01*
X458837Y317301D01*
X459900D01*
Y314446D01*
D02*
G37*
G36*
X451404Y316802D02*
X450591D01*
Y314446D01*
X449981D01*
Y316802D01*
X449163D01*
Y317301D01*
X451404D01*
Y316802D01*
D02*
G37*
G36*
X456185Y317348D02*
X456301Y317334D01*
X456403Y317315D01*
X456504Y317287D01*
X456597Y317255D01*
X456680Y317218D01*
X456758Y317181D01*
X456828Y317140D01*
X456892Y317098D01*
X456948Y317061D01*
X456994Y317024D01*
X457036Y316992D01*
X457063Y316969D01*
X457086Y316946D01*
X457100Y316932D01*
X457105Y316927D01*
X457174Y316844D01*
X457234Y316761D01*
X457285Y316668D01*
X457331Y316581D01*
X457368Y316488D01*
X457401Y316396D01*
X457428Y316308D01*
X457447Y316225D01*
X457465Y316146D01*
X457475Y316072D01*
X457484Y316003D01*
X457493Y315948D01*
Y315901D01*
X457498Y315864D01*
Y315846D01*
Y315837D01*
X457493Y315721D01*
X457479Y315610D01*
X457461Y315504D01*
X457438Y315407D01*
X457410Y315315D01*
X457377Y315227D01*
X457340Y315148D01*
X457304Y315079D01*
X457271Y315015D01*
X457234Y314959D01*
X457202Y314908D01*
X457174Y314871D01*
X457151Y314839D01*
X457133Y314816D01*
X457119Y314802D01*
X457114Y314797D01*
X457040Y314728D01*
X456962Y314668D01*
X456879Y314613D01*
X456795Y314566D01*
X456712Y314529D01*
X456629Y314497D01*
X456551Y314469D01*
X456472Y314451D01*
X456398Y314432D01*
X456329Y314423D01*
X456269Y314414D01*
X456218Y314405D01*
X456176D01*
X456144Y314400D01*
X456116D01*
X456001Y314405D01*
X455890Y314419D01*
X455788Y314437D01*
X455691Y314465D01*
X455599Y314497D01*
X455516Y314529D01*
X455437Y314566D01*
X455368Y314608D01*
X455308Y314645D01*
X455252Y314682D01*
X455206Y314714D01*
X455164Y314746D01*
X455137Y314774D01*
X455114Y314793D01*
X455100Y314807D01*
X455095Y314811D01*
X455026Y314890D01*
X454966Y314978D01*
X454915Y315065D01*
X454869Y315158D01*
X454832Y315246D01*
X454800Y315338D01*
X454776Y315426D01*
X454753Y315509D01*
X454740Y315587D01*
X454726Y315661D01*
X454721Y315726D01*
X454712Y315781D01*
Y315828D01*
X454707Y315864D01*
Y315883D01*
Y315892D01*
X454712Y316008D01*
X454721Y316123D01*
X454740Y316230D01*
X454767Y316326D01*
X454795Y316419D01*
X454827Y316507D01*
X454860Y316585D01*
X454892Y316659D01*
X454929Y316724D01*
X454961Y316779D01*
X454994Y316826D01*
X455021Y316867D01*
X455044Y316899D01*
X455063Y316922D01*
X455077Y316936D01*
X455081Y316941D01*
X455155Y317015D01*
X455229Y317075D01*
X455312Y317130D01*
X455396Y317177D01*
X455474Y317218D01*
X455557Y317250D01*
X455640Y317278D01*
X455714Y317301D01*
X455788Y317320D01*
X455858Y317329D01*
X455918Y317338D01*
X455968Y317348D01*
X456010D01*
X456042Y317352D01*
X456070D01*
X456185Y317348D01*
D02*
G37*
G36*
X453095D02*
X453210Y317334D01*
X453312Y317315D01*
X453413Y317287D01*
X453506Y317255D01*
X453589Y317218D01*
X453668Y317181D01*
X453737Y317140D01*
X453802Y317098D01*
X453857Y317061D01*
X453903Y317024D01*
X453945Y316992D01*
X453972Y316969D01*
X453996Y316946D01*
X454009Y316932D01*
X454014Y316927D01*
X454083Y316844D01*
X454143Y316761D01*
X454194Y316668D01*
X454241Y316581D01*
X454278Y316488D01*
X454310Y316396D01*
X454338Y316308D01*
X454356Y316225D01*
X454375Y316146D01*
X454384Y316072D01*
X454393Y316003D01*
X454402Y315948D01*
Y315901D01*
X454407Y315864D01*
Y315846D01*
Y315837D01*
X454402Y315721D01*
X454388Y315610D01*
X454370Y315504D01*
X454347Y315407D01*
X454319Y315315D01*
X454287Y315227D01*
X454250Y315148D01*
X454213Y315079D01*
X454180Y315015D01*
X454143Y314959D01*
X454111Y314908D01*
X454083Y314871D01*
X454060Y314839D01*
X454042Y314816D01*
X454028Y314802D01*
X454023Y314797D01*
X453949Y314728D01*
X453871Y314668D01*
X453788Y314613D01*
X453705Y314566D01*
X453621Y314529D01*
X453538Y314497D01*
X453460Y314469D01*
X453381Y314451D01*
X453307Y314432D01*
X453238Y314423D01*
X453178Y314414D01*
X453127Y314405D01*
X453086D01*
X453053Y314400D01*
X453025D01*
X452910Y314405D01*
X452799Y314419D01*
X452697Y314437D01*
X452600Y314465D01*
X452508Y314497D01*
X452425Y314529D01*
X452346Y314566D01*
X452277Y314608D01*
X452217Y314645D01*
X452162Y314682D01*
X452115Y314714D01*
X452074Y314746D01*
X452046Y314774D01*
X452023Y314793D01*
X452009Y314807D01*
X452004Y314811D01*
X451935Y314890D01*
X451875Y314978D01*
X451824Y315065D01*
X451778Y315158D01*
X451741Y315246D01*
X451709Y315338D01*
X451686Y315426D01*
X451662Y315509D01*
X451649Y315587D01*
X451635Y315661D01*
X451630Y315726D01*
X451621Y315781D01*
Y315828D01*
X451616Y315864D01*
Y315883D01*
Y315892D01*
X451621Y316008D01*
X451630Y316123D01*
X451649Y316230D01*
X451676Y316326D01*
X451704Y316419D01*
X451736Y316507D01*
X451769Y316585D01*
X451801Y316659D01*
X451838Y316724D01*
X451870Y316779D01*
X451903Y316826D01*
X451931Y316867D01*
X451954Y316899D01*
X451972Y316922D01*
X451986Y316936D01*
X451991Y316941D01*
X452065Y317015D01*
X452138Y317075D01*
X452222Y317130D01*
X452305Y317177D01*
X452383Y317218D01*
X452466Y317250D01*
X452550Y317278D01*
X452624Y317301D01*
X452697Y317320D01*
X452767Y317329D01*
X452827Y317338D01*
X452878Y317348D01*
X452919D01*
X452951Y317352D01*
X452979D01*
X453095Y317348D01*
D02*
G37*
G36*
X470852Y299830D02*
X470904Y299645D01*
X470948Y299452D01*
X470970Y299275D01*
X470978Y299186D01*
X470985Y299112D01*
X470993Y299045D01*
Y298986D01*
X471000Y298934D01*
Y298868D01*
X470993Y298720D01*
X470985Y298587D01*
X470963Y298453D01*
X470941Y298335D01*
X470919Y298217D01*
X470882Y298113D01*
X470852Y298017D01*
X470815Y297928D01*
X470785Y297854D01*
X470748Y297787D01*
X470719Y297728D01*
X470697Y297684D01*
X470667Y297647D01*
X470652Y297617D01*
X470645Y297602D01*
X470637Y297595D01*
X470563Y297514D01*
X470489Y297440D01*
X470408Y297373D01*
X470327Y297314D01*
X470238Y297269D01*
X470156Y297232D01*
X469994Y297173D01*
X469846Y297136D01*
X469786Y297129D01*
X469727Y297121D01*
X469683Y297114D01*
X469653D01*
X469631D01*
X469624D01*
X469468Y297129D01*
X469328Y297158D01*
X469202Y297203D01*
X469098Y297255D01*
X469017Y297314D01*
X468950Y297358D01*
X468913Y297388D01*
X468898Y297403D01*
X468795Y297521D01*
X468721Y297647D01*
X468662Y297773D01*
X468610Y297891D01*
X468580Y298002D01*
X468565Y298083D01*
X468558Y298120D01*
X468551Y298143D01*
Y298165D01*
X468536D01*
X468484Y298002D01*
X468417Y297861D01*
X468343Y297743D01*
X468262Y297639D01*
X468173Y297551D01*
X468077Y297477D01*
X467981Y297417D01*
X467885Y297366D01*
X467788Y297329D01*
X467700Y297299D01*
X467618Y297284D01*
X467552Y297269D01*
X467485Y297262D01*
X467441Y297255D01*
X467411D01*
X467404D01*
X467307Y297262D01*
X467211Y297269D01*
X467048Y297321D01*
X466908Y297380D01*
X466789Y297454D01*
X466693Y297536D01*
X466627Y297595D01*
X466590Y297647D01*
X466575Y297654D01*
Y297662D01*
X466471Y297824D01*
X466397Y298002D01*
X466345Y298172D01*
X466308Y298342D01*
X466286Y298490D01*
X466279Y298557D01*
Y298609D01*
X466271Y298653D01*
Y298720D01*
X466279Y298949D01*
X466308Y299164D01*
X466353Y299349D01*
X466375Y299438D01*
X466397Y299512D01*
X466419Y299586D01*
X466442Y299645D01*
X466464Y299704D01*
X466486Y299748D01*
X466501Y299778D01*
X466516Y299808D01*
X466523Y299822D01*
Y299830D01*
X467307D01*
X467204Y299667D01*
X467130Y299512D01*
X467078Y299356D01*
X467041Y299223D01*
X467019Y299105D01*
X467011Y299053D01*
Y299016D01*
X467004Y298979D01*
Y298934D01*
X467011Y298809D01*
X467026Y298705D01*
X467056Y298609D01*
X467093Y298527D01*
X467145Y298461D01*
X467189Y298402D01*
X467248Y298357D01*
X467300Y298320D01*
X467352Y298291D01*
X467411Y298268D01*
X467500Y298239D01*
X467544D01*
X467574Y298231D01*
X467589D01*
X467596D01*
X467707Y298239D01*
X467796Y298268D01*
X467877Y298313D01*
X467951Y298372D01*
X468010Y298446D01*
X468062Y298520D01*
X468099Y298601D01*
X468136Y298690D01*
X468181Y298860D01*
X468188Y298934D01*
X468203Y299008D01*
Y299068D01*
X468210Y299112D01*
Y299526D01*
X468950D01*
Y299119D01*
X468958Y298949D01*
X468980Y298794D01*
X469002Y298668D01*
X469032Y298557D01*
X469069Y298476D01*
X469091Y298416D01*
X469113Y298379D01*
X469120Y298365D01*
X469187Y298276D01*
X469268Y298209D01*
X469350Y298157D01*
X469431Y298128D01*
X469505Y298106D01*
X469564Y298098D01*
X469601Y298091D01*
X469609D01*
X469616D01*
X469727Y298098D01*
X469823Y298128D01*
X469912Y298165D01*
X469979Y298202D01*
X470031Y298246D01*
X470075Y298283D01*
X470097Y298313D01*
X470105Y298320D01*
X470164Y298409D01*
X470201Y298513D01*
X470230Y298609D01*
X470253Y298712D01*
X470267Y298801D01*
X470275Y298868D01*
Y298934D01*
X470267Y299045D01*
X470260Y299156D01*
X470223Y299356D01*
X470164Y299541D01*
X470105Y299697D01*
X470075Y299763D01*
X470045Y299822D01*
X470016Y299874D01*
X469986Y299919D01*
X469964Y299956D01*
X469949Y299978D01*
X469934Y299993D01*
Y300000D01*
X470778D01*
X470852Y299830D01*
D02*
G37*
G36*
X470926Y295138D02*
Y294036D01*
X466353Y292445D01*
Y293466D01*
X469579Y294457D01*
X469757Y294502D01*
X469831Y294517D01*
X469897Y294531D01*
X469957Y294539D01*
X470001Y294546D01*
X470031Y294554D01*
X470038D01*
Y294576D01*
X469883Y294598D01*
X469801Y294613D01*
X469735Y294628D01*
X469675Y294642D01*
X469631Y294650D01*
X469594Y294665D01*
X469587D01*
X466353Y295656D01*
Y296707D01*
X470926Y295138D01*
D02*
G37*
G36*
X470852Y291771D02*
X470904Y291586D01*
X470948Y291394D01*
X470970Y291216D01*
X470978Y291127D01*
X470985Y291053D01*
X470993Y290987D01*
Y290928D01*
X471000Y290876D01*
Y290809D01*
X470993Y290661D01*
X470985Y290528D01*
X470963Y290395D01*
X470941Y290276D01*
X470919Y290158D01*
X470882Y290054D01*
X470852Y289958D01*
X470815Y289869D01*
X470785Y289795D01*
X470748Y289729D01*
X470719Y289670D01*
X470697Y289625D01*
X470667Y289588D01*
X470652Y289559D01*
X470645Y289544D01*
X470637Y289536D01*
X470563Y289455D01*
X470489Y289381D01*
X470408Y289314D01*
X470327Y289255D01*
X470238Y289211D01*
X470156Y289174D01*
X469994Y289115D01*
X469846Y289078D01*
X469786Y289070D01*
X469727Y289063D01*
X469683Y289055D01*
X469653D01*
X469631D01*
X469624D01*
X469468Y289070D01*
X469328Y289100D01*
X469202Y289144D01*
X469098Y289196D01*
X469017Y289255D01*
X468950Y289300D01*
X468913Y289329D01*
X468898Y289344D01*
X468795Y289462D01*
X468721Y289588D01*
X468662Y289714D01*
X468610Y289832D01*
X468580Y289943D01*
X468565Y290025D01*
X468558Y290062D01*
X468551Y290084D01*
Y290106D01*
X468536D01*
X468484Y289943D01*
X468417Y289803D01*
X468343Y289684D01*
X468262Y289581D01*
X468173Y289492D01*
X468077Y289418D01*
X467981Y289359D01*
X467885Y289307D01*
X467788Y289270D01*
X467700Y289240D01*
X467618Y289226D01*
X467552Y289211D01*
X467485Y289203D01*
X467441Y289196D01*
X467411D01*
X467404D01*
X467307Y289203D01*
X467211Y289211D01*
X467048Y289263D01*
X466908Y289322D01*
X466789Y289396D01*
X466693Y289477D01*
X466627Y289536D01*
X466590Y289588D01*
X466575Y289596D01*
Y289603D01*
X466471Y289766D01*
X466397Y289943D01*
X466345Y290114D01*
X466308Y290284D01*
X466286Y290432D01*
X466279Y290498D01*
Y290550D01*
X466271Y290595D01*
Y290661D01*
X466279Y290891D01*
X466308Y291105D01*
X466353Y291290D01*
X466375Y291379D01*
X466397Y291453D01*
X466419Y291527D01*
X466442Y291586D01*
X466464Y291645D01*
X466486Y291690D01*
X466501Y291719D01*
X466516Y291749D01*
X466523Y291764D01*
Y291771D01*
X467307D01*
X467204Y291608D01*
X467130Y291453D01*
X467078Y291298D01*
X467041Y291164D01*
X467019Y291046D01*
X467011Y290994D01*
Y290957D01*
X467004Y290920D01*
Y290876D01*
X467011Y290750D01*
X467026Y290646D01*
X467056Y290550D01*
X467093Y290469D01*
X467145Y290402D01*
X467189Y290343D01*
X467248Y290299D01*
X467300Y290262D01*
X467352Y290232D01*
X467411Y290210D01*
X467500Y290180D01*
X467544D01*
X467574Y290173D01*
X467589D01*
X467596D01*
X467707Y290180D01*
X467796Y290210D01*
X467877Y290254D01*
X467951Y290313D01*
X468010Y290387D01*
X468062Y290461D01*
X468099Y290543D01*
X468136Y290632D01*
X468181Y290802D01*
X468188Y290876D01*
X468203Y290950D01*
Y291009D01*
X468210Y291053D01*
Y291468D01*
X468950D01*
Y291061D01*
X468958Y290891D01*
X468980Y290735D01*
X469002Y290609D01*
X469032Y290498D01*
X469069Y290417D01*
X469091Y290358D01*
X469113Y290321D01*
X469120Y290306D01*
X469187Y290217D01*
X469268Y290151D01*
X469350Y290099D01*
X469431Y290069D01*
X469505Y290047D01*
X469564Y290040D01*
X469601Y290032D01*
X469609D01*
X469616D01*
X469727Y290040D01*
X469823Y290069D01*
X469912Y290106D01*
X469979Y290143D01*
X470031Y290188D01*
X470075Y290225D01*
X470097Y290254D01*
X470105Y290262D01*
X470164Y290350D01*
X470201Y290454D01*
X470230Y290550D01*
X470253Y290654D01*
X470267Y290743D01*
X470275Y290809D01*
Y290876D01*
X470267Y290987D01*
X470260Y291098D01*
X470223Y291298D01*
X470164Y291483D01*
X470105Y291638D01*
X470075Y291705D01*
X470045Y291764D01*
X470016Y291816D01*
X469986Y291860D01*
X469964Y291897D01*
X469949Y291919D01*
X469934Y291934D01*
Y291941D01*
X470778D01*
X470852Y291771D01*
D02*
G37*
G36*
X448556Y325592D02*
X447363D01*
Y327914D01*
X447354Y328062D01*
X447326Y328192D01*
X447289Y328312D01*
X447252Y328404D01*
X447215Y328488D01*
X447178Y328543D01*
X447150Y328580D01*
X447141Y328590D01*
X447048Y328682D01*
X446956Y328747D01*
X446854Y328793D01*
X446771Y328821D01*
X446688Y328849D01*
X446623Y328858D01*
X446567D01*
X446447Y328849D01*
X446345Y328821D01*
X446253Y328774D01*
X446170Y328710D01*
X446105Y328636D01*
X446049Y328562D01*
X446003Y328479D01*
X445966Y328386D01*
X445920Y328210D01*
X445901Y328136D01*
X445892Y328062D01*
X445883Y327997D01*
Y327951D01*
Y327923D01*
Y327914D01*
Y325592D01*
X444690D01*
Y328099D01*
Y328247D01*
X444708Y328395D01*
X444745Y328654D01*
X444819Y328876D01*
X444911Y329070D01*
X445013Y329228D01*
X445133Y329366D01*
X445254Y329478D01*
X445383Y329561D01*
X445522Y329635D01*
X445642Y329681D01*
X445762Y329727D01*
X445864Y329746D01*
X445957Y329764D01*
X446022Y329773D01*
X446086D01*
X446234Y329764D01*
X446364Y329746D01*
X446493Y329709D01*
X446614Y329662D01*
X446826Y329552D01*
X447011Y329422D01*
X447085Y329348D01*
X447150Y329283D01*
X447215Y329228D01*
X447261Y329172D01*
X447298Y329126D01*
X447326Y329089D01*
X447335Y329070D01*
X447344Y329061D01*
X447363D01*
Y331633D01*
X448556D01*
Y325592D01*
D02*
G37*
G36*
X457436Y327211D02*
Y327054D01*
X457417Y326906D01*
X457399Y326777D01*
X457371Y326647D01*
X457306Y326416D01*
X457214Y326221D01*
X457103Y326055D01*
X456983Y325916D01*
X456853Y325805D01*
X456714Y325713D01*
X456585Y325648D01*
X456456Y325592D01*
X456335Y325555D01*
X456224Y325528D01*
X456132Y325509D01*
X456067Y325500D01*
X456002D01*
X455854Y325509D01*
X455725Y325528D01*
X455595Y325565D01*
X455475Y325611D01*
X455262Y325722D01*
X455087Y325861D01*
X455003Y325925D01*
X454939Y325990D01*
X454883Y326046D01*
X454837Y326101D01*
X454800Y326148D01*
X454772Y326185D01*
X454763Y326203D01*
X454753Y326212D01*
X454735D01*
Y325592D01*
X453551D01*
Y329672D01*
X454735D01*
Y327331D01*
X454744Y327184D01*
X454772Y327045D01*
X454800Y326934D01*
X454837Y326832D01*
X454883Y326758D01*
X454911Y326702D01*
X454939Y326665D01*
X454948Y326656D01*
X455031Y326573D01*
X455124Y326508D01*
X455225Y326471D01*
X455318Y326434D01*
X455392Y326416D01*
X455466Y326407D01*
X455521D01*
X455651Y326416D01*
X455762Y326444D01*
X455854Y326490D01*
X455937Y326554D01*
X456011Y326619D01*
X456067Y326693D01*
X456113Y326777D01*
X456150Y326869D01*
X456206Y327035D01*
X456224Y327110D01*
X456234Y327184D01*
Y327239D01*
X456243Y327285D01*
Y327313D01*
Y327322D01*
Y329672D01*
X457436D01*
Y327211D01*
D02*
G37*
G36*
X450619Y329764D02*
X450804Y329746D01*
X450970Y329718D01*
X451127Y329681D01*
X451275Y329635D01*
X451414Y329579D01*
X451535Y329533D01*
X451646Y329478D01*
X451747Y329413D01*
X451840Y329366D01*
X451914Y329311D01*
X451978Y329265D01*
X452025Y329228D01*
X452062Y329200D01*
X452080Y329182D01*
X452090Y329172D01*
X452201Y329052D01*
X452293Y328932D01*
X452376Y328802D01*
X452450Y328663D01*
X452506Y328525D01*
X452561Y328386D01*
X452635Y328127D01*
X452654Y328007D01*
X452672Y327896D01*
X452691Y327794D01*
X452700Y327711D01*
X452709Y327637D01*
Y327581D01*
Y327544D01*
Y327535D01*
X452700Y327368D01*
X452681Y327211D01*
X452654Y327063D01*
X452617Y326924D01*
X452580Y326795D01*
X452524Y326675D01*
X452478Y326564D01*
X452423Y326462D01*
X452367Y326370D01*
X452321Y326295D01*
X452265Y326221D01*
X452228Y326166D01*
X452191Y326120D01*
X452164Y326092D01*
X452145Y326074D01*
X452136Y326064D01*
X452025Y325962D01*
X451904Y325879D01*
X451784Y325805D01*
X451655Y325741D01*
X451525Y325685D01*
X451405Y325639D01*
X451164Y325574D01*
X451053Y325546D01*
X450952Y325528D01*
X450859Y325518D01*
X450776Y325509D01*
X450711Y325500D01*
X450619D01*
X450341Y325509D01*
X450101Y325537D01*
X449888Y325574D01*
X449721Y325620D01*
X449648Y325639D01*
X449583Y325666D01*
X449527Y325685D01*
X449481Y325704D01*
X449453Y325722D01*
X449426Y325731D01*
X449416Y325741D01*
X449407D01*
Y326712D01*
X449574Y326610D01*
X449740Y326536D01*
X449897Y326481D01*
X450036Y326444D01*
X450156Y326425D01*
X450249Y326416D01*
X450286Y326407D01*
X450332D01*
X450526Y326425D01*
X450693Y326462D01*
X450841Y326508D01*
X450970Y326573D01*
X451063Y326628D01*
X451137Y326684D01*
X451174Y326721D01*
X451192Y326730D01*
X451294Y326860D01*
X451377Y327008D01*
X451433Y327147D01*
X451470Y327294D01*
X451488Y327415D01*
X451498Y327517D01*
X451507Y327554D01*
Y327581D01*
Y327600D01*
Y327609D01*
X451488Y327813D01*
X451451Y327997D01*
X451405Y328155D01*
X451340Y328284D01*
X451275Y328386D01*
X451229Y328460D01*
X451192Y328506D01*
X451174Y328525D01*
X451044Y328636D01*
X450896Y328719D01*
X450748Y328774D01*
X450609Y328821D01*
X450489Y328839D01*
X450387Y328849D01*
X450351Y328858D01*
X450295D01*
X450119Y328849D01*
X449953Y328812D01*
X449795Y328765D01*
X449666Y328710D01*
X449555Y328654D01*
X449472Y328608D01*
X449416Y328571D01*
X449398Y328562D01*
Y329579D01*
X449537Y329644D01*
X449703Y329690D01*
X449879Y329727D01*
X450045Y329746D01*
X450193Y329764D01*
X450258D01*
X450323Y329773D01*
X450434D01*
X450619Y329764D01*
D02*
G37*
G36*
X467500Y330310D02*
X465872D01*
Y325592D01*
X464651D01*
Y330310D01*
X463014D01*
Y331309D01*
X467500D01*
Y330310D01*
D02*
G37*
G36*
X460544Y329764D02*
X460720Y329746D01*
X460886Y329718D01*
X461044Y329681D01*
X461192Y329635D01*
X461321Y329589D01*
X461450Y329533D01*
X461561Y329487D01*
X461654Y329431D01*
X461747Y329376D01*
X461821Y329329D01*
X461876Y329283D01*
X461922Y329246D01*
X461959Y329219D01*
X461978Y329200D01*
X461987Y329191D01*
X462089Y329080D01*
X462181Y328959D01*
X462264Y328830D01*
X462338Y328700D01*
X462394Y328571D01*
X462440Y328442D01*
X462514Y328183D01*
X462542Y328071D01*
X462561Y327960D01*
X462570Y327859D01*
X462579Y327776D01*
X462588Y327701D01*
Y327655D01*
Y327618D01*
Y327609D01*
X462579Y327433D01*
X462561Y327257D01*
X462533Y327100D01*
X462496Y326952D01*
X462450Y326814D01*
X462403Y326693D01*
X462348Y326573D01*
X462292Y326471D01*
X462246Y326379D01*
X462190Y326295D01*
X462144Y326221D01*
X462098Y326166D01*
X462061Y326120D01*
X462033Y326092D01*
X462015Y326074D01*
X462006Y326064D01*
X461895Y325962D01*
X461774Y325879D01*
X461645Y325805D01*
X461515Y325741D01*
X461376Y325685D01*
X461247Y325639D01*
X460997Y325574D01*
X460877Y325546D01*
X460766Y325528D01*
X460674Y325518D01*
X460590Y325509D01*
X460516Y325500D01*
X460424D01*
X460239Y325509D01*
X460063Y325528D01*
X459897Y325555D01*
X459739Y325592D01*
X459600Y325639D01*
X459471Y325685D01*
X459351Y325741D01*
X459240Y325796D01*
X459138Y325842D01*
X459055Y325898D01*
X458981Y325944D01*
X458925Y325990D01*
X458879Y326027D01*
X458842Y326055D01*
X458823Y326074D01*
X458814Y326083D01*
X458712Y326203D01*
X458620Y326323D01*
X458537Y326453D01*
X458463Y326582D01*
X458407Y326721D01*
X458361Y326851D01*
X458287Y327110D01*
X458259Y327221D01*
X458241Y327331D01*
X458231Y327433D01*
X458222Y327517D01*
X458213Y327590D01*
Y327637D01*
Y327674D01*
Y327683D01*
X458222Y327859D01*
X458241Y328025D01*
X458268Y328173D01*
X458306Y328321D01*
X458352Y328460D01*
X458398Y328580D01*
X458454Y328700D01*
X458500Y328802D01*
X458555Y328895D01*
X458611Y328969D01*
X458657Y329043D01*
X458703Y329098D01*
X458740Y329145D01*
X458768Y329172D01*
X458786Y329191D01*
X458796Y329200D01*
X458907Y329302D01*
X459027Y329385D01*
X459157Y329468D01*
X459286Y329533D01*
X459415Y329589D01*
X459545Y329635D01*
X459795Y329699D01*
X459915Y329727D01*
X460017Y329746D01*
X460109Y329755D01*
X460192Y329764D01*
X460266Y329773D01*
X460359D01*
X460544Y329764D01*
D02*
G37*
G36*
X408532Y206202D02*
X408764Y206174D01*
X408986Y206128D01*
X409189Y206072D01*
X409383Y206007D01*
X409569Y205933D01*
X409735Y205859D01*
X409883Y205776D01*
X410012Y205693D01*
X410133Y205619D01*
X410234Y205545D01*
X410318Y205480D01*
X410392Y205424D01*
X410438Y205378D01*
X410466Y205350D01*
X410475Y205341D01*
X410623Y205175D01*
X410752Y204999D01*
X410873Y204814D01*
X410965Y204629D01*
X411049Y204444D01*
X411123Y204259D01*
X411178Y204083D01*
X411215Y203907D01*
X411252Y203750D01*
X411280Y203593D01*
X411298Y203464D01*
X411317Y203343D01*
Y203251D01*
X411326Y203186D01*
Y203140D01*
Y203121D01*
X411317Y202890D01*
X411289Y202668D01*
X411252Y202455D01*
X411206Y202261D01*
X411150Y202076D01*
X411086Y201909D01*
X411021Y201752D01*
X410947Y201613D01*
X410873Y201484D01*
X410808Y201382D01*
X410743Y201290D01*
X410688Y201206D01*
X410641Y201151D01*
X410595Y201105D01*
X410577Y201077D01*
X410568Y201068D01*
X410420Y200929D01*
X410262Y200818D01*
X410096Y200716D01*
X409929Y200624D01*
X409754Y200550D01*
X409587Y200485D01*
X409420Y200439D01*
X409254Y200393D01*
X409106Y200365D01*
X408967Y200337D01*
X408838Y200328D01*
X408727Y200309D01*
X408634D01*
X408569Y200300D01*
X408329D01*
X408153Y200309D01*
X407987Y200328D01*
X407830Y200346D01*
X407691Y200365D01*
X407552Y200393D01*
X407432Y200420D01*
X407321Y200448D01*
X407219Y200476D01*
X407136Y200503D01*
X407062Y200531D01*
X406997Y200550D01*
X406951Y200568D01*
X406914Y200587D01*
X406895Y200596D01*
X406886D01*
Y201715D01*
X407127Y201595D01*
X407367Y201502D01*
X407598Y201438D01*
X407811Y201392D01*
X407913Y201373D01*
X407996Y201364D01*
X408079Y201355D01*
X408144D01*
X408200Y201345D01*
X408274D01*
X408422Y201355D01*
X408560Y201364D01*
X408819Y201429D01*
X409041Y201502D01*
X409134Y201549D01*
X409226Y201604D01*
X409300Y201651D01*
X409374Y201697D01*
X409430Y201734D01*
X409476Y201771D01*
X409522Y201808D01*
X409550Y201835D01*
X409559Y201845D01*
X409569Y201854D01*
X409652Y201956D01*
X409726Y202058D01*
X409791Y202168D01*
X409837Y202289D01*
X409929Y202511D01*
X409985Y202733D01*
X410003Y202825D01*
X410012Y202918D01*
X410022Y203001D01*
X410031Y203075D01*
X410040Y203131D01*
Y203177D01*
Y203204D01*
Y203214D01*
X410031Y203371D01*
X410022Y203528D01*
X409966Y203797D01*
X409920Y203926D01*
X409883Y204037D01*
X409837Y204139D01*
X409791Y204240D01*
X409744Y204324D01*
X409698Y204398D01*
X409652Y204463D01*
X409615Y204518D01*
X409587Y204555D01*
X409559Y204583D01*
X409550Y204601D01*
X409541Y204610D01*
X409439Y204703D01*
X409337Y204786D01*
X409235Y204860D01*
X409125Y204925D01*
X409004Y204971D01*
X408893Y205017D01*
X408680Y205082D01*
X408588Y205101D01*
X408496Y205119D01*
X408412Y205129D01*
X408338Y205138D01*
X408283Y205147D01*
X408200D01*
X407931Y205129D01*
X407682Y205092D01*
X407459Y205045D01*
X407265Y204980D01*
X407182Y204953D01*
X407108Y204916D01*
X407043Y204888D01*
X406988Y204870D01*
X406942Y204842D01*
X406914Y204833D01*
X406895Y204814D01*
X406886D01*
Y205989D01*
X407108Y206063D01*
X407339Y206118D01*
X407580Y206155D01*
X407793Y206183D01*
X407894Y206192D01*
X407987Y206202D01*
X408070D01*
X408144Y206211D01*
X408283D01*
X408532Y206202D01*
D02*
G37*
G36*
X415100Y200393D02*
X411742D01*
Y201382D01*
X413879D01*
Y206109D01*
X415100D01*
Y200393D01*
D02*
G37*
G36*
X405868D02*
X403898D01*
X403649Y200402D01*
X403417Y200430D01*
X403195Y200466D01*
X402983Y200513D01*
X402788Y200577D01*
X402612Y200642D01*
X402446Y200716D01*
X402289Y200790D01*
X402159Y200864D01*
X402039Y200938D01*
X401937Y201003D01*
X401854Y201068D01*
X401780Y201114D01*
X401734Y201151D01*
X401706Y201179D01*
X401697Y201188D01*
X401549Y201345D01*
X401419Y201512D01*
X401299Y201688D01*
X401206Y201863D01*
X401123Y202039D01*
X401049Y202215D01*
X400994Y202391D01*
X400948Y202557D01*
X400920Y202714D01*
X400892Y202862D01*
X400874Y202992D01*
X400855Y203103D01*
Y203195D01*
X400846Y203269D01*
Y203306D01*
Y203325D01*
X400855Y203574D01*
X400883Y203815D01*
X400920Y204037D01*
X400975Y204240D01*
X401049Y204435D01*
X401123Y204620D01*
X401216Y204786D01*
X401318Y204934D01*
X401429Y205073D01*
X401549Y205203D01*
X401678Y205323D01*
X401808Y205434D01*
X401946Y205526D01*
X402085Y205609D01*
X402363Y205757D01*
X402649Y205878D01*
X402927Y205961D01*
X403186Y206026D01*
X403417Y206063D01*
X403519Y206081D01*
X403612Y206090D01*
X403686Y206100D01*
X403759D01*
X403815Y206109D01*
X405868D01*
Y200393D01*
D02*
G37*
G36*
X442000Y293500D02*
X431668D01*
D01*
X428911D01*
X428976Y293509D01*
X429069D01*
X429179Y293528D01*
X429309Y293537D01*
X429448Y293565D01*
X429596Y293593D01*
X429762Y293639D01*
X429929Y293685D01*
X430095Y293750D01*
X430271Y293824D01*
X430438Y293916D01*
X430604Y294018D01*
X430761Y294129D01*
X430909Y294268D01*
X430919Y294277D01*
X430937Y294305D01*
X430983Y294351D01*
X431030Y294407D01*
X431085Y294490D01*
X431150Y294582D01*
X431215Y294684D01*
X431288Y294813D01*
X431362Y294952D01*
X431427Y295110D01*
X431492Y295276D01*
X431547Y295461D01*
X431594Y295655D01*
X431631Y295868D01*
X431659Y296090D01*
X431668Y296321D01*
Y299411D01*
Y296386D01*
X431659Y296451D01*
Y296543D01*
X431640Y296663D01*
X431622Y296793D01*
X431594Y296950D01*
X431557Y297108D01*
X431520Y297283D01*
X431464Y297459D01*
X431390Y297644D01*
X431307Y297829D01*
X431215Y298014D01*
X431094Y298199D01*
X430965Y298375D01*
X430817Y298541D01*
X430807Y298551D01*
X430780Y298578D01*
X430733Y298624D01*
X430659Y298680D01*
X430576Y298745D01*
X430475Y298819D01*
X430354Y298893D01*
X430225Y298976D01*
X430077Y299059D01*
X429910Y299133D01*
X429725Y299207D01*
X429531Y299272D01*
X429327Y299327D01*
X429106Y299374D01*
X428874Y299401D01*
X428624Y299411D01*
X428486D01*
X428412Y299401D01*
X428329D01*
X428236Y299392D01*
X428134Y299383D01*
X427921Y299355D01*
X427681Y299318D01*
X427450Y299263D01*
X427228Y299189D01*
Y298014D01*
X427237D01*
X427255Y298032D01*
X427283Y298042D01*
X427329Y298070D01*
X427385Y298088D01*
X427450Y298116D01*
X427524Y298153D01*
X427607Y298181D01*
X427801Y298245D01*
X428023Y298291D01*
X428273Y298328D01*
X428541Y298347D01*
X428624D01*
X428680Y298338D01*
X428754Y298328D01*
X428837Y298319D01*
X428930Y298301D01*
X429022Y298282D01*
X429235Y298218D01*
X429346Y298171D01*
X429466Y298125D01*
X429577Y298060D01*
X429679Y297986D01*
X429781Y297903D01*
X429882Y297811D01*
X429892Y297801D01*
X429901Y297783D01*
X429929Y297755D01*
X429956Y297718D01*
X429993Y297662D01*
X430040Y297598D01*
X430086Y297524D01*
X430132Y297441D01*
X430178Y297339D01*
X430225Y297237D01*
X430262Y297126D01*
X430308Y296996D01*
X430364Y296728D01*
X430373Y296571D01*
X430382Y296414D01*
Y296405D01*
Y296377D01*
Y296330D01*
X430373Y296275D01*
X430364Y296201D01*
X430354Y296118D01*
X430345Y296025D01*
X430327Y295933D01*
X430271Y295711D01*
X430178Y295489D01*
X430132Y295369D01*
X430067Y295257D01*
X429993Y295156D01*
X429910Y295054D01*
X429901Y295045D01*
X429892Y295036D01*
X429864Y295008D01*
X429818Y294971D01*
X429772Y294934D01*
X429716Y294897D01*
X429642Y294850D01*
X429568Y294804D01*
X429475Y294749D01*
X429383Y294703D01*
X429161Y294629D01*
X428902Y294564D01*
X428763Y294554D01*
X428615Y294545D01*
X428541D01*
X428486Y294554D01*
X428421D01*
X428338Y294564D01*
X428255Y294573D01*
X428153Y294591D01*
X427940Y294638D01*
X427709Y294703D01*
X427468Y294795D01*
X427228Y294915D01*
Y293500D01*
X426266D01*
Y299309D01*
X423930D01*
X425045D01*
Y295979D01*
Y295960D01*
Y295914D01*
X425035Y295849D01*
X425026Y295757D01*
X425008Y295646D01*
X424989Y295526D01*
X424952Y295396D01*
X424906Y295267D01*
X424841Y295128D01*
X424767Y294999D01*
X424675Y294878D01*
X424564Y294767D01*
X424443Y294675D01*
X424286Y294610D01*
X424111Y294564D01*
X423916Y294545D01*
X423870D01*
X423814Y294554D01*
X423740Y294564D01*
X423657Y294591D01*
X423565Y294619D01*
X423472Y294666D01*
X423361Y294721D01*
X423259Y294795D01*
X423167Y294878D01*
X423074Y294989D01*
X422991Y295128D01*
X422917Y295285D01*
X422862Y295470D01*
X422825Y295683D01*
X422816Y295923D01*
Y299309D01*
X421594D01*
Y295285D01*
Y295942D01*
X421604Y295886D01*
X421613Y295822D01*
X421622Y295739D01*
X421631Y295655D01*
X421668Y295461D01*
X421724Y295248D01*
X421789Y295017D01*
X421890Y294777D01*
X422020Y294536D01*
X422177Y294305D01*
X422270Y294194D01*
X422362Y294092D01*
X422473Y293990D01*
X422593Y293898D01*
X422732Y293814D01*
X422871Y293741D01*
X423019Y293667D01*
X423185Y293611D01*
X423361Y293565D01*
X423556Y293528D01*
X423759Y293509D01*
X423972Y293500D01*
X421594D01*
Y293509D01*
Y293500D01*
X418736D01*
Y299411D01*
X442000D01*
Y293500D01*
D02*
G37*
G36*
X427255Y293787D02*
X427292Y293768D01*
X427339Y293750D01*
X427403Y293731D01*
X427478Y293704D01*
X427561Y293676D01*
X427663Y293648D01*
X427774Y293620D01*
X427894Y293593D01*
X428032Y293565D01*
X428171Y293546D01*
X428329Y293528D01*
X428495Y293509D01*
X428671Y293500D01*
X427228D01*
Y293796D01*
X427237D01*
X427255Y293787D01*
D02*
G37*
G36*
X426266Y293500D02*
X424027D01*
X424074Y293509D01*
X424120D01*
X424185Y293518D01*
X424333Y293537D01*
X424499Y293574D01*
X424693Y293630D01*
X424906Y293704D01*
X425119Y293814D01*
X425331Y293944D01*
X425535Y294101D01*
X425637Y294203D01*
X425729Y294305D01*
X425822Y294425D01*
X425905Y294545D01*
X425988Y294684D01*
X426053Y294832D01*
X426118Y294989D01*
X426164Y295165D01*
X426210Y295350D01*
X426238Y295544D01*
X426257Y295757D01*
X426266Y295979D01*
Y293500D01*
D02*
G37*
G36*
X422130Y222451D02*
X421841D01*
X421774Y222446D01*
X421719Y222440D01*
X421674Y222429D01*
X421636Y222412D01*
X421602Y222401D01*
X421580Y222390D01*
X421569Y222384D01*
X421563Y222379D01*
X421530Y222346D01*
X421508Y222307D01*
X421491Y222268D01*
X421480Y222229D01*
X421475Y222196D01*
X421469Y222168D01*
Y222146D01*
Y222140D01*
Y218599D01*
X421275D01*
X421236Y218671D01*
X421192Y218733D01*
X421153Y218782D01*
X421108Y218821D01*
X421075Y218849D01*
X421047Y218871D01*
X421025Y218882D01*
X421020Y218888D01*
X420959Y218916D01*
X420892Y218932D01*
X420820Y218949D01*
X420753Y218954D01*
X420692Y218960D01*
X420648Y218966D01*
X420337D01*
Y219221D01*
X420809D01*
X420864Y219227D01*
X420909Y219243D01*
X420931Y219260D01*
X420936Y219265D01*
X420964Y219299D01*
X420975Y219332D01*
X420981Y219360D01*
Y219365D01*
Y219371D01*
Y222140D01*
X420975Y222196D01*
X420970Y222246D01*
X420953Y222285D01*
X420936Y222318D01*
X420920Y222346D01*
X420909Y222362D01*
X420897Y222373D01*
X420892Y222379D01*
X420853Y222401D01*
X420814Y222418D01*
X420714Y222440D01*
X420676Y222446D01*
X420637Y222451D01*
X420337D01*
Y222706D01*
X422130D01*
Y222451D01*
D02*
G37*
%LPC*%
G36*
X459290Y316849D02*
X459031D01*
X458948Y316844D01*
X458874Y316835D01*
X458810Y316816D01*
X458754Y316798D01*
X458708Y316775D01*
X458667Y316747D01*
X458634Y316715D01*
X458611Y316687D01*
X458593Y316655D01*
X458574Y316622D01*
X458560Y316571D01*
X458556Y316553D01*
X458551Y316534D01*
Y316525D01*
Y316521D01*
X458556Y316456D01*
X458569Y316401D01*
X458588Y316354D01*
X458611Y316313D01*
X458634Y316280D01*
X458653Y316257D01*
X458667Y316243D01*
X458671Y316239D01*
X458717Y316206D01*
X458773Y316183D01*
X458828Y316165D01*
X458879Y316156D01*
X458925Y316146D01*
X458967Y316142D01*
X459290D01*
Y316849D01*
D02*
G37*
G36*
Y315684D02*
X458934D01*
X458851Y315680D01*
X458777Y315670D01*
X458717Y315652D01*
X458662Y315634D01*
X458625Y315615D01*
X458593Y315597D01*
X458574Y315587D01*
X458569Y315583D01*
X458528Y315541D01*
X458496Y315495D01*
X458472Y315449D01*
X458454Y315403D01*
X458445Y315366D01*
X458440Y315329D01*
Y315310D01*
Y315301D01*
X458445Y315236D01*
X458459Y315176D01*
X458482Y315125D01*
X458505Y315084D01*
X458528Y315047D01*
X458551Y315024D01*
X458565Y315010D01*
X458569Y315005D01*
X458620Y314968D01*
X458680Y314945D01*
X458740Y314927D01*
X458796Y314913D01*
X458851Y314904D01*
X458893Y314899D01*
X459290D01*
Y315684D01*
D02*
G37*
G36*
X456121Y316821D02*
X456088D01*
X456024Y316816D01*
X455964Y316812D01*
X455853Y316779D01*
X455756Y316738D01*
X455682Y316691D01*
X455617Y316645D01*
X455576Y316604D01*
X455548Y316571D01*
X455539Y316567D01*
Y316562D01*
X455474Y316456D01*
X455428Y316345D01*
X455391Y316225D01*
X455368Y316114D01*
X455359Y316059D01*
X455354Y316012D01*
X455349Y315966D01*
Y315929D01*
X455345Y315897D01*
Y315874D01*
Y315860D01*
Y315855D01*
Y315777D01*
X455354Y315703D01*
X455377Y315569D01*
X455391Y315509D01*
X455409Y315453D01*
X455428Y315403D01*
X455446Y315356D01*
X455465Y315315D01*
X455483Y315278D01*
X455502Y315250D01*
X455516Y315222D01*
X455529Y315204D01*
X455539Y315190D01*
X455543Y315181D01*
X455548Y315176D01*
X455585Y315130D01*
X455626Y315093D01*
X455673Y315061D01*
X455719Y315028D01*
X455811Y314982D01*
X455899Y314954D01*
X455978Y314936D01*
X456015Y314931D01*
X456042Y314927D01*
X456070Y314922D01*
X456102D01*
X456167Y314927D01*
X456227Y314931D01*
X456283Y314945D01*
X456338Y314964D01*
X456430Y315005D01*
X456509Y315056D01*
X456574Y315102D01*
X456620Y315144D01*
X456634Y315162D01*
X456647Y315176D01*
X456652Y315181D01*
X456657Y315185D01*
X456694Y315236D01*
X456721Y315292D01*
X456772Y315407D01*
X456805Y315518D01*
X456832Y315629D01*
X456837Y315680D01*
X456846Y315721D01*
X456851Y315763D01*
Y315800D01*
X456855Y315828D01*
Y315851D01*
Y315864D01*
Y315869D01*
X456851Y315948D01*
X456846Y316022D01*
X456823Y316156D01*
X456791Y316271D01*
X456772Y316322D01*
X456754Y316368D01*
X456735Y316410D01*
X456717Y316447D01*
X456698Y316479D01*
X456684Y316507D01*
X456671Y316525D01*
X456661Y316539D01*
X456652Y316548D01*
Y316553D01*
X456611Y316599D01*
X456569Y316641D01*
X456523Y316678D01*
X456477Y316710D01*
X456430Y316733D01*
X456384Y316756D01*
X456292Y316789D01*
X456213Y316807D01*
X456176Y316812D01*
X456149Y316816D01*
X456121Y316821D01*
D02*
G37*
G36*
X453030D02*
X452998D01*
X452933Y316816D01*
X452873Y316812D01*
X452762Y316779D01*
X452665Y316738D01*
X452591Y316691D01*
X452527Y316645D01*
X452485Y316604D01*
X452457Y316571D01*
X452448Y316567D01*
Y316562D01*
X452383Y316456D01*
X452337Y316345D01*
X452300Y316225D01*
X452277Y316114D01*
X452268Y316059D01*
X452263Y316012D01*
X452258Y315966D01*
Y315929D01*
X452254Y315897D01*
Y315874D01*
Y315860D01*
Y315855D01*
Y315777D01*
X452263Y315703D01*
X452286Y315569D01*
X452300Y315509D01*
X452319Y315453D01*
X452337Y315403D01*
X452355Y315356D01*
X452374Y315315D01*
X452392Y315278D01*
X452411Y315250D01*
X452425Y315222D01*
X452439Y315204D01*
X452448Y315190D01*
X452453Y315181D01*
X452457Y315176D01*
X452494Y315130D01*
X452536Y315093D01*
X452582Y315061D01*
X452628Y315028D01*
X452720Y314982D01*
X452808Y314954D01*
X452887Y314936D01*
X452924Y314931D01*
X452951Y314927D01*
X452979Y314922D01*
X453012D01*
X453076Y314927D01*
X453136Y314931D01*
X453192Y314945D01*
X453247Y314964D01*
X453340Y315005D01*
X453418Y315056D01*
X453483Y315102D01*
X453529Y315144D01*
X453543Y315162D01*
X453557Y315176D01*
X453561Y315181D01*
X453566Y315185D01*
X453603Y315236D01*
X453631Y315292D01*
X453682Y315407D01*
X453714Y315518D01*
X453742Y315629D01*
X453746Y315680D01*
X453755Y315721D01*
X453760Y315763D01*
Y315800D01*
X453765Y315828D01*
Y315851D01*
Y315864D01*
Y315869D01*
X453760Y315948D01*
X453755Y316022D01*
X453732Y316156D01*
X453700Y316271D01*
X453682Y316322D01*
X453663Y316368D01*
X453645Y316410D01*
X453626Y316447D01*
X453608Y316479D01*
X453594Y316507D01*
X453580Y316525D01*
X453571Y316539D01*
X453561Y316548D01*
Y316553D01*
X453520Y316599D01*
X453478Y316641D01*
X453432Y316678D01*
X453386Y316710D01*
X453340Y316733D01*
X453293Y316756D01*
X453201Y316789D01*
X453123Y316807D01*
X453086Y316812D01*
X453058Y316816D01*
X453030Y316821D01*
D02*
G37*
G36*
X460405Y328858D02*
X460387D01*
X460220Y328849D01*
X460072Y328802D01*
X459943Y328747D01*
X459832Y328673D01*
X459739Y328580D01*
X459656Y328479D01*
X459591Y328377D01*
X459545Y328266D01*
X459508Y328155D01*
X459471Y328044D01*
X459452Y327942D01*
X459443Y327850D01*
X459434Y327776D01*
X459425Y327720D01*
Y327674D01*
Y327664D01*
X459434Y327443D01*
X459462Y327248D01*
X459517Y327082D01*
X459573Y326934D01*
X459647Y326814D01*
X459730Y326712D01*
X459813Y326628D01*
X459906Y326564D01*
X459998Y326508D01*
X460081Y326471D01*
X460165Y326444D01*
X460239Y326425D01*
X460294Y326416D01*
X460340Y326407D01*
X460387D01*
X460563Y326425D01*
X460720Y326462D01*
X460849Y326518D01*
X460960Y326601D01*
X461062Y326693D01*
X461145Y326795D01*
X461210Y326906D01*
X461256Y327017D01*
X461303Y327128D01*
X461330Y327239D01*
X461358Y327341D01*
X461367Y327433D01*
X461376Y327517D01*
X461386Y327572D01*
Y327618D01*
Y327627D01*
X461376Y327831D01*
X461349Y328016D01*
X461303Y328173D01*
X461256Y328303D01*
X461210Y328404D01*
X461164Y328479D01*
X461136Y328516D01*
X461127Y328534D01*
X461016Y328645D01*
X460895Y328719D01*
X460775Y328774D01*
X460655Y328821D01*
X460553Y328839D01*
X460461Y328849D01*
X460405Y328858D01*
D02*
G37*
G36*
X404647Y205110D02*
X403991D01*
X403833Y205101D01*
X403695Y205092D01*
X403427Y205036D01*
X403195Y204962D01*
X403093Y204916D01*
X403001Y204870D01*
X402918Y204823D01*
X402844Y204777D01*
X402788Y204740D01*
X402733Y204703D01*
X402696Y204675D01*
X402668Y204647D01*
X402649Y204638D01*
X402640Y204629D01*
X402548Y204537D01*
X402464Y204435D01*
X402400Y204333D01*
X402344Y204222D01*
X402252Y204000D01*
X402187Y203787D01*
X402150Y203602D01*
X402141Y203519D01*
X402132Y203445D01*
X402122Y203390D01*
Y203343D01*
Y203315D01*
Y203306D01*
X402132Y203149D01*
X402141Y202992D01*
X402169Y202844D01*
X402196Y202714D01*
X402233Y202585D01*
X402280Y202474D01*
X402326Y202363D01*
X402372Y202270D01*
X402418Y202187D01*
X402464Y202113D01*
X402501Y202048D01*
X402548Y201993D01*
X402575Y201956D01*
X402603Y201928D01*
X402612Y201909D01*
X402622Y201900D01*
X402714Y201808D01*
X402825Y201734D01*
X402927Y201660D01*
X403038Y201604D01*
X403269Y201512D01*
X403482Y201447D01*
X403584Y201429D01*
X403676Y201410D01*
X403769Y201401D01*
X403833Y201392D01*
X403898Y201382D01*
X404647D01*
Y205110D01*
D02*
G37*
G36*
X439086Y299309D02*
X437310D01*
X436080Y295849D01*
X436071Y295831D01*
X436052Y295776D01*
X436025Y295692D01*
X435997Y295590D01*
X435960Y295470D01*
X435923Y295332D01*
X435895Y295193D01*
X435867Y295045D01*
X435840D01*
Y295054D01*
X435830Y295063D01*
Y295091D01*
X435821Y295128D01*
X435793Y295211D01*
X435766Y295322D01*
X435738Y295452D01*
X435691Y295590D01*
X435654Y295729D01*
X435608Y295859D01*
X434369Y299309D01*
X432639D01*
Y293593D01*
X439086D01*
Y299309D01*
D02*
G37*
%LPD*%
G36*
X438032Y298264D02*
Y298245D01*
Y298199D01*
X438023Y298153D01*
Y298088D01*
X438013Y298005D01*
Y297921D01*
X438004Y297820D01*
Y297598D01*
X437995Y297357D01*
X437986Y297089D01*
Y296821D01*
Y293593D01*
X436385D01*
X437819Y297496D01*
Y297505D01*
X437828Y297524D01*
X437847Y297570D01*
X437865Y297644D01*
X437884Y297746D01*
X437902Y297811D01*
X437921Y297884D01*
X437939Y297968D01*
X437958Y298060D01*
X437976Y298162D01*
X438004Y298273D01*
X438032D01*
Y298264D01*
D02*
G37*
G36*
X433832D02*
Y298245D01*
X433842Y298218D01*
X433851Y298181D01*
X433869Y298088D01*
X433897Y297977D01*
X433925Y297848D01*
X433953Y297727D01*
X433980Y297616D01*
X434008Y297533D01*
X435414Y293593D01*
X433851D01*
Y297061D01*
Y297071D01*
Y297080D01*
Y297108D01*
Y297145D01*
Y297200D01*
Y297255D01*
X433842Y297394D01*
Y297570D01*
X433823Y297774D01*
X433814Y298014D01*
X433795Y298273D01*
X433832D01*
Y298264D01*
D02*
G37*
D11*
X363600Y200400D02*
G03*
X369456Y200452I2897J3545D01*
G01*
X369400Y211600D02*
G03*
X363544Y211548I-2897J-3545D01*
G01*
X469900Y319000D02*
G03*
X464044Y318948I-2897J-3545D01*
G01*
X464100Y307800D02*
G03*
X469956Y307852I2897J3545D01*
G01*
X430000Y312900D02*
G03*
X430052Y307044I3545J-2897D01*
G01*
X441200Y307100D02*
G03*
X441148Y312956I-3545J2897D01*
G01*
X365980Y245948D02*
G03*
X370158Y241845I4555J458D01*
G01*
X378001Y249767D02*
G03*
X373823Y253870I-4555J-458D01*
G01*
X346300Y295900D02*
G03*
X346352Y290044I3545J-2897D01*
G01*
X357500Y290100D02*
G03*
X357448Y295956I-3545J2897D01*
G01*
X402377Y335763D02*
G03*
X402429Y329907I3545J-2897D01*
G01*
X413577Y329963D02*
G03*
X413525Y335819I-3545J2897D01*
G01*
X460200Y204100D02*
G03*
X460148Y209956I-3545J2897D01*
G01*
X449000Y209900D02*
G03*
X449052Y204044I3545J-2897D01*
G01*
X372100Y290100D02*
G03*
X372048Y295956I-3545J2897D01*
G01*
X360900Y295900D02*
G03*
X360952Y290044I3545J-2897D01*
G01*
X427877Y230354D02*
G03*
X424924Y233306I-2953J0D01*
G01*
X386420Y233306D02*
G03*
X383468Y230353I0J-2953D01*
G01*
X378900Y229100D02*
G03*
X373044Y229048I-2897J-3545D01*
G01*
X373100Y217900D02*
G03*
X378956Y217952I2897J3545D01*
G01*
X428306Y241776D02*
G03*
X432410Y245954I-458J4555D01*
G01*
X424488Y253797D02*
G03*
X420384Y249620I458J-4555D01*
G01*
X397937Y329963D02*
G03*
X397885Y335819I-3545J2897D01*
G01*
X386737Y335763D02*
G03*
X386789Y329907I3545J-2897D01*
G01*
X382562Y329963D02*
G03*
X382509Y335819I-3545J2897D01*
G01*
X371362Y335763D02*
G03*
X371414Y329907I3545J-2897D01*
G01*
X364362Y308759D02*
G03*
X364414Y302903I3545J-2897D01*
G01*
X375562Y302959D02*
G03*
X375509Y308814I-3545J2897D01*
G01*
X357718Y323706D02*
Y329776D01*
Y339446D02*
Y344846D01*
X322058Y323676D02*
Y329796D01*
Y344846D02*
X357718D01*
X322058Y339426D02*
Y344846D01*
X324343Y220166D02*
X325029D01*
X340192D02*
X340878D01*
X324343Y296150D02*
X325029D01*
X340192D02*
X340878D01*
Y289974D02*
Y296150D01*
X324343Y288005D02*
Y296150D01*
Y220166D02*
Y228311D01*
X336121Y222725D02*
X337532D01*
Y293591D01*
X327689Y291623D02*
X329165Y293098D01*
X327689Y225678D02*
Y291623D01*
Y225678D02*
X329402Y223965D01*
X340878Y220166D02*
Y226343D01*
X446389Y289973D02*
Y296149D01*
X457865Y292350D02*
X459579Y290637D01*
Y224693D02*
Y290637D01*
X458103Y223217D02*
X459579Y224693D01*
X449736Y222724D02*
Y293590D01*
X451147D01*
X462925Y288004D02*
Y296149D01*
Y220165D02*
Y228310D01*
X446389Y220165D02*
Y226342D01*
Y220165D02*
X447076D01*
X462238D02*
X462925D01*
X446389Y296149D02*
X447076D01*
X462238D02*
X462925D01*
X363500Y207700D02*
Y211400D01*
X369500Y207700D02*
Y211500D01*
Y200500D02*
Y204200D01*
X363500Y200500D02*
Y204200D01*
X470000Y308000D02*
Y311700D01*
X464000Y307900D02*
Y311700D01*
X464000Y315200D02*
X464000Y318900D01*
X470000D02*
X470000Y315200D01*
X437300Y313000D02*
X441000D01*
X437300Y307000D02*
X441100D01*
X430100D02*
X433800Y307000D01*
X430100Y313000D02*
X433800Y313000D01*
X371071Y251181D02*
X373688Y253797D01*
X375314Y246938D02*
X378001Y249625D01*
X370223Y241847D02*
X372839Y244463D01*
X365980Y246090D02*
X368597Y248706D01*
X353700Y290000D02*
X357400Y290000D01*
X353700Y296000D02*
X357400Y296000D01*
X346400D02*
X350200Y296000D01*
X346500Y290000D02*
X350200Y290000D01*
X409677Y335863D02*
X413377Y335863D01*
X409677Y329863D02*
X413477Y329863D01*
X402477D02*
X406177D01*
X402477Y335863D02*
X406177D01*
X449100Y210000D02*
X452800Y210000D01*
X449100Y204000D02*
X452800Y204000D01*
X456300Y204000D02*
X460100D01*
X456300Y210000D02*
X460000D01*
X361000Y296000D02*
X364700Y296000D01*
X361000Y290000D02*
X364700Y290000D01*
X368200Y290000D02*
X372000D01*
X368200Y296000D02*
X371900D01*
X380655Y253486D02*
X380655Y287738D01*
X383411Y290494D01*
X417662Y290494D01*
X380655Y253486D02*
X417662D01*
Y290494D01*
X373000Y218000D02*
Y221700D01*
X379000Y218000D02*
Y221700D01*
Y225200D02*
Y229000D01*
X373000Y225200D02*
Y228900D01*
X424629Y253797D02*
X427246Y251181D01*
X420387Y249554D02*
X423003Y246938D01*
X425478Y244463D02*
X428165Y241776D01*
X429720Y248706D02*
X432337Y246090D01*
X386837Y335863D02*
X390537D01*
X386837Y329863D02*
X390537D01*
X394037Y329863D02*
X397837Y329863D01*
X394037Y335863D02*
X397737Y335863D01*
X371462D02*
X375162Y335863D01*
X371462Y329863D02*
X375162Y329863D01*
X378662D02*
X382462Y329863D01*
X378662Y335863D02*
X382362Y335863D01*
X371762Y302859D02*
X375462Y302859D01*
X371762Y308859D02*
X375462Y308859D01*
X364462Y308859D02*
X368262Y308859D01*
X364562Y302859D02*
X368262Y302859D01*
X406343Y312104D02*
Y315307D01*
X403140Y312104D02*
X406343D01*
X380163Y326664D02*
X380163Y323462D01*
X380163Y326664D02*
X383366Y326664D01*
X380163Y312104D02*
X383366D01*
X406343Y323462D02*
Y326664D01*
X403140D02*
X406343D01*
X380163Y312104D02*
X380163Y315307D01*
D12*
X371462Y320361D02*
X375462D01*
Y318361D02*
Y320361D01*
X371462Y318361D02*
X375462D01*
X371462D02*
Y320361D01*
Y321561D02*
X375462Y321561D01*
X371462Y317161D02*
X375462Y317161D01*
D13*
X361741Y326415D02*
X366859D01*
X361741Y315785D02*
X366859D01*
X366859Y319525D01*
X366859Y326415D02*
X366859Y322675D01*
X361741Y319525D02*
X361741Y315785D01*
X361741Y322675D02*
X361741Y326415D01*
X429498Y326000D02*
Y329969D01*
X441702Y326000D02*
X441702Y329969D01*
X429498D02*
X441702D01*
X429498Y326000D02*
X441702D01*
X459815Y196441D02*
Y201559D01*
X449185Y196441D02*
Y201559D01*
Y196441D02*
X452925Y196441D01*
X456075D02*
X459815Y196441D01*
X449185Y201559D02*
X452925Y201559D01*
X456075D02*
X459815Y201559D01*
X344185Y304441D02*
X347925Y304441D01*
X351075D02*
X354815Y304441D01*
X344185Y309559D02*
X347925Y309559D01*
X351075D02*
X354815Y309559D01*
Y304441D02*
Y309559D01*
X344185Y304441D02*
Y309559D01*
X459815Y307441D02*
Y312559D01*
X449185Y307441D02*
Y312559D01*
Y307441D02*
X452925Y307441D01*
X456075D02*
X459815Y307441D01*
X449185Y312559D02*
X452925Y312559D01*
X456075D02*
X459815Y312559D01*
X344185Y297941D02*
Y303059D01*
X354815Y297941D02*
Y303059D01*
X351075Y303059D02*
X354815Y303059D01*
X344185D02*
X347925Y303059D01*
X351075Y297941D02*
X354815D01*
X344185Y297941D02*
X347925Y297941D01*
X391374Y210614D02*
Y215732D01*
X402004Y210614D02*
Y215732D01*
X398264D02*
X402004D01*
X391374D02*
X395114D01*
X398264Y210614D02*
X402004D01*
X391374D02*
X395114D01*
X416177Y210004D02*
Y215122D01*
X426807Y210004D02*
Y215122D01*
X423067D02*
X426807D01*
X416177D02*
X419917D01*
X423067Y210004D02*
X426807D01*
X416177D02*
X419917D01*
D14*
X366217Y248600D02*
X371417Y253800D01*
X426900D02*
X432100Y248600D01*
X365017Y205453D02*
X367970D01*
X365017Y206437D02*
X367970D01*
X465530Y313947D02*
X468483D01*
X465530Y312963D02*
X468483D01*
X435053Y308530D02*
Y311483D01*
X436037Y308530D02*
Y311483D01*
X370555Y248519D02*
X372643Y246431D01*
X371251Y249215D02*
X373339Y247127D01*
X351463Y291517D02*
Y294470D01*
X352447Y291517D02*
Y294470D01*
X407430Y334346D02*
X407430Y331393D01*
X408414Y334346D02*
X408414Y331393D01*
X455037Y205530D02*
Y208483D01*
X454053Y205530D02*
Y208483D01*
X366937Y291530D02*
Y294483D01*
X365953Y291530D02*
Y294483D01*
X374517Y223937D02*
X377470D01*
X374517Y222953D02*
X377470D01*
X425667Y246439D02*
X427755Y248526D01*
X424971Y247134D02*
X427059Y249222D01*
X392774Y331393D02*
Y334346D01*
X391790Y331393D02*
Y334346D01*
X377399Y331393D02*
Y334346D01*
X376414Y331393D02*
Y334346D01*
X369525Y304376D02*
Y307328D01*
X370509Y304376D02*
Y307328D01*
D16*
X436697Y205432D02*
Y215431D01*
X435751Y216377D02*
X436697Y215431D01*
X427877Y216377D02*
X435751Y216377D01*
X427877Y216377D02*
Y231338D01*
X383468Y214238D02*
Y231338D01*
D80*
X429596Y334500D02*
G03*
X429596Y334500I-492J0D01*
G01*
D81*
X384985Y286557D02*
G03*
X384985Y286557I-394J0D01*
G01*
D82*
X391238Y315209D02*
Y323479D01*
X393998Y323089D02*
X393998Y315609D01*
X392418D02*
X393998D01*
X392418D02*
X392418Y323089D01*
X393998Y323089D01*
X395178Y323479D02*
X395178Y315209D01*
X389643Y319344D02*
X390823D01*
X395553Y319384D02*
X396953D01*
D83*
X319500Y296618D02*
D03*
X376000Y204118D02*
D03*
M02*
