G04*
G04 #@! TF.GenerationSoftware,Altium Limited,Altium Designer,21.2.1 (34)*
G04*
G04 Layer_Color=2752767*
%FSLAX25Y25*%
%MOIN*%
G70*
G04*
G04 #@! TF.SameCoordinates,2553E21A-E740-48D2-A68A-D9BBB884D7A6*
G04*
G04*
G04 #@! TF.FilePolarity,Positive*
G04*
G01*
G75*
%ADD89C,0.00200*%
%ADD90C,0.00267*%
D89*
X431320Y319563D02*
Y321163D01*
X429720D01*
Y319563D01*
X431320D01*
X454076D02*
Y321163D01*
X452476D01*
Y319563D01*
X454076D01*
X424890Y333806D02*
X425690Y335406D01*
X424090D01*
X424890Y333806D01*
X458910D02*
X459710Y335406D01*
X458110D01*
X458910Y333806D01*
X449067Y292988D02*
X448667Y293388D01*
X448267D01*
X448667Y293788D01*
X448267Y294188D01*
X448667D01*
X449067Y294588D01*
X449467Y294188D01*
X449867D01*
X449467Y293788D01*
X449867Y293388D01*
X449467D01*
X449067Y292988D01*
Y221728D02*
X448667Y222128D01*
X448267D01*
X448667Y222528D01*
X448267Y222928D01*
X448667D01*
X449067Y223328D01*
X449467Y222928D01*
X449867D01*
X449467Y222528D01*
X449867Y222128D01*
X449467D01*
X449067Y221728D01*
X327020Y292988D02*
X326620Y293388D01*
X326220D01*
X326620Y293788D01*
X326220Y294188D01*
X326620D01*
X327020Y294588D01*
X327420Y294188D01*
X327820D01*
X327420Y293788D01*
X327820Y293388D01*
X327420D01*
X327020Y292988D01*
Y221728D02*
X326620Y222128D01*
X326220D01*
X326620Y222528D01*
X326220Y222928D01*
X326620D01*
X327020Y223328D01*
X327420Y222928D01*
X327820D01*
X327420Y222528D01*
X327820Y222128D01*
X327420D01*
X327020Y221728D01*
X459710Y200074D02*
X459310Y200874D01*
X459710Y201674D01*
X458910Y201274D01*
X458110Y201674D01*
X458510Y200874D01*
X458110Y200074D01*
X458910Y200474D01*
X459710Y200074D01*
X394678Y338300D02*
Y337900D01*
X393878D01*
Y338300D01*
X393478D01*
Y339100D01*
X393878D01*
Y339500D01*
X394678D01*
Y339100D01*
X395078D01*
Y338300D01*
X394678D01*
X446956Y243979D02*
Y243579D01*
X446156D01*
Y243979D01*
X445756D01*
Y244778D01*
X446156D01*
Y245179D01*
X446956D01*
Y244778D01*
X447356D01*
Y243979D01*
X446956D01*
X320778Y331432D02*
Y331032D01*
X319978D01*
Y331432D01*
X319578D01*
Y332232D01*
X319978D01*
Y332632D01*
X320778D01*
Y332232D01*
X321178D01*
Y331432D01*
X320778D01*
X373178Y236100D02*
Y235700D01*
X372378D01*
Y236100D01*
X371978D01*
Y236900D01*
X372378D01*
Y237300D01*
X373178D01*
Y236900D01*
X373578D01*
Y236100D01*
X373178D01*
X360978Y326300D02*
Y325900D01*
X360178D01*
Y326300D01*
X359778D01*
Y327100D01*
X360178D01*
Y327500D01*
X360978D01*
Y327100D01*
X361378D01*
Y326300D01*
X360978D01*
X375078Y264600D02*
Y264200D01*
X374278D01*
Y264600D01*
X373878D01*
Y265400D01*
X374278D01*
Y265800D01*
X375078D01*
Y265400D01*
X375478D01*
Y264600D01*
X375078D01*
X386562Y284715D02*
Y284315D01*
X385762D01*
Y284715D01*
X385362D01*
Y285515D01*
X385762D01*
Y285915D01*
X386562D01*
Y285515D01*
X386962D01*
Y284715D01*
X386562D01*
X368078Y284496D02*
Y284096D01*
X367278D01*
Y284496D01*
X366878D01*
Y285296D01*
X367278D01*
Y285696D01*
X368078D01*
Y285296D01*
X368478D01*
Y284496D01*
X368078D01*
X366278Y287500D02*
Y287100D01*
X365478D01*
Y287500D01*
X365078D01*
Y288300D01*
X365478D01*
Y288700D01*
X366278D01*
Y288300D01*
X366678D01*
Y287500D01*
X366278D01*
X403378Y296500D02*
Y296100D01*
X402578D01*
Y296500D01*
X402178D01*
Y297300D01*
X402578D01*
Y297700D01*
X403378D01*
Y297300D01*
X403778D01*
Y296500D01*
X403378D01*
X420078Y299100D02*
Y298700D01*
X419278D01*
Y299100D01*
X418878D01*
Y299900D01*
X419278D01*
Y300300D01*
X420078D01*
Y299900D01*
X420478D01*
Y299100D01*
X420078D01*
X375678Y305400D02*
Y305000D01*
X374878D01*
Y305400D01*
X374478D01*
Y306200D01*
X374878D01*
Y306600D01*
X375678D01*
Y306200D01*
X376078D01*
Y305400D01*
X375678D01*
X400380Y278458D02*
Y278058D01*
X399580D01*
Y278458D01*
X399180D01*
Y279258D01*
X399580D01*
Y279658D01*
X400380D01*
Y279258D01*
X400780D01*
Y278458D01*
X400380D01*
X407278Y290600D02*
Y290200D01*
X406478D01*
Y290600D01*
X406078D01*
Y291400D01*
X406478D01*
Y291800D01*
X407278D01*
Y291400D01*
X407678D01*
Y290600D01*
X407278D01*
X378778Y256500D02*
Y256100D01*
X377978D01*
Y256500D01*
X377578D01*
Y257300D01*
X377978D01*
Y257700D01*
X378778D01*
Y257300D01*
X379178D01*
Y256500D01*
X378778D01*
X384278Y258400D02*
Y258000D01*
X383478D01*
Y258400D01*
X383078D01*
Y259200D01*
X383478D01*
Y259600D01*
X384278D01*
Y259200D01*
X384678D01*
Y258400D01*
X384278D01*
X378978Y260600D02*
Y260200D01*
X378178D01*
Y260600D01*
X377778D01*
Y261400D01*
X378178D01*
Y261800D01*
X378978D01*
Y261400D01*
X379378D01*
Y260600D01*
X378978D01*
X451256Y250422D02*
Y250022D01*
X450456D01*
Y250422D01*
X450056D01*
Y251221D01*
X450456D01*
Y251622D01*
X451256D01*
Y251221D01*
X451656D01*
Y250422D01*
X451256D01*
X432909Y329452D02*
Y329052D01*
X432109D01*
Y329452D01*
X431709D01*
Y330252D01*
X432109D01*
Y330652D01*
X432909D01*
Y330252D01*
X433309D01*
Y329452D01*
X432909D01*
X446956Y240041D02*
Y239641D01*
X446156D01*
Y240041D01*
X445756D01*
Y240842D01*
X446156D01*
Y241242D01*
X446956D01*
Y240842D01*
X447356D01*
Y240041D01*
X446956D01*
X441318Y307687D02*
Y307287D01*
X440518D01*
Y307687D01*
X440118D01*
Y308487D01*
X440518D01*
Y308887D01*
X441318D01*
Y308487D01*
X441718D01*
Y307687D01*
X441318D01*
X313578Y302600D02*
Y302200D01*
X312778D01*
Y302600D01*
X312378D01*
Y303400D01*
X312778D01*
Y303800D01*
X313578D01*
Y303400D01*
X313978D01*
Y302600D01*
X313578D01*
X339578Y300600D02*
Y300200D01*
X338778D01*
Y300600D01*
X338378D01*
Y301400D01*
X338778D01*
Y301800D01*
X339578D01*
Y301400D01*
X339978D01*
Y300600D01*
X339578D01*
X348078Y235600D02*
Y235200D01*
X347278D01*
Y235600D01*
X346878D01*
Y236400D01*
X347278D01*
Y236800D01*
X348078D01*
Y236400D01*
X348478D01*
Y235600D01*
X348078D01*
X360578Y241100D02*
Y240700D01*
X359778D01*
Y241100D01*
X359378D01*
Y241900D01*
X359778D01*
Y242300D01*
X360578D01*
Y241900D01*
X360978D01*
Y241100D01*
X360578D01*
X396078Y220600D02*
Y220200D01*
X395278D01*
Y220600D01*
X394878D01*
Y221400D01*
X395278D01*
Y221800D01*
X396078D01*
Y221400D01*
X396478D01*
Y220600D01*
X396078D01*
X426578Y236100D02*
Y235700D01*
X425778D01*
Y236100D01*
X425378D01*
Y236900D01*
X425778D01*
Y237300D01*
X426578D01*
Y236900D01*
X426978D01*
Y236100D01*
X426578D01*
X357078Y203600D02*
Y203200D01*
X356278D01*
Y203600D01*
X355878D01*
Y204400D01*
X356278D01*
Y204800D01*
X357078D01*
Y204400D01*
X357478D01*
Y203600D01*
X357078D01*
X364078D02*
Y203200D01*
X363278D01*
Y203600D01*
X362878D01*
Y204400D01*
X363278D01*
Y204800D01*
X364078D01*
Y204400D01*
X364478D01*
Y203600D01*
X364078D01*
X426078Y201600D02*
Y201200D01*
X425278D01*
Y201600D01*
X424878D01*
Y202400D01*
X425278D01*
Y202800D01*
X426078D01*
Y202400D01*
X426478D01*
Y201600D01*
X426078D01*
Y208600D02*
Y208200D01*
X425278D01*
Y208600D01*
X424878D01*
Y209400D01*
X425278D01*
Y209800D01*
X426078D01*
Y209400D01*
X426478D01*
Y208600D01*
X426078D01*
X348078Y228600D02*
Y228200D01*
X347278D01*
Y228600D01*
X346878D01*
Y229400D01*
X347278D01*
Y229800D01*
X348078D01*
Y229400D01*
X348478D01*
Y228600D01*
X348078D01*
X327420Y239258D02*
Y238858D01*
X326620D01*
Y239258D01*
X326220D01*
Y240057D01*
X326620D01*
Y240458D01*
X327420D01*
Y240057D01*
X327820D01*
Y239258D01*
X327420D01*
Y232258D02*
Y231857D01*
X326620D01*
Y232258D01*
X326220D01*
Y233057D01*
X326620D01*
Y233457D01*
X327420D01*
Y233057D01*
X327820D01*
Y232258D01*
X327420D01*
X422878Y287200D02*
Y286800D01*
X422078D01*
Y287200D01*
X421678D01*
Y288000D01*
X422078D01*
Y288400D01*
X422878D01*
Y288000D01*
X423278D01*
Y287200D01*
X422878D01*
X450478Y258200D02*
Y257800D01*
X449678D01*
Y258200D01*
X449278D01*
Y259000D01*
X449678D01*
Y259400D01*
X450478D01*
Y259000D01*
X450878D01*
Y258200D01*
X450478D01*
X386578Y254100D02*
Y253700D01*
X385778D01*
Y254100D01*
X385378D01*
Y254900D01*
X385778D01*
Y255300D01*
X386578D01*
Y254900D01*
X386978D01*
Y254100D01*
X386578D01*
X450478Y261695D02*
Y261295D01*
X449678D01*
Y261695D01*
X449278D01*
Y262495D01*
X449678D01*
Y262895D01*
X450478D01*
Y262495D01*
X450878D01*
Y261695D01*
X450478D01*
X368078Y266669D02*
Y266269D01*
X367278D01*
Y266669D01*
X366878D01*
Y267469D01*
X367278D01*
Y267869D01*
X368078D01*
Y267469D01*
X368478D01*
Y266669D01*
X368078D01*
X371560Y276582D02*
Y276182D01*
X370760D01*
Y276582D01*
X370360D01*
Y277382D01*
X370760D01*
Y277782D01*
X371560D01*
Y277382D01*
X371960D01*
Y276582D01*
X371560D01*
X371278Y282046D02*
Y281646D01*
X370478D01*
Y282046D01*
X370078D01*
Y282846D01*
X370478D01*
Y283246D01*
X371278D01*
Y282846D01*
X371678D01*
Y282046D01*
X371278D01*
X368078Y274000D02*
Y273600D01*
X367278D01*
Y274000D01*
X366878D01*
Y274800D01*
X367278D01*
Y275200D01*
X368078D01*
Y274800D01*
X368478D01*
Y274000D01*
X368078D01*
Y279400D02*
Y279000D01*
X367278D01*
Y279400D01*
X366878D01*
Y280200D01*
X367278D01*
Y280600D01*
X368078D01*
Y280200D01*
X368478D01*
Y279400D01*
X368078D01*
X336578Y309600D02*
Y309200D01*
X335778D01*
Y309600D01*
X335378D01*
Y310400D01*
X335778D01*
Y310800D01*
X336578D01*
Y310400D01*
X336978D01*
Y309600D01*
X336578D01*
X364078Y302100D02*
Y301700D01*
X363278D01*
Y302100D01*
X362878D01*
Y302900D01*
X363278D01*
Y303300D01*
X364078D01*
Y302900D01*
X364478D01*
Y302100D01*
X364078D01*
X430078Y288600D02*
Y288200D01*
X429278D01*
Y288600D01*
X428878D01*
Y289400D01*
X429278D01*
Y289800D01*
X430078D01*
Y289400D01*
X430478D01*
Y288600D01*
X430078D01*
X382578Y220600D02*
Y220200D01*
X381778D01*
Y220600D01*
X381378D01*
Y221400D01*
X381778D01*
Y221800D01*
X382578D01*
Y221400D01*
X382978D01*
Y220600D01*
X382578D01*
X374578D02*
Y220200D01*
X373778D01*
Y220600D01*
X373378D01*
Y221400D01*
X373778D01*
Y221800D01*
X374578D01*
Y221400D01*
X374978D01*
Y220600D01*
X374578D01*
X462578Y298722D02*
Y298322D01*
X461778D01*
Y298722D01*
X461378D01*
Y299521D01*
X461778D01*
Y299921D01*
X462578D01*
Y299521D01*
X462978D01*
Y298722D01*
X462578D01*
X464878Y252300D02*
Y251900D01*
X464078D01*
Y252300D01*
X463678D01*
Y253100D01*
X464078D01*
Y253500D01*
X464878D01*
Y253100D01*
X465278D01*
Y252300D01*
X464878D01*
X438078Y219600D02*
Y219200D01*
X437278D01*
Y219600D01*
X436878D01*
Y220400D01*
X437278D01*
Y220800D01*
X438078D01*
Y220400D01*
X438478D01*
Y219600D01*
X438078D01*
X421078Y241600D02*
Y241200D01*
X420278D01*
Y241600D01*
X419878D01*
Y242400D01*
X420278D01*
Y242800D01*
X421078D01*
Y242400D01*
X421478D01*
Y241600D01*
X421078D01*
X350078Y288900D02*
Y288500D01*
X349278D01*
Y288900D01*
X348878D01*
Y289700D01*
X349278D01*
Y290100D01*
X350078D01*
Y289700D01*
X350478D01*
Y288900D01*
X350078D01*
X364515Y310663D02*
Y310263D01*
X363715D01*
Y310663D01*
X363315D01*
Y311463D01*
X363715D01*
Y311863D01*
X364515D01*
Y311463D01*
X364915D01*
Y310663D01*
X364515D01*
X372078Y315600D02*
Y315200D01*
X371278D01*
Y315600D01*
X370878D01*
Y316400D01*
X371278D01*
Y316800D01*
X372078D01*
Y316400D01*
X372478D01*
Y315600D01*
X372078D01*
X436578Y322100D02*
Y321700D01*
X435778D01*
Y322100D01*
X435378D01*
Y322900D01*
X435778D01*
Y323300D01*
X436578D01*
Y322900D01*
X436978D01*
Y322100D01*
X436578D01*
X318078Y197400D02*
Y197000D01*
X317278D01*
Y197400D01*
X316878D01*
Y198200D01*
X317278D01*
Y198600D01*
X318078D01*
Y198200D01*
X318478D01*
Y197400D01*
X318078D01*
X325878Y273505D02*
Y273105D01*
X325078D01*
Y273505D01*
X324678D01*
Y274305D01*
X325078D01*
Y274705D01*
X325878D01*
Y274305D01*
X326278D01*
Y273505D01*
X325878D01*
X463078Y208600D02*
Y208200D01*
X462278D01*
Y208600D01*
X461878D01*
Y209400D01*
X462278D01*
Y209800D01*
X463078D01*
Y209400D01*
X463478D01*
Y208600D01*
X463078D01*
X375078Y260400D02*
Y260000D01*
X374278D01*
Y260400D01*
X373878D01*
Y261200D01*
X374278D01*
Y261600D01*
X375078D01*
Y261200D01*
X375478D01*
Y260400D01*
X375078D01*
X325747Y253951D02*
Y253551D01*
X324947D01*
Y253951D01*
X324547D01*
Y254751D01*
X324947D01*
Y255151D01*
X325747D01*
Y254751D01*
X326147D01*
Y253951D01*
X325747D01*
X439349Y318131D02*
Y317731D01*
X438549D01*
Y318131D01*
X438149D01*
Y318931D01*
X438549D01*
Y319331D01*
X439349D01*
Y318931D01*
X439749D01*
Y318131D01*
X439349D01*
X325878Y245946D02*
Y245546D01*
X325078D01*
Y245946D01*
X324678D01*
Y246746D01*
X325078D01*
Y247146D01*
X325878D01*
Y246746D01*
X326278D01*
Y245946D01*
X325878D01*
Y249883D02*
Y249483D01*
X325078D01*
Y249883D01*
X324678D01*
Y250683D01*
X325078D01*
Y251083D01*
X325878D01*
Y250683D01*
X326278D01*
Y249883D01*
X325878D01*
Y257757D02*
Y257357D01*
X325078D01*
Y257757D01*
X324678D01*
Y258557D01*
X325078D01*
Y258957D01*
X325878D01*
Y258557D01*
X326278D01*
Y257757D01*
X325878D01*
Y269568D02*
Y269168D01*
X325078D01*
Y269568D01*
X324678D01*
Y270368D01*
X325078D01*
Y270768D01*
X325878D01*
Y270368D01*
X326278D01*
Y269568D01*
X325878D01*
X450478Y277443D02*
Y277043D01*
X449678D01*
Y277443D01*
X449278D01*
Y278243D01*
X449678D01*
Y278643D01*
X450478D01*
Y278243D01*
X450878D01*
Y277443D01*
X450478D01*
Y273506D02*
Y273106D01*
X449678D01*
Y273506D01*
X449278D01*
Y274306D01*
X449678D01*
Y274706D01*
X450478D01*
Y274306D01*
X450878D01*
Y273506D01*
X450478D01*
Y269569D02*
Y269169D01*
X449678D01*
Y269569D01*
X449278D01*
Y270369D01*
X449678D01*
Y270769D01*
X450478D01*
Y270369D01*
X450878D01*
Y269569D01*
X450478D01*
Y265632D02*
Y265232D01*
X449678D01*
Y265632D01*
X449278D01*
Y266432D01*
X449678D01*
Y266832D01*
X450478D01*
Y266432D01*
X450878D01*
Y265632D01*
X450478D01*
D90*
X458110Y318276D02*
G03*
X458110Y318276I800J0D01*
G01*
X424090D02*
G03*
X424090Y318276I800J0D01*
G01*
M02*
