G04*
G04 #@! TF.GenerationSoftware,Altium Limited,Altium Designer,21.2.1 (34)*
G04*
G04 Layer_Color=16711935*
%FSLAX25Y25*%
%MOIN*%
G70*
G04*
G04 #@! TF.SameCoordinates,2553E21A-E740-48D2-A68A-D9BBB884D7A6*
G04*
G04*
G04 #@! TF.FilePolarity,Negative*
G04*
G01*
G75*
%ADD32R,0.03950X0.04147*%
%ADD33R,0.04600X0.04300*%
%ADD37C,0.00800*%
%ADD38O,0.05120X0.09460*%
%ADD39O,0.05120X0.08270*%
%ADD40C,0.05600*%
%ADD41C,0.09400*%
%ADD42C,0.03300*%
%ADD65R,0.02754X0.04924*%
%ADD66R,0.01574X0.04924*%
%ADD67R,0.04147X0.03950*%
%ADD68R,0.14186X0.06706*%
%ADD69R,0.06706X0.03162*%
%ADD70R,0.04300X0.04600*%
%ADD71R,0.02572X0.04737*%
G04:AMPARAMS|DCode=72|XSize=46mil|YSize=43mil|CornerRadius=0mil|HoleSize=0mil|Usage=FLASHONLY|Rotation=45.000|XOffset=0mil|YOffset=0mil|HoleType=Round|Shape=Rectangle|*
%AMROTATEDRECTD72*
4,1,4,-0.00106,-0.03147,-0.03147,-0.00106,0.00106,0.03147,0.03147,0.00106,-0.00106,-0.03147,0.0*
%
%ADD72ROTATEDRECTD72*%

%ADD73R,0.03753X0.04737*%
%ADD74O,0.01981X0.06312*%
%ADD75O,0.06312X0.01981*%
%ADD76O,0.02375X0.08674*%
G04:AMPARAMS|DCode=77|XSize=46mil|YSize=43mil|CornerRadius=0mil|HoleSize=0mil|Usage=FLASHONLY|Rotation=315.000|XOffset=0mil|YOffset=0mil|HoleType=Round|Shape=Rectangle|*
%AMROTATEDRECTD77*
4,1,4,-0.03147,0.00106,-0.00106,0.03147,0.03147,-0.00106,0.00106,-0.03147,-0.03147,0.00106,0.0*
%
%ADD77ROTATEDRECTD77*%

%ADD78R,0.07880X0.09850*%
%ADD79R,0.06706X0.05524*%
D32*
X451626Y199000D02*
D03*
X457374D02*
D03*
X346626Y307000D02*
D03*
X352374D02*
D03*
X451626Y310000D02*
D03*
X457374D02*
D03*
X352374Y300500D02*
D03*
X346626D02*
D03*
X399563Y213173D02*
D03*
X393815D02*
D03*
X424366Y212563D02*
D03*
X418618D02*
D03*
D33*
X432100Y310000D02*
D03*
X439000D02*
D03*
X348500Y293000D02*
D03*
X355400D02*
D03*
X404477Y332863D02*
D03*
X411377D02*
D03*
X458000Y207000D02*
D03*
X451100D02*
D03*
X369900Y293000D02*
D03*
X363000D02*
D03*
X395737Y332863D02*
D03*
X388837Y332863D02*
D03*
X380362D02*
D03*
X373462D02*
D03*
X366562Y305859D02*
D03*
X373462Y305859D02*
D03*
D37*
X351157Y320363D02*
D03*
X328401D02*
D03*
D38*
X322768Y318276D02*
D03*
X356788D02*
D03*
D39*
Y334606D02*
D03*
X322768D02*
D03*
D40*
X332610Y293788D02*
D03*
Y222528D02*
D03*
X454658Y293788D02*
D03*
Y222528D02*
D03*
D41*
X322768Y200874D02*
D03*
D42*
X330821Y250821D02*
D03*
D65*
X352378Y314126D02*
D03*
X349228D02*
D03*
X330328Y314136D02*
D03*
X327178D02*
D03*
D66*
X346668Y314126D02*
D03*
X344698D02*
D03*
X342728D02*
D03*
X340758D02*
D03*
X338798D02*
D03*
X336828D02*
D03*
X334858Y314116D02*
D03*
X332888Y314126D02*
D03*
D67*
X364300Y318226D02*
D03*
Y323974D02*
D03*
D68*
X332611Y300875D02*
D03*
Y215442D02*
D03*
X454657Y300874D02*
D03*
Y215441D02*
D03*
D69*
X341469Y228630D02*
D03*
X323752Y230599D02*
D03*
X341469Y232568D02*
D03*
X323752Y234536D02*
D03*
X341469Y236505D02*
D03*
X323752Y238473D02*
D03*
X341469Y240441D02*
D03*
X323752Y242410D02*
D03*
X341469Y244378D02*
D03*
X323752Y246347D02*
D03*
X341469Y248316D02*
D03*
X323752Y250284D02*
D03*
X341469Y252253D02*
D03*
X323752Y254221D02*
D03*
X341469Y256190D02*
D03*
X323752Y258158D02*
D03*
X341469Y260127D02*
D03*
X323752Y262095D02*
D03*
X341469Y264064D02*
D03*
X323752Y266032D02*
D03*
X341469Y268001D02*
D03*
X323752Y269969D02*
D03*
X341469Y271938D02*
D03*
X323752Y273906D02*
D03*
X341469Y275875D02*
D03*
X323752Y277843D02*
D03*
X341469Y279812D02*
D03*
X323752Y281780D02*
D03*
X341469Y283749D02*
D03*
X323752Y285717D02*
D03*
X341469Y287686D02*
D03*
X445799Y228630D02*
D03*
X463515Y230598D02*
D03*
X445799Y232567D02*
D03*
X463515Y234535D02*
D03*
X445799Y236504D02*
D03*
X463515Y238472D02*
D03*
X445799Y240441D02*
D03*
X463515Y242409D02*
D03*
X445799Y244378D02*
D03*
X463515Y246346D02*
D03*
X445799Y248315D02*
D03*
X463515Y250283D02*
D03*
X445799Y252252D02*
D03*
X463515Y254220D02*
D03*
X445799Y256189D02*
D03*
X463515Y258157D02*
D03*
X445799Y260126D02*
D03*
X463515Y262094D02*
D03*
X445799Y264063D02*
D03*
X463515Y266031D02*
D03*
X445799Y268000D02*
D03*
X463515Y269968D02*
D03*
X445799Y271937D02*
D03*
X463515Y273905D02*
D03*
X445799Y275874D02*
D03*
X463515Y277842D02*
D03*
X445799Y279811D02*
D03*
X463515Y281779D02*
D03*
X445799Y283748D02*
D03*
X463515Y285716D02*
D03*
X445799Y287685D02*
D03*
D70*
X366500Y202500D02*
D03*
Y209400D02*
D03*
X467000Y316900D02*
D03*
Y310000D02*
D03*
X376000Y226900D02*
D03*
Y220000D02*
D03*
D71*
X431860Y333500D02*
D03*
X435600Y333500D02*
D03*
X439340Y333500D02*
D03*
X439340Y322500D02*
D03*
X435600D02*
D03*
X431860D02*
D03*
D72*
X369516Y245382D02*
D03*
X374395Y250262D02*
D03*
D73*
X319500Y291500D02*
D03*
Y305673D02*
D03*
X376000Y199000D02*
D03*
Y213173D02*
D03*
D74*
X384395Y295218D02*
D03*
X386363D02*
D03*
X388332D02*
D03*
X390300D02*
D03*
X392269D02*
D03*
X394237D02*
D03*
X396206D02*
D03*
X398174D02*
D03*
X400143D02*
D03*
X402111D02*
D03*
X404080D02*
D03*
X406048D02*
D03*
X408017D02*
D03*
X409985D02*
D03*
X411954Y295218D02*
D03*
X413922D02*
D03*
X413922Y248762D02*
D03*
X411954D02*
D03*
X409985Y248762D02*
D03*
X408017Y248762D02*
D03*
X406048Y248762D02*
D03*
X404080D02*
D03*
X402111D02*
D03*
X400143D02*
D03*
X398174D02*
D03*
X396206D02*
D03*
X394237D02*
D03*
X392269D02*
D03*
X390300D02*
D03*
X388332D02*
D03*
X386363D02*
D03*
X384395D02*
D03*
D75*
X422387Y286754D02*
D03*
Y284785D02*
D03*
Y282817D02*
D03*
X422387Y280848D02*
D03*
X422387Y278880D02*
D03*
Y276911D02*
D03*
X422387Y274943D02*
D03*
Y272974D02*
D03*
Y271006D02*
D03*
Y269037D02*
D03*
Y267069D02*
D03*
Y265100D02*
D03*
X422387Y263132D02*
D03*
X422387Y261163D02*
D03*
X422387Y259195D02*
D03*
Y257226D02*
D03*
X375930D02*
D03*
Y259195D02*
D03*
Y261163D02*
D03*
X375930Y263132D02*
D03*
X375930Y265100D02*
D03*
Y267069D02*
D03*
Y269037D02*
D03*
Y271006D02*
D03*
Y272974D02*
D03*
Y274943D02*
D03*
Y276911D02*
D03*
Y278880D02*
D03*
X375930Y280848D02*
D03*
X375930Y282817D02*
D03*
X375930Y284785D02*
D03*
Y286754D02*
D03*
D76*
X404839Y229338D02*
D03*
X396571D02*
D03*
X413106D02*
D03*
X421374D02*
D03*
X393815D02*
D03*
X391059D02*
D03*
X402083D02*
D03*
X399327D02*
D03*
X410350D02*
D03*
X407594D02*
D03*
X415862D02*
D03*
X418618D02*
D03*
D77*
X428801Y245382D02*
D03*
X423922Y250262D02*
D03*
D78*
X401323Y319384D02*
D03*
X385183Y319384D02*
D03*
D79*
X373462Y324873D02*
D03*
X373462Y313849D02*
D03*
M02*
