G04*
G04 #@! TF.GenerationSoftware,Altium Limited,Altium Designer,22.0.2 (36)*
G04*
G04 Layer_Physical_Order=1*
G04 Layer_Color=255*
%FSLAX25Y25*%
%MOIN*%
G70*
G04*
G04 #@! TF.SameCoordinates,A8AB103B-E7CB-45E0-896D-D1B8D88E5F6C*
G04*
G04*
G04 #@! TF.FilePolarity,Positive*
G04*
G01*
G75*
%ADD10C,0.01000*%
%ADD16C,0.00800*%
%ADD17R,0.03800X0.03500*%
%ADD18R,0.05000X0.02756*%
%ADD19R,0.05512X0.05118*%
%ADD20R,0.02165X0.03937*%
%ADD21R,0.03150X0.03347*%
%ADD22R,0.03500X0.03800*%
%ADD23O,0.00860X0.02800*%
%ADD24O,0.02800X0.00860*%
%ADD25R,0.10630X0.10630*%
%ADD26C,0.03000*%
%ADD41C,0.02000*%
%ADD42O,0.04720X0.07870*%
%ADD43O,0.04720X0.09060*%
%ADD44C,0.04800*%
%ADD45C,0.08600*%
%ADD46C,0.02500*%
%ADD47C,0.02400*%
%ADD48C,0.03000*%
%ADD49C,0.02600*%
G36*
X456458Y391740D02*
X456465Y391543D01*
X456486Y391351D01*
X456522Y391166D01*
X456571Y390986D01*
X456635Y390813D01*
X456713Y390645D01*
X456805Y390483D01*
X456911Y390327D01*
X457031Y390177D01*
X457165Y390033D01*
X456458Y389325D01*
X456458D01*
D01*
X456314Y389460D01*
X456164Y389580D01*
X456007Y389686D01*
X455845Y389778D01*
X455678Y389856D01*
X455504Y389919D01*
X455325Y389969D01*
X455139Y390004D01*
X454948Y390025D01*
X454751Y390033D01*
X453751Y391033D01*
X453934Y391039D01*
X454083Y391061D01*
X454197Y391096D01*
X454278Y391146D01*
X454324Y391209D01*
X454336Y391287D01*
X454315Y391379D01*
X454258Y391485D01*
X454168Y391605D01*
X454044Y391740D01*
X454751Y392447D01*
X454885Y392322D01*
X455006Y392232D01*
X455112Y392176D01*
X455203Y392154D01*
X455281Y392166D01*
X455345Y392213D01*
X455394Y392293D01*
X455430Y392408D01*
X455451Y392557D01*
X455458Y392740D01*
X455458Y392740D01*
Y392740D01*
X456458Y391740D01*
D02*
G37*
G36*
X465538Y393633D02*
X465554Y393497D01*
X465582Y393365D01*
X465620Y393236D01*
X465670Y393110D01*
X465695Y393058D01*
X465749Y393077D01*
X465873Y393131D01*
X465992Y393195D01*
X466105Y393269D01*
X466213Y393354D01*
X466315Y393448D01*
X467022Y392741D01*
X466928Y392639D01*
X466843Y392531D01*
X466769Y392418D01*
X466705Y392299D01*
X466651Y392175D01*
X466633Y392121D01*
X466684Y392096D01*
X466810Y392046D01*
X466939Y392008D01*
X467071Y391980D01*
X467207Y391964D01*
X467346Y391958D01*
Y390958D01*
X467207Y390953D01*
X467071Y390936D01*
X466939Y390909D01*
X466810Y390870D01*
X466684Y390821D01*
X466561Y390760D01*
X466442Y390689D01*
X466326Y390606D01*
X466213Y390513D01*
X466104Y390408D01*
Y391469D01*
X465032Y391458D01*
X465017Y389958D01*
X464866Y389955D01*
X464720Y389941D01*
X464580Y389917D01*
X464445Y389884D01*
X464315Y389840D01*
X464191Y389786D01*
X464073Y389721D01*
X463959Y389647D01*
X463852Y389563D01*
X463749Y389468D01*
X463042Y390175D01*
X463137Y390278D01*
X463221Y390385D01*
X463296Y390499D01*
X463360Y390617D01*
X463414Y390741D01*
X463458Y390871D01*
X463491Y391006D01*
X463515Y391146D01*
X463529Y391292D01*
X463532Y391443D01*
X465032Y391458D01*
X465043Y392530D01*
X463982D01*
X464087Y392639D01*
X464180Y392752D01*
X464263Y392868D01*
X464334Y392987D01*
X464395Y393110D01*
X464444Y393236D01*
X464483Y393365D01*
X464510Y393497D01*
X464527Y393633D01*
X464532Y393773D01*
X465532D01*
X465538Y393633D01*
D02*
G37*
G36*
X460539Y388482D02*
X460561Y388334D01*
X460596Y388219D01*
X460645Y388139D01*
X460709Y388092D01*
X460787Y388080D01*
X460879Y388102D01*
X460985Y388158D01*
X461105Y388248D01*
X461239Y388372D01*
X461946Y387665D01*
X461822Y387531D01*
X461732Y387411D01*
X461676Y387305D01*
X461654Y387213D01*
X461666Y387135D01*
X461713Y387071D01*
X461793Y387022D01*
X461908Y386986D01*
X462056Y386965D01*
X462239Y386958D01*
Y385958D01*
X462056Y385951D01*
X461908Y385930D01*
X461793Y385895D01*
X461713Y385845D01*
X461666Y385782D01*
X461654Y385704D01*
X461676Y385612D01*
X461732Y385506D01*
X461822Y385385D01*
X461946Y385251D01*
X461239Y384544D01*
X461105Y384668D01*
X460985Y384759D01*
X460879Y384815D01*
X460787Y384837D01*
X460709Y384824D01*
X460645Y384778D01*
X460596Y384698D01*
X460561Y384583D01*
X460539Y384434D01*
X460532Y384251D01*
X459532D01*
X459525Y384434D01*
X459504Y384583D01*
X459469Y384698D01*
X459419Y384778D01*
X459355Y384824D01*
X459278Y384837D01*
X459186Y384815D01*
X459080Y384759D01*
X458959Y384668D01*
X458825Y384544D01*
X458118Y385251D01*
X458242Y385385D01*
X458333Y385506D01*
X458389Y385612D01*
X458411Y385704D01*
X458398Y385782D01*
X458352Y385845D01*
X458272Y385895D01*
X458157Y385930D01*
X458008Y385951D01*
X457825Y385958D01*
Y386958D01*
X458008Y386965D01*
X458157Y386986D01*
X458272Y387022D01*
X458352Y387071D01*
X458398Y387135D01*
X458411Y387213D01*
X458389Y387305D01*
X458333Y387411D01*
X458242Y387531D01*
X458118Y387665D01*
X458825Y388372D01*
X458959Y388248D01*
X459080Y388158D01*
X459186Y388102D01*
X459278Y388080D01*
X459355Y388092D01*
X459419Y388139D01*
X459469Y388219D01*
X459504Y388334D01*
X459525Y388482D01*
X459532Y388665D01*
X460532D01*
X460539Y388482D01*
D02*
G37*
G36*
X463751Y383457D02*
X463901Y383337D01*
X464057Y383231D01*
X464219Y383139D01*
X464387Y383061D01*
X464561Y382997D01*
X464740Y382948D01*
X464925Y382912D01*
X465117Y382891D01*
X465314Y382884D01*
X466314Y381884D01*
X466131Y381877D01*
X465982Y381856D01*
X465867Y381820D01*
X465787Y381771D01*
X465740Y381707D01*
X465728Y381629D01*
X465750Y381538D01*
X465806Y381432D01*
X465896Y381311D01*
X466021Y381177D01*
X465314Y380470D01*
X465179Y380594D01*
X465059Y380684D01*
X464953Y380740D01*
X464861Y380762D01*
X464783Y380750D01*
X464720Y380704D01*
X464670Y380623D01*
X464635Y380509D01*
X464614Y380360D01*
X464607Y380177D01*
X463607Y381177D01*
X463599Y381374D01*
X463578Y381565D01*
X463543Y381751D01*
X463493Y381930D01*
X463430Y382104D01*
X463352Y382272D01*
X463260Y382433D01*
X463154Y382590D01*
X463034Y382740D01*
X462899Y382884D01*
X463607Y383591D01*
X463751Y383457D01*
D02*
G37*
G36*
X457165Y382884D02*
X457031Y382740D01*
X456911Y382590D01*
X456805Y382434D01*
X456713Y382272D01*
X456635Y382104D01*
X456571Y381930D01*
X456522Y381751D01*
X456486Y381565D01*
X456465Y381374D01*
X456458Y381177D01*
X455458Y380177D01*
X455451Y380360D01*
X455430Y380509D01*
X455394Y380623D01*
X455345Y380704D01*
X455281Y380750D01*
X455203Y380762D01*
X455112Y380740D01*
X455006Y380684D01*
X454885Y380594D01*
X454751Y380470D01*
X454044Y381177D01*
X454168Y381311D01*
X454258Y381432D01*
X454315Y381538D01*
X454336Y381629D01*
X454324Y381707D01*
X454278Y381771D01*
X454197Y381820D01*
X454083Y381856D01*
X453934Y381877D01*
X453751Y381884D01*
X454751Y382884D01*
X454948Y382891D01*
X455139Y382912D01*
X455325Y382948D01*
X455504Y382997D01*
X455678Y383061D01*
X455845Y383139D01*
X456007Y383231D01*
X456164Y383337D01*
X456314Y383457D01*
X456458Y383591D01*
X457165Y382884D01*
D02*
G37*
G36*
X469580Y401133D02*
X470876Y400740D01*
X472070Y400102D01*
X473116Y399242D01*
X473976Y398196D01*
X474614Y397002D01*
X475007Y395706D01*
X475139Y394365D01*
X475138Y394358D01*
Y260500D01*
X475139Y260494D01*
X475007Y259153D01*
X474614Y257857D01*
X473976Y256663D01*
X473116Y255616D01*
X472070Y254757D01*
X470876Y254118D01*
X469580Y253725D01*
X468239Y253593D01*
X468232Y253595D01*
X326500D01*
X326494Y253593D01*
X325152Y253725D01*
X323857Y254118D01*
X322662Y254757D01*
X321616Y255616D01*
X320757Y256663D01*
X320118Y257857D01*
X319725Y259153D01*
X319593Y260494D01*
X319595Y260500D01*
Y274523D01*
X320095Y274675D01*
X320207Y274507D01*
X328905Y265809D01*
X328598Y265408D01*
X328546Y265439D01*
X327198Y265800D01*
X327000D01*
Y261000D01*
X331800D01*
Y261198D01*
X331439Y262546D01*
X331340Y262717D01*
X331715Y263068D01*
X331871Y262964D01*
X332300Y262878D01*
X337159D01*
X337171Y262877D01*
X337220Y262866D01*
X337269Y262851D01*
X337318Y262831D01*
X337369Y262805D01*
X337422Y262773D01*
X337478Y262732D01*
X337537Y262683D01*
X337614Y262610D01*
X337666Y262576D01*
X337895Y262347D01*
X338612Y262050D01*
X339388D01*
X340105Y262347D01*
X340653Y262895D01*
X340950Y263612D01*
Y264388D01*
X340653Y265105D01*
X340105Y265653D01*
X339388Y265950D01*
X338612D01*
X337895Y265653D01*
X337666Y265424D01*
X337614Y265390D01*
X337537Y265317D01*
X337478Y265268D01*
X337422Y265227D01*
X337369Y265195D01*
X337318Y265169D01*
X337269Y265149D01*
X337220Y265134D01*
X337171Y265123D01*
X337159Y265122D01*
X332765D01*
X322122Y275765D01*
Y310159D01*
X322123Y310171D01*
X322134Y310220D01*
X322149Y310269D01*
X322169Y310318D01*
X322195Y310369D01*
X322227Y310422D01*
X322268Y310478D01*
X322317Y310537D01*
X322390Y310614D01*
X322424Y310666D01*
X322653Y310895D01*
X322950Y311612D01*
Y312388D01*
X322653Y313105D01*
X322105Y313653D01*
X321388Y313950D01*
X320612D01*
X320095Y313736D01*
X319595Y314006D01*
Y394358D01*
X319593Y394365D01*
X319725Y395706D01*
X320118Y397002D01*
X320757Y398196D01*
X321616Y399242D01*
X322662Y400102D01*
X323857Y400740D01*
X325152Y401133D01*
X326494Y401265D01*
X326500Y401264D01*
X329749D01*
X329749Y401264D01*
X456945Y401264D01*
X457011Y400764D01*
X455329Y400313D01*
X453561Y399581D01*
X451903Y398624D01*
X450385Y397459D01*
X449032Y396105D01*
X447867Y394587D01*
X446910Y392930D01*
X446177Y391161D01*
X445682Y389313D01*
X445432Y387415D01*
Y385501D01*
X445682Y383604D01*
X446177Y381755D01*
X446910Y379987D01*
X447867Y378329D01*
X449032Y376811D01*
X450385Y375458D01*
X451903Y374293D01*
X453561Y373336D01*
X455329Y372603D01*
X457178Y372108D01*
X459075Y371858D01*
X460989D01*
X462887Y372108D01*
X464735Y372603D01*
X466503Y373336D01*
X468161Y374293D01*
X469679Y375458D01*
X471033Y376811D01*
X472198Y378329D01*
X473155Y379987D01*
X473887Y381755D01*
X474382Y383604D01*
X474632Y385501D01*
Y387415D01*
X474382Y389313D01*
X473887Y391161D01*
X473155Y392930D01*
X472198Y394587D01*
X471033Y396105D01*
X469679Y397459D01*
X468161Y398624D01*
X466503Y399581D01*
X464735Y400313D01*
X463054Y400764D01*
X463120Y401264D01*
X468232D01*
X468239Y401265D01*
X469580Y401133D01*
D02*
G37*
G36*
X321785Y311013D02*
X321704Y310917D01*
X321633Y310818D01*
X321571Y310717D01*
X321519Y310614D01*
X321476Y310509D01*
X321443Y310401D01*
X321419Y310292D01*
X321405Y310180D01*
X321400Y310066D01*
X320600D01*
X320595Y310180D01*
X320581Y310292D01*
X320557Y310401D01*
X320524Y310509D01*
X320481Y310614D01*
X320429Y310717D01*
X320367Y310818D01*
X320296Y310917D01*
X320215Y311013D01*
X320125Y311107D01*
X321875D01*
X321785Y311013D01*
D02*
G37*
G36*
X338107Y263125D02*
X338013Y263215D01*
X337917Y263296D01*
X337818Y263367D01*
X337717Y263429D01*
X337614Y263481D01*
X337509Y263524D01*
X337401Y263557D01*
X337292Y263581D01*
X337180Y263595D01*
X337066Y263600D01*
Y264400D01*
X337180Y264405D01*
X337292Y264419D01*
X337401Y264443D01*
X337509Y264476D01*
X337614Y264519D01*
X337717Y264571D01*
X337818Y264633D01*
X337917Y264704D01*
X338013Y264785D01*
X338107Y264875D01*
Y263125D01*
D02*
G37*
%LPC*%
G36*
X431600Y399528D02*
Y397800D01*
X433328D01*
X433007Y398574D01*
X432374Y399207D01*
X431600Y399528D01*
D02*
G37*
G36*
X430600D02*
X429825Y399207D01*
X429192Y398574D01*
X428872Y397800D01*
X430600D01*
Y399528D01*
D02*
G37*
G36*
X433328Y396800D02*
X431600D01*
Y395072D01*
X432374Y395392D01*
X433007Y396025D01*
X433328Y396800D01*
D02*
G37*
G36*
X430600D02*
X428872D01*
X429192Y396025D01*
X429825Y395392D01*
X430600Y395072D01*
Y396800D01*
D02*
G37*
G36*
X361020Y399256D02*
Y394858D01*
X363909D01*
Y395933D01*
X363793Y396810D01*
X363455Y397628D01*
X362916Y398330D01*
X362214Y398868D01*
X361397Y399207D01*
X361020Y399256D01*
D02*
G37*
G36*
X360020D02*
X359643Y399207D01*
X358825Y398868D01*
X358124Y398330D01*
X357585Y397628D01*
X357246Y396810D01*
X357131Y395933D01*
Y394858D01*
X360020D01*
Y399256D01*
D02*
G37*
G36*
X327000D02*
Y394858D01*
X329889D01*
Y395933D01*
X329773Y396810D01*
X329435Y397628D01*
X328896Y398330D01*
X328194Y398868D01*
X327377Y399207D01*
X327000Y399256D01*
D02*
G37*
G36*
X326000D02*
X325623Y399207D01*
X324805Y398868D01*
X324104Y398330D01*
X323565Y397628D01*
X323226Y396810D01*
X323111Y395933D01*
Y394858D01*
X326000D01*
Y399256D01*
D02*
G37*
G36*
X389000Y397887D02*
X385744D01*
Y394828D01*
X389000D01*
Y397887D01*
D02*
G37*
G36*
X384744D02*
X381488D01*
Y394828D01*
X384744D01*
Y397887D01*
D02*
G37*
G36*
X377676Y397587D02*
X370765D01*
Y396289D01*
X370762Y396285D01*
X370735Y396260D01*
X370664Y396217D01*
X370537Y396166D01*
X370352Y396116D01*
X370111Y396076D01*
X369937Y396061D01*
X368328D01*
X367664Y395929D01*
X367102Y395553D01*
X364409Y392860D01*
X363909Y393067D01*
Y393858D01*
X357131D01*
Y392783D01*
X357246Y391906D01*
X357585Y391089D01*
X358124Y390387D01*
X358825Y389848D01*
X359643Y389510D01*
X360269Y389427D01*
X360448Y388899D01*
X359282Y387733D01*
X357574D01*
X357282Y388233D01*
X357474Y388696D01*
Y389452D01*
X357185Y390150D01*
X356650Y390685D01*
X355952Y390974D01*
X355196D01*
X354498Y390685D01*
X354276Y390463D01*
X354224Y390430D01*
X354155Y390364D01*
X354104Y390322D01*
X354056Y390287D01*
X354009Y390260D01*
X353964Y390237D01*
X353919Y390220D01*
X353874Y390206D01*
X353827Y390196D01*
X353819Y390196D01*
X348549D01*
Y392373D01*
X343999D01*
Y387627D01*
X347561D01*
X347641Y387515D01*
X347749Y387127D01*
X346644Y386021D01*
X346266Y385670D01*
X345948Y385415D01*
X345666Y385217D01*
X345590Y385173D01*
X345288D01*
X345236Y385210D01*
X344954Y385450D01*
X342024Y388380D01*
Y388925D01*
X342001Y389043D01*
Y392373D01*
X337451D01*
Y387627D01*
X339626D01*
X339670Y387405D01*
X339936Y387008D01*
X341309Y385635D01*
X341117Y385173D01*
X337851D01*
Y382151D01*
X337832Y382124D01*
X337658Y381918D01*
X334563Y378823D01*
X334139Y379106D01*
X334269Y379421D01*
X334324Y379694D01*
Y380283D01*
X334269Y380556D01*
X334044Y381100D01*
X333889Y381331D01*
X333473Y381748D01*
X333242Y381902D01*
X332698Y382128D01*
X332424Y382182D01*
X331836D01*
X331562Y382128D01*
X331018Y381902D01*
X330787Y381748D01*
X330371Y381331D01*
X330257Y381161D01*
X330078Y381130D01*
X329719Y381207D01*
X329435Y381893D01*
X328896Y382595D01*
X328194Y383133D01*
X327377Y383472D01*
X327000Y383521D01*
Y378028D01*
X326500D01*
Y377528D01*
X323111D01*
Y375858D01*
X323226Y374981D01*
X323565Y374164D01*
X324043Y373540D01*
X324052Y373380D01*
X324032Y373231D01*
X323946Y372953D01*
X323707Y372793D01*
X323707Y372793D01*
X322525Y371611D01*
X322282Y371247D01*
X322196Y370818D01*
X321719Y370787D01*
X321477D01*
Y365450D01*
X324917D01*
Y365150D01*
X326500D01*
Y368118D01*
X327500D01*
Y365150D01*
X329083D01*
Y365450D01*
X331787D01*
X331794Y365448D01*
X331803Y365450D01*
X331811Y365448D01*
X331819Y365450D01*
X332523D01*
Y365624D01*
X333186Y365667D01*
X333294D01*
X333672Y365510D01*
X334448D01*
X334826Y365667D01*
X336721D01*
X336895Y365651D01*
X337135Y365612D01*
X337320Y365562D01*
X337447Y365510D01*
X337519Y365467D01*
X337546Y365442D01*
X337550Y365436D01*
Y363900D01*
X342450D01*
Y366476D01*
X342459Y366481D01*
X342950Y366629D01*
X343392Y366187D01*
X344109Y365890D01*
X344885D01*
X345602Y366187D01*
X345831Y366416D01*
X345883Y366450D01*
X345960Y366523D01*
X346019Y366572D01*
X346075Y366613D01*
X346128Y366645D01*
X346179Y366671D01*
X346228Y366691D01*
X346277Y366706D01*
X346326Y366717D01*
X346338Y366718D01*
X357395D01*
X357395Y366718D01*
X357719Y366783D01*
X357983Y366441D01*
X358014Y366371D01*
X342126Y350483D01*
X339007D01*
X338800Y350983D01*
X339108Y351292D01*
X339563Y352080D01*
X339798Y352959D01*
Y353869D01*
X339563Y354748D01*
X339108Y355536D01*
X338464Y356179D01*
X338428Y356200D01*
X338562Y356700D01*
X339500D01*
Y359100D01*
X337250D01*
Y357159D01*
X336853Y356855D01*
X336797Y356869D01*
X335888D01*
X335009Y356634D01*
X334221Y356179D01*
X333577Y355536D01*
X333122Y354748D01*
X332974Y354193D01*
X332473Y354258D01*
Y355213D01*
X332523D01*
Y355917D01*
X332524Y355925D01*
X332523Y355934D01*
Y360550D01*
X328958D01*
Y355934D01*
X328956Y355925D01*
X328958Y355917D01*
Y355908D01*
X328956Y355900D01*
X328958Y355865D01*
Y355213D01*
X328980D01*
X329007Y354467D01*
Y352778D01*
X328992Y352605D01*
X328952Y352364D01*
X328902Y352180D01*
X328851Y352052D01*
X328807Y351981D01*
X328782Y351954D01*
X328777Y351950D01*
X327900D01*
Y347050D01*
X331083D01*
X331250Y347017D01*
X342845D01*
X343508Y347149D01*
X344070Y347524D01*
X372553Y376007D01*
X372918Y376346D01*
X373228Y376594D01*
X373506Y376787D01*
X373645Y376867D01*
X377676D01*
Y381431D01*
X377678Y381437D01*
X377676Y381446D01*
Y381796D01*
X377707Y381839D01*
X377951Y382126D01*
X379101Y383277D01*
X381488D01*
Y380626D01*
X385244D01*
X389000D01*
Y383277D01*
X396443D01*
X396461Y383250D01*
X396194Y382750D01*
X395500D01*
Y380500D01*
X397900D01*
Y381616D01*
X398362Y381808D01*
X398982Y381188D01*
X399148Y381010D01*
X399264Y380867D01*
X399300Y380815D01*
Y377550D01*
X402555D01*
X402556Y377550D01*
X402556Y377550D01*
X402668D01*
X402742Y377501D01*
X403192Y377122D01*
X405607Y374707D01*
X405971Y374464D01*
X406400Y374378D01*
X406400Y374378D01*
X414419D01*
X414431Y374377D01*
X414480Y374366D01*
X414529Y374351D01*
X414578Y374331D01*
X414629Y374305D01*
X414682Y374273D01*
X414738Y374232D01*
X414797Y374183D01*
X414874Y374110D01*
X414926Y374076D01*
X415155Y373847D01*
X415872Y373550D01*
X416648D01*
X417365Y373847D01*
X417913Y374395D01*
X418200Y375088D01*
X418201Y375089D01*
X418392Y375306D01*
X418623Y375537D01*
X418623Y375537D01*
X418866Y375901D01*
X418952Y376330D01*
X418952Y376330D01*
Y376549D01*
X419410Y376968D01*
X419858Y376547D01*
Y366344D01*
X417535Y364021D01*
X383000D01*
X382571Y363936D01*
X382207Y363693D01*
X382207Y363693D01*
X380854Y362340D01*
X380611Y361976D01*
X380525Y361547D01*
X380525Y361547D01*
Y360046D01*
X380524Y360034D01*
X380513Y359984D01*
X380498Y359936D01*
X380478Y359887D01*
X380452Y359836D01*
X380420Y359782D01*
X380379Y359727D01*
X380330Y359668D01*
X380257Y359591D01*
X380223Y359538D01*
X379994Y359309D01*
X379697Y358593D01*
Y357817D01*
X379994Y357100D01*
X380542Y356552D01*
X381190Y356283D01*
X381406Y355793D01*
X379407Y353793D01*
X379164Y353429D01*
X379078Y353000D01*
X379079Y353000D01*
Y352841D01*
X379077Y352829D01*
X379066Y352780D01*
X379051Y352731D01*
X379031Y352682D01*
X379005Y352631D01*
X378973Y352578D01*
X378932Y352522D01*
X378883Y352463D01*
X378810Y352386D01*
X378776Y352334D01*
X378547Y352105D01*
X378250Y351388D01*
Y350612D01*
X378547Y349895D01*
X379095Y349347D01*
X379812Y349050D01*
X380588D01*
X381305Y349347D01*
X381853Y349895D01*
X382150Y350612D01*
Y351388D01*
X381853Y352105D01*
X381624Y352334D01*
X381590Y352386D01*
X381517Y352463D01*
X381468Y352522D01*
X381427Y352578D01*
X381403Y352617D01*
X387665Y358878D01*
X419500D01*
X419500Y358878D01*
X419929Y358964D01*
X420293Y359207D01*
X422978Y361892D01*
X423478Y361685D01*
Y359265D01*
X420935Y356721D01*
X402700D01*
X402700Y356722D01*
X402271Y356636D01*
X401907Y356393D01*
X391135Y345621D01*
X330800D01*
X330800Y345622D01*
X330371Y345536D01*
X330007Y345293D01*
X330007Y345293D01*
X326607Y341893D01*
X326364Y341529D01*
X326278Y341100D01*
X326278Y341100D01*
Y307200D01*
X326278Y307200D01*
X326364Y306771D01*
X326607Y306407D01*
X333739Y299274D01*
X333739Y299274D01*
X334103Y299031D01*
X334533Y298946D01*
X334533Y298946D01*
X337760D01*
X337772Y298944D01*
X337821Y298934D01*
X337870Y298919D01*
X337919Y298899D01*
X337970Y298873D01*
X338023Y298840D01*
X338079Y298800D01*
X338138Y298751D01*
X338215Y298677D01*
X338267Y298643D01*
X338496Y298414D01*
X339213Y298117D01*
X339989D01*
X340706Y298414D01*
X341254Y298963D01*
X341551Y299680D01*
Y300455D01*
X341254Y301172D01*
X340706Y301721D01*
X340598Y301765D01*
Y302307D01*
X340706Y302351D01*
X341254Y302900D01*
X341551Y303617D01*
Y304392D01*
X341254Y305109D01*
X340706Y305658D01*
X339989Y305954D01*
X339213D01*
X338496Y305658D01*
X338267Y305428D01*
X338215Y305395D01*
X338138Y305321D01*
X338079Y305272D01*
X338023Y305232D01*
X337970Y305199D01*
X337919Y305173D01*
X337870Y305153D01*
X337821Y305138D01*
X337772Y305128D01*
X337760Y305126D01*
X336160D01*
X333755Y307531D01*
X333471Y307840D01*
X332960Y308457D01*
X332775Y308715D01*
X332628Y308950D01*
X332522Y309152D01*
X332455Y309315D01*
X332440Y309372D01*
X332471Y309528D01*
X332300Y310386D01*
X331814Y311114D01*
X331674Y311207D01*
X331663Y311226D01*
X331595Y311388D01*
X331528Y311605D01*
X331466Y311876D01*
X331415Y312182D01*
X331322Y313432D01*
Y316082D01*
X331821Y316289D01*
X331980Y316131D01*
X332697Y315834D01*
X333472D01*
X334189Y316131D01*
X334418Y316360D01*
X334471Y316394D01*
X334548Y316467D01*
X334607Y316516D01*
X334663Y316557D01*
X334716Y316589D01*
X334767Y316615D01*
X334816Y316635D01*
X334865Y316650D01*
X334914Y316661D01*
X334926Y316663D01*
X397446D01*
X397653Y316162D01*
X397579Y316089D01*
X397282Y315372D01*
Y314596D01*
X397579Y313879D01*
X398128Y313331D01*
X398844Y313034D01*
X399620D01*
X400337Y313331D01*
X400566Y313560D01*
X400619Y313594D01*
X400696Y313667D01*
X400754Y313716D01*
X400810Y313757D01*
X400863Y313789D01*
X400914Y313815D01*
X400964Y313835D01*
X401012Y313850D01*
X401061Y313861D01*
X401074Y313862D01*
X404352D01*
X411511Y306703D01*
Y297967D01*
X411509Y297955D01*
X411498Y297906D01*
X411483Y297857D01*
X411463Y297808D01*
X411438Y297757D01*
X411405Y297704D01*
X411365Y297648D01*
X411316Y297589D01*
X411242Y297512D01*
X411208Y297460D01*
X410979Y297231D01*
X410682Y296514D01*
Y295738D01*
X410979Y295021D01*
X411528Y294473D01*
X412244Y294176D01*
X413020D01*
X413737Y294473D01*
X414285Y295021D01*
X414582Y295738D01*
Y296514D01*
X414285Y297231D01*
X414056Y297460D01*
X414023Y297512D01*
X413949Y297589D01*
X413900Y297648D01*
X413860Y297704D01*
X413827Y297757D01*
X413801Y297808D01*
X413781Y297857D01*
X413766Y297906D01*
X413755Y297955D01*
X413754Y297967D01*
Y307168D01*
X413754Y307168D01*
X413668Y307597D01*
X413425Y307961D01*
X413425Y307961D01*
X406262Y315124D01*
X406545Y315548D01*
X406644Y315507D01*
X407420D01*
X408137Y315804D01*
X408685Y316352D01*
X408982Y317069D01*
Y317845D01*
X408685Y318562D01*
X408312Y318935D01*
X408192Y319257D01*
X408312Y319579D01*
X408685Y319952D01*
X408694Y319974D01*
X409271Y320060D01*
X409628Y319704D01*
X410344Y319407D01*
X411120D01*
X411837Y319704D01*
X412385Y320252D01*
X412682Y320969D01*
Y321745D01*
X412385Y322462D01*
X412012Y322835D01*
X411892Y323157D01*
X412012Y323479D01*
X412385Y323852D01*
X412682Y324569D01*
Y325345D01*
X412428Y325959D01*
X412641Y326459D01*
X418204D01*
X418216Y326457D01*
X418265Y326447D01*
X418314Y326432D01*
X418363Y326412D01*
X418414Y326386D01*
X418467Y326353D01*
X418523Y326313D01*
X418582Y326264D01*
X418659Y326190D01*
X418712Y326156D01*
X418941Y325927D01*
X419657Y325630D01*
X420433D01*
X421150Y325927D01*
X421698Y326476D01*
X421995Y327192D01*
Y327968D01*
X421698Y328685D01*
X421150Y329234D01*
X420559Y329479D01*
X420658Y329978D01*
X422835D01*
X446478Y306335D01*
Y268900D01*
X446478Y268900D01*
X446564Y268471D01*
X446807Y268107D01*
X448671Y266243D01*
X448671Y266243D01*
X449035Y266000D01*
X449464Y265914D01*
X450083D01*
Y264958D01*
X456483D01*
Y265914D01*
X467800D01*
Y264957D01*
X469878D01*
Y261755D01*
X469877Y261747D01*
X469868Y261700D01*
X469854Y261655D01*
X469837Y261610D01*
X469814Y261565D01*
X469786Y261518D01*
X469752Y261470D01*
X469710Y261419D01*
X469644Y261350D01*
X469611Y261297D01*
X469389Y261076D01*
X469100Y260378D01*
Y259622D01*
X469389Y258924D01*
X469924Y258389D01*
X470622Y258100D01*
X471378D01*
X472076Y258389D01*
X472611Y258924D01*
X472900Y259622D01*
Y260378D01*
X472611Y261076D01*
X472389Y261297D01*
X472356Y261350D01*
X472290Y261419D01*
X472248Y261470D01*
X472213Y261518D01*
X472186Y261565D01*
X472163Y261610D01*
X472146Y261655D01*
X472132Y261700D01*
X472122Y261747D01*
X472121Y261755D01*
Y264957D01*
X474200D01*
Y269113D01*
X467800D01*
Y268157D01*
X456483D01*
Y269114D01*
X450083D01*
Y268710D01*
X449583Y268503D01*
X448722Y269365D01*
Y306800D01*
X448722Y306800D01*
X448636Y307229D01*
X448553Y307354D01*
X448941Y307673D01*
X451435Y305179D01*
X451435Y305179D01*
X451799Y304936D01*
X452228Y304851D01*
X452228Y304851D01*
X458091D01*
X458103Y304849D01*
X458152Y304838D01*
X458201Y304823D01*
X458250Y304803D01*
X458301Y304777D01*
X458354Y304745D01*
X458410Y304704D01*
X458469Y304655D01*
X458546Y304582D01*
X458599Y304548D01*
X458828Y304319D01*
X459544Y304022D01*
X460320D01*
X461037Y304319D01*
X461585Y304868D01*
X461882Y305584D01*
Y306360D01*
X461585Y307077D01*
X461037Y307625D01*
X460929Y307670D01*
Y308211D01*
X461037Y308256D01*
X461585Y308804D01*
X461882Y309521D01*
Y310297D01*
X461585Y311014D01*
X461037Y311562D01*
X460929Y311607D01*
Y312148D01*
X461037Y312193D01*
X461585Y312741D01*
X461882Y313458D01*
Y314234D01*
X461585Y314951D01*
X461037Y315499D01*
X460929Y315544D01*
Y316085D01*
X461037Y316130D01*
X461585Y316679D01*
X461882Y317395D01*
Y318171D01*
X461585Y318888D01*
X461037Y319436D01*
X460320Y319733D01*
X459544D01*
X458828Y319436D01*
X458599Y319207D01*
X458546Y319174D01*
X458469Y319100D01*
X458410Y319051D01*
X458354Y319010D01*
X458301Y318978D01*
X458250Y318952D01*
X458201Y318932D01*
X458152Y318917D01*
X458103Y318906D01*
X458091Y318905D01*
X453981D01*
X430590Y342296D01*
X430226Y342539D01*
X429797Y342624D01*
X429797Y342624D01*
X415373D01*
X415361Y342626D01*
X415312Y342636D01*
X415264Y342652D01*
X415214Y342672D01*
X415163Y342697D01*
X415110Y342730D01*
X415054Y342770D01*
X414996Y342819D01*
X414919Y342893D01*
X414866Y342927D01*
X414637Y343156D01*
X413920Y343453D01*
X413144D01*
X412428Y343156D01*
X411879Y342607D01*
X411582Y341891D01*
Y341115D01*
X411879Y340398D01*
X412428Y339850D01*
X413144Y339553D01*
X413920D01*
X414462Y339777D01*
X414851Y339410D01*
X414782Y339245D01*
Y338469D01*
X414999Y337945D01*
X414940Y337766D01*
X414739Y337492D01*
X414700Y337462D01*
X414584Y337463D01*
X414354Y337692D01*
X413638Y337989D01*
X412862D01*
X412145Y337692D01*
X411597Y337144D01*
X411300Y336427D01*
Y335651D01*
X411597Y334935D01*
X412145Y334386D01*
X412862Y334089D01*
X413638D01*
X414354Y334386D01*
X414459Y334370D01*
X414782Y333845D01*
Y333069D01*
X414926Y332722D01*
X414592Y332222D01*
X414141D01*
X414129Y332223D01*
X414080Y332234D01*
X414031Y332249D01*
X413982Y332269D01*
X413931Y332295D01*
X413878Y332327D01*
X413822Y332368D01*
X413763Y332417D01*
X413686Y332490D01*
X413634Y332524D01*
X413405Y332753D01*
X412688Y333050D01*
X411912D01*
X411195Y332753D01*
X410647Y332205D01*
X410350Y331488D01*
Y330712D01*
X410647Y329995D01*
X410257Y329729D01*
X403143Y336843D01*
X402779Y337086D01*
X402350Y337172D01*
X402350Y337172D01*
X385542D01*
X385442Y337671D01*
X385712Y337784D01*
X385942Y338013D01*
X385994Y338046D01*
X386071Y338120D01*
X386130Y338169D01*
X386186Y338209D01*
X386239Y338242D01*
X386290Y338268D01*
X386339Y338288D01*
X386388Y338303D01*
X386437Y338314D01*
X386449Y338315D01*
X392433D01*
X392433Y338315D01*
X392862Y338401D01*
X393226Y338644D01*
X404761Y350179D01*
X417489D01*
X417696Y349678D01*
X417579Y349562D01*
X417282Y348845D01*
Y348069D01*
X417386Y347818D01*
X417151Y347466D01*
X417021Y347393D01*
X416328Y347106D01*
X415779Y346557D01*
X415482Y345841D01*
Y345065D01*
X415779Y344348D01*
X416328Y343800D01*
X417044Y343503D01*
X417820D01*
X418537Y343800D01*
X418766Y344029D01*
X418819Y344062D01*
X418896Y344136D01*
X418954Y344185D01*
X419010Y344226D01*
X419063Y344258D01*
X419114Y344284D01*
X419164Y344304D01*
X419212Y344319D01*
X419261Y344330D01*
X419273Y344331D01*
X437083D01*
X452613Y328801D01*
X452613Y328801D01*
X452977Y328558D01*
X453406Y328473D01*
X458091D01*
X458103Y328471D01*
X458152Y328460D01*
X458201Y328445D01*
X458250Y328425D01*
X458301Y328399D01*
X458354Y328367D01*
X458410Y328327D01*
X458469Y328277D01*
X458546Y328204D01*
X458599Y328170D01*
X458828Y327941D01*
X459544Y327644D01*
X460320D01*
X461037Y327941D01*
X461585Y328490D01*
X461882Y329206D01*
Y329982D01*
X461585Y330699D01*
X461037Y331247D01*
X460929Y331292D01*
Y331833D01*
X461037Y331878D01*
X461585Y332427D01*
X461882Y333143D01*
Y333919D01*
X461585Y334636D01*
X461037Y335184D01*
X460320Y335481D01*
X459544D01*
X458828Y335184D01*
X458599Y334955D01*
X458546Y334922D01*
X458469Y334848D01*
X458410Y334799D01*
X458354Y334758D01*
X458301Y334726D01*
X458250Y334700D01*
X458201Y334680D01*
X458152Y334665D01*
X458103Y334654D01*
X458091Y334653D01*
X453433D01*
X438836Y349250D01*
X438472Y349493D01*
X438043Y349578D01*
X438043Y349578D01*
X421273D01*
X421127Y349678D01*
X421126Y349811D01*
X421348Y350174D01*
X421355Y350179D01*
X421926D01*
X421926Y350178D01*
X422355Y350264D01*
X422719Y350507D01*
X429191Y356979D01*
X429201Y356986D01*
X429243Y357014D01*
X429288Y357037D01*
X429337Y357058D01*
X429391Y357076D01*
X429452Y357090D01*
X429520Y357101D01*
X429596Y357108D01*
X429703Y357111D01*
X429764Y357124D01*
X430088D01*
X430805Y357421D01*
X431353Y357969D01*
X431650Y358686D01*
Y359462D01*
X431353Y360179D01*
X430805Y360727D01*
X430088Y361024D01*
X429312D01*
X428595Y360727D01*
X428322Y360453D01*
X427822Y360660D01*
Y369335D01*
X433493Y375007D01*
X433493Y375007D01*
X433736Y375371D01*
X433822Y375800D01*
X433822Y375800D01*
Y386900D01*
X433736Y387329D01*
X433493Y387693D01*
X433493Y387693D01*
X431813Y389373D01*
X431449Y389616D01*
X431020Y389702D01*
X431020Y389702D01*
X429863D01*
X429442Y390150D01*
X429354Y390591D01*
X429124Y390935D01*
X429354Y391279D01*
X429442Y391720D01*
X429354Y392161D01*
X429105Y392535D01*
X428731Y392784D01*
X428290Y392872D01*
X426350D01*
X426225Y392847D01*
X425725Y393217D01*
Y393315D01*
X425627D01*
X425257Y393815D01*
X425282Y393940D01*
Y395880D01*
X425194Y396321D01*
X424945Y396695D01*
X424571Y396944D01*
X424130Y397032D01*
X423689Y396944D01*
X423345Y396714D01*
X423001Y396944D01*
X422560Y397032D01*
X422119Y396944D01*
X421770Y396711D01*
X421421Y396944D01*
X420980Y397032D01*
X420539Y396944D01*
X420195Y396714D01*
X419851Y396944D01*
X419410Y397032D01*
X418969Y396944D01*
X418620Y396711D01*
X418271Y396944D01*
X417830Y397032D01*
X417389Y396944D01*
X417045Y396714D01*
X416701Y396944D01*
X416260Y397032D01*
X415819Y396944D01*
X415475Y396714D01*
X415131Y396944D01*
X414690Y397032D01*
X414249Y396944D01*
X413875Y396695D01*
X413625Y396321D01*
X413538Y395880D01*
Y393940D01*
X413563Y393815D01*
X413193Y393315D01*
X413095D01*
Y393217D01*
X412595Y392847D01*
X412470Y392872D01*
X410530D01*
X410089Y392784D01*
X409715Y392535D01*
X409466Y392161D01*
X409378Y391720D01*
X409466Y391279D01*
X409695Y390935D01*
X409466Y390591D01*
X409378Y390150D01*
X408957Y389702D01*
X390012D01*
X389793Y389920D01*
X389429Y390163D01*
X389000Y390249D01*
X389000Y390249D01*
X372044D01*
X371625Y390266D01*
X370827Y390341D01*
X370513Y390393D01*
X370243Y390455D01*
X370026Y390523D01*
X369864Y390591D01*
X369770Y390645D01*
X369724Y390713D01*
X368996Y391200D01*
X368464Y391305D01*
X368299Y391848D01*
X369046Y392594D01*
X369937D01*
X370111Y392579D01*
X370352Y392539D01*
X370537Y392490D01*
X370664Y392438D01*
X370735Y392395D01*
X370762Y392370D01*
X370765Y392366D01*
Y391069D01*
X377676D01*
Y397587D01*
D02*
G37*
G36*
X389000Y393828D02*
X385744D01*
Y390769D01*
X389000D01*
Y393828D01*
D02*
G37*
G36*
X384744D02*
X381488D01*
Y390769D01*
X384744D01*
Y393828D01*
D02*
G37*
G36*
X329889Y393858D02*
X327000D01*
Y389460D01*
X327377Y389510D01*
X328194Y389848D01*
X328896Y390387D01*
X329435Y391089D01*
X329773Y391906D01*
X329889Y392783D01*
Y393858D01*
D02*
G37*
G36*
X326000D02*
X323111D01*
Y392783D01*
X323226Y391906D01*
X323565Y391089D01*
X324104Y390387D01*
X324805Y389848D01*
X325623Y389510D01*
X326000Y389460D01*
Y393858D01*
D02*
G37*
G36*
X394500Y382750D02*
X392100D01*
Y380500D01*
X394500D01*
Y382750D01*
D02*
G37*
G36*
X326000Y383521D02*
X325623Y383472D01*
X324805Y383133D01*
X324104Y382595D01*
X323565Y381893D01*
X323226Y381075D01*
X323111Y380198D01*
Y378528D01*
X326000D01*
Y383521D01*
D02*
G37*
G36*
X397900Y379500D02*
X395500D01*
Y377250D01*
X397900D01*
Y379500D01*
D02*
G37*
G36*
X394500D02*
X392100D01*
Y377250D01*
X394500D01*
Y379500D01*
D02*
G37*
G36*
X389000Y379626D02*
X385744D01*
Y376567D01*
X389000D01*
Y379626D01*
D02*
G37*
G36*
X384744D02*
X381488D01*
Y376567D01*
X384744D01*
Y379626D01*
D02*
G37*
G36*
X375000Y373228D02*
Y371500D01*
X376728D01*
X376408Y372274D01*
X375775Y372907D01*
X375000Y373228D01*
D02*
G37*
G36*
X374000D02*
X373225Y372907D01*
X372592Y372274D01*
X372272Y371500D01*
X374000D01*
Y373228D01*
D02*
G37*
G36*
X376728Y370500D02*
X375000D01*
Y368772D01*
X375775Y369092D01*
X376408Y369725D01*
X376728Y370500D01*
D02*
G37*
G36*
X374000D02*
X372272D01*
X372592Y369725D01*
X373225Y369092D01*
X374000Y368772D01*
Y370500D01*
D02*
G37*
G36*
X472800Y365328D02*
Y363600D01*
X474528D01*
X474207Y364374D01*
X473574Y365007D01*
X472800Y365328D01*
D02*
G37*
G36*
X471800D02*
X471026Y365007D01*
X470393Y364374D01*
X470072Y363600D01*
X471800D01*
Y365328D01*
D02*
G37*
G36*
X474528Y362600D02*
X472800D01*
Y360872D01*
X473574Y361192D01*
X474207Y361825D01*
X474528Y362600D01*
D02*
G37*
G36*
X471800D02*
X470072D01*
X470393Y361825D01*
X471026Y361192D01*
X471800Y360872D01*
Y362600D01*
D02*
G37*
G36*
X447350Y362464D02*
Y360736D01*
X449079D01*
X448758Y361511D01*
X448125Y362144D01*
X447350Y362464D01*
D02*
G37*
G36*
X446350D02*
X445576Y362144D01*
X444943Y361511D01*
X444622Y360736D01*
X446350D01*
Y362464D01*
D02*
G37*
G36*
X342750Y362500D02*
X340500D01*
Y360100D01*
X342750D01*
Y362500D01*
D02*
G37*
G36*
X339500D02*
X337250D01*
Y360100D01*
X339500D01*
Y362500D01*
D02*
G37*
G36*
X449079Y359736D02*
X447350D01*
Y358008D01*
X448125Y358329D01*
X448758Y358962D01*
X449079Y359736D01*
D02*
G37*
G36*
X446350D02*
X444622D01*
X444943Y358962D01*
X445576Y358329D01*
X446350Y358008D01*
Y359736D01*
D02*
G37*
G36*
X363500Y359728D02*
Y358000D01*
X365228D01*
X364908Y358774D01*
X364275Y359407D01*
X363500Y359728D01*
D02*
G37*
G36*
X362500D02*
X361725Y359407D01*
X361092Y358774D01*
X360772Y358000D01*
X362500D01*
Y359728D01*
D02*
G37*
G36*
X342750Y359100D02*
X340500D01*
Y356700D01*
X342750D01*
Y359100D01*
D02*
G37*
G36*
X365228Y357000D02*
X363500D01*
Y355272D01*
X364275Y355592D01*
X364908Y356225D01*
X365228Y357000D01*
D02*
G37*
G36*
X362500D02*
X360772D01*
X361092Y356225D01*
X361725Y355592D01*
X362500Y355272D01*
Y357000D01*
D02*
G37*
G36*
X325043Y360550D02*
X321477D01*
Y355213D01*
X325043D01*
Y360550D01*
D02*
G37*
G36*
X441300Y353728D02*
Y352000D01*
X443028D01*
X442707Y352775D01*
X442074Y353408D01*
X441300Y353728D01*
D02*
G37*
G36*
X440300D02*
X439526Y353408D01*
X438893Y352775D01*
X438572Y352000D01*
X440300D01*
Y353728D01*
D02*
G37*
G36*
X326500Y352250D02*
X324100D01*
Y350000D01*
X326500D01*
Y352250D01*
D02*
G37*
G36*
X323100D02*
X320700D01*
Y350000D01*
X323100D01*
Y352250D01*
D02*
G37*
G36*
X458845Y356869D02*
X457935D01*
X457056Y356634D01*
X456268Y356179D01*
X455624Y355536D01*
X455169Y354748D01*
X454934Y353869D01*
Y352959D01*
X455169Y352080D01*
X455624Y351292D01*
X456268Y350648D01*
X457056Y350193D01*
X457935Y349958D01*
X458845D01*
X459724Y350193D01*
X460512Y350648D01*
X461155Y351292D01*
X461610Y352080D01*
X461846Y352959D01*
Y353869D01*
X461610Y354748D01*
X461155Y355536D01*
X460512Y356179D01*
X459724Y356634D01*
X458845Y356869D01*
D02*
G37*
G36*
X443028Y351000D02*
X441300D01*
Y349272D01*
X442074Y349592D01*
X442707Y350225D01*
X443028Y351000D01*
D02*
G37*
G36*
X440300D02*
X438572D01*
X438893Y350225D01*
X439526Y349592D01*
X440300Y349272D01*
Y351000D01*
D02*
G37*
G36*
X368610Y350654D02*
Y348925D01*
X370339D01*
X370018Y349700D01*
X369385Y350333D01*
X368610Y350654D01*
D02*
G37*
G36*
X367610D02*
X366836Y350333D01*
X366203Y349700D01*
X365882Y348925D01*
X367610D01*
Y350654D01*
D02*
G37*
G36*
X326500Y349000D02*
X324100D01*
Y346750D01*
X326500D01*
Y349000D01*
D02*
G37*
G36*
X323100D02*
X320700D01*
Y346750D01*
X323100D01*
Y349000D01*
D02*
G37*
G36*
X370339Y347925D02*
X368610D01*
Y346197D01*
X369385Y346518D01*
X370018Y347151D01*
X370339Y347925D01*
D02*
G37*
G36*
X367610D02*
X365882D01*
X366203Y347151D01*
X366836Y346518D01*
X367610Y346197D01*
Y347925D01*
D02*
G37*
G36*
X427000Y305128D02*
Y303400D01*
X428728D01*
X428407Y304174D01*
X427774Y304807D01*
X427000Y305128D01*
D02*
G37*
G36*
X426000D02*
X425225Y304807D01*
X424592Y304174D01*
X424272Y303400D01*
X426000D01*
Y305128D01*
D02*
G37*
G36*
X366642Y303409D02*
Y301681D01*
X368370D01*
X368049Y302456D01*
X367416Y303089D01*
X366642Y303409D01*
D02*
G37*
G36*
X365642D02*
X364867Y303089D01*
X364234Y302456D01*
X363913Y301681D01*
X365642D01*
Y303409D01*
D02*
G37*
G36*
X428728Y302400D02*
X427000D01*
Y300672D01*
X427774Y300992D01*
X428407Y301625D01*
X428728Y302400D01*
D02*
G37*
G36*
X426000D02*
X424272D01*
X424592Y301625D01*
X425225Y300992D01*
X426000Y300672D01*
Y302400D01*
D02*
G37*
G36*
X458890Y301224D02*
Y299496D01*
X460618D01*
X460297Y300271D01*
X459664Y300904D01*
X458890Y301224D01*
D02*
G37*
G36*
X457890D02*
X457115Y300904D01*
X456482Y300271D01*
X456161Y299496D01*
X457890D01*
Y301224D01*
D02*
G37*
G36*
X368370Y300681D02*
X366642D01*
Y298953D01*
X367416Y299274D01*
X368049Y299907D01*
X368370Y300681D01*
D02*
G37*
G36*
X365642D02*
X363913D01*
X364234Y299907D01*
X364867Y299274D01*
X365642Y298953D01*
Y300681D01*
D02*
G37*
G36*
X460618Y298496D02*
X458890D01*
Y296768D01*
X459664Y297089D01*
X460297Y297722D01*
X460618Y298496D01*
D02*
G37*
G36*
X457890D02*
X456161D01*
X456482Y297722D01*
X457115Y297089D01*
X457890Y296768D01*
Y298496D01*
D02*
G37*
G36*
X360736Y297504D02*
Y295776D01*
X362464D01*
X362144Y296550D01*
X361511Y297183D01*
X360736Y297504D01*
D02*
G37*
G36*
X359736D02*
X358962Y297183D01*
X358329Y296550D01*
X358008Y295776D01*
X359736D01*
Y297504D01*
D02*
G37*
G36*
X437000Y297102D02*
Y295374D01*
X438728D01*
X438407Y296148D01*
X437775Y296781D01*
X437000Y297102D01*
D02*
G37*
G36*
X436000D02*
X435225Y296781D01*
X434592Y296148D01*
X434272Y295374D01*
X436000D01*
Y297102D01*
D02*
G37*
G36*
X362464Y294776D02*
X360736D01*
Y293047D01*
X361511Y293368D01*
X362144Y294001D01*
X362464Y294776D01*
D02*
G37*
G36*
X359736D02*
X358008D01*
X358329Y294001D01*
X358962Y293368D01*
X359736Y293047D01*
Y294776D01*
D02*
G37*
G36*
X438728Y294374D02*
X437000D01*
Y292646D01*
X437775Y292967D01*
X438407Y293600D01*
X438728Y294374D01*
D02*
G37*
G36*
X436000D02*
X434272D01*
X434592Y293600D01*
X435225Y292967D01*
X436000Y292646D01*
Y294374D01*
D02*
G37*
G36*
X458890Y291382D02*
Y289653D01*
X460618D01*
X460297Y290428D01*
X459664Y291061D01*
X458890Y291382D01*
D02*
G37*
G36*
X457890D02*
X457115Y291061D01*
X456482Y290428D01*
X456161Y289653D01*
X457890D01*
Y291382D01*
D02*
G37*
G36*
X460618Y288653D02*
X458890D01*
Y286925D01*
X459664Y287246D01*
X460297Y287879D01*
X460618Y288653D01*
D02*
G37*
G36*
X457890D02*
X456161D01*
X456482Y287879D01*
X457115Y287246D01*
X457890Y286925D01*
Y288653D01*
D02*
G37*
G36*
X472200Y285428D02*
Y283700D01*
X473928D01*
X473607Y284474D01*
X472974Y285107D01*
X472200Y285428D01*
D02*
G37*
G36*
X471200D02*
X470426Y285107D01*
X469793Y284474D01*
X469472Y283700D01*
X471200D01*
Y285428D01*
D02*
G37*
G36*
X473928Y282700D02*
X472200D01*
Y280972D01*
X472974Y281293D01*
X473607Y281926D01*
X473928Y282700D01*
D02*
G37*
G36*
X471200D02*
X469472D01*
X469793Y281926D01*
X470426Y281293D01*
X471200Y280972D01*
Y282700D01*
D02*
G37*
G36*
X458845Y285609D02*
X457935D01*
X457056Y285374D01*
X456268Y284919D01*
X455624Y284276D01*
X455169Y283488D01*
X454934Y282609D01*
Y281699D01*
X455169Y280820D01*
X455624Y280032D01*
X456268Y279388D01*
X457056Y278933D01*
X457935Y278698D01*
X458845D01*
X459724Y278933D01*
X460512Y279388D01*
X461155Y280032D01*
X461610Y280820D01*
X461846Y281699D01*
Y282609D01*
X461610Y283488D01*
X461155Y284276D01*
X460512Y284919D01*
X459724Y285374D01*
X458845Y285609D01*
D02*
G37*
G36*
X336797D02*
X335888D01*
X335009Y285374D01*
X334221Y284919D01*
X333577Y284276D01*
X333122Y283488D01*
X332887Y282609D01*
Y281699D01*
X333122Y280820D01*
X333577Y280032D01*
X334221Y279388D01*
X335009Y278933D01*
X335888Y278698D01*
X336797D01*
X337677Y278933D01*
X338464Y279388D01*
X339108Y280032D01*
X339563Y280820D01*
X339798Y281699D01*
Y282609D01*
X339563Y283488D01*
X339108Y284276D01*
X338464Y284919D01*
X337677Y285374D01*
X336797Y285609D01*
D02*
G37*
G36*
X406012Y279787D02*
Y278059D01*
X407740D01*
X407419Y278834D01*
X406786Y279467D01*
X406012Y279787D01*
D02*
G37*
G36*
X405012D02*
X404237Y279467D01*
X403604Y278834D01*
X403284Y278059D01*
X405012D01*
Y279787D01*
D02*
G37*
G36*
X348925D02*
Y278059D01*
X350654D01*
X350333Y278834D01*
X349700Y279467D01*
X348925Y279787D01*
D02*
G37*
G36*
X347925D02*
X347151Y279467D01*
X346518Y278834D01*
X346197Y278059D01*
X347925D01*
Y279787D01*
D02*
G37*
G36*
X456783Y277878D02*
X453783D01*
Y276000D01*
X456783D01*
Y277878D01*
D02*
G37*
G36*
X452783D02*
X449783D01*
Y276000D01*
X452783D01*
Y277878D01*
D02*
G37*
G36*
X474500Y277878D02*
X471500D01*
Y276000D01*
X474500D01*
Y277878D01*
D02*
G37*
G36*
X470500D02*
X467500D01*
Y276000D01*
X470500D01*
Y277878D01*
D02*
G37*
G36*
X407740Y277059D02*
X406012D01*
Y275331D01*
X406786Y275652D01*
X407419Y276285D01*
X407740Y277059D01*
D02*
G37*
G36*
X405012D02*
X403284D01*
X403604Y276285D01*
X404237Y275652D01*
X405012Y275331D01*
Y277059D01*
D02*
G37*
G36*
X350654D02*
X348925D01*
Y275331D01*
X349700Y275652D01*
X350333Y276285D01*
X350654Y277059D01*
D02*
G37*
G36*
X347925D02*
X346197D01*
X346518Y276285D01*
X347151Y275652D01*
X347925Y275331D01*
Y277059D01*
D02*
G37*
G36*
X456783Y275000D02*
X453783D01*
Y273122D01*
X456783D01*
Y275000D01*
D02*
G37*
G36*
X452783D02*
X449783D01*
Y273122D01*
X452783D01*
Y275000D01*
D02*
G37*
G36*
X474500Y275000D02*
X471500D01*
Y273122D01*
X474500D01*
Y275000D01*
D02*
G37*
G36*
X470500D02*
X467500D01*
Y273122D01*
X470500D01*
Y275000D01*
D02*
G37*
G36*
X362960Y269988D02*
Y268260D01*
X364688D01*
X364367Y269034D01*
X363734Y269667D01*
X362960Y269988D01*
D02*
G37*
G36*
X361960D02*
X361185Y269667D01*
X360552Y269034D01*
X360231Y268260D01*
X361960D01*
Y269988D01*
D02*
G37*
G36*
X433571Y269945D02*
Y268216D01*
X435299D01*
X434978Y268991D01*
X434345Y269624D01*
X433571Y269945D01*
D02*
G37*
G36*
X432571D02*
X431796Y269624D01*
X431163Y268991D01*
X430843Y268216D01*
X432571D01*
Y269945D01*
D02*
G37*
G36*
X423728D02*
Y268216D01*
X425457D01*
X425136Y268991D01*
X424503Y269624D01*
X423728Y269945D01*
D02*
G37*
G36*
X422728D02*
X421954Y269624D01*
X421321Y268991D01*
X421000Y268216D01*
X422728D01*
Y269945D01*
D02*
G37*
G36*
X406012D02*
Y268216D01*
X407740D01*
X407419Y268991D01*
X406786Y269624D01*
X406012Y269945D01*
D02*
G37*
G36*
X405012D02*
X404237Y269624D01*
X403604Y268991D01*
X403284Y268216D01*
X405012D01*
Y269945D01*
D02*
G37*
G36*
X396169D02*
Y268216D01*
X397898D01*
X397577Y268991D01*
X396944Y269624D01*
X396169Y269945D01*
D02*
G37*
G36*
X395169D02*
X394395Y269624D01*
X393762Y268991D01*
X393441Y268216D01*
X395169D01*
Y269945D01*
D02*
G37*
G36*
X364688Y267260D02*
X362960D01*
Y265531D01*
X363734Y265852D01*
X364367Y266485D01*
X364688Y267260D01*
D02*
G37*
G36*
X361960D02*
X360231D01*
X360552Y266485D01*
X361185Y265852D01*
X361960Y265531D01*
Y267260D01*
D02*
G37*
G36*
X435299Y267216D02*
X433571D01*
Y265488D01*
X434345Y265809D01*
X434978Y266442D01*
X435299Y267216D01*
D02*
G37*
G36*
X432571D02*
X430843D01*
X431163Y266442D01*
X431796Y265809D01*
X432571Y265488D01*
Y267216D01*
D02*
G37*
G36*
X425457D02*
X423728D01*
Y265488D01*
X424503Y265809D01*
X425136Y266442D01*
X425457Y267216D01*
D02*
G37*
G36*
X422728D02*
X421000D01*
X421321Y266442D01*
X421954Y265809D01*
X422728Y265488D01*
Y267216D01*
D02*
G37*
G36*
X407740D02*
X406012D01*
Y265488D01*
X406786Y265809D01*
X407419Y266442D01*
X407740Y267216D01*
D02*
G37*
G36*
X405012D02*
X403284D01*
X403604Y266442D01*
X404237Y265809D01*
X405012Y265488D01*
Y267216D01*
D02*
G37*
G36*
X397898D02*
X396169D01*
Y265488D01*
X396944Y265809D01*
X397577Y266442D01*
X397898Y267216D01*
D02*
G37*
G36*
X395169D02*
X393441D01*
X393762Y266442D01*
X394395Y265809D01*
X395169Y265488D01*
Y267216D01*
D02*
G37*
G36*
X356000Y263028D02*
Y261300D01*
X357728D01*
X357407Y262074D01*
X356774Y262707D01*
X356000Y263028D01*
D02*
G37*
G36*
X355000D02*
X354225Y262707D01*
X353592Y262074D01*
X353272Y261300D01*
X355000D01*
Y263028D01*
D02*
G37*
G36*
X326000Y265800D02*
X325802D01*
X324454Y265439D01*
X323246Y264741D01*
X322259Y263754D01*
X321561Y262546D01*
X321200Y261198D01*
Y261000D01*
X326000D01*
Y265800D01*
D02*
G37*
G36*
X357728Y260300D02*
X356000D01*
Y258572D01*
X356774Y258892D01*
X357407Y259525D01*
X357728Y260300D01*
D02*
G37*
G36*
X355000D02*
X353272D01*
X353592Y259525D01*
X354225Y258892D01*
X355000Y258572D01*
Y260300D01*
D02*
G37*
G36*
X331800Y260000D02*
X327000D01*
Y255200D01*
X327198D01*
X328546Y255561D01*
X329754Y256259D01*
X330741Y257246D01*
X331439Y258454D01*
X331800Y259802D01*
Y260000D01*
D02*
G37*
G36*
X326000D02*
X321200D01*
Y259802D01*
X321561Y258454D01*
X322259Y257246D01*
X323246Y256259D01*
X324454Y255561D01*
X325802Y255200D01*
X326000D01*
Y260000D01*
D02*
G37*
%LPD*%
G36*
X371488Y392328D02*
X371468Y392518D01*
X371408Y392688D01*
X371307Y392838D01*
X371167Y392968D01*
X370986Y393078D01*
X370764Y393168D01*
X370503Y393238D01*
X370201Y393288D01*
X369859Y393318D01*
X369477Y393328D01*
Y395328D01*
X369859Y395338D01*
X370201Y395368D01*
X370503Y395418D01*
X370764Y395488D01*
X370986Y395578D01*
X371167Y395688D01*
X371307Y395818D01*
X371408Y395968D01*
X371468Y396138D01*
X371488Y396328D01*
Y392328D01*
D02*
G37*
G36*
X347833Y389798D02*
X347858Y389730D01*
X347899Y389670D01*
X347956Y389618D01*
X348029Y389574D01*
X348119Y389538D01*
X348224Y389510D01*
X348345Y389490D01*
X348483Y389478D01*
X348637Y389474D01*
Y388674D01*
X348485Y388671D01*
X348229Y388644D01*
X348125Y388620D01*
X348037Y388590D01*
X347965Y388553D01*
X347909Y388510D01*
X347869Y388459D01*
X347845Y388403D01*
X347837Y388339D01*
X347825Y389874D01*
X347833Y389798D01*
D02*
G37*
G36*
X354717Y388234D02*
X354629Y388318D01*
X354539Y388392D01*
X354446Y388458D01*
X354351Y388516D01*
X354253Y388564D01*
X354152Y388604D01*
X354049Y388634D01*
X353943Y388656D01*
X353834Y388670D01*
X353723Y388674D01*
Y389474D01*
X353834Y389478D01*
X353943Y389492D01*
X354049Y389514D01*
X354152Y389544D01*
X354253Y389584D01*
X354351Y389632D01*
X354446Y389690D01*
X354539Y389756D01*
X354629Y389830D01*
X354717Y389914D01*
Y388234D01*
D02*
G37*
G36*
X369351Y390063D02*
X369545Y389951D01*
X369781Y389851D01*
X370057Y389765D01*
X370375Y389693D01*
X370735Y389633D01*
X371577Y389554D01*
X372059Y389534D01*
X372584Y389527D01*
Y388727D01*
X372059Y388721D01*
X370735Y388621D01*
X370375Y388562D01*
X370057Y388489D01*
X369781Y388403D01*
X369545Y388304D01*
X369351Y388192D01*
X369198Y388066D01*
Y390189D01*
X369351Y390063D01*
D02*
G37*
G36*
X368198Y387629D02*
X368003Y387622D01*
X367566Y387632D01*
X367470Y387645D01*
X367397Y387662D01*
X367350Y387684D01*
X367327Y387711D01*
X367328Y387742D01*
X367354Y387778D01*
X366788Y388343D01*
X366752Y388317D01*
X366721Y388316D01*
X366695Y388339D01*
X366673Y388387D01*
X366656Y388459D01*
X366643Y388556D01*
X366635Y388677D01*
X366633Y388993D01*
X366639Y389188D01*
X368198Y387629D01*
D02*
G37*
G36*
X370511Y387741D02*
X370582Y387519D01*
X370584Y387159D01*
X370169Y386745D01*
X369860Y386460D01*
X369243Y385949D01*
X368985Y385764D01*
X368750Y385617D01*
X368548Y385511D01*
X368385Y385445D01*
X368352Y385436D01*
X368228Y385460D01*
X367370Y385290D01*
X366642Y384803D01*
X366614Y384776D01*
X366128Y384048D01*
X365957Y383189D01*
X366128Y382331D01*
X366614Y381603D01*
X366682Y381558D01*
X366737Y381464D01*
X366805Y381302D01*
X366872Y381084D01*
X366934Y380814D01*
X366985Y380508D01*
X367078Y379258D01*
Y379110D01*
X364371Y376402D01*
X363909Y376593D01*
Y377528D01*
X357131D01*
Y375858D01*
X357246Y374981D01*
X357585Y374164D01*
X358124Y373462D01*
X358825Y372923D01*
X359643Y372585D01*
X359887Y372553D01*
X360048Y372079D01*
X356930Y368962D01*
X346338D01*
X346326Y368963D01*
X346277Y368974D01*
X346228Y368989D01*
X346179Y369009D01*
X346128Y369035D01*
X346075Y369067D01*
X346019Y369108D01*
X345960Y369157D01*
X345883Y369230D01*
X345831Y369264D01*
X345602Y369493D01*
X344885Y369790D01*
X344109D01*
X343392Y369493D01*
X342950Y369051D01*
X342450Y369100D01*
Y369100D01*
X341872D01*
X341854Y369139D01*
X341811Y369281D01*
X341774Y369471D01*
X341733Y369908D01*
Y376208D01*
X344010Y378485D01*
X344510Y378278D01*
Y377896D01*
X344807Y377180D01*
X345355Y376631D01*
X346072Y376334D01*
X346848D01*
X347565Y376631D01*
X347794Y376860D01*
X347846Y376894D01*
X347923Y376967D01*
X347982Y377016D01*
X348038Y377057D01*
X348091Y377089D01*
X348142Y377115D01*
X348191Y377135D01*
X348240Y377150D01*
X348289Y377161D01*
X348301Y377163D01*
X349263D01*
X349263Y377163D01*
X349692Y377248D01*
X350056Y377491D01*
X352215Y379649D01*
X352238Y379652D01*
X352296Y379651D01*
X352741Y379469D01*
X352751Y379421D01*
X352976Y378877D01*
X353131Y378645D01*
X353547Y378229D01*
X353779Y378074D01*
X354323Y377849D01*
X354596Y377795D01*
X355184D01*
X355457Y377849D01*
X356001Y378074D01*
X356233Y378229D01*
X356631Y378627D01*
X356710Y378623D01*
X356964Y378528D01*
X363909D01*
Y380198D01*
X363793Y381075D01*
X363455Y381893D01*
X363211Y382210D01*
X363207Y382316D01*
X363365Y382832D01*
X363556Y382960D01*
X367522Y386925D01*
X367550Y386919D01*
X367827Y386913D01*
X368110Y386856D01*
X368968Y387027D01*
X369696Y387513D01*
X369724Y387541D01*
X369770Y387609D01*
X369864Y387664D01*
X370026Y387732D01*
X370243Y387800D01*
X370335Y387821D01*
X370511Y387741D01*
D02*
G37*
G36*
X348851Y384363D02*
X348458Y383956D01*
X347839Y383225D01*
X347614Y382901D01*
X347443Y382604D01*
X347328Y382335D01*
X347269Y382094D01*
X347265Y381880D01*
X347317Y381693D01*
X347425Y381534D01*
X345607Y383484D01*
X345224Y383100D01*
X347041Y381151D01*
X346891Y381267D01*
X346712Y381326D01*
X346502Y381327D01*
X346264Y381271D01*
X345996Y381157D01*
X345698Y380986D01*
X345371Y380757D01*
X345015Y380470D01*
X344213Y379725D01*
X342897Y381237D01*
X343290Y381644D01*
X343909Y382375D01*
X344134Y382699D01*
X344305Y382996D01*
X344395Y383207D01*
X344394Y383232D01*
X344363Y383353D01*
X344305Y383488D01*
X344219Y383636D01*
X344107Y383798D01*
X343966Y383973D01*
X343604Y384363D01*
X344213Y385168D01*
X344423Y384965D01*
X344798Y384645D01*
X344963Y384530D01*
X345112Y384443D01*
X345246Y384386D01*
X345364Y384358D01*
X345467Y384359D01*
X345555Y384389D01*
X345627Y384449D01*
X345545Y384355D01*
X345752Y384443D01*
X346050Y384614D01*
X346377Y384843D01*
X346733Y385130D01*
X347535Y385875D01*
X348851Y384363D01*
D02*
G37*
G36*
X371626Y386050D02*
X371260Y385675D01*
X370394Y384668D01*
X370182Y384372D01*
X370008Y384096D01*
X369874Y383839D01*
X369777Y383602D01*
X369719Y383386D01*
X369700Y383189D01*
X368199Y384689D01*
X368396Y384709D01*
X368613Y384767D01*
X368850Y384863D01*
X369106Y384998D01*
X369382Y385171D01*
X369678Y385383D01*
X370330Y385923D01*
X370686Y386250D01*
X371061Y386616D01*
X371626Y386050D01*
D02*
G37*
G36*
X377672Y382870D02*
X377465Y382656D01*
X377142Y382277D01*
X377026Y382111D01*
X376940Y381961D01*
X376884Y381828D01*
X376859Y381711D01*
X376864Y381610D01*
X376899Y381525D01*
X376964Y381456D01*
X375353Y382673D01*
X375444Y382629D01*
X375553Y382618D01*
X375682Y382641D01*
X375830Y382697D01*
X375997Y382786D01*
X376183Y382909D01*
X376389Y383065D01*
X376858Y383477D01*
X377121Y383734D01*
X377672Y382870D01*
D02*
G37*
G36*
X339596Y381151D02*
X339539Y381199D01*
X339470Y381224D01*
X339388Y381225D01*
X339294Y381203D01*
X339187Y381157D01*
X339068Y381087D01*
X338936Y380994D01*
X338791Y380877D01*
X338465Y380573D01*
X337998Y381237D01*
X338153Y381398D01*
X338398Y381688D01*
X338488Y381817D01*
X338557Y381935D01*
X338604Y382043D01*
X338629Y382140D01*
X338633Y382227D01*
X338615Y382303D01*
X338575Y382369D01*
X339596Y381151D01*
D02*
G37*
G36*
X400075Y382539D02*
X400755Y381963D01*
X400942Y381839D01*
X401109Y381749D01*
X401256Y381692D01*
X401382Y381670D01*
X401489Y381681D01*
X401576Y381726D01*
X400024Y380474D01*
X400086Y380544D01*
X400118Y380630D01*
X400121Y380731D01*
X400094Y380849D01*
X400037Y380982D01*
X399950Y381132D01*
X399833Y381297D01*
X399687Y381478D01*
X399305Y381888D01*
X399808Y382799D01*
X400075Y382539D01*
D02*
G37*
G36*
X369136Y381976D02*
X369023Y381782D01*
X368924Y381547D01*
X368838Y381270D01*
X368765Y380952D01*
X368706Y380593D01*
X368626Y379751D01*
X368607Y379268D01*
X368600Y378744D01*
X367800D01*
X367793Y379268D01*
X367694Y380593D01*
X367635Y380952D01*
X367562Y381270D01*
X367476Y381547D01*
X367377Y381782D01*
X367264Y381976D01*
X367139Y382129D01*
X369261D01*
X369136Y381976D01*
D02*
G37*
G36*
X374502Y377591D02*
X374339Y377694D01*
X374149Y377743D01*
X373932Y377736D01*
X373689Y377676D01*
X373420Y377560D01*
X373124Y377391D01*
X372801Y377166D01*
X372452Y376887D01*
X371673Y376165D01*
X370062Y377382D01*
X370468Y377802D01*
X371105Y378551D01*
X371335Y378879D01*
X371507Y379177D01*
X371620Y379445D01*
X371675Y379682D01*
X371672Y379889D01*
X371609Y380065D01*
X371488Y380210D01*
X374502Y377591D01*
D02*
G37*
G36*
X403736Y379188D02*
X403708Y379120D01*
X403704Y379039D01*
X403725Y378945D01*
X403769Y378838D01*
X403838Y378718D01*
X403931Y378586D01*
X404047Y378441D01*
X404354Y378112D01*
X403921Y377414D01*
X403710Y377619D01*
X403169Y378074D01*
X403020Y378172D01*
X402887Y378244D01*
X402768Y378289D01*
X402666Y378307D01*
X402578Y378298D01*
X402507Y378262D01*
X403788Y379243D01*
X403736Y379188D01*
D02*
G37*
G36*
X347447Y379069D02*
X347543Y378988D01*
X347642Y378917D01*
X347743Y378855D01*
X347846Y378803D01*
X347951Y378760D01*
X348059Y378727D01*
X348168Y378703D01*
X348280Y378689D01*
X348394Y378684D01*
Y377884D01*
X348280Y377879D01*
X348168Y377865D01*
X348059Y377841D01*
X347951Y377808D01*
X347846Y377765D01*
X347743Y377713D01*
X347642Y377651D01*
X347543Y377580D01*
X347447Y377499D01*
X347353Y377409D01*
Y379159D01*
X347447Y379069D01*
D02*
G37*
G36*
X416665Y377320D02*
X416679Y377208D01*
X416703Y377099D01*
X416736Y376991D01*
X416779Y376886D01*
X416831Y376783D01*
X416893Y376682D01*
X416964Y376583D01*
X417045Y376487D01*
X417076Y376454D01*
X417122Y376434D01*
X417169Y376424D01*
X417218Y376423D01*
X417269Y376431D01*
X417321Y376448D01*
X417375Y376476D01*
X417431Y376512D01*
X417488Y376558D01*
X417547Y376613D01*
X418039Y375973D01*
X417941Y375874D01*
X417645Y375537D01*
X417594Y375469D01*
X417553Y375406D01*
X417521Y375349D01*
X417498Y375298D01*
X417485Y375254D01*
X417065Y376393D01*
X415385D01*
X415475Y376487D01*
X415556Y376583D01*
X415627Y376682D01*
X415689Y376783D01*
X415741Y376886D01*
X415784Y376991D01*
X415817Y377099D01*
X415841Y377208D01*
X415855Y377320D01*
X415860Y377434D01*
X416660D01*
X416665Y377320D01*
D02*
G37*
G36*
X415367Y374625D02*
X415273Y374715D01*
X415177Y374796D01*
X415078Y374867D01*
X414977Y374929D01*
X414874Y374981D01*
X414769Y375024D01*
X414661Y375057D01*
X414552Y375081D01*
X414440Y375095D01*
X414326Y375100D01*
Y375900D01*
X414440Y375905D01*
X414552Y375919D01*
X414661Y375943D01*
X414769Y375976D01*
X414874Y376019D01*
X414977Y376071D01*
X415078Y376133D01*
X415177Y376204D01*
X415273Y376285D01*
X415367Y376375D01*
Y374625D01*
D02*
G37*
G36*
X323721Y370674D02*
X323732Y370546D01*
X323749Y370433D01*
X323773Y370335D01*
X323804Y370251D01*
X323842Y370183D01*
X323886Y370131D01*
X323938Y370093D01*
X323996Y370070D01*
X324061Y370063D01*
X322575D01*
X322640Y370070D01*
X322698Y370093D01*
X322750Y370131D01*
X322794Y370183D01*
X322832Y370251D01*
X322863Y370335D01*
X322887Y370433D01*
X322904Y370546D01*
X322915Y370674D01*
X322918Y370818D01*
X323718D01*
X323721Y370674D01*
D02*
G37*
G36*
X341007Y370008D02*
X341066Y369368D01*
X341118Y369108D01*
X341184Y368888D01*
X341266Y368708D01*
X341362Y368568D01*
X341472Y368468D01*
X341598Y368408D01*
X341738Y368388D01*
X338262D01*
X338402Y368408D01*
X338528Y368468D01*
X338638Y368568D01*
X338734Y368708D01*
X338815Y368888D01*
X338882Y369108D01*
X338934Y369368D01*
X338970Y369668D01*
X338993Y370008D01*
X339000Y370388D01*
X341000D01*
X341007Y370008D01*
D02*
G37*
G36*
X345484Y368625D02*
X345580Y368544D01*
X345679Y368473D01*
X345780Y368411D01*
X345883Y368359D01*
X345988Y368316D01*
X346095Y368283D01*
X346205Y368259D01*
X346317Y368245D01*
X346431Y368240D01*
Y367440D01*
X346317Y367435D01*
X346205Y367421D01*
X346095Y367397D01*
X345988Y367364D01*
X345883Y367321D01*
X345780Y367269D01*
X345679Y367207D01*
X345580Y367136D01*
X345484Y367055D01*
X345390Y366965D01*
Y368715D01*
X345484Y368625D01*
D02*
G37*
G36*
X331831Y369210D02*
X331891Y369040D01*
X331991Y368890D01*
X332131Y368760D01*
X332311Y368650D01*
X332531Y368560D01*
X332791Y368490D01*
X333091Y368440D01*
X333431Y368410D01*
X333811Y368400D01*
Y366400D01*
X333431Y366398D01*
X332131Y366314D01*
X331991Y366283D01*
X331891Y366247D01*
X331831Y366207D01*
X331811Y366162D01*
Y369400D01*
X331831Y369210D01*
D02*
G37*
G36*
X338262Y368388D02*
X338274Y365400D01*
X338253Y365590D01*
X338192Y365760D01*
X338091Y365910D01*
X337950Y366040D01*
X337769Y366150D01*
X337548Y366240D01*
X337286Y366310D01*
X336985Y366360D01*
X336644Y366390D01*
X336262Y366400D01*
Y368400D01*
X338262Y368388D01*
D02*
G37*
G36*
X382052Y360025D02*
X382066Y359913D01*
X382090Y359803D01*
X382123Y359696D01*
X382166Y359591D01*
X382218Y359487D01*
X382280Y359386D01*
X382351Y359288D01*
X382432Y359191D01*
X382522Y359097D01*
X380772D01*
X380862Y359191D01*
X380943Y359288D01*
X381014Y359386D01*
X381076Y359487D01*
X381128Y359591D01*
X381171Y359696D01*
X381204Y359803D01*
X381228Y359913D01*
X381242Y360025D01*
X381247Y360139D01*
X382047D01*
X382052Y360025D01*
D02*
G37*
G36*
X429688Y357824D02*
X429557Y357821D01*
X429432Y357810D01*
X429312Y357791D01*
X429197Y357763D01*
X429087Y357727D01*
X428982Y357683D01*
X428883Y357630D01*
X428788Y357570D01*
X428699Y357501D01*
X428615Y357423D01*
X428049Y357989D01*
X428127Y358073D01*
X428196Y358162D01*
X428257Y358257D01*
X428309Y358356D01*
X428353Y358461D01*
X428389Y358571D01*
X428417Y358686D01*
X428436Y358806D01*
X428447Y358931D01*
X428450Y359062D01*
X429688Y357824D01*
D02*
G37*
G36*
X331797Y355905D02*
X331785Y355845D01*
X331775Y355745D01*
X331758Y355425D01*
X331740Y353925D01*
X329740D01*
X329669Y355925D01*
X331811D01*
X331797Y355905D01*
D02*
G37*
G36*
X380605Y352820D02*
X380619Y352708D01*
X380643Y352599D01*
X380676Y352491D01*
X380719Y352386D01*
X380771Y352283D01*
X380833Y352182D01*
X380904Y352083D01*
X380985Y351987D01*
X381075Y351893D01*
X379325D01*
X379415Y351987D01*
X379496Y352083D01*
X379567Y352182D01*
X379629Y352283D01*
X379681Y352386D01*
X379724Y352491D01*
X379757Y352599D01*
X379781Y352708D01*
X379795Y352820D01*
X379800Y352934D01*
X380600D01*
X380605Y352820D01*
D02*
G37*
G36*
X331747Y352858D02*
X331799Y352218D01*
X331844Y351958D01*
X331902Y351738D01*
X331973Y351558D01*
X332058Y351418D01*
X332155Y351318D01*
X332265Y351258D01*
X332388Y351238D01*
X328740Y351226D01*
X328930Y351247D01*
X329100Y351308D01*
X329250Y351409D01*
X329380Y351550D01*
X329490Y351731D01*
X329580Y351952D01*
X329650Y352213D01*
X329700Y352515D01*
X329730Y352856D01*
X329740Y353238D01*
X331740D01*
X331747Y352858D01*
D02*
G37*
G36*
X332397Y350560D02*
X332458Y350390D01*
X332559Y350240D01*
X332700Y350110D01*
X332881Y350000D01*
X333102Y349910D01*
X333364Y349840D01*
X333665Y349790D01*
X334006Y349760D01*
X334388Y349750D01*
Y347750D01*
X332388Y347762D01*
X332376Y350750D01*
X332397Y350560D01*
D02*
G37*
G36*
X420219Y349242D02*
X420316Y349161D01*
X420414Y349090D01*
X420515Y349028D01*
X420618Y348976D01*
X420723Y348933D01*
X420831Y348900D01*
X420941Y348876D01*
X421053Y348862D01*
X421167Y348857D01*
Y348057D01*
X421053Y348052D01*
X420941Y348038D01*
X420831Y348014D01*
X420723Y347981D01*
X420618Y347938D01*
X420515Y347886D01*
X420414Y347824D01*
X420316Y347753D01*
X420219Y347672D01*
X420125Y347582D01*
Y349332D01*
X420219Y349242D01*
D02*
G37*
G36*
X418419Y346238D02*
X418516Y346157D01*
X418614Y346086D01*
X418715Y346024D01*
X418818Y345971D01*
X418923Y345929D01*
X419031Y345896D01*
X419141Y345872D01*
X419252Y345858D01*
X419367Y345853D01*
Y345053D01*
X419252Y345048D01*
X419141Y345034D01*
X419031Y345010D01*
X418923Y344977D01*
X418818Y344934D01*
X418715Y344882D01*
X418614Y344820D01*
X418516Y344749D01*
X418419Y344668D01*
X418325Y344578D01*
Y346328D01*
X418419Y346238D01*
D02*
G37*
G36*
X414519Y342288D02*
X414616Y342207D01*
X414714Y342136D01*
X414815Y342074D01*
X414918Y342021D01*
X415023Y341979D01*
X415131Y341946D01*
X415241Y341922D01*
X415352Y341908D01*
X415467Y341903D01*
Y341103D01*
X415352Y341098D01*
X415241Y341084D01*
X415131Y341060D01*
X415023Y341027D01*
X414918Y340984D01*
X414815Y340932D01*
X414714Y340870D01*
X414616Y340799D01*
X414519Y340718D01*
X414425Y340628D01*
Y342378D01*
X414519Y342288D01*
D02*
G37*
G36*
X385595Y340221D02*
X385691Y340141D01*
X385790Y340069D01*
X385891Y340008D01*
X385994Y339955D01*
X386099Y339913D01*
X386206Y339879D01*
X386316Y339856D01*
X386428Y339841D01*
X386542Y339837D01*
Y339037D01*
X386428Y339032D01*
X386316Y339018D01*
X386206Y338994D01*
X386099Y338961D01*
X385994Y338918D01*
X385891Y338866D01*
X385790Y338804D01*
X385691Y338733D01*
X385595Y338652D01*
X385500Y338562D01*
Y340312D01*
X385595Y340221D01*
D02*
G37*
G36*
X417719Y339642D02*
X417816Y339561D01*
X417914Y339490D01*
X418015Y339428D01*
X418118Y339376D01*
X418223Y339333D01*
X418331Y339300D01*
X418441Y339276D01*
X418552Y339262D01*
X418667Y339257D01*
Y338457D01*
X418552Y338452D01*
X418441Y338438D01*
X418331Y338414D01*
X418223Y338381D01*
X418118Y338338D01*
X418015Y338286D01*
X417914Y338224D01*
X417816Y338153D01*
X417719Y338072D01*
X417625Y337982D01*
Y339732D01*
X417719Y339642D01*
D02*
G37*
G36*
X334071Y338254D02*
X334168Y338173D01*
X334267Y338102D01*
X334367Y338040D01*
X334471Y337988D01*
X334576Y337945D01*
X334683Y337912D01*
X334793Y337888D01*
X334905Y337874D01*
X335019Y337869D01*
Y337069D01*
X334905Y337064D01*
X334793Y337050D01*
X334683Y337026D01*
X334576Y336993D01*
X334471Y336950D01*
X334367Y336898D01*
X334267Y336836D01*
X334168Y336765D01*
X334071Y336684D01*
X333977Y336594D01*
Y338344D01*
X334071Y338254D01*
D02*
G37*
G36*
X414237Y336824D02*
X414333Y336743D01*
X414432Y336672D01*
X414533Y336610D01*
X414636Y336558D01*
X414741Y336515D01*
X414849Y336482D01*
X414958Y336458D01*
X415070Y336444D01*
X415184Y336439D01*
Y335639D01*
X415070Y335635D01*
X414958Y335620D01*
X414849Y335597D01*
X414741Y335563D01*
X414636Y335521D01*
X414533Y335468D01*
X414432Y335407D01*
X414333Y335335D01*
X414237Y335255D01*
X414143Y335164D01*
Y336914D01*
X414237Y336824D01*
D02*
G37*
G36*
X334071Y334317D02*
X334168Y334236D01*
X334267Y334165D01*
X334367Y334103D01*
X334471Y334051D01*
X334576Y334008D01*
X334683Y333975D01*
X334793Y333951D01*
X334905Y333937D01*
X335019Y333932D01*
Y333132D01*
X334905Y333127D01*
X334793Y333113D01*
X334683Y333089D01*
X334576Y333056D01*
X334471Y333013D01*
X334367Y332961D01*
X334267Y332899D01*
X334168Y332828D01*
X334071Y332747D01*
X333977Y332657D01*
Y334407D01*
X334071Y334317D01*
D02*
G37*
G36*
X459040Y332656D02*
X458945Y332746D01*
X458849Y332827D01*
X458750Y332898D01*
X458649Y332960D01*
X458546Y333012D01*
X458441Y333055D01*
X458334Y333088D01*
X458224Y333112D01*
X458112Y333126D01*
X457998Y333131D01*
Y333931D01*
X458112Y333936D01*
X458224Y333950D01*
X458334Y333974D01*
X458441Y334007D01*
X458546Y334050D01*
X458649Y334102D01*
X458750Y334164D01*
X458849Y334235D01*
X458945Y334316D01*
X459040Y334406D01*
Y332656D01*
D02*
G37*
G36*
X417719Y334242D02*
X417816Y334161D01*
X417914Y334090D01*
X418015Y334028D01*
X418118Y333976D01*
X418223Y333933D01*
X418331Y333900D01*
X418441Y333876D01*
X418552Y333862D01*
X418667Y333857D01*
Y333057D01*
X418552Y333052D01*
X418441Y333038D01*
X418331Y333014D01*
X418223Y332981D01*
X418118Y332938D01*
X418015Y332886D01*
X417914Y332824D01*
X417816Y332753D01*
X417719Y332672D01*
X417625Y332582D01*
Y334332D01*
X417719Y334242D01*
D02*
G37*
G36*
X413287Y331885D02*
X413383Y331804D01*
X413482Y331733D01*
X413583Y331671D01*
X413686Y331619D01*
X413791Y331576D01*
X413899Y331543D01*
X414008Y331519D01*
X414120Y331505D01*
X414234Y331500D01*
Y330700D01*
X414120Y330695D01*
X414008Y330681D01*
X413899Y330657D01*
X413791Y330624D01*
X413686Y330581D01*
X413583Y330529D01*
X413482Y330467D01*
X413383Y330396D01*
X413287Y330315D01*
X413193Y330225D01*
Y331975D01*
X413287Y331885D01*
D02*
G37*
G36*
X334071Y330380D02*
X334168Y330299D01*
X334267Y330228D01*
X334367Y330166D01*
X334471Y330114D01*
X334576Y330071D01*
X334683Y330038D01*
X334793Y330014D01*
X334905Y330000D01*
X335019Y329995D01*
Y329195D01*
X334905Y329190D01*
X334793Y329176D01*
X334683Y329152D01*
X334576Y329119D01*
X334471Y329076D01*
X334367Y329024D01*
X334267Y328962D01*
X334168Y328891D01*
X334071Y328810D01*
X333977Y328720D01*
Y330470D01*
X334071Y330380D01*
D02*
G37*
G36*
X459040Y328719D02*
X458945Y328809D01*
X458849Y328890D01*
X458750Y328961D01*
X458649Y329023D01*
X458546Y329075D01*
X458441Y329118D01*
X458334Y329151D01*
X458224Y329175D01*
X458112Y329189D01*
X457998Y329194D01*
Y329994D01*
X458112Y329999D01*
X458224Y330013D01*
X458334Y330037D01*
X458441Y330070D01*
X458546Y330113D01*
X458649Y330165D01*
X458750Y330227D01*
X458849Y330298D01*
X458945Y330379D01*
X459040Y330469D01*
Y328719D01*
D02*
G37*
G36*
X419152Y326705D02*
X419058Y326796D01*
X418962Y326876D01*
X418863Y326948D01*
X418762Y327009D01*
X418659Y327062D01*
X418554Y327104D01*
X418447Y327138D01*
X418337Y327161D01*
X418225Y327176D01*
X418111Y327180D01*
Y327980D01*
X418225Y327985D01*
X418337Y327999D01*
X418447Y328023D01*
X418554Y328056D01*
X418659Y328099D01*
X418762Y328151D01*
X418863Y328213D01*
X418962Y328284D01*
X419058Y328365D01*
X419152Y328455D01*
Y326705D01*
D02*
G37*
G36*
X409731Y326530D02*
X409821Y326461D01*
X409915Y326400D01*
X410014Y326348D01*
X410119Y326304D01*
X410229Y326268D01*
X410344Y326240D01*
X410464Y326221D01*
X410589Y326210D01*
X410720Y326207D01*
X409482Y324970D01*
X409480Y325100D01*
X409468Y325225D01*
X409449Y325345D01*
X409421Y325460D01*
X409385Y325570D01*
X409341Y325675D01*
X409289Y325774D01*
X409228Y325869D01*
X409159Y325958D01*
X409082Y326042D01*
X409647Y326608D01*
X409731Y326530D01*
D02*
G37*
G36*
X334071Y326443D02*
X334168Y326362D01*
X334267Y326291D01*
X334367Y326229D01*
X334471Y326177D01*
X334576Y326134D01*
X334683Y326101D01*
X334793Y326077D01*
X334905Y326063D01*
X335019Y326058D01*
Y325258D01*
X334905Y325253D01*
X334793Y325239D01*
X334683Y325215D01*
X334576Y325182D01*
X334471Y325139D01*
X334367Y325087D01*
X334267Y325025D01*
X334168Y324954D01*
X334071Y324873D01*
X333977Y324783D01*
Y326533D01*
X334071Y326443D01*
D02*
G37*
G36*
X409731Y322930D02*
X409821Y322861D01*
X409915Y322800D01*
X410014Y322748D01*
X410119Y322704D01*
X410229Y322668D01*
X410344Y322640D01*
X410464Y322621D01*
X410589Y322610D01*
X410720Y322607D01*
X409482Y321370D01*
X409480Y321500D01*
X409468Y321625D01*
X409449Y321745D01*
X409421Y321860D01*
X409385Y321970D01*
X409341Y322075D01*
X409289Y322174D01*
X409228Y322269D01*
X409159Y322358D01*
X409082Y322442D01*
X409647Y323008D01*
X409731Y322930D01*
D02*
G37*
G36*
X406031Y322630D02*
X406121Y322561D01*
X406215Y322500D01*
X406315Y322448D01*
X406419Y322404D01*
X406529Y322368D01*
X406644Y322340D01*
X406764Y322321D01*
X406889Y322310D01*
X407020Y322307D01*
X405782Y321070D01*
X405780Y321200D01*
X405768Y321325D01*
X405749Y321445D01*
X405721Y321560D01*
X405686Y321670D01*
X405641Y321775D01*
X405589Y321874D01*
X405528Y321969D01*
X405459Y322058D01*
X405382Y322142D01*
X405947Y322708D01*
X406031Y322630D01*
D02*
G37*
G36*
X334071Y322506D02*
X334168Y322425D01*
X334267Y322354D01*
X334367Y322292D01*
X334471Y322240D01*
X334576Y322197D01*
X334683Y322164D01*
X334793Y322140D01*
X334905Y322126D01*
X335019Y322121D01*
Y321321D01*
X334905Y321316D01*
X334793Y321302D01*
X334683Y321278D01*
X334576Y321245D01*
X334471Y321202D01*
X334367Y321150D01*
X334267Y321088D01*
X334168Y321017D01*
X334071Y320936D01*
X333977Y320846D01*
Y322596D01*
X334071Y322506D01*
D02*
G37*
G36*
X406031Y319030D02*
X406121Y318961D01*
X406215Y318900D01*
X406315Y318848D01*
X406419Y318804D01*
X406529Y318768D01*
X406644Y318740D01*
X406764Y318721D01*
X406889Y318710D01*
X407020Y318707D01*
X405782Y317470D01*
X405780Y317600D01*
X405768Y317725D01*
X405749Y317845D01*
X405721Y317960D01*
X405686Y318070D01*
X405641Y318175D01*
X405589Y318274D01*
X405528Y318369D01*
X405459Y318458D01*
X405382Y318542D01*
X405947Y319108D01*
X406031Y319030D01*
D02*
G37*
G36*
X334071Y318569D02*
X334168Y318488D01*
X334267Y318417D01*
X334367Y318355D01*
X334471Y318303D01*
X334576Y318260D01*
X334683Y318227D01*
X334793Y318203D01*
X334905Y318189D01*
X335019Y318184D01*
Y317384D01*
X334905Y317379D01*
X334793Y317365D01*
X334683Y317341D01*
X334576Y317308D01*
X334471Y317265D01*
X334367Y317213D01*
X334267Y317151D01*
X334168Y317080D01*
X334071Y316999D01*
X333977Y316909D01*
Y318659D01*
X334071Y318569D01*
D02*
G37*
G36*
X402038Y316909D02*
X401944Y316999D01*
X401848Y317080D01*
X401749Y317151D01*
X401649Y317213D01*
X401546Y317265D01*
X401440Y317308D01*
X401333Y317341D01*
X401223Y317365D01*
X401112Y317379D01*
X400997Y317384D01*
X400999Y318184D01*
X401113Y318189D01*
X401225Y318203D01*
X401334Y318227D01*
X401442Y318260D01*
X401547Y318303D01*
X401650Y318355D01*
X401751Y318417D01*
X401850Y318488D01*
X401946Y318568D01*
X402041Y318658D01*
X402038Y316909D01*
D02*
G37*
G36*
X459040Y316908D02*
X458945Y316998D01*
X458849Y317079D01*
X458750Y317150D01*
X458649Y317212D01*
X458546Y317264D01*
X458441Y317307D01*
X458334Y317340D01*
X458224Y317364D01*
X458112Y317378D01*
X457998Y317383D01*
Y318183D01*
X458112Y318188D01*
X458224Y318202D01*
X458334Y318226D01*
X458441Y318259D01*
X458546Y318302D01*
X458649Y318354D01*
X458750Y318416D01*
X458849Y318487D01*
X458945Y318568D01*
X459040Y318658D01*
Y316908D01*
D02*
G37*
G36*
X400219Y315769D02*
X400316Y315688D01*
X400414Y315617D01*
X400515Y315555D01*
X400618Y315503D01*
X400723Y315460D01*
X400831Y315427D01*
X400941Y315403D01*
X401053Y315389D01*
X401167Y315384D01*
Y314584D01*
X401053Y314579D01*
X400941Y314565D01*
X400831Y314541D01*
X400723Y314508D01*
X400618Y314465D01*
X400515Y314413D01*
X400414Y314351D01*
X400316Y314280D01*
X400219Y314199D01*
X400125Y314109D01*
Y315859D01*
X400219Y315769D01*
D02*
G37*
G36*
X459040Y312971D02*
X458945Y313061D01*
X458849Y313142D01*
X458750Y313213D01*
X458649Y313275D01*
X458546Y313327D01*
X458441Y313370D01*
X458334Y313403D01*
X458224Y313427D01*
X458112Y313441D01*
X457998Y313446D01*
Y314246D01*
X458112Y314251D01*
X458224Y314265D01*
X458334Y314289D01*
X458441Y314322D01*
X458546Y314365D01*
X458649Y314417D01*
X458750Y314479D01*
X458849Y314550D01*
X458945Y314631D01*
X459040Y314721D01*
Y312971D01*
D02*
G37*
G36*
X330607Y313422D02*
X330706Y312097D01*
X330765Y311737D01*
X330838Y311420D01*
X330924Y311143D01*
X331023Y310907D01*
X331136Y310713D01*
X331261Y310560D01*
X329139D01*
X329264Y310713D01*
X329377Y310907D01*
X329476Y311143D01*
X329562Y311420D01*
X329635Y311737D01*
X329694Y312097D01*
X329773Y312939D01*
X329793Y313422D01*
X329800Y313946D01*
X330600D01*
X330607Y313422D01*
D02*
G37*
G36*
X459040Y309034D02*
X458945Y309124D01*
X458849Y309205D01*
X458750Y309276D01*
X458649Y309338D01*
X458546Y309390D01*
X458441Y309433D01*
X458334Y309466D01*
X458224Y309490D01*
X458112Y309504D01*
X457998Y309509D01*
Y310309D01*
X458112Y310314D01*
X458224Y310328D01*
X458334Y310352D01*
X458441Y310385D01*
X458546Y310428D01*
X458649Y310480D01*
X458750Y310542D01*
X458849Y310613D01*
X458945Y310694D01*
X459040Y310784D01*
Y309034D01*
D02*
G37*
G36*
X331719Y309304D02*
X331777Y309087D01*
X331874Y308850D01*
X332009Y308594D01*
X332182Y308318D01*
X332394Y308021D01*
X332933Y307370D01*
X333260Y307014D01*
X333626Y306639D01*
X333061Y306074D01*
X332685Y306439D01*
X331679Y307306D01*
X331382Y307518D01*
X331106Y307692D01*
X330850Y307826D01*
X330613Y307923D01*
X330396Y307981D01*
X330199Y308000D01*
X331700Y309501D01*
X331719Y309304D01*
D02*
G37*
G36*
X459040Y305097D02*
X458945Y305187D01*
X458849Y305268D01*
X458750Y305339D01*
X458649Y305401D01*
X458546Y305453D01*
X458441Y305496D01*
X458334Y305529D01*
X458224Y305553D01*
X458112Y305567D01*
X457998Y305572D01*
Y306372D01*
X458112Y306377D01*
X458224Y306391D01*
X458334Y306415D01*
X458441Y306448D01*
X458546Y306491D01*
X458649Y306543D01*
X458750Y306605D01*
X458849Y306676D01*
X458945Y306757D01*
X459040Y306847D01*
Y305097D01*
D02*
G37*
G36*
X338708Y303129D02*
X338614Y303220D01*
X338518Y303300D01*
X338419Y303372D01*
X338318Y303433D01*
X338215Y303486D01*
X338110Y303528D01*
X338002Y303562D01*
X337893Y303585D01*
X337781Y303600D01*
X337667Y303604D01*
Y304404D01*
X337781Y304409D01*
X337893Y304423D01*
X338002Y304447D01*
X338110Y304480D01*
X338215Y304523D01*
X338318Y304575D01*
X338419Y304637D01*
X338518Y304708D01*
X338614Y304789D01*
X338708Y304879D01*
Y303129D01*
D02*
G37*
G36*
Y299192D02*
X338614Y299283D01*
X338518Y299363D01*
X338419Y299435D01*
X338318Y299496D01*
X338215Y299549D01*
X338110Y299591D01*
X338002Y299625D01*
X337893Y299648D01*
X337781Y299663D01*
X337667Y299667D01*
Y300467D01*
X337781Y300472D01*
X337893Y300486D01*
X338002Y300510D01*
X338110Y300543D01*
X338215Y300586D01*
X338318Y300638D01*
X338419Y300700D01*
X338518Y300771D01*
X338614Y300852D01*
X338708Y300942D01*
Y299192D01*
D02*
G37*
G36*
X413037Y297946D02*
X413051Y297834D01*
X413075Y297725D01*
X413108Y297617D01*
X413151Y297512D01*
X413203Y297409D01*
X413265Y297308D01*
X413336Y297209D01*
X413417Y297113D01*
X413507Y297019D01*
X411757D01*
X411847Y297113D01*
X411928Y297209D01*
X412000Y297308D01*
X412061Y297409D01*
X412114Y297512D01*
X412156Y297617D01*
X412189Y297725D01*
X412213Y297834D01*
X412227Y297946D01*
X412232Y298060D01*
X413032D01*
X413037Y297946D01*
D02*
G37*
G36*
X450807Y266236D02*
X450799Y266312D01*
X450775Y266380D01*
X450734Y266440D01*
X450677Y266492D01*
X450604Y266536D01*
X450515Y266572D01*
X450409Y266600D01*
X450288Y266620D01*
X450150Y266632D01*
X449995Y266636D01*
Y267436D01*
X450150Y267440D01*
X450288Y267452D01*
X450409Y267472D01*
X450515Y267500D01*
X450604Y267536D01*
X450677Y267580D01*
X450734Y267632D01*
X450775Y267692D01*
X450799Y267760D01*
X450807Y267836D01*
Y266236D01*
D02*
G37*
G36*
X468524Y266235D02*
X468516Y266311D01*
X468491Y266379D01*
X468451Y266439D01*
X468394Y266491D01*
X468321Y266535D01*
X468232Y266571D01*
X468126Y266599D01*
X468004Y266619D01*
X467866Y266631D01*
X467712Y266635D01*
Y267435D01*
X467866Y267439D01*
X468004Y267451D01*
X468126Y267471D01*
X468232Y267499D01*
X468321Y267535D01*
X468394Y267579D01*
X468451Y267631D01*
X468491Y267691D01*
X468516Y267759D01*
X468524Y267835D01*
Y266235D01*
D02*
G37*
G36*
X455779Y267759D02*
X455803Y267691D01*
X455843Y267631D01*
X455899Y267579D01*
X455971Y267535D01*
X456059Y267499D01*
X456163Y267471D01*
X456283Y267451D01*
X456419Y267439D01*
X456571Y267435D01*
Y266635D01*
X456419Y266631D01*
X456283Y266619D01*
X456163Y266599D01*
X456059Y266571D01*
X455971Y266535D01*
X455899Y266491D01*
X455843Y266439D01*
X455803Y266379D01*
X455779Y266311D01*
X455771Y266235D01*
Y267835D01*
X455779Y267759D01*
D02*
G37*
G36*
X471724Y265673D02*
X471656Y265649D01*
X471596Y265608D01*
X471544Y265551D01*
X471500Y265478D01*
X471464Y265389D01*
X471436Y265284D01*
X471416Y265162D01*
X471404Y265024D01*
X471400Y264869D01*
X470600D01*
X470596Y265024D01*
X470584Y265162D01*
X470564Y265284D01*
X470536Y265389D01*
X470500Y265478D01*
X470456Y265551D01*
X470404Y265608D01*
X470344Y265649D01*
X470276Y265673D01*
X470200Y265681D01*
X471800D01*
X471724Y265673D01*
D02*
G37*
G36*
X471404Y261740D02*
X471418Y261631D01*
X471440Y261525D01*
X471470Y261422D01*
X471510Y261321D01*
X471558Y261223D01*
X471616Y261127D01*
X471681Y261035D01*
X471756Y260945D01*
X471840Y260857D01*
X470160D01*
X470244Y260945D01*
X470318Y261035D01*
X470384Y261127D01*
X470441Y261223D01*
X470490Y261321D01*
X470530Y261422D01*
X470560Y261525D01*
X470582Y261631D01*
X470596Y261740D01*
X470600Y261851D01*
X471400D01*
X471404Y261740D01*
D02*
G37*
D10*
X460032Y374458D02*
Y386458D01*
Y398458D01*
X448032Y386458D02*
X460032D01*
X451884Y378310D02*
X460032Y386458D01*
X468181Y378310D01*
X460032Y386458D02*
X468181Y394607D01*
X460032Y386458D02*
X472032D01*
X465032Y391458D02*
X471032D01*
X465032D02*
Y397458D01*
X449958Y382384D02*
X455958D01*
Y376384D02*
Y382384D01*
X464107Y376384D02*
Y382384D01*
X470107D01*
X455958Y390532D02*
Y396533D01*
X449958Y390532D02*
X455958D01*
X455958D01*
X451884Y394607D02*
X455958Y390532D01*
X460032Y386458D01*
X400500Y381250D02*
X401750Y380000D01*
X400500Y381250D02*
Y381400D01*
X397400Y384500D02*
X400500Y381400D01*
X378594Y384500D02*
X397400D01*
X401750Y380000D02*
X401900D01*
X374417Y380126D02*
X376476Y382185D01*
Y382382D01*
X378594Y384500D01*
X374220Y380126D02*
X374417D01*
X339726Y390000D02*
X340801Y388925D01*
Y387873D02*
Y388925D01*
Y387873D02*
X344701Y383973D01*
X344799D01*
X345874Y382898D01*
D16*
X426700Y358500D02*
Y369800D01*
X432700Y375800D02*
Y386900D01*
X426700Y369800D02*
X432700Y375800D01*
X424600Y358800D02*
Y370900D01*
X431200Y377500D02*
Y386200D01*
X424600Y370900D02*
X431200Y377500D01*
X368200Y383189D02*
X371463Y386453D01*
X357395Y367840D02*
X368200Y378645D01*
Y383189D01*
X344610Y367721D02*
X344729Y367840D01*
X380200Y351000D02*
Y353000D01*
X387200Y360000D02*
X419500D01*
X380200Y353000D02*
X387200Y360000D01*
X381647Y361547D02*
X383000Y362900D01*
X381647Y358205D02*
Y361547D01*
X380200Y351000D02*
X380282Y351082D01*
X383000Y362900D02*
X418000D01*
X419500Y360000D02*
X422560Y363060D01*
Y379090D01*
X452969Y333531D02*
X459932D01*
X438043Y348457D02*
X452969Y333531D01*
X419532Y348457D02*
X438043D01*
X330200Y309500D02*
Y340600D01*
Y309500D02*
X335696Y304004D01*
X339601D01*
X330200Y340600D02*
X332000Y342400D01*
X412300Y331100D02*
X423300D01*
X402350Y336050D02*
X410820Y327580D01*
X383650Y336050D02*
X402350D01*
X410820Y327580D02*
X420045D01*
X416732Y333457D02*
X424743D01*
X413250Y336039D02*
X426261D01*
X416732Y338857D02*
X428043D01*
X413532Y341503D02*
X429797D01*
X404296Y351300D02*
X421926D01*
X384608Y339437D02*
X392433D01*
X404296Y351300D01*
X429797Y341503D02*
X453517Y317783D01*
X428043Y338857D02*
X453054Y313846D01*
X426261Y336039D02*
X452391Y309909D01*
X424743Y333457D02*
X452228Y305972D01*
X420980Y365880D02*
Y379090D01*
X418000Y362900D02*
X420980Y365880D01*
X382231Y337469D02*
X383650Y336050D01*
X333085Y337469D02*
X382231D01*
X327400Y307200D02*
X334533Y300067D01*
X339601D01*
X327400Y307200D02*
Y341100D01*
X391600Y344500D02*
X402700Y355600D01*
X327400Y341100D02*
X330800Y344500D01*
X391600D01*
X392100Y342400D02*
X402900Y353200D01*
X332000Y342400D02*
X392100D01*
X421400Y355600D02*
X424600Y358800D01*
X421400Y353200D02*
X426700Y358500D01*
X402900Y353200D02*
X421400D01*
X402700Y355600D02*
X421400D01*
X430400Y387000D02*
X431200Y386200D01*
X427320Y387000D02*
X430400D01*
X431020Y388580D02*
X432700Y386900D01*
X427320Y388580D02*
X431020D01*
X421926Y351300D02*
X429700Y359074D01*
X332300Y264000D02*
X339000D01*
X321000Y275300D02*
Y312000D01*
Y275300D02*
X332300Y264000D01*
X333085Y333532D02*
X402157D01*
X410732Y324957D01*
X333085Y329595D02*
X402494D01*
X410732Y321357D01*
X333085Y325658D02*
X402431D01*
X407032Y321057D01*
X333085Y321721D02*
X402768D01*
X407032Y317457D01*
X333085Y317784D02*
X402932D01*
X404816Y314984D02*
X412632Y307168D01*
Y296126D02*
Y307168D01*
X399232Y314984D02*
X404816D01*
X447600Y268900D02*
X449464Y267036D01*
X453283D01*
X447600Y268900D02*
Y306800D01*
X453283Y267036D02*
X453284Y267035D01*
X423300Y331100D02*
X447600Y306800D01*
X453517Y317783D02*
X459932D01*
X453054Y313846D02*
X459932D01*
X452391Y309909D02*
X459932D01*
X452228Y305972D02*
X459932D01*
X437547Y345453D02*
X453406Y329594D01*
X417732Y345453D02*
X437547D01*
X453406Y329594D02*
X459932D01*
X416260Y375500D02*
Y379090D01*
Y375500D02*
X417000D01*
X406400D02*
X416260D01*
X453284Y267035D02*
X471000D01*
Y260000D02*
Y267035D01*
X344729Y367840D02*
X357395D01*
X417830Y376330D02*
Y379090D01*
X417000Y375500D02*
X417830Y376330D01*
X367071Y388060D02*
X368138Y389127D01*
X367057Y388047D02*
X367071Y388060D01*
X389547Y387000D02*
X411500D01*
X403400Y378500D02*
Y378650D01*
Y378500D02*
X406400Y375500D01*
X401900Y380000D02*
X402050D01*
X403400Y378650D01*
X389547Y388580D02*
X411500D01*
X368138Y389127D02*
X389000D01*
X389547Y388580D01*
X389000Y386453D02*
X389547Y387000D01*
X371463Y386453D02*
X389000D01*
X346274Y390000D02*
X347200Y389074D01*
X355574D01*
X354732Y383753D02*
X362763D01*
X367043Y388033D01*
X349263Y378284D02*
X354732Y383753D01*
X346460Y378284D02*
X349263D01*
X340126Y382702D02*
Y382800D01*
X338951Y381527D02*
X340126Y382702D01*
X338853Y381527D02*
X338951D01*
X329326Y372000D02*
X338853Y381527D01*
X324500Y372000D02*
X329326D01*
X323318Y368176D02*
Y370818D01*
X323260Y368118D02*
X323318Y368176D01*
Y370818D02*
X324500Y372000D01*
D17*
X323600Y349500D02*
D03*
X330500D02*
D03*
X395000Y380000D02*
D03*
X401900D02*
D03*
D18*
X453283Y267036D02*
D03*
X471000Y267035D02*
D03*
X471000Y275500D02*
D03*
X453283Y275500D02*
D03*
D19*
X374220Y394328D02*
D03*
X385244D02*
D03*
X374220Y380126D02*
D03*
X385244Y380126D02*
D03*
D20*
X330740Y368118D02*
D03*
X327000D02*
D03*
X323260D02*
D03*
X323260Y357882D02*
D03*
X330740Y357882D02*
D03*
D21*
X340126Y382800D02*
D03*
X345874D02*
D03*
X346274Y390000D02*
D03*
X339726D02*
D03*
D22*
X340000Y359600D02*
D03*
Y366500D02*
D03*
D23*
X424130Y394910D02*
D03*
X424130Y379090D02*
D03*
X422560D02*
D03*
Y394910D02*
D03*
X420980Y379090D02*
D03*
Y394910D02*
D03*
X419410Y379090D02*
D03*
X419410Y394910D02*
D03*
X417830Y379090D02*
D03*
Y394910D02*
D03*
X416260Y379090D02*
D03*
Y394910D02*
D03*
X414690Y379090D02*
D03*
X414690Y394910D02*
D03*
D24*
X427320Y382280D02*
D03*
Y383850D02*
D03*
Y385430D02*
D03*
Y387000D02*
D03*
Y388580D02*
D03*
Y390150D02*
D03*
Y391720D02*
D03*
X411500D02*
D03*
X411500Y390150D02*
D03*
X411500Y388580D02*
D03*
X411500Y387000D02*
D03*
X411500Y385430D02*
D03*
X411500Y383850D02*
D03*
X411500Y382280D02*
D03*
D25*
X419410Y387000D02*
D03*
D26*
X368200Y383189D02*
X368228Y383217D01*
X330200Y309500D02*
X330228Y309528D01*
X368110Y389100D02*
X368138Y389127D01*
D41*
X330823Y367400D02*
X340000D01*
X330740Y367483D02*
Y368118D01*
X340000Y367400D02*
Y376926D01*
X330740Y367483D02*
X330823Y367400D01*
X330500Y349500D02*
X331250Y348750D01*
X342845D01*
X330740Y350240D02*
Y357882D01*
X342845Y348750D02*
X372464Y378370D01*
X374024Y380126D02*
X374220D01*
X372464Y378370D02*
Y378567D01*
X374024Y380126D01*
X360000Y386000D02*
X368328Y394328D01*
X374220D01*
X340000Y376926D02*
X345201Y382127D01*
X345299D01*
X345874Y382702D02*
Y382800D01*
X345299Y382127D02*
X345874Y382702D01*
Y382898D02*
X346449Y383473D01*
X346547D02*
X349074Y386000D01*
X345874Y382800D02*
Y382898D01*
X346449Y383473D02*
X346547D01*
X349074Y386000D02*
X360000D01*
D42*
X326500Y394358D02*
D03*
X360520D02*
D03*
D43*
Y378028D02*
D03*
X326500D02*
D03*
D44*
X458390Y282154D02*
D03*
Y353414D02*
D03*
X336343D02*
D03*
Y282154D02*
D03*
D45*
X326500Y260500D02*
D03*
D46*
X431100Y397300D02*
D03*
X471700Y283200D02*
D03*
X472300Y363100D02*
D03*
X458390Y289154D02*
D03*
Y298996D02*
D03*
X355500Y260800D02*
D03*
X362460Y267760D02*
D03*
X381647Y358205D02*
D03*
X380200Y351000D02*
D03*
X334060Y367460D02*
D03*
X363000Y357500D02*
D03*
X374500Y371000D02*
D03*
X440800Y351500D02*
D03*
X368110Y348425D02*
D03*
X446850Y360236D02*
D03*
X436500Y294874D02*
D03*
X426500Y302900D02*
D03*
X433071Y267717D02*
D03*
X423228D02*
D03*
X405512Y277559D02*
D03*
X395669Y267717D02*
D03*
X405512D02*
D03*
X348425Y277559D02*
D03*
X360236Y295276D02*
D03*
X366142Y301181D02*
D03*
X412300Y331100D02*
D03*
X416732Y338857D02*
D03*
X413250Y336039D02*
D03*
X420045Y327580D02*
D03*
X339601Y300067D02*
D03*
Y304004D02*
D03*
X384608Y339437D02*
D03*
X429700Y359074D02*
D03*
X402932Y317782D02*
D03*
X407032Y317457D02*
D03*
X333085Y337469D02*
D03*
Y333532D02*
D03*
X333085Y329595D02*
D03*
Y325658D02*
D03*
Y321721D02*
D03*
X333085Y317784D02*
D03*
X412632Y296126D02*
D03*
X459932Y313846D02*
D03*
Y305972D02*
D03*
Y309909D02*
D03*
Y317783D02*
D03*
Y329594D02*
D03*
Y333531D02*
D03*
X321000Y312000D02*
D03*
X339000Y264000D02*
D03*
X399232Y314984D02*
D03*
X407032Y321057D02*
D03*
X410732Y321357D02*
D03*
Y324957D02*
D03*
X419232Y348457D02*
D03*
X416732Y333457D02*
D03*
X413532Y341503D02*
D03*
X417432Y345453D02*
D03*
X416260Y375500D02*
D03*
X346460Y378284D02*
D03*
X344497Y367840D02*
D03*
D47*
X471000Y260000D02*
D03*
X355574Y389074D02*
D03*
D48*
X465032Y391458D02*
D03*
D49*
X419410Y387000D02*
D03*
M02*
