G04*
G04 #@! TF.GenerationSoftware,Altium Limited,Altium Designer,22.0.2 (36)*
G04*
G04 Layer_Color=32768*
%FSLAX25Y25*%
%MOIN*%
G70*
G04*
G04 #@! TF.SameCoordinates,A8AB103B-E7CB-45E0-896D-D1B8D88E5F6C*
G04*
G04*
G04 #@! TF.FilePolarity,Positive*
G04*
G01*
G75*
%ADD13C,0.00500*%
%ADD82C,0.00394*%
%ADD83C,0.00197*%
%ADD84C,0.00200*%
G36*
X424530Y393300D02*
X423740D01*
Y394870D01*
X424530Y394870D01*
X424530Y393300D01*
D02*
G37*
G36*
X422950Y394870D02*
Y393300D01*
X422170D01*
X422170Y394870D01*
X422950Y394870D01*
D02*
G37*
G36*
X421380Y393300D02*
X420590D01*
X420590Y394870D01*
X421380D01*
X421380Y393300D01*
D02*
G37*
G36*
X419800Y394870D02*
Y393300D01*
X419020D01*
Y394870D01*
X419800Y394870D01*
D02*
G37*
G36*
X418230Y393300D02*
X417440D01*
Y394870D01*
X418230D01*
X418230Y393300D01*
D02*
G37*
G36*
X416650D02*
X415870D01*
Y394870D01*
X416650Y394870D01*
X416650Y393300D01*
D02*
G37*
G36*
X415080D02*
X414290D01*
X414290Y394870D01*
X415080D01*
X415080Y393300D01*
D02*
G37*
G36*
X361110Y392788D02*
X359930D01*
Y395938D01*
X361110D01*
Y392788D01*
D02*
G37*
G36*
X327090Y392788D02*
X325910Y392788D01*
Y395938D01*
X327090D01*
Y392788D01*
D02*
G37*
G36*
X427280Y391330D02*
X425710Y391330D01*
Y392120D01*
X427280D01*
X427280Y391330D01*
D02*
G37*
G36*
X413110Y391330D02*
X411540Y391330D01*
X411540Y392120D01*
X413110D01*
X413110Y391330D01*
D02*
G37*
G36*
X427280Y389760D02*
X425710Y389760D01*
X425710Y390540D01*
X427280D01*
Y389760D01*
D02*
G37*
G36*
X413110D02*
X411540Y389760D01*
X411540Y390540D01*
X413110D01*
Y389760D01*
D02*
G37*
G36*
X427280Y388180D02*
X425710Y388180D01*
X425710Y388970D01*
X427280D01*
X427280Y388180D01*
D02*
G37*
G36*
X413110Y388180D02*
X411540Y388180D01*
Y388970D01*
X413110D01*
X413110Y388180D01*
D02*
G37*
G36*
X427280Y386610D02*
X425710D01*
X425710Y387390D01*
X427280D01*
X427280Y386610D01*
D02*
G37*
G36*
X413110D02*
X411540D01*
X411540Y387390D01*
X413110D01*
Y386610D01*
D02*
G37*
G36*
Y385030D02*
X411540D01*
X411540Y385820D01*
X413110D01*
Y385030D01*
D02*
G37*
G36*
X427280D02*
X425710Y385030D01*
Y385820D01*
X427280D01*
X427280Y385030D01*
D02*
G37*
G36*
X427280Y384240D02*
X427280Y383460D01*
X425710Y383460D01*
X425710Y384240D01*
X427280Y384240D01*
D02*
G37*
G36*
X413110D02*
Y383460D01*
X411540D01*
X411540Y384240D01*
X413110Y384240D01*
D02*
G37*
G36*
X427280Y381880D02*
X425710D01*
Y382670D01*
X427280D01*
Y381880D01*
D02*
G37*
G36*
X413110D02*
X411540D01*
X411540Y382670D01*
X413110D01*
Y381880D01*
D02*
G37*
G36*
X424920Y382590D02*
X423820Y381490D01*
X413900Y381490D01*
Y392510D01*
X424920D01*
Y382590D01*
D02*
G37*
G36*
X418230Y380700D02*
X418230Y379130D01*
X417440D01*
X417440Y380700D01*
X418230Y380700D01*
D02*
G37*
G36*
X424530Y379130D02*
X423740Y379130D01*
Y380700D01*
X424530Y380700D01*
Y379130D01*
D02*
G37*
G36*
X422950D02*
X422170Y379130D01*
X422170Y380700D01*
X422950D01*
Y379130D01*
D02*
G37*
G36*
X421380D02*
X420590Y379130D01*
Y380700D01*
X421380Y380700D01*
X421380Y379130D01*
D02*
G37*
G36*
X419800Y379130D02*
X419020Y379130D01*
X419020Y380700D01*
X419800Y380700D01*
X419800Y379130D01*
D02*
G37*
G36*
X416650Y380700D02*
X416650Y379130D01*
X415870D01*
X415870Y380700D01*
X416650Y380700D01*
D02*
G37*
G36*
X415080Y379130D02*
X414290Y379130D01*
Y380700D01*
X415080Y380700D01*
X415080Y379130D01*
D02*
G37*
G36*
X427520Y379229D02*
Y379031D01*
X427379Y378890D01*
X427181D01*
X427040Y379031D01*
Y379229D01*
X427181Y379370D01*
X427379D01*
X427520Y379229D01*
D02*
G37*
G36*
X361110Y375858D02*
X359930D01*
Y380188D01*
X361110D01*
Y375858D01*
D02*
G37*
G36*
X327090D02*
X325910D01*
X325910Y380188D01*
X327090D01*
Y375858D01*
D02*
G37*
G36*
X326150Y373488D02*
Y373388D01*
Y373289D01*
X326009Y373148D01*
X325811D01*
X325670Y373289D01*
Y373388D01*
Y373488D01*
X325811Y373628D01*
X326009D01*
X326150Y373488D01*
D02*
G37*
G36*
X334650Y372408D02*
X333070D01*
Y374768D01*
X334650D01*
Y372408D01*
D02*
G37*
G36*
X331580D02*
X330010D01*
Y374768D01*
X331580D01*
Y372408D01*
D02*
G37*
G36*
X350790Y372398D02*
X350010D01*
Y374758D01*
X350790D01*
Y372398D01*
D02*
G37*
G36*
X348830D02*
X348040D01*
Y374758D01*
X348830D01*
Y372398D01*
D02*
G37*
G36*
X346860D02*
X346070D01*
Y374758D01*
X346860D01*
Y372398D01*
D02*
G37*
G36*
X344890D02*
X344100D01*
Y374758D01*
X344890D01*
Y372398D01*
D02*
G37*
G36*
X342920D02*
X342130D01*
X342130Y374758D01*
X342920D01*
Y372398D01*
D02*
G37*
G36*
X340950D02*
X340160D01*
X340160Y374758D01*
X340950D01*
Y372398D01*
D02*
G37*
G36*
X338980D02*
X338190D01*
X338190Y374758D01*
X338980D01*
Y372398D01*
D02*
G37*
G36*
X337010D02*
X336230D01*
X336230Y374758D01*
X337010D01*
Y372398D01*
D02*
G37*
G36*
X356980Y372388D02*
X355400D01*
Y374748D01*
X356980D01*
Y372388D01*
D02*
G37*
G36*
X353940D02*
X352360D01*
Y374748D01*
X353940D01*
Y372388D01*
D02*
G37*
G36*
X347760Y349674D02*
X345398Y350855D01*
X347760Y352036D01*
X347760Y349674D01*
D02*
G37*
G36*
X449334Y284712D02*
X446972Y283531D01*
Y285893D01*
X449334Y284712D01*
D02*
G37*
D13*
X426132Y309296D02*
X427655Y310819D01*
X417632Y309296D02*
X426132D01*
X385171Y309319D02*
X388127D01*
X383671Y310819D02*
X385171Y309319D01*
X378127Y310819D02*
X383671D01*
X374220Y380126D02*
Y392328D01*
X394791Y248985D02*
Y288964D01*
X344390Y286883D02*
Y317154D01*
X336343Y249816D02*
Y282154D01*
D82*
X396985Y367840D02*
Y371777D01*
X395017Y369808D02*
X398954D01*
X390686Y374729D02*
X403285D01*
X403285Y364887D02*
X403285Y374729D01*
X390686Y364887D02*
X403285D01*
X390686Y374729D02*
X390686Y364887D01*
X436500Y361819D02*
Y364181D01*
X435331Y363000D02*
X437693D01*
X433350Y364575D02*
X439650D01*
X433350Y361425D02*
X439650D01*
Y364575D01*
X433350Y361425D02*
Y364575D01*
X433522Y393958D02*
X446514D01*
X433522Y377958D02*
X446514D01*
X433522Y393958D02*
X433522Y377958D01*
X446514D02*
Y393958D01*
X435319Y283000D02*
X437681D01*
X436500Y281807D02*
Y284169D01*
X438075Y279850D02*
Y286150D01*
X434925Y279850D02*
Y286150D01*
Y279850D02*
X438075D01*
X434925Y286150D02*
X438075D01*
X369819Y265126D02*
X372181D01*
X371000Y263957D02*
X371000Y266319D01*
X369425Y261976D02*
Y268276D01*
X372575Y268276D02*
X372575Y261976D01*
X369425Y268276D02*
X372575Y268276D01*
X369425Y261976D02*
X372575Y261976D01*
X376350Y259795D02*
X382650D01*
X376350Y270031D02*
X382650D01*
X377532Y264913D02*
X381469D01*
X379500Y262945D02*
Y266882D01*
X382650Y259795D02*
Y270031D01*
X376350Y259795D02*
Y270031D01*
X462000Y256819D02*
Y259181D01*
X460831Y258000D02*
X463193D01*
X458850Y259575D02*
X465150D01*
X458850Y256425D02*
X465150D01*
Y259575D01*
X458850Y256425D02*
Y259575D01*
X366319Y386200D02*
X368681D01*
X367500Y385031D02*
Y387393D01*
X365925Y383050D02*
Y389350D01*
X369075Y383050D02*
Y389350D01*
X365925D02*
X369075D01*
X365925Y383050D02*
X369075D01*
X353232Y365572D02*
Y367934D01*
X352039Y366753D02*
X354401D01*
X350083Y365178D02*
X356382D01*
X350083Y368327D02*
X356382D01*
X350083Y365178D02*
Y368327D01*
X356382Y365178D02*
Y368327D01*
X353374Y359319D02*
Y361681D01*
X352181Y360500D02*
X354543D01*
X350224Y358925D02*
X356524D01*
X350224Y362075D02*
X356524D01*
X350224Y358925D02*
Y362075D01*
X356524Y358925D02*
Y362075D01*
X319350Y356968D02*
X325650D01*
X319350Y367205D02*
X325650D01*
X320532Y362087D02*
X324468D01*
X322500Y360118D02*
Y364055D01*
X325650Y356968D02*
Y367205D01*
X319350Y356968D02*
Y367205D01*
X402891Y330578D02*
Y334515D01*
X400922Y332547D02*
X404859D01*
X422576Y312862D02*
Y352232D01*
X383206Y312862D02*
Y352232D01*
X422576Y352232D01*
X383206Y312862D02*
X422576D01*
X377764Y394328D02*
X381701D01*
X379732Y392359D02*
Y396296D01*
X373433Y391178D02*
X386032D01*
X373433Y397477D02*
X386032D01*
X373433Y391178D02*
Y397477D01*
X386032Y391178D02*
Y397477D01*
X321094Y365756D02*
X321094Y360244D01*
X332906D02*
X332906Y365756D01*
X325031Y363000D02*
X328969D01*
X327000Y361032D02*
Y364968D01*
X321094Y360244D02*
X332906D01*
X321094Y365756D02*
X332906D01*
X343000Y381619D02*
Y383981D01*
X341807Y382800D02*
X344169D01*
X339850Y384375D02*
X346150D01*
X339850Y381225D02*
X346150D01*
X339850D02*
Y384375D01*
X346150Y381225D02*
Y384375D01*
X343000Y388819D02*
Y391181D01*
X341807Y390000D02*
X344169D01*
X339850Y391575D02*
X346150D01*
X339850Y388425D02*
X346150D01*
X339850D02*
Y391575D01*
X346150Y388425D02*
Y391575D01*
X377764Y380126D02*
X381701D01*
X379732Y378157D02*
Y382095D01*
X373433Y376976D02*
X386032D01*
X373433Y383276D02*
X386032D01*
X373433Y376976D02*
Y383276D01*
X386032Y376976D02*
Y383276D01*
D83*
X441396Y385958D02*
G03*
X441396Y385958I-1378J0D01*
G01*
X440018Y387927D02*
X440018Y383990D01*
X438049Y385958D02*
X441986D01*
D84*
X325910Y375568D02*
Y404508D01*
Y375568D02*
X361110D01*
Y404508D01*
X325910D02*
X361110D01*
X411540Y379130D02*
X427280D01*
X411540D02*
Y394870D01*
X427280D01*
Y379130D02*
Y394870D01*
M02*
