G04*
G04 #@! TF.GenerationSoftware,Altium Limited,Altium Designer,22.0.2 (36)*
G04*
G04 Layer_Physical_Order=2*
G04 Layer_Color=16711680*
%FSLAX25Y25*%
%MOIN*%
G70*
G04*
G04 #@! TF.SameCoordinates,A8AB103B-E7CB-45E0-896D-D1B8D88E5F6C*
G04*
G04*
G04 #@! TF.FilePolarity,Positive*
G04*
G01*
G75*
%ADD10C,0.01000*%
%ADD16C,0.00800*%
%ADD17R,0.03800X0.03500*%
%ADD21R,0.03150X0.03347*%
%ADD22R,0.03500X0.03800*%
%ADD41C,0.02000*%
%ADD42O,0.04720X0.07870*%
%ADD43O,0.04720X0.09060*%
%ADD44C,0.04800*%
%ADD45C,0.08600*%
%ADD46C,0.02500*%
%ADD47C,0.02400*%
%ADD48C,0.03000*%
%ADD49C,0.02600*%
%ADD50R,0.04724X0.03937*%
G04:AMPARAMS|DCode=51|XSize=38mil|YSize=35mil|CornerRadius=0mil|HoleSize=0mil|Usage=FLASHONLY|Rotation=135.000|XOffset=0mil|YOffset=0mil|HoleType=Round|Shape=Rectangle|*
%AMROTATEDRECTD51*
4,1,4,0.02581,-0.00106,0.00106,-0.02581,-0.02581,0.00106,-0.00106,0.02581,0.02581,-0.00106,0.0*
%
%ADD51ROTATEDRECTD51*%

%ADD52R,0.01772X0.03937*%
G04:AMPARAMS|DCode=53|XSize=38mil|YSize=35mil|CornerRadius=0mil|HoleSize=0mil|Usage=FLASHONLY|Rotation=45.000|XOffset=0mil|YOffset=0mil|HoleType=Round|Shape=Rectangle|*
%AMROTATEDRECTD53*
4,1,4,-0.00106,-0.02581,-0.02581,-0.00106,0.00106,0.02581,0.02581,0.00106,-0.00106,-0.02581,0.0*
%
%ADD53ROTATEDRECTD53*%

%ADD54R,0.03347X0.03150*%
%ADD55R,0.02953X0.03937*%
%ADD56O,0.05512X0.01181*%
%ADD57O,0.01181X0.05512*%
%ADD58R,0.01180X0.04530*%
%ADD59R,0.02360X0.04530*%
%ADD60R,0.13386X0.05906*%
%ADD61R,0.05906X0.02362*%
%ADD62O,0.01575X0.07874*%
G36*
X435416Y390658D02*
X435408Y390734D01*
X435383Y390802D01*
X435343Y390862D01*
X435286Y390914D01*
X435213Y390958D01*
X435123Y390994D01*
X435018Y391022D01*
X434896Y391042D01*
X434758Y391054D01*
X434604Y391058D01*
Y391858D01*
X434758Y391862D01*
X434896Y391874D01*
X435018Y391894D01*
X435123Y391922D01*
X435213Y391958D01*
X435286Y392002D01*
X435343Y392054D01*
X435383Y392114D01*
X435408Y392182D01*
X435416Y392258D01*
Y390658D01*
D02*
G37*
G36*
X444630Y392363D02*
X444660Y392278D01*
X444711Y392203D01*
X444782Y392138D01*
X444873Y392083D01*
X444984Y392038D01*
X445116Y392003D01*
X445267Y391978D01*
X445439Y391963D01*
X445632Y391958D01*
Y390958D01*
X445439Y390953D01*
X445267Y390938D01*
X445116Y390913D01*
X444984Y390878D01*
X444873Y390833D01*
X444782Y390778D01*
X444711Y390713D01*
X444660Y390638D01*
X444630Y390553D01*
X444620Y390458D01*
Y392458D01*
X444630Y392363D01*
D02*
G37*
G36*
X463961Y390408D02*
X463852Y390513D01*
X463739Y390606D01*
X463623Y390689D01*
X463503Y390760D01*
X463381Y390821D01*
X463255Y390870D01*
X463126Y390909D01*
X462993Y390936D01*
X462857Y390953D01*
X462718Y390958D01*
Y391958D01*
X462857Y391964D01*
X462993Y391980D01*
X463126Y392008D01*
X463255Y392046D01*
X463381Y392096D01*
X463503Y392156D01*
X463623Y392228D01*
X463739Y392310D01*
X463852Y392404D01*
X463961Y392508D01*
Y390408D01*
D02*
G37*
G36*
X466536Y391292D02*
X466549Y391146D01*
X466573Y391006D01*
X466607Y390871D01*
X466651Y390741D01*
X466705Y390617D01*
X466769Y390499D01*
X466843Y390385D01*
X466928Y390278D01*
X467022Y390175D01*
X466315Y389468D01*
X466213Y389563D01*
X466105Y389647D01*
X465992Y389721D01*
X465873Y389786D01*
X465749Y389840D01*
X465620Y389884D01*
X465485Y389917D01*
X465344Y389941D01*
X465199Y389955D01*
X465047Y389958D01*
X466532Y391443D01*
X466536Y391292D01*
D02*
G37*
G36*
X326500Y401264D02*
X329749D01*
X329749Y401264D01*
X441232Y401264D01*
Y394427D01*
X440518D01*
Y391458D01*
Y388490D01*
X441232D01*
Y383127D01*
X438539Y383127D01*
X438163Y383427D01*
X438056Y383427D01*
X436778D01*
Y380458D01*
Y377490D01*
X438163D01*
X438294Y377594D01*
X438753Y377374D01*
X438794Y377292D01*
Y376724D01*
X418002D01*
X417941Y376734D01*
X417886Y376747D01*
X417838Y376763D01*
X417796Y376781D01*
X417759Y376800D01*
X417725Y376822D01*
X417693Y376847D01*
X417640Y376896D01*
X417591Y376927D01*
X417365Y377153D01*
X416648Y377450D01*
X415872D01*
X415155Y377153D01*
X414607Y376605D01*
X414310Y375888D01*
Y375112D01*
X414607Y374395D01*
X415036Y373966D01*
Y365067D01*
X410884Y360914D01*
X410619Y360517D01*
X410526Y360049D01*
Y359911D01*
X410281Y359716D01*
Y355775D01*
X409281D01*
Y359463D01*
X409160Y359439D01*
X408634Y359087D01*
X408468Y359054D01*
X408316Y359156D01*
X407812Y359256D01*
X407308Y359156D01*
X406882Y358871D01*
X406774D01*
X406347Y359156D01*
X405844Y359256D01*
X405340Y359156D01*
X404913Y358871D01*
X404806D01*
X404379Y359156D01*
X403875Y359256D01*
X403371Y359156D01*
X402945Y358871D01*
X402837D01*
X402410Y359156D01*
X401907Y359256D01*
X401403Y359156D01*
X400976Y358871D01*
X400869D01*
X400442Y359156D01*
X399938Y359256D01*
X399591Y359187D01*
X399184Y359428D01*
X399091Y359528D01*
Y363203D01*
X404772D01*
Y364750D01*
X406276D01*
Y363671D01*
X411175D01*
Y368871D01*
X406276D01*
Y366993D01*
X404772D01*
Y368540D01*
X398647D01*
Y366923D01*
X398571Y366907D01*
X398207Y366664D01*
X398207Y366664D01*
X397623Y366080D01*
X397123Y366287D01*
Y372715D01*
X397037Y373144D01*
X396794Y373508D01*
X396794Y373508D01*
X395764Y374538D01*
X395400Y374781D01*
X395323Y374797D01*
Y376414D01*
X389199D01*
Y374867D01*
X387450D01*
Y376100D01*
X382550D01*
Y370900D01*
X387450D01*
Y372624D01*
X389199D01*
Y371077D01*
X394880D01*
Y368840D01*
X392761D01*
Y365871D01*
X392261D01*
Y365371D01*
X388899D01*
Y363691D01*
X388783Y363579D01*
X388399Y363362D01*
X388132Y363415D01*
X387999Y363514D01*
X387750Y363743D01*
Y366100D01*
X385000D01*
X382250D01*
Y364789D01*
X381788Y364598D01*
X380078Y366308D01*
X380037Y366360D01*
X379984Y366438D01*
X379939Y366517D01*
X379901Y366598D01*
X379871Y366681D01*
X379847Y366769D01*
X379829Y366861D01*
X379821Y366928D01*
Y378335D01*
X391823Y390337D01*
X434692D01*
Y388790D01*
X437756D01*
X438132Y388490D01*
X438132Y388490D01*
X438132Y388490D01*
X439518D01*
Y391458D01*
Y394427D01*
X438132D01*
Y394427D01*
X437863Y394127D01*
X434692D01*
Y392580D01*
X391358D01*
X391358Y392580D01*
X390929Y392495D01*
X390565Y392251D01*
X390565Y392251D01*
X377907Y379593D01*
X377664Y379229D01*
X377578Y378800D01*
X377578Y378800D01*
Y366928D01*
X377571Y366862D01*
X377553Y366769D01*
X377529Y366681D01*
X377499Y366598D01*
X377461Y366517D01*
X377416Y366438D01*
X377363Y366360D01*
X377322Y366308D01*
X374002Y362988D01*
X372719Y364270D01*
X370775Y362326D01*
X368830Y360381D01*
X370112Y359099D01*
X355510Y344496D01*
X349207D01*
X348854Y344850D01*
X348854Y345256D01*
X348854Y345756D01*
Y348474D01*
X348856Y348483D01*
X348854Y348492D01*
Y349193D01*
X348444D01*
X348342Y349690D01*
X349044Y350392D01*
X349410Y350733D01*
X349722Y350982D01*
X350000Y351176D01*
X350130Y351250D01*
X352500D01*
Y356150D01*
X347300D01*
Y353752D01*
X347262Y353687D01*
X347070Y353413D01*
X346554Y352805D01*
X345295Y351547D01*
X344920Y350984D01*
X344788Y350321D01*
Y349859D01*
X344778Y349737D01*
X344744Y349516D01*
X344703Y349347D01*
X344661Y349232D01*
X344639Y349193D01*
X342269D01*
X342260Y349194D01*
X342252Y349193D01*
X341548D01*
Y349092D01*
X340875Y349045D01*
X335811D01*
X335148Y348913D01*
X334586Y348537D01*
X333125Y347076D01*
X331440D01*
X331137Y347090D01*
Y347224D01*
X330434D01*
X330425Y347226D01*
X330417Y347224D01*
X327265D01*
Y347296D01*
X327133Y347959D01*
X326758Y348521D01*
X324233Y351046D01*
Y351660D01*
X324253Y351998D01*
X324280Y352213D01*
X324302Y352331D01*
X324676D01*
Y353035D01*
X324678Y353044D01*
X324676Y353052D01*
Y356948D01*
X324678Y356957D01*
X324676Y356965D01*
Y357668D01*
X324302D01*
X324283Y357771D01*
X324243Y358291D01*
X328188Y362237D01*
X328650Y362045D01*
Y361001D01*
X336343D01*
X344036D01*
Y363878D01*
X345535D01*
X348002Y361412D01*
X348120Y361285D01*
X348201Y361184D01*
X348225Y361149D01*
Y358127D01*
X352775D01*
Y362873D01*
X349744D01*
X349531Y363055D01*
X348669Y363917D01*
X348860Y364379D01*
X352633D01*
Y369126D01*
X351480D01*
Y370913D01*
X353930D01*
Y370613D01*
X355610D01*
Y373878D01*
X356610D01*
Y370613D01*
X358290D01*
Y372769D01*
X358738Y372990D01*
X358825Y372923D01*
X359643Y372585D01*
X360020Y372535D01*
Y378028D01*
Y383521D01*
X359643Y383472D01*
X358825Y383133D01*
X358124Y382595D01*
X357585Y381893D01*
X357301Y381207D01*
X356942Y381130D01*
X356763Y381161D01*
X356649Y381331D01*
X356233Y381748D01*
X356001Y381902D01*
X355457Y382128D01*
X355184Y382182D01*
X354596D01*
X354323Y382128D01*
X353779Y381902D01*
X353547Y381748D01*
X353131Y381331D01*
X352976Y381100D01*
X352931Y380991D01*
X352341Y380874D01*
X350097Y383118D01*
X349700Y383383D01*
X349232Y383476D01*
X337783D01*
X337315Y383383D01*
X336918Y383118D01*
X334678Y380877D01*
X334088Y380994D01*
X334044Y381100D01*
X333889Y381331D01*
X333473Y381748D01*
X333242Y381902D01*
X332698Y382128D01*
X332424Y382182D01*
X331836D01*
X331562Y382128D01*
X331018Y381902D01*
X330787Y381748D01*
X330371Y381331D01*
X330257Y381161D01*
X330078Y381130D01*
X329719Y381207D01*
X329435Y381893D01*
X328896Y382595D01*
X328194Y383133D01*
X327377Y383472D01*
X327000Y383521D01*
Y378028D01*
Y372535D01*
X327377Y372585D01*
X328194Y372923D01*
X328282Y372990D01*
X328730Y372769D01*
Y370623D01*
X330410D01*
Y373888D01*
X331410D01*
Y370623D01*
X332301D01*
X332327Y370251D01*
Y369133D01*
X330900D01*
X330237Y369001D01*
X329674Y368626D01*
X321274Y360226D01*
X320899Y359663D01*
X320767Y359000D01*
Y358340D01*
X320747Y358002D01*
X320720Y357787D01*
X320698Y357668D01*
X320324D01*
Y356965D01*
X320322Y356957D01*
X320324Y356948D01*
Y353052D01*
X320322Y353044D01*
X320324Y353035D01*
Y352331D01*
X320698D01*
X320717Y352229D01*
X320767Y351589D01*
Y350328D01*
X320899Y349664D01*
X321274Y349102D01*
X323799Y346578D01*
Y345524D01*
X323832Y345357D01*
Y343787D01*
X323832Y343462D01*
X323832Y342962D01*
Y339850D01*
X323832Y339525D01*
X323832Y339025D01*
Y335913D01*
X323832Y335588D01*
X323832Y335088D01*
Y331976D01*
X323832Y331476D01*
X323832Y331151D01*
Y328039D01*
X323832Y327714D01*
X323832Y327214D01*
Y324102D01*
X323832Y323777D01*
X323832Y323277D01*
Y320165D01*
X323832Y319840D01*
X323832Y319340D01*
Y316228D01*
X323832Y315903D01*
X323832Y315322D01*
X323478Y314969D01*
X322847D01*
X322847Y314969D01*
X322418Y314883D01*
X322054Y314640D01*
X322054Y314640D01*
X321509Y314095D01*
X321499Y314088D01*
X321457Y314060D01*
X321412Y314036D01*
X321363Y314016D01*
X321309Y313998D01*
X321248Y313983D01*
X321180Y313972D01*
X321104Y313966D01*
X320997Y313964D01*
X320936Y313950D01*
X320612D01*
X320095Y313736D01*
X319595Y314006D01*
Y366033D01*
X320024Y366205D01*
X320095Y366205D01*
X322000D01*
Y369173D01*
Y372142D01*
X320095D01*
X320024Y372142D01*
X319595Y372313D01*
Y394358D01*
X319593Y394365D01*
X319725Y395706D01*
X320118Y397002D01*
X320757Y398196D01*
X321616Y399242D01*
X322662Y400102D01*
X323857Y400740D01*
X325152Y401133D01*
X326494Y401265D01*
X326500Y401264D01*
D02*
G37*
G36*
X471237Y379222D02*
X471252Y379050D01*
X471277Y378898D01*
X471312Y378766D01*
X471357Y378655D01*
X471412Y378564D01*
X471477Y378493D01*
X471552Y378443D01*
X471637Y378412D01*
X471732Y378402D01*
X469732D01*
X469827Y378412D01*
X469912Y378443D01*
X469987Y378493D01*
X470052Y378564D01*
X470107Y378655D01*
X470152Y378766D01*
X470187Y378898D01*
X470212Y379050D01*
X470227Y379222D01*
X470232Y379414D01*
X471232D01*
X471237Y379222D01*
D02*
G37*
G36*
X440821Y378492D02*
X440757Y378462D01*
X440701Y378412D01*
X440652Y378342D01*
X440611Y378252D01*
X440578Y378142D01*
X440551Y378012D01*
X440533Y377862D01*
X440521Y377692D01*
X440518Y377502D01*
X439518D01*
X439514Y377692D01*
X439484Y378012D01*
X439458Y378142D01*
X439424Y378252D01*
X439383Y378342D01*
X439335Y378412D01*
X439279Y378462D01*
X439215Y378492D01*
X439144Y378502D01*
X440892D01*
X440821Y378492D01*
D02*
G37*
G36*
X444561Y378492D02*
X444497Y378462D01*
X444441Y378412D01*
X444392Y378342D01*
X444351Y378252D01*
X444318Y378142D01*
X444291Y378012D01*
X444273Y377862D01*
X444262Y377692D01*
X444258Y377502D01*
X443258D01*
X443254Y377692D01*
X443224Y378012D01*
X443198Y378142D01*
X443164Y378252D01*
X443123Y378342D01*
X443075Y378412D01*
X443019Y378462D01*
X442955Y378492D01*
X442884Y378502D01*
X444632D01*
X444561Y378492D01*
D02*
G37*
G36*
X345567Y377409D02*
X345473Y377499D01*
X345377Y377580D01*
X345278Y377651D01*
X345177Y377713D01*
X345074Y377765D01*
X344969Y377808D01*
X344861Y377841D01*
X344752Y377865D01*
X344640Y377879D01*
X344526Y377884D01*
Y378684D01*
X344640Y378689D01*
X344752Y378703D01*
X344861Y378727D01*
X344969Y378760D01*
X345074Y378803D01*
X345177Y378855D01*
X345278Y378917D01*
X345377Y378988D01*
X345473Y379069D01*
X345567Y379159D01*
Y377409D01*
D02*
G37*
G36*
X342925Y376779D02*
X342953Y376419D01*
X342969Y376331D01*
X342990Y376259D01*
X343014Y376203D01*
X343041Y376163D01*
X343073Y376139D01*
X343108Y376131D01*
X341952D01*
X341985Y376139D01*
X342014Y376163D01*
X342039Y376203D01*
X342061Y376259D01*
X342080Y376331D01*
X342096Y376419D01*
X342108Y376523D01*
X342121Y376779D01*
X342123Y376931D01*
X342923D01*
X342925Y376779D01*
D02*
G37*
G36*
X347245Y377297D02*
X347164Y377201D01*
X347093Y377102D01*
X347031Y377001D01*
X346979Y376898D01*
X346936Y376793D01*
X346903Y376685D01*
X346879Y376576D01*
X346878Y376565D01*
X346888Y376419D01*
X346904Y376331D01*
X346924Y376259D01*
X346947Y376203D01*
X346974Y376163D01*
X347004Y376139D01*
X347038Y376131D01*
X345882D01*
X345916Y376139D01*
X345946Y376163D01*
X345973Y376203D01*
X345996Y376259D01*
X346016Y376331D01*
X346031Y376419D01*
X346044Y376523D01*
X346045Y376543D01*
X346041Y376576D01*
X346017Y376685D01*
X345984Y376793D01*
X345941Y376898D01*
X345889Y377001D01*
X345827Y377102D01*
X345756Y377201D01*
X345675Y377297D01*
X345585Y377391D01*
X347335D01*
X347245Y377297D01*
D02*
G37*
G36*
X335228Y376141D02*
X333710Y376129D01*
X333805Y376140D01*
X333890Y376171D01*
X333965Y376222D01*
X334030Y376293D01*
X334085Y376384D01*
X334130Y376496D01*
X334165Y376627D01*
X334190Y376778D01*
X334205Y376950D01*
X334210Y377141D01*
X335210D01*
X335228Y376141D01*
D02*
G37*
G36*
X352811Y376940D02*
X352826Y376768D01*
X352851Y376617D01*
X352886Y376485D01*
X352931Y376374D01*
X352986Y376283D01*
X353051Y376212D01*
X353126Y376161D01*
X353211Y376130D01*
X353306Y376119D01*
X351792Y376131D01*
X351795Y376141D01*
X351797Y376171D01*
X351803Y376491D01*
X351806Y377131D01*
X352806D01*
X352811Y376940D01*
D02*
G37*
G36*
X417229Y376304D02*
X417310Y376240D01*
X417397Y376184D01*
X417490Y376135D01*
X417587Y376094D01*
X417690Y376060D01*
X417799Y376034D01*
X417912Y376015D01*
X418031Y376004D01*
X418156Y376000D01*
Y375000D01*
X418031Y374996D01*
X417912Y374985D01*
X417799Y374966D01*
X417690Y374940D01*
X417587Y374906D01*
X417490Y374865D01*
X417397Y374816D01*
X417310Y374760D01*
X417229Y374696D01*
X417153Y374625D01*
Y376375D01*
X417229Y376304D01*
D02*
G37*
G36*
X440528Y376798D02*
X440558Y376628D01*
X440608Y376478D01*
X440678Y376348D01*
X440768Y376238D01*
X440878Y376148D01*
X441008Y376078D01*
X441158Y376028D01*
X441328Y375998D01*
X441518Y375988D01*
Y374988D01*
X441328Y374978D01*
X441158Y374948D01*
X441008Y374898D01*
X440878Y374828D01*
X440768Y374738D01*
X440678Y374628D01*
X440608Y374498D01*
X440558Y374348D01*
X440528Y374178D01*
X440518Y373988D01*
X440018Y375488D01*
X440518Y376988D01*
X440528Y376798D01*
D02*
G37*
G36*
X389923Y372945D02*
X389915Y373021D01*
X389890Y373089D01*
X389850Y373149D01*
X389793Y373201D01*
X389720Y373245D01*
X389630Y373281D01*
X389525Y373309D01*
X389403Y373329D01*
X389265Y373341D01*
X389111Y373345D01*
Y374145D01*
X389265Y374149D01*
X389403Y374161D01*
X389525Y374181D01*
X389630Y374209D01*
X389720Y374245D01*
X389793Y374289D01*
X389850Y374341D01*
X389890Y374401D01*
X389915Y374469D01*
X389923Y374545D01*
Y372945D01*
D02*
G37*
G36*
X386734Y374469D02*
X386758Y374401D01*
X386799Y374341D01*
X386856Y374289D01*
X386929Y374245D01*
X387018Y374209D01*
X387124Y374181D01*
X387246Y374161D01*
X387384Y374149D01*
X387538Y374145D01*
Y373345D01*
X387384Y373341D01*
X387246Y373329D01*
X387124Y373309D01*
X387018Y373281D01*
X386929Y373245D01*
X386856Y373201D01*
X386799Y373149D01*
X386758Y373089D01*
X386734Y373021D01*
X386726Y372945D01*
Y374545D01*
X386734Y374469D01*
D02*
G37*
G36*
X440523Y373046D02*
X440538Y372874D01*
X440563Y372722D01*
X440598Y372590D01*
X440643Y372479D01*
X440698Y372388D01*
X440763Y372317D01*
X440838Y372267D01*
X440923Y372236D01*
X441018Y372226D01*
X439018D01*
X439113Y372236D01*
X439198Y372267D01*
X439273Y372317D01*
X439338Y372388D01*
X439393Y372479D01*
X439438Y372590D01*
X439473Y372722D01*
X439498Y372874D01*
X439513Y373046D01*
X439518Y373238D01*
X440518D01*
X440523Y373046D01*
D02*
G37*
G36*
X350936Y371617D02*
X350899Y371593D01*
X350866Y371553D01*
X350837Y371497D01*
X350813Y371425D01*
X350793Y371337D01*
X350778Y371233D01*
X350767Y371113D01*
X350758Y370825D01*
X349958D01*
X349957Y370977D01*
X349924Y371425D01*
X349909Y371497D01*
X349891Y371553D01*
X349871Y371593D01*
X349848Y371617D01*
X349822Y371625D01*
X350978D01*
X350936Y371617D01*
D02*
G37*
G36*
X345036Y371617D02*
X345006Y371593D01*
X344981Y371553D01*
X344958Y371497D01*
X344940Y371425D01*
X344924Y371337D01*
X344912Y371233D01*
X344899Y370977D01*
X344897Y370825D01*
X344097D01*
X344095Y370977D01*
X344067Y371337D01*
X344051Y371425D01*
X344030Y371497D01*
X344006Y371553D01*
X343979Y371593D01*
X343947Y371617D01*
X343912Y371625D01*
X345068D01*
X345036Y371617D01*
D02*
G37*
G36*
X341104D02*
X341074Y371593D01*
X341047Y371553D01*
X341024Y371497D01*
X341004Y371425D01*
X340988Y371337D01*
X340976Y371233D01*
X340962Y370977D01*
X340960Y370825D01*
X340160D01*
X340158Y370977D01*
X340131Y371337D01*
X340115Y371425D01*
X340096Y371497D01*
X340073Y371553D01*
X340046Y371593D01*
X340016Y371617D01*
X339982Y371625D01*
X341138D01*
X341104Y371617D01*
D02*
G37*
G36*
X339134Y371607D02*
X339104Y371583D01*
X339077Y371543D01*
X339054Y371487D01*
X339035Y371415D01*
X339019Y371327D01*
X339006Y371223D01*
X338992Y370967D01*
X338990Y370815D01*
X338190D01*
X338188Y370967D01*
X338161Y371327D01*
X338145Y371415D01*
X338126Y371487D01*
X338103Y371543D01*
X338076Y371583D01*
X338046Y371607D01*
X338012Y371615D01*
X339168D01*
X339134Y371607D01*
D02*
G37*
G36*
X335196Y371615D02*
X335168Y371555D01*
X335142Y371455D01*
X335121Y371315D01*
X335102Y371135D01*
X335067Y370355D01*
X335060Y369635D01*
X333060D01*
X333058Y370015D01*
X332952Y371555D01*
X332924Y371615D01*
X332892Y371635D01*
X335228D01*
X335196Y371615D01*
D02*
G37*
G36*
X441886Y371405D02*
X441917Y371320D01*
X441967Y371245D01*
X442038Y371180D01*
X442129Y371125D01*
X442240Y371080D01*
X442372Y371045D01*
X442524Y371020D01*
X442696Y371005D01*
X442888Y371000D01*
Y370000D01*
X442696Y369995D01*
X442524Y369980D01*
X442372Y369955D01*
X442240Y369920D01*
X442129Y369875D01*
X442038Y369820D01*
X441967Y369755D01*
X441917Y369680D01*
X441886Y369595D01*
X441876Y369500D01*
Y371500D01*
X441886Y371405D01*
D02*
G37*
G36*
X344902Y369660D02*
X344916Y369548D01*
X344940Y369439D01*
X344973Y369331D01*
X345016Y369226D01*
X345068Y369123D01*
X345130Y369022D01*
X345201Y368923D01*
X345282Y368827D01*
X345372Y368733D01*
X343622D01*
X343712Y368827D01*
X343793Y368923D01*
X343864Y369022D01*
X343926Y369123D01*
X343978Y369226D01*
X344021Y369331D01*
X344054Y369439D01*
X344078Y369548D01*
X344092Y369660D01*
X344097Y369774D01*
X344897D01*
X344902Y369660D01*
D02*
G37*
G36*
X350762Y369062D02*
X350774Y368926D01*
X350794Y368806D01*
X350822Y368702D01*
X350858Y368614D01*
X350902Y368542D01*
X350954Y368486D01*
X351014Y368446D01*
X351082Y368422D01*
X351158Y368414D01*
X349558D01*
X349634Y368422D01*
X349702Y368446D01*
X349762Y368486D01*
X349814Y368542D01*
X349858Y368614D01*
X349894Y368702D01*
X349922Y368806D01*
X349942Y368926D01*
X349954Y369062D01*
X349958Y369214D01*
X350758D01*
X350762Y369062D01*
D02*
G37*
G36*
X343604Y366965D02*
X343510Y367055D01*
X343414Y367136D01*
X343315Y367207D01*
X343214Y367269D01*
X343111Y367321D01*
X343006Y367364D01*
X342898Y367397D01*
X342789Y367421D01*
X342677Y367435D01*
X342563Y367440D01*
Y368240D01*
X342677Y368245D01*
X342789Y368259D01*
X342898Y368283D01*
X343006Y368316D01*
X343111Y368359D01*
X343214Y368411D01*
X343315Y368473D01*
X343414Y368544D01*
X343510Y368625D01*
X343604Y368715D01*
Y366965D01*
D02*
G37*
G36*
X406987Y365071D02*
X406980Y365147D01*
X406955Y365215D01*
X406916Y365275D01*
X406859Y365327D01*
X406787Y365371D01*
X406700Y365407D01*
X406596Y365435D01*
X406475Y365455D01*
X406340Y365467D01*
X406187Y365471D01*
Y366271D01*
X406340Y366275D01*
X406475Y366287D01*
X406596Y366307D01*
X406700Y366335D01*
X406787Y366371D01*
X406859Y366415D01*
X406916Y366467D01*
X406955Y366527D01*
X406980Y366595D01*
X406987Y366671D01*
Y365071D01*
D02*
G37*
G36*
X404056Y366595D02*
X404080Y366527D01*
X404121Y366467D01*
X404178Y366415D01*
X404251Y366371D01*
X404340Y366335D01*
X404446Y366307D01*
X404568Y366287D01*
X404706Y366275D01*
X404860Y366271D01*
Y365471D01*
X404706Y365467D01*
X404568Y365455D01*
X404446Y365435D01*
X404340Y365407D01*
X404251Y365371D01*
X404178Y365327D01*
X404121Y365275D01*
X404080Y365215D01*
X404056Y365147D01*
X404048Y365071D01*
Y366671D01*
X404056Y366595D01*
D02*
G37*
G36*
X379106Y366908D02*
X379123Y366755D01*
X379151Y366607D01*
X379190Y366463D01*
X379241Y366324D01*
X379304Y366190D01*
X379377Y366060D01*
X379462Y365936D01*
X379558Y365815D01*
X379666Y365700D01*
X379266Y364969D01*
X379153Y365070D01*
X379039Y365150D01*
X378926Y365206D01*
X378813Y365240D01*
X378700Y365251D01*
X378587Y365240D01*
X378474Y365206D01*
X378361Y365150D01*
X378247Y365070D01*
X378134Y364969D01*
X377734Y365700D01*
X377842Y365815D01*
X377938Y365936D01*
X378023Y366060D01*
X378096Y366190D01*
X378159Y366324D01*
X378209Y366463D01*
X378249Y366607D01*
X378277Y366755D01*
X378294Y366908D01*
X378300Y367066D01*
X379100D01*
X379106Y366908D01*
D02*
G37*
G36*
X433096Y361351D02*
X433039Y361399D01*
X432970Y361424D01*
X432888Y361425D01*
X432794Y361403D01*
X432687Y361357D01*
X432568Y361287D01*
X432436Y361194D01*
X432291Y361077D01*
X431965Y360773D01*
X431497Y361437D01*
X431653Y361598D01*
X431898Y361888D01*
X431988Y362017D01*
X432057Y362135D01*
X432104Y362243D01*
X432129Y362340D01*
X432133Y362427D01*
X432115Y362503D01*
X432075Y362569D01*
X433096Y361351D01*
D02*
G37*
G36*
X349008Y362563D02*
X349310Y362306D01*
X349442Y362213D01*
X349561Y362143D01*
X349668Y362097D01*
X349762Y362075D01*
X349844Y362076D01*
X349913Y362101D01*
X349970Y362149D01*
X348949Y360931D01*
X348989Y360997D01*
X349007Y361073D01*
X349003Y361160D01*
X348978Y361257D01*
X348931Y361365D01*
X348862Y361483D01*
X348772Y361612D01*
X348660Y361752D01*
X348372Y362063D01*
X348839Y362727D01*
X349008Y362563D01*
D02*
G37*
G36*
X377590Y359383D02*
X377459Y359245D01*
X377349Y359114D01*
X377261Y358990D01*
X377194Y358873D01*
X377148Y358764D01*
X377123Y358661D01*
X377119Y358566D01*
X377137Y358477D01*
X377176Y358396D01*
X377236Y358322D01*
X375822Y359736D01*
X375896Y359676D01*
X375977Y359637D01*
X376066Y359619D01*
X376161Y359623D01*
X376264Y359648D01*
X376373Y359694D01*
X376490Y359761D01*
X376614Y359849D01*
X376745Y359959D01*
X376883Y360090D01*
X377590Y359383D01*
D02*
G37*
G36*
X431351Y360159D02*
X431273Y360075D01*
X431204Y359986D01*
X431144Y359891D01*
X431091Y359792D01*
X431047Y359687D01*
X431011Y359577D01*
X430983Y359462D01*
X430964Y359342D01*
X430953Y359217D01*
X430950Y359086D01*
X429712Y360324D01*
X429843Y360327D01*
X429968Y360338D01*
X430088Y360357D01*
X430203Y360385D01*
X430313Y360421D01*
X430418Y360465D01*
X430517Y360518D01*
X430612Y360578D01*
X430701Y360647D01*
X430785Y360725D01*
X431351Y360159D01*
D02*
G37*
G36*
X398371Y359018D02*
X398406Y358525D01*
X398422Y358431D01*
X398441Y358348D01*
X398462Y358276D01*
X398487Y358215D01*
X398515Y358166D01*
X397425D01*
X397452Y358215D01*
X397477Y358276D01*
X397498Y358348D01*
X397517Y358431D01*
X397533Y358525D01*
X397556Y358749D01*
X397568Y359018D01*
X397570Y359169D01*
X398370D01*
X398371Y359018D01*
D02*
G37*
G36*
X396403D02*
X396437Y358525D01*
X396453Y358431D01*
X396472Y358348D01*
X396494Y358276D01*
X396518Y358215D01*
X396546Y358166D01*
X395456D01*
X395484Y358215D01*
X395508Y358276D01*
X395530Y358348D01*
X395549Y358431D01*
X395565Y358525D01*
X395588Y358749D01*
X395600Y359018D01*
X395601Y359169D01*
X396401D01*
X396403Y359018D01*
D02*
G37*
G36*
X390497D02*
X390532Y358525D01*
X390548Y358431D01*
X390567Y358348D01*
X390588Y358276D01*
X390613Y358215D01*
X390640Y358166D01*
X389551D01*
X389578Y358215D01*
X389603Y358276D01*
X389625Y358348D01*
X389643Y358431D01*
X389659Y358525D01*
X389683Y358749D01*
X389694Y359018D01*
X389696Y359169D01*
X390496D01*
X390497Y359018D01*
D02*
G37*
G36*
X388672Y358166D02*
X387582D01*
X387591Y358189D01*
X387598Y358231D01*
X387605Y358291D01*
X387620Y358583D01*
X387627Y359234D01*
X388627D01*
X388672Y358166D01*
D02*
G37*
G36*
X323505Y358576D02*
X323574Y357677D01*
X323616Y357456D01*
X323667Y357277D01*
X323728Y357137D01*
X323797Y357036D01*
X323876Y356977D01*
X323964Y356957D01*
X321036D01*
X321124Y356977D01*
X321203Y357036D01*
X321272Y357137D01*
X321333Y357277D01*
X321384Y357456D01*
X321426Y357677D01*
X321458Y357937D01*
X321495Y358576D01*
X321500Y358957D01*
X323500D01*
X323505Y358576D01*
D02*
G37*
G36*
X382432Y357218D02*
X382351Y357121D01*
X382280Y357023D01*
X382218Y356922D01*
X382166Y356819D01*
X382123Y356713D01*
X382090Y356606D01*
X382066Y356496D01*
X382052Y356384D01*
X382047Y356270D01*
X381247D01*
X381242Y356384D01*
X381228Y356496D01*
X381204Y356606D01*
X381171Y356713D01*
X381128Y356819D01*
X381076Y356922D01*
X381014Y357023D01*
X380943Y357121D01*
X380862Y357218D01*
X380772Y357312D01*
X382522D01*
X382432Y357218D01*
D02*
G37*
G36*
X377857Y357673D02*
X377865Y357639D01*
X377889Y357592D01*
X377929Y357533D01*
X377984Y357461D01*
X378142Y357279D01*
X378496Y356911D01*
X377789Y356204D01*
X377649Y356336D01*
X377518Y356447D01*
X377393Y356536D01*
X377275Y356605D01*
X377165Y356651D01*
X377062Y356677D01*
X376965Y356681D01*
X376876Y356664D01*
X376794Y356626D01*
X376719Y356566D01*
X377864Y357694D01*
X377857Y357673D01*
D02*
G37*
G36*
X374787Y355872D02*
X374712Y355932D01*
X374631Y355971D01*
X374542Y355988D01*
X374446Y355984D01*
X374343Y355959D01*
X374232Y355912D01*
X374114Y355843D01*
X373989Y355754D01*
X373857Y355643D01*
X373717Y355510D01*
X373010Y356218D01*
X373143Y356357D01*
X373254Y356489D01*
X373343Y356614D01*
X373412Y356732D01*
X373459Y356843D01*
X373484Y356946D01*
X373488Y357042D01*
X373471Y357131D01*
X373432Y357212D01*
X373372Y357287D01*
X374787Y355872D01*
D02*
G37*
G36*
X418241Y356499D02*
X418265Y356431D01*
X418305Y356371D01*
X418362Y356319D01*
X418435Y356275D01*
X418525Y356239D01*
X418630Y356211D01*
X418752Y356191D01*
X418890Y356179D01*
X419044Y356175D01*
Y355375D01*
X418890Y355371D01*
X418752Y355359D01*
X418630Y355339D01*
X418525Y355311D01*
X418435Y355275D01*
X418362Y355231D01*
X418305Y355179D01*
X418265Y355119D01*
X418241Y355051D01*
X418232Y354975D01*
Y356575D01*
X418241Y356499D01*
D02*
G37*
G36*
X438794Y373022D02*
X438789Y372963D01*
X438787Y372950D01*
X437400D01*
Y368050D01*
X442600D01*
Y369269D01*
X442613Y369271D01*
X442672Y369276D01*
X460993D01*
X465355Y364914D01*
X465164Y364452D01*
X458889D01*
Y360500D01*
X458389D01*
Y359999D01*
X450697D01*
Y356547D01*
X455949D01*
X456136Y356047D01*
X455624Y355536D01*
X455169Y354748D01*
X454934Y353869D01*
Y353690D01*
X454434Y353433D01*
X454279Y353536D01*
X453850Y353622D01*
X453850Y353622D01*
X446465D01*
X443518Y356568D01*
X443154Y356811D01*
X442725Y356897D01*
X442725Y356897D01*
X430846D01*
X430747Y357397D01*
X430805Y357421D01*
X431353Y357969D01*
X431650Y358686D01*
Y359010D01*
X431664Y359071D01*
X431666Y359178D01*
X431672Y359254D01*
X431683Y359322D01*
X431698Y359383D01*
X431716Y359437D01*
X431737Y359486D01*
X431760Y359531D01*
X431787Y359573D01*
X431795Y359583D01*
X432624Y360412D01*
X432760Y360538D01*
X432866Y360625D01*
X432869Y360627D01*
X435901D01*
Y365373D01*
X431351D01*
Y362351D01*
X431332Y362324D01*
X431158Y362118D01*
X430209Y361169D01*
X430199Y361161D01*
X430157Y361134D01*
X430112Y361111D01*
X430063Y361090D01*
X430009Y361072D01*
X429948Y361057D01*
X429880Y361047D01*
X429804Y361040D01*
X429697Y361037D01*
X429636Y361024D01*
X429312D01*
X428595Y360727D01*
X428047Y360179D01*
X427750Y359462D01*
Y358686D01*
X428047Y357969D01*
X428595Y357421D01*
X428653Y357397D01*
X428554Y356897D01*
X418970D01*
Y357941D01*
X418870Y358444D01*
X418585Y358871D01*
X418158Y359156D01*
X417655Y359256D01*
X417151Y359156D01*
X416724Y358871D01*
X416616D01*
X416190Y359156D01*
X415686Y359256D01*
X415182Y359156D01*
X414756Y358871D01*
X414648D01*
X414221Y359156D01*
X413718Y359256D01*
X413351Y359682D01*
X413328Y359897D01*
X417125Y363695D01*
X417390Y364092D01*
X417484Y364560D01*
Y373966D01*
X417591Y374073D01*
X417640Y374104D01*
X417693Y374153D01*
X417725Y374178D01*
X417759Y374200D01*
X417796Y374219D01*
X417838Y374237D01*
X417886Y374253D01*
X417941Y374266D01*
X418002Y374276D01*
X438794D01*
Y373022D01*
D02*
G37*
G36*
X416203Y353335D02*
X416179Y353275D01*
X416157Y353203D01*
X416138Y353120D01*
X416122Y353025D01*
X416099Y352802D01*
X416087Y352533D01*
X416086Y352381D01*
X415286D01*
X415285Y352533D01*
X415250Y353025D01*
X415234Y353120D01*
X415215Y353203D01*
X415193Y353275D01*
X415169Y353335D01*
X415141Y353384D01*
X416231D01*
X416203Y353335D01*
D02*
G37*
G36*
X414235D02*
X414210Y353275D01*
X414189Y353203D01*
X414170Y353120D01*
X414154Y353025D01*
X414131Y352802D01*
X414119Y352533D01*
X414118Y352381D01*
X413318D01*
X413316Y352533D01*
X413281Y353025D01*
X413265Y353120D01*
X413246Y353203D01*
X413225Y353275D01*
X413200Y353335D01*
X413173Y353384D01*
X414262D01*
X414235Y353335D01*
D02*
G37*
G36*
X408329D02*
X408305Y353275D01*
X408283Y353203D01*
X408264Y353120D01*
X408248Y353025D01*
X408225Y352802D01*
X408214Y352533D01*
X408212Y352381D01*
X407412D01*
X407411Y352533D01*
X407376Y353025D01*
X407360Y353120D01*
X407341Y353203D01*
X407319Y353275D01*
X407295Y353335D01*
X407267Y353384D01*
X408357D01*
X408329Y353335D01*
D02*
G37*
G36*
X406361D02*
X406336Y353275D01*
X406315Y353203D01*
X406296Y353120D01*
X406280Y353025D01*
X406257Y352802D01*
X406245Y352533D01*
X406244Y352381D01*
X405444D01*
X405442Y352533D01*
X405407Y353025D01*
X405391Y353120D01*
X405372Y353203D01*
X405351Y353275D01*
X405326Y353335D01*
X405299Y353384D01*
X406389D01*
X406361Y353335D01*
D02*
G37*
G36*
X404392D02*
X404368Y353275D01*
X404346Y353203D01*
X404327Y353120D01*
X404311Y353025D01*
X404288Y352802D01*
X404277Y352533D01*
X404275Y352381D01*
X403475D01*
X403474Y352533D01*
X403439Y353025D01*
X403423Y353120D01*
X403404Y353203D01*
X403382Y353275D01*
X403358Y353335D01*
X403330Y353384D01*
X404420D01*
X404392Y353335D01*
D02*
G37*
G36*
X402424D02*
X402399Y353275D01*
X402378Y353203D01*
X402359Y353120D01*
X402343Y353025D01*
X402320Y352802D01*
X402308Y352533D01*
X402307Y352381D01*
X401507D01*
X401505Y352533D01*
X401470Y353025D01*
X401454Y353120D01*
X401436Y353203D01*
X401414Y353275D01*
X401389Y353335D01*
X401362Y353384D01*
X402452D01*
X402424Y353335D01*
D02*
G37*
G36*
X400456D02*
X400431Y353275D01*
X400409Y353203D01*
X400390Y353120D01*
X400374Y353025D01*
X400351Y352802D01*
X400340Y352533D01*
X400338Y352381D01*
X399538D01*
X399537Y352533D01*
X399502Y353025D01*
X399486Y353120D01*
X399467Y353203D01*
X399445Y353275D01*
X399421Y353335D01*
X399393Y353384D01*
X400483D01*
X400456Y353335D01*
D02*
G37*
G36*
X412286Y353361D02*
X412278Y353320D01*
X412271Y353260D01*
X412256Y352968D01*
X412249Y352317D01*
X411249D01*
X411204Y353384D01*
X412294D01*
X412286Y353361D01*
D02*
G37*
G36*
X388664D02*
X388656Y353320D01*
X388649Y353260D01*
X388634Y352968D01*
X388627Y352317D01*
X387627D01*
X387582Y353384D01*
X388672D01*
X388664Y353361D01*
D02*
G37*
G36*
X445164Y351750D02*
X441846Y348432D01*
X429229D01*
X429145Y348436D01*
X428966Y348454D01*
X428913Y348463D01*
X428874Y348472D01*
X428865Y348475D01*
X428864Y348475D01*
X428788Y348526D01*
X428285Y348626D01*
X423954D01*
X423450Y348526D01*
X423023Y348241D01*
X422738Y347814D01*
X422638Y347311D01*
X422738Y346807D01*
X422840Y346655D01*
X422807Y346489D01*
X422456Y345963D01*
X422432Y345842D01*
X426119D01*
Y344842D01*
X422273D01*
X422105Y344504D01*
X421708Y344239D01*
X420860Y343390D01*
X420781Y343327D01*
X420672Y343253D01*
X420561Y343190D01*
X420446Y343137D01*
X420328Y343093D01*
X420205Y343059D01*
X420075Y343035D01*
X419975Y343023D01*
X417870D01*
X417820Y343503D01*
X418537Y343800D01*
X419085Y344348D01*
X419382Y345065D01*
Y345841D01*
X419278Y346091D01*
X419514Y346443D01*
X419643Y346517D01*
X420337Y346804D01*
X420885Y347352D01*
X421182Y348069D01*
Y348845D01*
X420885Y349562D01*
X420337Y350110D01*
X419620Y350407D01*
X418844D01*
X418128Y350110D01*
X417899Y349881D01*
X417846Y349847D01*
X417769Y349774D01*
X417710Y349725D01*
X417654Y349684D01*
X417601Y349652D01*
X417550Y349626D01*
X417501Y349606D01*
X417452Y349591D01*
X417403Y349580D01*
X417396Y349579D01*
X416808Y350168D01*
Y352068D01*
X417308Y352363D01*
X417655Y352294D01*
X418158Y352394D01*
X418585Y352679D01*
X418870Y353106D01*
X418970Y353610D01*
Y354654D01*
X442260D01*
X445164Y351750D01*
D02*
G37*
G36*
X350990Y351974D02*
X350829Y352079D01*
X350641Y352129D01*
X350426Y352124D01*
X350183Y352064D01*
X349914Y351949D01*
X349618Y351779D01*
X349294Y351554D01*
X348944Y351274D01*
X348162Y350548D01*
X346598Y351812D01*
X347002Y352230D01*
X347635Y352976D01*
X347865Y353304D01*
X348037Y353601D01*
X348150Y353869D01*
X348206Y354107D01*
X348203Y354315D01*
X348143Y354493D01*
X348024Y354640D01*
X350990Y351974D01*
D02*
G37*
G36*
X323876Y353024D02*
X323797Y352963D01*
X323728Y352864D01*
X323667Y352724D01*
X323616Y352543D01*
X323574Y352324D01*
X323542Y352063D01*
X323505Y351424D01*
X323500Y351044D01*
X321500D01*
X321495Y351424D01*
X321426Y352324D01*
X321384Y352543D01*
X321333Y352724D01*
X321272Y352864D01*
X321203Y352963D01*
X321124Y353024D01*
X321036Y353044D01*
X323964D01*
X323876Y353024D01*
D02*
G37*
G36*
X381427Y350709D02*
X381425Y350591D01*
X381434Y350478D01*
X381452Y350368D01*
X381481Y350262D01*
X381520Y350160D01*
X381570Y350061D01*
X381629Y349967D01*
X381699Y349876D01*
X381779Y349789D01*
X381146Y349291D01*
X381062Y349369D01*
X380973Y349439D01*
X380880Y349503D01*
X380782Y349560D01*
X380678Y349610D01*
X380570Y349653D01*
X380457Y349689D01*
X380340Y349718D01*
X380217Y349740D01*
X380090Y349755D01*
X381438Y350830D01*
X381427Y350709D01*
D02*
G37*
G36*
X347527Y349971D02*
X347577Y349382D01*
X347620Y349143D01*
X347676Y348941D01*
X347744Y348775D01*
X347825Y348646D01*
X347918Y348554D01*
X348024Y348499D01*
X348142Y348481D01*
X344681Y348469D01*
X344840Y348488D01*
X344983Y348544D01*
X345109Y348637D01*
X345218Y348766D01*
X345311Y348933D01*
X345387Y349137D01*
X345445Y349378D01*
X345487Y349655D01*
X345513Y349970D01*
X345521Y350321D01*
X347521D01*
X347527Y349971D01*
D02*
G37*
G36*
X418340Y347582D02*
X418245Y347672D01*
X418149Y347753D01*
X418050Y347824D01*
X417949Y347886D01*
X417846Y347938D01*
X417741Y347981D01*
X417634Y348014D01*
X417524Y348038D01*
X417412Y348052D01*
X417298Y348057D01*
Y348857D01*
X417412Y348862D01*
X417524Y348876D01*
X417634Y348900D01*
X417741Y348933D01*
X417846Y348976D01*
X417949Y349028D01*
X418050Y349090D01*
X418149Y349161D01*
X418245Y349242D01*
X418340Y349332D01*
Y347582D01*
D02*
G37*
G36*
X377271Y346766D02*
X377249Y346774D01*
X377207Y346782D01*
X377147Y346789D01*
X376855Y346803D01*
X376204Y346811D01*
Y347811D01*
X377271Y347856D01*
Y346766D01*
D02*
G37*
G36*
X428559Y347828D02*
X428620Y347803D01*
X428692Y347782D01*
X428775Y347763D01*
X428869Y347747D01*
X429093Y347724D01*
X429362Y347712D01*
X429513Y347711D01*
Y346911D01*
X429362Y346909D01*
X428869Y346874D01*
X428775Y346858D01*
X428692Y346840D01*
X428620Y346818D01*
X428559Y346793D01*
X428510Y346766D01*
Y347856D01*
X428559Y347828D01*
D02*
G37*
G36*
X467753Y347319D02*
X467768Y347147D01*
X467793Y346995D01*
X467828Y346864D01*
X467873Y346752D01*
X467928Y346661D01*
X467993Y346590D01*
X468068Y346540D01*
X468153Y346509D01*
X468248Y346499D01*
X466248D01*
X466343Y346509D01*
X466428Y346540D01*
X466503Y346590D01*
X466568Y346661D01*
X466623Y346752D01*
X466668Y346864D01*
X466703Y346995D01*
X466728Y347147D01*
X466743Y347319D01*
X466748Y347511D01*
X467748D01*
X467753Y347319D01*
D02*
G37*
G36*
X446602Y346311D02*
X446592Y346406D01*
X446562Y346491D01*
X446511Y346566D01*
X446441Y346631D01*
X446349Y346686D01*
X446238Y346731D01*
X446106Y346766D01*
X445955Y346791D01*
X445783Y346806D01*
X445590Y346811D01*
Y347811D01*
X445783Y347816D01*
X445955Y347831D01*
X446106Y347856D01*
X446238Y347891D01*
X446349Y347936D01*
X446441Y347991D01*
X446511Y348056D01*
X446562Y348131D01*
X446592Y348216D01*
X446602Y348311D01*
Y346311D01*
D02*
G37*
G36*
X342260Y346142D02*
X342240Y346175D01*
X342180Y346203D01*
X342080Y346229D01*
X341940Y346251D01*
X341760Y346269D01*
X340980Y346305D01*
X340260Y346311D01*
Y348311D01*
X340640Y348313D01*
X342180Y348420D01*
X342240Y348448D01*
X342260Y348481D01*
Y346142D01*
D02*
G37*
G36*
X416435Y344699D02*
X416378Y344766D01*
X416314Y344827D01*
X416242Y344880D01*
X416163Y344926D01*
X416077Y344964D01*
X415983Y344996D01*
X415882Y345021D01*
X415774Y345039D01*
X415659Y345049D01*
X415536Y345053D01*
Y345853D01*
X415659Y345856D01*
X415774Y345867D01*
X415882Y345885D01*
X415983Y345909D01*
X416077Y345941D01*
X416163Y345980D01*
X416242Y346026D01*
X416314Y346079D01*
X416378Y346139D01*
X416435Y346206D01*
Y344699D01*
D02*
G37*
G36*
X372697Y356938D02*
X372690Y356927D01*
X372652Y356882D01*
X371835Y356065D01*
X371570Y355668D01*
X371477Y355200D01*
Y349600D01*
X371570Y349132D01*
X371835Y348735D01*
X374124Y346445D01*
X374521Y346180D01*
X374989Y346087D01*
X375526D01*
X375721Y345842D01*
X379662D01*
Y344842D01*
X375837D01*
X375594Y344495D01*
X359388D01*
X359181Y344995D01*
X371911Y357724D01*
X372697Y356938D01*
D02*
G37*
G36*
X330445Y346480D02*
X330505Y346451D01*
X330605Y346426D01*
X330745Y346404D01*
X330925Y346385D01*
X331705Y346350D01*
X332425Y346343D01*
Y344343D01*
X332045Y344341D01*
X330505Y344235D01*
X330445Y344206D01*
X330425Y344174D01*
Y346512D01*
X330445Y346480D01*
D02*
G37*
G36*
X428533Y343910D02*
X428575Y343902D01*
X428635Y343896D01*
X428927Y343881D01*
X429578Y343874D01*
Y342874D01*
X428510Y342829D01*
Y343919D01*
X428533Y343910D01*
D02*
G37*
G36*
X423728Y342829D02*
X423705Y342837D01*
X423664Y342845D01*
X423604Y342852D01*
X423312Y342866D01*
X422661Y342874D01*
Y343874D01*
X423728Y343919D01*
Y342829D01*
D02*
G37*
G36*
X377271D02*
X377222Y342856D01*
X377162Y342881D01*
X377090Y342903D01*
X377007Y342921D01*
X376912Y342937D01*
X376689Y342961D01*
X376420Y342972D01*
X376269Y342974D01*
Y343774D01*
X376420Y343775D01*
X376912Y343810D01*
X377007Y343826D01*
X377090Y343845D01*
X377162Y343866D01*
X377222Y343891D01*
X377271Y343919D01*
Y342829D01*
D02*
G37*
G36*
X348138Y344098D02*
X348162Y344030D01*
X348203Y343970D01*
X348260Y343918D01*
X348333Y343875D01*
X348422Y343839D01*
X348528Y343811D01*
X348650Y343791D01*
X348788Y343778D01*
X348942Y343775D01*
Y342974D01*
X348788Y342970D01*
X348650Y342958D01*
X348528Y342938D01*
X348422Y342911D01*
X348333Y342875D01*
X348260Y342830D01*
X348203Y342778D01*
X348162Y342719D01*
X348138Y342651D01*
X348130Y342575D01*
Y344175D01*
X348138Y344098D01*
D02*
G37*
G36*
X446602Y342574D02*
X446594Y342650D01*
X446570Y342718D01*
X446529Y342778D01*
X446473Y342830D01*
X446399Y342874D01*
X446310Y342910D01*
X446205Y342938D01*
X446083Y342958D01*
X445945Y342970D01*
X445790Y342974D01*
Y343774D01*
X445945Y343778D01*
X446083Y343790D01*
X446205Y343810D01*
X446310Y343838D01*
X446399Y343874D01*
X446473Y343918D01*
X446529Y343970D01*
X446570Y344030D01*
X446594Y344098D01*
X446602Y344174D01*
Y342574D01*
D02*
G37*
G36*
X412531Y343076D02*
X412621Y343007D01*
X412715Y342946D01*
X412815Y342894D01*
X412919Y342850D01*
X413029Y342814D01*
X413144Y342786D01*
X413264Y342767D01*
X413389Y342756D01*
X413520Y342753D01*
X412282Y341515D01*
X412280Y341646D01*
X412268Y341771D01*
X412249Y341891D01*
X412221Y342006D01*
X412185Y342116D01*
X412141Y342221D01*
X412089Y342320D01*
X412028Y342414D01*
X411959Y342504D01*
X411882Y342588D01*
X412447Y343153D01*
X412531Y343076D01*
D02*
G37*
G36*
X428559Y341923D02*
X428620Y341898D01*
X428692Y341876D01*
X428775Y341857D01*
X428869Y341841D01*
X429093Y341818D01*
X429362Y341807D01*
X429513Y341805D01*
Y341005D01*
X429362Y341004D01*
X428869Y340969D01*
X428775Y340953D01*
X428692Y340934D01*
X428620Y340912D01*
X428559Y340888D01*
X428510Y340860D01*
Y341950D01*
X428559Y341923D01*
D02*
G37*
G36*
X377271Y340860D02*
X377222Y340888D01*
X377162Y340912D01*
X377090Y340934D01*
X377007Y340953D01*
X376912Y340969D01*
X376689Y340992D01*
X376420Y341004D01*
X376269Y341005D01*
Y341805D01*
X376420Y341807D01*
X376912Y341841D01*
X377007Y341857D01*
X377090Y341876D01*
X377162Y341898D01*
X377222Y341923D01*
X377271Y341950D01*
Y340860D01*
D02*
G37*
G36*
X464319Y340605D02*
X464311Y340681D01*
X464286Y340749D01*
X464246Y340809D01*
X464189Y340861D01*
X464116Y340905D01*
X464027Y340941D01*
X463921Y340969D01*
X463799Y340989D01*
X463661Y341001D01*
X463507Y341005D01*
Y341805D01*
X463661Y341809D01*
X463799Y341821D01*
X463921Y341841D01*
X464027Y341869D01*
X464116Y341905D01*
X464189Y341949D01*
X464246Y342001D01*
X464286Y342061D01*
X464311Y342129D01*
X464319Y342205D01*
Y340605D01*
D02*
G37*
G36*
X422207Y342300D02*
X422073Y342156D01*
X421952Y342005D01*
X421846Y341849D01*
X421755Y341687D01*
X421677Y341520D01*
X421613Y341346D01*
X421564Y341166D01*
X421528Y340981D01*
X421507Y340790D01*
X421500Y340593D01*
X420500Y340300D01*
X420490Y340490D01*
X420460Y340660D01*
X420410Y340810D01*
X420340Y340940D01*
X420250Y341050D01*
X420140Y341140D01*
X420010Y341210D01*
X419860Y341260D01*
X419690Y341290D01*
X419500Y341300D01*
X419793Y342300D01*
X419990Y342307D01*
X420181Y342328D01*
X420366Y342364D01*
X420546Y342413D01*
X420720Y342477D01*
X420887Y342555D01*
X421049Y342647D01*
X421205Y342753D01*
X421356Y342873D01*
X421500Y343007D01*
X422207Y342300D01*
D02*
G37*
G36*
X383715Y338562D02*
X383621Y338652D01*
X383524Y338733D01*
X383426Y338804D01*
X383325Y338866D01*
X383222Y338918D01*
X383117Y338961D01*
X383009Y338994D01*
X382899Y339018D01*
X382813Y339029D01*
X382413Y339000D01*
X382318Y338984D01*
X382235Y338966D01*
X382163Y338944D01*
X382103Y338919D01*
X382054Y338892D01*
Y339982D01*
X382103Y339954D01*
X382163Y339929D01*
X382235Y339908D01*
X382318Y339889D01*
X382413Y339873D01*
X382636Y339850D01*
X382798Y339843D01*
X382899Y339856D01*
X383009Y339879D01*
X383117Y339913D01*
X383222Y339955D01*
X383325Y340008D01*
X383426Y340069D01*
X383524Y340141D01*
X383621Y340221D01*
X383715Y340312D01*
Y338562D01*
D02*
G37*
G36*
X428559Y339954D02*
X428620Y339929D01*
X428692Y339908D01*
X428775Y339889D01*
X428869Y339873D01*
X429093Y339850D01*
X429362Y339838D01*
X429513Y339837D01*
Y339037D01*
X429362Y339035D01*
X428869Y339000D01*
X428775Y338984D01*
X428692Y338966D01*
X428620Y338944D01*
X428559Y338919D01*
X428510Y338892D01*
Y339982D01*
X428559Y339954D01*
D02*
G37*
G36*
X348138Y340161D02*
X348162Y340093D01*
X348203Y340034D01*
X348260Y339982D01*
X348333Y339937D01*
X348422Y339901D01*
X348528Y339874D01*
X348650Y339854D01*
X348788Y339842D01*
X348942Y339838D01*
Y339037D01*
X348788Y339034D01*
X348650Y339021D01*
X348528Y339001D01*
X348422Y338973D01*
X348333Y338937D01*
X348260Y338894D01*
X348203Y338842D01*
X348162Y338781D01*
X348138Y338714D01*
X348130Y338637D01*
Y340237D01*
X348138Y340161D01*
D02*
G37*
G36*
X446602Y338637D02*
X446594Y338713D01*
X446570Y338781D01*
X446529Y338841D01*
X446473Y338893D01*
X446399Y338937D01*
X446310Y338973D01*
X446205Y339001D01*
X446083Y339021D01*
X445945Y339033D01*
X445790Y339037D01*
Y339837D01*
X445945Y339841D01*
X446083Y339853D01*
X446205Y339873D01*
X446310Y339901D01*
X446399Y339937D01*
X446473Y339981D01*
X446529Y340033D01*
X446570Y340093D01*
X446594Y340161D01*
X446602Y340237D01*
Y338637D01*
D02*
G37*
G36*
X415840Y337982D02*
X415745Y338072D01*
X415649Y338153D01*
X415550Y338224D01*
X415449Y338286D01*
X415346Y338338D01*
X415241Y338381D01*
X415134Y338414D01*
X415024Y338438D01*
X414912Y338452D01*
X414798Y338457D01*
Y339257D01*
X414912Y339262D01*
X415024Y339276D01*
X415134Y339300D01*
X415241Y339333D01*
X415346Y339376D01*
X415449Y339428D01*
X415550Y339490D01*
X415649Y339561D01*
X415745Y339642D01*
X415840Y339732D01*
Y337982D01*
D02*
G37*
G36*
X332192Y336594D02*
X332098Y336684D01*
X332001Y336765D01*
X331903Y336836D01*
X331802Y336898D01*
X331699Y336950D01*
X331593Y336993D01*
X331486Y337026D01*
X331376Y337050D01*
X331264Y337064D01*
X331179Y337068D01*
X331071Y337065D01*
X330933Y337053D01*
X330811Y337033D01*
X330706Y337005D01*
X330616Y336969D01*
X330543Y336925D01*
X330486Y336873D01*
X330446Y336813D01*
X330421Y336745D01*
X330413Y336669D01*
Y338269D01*
X330421Y338193D01*
X330446Y338125D01*
X330486Y338065D01*
X330543Y338013D01*
X330616Y337969D01*
X330706Y337933D01*
X330811Y337905D01*
X330933Y337885D01*
X331071Y337873D01*
X331179Y337870D01*
X331264Y337874D01*
X331376Y337888D01*
X331486Y337912D01*
X331593Y337945D01*
X331699Y337988D01*
X331802Y338040D01*
X331903Y338102D01*
X332001Y338173D01*
X332098Y338254D01*
X332192Y338344D01*
Y336594D01*
D02*
G37*
G36*
X428559Y337986D02*
X428620Y337961D01*
X428692Y337939D01*
X428775Y337920D01*
X428869Y337904D01*
X429093Y337881D01*
X429362Y337870D01*
X429513Y337868D01*
Y337068D01*
X429362Y337067D01*
X428869Y337032D01*
X428775Y337016D01*
X428692Y336997D01*
X428620Y336975D01*
X428559Y336951D01*
X428510Y336923D01*
Y338013D01*
X428559Y337986D01*
D02*
G37*
G36*
X377271Y336923D02*
X377222Y336951D01*
X377162Y336975D01*
X377090Y336997D01*
X377007Y337016D01*
X376912Y337032D01*
X376689Y337055D01*
X376420Y337067D01*
X376269Y337068D01*
Y337868D01*
X376420Y337870D01*
X376912Y337904D01*
X377007Y337920D01*
X377090Y337939D01*
X377162Y337961D01*
X377222Y337986D01*
X377271Y338013D01*
Y336923D01*
D02*
G37*
G36*
X464319Y336668D02*
X464311Y336744D01*
X464286Y336812D01*
X464246Y336872D01*
X464189Y336924D01*
X464116Y336968D01*
X464027Y337004D01*
X463921Y337032D01*
X463799Y337052D01*
X463661Y337064D01*
X463507Y337068D01*
Y337868D01*
X463661Y337872D01*
X463799Y337884D01*
X463921Y337904D01*
X464027Y337932D01*
X464116Y337968D01*
X464189Y338012D01*
X464246Y338064D01*
X464286Y338124D01*
X464311Y338192D01*
X464319Y338268D01*
Y336668D01*
D02*
G37*
G36*
X412249Y337613D02*
X412338Y337544D01*
X412432Y337483D01*
X412532Y337430D01*
X412637Y337386D01*
X412746Y337350D01*
X412861Y337323D01*
X412982Y337303D01*
X413107Y337292D01*
X413237Y337289D01*
X412000Y336052D01*
X411997Y336182D01*
X411986Y336308D01*
X411967Y336428D01*
X411939Y336543D01*
X411903Y336653D01*
X411859Y336757D01*
X411806Y336857D01*
X411746Y336951D01*
X411677Y337040D01*
X411599Y337124D01*
X412165Y337690D01*
X412249Y337613D01*
D02*
G37*
G36*
X428559Y336017D02*
X428620Y335992D01*
X428692Y335971D01*
X428775Y335952D01*
X428869Y335936D01*
X429093Y335913D01*
X429362Y335901D01*
X429513Y335900D01*
Y335100D01*
X429362Y335098D01*
X428869Y335063D01*
X428775Y335048D01*
X428692Y335029D01*
X428620Y335007D01*
X428559Y334982D01*
X428510Y334955D01*
Y336045D01*
X428559Y336017D01*
D02*
G37*
G36*
X377271Y334955D02*
X377222Y334982D01*
X377162Y335007D01*
X377090Y335029D01*
X377007Y335048D01*
X376912Y335063D01*
X376689Y335087D01*
X376420Y335098D01*
X376269Y335100D01*
Y335900D01*
X376420Y335901D01*
X376912Y335936D01*
X377007Y335952D01*
X377090Y335971D01*
X377162Y335992D01*
X377222Y336017D01*
X377271Y336045D01*
Y334955D01*
D02*
G37*
G36*
X348138Y336225D02*
X348162Y336157D01*
X348203Y336097D01*
X348260Y336045D01*
X348333Y336000D01*
X348422Y335964D01*
X348528Y335936D01*
X348650Y335916D01*
X348788Y335905D01*
X348942Y335900D01*
Y335101D01*
X348788Y335097D01*
X348650Y335085D01*
X348528Y335065D01*
X348422Y335036D01*
X348333Y335000D01*
X348260Y334957D01*
X348203Y334905D01*
X348162Y334844D01*
X348138Y334776D01*
X348130Y334700D01*
Y336300D01*
X348138Y336225D01*
D02*
G37*
G36*
X446602Y334700D02*
X446594Y334776D01*
X446570Y334844D01*
X446529Y334904D01*
X446473Y334956D01*
X446399Y335000D01*
X446310Y335036D01*
X446205Y335064D01*
X446083Y335084D01*
X445945Y335096D01*
X445790Y335100D01*
Y335900D01*
X445945Y335904D01*
X446083Y335916D01*
X446205Y335936D01*
X446310Y335964D01*
X446399Y336000D01*
X446473Y336044D01*
X446529Y336096D01*
X446570Y336156D01*
X446594Y336224D01*
X446602Y336300D01*
Y334700D01*
D02*
G37*
G36*
X475138Y260500D02*
X475139Y260494D01*
X475007Y259153D01*
X474614Y257857D01*
X473976Y256663D01*
X473116Y255616D01*
X472070Y254757D01*
X470876Y254118D01*
X469580Y253725D01*
X468239Y253593D01*
X468232Y253595D01*
X326500D01*
X326494Y253593D01*
X325152Y253725D01*
X323857Y254118D01*
X322662Y254757D01*
X321616Y255616D01*
X320757Y256663D01*
X320118Y257857D01*
X319725Y259153D01*
X319593Y260494D01*
X319595Y260500D01*
Y268166D01*
X320057Y268357D01*
X322707Y265707D01*
X322707Y265707D01*
X323071Y265464D01*
X323388Y265401D01*
X323519Y265014D01*
X323525Y264902D01*
X323246Y264741D01*
X322259Y263754D01*
X321561Y262546D01*
X321200Y261198D01*
Y261000D01*
X331800D01*
Y261198D01*
X331439Y262546D01*
X330741Y263754D01*
X329754Y264741D01*
X329487Y264896D01*
X329616Y265378D01*
X336967D01*
X337253Y264878D01*
X337050Y264388D01*
Y263612D01*
X337347Y262895D01*
X337895Y262347D01*
X338612Y262050D01*
X339388D01*
X340105Y262347D01*
X340334Y262576D01*
X340386Y262610D01*
X340463Y262683D01*
X340522Y262732D01*
X340578Y262773D01*
X340631Y262805D01*
X340682Y262831D01*
X340731Y262851D01*
X340780Y262866D01*
X340829Y262877D01*
X340841Y262878D01*
X348500D01*
X348500Y262878D01*
X348929Y262964D01*
X349293Y263207D01*
X379265Y293179D01*
X392798D01*
X393081Y292678D01*
X392969Y292113D01*
Y289464D01*
X394791D01*
Y288964D01*
X395291D01*
Y284091D01*
X395489Y284131D01*
X395824Y284354D01*
X396324Y284087D01*
Y283554D01*
X393593Y280823D01*
X382025D01*
X381968Y280828D01*
X381950Y280832D01*
Y282200D01*
X377050D01*
Y277000D01*
X378269D01*
X378271Y276987D01*
X378276Y276928D01*
Y274740D01*
X378271Y274681D01*
X378269Y274669D01*
X377324D01*
Y273231D01*
X377311Y273229D01*
X377252Y273223D01*
X375000D01*
X374532Y273130D01*
X374135Y272865D01*
X372099Y270830D01*
X371717Y270492D01*
X371548Y270363D01*
X371416Y270275D01*
X368627D01*
Y265725D01*
X373373D01*
Y268586D01*
X373410Y268638D01*
X373650Y268920D01*
X375507Y270777D01*
X377252D01*
X377311Y270771D01*
X377324Y270769D01*
Y269332D01*
X381676D01*
Y274669D01*
X380731D01*
X380729Y274681D01*
X380724Y274740D01*
Y276928D01*
X380729Y276987D01*
X380731Y277000D01*
X381950D01*
Y278368D01*
X381968Y278372D01*
X382025Y278377D01*
X394100D01*
X394568Y278470D01*
X394965Y278735D01*
X398412Y282182D01*
X398678Y282579D01*
X398771Y283047D01*
Y284530D01*
X398811Y284571D01*
X399097Y284687D01*
X399288Y284703D01*
X399723Y284413D01*
X400303Y284298D01*
X400883Y284413D01*
X401375Y284742D01*
X401431Y284825D01*
X401931D01*
X401987Y284742D01*
X402479Y284413D01*
X403059Y284298D01*
X403639Y284413D01*
X404131Y284742D01*
X404187Y284825D01*
X404687D01*
X404743Y284742D01*
X405235Y284413D01*
X405815Y284298D01*
X406395Y284413D01*
X406887Y284742D01*
X406943Y284825D01*
X407443D01*
X407499Y284742D01*
X407991Y284413D01*
X408571Y284298D01*
X409151Y284413D01*
X409643Y284742D01*
X410081Y284497D01*
X410629Y284131D01*
X410827Y284091D01*
Y288964D01*
X411827D01*
Y284091D01*
X412024Y284131D01*
X412323Y284330D01*
X412705Y284489D01*
X413086Y284330D01*
X413385Y284131D01*
X413583Y284091D01*
Y288964D01*
Y293836D01*
X413437Y293807D01*
X413291Y294288D01*
X413737Y294473D01*
X414285Y295021D01*
X414582Y295738D01*
Y296514D01*
X414285Y297231D01*
X413737Y297779D01*
X413020Y298076D01*
X412244D01*
X411776Y297882D01*
X411493Y298306D01*
X413165Y299978D01*
X414100D01*
X414100Y299978D01*
X414529Y300064D01*
X414893Y300307D01*
X417909Y303323D01*
X418371Y303132D01*
Y293397D01*
X418330Y293357D01*
X418045Y293240D01*
X417853Y293224D01*
X417419Y293514D01*
X416839Y293630D01*
X416258Y293514D01*
X415766Y293186D01*
X415329Y293431D01*
X414780Y293797D01*
X414583Y293836D01*
Y288964D01*
Y284091D01*
X414780Y284131D01*
X415115Y284354D01*
X415615Y284087D01*
Y280000D01*
Y259200D01*
X415605Y259143D01*
X415591Y259101D01*
X415583Y259086D01*
X415581Y259084D01*
X415580Y259083D01*
X415564Y259074D01*
X415523Y259061D01*
X415465Y259050D01*
X381751D01*
X381695Y259055D01*
X381676Y259058D01*
Y260495D01*
X377324D01*
Y259057D01*
X377311Y259055D01*
X377252Y259050D01*
X375932D01*
X373694Y261289D01*
X373530Y261464D01*
X373415Y261606D01*
X373373Y261666D01*
Y264527D01*
X368627D01*
Y259977D01*
X371478D01*
X371562Y259918D01*
X371832Y259689D01*
X374560Y256962D01*
X374957Y256696D01*
X375425Y256603D01*
X377252D01*
X377311Y256598D01*
X377324Y256596D01*
Y255158D01*
X381676D01*
Y256595D01*
X381695Y256598D01*
X381751Y256603D01*
X456779D01*
X456838Y256598D01*
X456851Y256596D01*
Y255627D01*
X461401D01*
Y260373D01*
X456851D01*
Y259057D01*
X456838Y259055D01*
X456779Y259050D01*
X418212D01*
X418154Y259061D01*
X418113Y259074D01*
X418097Y259083D01*
X418096Y259084D01*
X418094Y259086D01*
X418086Y259101D01*
X418072Y259143D01*
X418062Y259200D01*
Y278975D01*
X418073Y279075D01*
X418098Y279205D01*
X418132Y279328D01*
X418175Y279446D01*
X418228Y279561D01*
X418292Y279672D01*
X418366Y279781D01*
X418429Y279860D01*
X420460Y281891D01*
X420697Y282246D01*
X420862Y282262D01*
X421217Y282198D01*
X421220Y282181D01*
X421485Y281784D01*
X424009Y279261D01*
X424406Y278996D01*
X424874Y278903D01*
X434052D01*
X434109Y278897D01*
X434127Y278894D01*
Y277851D01*
X438873D01*
Y282401D01*
X434127D01*
Y281358D01*
X434109Y281354D01*
X434052Y281349D01*
X425381D01*
X423574Y283156D01*
Y284087D01*
X424074Y284354D01*
X424409Y284131D01*
X424606Y284091D01*
Y288964D01*
Y293836D01*
X424409Y293797D01*
X423861Y293431D01*
X423423Y293186D01*
X422931Y293514D01*
X422350Y293630D01*
X421770Y293514D01*
X421336Y293224D01*
X421069Y293285D01*
X420821Y293402D01*
X420818Y293449D01*
Y316409D01*
X420828Y316467D01*
X420842Y316509D01*
X420850Y316524D01*
X420852Y316526D01*
X420853Y316527D01*
X420869Y316536D01*
X420910Y316549D01*
X420968Y316560D01*
X423345D01*
X423539Y316550D01*
X423954Y316467D01*
X428285D01*
X428788Y316567D01*
X429215Y316853D01*
X429500Y317280D01*
X429600Y317783D01*
X429556Y318007D01*
X430017Y318253D01*
X431310Y316960D01*
Y311705D01*
X430848Y311514D01*
X429953Y312409D01*
X428362Y310819D01*
X430059Y309121D01*
X430848Y309911D01*
X431310Y309720D01*
Y308843D01*
X431302Y308600D01*
X431282Y308417D01*
X431271Y308354D01*
X428963Y306046D01*
X432640Y302369D01*
X436104Y305833D01*
X433850Y308087D01*
X433850Y308090D01*
X433820Y308238D01*
X433757Y308996D01*
Y316504D01*
X434219Y316695D01*
X443766Y307148D01*
X443766Y307148D01*
X444130Y306904D01*
X444559Y306819D01*
X444559Y306819D01*
X445525D01*
X445878Y306465D01*
X445878Y306059D01*
X445878Y305559D01*
Y302448D01*
X445878Y302122D01*
X445878Y301622D01*
Y298511D01*
X445878Y298185D01*
X445878Y297685D01*
Y294374D01*
X445578D01*
Y292692D01*
X449531D01*
X453484D01*
Y294374D01*
X453184D01*
Y297685D01*
X453184Y298011D01*
X453184Y298511D01*
Y301622D01*
X453184Y301948D01*
X453184Y302448D01*
Y305559D01*
X453184Y305885D01*
X453184Y306385D01*
Y309822D01*
X453184D01*
Y309997D01*
X453184D01*
Y313759D01*
X453184D01*
Y313933D01*
X453184D01*
Y317696D01*
X453184D01*
Y317870D01*
X453184D01*
Y321633D01*
X453184D01*
Y321808D01*
X453184D01*
Y325570D01*
X453184D01*
Y325745D01*
X453184D01*
Y329507D01*
X453184D01*
Y329682D01*
X453184D01*
Y333444D01*
X453184D01*
Y333619D01*
X453184D01*
Y337381D01*
X453184D01*
Y337556D01*
X453184D01*
Y341318D01*
X453184D01*
Y341493D01*
X453184D01*
Y345255D01*
X453184D01*
Y345430D01*
X453184D01*
Y348523D01*
X453684Y348730D01*
X455378Y347035D01*
Y342000D01*
X455378Y342000D01*
X455464Y341571D01*
X455707Y341207D01*
X460239Y336675D01*
X460239Y336675D01*
X460603Y336432D01*
X461032Y336347D01*
X461032Y336347D01*
X463241D01*
X463595Y335993D01*
X463595Y335587D01*
X463595Y335006D01*
X463241Y334653D01*
X461773D01*
X461761Y334654D01*
X461712Y334665D01*
X461664Y334680D01*
X461614Y334700D01*
X461563Y334726D01*
X461510Y334758D01*
X461454Y334799D01*
X461396Y334848D01*
X461319Y334922D01*
X461266Y334955D01*
X461037Y335184D01*
X460320Y335481D01*
X459544D01*
X458828Y335184D01*
X458279Y334636D01*
X457982Y333919D01*
Y333143D01*
X458279Y332427D01*
X458828Y331878D01*
X458936Y331833D01*
Y331292D01*
X458828Y331247D01*
X458279Y330699D01*
X457982Y329982D01*
Y329206D01*
X458279Y328490D01*
X458828Y327941D01*
X459544Y327644D01*
X460320D01*
X461037Y327941D01*
X461266Y328170D01*
X461319Y328204D01*
X461396Y328277D01*
X461454Y328327D01*
X461510Y328367D01*
X461563Y328399D01*
X461614Y328425D01*
X461664Y328445D01*
X461712Y328460D01*
X461761Y328471D01*
X461773Y328473D01*
X463241D01*
X463595Y328119D01*
X463595Y327713D01*
X463595Y327213D01*
Y324101D01*
X463595Y323776D01*
X463595Y323276D01*
Y320164D01*
X463595Y319839D01*
X463595Y319258D01*
X463241Y318905D01*
X461773D01*
X461761Y318906D01*
X461712Y318917D01*
X461664Y318932D01*
X461614Y318952D01*
X461563Y318978D01*
X461510Y319010D01*
X461454Y319051D01*
X461396Y319100D01*
X461319Y319174D01*
X461266Y319207D01*
X461037Y319436D01*
X460320Y319733D01*
X459544D01*
X458828Y319436D01*
X458279Y318888D01*
X457982Y318171D01*
Y317395D01*
X458279Y316679D01*
X458828Y316130D01*
X458936Y316085D01*
Y315544D01*
X458828Y315499D01*
X458279Y314951D01*
X457982Y314234D01*
Y313458D01*
X458279Y312741D01*
X458828Y312193D01*
X458936Y312148D01*
Y311607D01*
X458828Y311562D01*
X458279Y311014D01*
X457982Y310297D01*
Y309521D01*
X458279Y308804D01*
X458828Y308256D01*
X458936Y308211D01*
Y307670D01*
X458828Y307625D01*
X458279Y307077D01*
X457982Y306360D01*
Y305584D01*
X458279Y304868D01*
X458828Y304319D01*
X459544Y304022D01*
X460320D01*
X461037Y304319D01*
X461266Y304548D01*
X461319Y304582D01*
X461396Y304655D01*
X461454Y304704D01*
X461510Y304745D01*
X461563Y304777D01*
X461614Y304803D01*
X461664Y304823D01*
X461712Y304838D01*
X461761Y304849D01*
X461773Y304851D01*
X463241D01*
X463595Y304497D01*
X463595Y304091D01*
X463595Y303591D01*
Y300479D01*
X463595Y300154D01*
X463595Y299654D01*
Y296342D01*
X463295D01*
Y294661D01*
X467248D01*
X471200D01*
Y296342D01*
X470900D01*
Y299654D01*
X470900Y299979D01*
X470900Y300479D01*
Y303591D01*
X470900Y303916D01*
X470900Y304416D01*
Y307528D01*
X470900Y307853D01*
X470900Y308353D01*
Y311465D01*
X470900Y311790D01*
X470900Y312290D01*
Y315402D01*
X470900Y315727D01*
X470900Y316227D01*
Y319339D01*
X470900Y319664D01*
X470900Y320164D01*
Y323276D01*
X470900Y323601D01*
X470900Y324101D01*
Y327213D01*
X470900Y327538D01*
X470900Y328038D01*
Y331150D01*
X470900Y331475D01*
X470900Y331975D01*
Y335087D01*
X470900Y335412D01*
X470900Y335912D01*
Y339349D01*
X470900D01*
Y339524D01*
X470900D01*
Y343286D01*
X470900D01*
Y343461D01*
X470900D01*
Y347223D01*
X468478D01*
X468476Y347236D01*
X468471Y347295D01*
Y364752D01*
X468378Y365221D01*
X468113Y365617D01*
X462365Y371365D01*
X461968Y371630D01*
X461500Y371724D01*
X443097D01*
X442600Y372194D01*
Y372950D01*
X443027Y373126D01*
X475138D01*
Y260500D01*
D02*
G37*
G36*
X332192Y332657D02*
X332098Y332747D01*
X332001Y332828D01*
X331903Y332899D01*
X331802Y332961D01*
X331699Y333013D01*
X331593Y333056D01*
X331486Y333089D01*
X331376Y333113D01*
X331264Y333127D01*
X331179Y333131D01*
X331071Y333128D01*
X330933Y333116D01*
X330811Y333096D01*
X330706Y333068D01*
X330616Y333032D01*
X330543Y332988D01*
X330486Y332936D01*
X330446Y332876D01*
X330421Y332808D01*
X330413Y332732D01*
Y334332D01*
X330421Y334256D01*
X330446Y334188D01*
X330486Y334128D01*
X330543Y334076D01*
X330616Y334032D01*
X330706Y333996D01*
X330811Y333968D01*
X330933Y333948D01*
X331071Y333936D01*
X331179Y333933D01*
X331264Y333937D01*
X331376Y333951D01*
X331486Y333975D01*
X331593Y334008D01*
X331699Y334051D01*
X331802Y334103D01*
X331903Y334165D01*
X332001Y334236D01*
X332098Y334317D01*
X332192Y334407D01*
Y332657D01*
D02*
G37*
G36*
X428559Y334049D02*
X428620Y334024D01*
X428692Y334002D01*
X428775Y333983D01*
X428869Y333967D01*
X429093Y333944D01*
X429362Y333933D01*
X429513Y333931D01*
Y333131D01*
X429362Y333130D01*
X428869Y333095D01*
X428775Y333079D01*
X428692Y333060D01*
X428620Y333038D01*
X428559Y333014D01*
X428510Y332986D01*
Y334076D01*
X428559Y334049D01*
D02*
G37*
G36*
X377271Y332986D02*
X377222Y333014D01*
X377162Y333038D01*
X377090Y333060D01*
X377007Y333079D01*
X376912Y333095D01*
X376689Y333118D01*
X376420Y333130D01*
X376269Y333131D01*
Y333931D01*
X376420Y333933D01*
X376912Y333967D01*
X377007Y333983D01*
X377090Y334002D01*
X377162Y334024D01*
X377222Y334049D01*
X377271Y334076D01*
Y332986D01*
D02*
G37*
G36*
X464319Y332731D02*
X464311Y332807D01*
X464286Y332875D01*
X464246Y332935D01*
X464189Y332987D01*
X464116Y333031D01*
X464027Y333067D01*
X463921Y333095D01*
X463799Y333115D01*
X463661Y333127D01*
X463507Y333131D01*
Y333931D01*
X463661Y333935D01*
X463799Y333947D01*
X463921Y333967D01*
X464027Y333995D01*
X464116Y334031D01*
X464189Y334075D01*
X464246Y334127D01*
X464286Y334187D01*
X464311Y334255D01*
X464319Y334331D01*
Y332731D01*
D02*
G37*
G36*
X460919Y334316D02*
X461016Y334235D01*
X461114Y334164D01*
X461215Y334102D01*
X461318Y334050D01*
X461423Y334007D01*
X461531Y333974D01*
X461641Y333950D01*
X461753Y333936D01*
X461867Y333931D01*
Y333131D01*
X461753Y333126D01*
X461641Y333112D01*
X461531Y333088D01*
X461423Y333055D01*
X461318Y333012D01*
X461215Y332960D01*
X461114Y332898D01*
X461016Y332827D01*
X460919Y332746D01*
X460825Y332656D01*
Y334406D01*
X460919Y334316D01*
D02*
G37*
G36*
X415840Y332582D02*
X415745Y332672D01*
X415649Y332753D01*
X415550Y332824D01*
X415449Y332886D01*
X415346Y332938D01*
X415241Y332981D01*
X415134Y333014D01*
X415024Y333038D01*
X414912Y333052D01*
X414798Y333057D01*
Y333857D01*
X414912Y333862D01*
X415024Y333876D01*
X415134Y333900D01*
X415241Y333933D01*
X415346Y333976D01*
X415449Y334028D01*
X415550Y334090D01*
X415649Y334161D01*
X415745Y334242D01*
X415840Y334332D01*
Y332582D01*
D02*
G37*
G36*
X411299Y332673D02*
X411388Y332604D01*
X411483Y332543D01*
X411582Y332491D01*
X411687Y332447D01*
X411797Y332411D01*
X411912Y332383D01*
X412032Y332364D01*
X412157Y332353D01*
X412288Y332350D01*
X411050Y331113D01*
X411047Y331243D01*
X411036Y331368D01*
X411017Y331488D01*
X410989Y331603D01*
X410953Y331713D01*
X410909Y331818D01*
X410856Y331917D01*
X410796Y332012D01*
X410727Y332101D01*
X410649Y332185D01*
X411215Y332751D01*
X411299Y332673D01*
D02*
G37*
G36*
X428559Y332080D02*
X428620Y332055D01*
X428692Y332034D01*
X428775Y332015D01*
X428869Y331999D01*
X429093Y331976D01*
X429362Y331964D01*
X429513Y331963D01*
Y331163D01*
X429362Y331161D01*
X428869Y331126D01*
X428775Y331111D01*
X428692Y331092D01*
X428620Y331070D01*
X428559Y331045D01*
X428510Y331018D01*
Y332108D01*
X428559Y332080D01*
D02*
G37*
G36*
X377271Y331018D02*
X377222Y331045D01*
X377162Y331070D01*
X377090Y331092D01*
X377007Y331111D01*
X376912Y331126D01*
X376689Y331150D01*
X376420Y331161D01*
X376269Y331163D01*
Y331963D01*
X376420Y331964D01*
X376912Y331999D01*
X377007Y332015D01*
X377090Y332034D01*
X377162Y332055D01*
X377222Y332080D01*
X377271Y332108D01*
Y331018D01*
D02*
G37*
G36*
X348138Y332288D02*
X348162Y332220D01*
X348203Y332159D01*
X348260Y332107D01*
X348333Y332064D01*
X348422Y332028D01*
X348528Y331999D01*
X348650Y331979D01*
X348788Y331967D01*
X348942Y331963D01*
Y331164D01*
X348788Y331159D01*
X348650Y331148D01*
X348528Y331128D01*
X348422Y331100D01*
X348333Y331064D01*
X348260Y331019D01*
X348203Y330967D01*
X348162Y330908D01*
X348138Y330839D01*
X348130Y330764D01*
Y332364D01*
X348138Y332288D01*
D02*
G37*
G36*
X446602Y330763D02*
X446594Y330839D01*
X446570Y330907D01*
X446529Y330967D01*
X446473Y331019D01*
X446399Y331063D01*
X446310Y331099D01*
X446205Y331127D01*
X446083Y331147D01*
X445945Y331159D01*
X445790Y331163D01*
Y331963D01*
X445945Y331967D01*
X446083Y331979D01*
X446205Y331999D01*
X446310Y332027D01*
X446399Y332063D01*
X446473Y332107D01*
X446529Y332159D01*
X446570Y332219D01*
X446594Y332287D01*
X446602Y332363D01*
Y330763D01*
D02*
G37*
G36*
X332192Y328720D02*
X332098Y328810D01*
X332001Y328891D01*
X331903Y328962D01*
X331802Y329024D01*
X331699Y329076D01*
X331593Y329119D01*
X331486Y329152D01*
X331376Y329176D01*
X331264Y329190D01*
X331179Y329194D01*
X331071Y329191D01*
X330933Y329179D01*
X330811Y329159D01*
X330706Y329131D01*
X330616Y329095D01*
X330543Y329051D01*
X330486Y328999D01*
X330446Y328939D01*
X330421Y328871D01*
X330413Y328795D01*
Y330395D01*
X330421Y330319D01*
X330446Y330251D01*
X330486Y330191D01*
X330543Y330139D01*
X330616Y330095D01*
X330706Y330059D01*
X330811Y330031D01*
X330933Y330011D01*
X331071Y329999D01*
X331179Y329996D01*
X331264Y330000D01*
X331376Y330014D01*
X331486Y330038D01*
X331593Y330071D01*
X331699Y330114D01*
X331802Y330166D01*
X331903Y330228D01*
X332001Y330299D01*
X332098Y330380D01*
X332192Y330470D01*
Y328720D01*
D02*
G37*
G36*
X428559Y330112D02*
X428620Y330087D01*
X428692Y330065D01*
X428775Y330046D01*
X428869Y330030D01*
X429093Y330007D01*
X429362Y329996D01*
X429513Y329994D01*
Y329194D01*
X429362Y329193D01*
X428869Y329158D01*
X428775Y329142D01*
X428692Y329123D01*
X428620Y329101D01*
X428559Y329077D01*
X428510Y329049D01*
Y330139D01*
X428559Y330112D01*
D02*
G37*
G36*
X377271Y329049D02*
X377222Y329077D01*
X377162Y329101D01*
X377090Y329123D01*
X377007Y329142D01*
X376912Y329158D01*
X376689Y329181D01*
X376420Y329193D01*
X376269Y329194D01*
Y329994D01*
X376420Y329996D01*
X376912Y330030D01*
X377007Y330046D01*
X377090Y330065D01*
X377162Y330087D01*
X377222Y330112D01*
X377271Y330139D01*
Y329049D01*
D02*
G37*
G36*
X464319Y328794D02*
X464311Y328870D01*
X464286Y328938D01*
X464246Y328998D01*
X464189Y329050D01*
X464116Y329094D01*
X464027Y329130D01*
X463921Y329158D01*
X463799Y329178D01*
X463661Y329190D01*
X463507Y329194D01*
Y329994D01*
X463661Y329998D01*
X463799Y330010D01*
X463921Y330030D01*
X464027Y330058D01*
X464116Y330094D01*
X464189Y330138D01*
X464246Y330190D01*
X464286Y330250D01*
X464311Y330318D01*
X464319Y330394D01*
Y328794D01*
D02*
G37*
G36*
X460919Y330379D02*
X461016Y330298D01*
X461114Y330227D01*
X461215Y330165D01*
X461318Y330113D01*
X461423Y330070D01*
X461531Y330037D01*
X461641Y330013D01*
X461753Y329999D01*
X461867Y329994D01*
Y329194D01*
X461753Y329189D01*
X461641Y329175D01*
X461531Y329151D01*
X461423Y329118D01*
X461318Y329075D01*
X461215Y329023D01*
X461114Y328961D01*
X461016Y328890D01*
X460919Y328809D01*
X460825Y328719D01*
Y330469D01*
X460919Y330379D01*
D02*
G37*
G36*
X423728Y327081D02*
X423685Y327104D01*
X423630Y327125D01*
X423563Y327143D01*
X423483Y327159D01*
X423286Y327183D01*
X423040Y327198D01*
X422745Y327203D01*
X422710Y328003D01*
X422858Y328005D01*
X423241Y328030D01*
X423348Y328045D01*
X423531Y328085D01*
X423607Y328110D01*
X423673Y328139D01*
X423728Y328171D01*
Y327081D01*
D02*
G37*
G36*
X377271D02*
X377222Y327108D01*
X377162Y327133D01*
X377090Y327155D01*
X377007Y327173D01*
X376912Y327189D01*
X376689Y327213D01*
X376420Y327224D01*
X376269Y327226D01*
Y328026D01*
X376420Y328027D01*
X376912Y328062D01*
X377007Y328078D01*
X377090Y328097D01*
X377162Y328118D01*
X377222Y328143D01*
X377271Y328171D01*
Y327081D01*
D02*
G37*
G36*
X446602Y326910D02*
X446595Y326975D01*
X446572Y327033D01*
X446534Y327085D01*
X446482Y327129D01*
X446414Y327167D01*
X446330Y327198D01*
X446232Y327222D01*
X446119Y327239D01*
X445991Y327250D01*
X445847Y327253D01*
Y328053D01*
X445991Y328056D01*
X446119Y328067D01*
X446232Y328084D01*
X446330Y328108D01*
X446414Y328139D01*
X446482Y328177D01*
X446534Y328221D01*
X446572Y328273D01*
X446595Y328331D01*
X446602Y328396D01*
Y326910D01*
D02*
G37*
G36*
X348138Y328350D02*
X348162Y328282D01*
X348203Y328222D01*
X348260Y328170D01*
X348333Y328127D01*
X348422Y328091D01*
X348528Y328063D01*
X348650Y328043D01*
X348788Y328030D01*
X348942Y328027D01*
Y327226D01*
X348788Y327222D01*
X348650Y327210D01*
X348528Y327190D01*
X348422Y327163D01*
X348333Y327127D01*
X348260Y327082D01*
X348203Y327030D01*
X348162Y326971D01*
X348138Y326903D01*
X348130Y326827D01*
Y328427D01*
X348138Y328350D01*
D02*
G37*
G36*
X421018Y328382D02*
X421116Y328303D01*
X421216Y328233D01*
X421318Y328172D01*
X421422Y328120D01*
X421528Y328078D01*
X421636Y328045D01*
X421746Y328022D01*
X421858Y328008D01*
X421972Y328003D01*
X421987Y327203D01*
X421873Y327198D01*
X421761Y327184D01*
X421651Y327160D01*
X421544Y327126D01*
X421439Y327083D01*
X421337Y327030D01*
X421238Y326967D01*
X421140Y326895D01*
X421046Y326813D01*
X420954Y326722D01*
X420922Y328471D01*
X421018Y328382D01*
D02*
G37*
G36*
X411444Y328773D02*
X411595Y328653D01*
X411751Y328547D01*
X411913Y328455D01*
X412080Y328377D01*
X412254Y328313D01*
X412433Y328264D01*
X412619Y328228D01*
X412810Y328207D01*
X413007Y328200D01*
X414007Y327200D01*
X413824Y327193D01*
X413675Y327172D01*
X413561Y327136D01*
X413480Y327087D01*
X413434Y327023D01*
X413422Y326945D01*
X413444Y326853D01*
X413500Y326747D01*
X413590Y326627D01*
X413714Y326493D01*
X411447Y327346D01*
X410739Y328053D01*
X411300Y328907D01*
X411444Y328773D01*
D02*
G37*
G36*
X332192Y324783D02*
X332098Y324873D01*
X332001Y324954D01*
X331903Y325025D01*
X331802Y325087D01*
X331699Y325139D01*
X331593Y325182D01*
X331486Y325215D01*
X331376Y325239D01*
X331264Y325253D01*
X331179Y325257D01*
X331071Y325254D01*
X330933Y325242D01*
X330811Y325222D01*
X330706Y325194D01*
X330616Y325158D01*
X330543Y325114D01*
X330486Y325062D01*
X330446Y325002D01*
X330421Y324934D01*
X330413Y324858D01*
Y326458D01*
X330421Y326382D01*
X330446Y326314D01*
X330486Y326254D01*
X330543Y326202D01*
X330616Y326158D01*
X330706Y326122D01*
X330811Y326094D01*
X330933Y326074D01*
X331071Y326062D01*
X331179Y326059D01*
X331264Y326063D01*
X331376Y326077D01*
X331486Y326101D01*
X331593Y326134D01*
X331699Y326177D01*
X331802Y326229D01*
X331903Y326291D01*
X332001Y326362D01*
X332098Y326443D01*
X332192Y326533D01*
Y324783D01*
D02*
G37*
G36*
X428559Y326175D02*
X428620Y326150D01*
X428692Y326128D01*
X428775Y326109D01*
X428869Y326093D01*
X429093Y326070D01*
X429362Y326059D01*
X429513Y326057D01*
Y325257D01*
X429362Y325256D01*
X428869Y325221D01*
X428775Y325205D01*
X428692Y325186D01*
X428620Y325164D01*
X428559Y325140D01*
X428510Y325112D01*
Y326202D01*
X428559Y326175D01*
D02*
G37*
G36*
X377271Y325112D02*
X377222Y325140D01*
X377162Y325164D01*
X377090Y325186D01*
X377007Y325205D01*
X376912Y325221D01*
X376689Y325244D01*
X376420Y325256D01*
X376269Y325257D01*
Y326057D01*
X376420Y326059D01*
X376912Y326093D01*
X377007Y326109D01*
X377090Y326128D01*
X377162Y326150D01*
X377222Y326175D01*
X377271Y326202D01*
Y325112D01*
D02*
G37*
G36*
X411985Y324814D02*
X411996Y324689D01*
X412015Y324569D01*
X412043Y324454D01*
X412079Y324344D01*
X412123Y324239D01*
X412176Y324140D01*
X412236Y324045D01*
X412305Y323956D01*
X412383Y323872D01*
X411817Y323306D01*
X411733Y323384D01*
X411644Y323453D01*
X411550Y323514D01*
X411450Y323566D01*
X411345Y323610D01*
X411236Y323646D01*
X411121Y323674D01*
X411000Y323693D01*
X410875Y323704D01*
X410745Y323707D01*
X411982Y324944D01*
X411985Y324814D01*
D02*
G37*
G36*
X428559Y324206D02*
X428620Y324181D01*
X428692Y324160D01*
X428775Y324141D01*
X428869Y324125D01*
X429093Y324102D01*
X429362Y324090D01*
X429513Y324089D01*
Y323289D01*
X429362Y323287D01*
X428869Y323252D01*
X428775Y323236D01*
X428692Y323218D01*
X428620Y323196D01*
X428559Y323171D01*
X428510Y323144D01*
Y324234D01*
X428559Y324206D01*
D02*
G37*
G36*
X377271Y323144D02*
X377222Y323171D01*
X377162Y323196D01*
X377090Y323218D01*
X377007Y323236D01*
X376912Y323252D01*
X376689Y323276D01*
X376420Y323287D01*
X376269Y323289D01*
Y324089D01*
X376420Y324090D01*
X376912Y324125D01*
X377007Y324141D01*
X377090Y324160D01*
X377162Y324181D01*
X377222Y324206D01*
X377271Y324234D01*
Y323144D01*
D02*
G37*
G36*
X348138Y324413D02*
X348162Y324345D01*
X348203Y324286D01*
X348260Y324234D01*
X348333Y324189D01*
X348422Y324153D01*
X348528Y324126D01*
X348650Y324106D01*
X348788Y324094D01*
X348942Y324090D01*
Y323289D01*
X348788Y323286D01*
X348650Y323273D01*
X348528Y323253D01*
X348422Y323225D01*
X348333Y323189D01*
X348260Y323146D01*
X348203Y323094D01*
X348162Y323033D01*
X348138Y322966D01*
X348130Y322889D01*
Y324489D01*
X348138Y324413D01*
D02*
G37*
G36*
X446602Y322888D02*
X446594Y322965D01*
X446570Y323032D01*
X446529Y323093D01*
X446473Y323145D01*
X446399Y323188D01*
X446310Y323224D01*
X446205Y323253D01*
X446083Y323272D01*
X445945Y323285D01*
X445790Y323288D01*
Y324089D01*
X445945Y324093D01*
X446083Y324104D01*
X446205Y324125D01*
X446310Y324152D01*
X446399Y324188D01*
X446473Y324233D01*
X446529Y324285D01*
X446570Y324344D01*
X446594Y324412D01*
X446602Y324488D01*
Y322888D01*
D02*
G37*
G36*
X332192Y320846D02*
X332098Y320936D01*
X332001Y321017D01*
X331903Y321088D01*
X331802Y321150D01*
X331699Y321202D01*
X331593Y321245D01*
X331486Y321278D01*
X331376Y321302D01*
X331264Y321316D01*
X331179Y321320D01*
X331071Y321317D01*
X330933Y321305D01*
X330811Y321285D01*
X330706Y321257D01*
X330616Y321221D01*
X330543Y321177D01*
X330486Y321125D01*
X330446Y321065D01*
X330421Y320997D01*
X330413Y320921D01*
Y322521D01*
X330421Y322445D01*
X330446Y322377D01*
X330486Y322317D01*
X330543Y322265D01*
X330616Y322221D01*
X330706Y322185D01*
X330811Y322157D01*
X330933Y322137D01*
X331071Y322125D01*
X331179Y322122D01*
X331264Y322126D01*
X331376Y322140D01*
X331486Y322164D01*
X331593Y322197D01*
X331699Y322240D01*
X331802Y322292D01*
X331903Y322354D01*
X332001Y322425D01*
X332098Y322506D01*
X332192Y322596D01*
Y320846D01*
D02*
G37*
G36*
X428559Y322238D02*
X428620Y322213D01*
X428692Y322191D01*
X428775Y322172D01*
X428869Y322156D01*
X429093Y322133D01*
X429362Y322122D01*
X429513Y322120D01*
Y321320D01*
X429362Y321319D01*
X428869Y321284D01*
X428775Y321268D01*
X428692Y321249D01*
X428620Y321227D01*
X428559Y321203D01*
X428510Y321175D01*
Y322265D01*
X428559Y322238D01*
D02*
G37*
G36*
X377271Y321175D02*
X377222Y321203D01*
X377162Y321227D01*
X377090Y321249D01*
X377007Y321268D01*
X376912Y321284D01*
X376689Y321307D01*
X376420Y321319D01*
X376269Y321320D01*
Y322120D01*
X376420Y322122D01*
X376912Y322156D01*
X377007Y322172D01*
X377090Y322191D01*
X377162Y322213D01*
X377222Y322238D01*
X377271Y322265D01*
Y321175D01*
D02*
G37*
G36*
X411985Y321214D02*
X411996Y321089D01*
X412015Y320969D01*
X412043Y320854D01*
X412079Y320744D01*
X412123Y320639D01*
X412176Y320540D01*
X412236Y320445D01*
X412305Y320356D01*
X412383Y320272D01*
X411817Y319706D01*
X411733Y319784D01*
X411644Y319853D01*
X411550Y319914D01*
X411450Y319966D01*
X411345Y320010D01*
X411236Y320046D01*
X411121Y320074D01*
X411000Y320093D01*
X410875Y320104D01*
X410745Y320107D01*
X411982Y321344D01*
X411985Y321214D01*
D02*
G37*
G36*
X408285Y320914D02*
X408296Y320789D01*
X408316Y320669D01*
X408343Y320554D01*
X408379Y320444D01*
X408423Y320339D01*
X408476Y320240D01*
X408536Y320145D01*
X408605Y320056D01*
X408683Y319972D01*
X408117Y319406D01*
X408033Y319484D01*
X407944Y319553D01*
X407850Y319614D01*
X407750Y319666D01*
X407645Y319710D01*
X407536Y319746D01*
X407421Y319774D01*
X407301Y319793D01*
X407175Y319804D01*
X407045Y319807D01*
X408282Y321044D01*
X408285Y320914D01*
D02*
G37*
G36*
X428533Y320288D02*
X428575Y320280D01*
X428635Y320274D01*
X428927Y320259D01*
X429578Y320252D01*
Y319252D01*
X428510Y319207D01*
Y320297D01*
X428533Y320288D01*
D02*
G37*
G36*
X377271Y319207D02*
X377222Y319234D01*
X377162Y319259D01*
X377090Y319281D01*
X377007Y319300D01*
X376912Y319315D01*
X376689Y319339D01*
X376420Y319350D01*
X376269Y319352D01*
Y320152D01*
X376420Y320153D01*
X376912Y320188D01*
X377007Y320204D01*
X377090Y320223D01*
X377162Y320244D01*
X377222Y320269D01*
X377271Y320297D01*
Y319207D01*
D02*
G37*
G36*
X348138Y320477D02*
X348162Y320409D01*
X348203Y320349D01*
X348260Y320297D01*
X348333Y320252D01*
X348422Y320216D01*
X348528Y320188D01*
X348650Y320168D01*
X348788Y320157D01*
X348942Y320152D01*
Y319353D01*
X348788Y319349D01*
X348650Y319337D01*
X348528Y319317D01*
X348422Y319288D01*
X348333Y319252D01*
X348260Y319209D01*
X348203Y319157D01*
X348162Y319096D01*
X348138Y319028D01*
X348130Y318952D01*
Y320552D01*
X348138Y320477D01*
D02*
G37*
G36*
X446602Y318952D02*
X446594Y319027D01*
X446570Y319095D01*
X446529Y319156D01*
X446473Y319208D01*
X446399Y319251D01*
X446310Y319287D01*
X446205Y319316D01*
X446083Y319336D01*
X445945Y319348D01*
X445790Y319352D01*
Y320151D01*
X445945Y320156D01*
X446083Y320167D01*
X446205Y320187D01*
X446310Y320216D01*
X446399Y320251D01*
X446473Y320296D01*
X446529Y320347D01*
X446570Y320408D01*
X446594Y320476D01*
X446602Y320551D01*
Y318952D01*
D02*
G37*
G36*
X332192Y316909D02*
X332098Y316999D01*
X332001Y317080D01*
X331903Y317151D01*
X331802Y317213D01*
X331699Y317265D01*
X331593Y317308D01*
X331486Y317341D01*
X331376Y317365D01*
X331264Y317379D01*
X331179Y317383D01*
X331071Y317380D01*
X330933Y317368D01*
X330811Y317348D01*
X330706Y317320D01*
X330616Y317284D01*
X330543Y317240D01*
X330486Y317188D01*
X330446Y317128D01*
X330421Y317060D01*
X330413Y316984D01*
Y318584D01*
X330421Y318508D01*
X330446Y318440D01*
X330486Y318380D01*
X330543Y318328D01*
X330616Y318284D01*
X330706Y318248D01*
X330811Y318220D01*
X330933Y318200D01*
X331071Y318188D01*
X331179Y318185D01*
X331264Y318189D01*
X331376Y318203D01*
X331486Y318227D01*
X331593Y318260D01*
X331699Y318303D01*
X331802Y318355D01*
X331903Y318417D01*
X332001Y318488D01*
X332098Y318569D01*
X332192Y318659D01*
Y316909D01*
D02*
G37*
G36*
X423728Y317238D02*
X423705Y317247D01*
X423664Y317254D01*
X423604Y317261D01*
X423312Y317276D01*
X422661Y317283D01*
Y318283D01*
X423728Y318328D01*
Y317238D01*
D02*
G37*
G36*
X382103Y318301D02*
X382163Y318276D01*
X382235Y318254D01*
X382318Y318235D01*
X382413Y318219D01*
X382636Y318196D01*
X382905Y318185D01*
X383056Y318183D01*
Y317383D01*
X382905Y317382D01*
X382413Y317347D01*
X382318Y317331D01*
X382235Y317312D01*
X382163Y317290D01*
X382103Y317266D01*
X382054Y317238D01*
Y318328D01*
X382103Y318301D01*
D02*
G37*
G36*
X464319Y316983D02*
X464311Y317059D01*
X464286Y317127D01*
X464246Y317187D01*
X464189Y317239D01*
X464116Y317283D01*
X464027Y317319D01*
X463921Y317347D01*
X463799Y317367D01*
X463661Y317379D01*
X463507Y317383D01*
Y318183D01*
X463661Y318187D01*
X463799Y318199D01*
X463921Y318219D01*
X464027Y318247D01*
X464116Y318283D01*
X464189Y318327D01*
X464246Y318379D01*
X464286Y318439D01*
X464311Y318507D01*
X464319Y318583D01*
Y316983D01*
D02*
G37*
G36*
X460919Y318568D02*
X461016Y318487D01*
X461114Y318416D01*
X461215Y318354D01*
X461318Y318302D01*
X461423Y318259D01*
X461531Y318226D01*
X461641Y318202D01*
X461753Y318188D01*
X461867Y318183D01*
Y317383D01*
X461753Y317378D01*
X461641Y317364D01*
X461531Y317340D01*
X461423Y317307D01*
X461318Y317264D01*
X461215Y317212D01*
X461114Y317150D01*
X461016Y317079D01*
X460919Y316998D01*
X460825Y316908D01*
Y318658D01*
X460919Y318568D01*
D02*
G37*
G36*
X420105Y319093D02*
X420134Y318923D01*
X420185Y318773D01*
X420255Y318643D01*
X420344Y318533D01*
X420455Y318443D01*
X420584Y318373D01*
X420735Y318323D01*
X420904Y318293D01*
X421095Y318283D01*
Y317283D01*
X420904Y317273D01*
X420735Y317243D01*
X420584Y317193D01*
X420455Y317123D01*
X420344Y317033D01*
X420255Y316923D01*
X420185Y316793D01*
X420134Y316643D01*
X420105Y316473D01*
X420094Y316283D01*
X419095Y317783D01*
X420094Y319283D01*
X420105Y319093D01*
D02*
G37*
G36*
X404185Y317639D02*
X404196Y317514D01*
X404215Y317394D01*
X404243Y317279D01*
X404279Y317169D01*
X404323Y317064D01*
X404376Y316965D01*
X404436Y316870D01*
X404505Y316781D01*
X404583Y316697D01*
X404017Y316132D01*
X403933Y316209D01*
X403844Y316278D01*
X403750Y316339D01*
X403650Y316391D01*
X403545Y316435D01*
X403436Y316471D01*
X403321Y316499D01*
X403200Y316518D01*
X403075Y316529D01*
X402945Y316532D01*
X404182Y317770D01*
X404185Y317639D01*
D02*
G37*
G36*
X341403Y345384D02*
X341548Y345203D01*
X341548Y344930D01*
Y341494D01*
X341548D01*
Y341319D01*
X341548D01*
Y337557D01*
X341548D01*
Y337382D01*
X341548D01*
Y333619D01*
X341548D01*
Y333445D01*
X341548D01*
Y329682D01*
X341548D01*
Y329508D01*
X341548D01*
Y325746D01*
X341548D01*
Y325571D01*
X341548D01*
Y321809D01*
X341548D01*
Y321634D01*
X341548D01*
Y317871D01*
X341548D01*
Y317697D01*
X341548D01*
Y313934D01*
X341548D01*
Y313760D01*
X341548D01*
Y309997D01*
X341548D01*
Y309823D01*
X341548D01*
Y306060D01*
X341548D01*
Y305886D01*
X341448Y305542D01*
X340975Y305403D01*
X340935Y305428D01*
X340706Y305658D01*
X339989Y305954D01*
X339213D01*
X338496Y305658D01*
X337948Y305109D01*
X337651Y304392D01*
Y303617D01*
X337948Y302900D01*
X338496Y302351D01*
X338605Y302307D01*
Y301765D01*
X338496Y301721D01*
X337948Y301172D01*
X337651Y300455D01*
Y299680D01*
X337948Y298963D01*
X338496Y298414D01*
X339213Y298117D01*
X339989D01*
X340706Y298414D01*
X340935Y298643D01*
X340975Y298669D01*
X341448Y298530D01*
X341548Y298186D01*
Y298011D01*
X341548D01*
Y294374D01*
X341248D01*
Y292693D01*
X345201D01*
X349154D01*
Y294374D01*
X348854D01*
Y295009D01*
X349930D01*
X349931Y295009D01*
X350360Y295094D01*
X350724Y295337D01*
X374016Y318630D01*
X375955D01*
X376250Y318130D01*
X376181Y317783D01*
X376281Y317280D01*
X376567Y316853D01*
X376994Y316567D01*
X377497Y316467D01*
X381828D01*
X382331Y316567D01*
X382408Y316619D01*
X382408Y316619D01*
X382417Y316622D01*
X382456Y316631D01*
X382498Y316637D01*
X382840Y316662D01*
X383983D01*
X383983Y316662D01*
X384412Y316747D01*
X384776Y316990D01*
X386403Y318617D01*
X386904Y318410D01*
Y312093D01*
X386894Y311898D01*
X386811Y311484D01*
Y307153D01*
X386911Y306650D01*
X387197Y306223D01*
X387044Y305724D01*
X384952D01*
X380778Y309898D01*
X380741Y309942D01*
X380730Y309957D01*
X381698Y310925D01*
X378233Y314389D01*
X374556Y310713D01*
X378021Y307248D01*
X378663Y307889D01*
X379345Y307870D01*
X382832Y304383D01*
X382641Y303922D01*
X375936D01*
X375799Y303894D01*
X375553Y304355D01*
X377243Y306046D01*
X375652Y307637D01*
X373602Y305586D01*
X371551Y303535D01*
X372965Y302122D01*
X373038Y301488D01*
X356872Y285321D01*
X342765D01*
X342173Y285913D01*
X342364Y286375D01*
X348854D01*
Y290012D01*
X349154D01*
Y291693D01*
X345201D01*
X341248D01*
Y291128D01*
X341119Y291037D01*
X340748Y290938D01*
X332794Y298892D01*
X332430Y299135D01*
X332001Y299220D01*
X332001Y299220D01*
X331137D01*
Y299980D01*
X331137Y299980D01*
Y300155D01*
X331137D01*
X331137Y300480D01*
Y303917D01*
X331137D01*
Y304092D01*
X331137D01*
Y307854D01*
X331137D01*
Y308029D01*
X331137D01*
Y311791D01*
X331137D01*
Y311966D01*
X331137D01*
Y315403D01*
X331137Y315728D01*
X331137Y316181D01*
X331148Y316211D01*
X331159Y316233D01*
X331178Y316263D01*
X331203Y316293D01*
X331669Y316421D01*
X331698Y316394D01*
X331751Y316360D01*
X331980Y316131D01*
X332697Y315834D01*
X333472D01*
X334189Y316131D01*
X334738Y316680D01*
X335035Y317396D01*
Y318172D01*
X334738Y318889D01*
X334189Y319437D01*
X334081Y319482D01*
Y320023D01*
X334189Y320068D01*
X334738Y320617D01*
X335035Y321333D01*
Y322109D01*
X334738Y322826D01*
X334189Y323374D01*
X334081Y323419D01*
Y323960D01*
X334189Y324005D01*
X334738Y324553D01*
X335035Y325270D01*
Y326046D01*
X334738Y326763D01*
X334189Y327311D01*
X334081Y327356D01*
Y327897D01*
X334189Y327942D01*
X334738Y328490D01*
X335035Y329207D01*
Y329983D01*
X334738Y330700D01*
X334189Y331248D01*
X334081Y331293D01*
Y331834D01*
X334189Y331879D01*
X334738Y332428D01*
X335035Y333144D01*
Y333920D01*
X334738Y334637D01*
X334189Y335185D01*
X334081Y335230D01*
Y335771D01*
X334189Y335816D01*
X334738Y336365D01*
X335035Y337081D01*
Y337857D01*
X334738Y338574D01*
X334189Y339122D01*
X333472Y339419D01*
X332697D01*
X331980Y339122D01*
X331751Y338893D01*
X331698Y338860D01*
X331670Y338832D01*
X331203Y338961D01*
X331178Y338990D01*
X331158Y339021D01*
X331148Y339042D01*
X331137Y339072D01*
X331137Y339350D01*
X331137Y339850D01*
Y342962D01*
X331137Y343287D01*
X331512Y343589D01*
X331811Y343610D01*
X333843D01*
X334506Y343742D01*
X335069Y344117D01*
X336529Y345578D01*
X341182D01*
X341403Y345384D01*
D02*
G37*
G36*
X408285Y317314D02*
X408296Y317189D01*
X408316Y317069D01*
X408343Y316954D01*
X408379Y316844D01*
X408423Y316739D01*
X408476Y316640D01*
X408536Y316545D01*
X408605Y316456D01*
X408683Y316372D01*
X408117Y315806D01*
X408033Y315884D01*
X407944Y315953D01*
X407850Y316014D01*
X407750Y316066D01*
X407645Y316110D01*
X407536Y316146D01*
X407421Y316174D01*
X407301Y316193D01*
X407175Y316204D01*
X407045Y316207D01*
X408282Y317444D01*
X408285Y317314D01*
D02*
G37*
G36*
X348138Y316540D02*
X348162Y316472D01*
X348203Y316411D01*
X348260Y316359D01*
X348333Y316316D01*
X348422Y316280D01*
X348528Y316251D01*
X348650Y316231D01*
X348788Y316219D01*
X348942Y316215D01*
Y315416D01*
X348788Y315411D01*
X348650Y315400D01*
X348528Y315380D01*
X348422Y315352D01*
X348333Y315316D01*
X348260Y315271D01*
X348203Y315219D01*
X348162Y315160D01*
X348138Y315091D01*
X348130Y315016D01*
Y316616D01*
X348138Y316540D01*
D02*
G37*
G36*
X446602Y315015D02*
X446594Y315090D01*
X446570Y315159D01*
X446529Y315218D01*
X446473Y315270D01*
X446399Y315315D01*
X446310Y315351D01*
X446205Y315378D01*
X446083Y315399D01*
X445945Y315410D01*
X445790Y315415D01*
Y316214D01*
X445945Y316218D01*
X446083Y316231D01*
X446205Y316250D01*
X446310Y316279D01*
X446399Y316315D01*
X446473Y316358D01*
X446529Y316410D01*
X446570Y316471D01*
X446594Y316539D01*
X446602Y316615D01*
Y315015D01*
D02*
G37*
G36*
X398909Y313776D02*
X398857Y313785D01*
X398802Y313785D01*
X398744Y313774D01*
X398683Y313755D01*
X398619Y313726D01*
X398552Y313687D01*
X398482Y313639D01*
X398408Y313582D01*
X398332Y313515D01*
X398252Y313438D01*
X397687Y314004D01*
X397763Y314084D01*
X397887Y314233D01*
X397935Y314304D01*
X397974Y314371D01*
X398003Y314435D01*
X398023Y314496D01*
X398033Y314554D01*
X398034Y314609D01*
X398025Y314661D01*
X398909Y313776D01*
D02*
G37*
G36*
X324544Y313047D02*
X324536Y313123D01*
X324512Y313191D01*
X324472Y313251D01*
X324416Y313303D01*
X324344Y313347D01*
X324256Y313383D01*
X324152Y313411D01*
X324032Y313431D01*
X323896Y313443D01*
X323744Y313447D01*
Y314247D01*
X323896Y314251D01*
X324032Y314263D01*
X324152Y314283D01*
X324256Y314311D01*
X324344Y314347D01*
X324416Y314391D01*
X324472Y314443D01*
X324512Y314503D01*
X324536Y314571D01*
X324544Y314647D01*
Y313047D01*
D02*
G37*
G36*
X464319Y313046D02*
X464311Y313122D01*
X464286Y313190D01*
X464246Y313250D01*
X464189Y313302D01*
X464116Y313346D01*
X464027Y313382D01*
X463921Y313410D01*
X463799Y313430D01*
X463661Y313442D01*
X463507Y313446D01*
Y314246D01*
X463661Y314250D01*
X463799Y314262D01*
X463921Y314282D01*
X464027Y314310D01*
X464116Y314346D01*
X464189Y314390D01*
X464246Y314442D01*
X464286Y314502D01*
X464311Y314570D01*
X464319Y314646D01*
Y313046D01*
D02*
G37*
G36*
X460919Y314631D02*
X461016Y314550D01*
X461114Y314479D01*
X461215Y314417D01*
X461318Y314365D01*
X461423Y314322D01*
X461531Y314289D01*
X461641Y314265D01*
X461753Y314251D01*
X461867Y314246D01*
Y313446D01*
X461753Y313441D01*
X461641Y313427D01*
X461531Y313403D01*
X461423Y313370D01*
X461318Y313327D01*
X461215Y313275D01*
X461114Y313213D01*
X461016Y313142D01*
X460919Y313061D01*
X460825Y312971D01*
Y314721D01*
X460919Y314631D01*
D02*
G37*
G36*
X322651Y313085D02*
X322573Y313001D01*
X322504Y312912D01*
X322444Y312817D01*
X322391Y312718D01*
X322347Y312613D01*
X322311Y312503D01*
X322283Y312388D01*
X322264Y312268D01*
X322253Y312143D01*
X322250Y312013D01*
X321012Y313250D01*
X321143Y313253D01*
X321268Y313264D01*
X321388Y313283D01*
X321503Y313311D01*
X321613Y313347D01*
X321718Y313391D01*
X321817Y313443D01*
X321912Y313504D01*
X322001Y313573D01*
X322085Y313651D01*
X322651Y313085D01*
D02*
G37*
G36*
X410182Y312561D02*
X410217Y312069D01*
X410233Y311974D01*
X410252Y311891D01*
X410273Y311819D01*
X410298Y311759D01*
X410326Y311710D01*
X409236D01*
X409263Y311759D01*
X409288Y311819D01*
X409309Y311891D01*
X409328Y311974D01*
X409344Y312069D01*
X409368Y312292D01*
X409379Y312561D01*
X409381Y312712D01*
X410181D01*
X410182Y312561D01*
D02*
G37*
G36*
X408214D02*
X408248Y312069D01*
X408264Y311974D01*
X408283Y311891D01*
X408305Y311819D01*
X408329Y311759D01*
X408357Y311710D01*
X407267D01*
X407295Y311759D01*
X407319Y311819D01*
X407341Y311891D01*
X407360Y311974D01*
X407376Y312069D01*
X407399Y312292D01*
X407411Y312561D01*
X407412Y312712D01*
X408212D01*
X408214Y312561D01*
D02*
G37*
G36*
X398371D02*
X398406Y312069D01*
X398422Y311974D01*
X398441Y311891D01*
X398462Y311819D01*
X398487Y311759D01*
X398515Y311710D01*
X397425D01*
X397452Y311759D01*
X397477Y311819D01*
X397498Y311891D01*
X397517Y311974D01*
X397533Y312069D01*
X397556Y312292D01*
X397568Y312561D01*
X397569Y312712D01*
X398370D01*
X398371Y312561D01*
D02*
G37*
G36*
X392465D02*
X392500Y312069D01*
X392516Y311974D01*
X392535Y311891D01*
X392557Y311819D01*
X392582Y311759D01*
X392609Y311710D01*
X391519D01*
X391547Y311759D01*
X391571Y311819D01*
X391593Y311891D01*
X391612Y311974D01*
X391628Y312069D01*
X391651Y312292D01*
X391663Y312561D01*
X391664Y312712D01*
X392464D01*
X392465Y312561D01*
D02*
G37*
G36*
X388672Y311710D02*
X387582D01*
X387591Y311732D01*
X387598Y311774D01*
X387605Y311834D01*
X387620Y312126D01*
X387627Y312777D01*
X388627D01*
X388672Y311710D01*
D02*
G37*
G36*
X416087Y312561D02*
X416122Y312069D01*
X416138Y311974D01*
X416157Y311891D01*
X416179Y311819D01*
X416203Y311759D01*
X416231Y311710D01*
X415141D01*
X415169Y311759D01*
X415193Y311819D01*
X415215Y311891D01*
X415234Y311974D01*
X415250Y312069D01*
X415273Y312292D01*
X415285Y312561D01*
X415286Y312712D01*
X416086D01*
X416087Y312561D01*
D02*
G37*
G36*
X414119D02*
X414154Y312069D01*
X414170Y311974D01*
X414189Y311891D01*
X414210Y311819D01*
X414235Y311759D01*
X414262Y311710D01*
X413173D01*
X413200Y311759D01*
X413225Y311819D01*
X413246Y311891D01*
X413265Y311974D01*
X413281Y312069D01*
X413305Y312292D01*
X413316Y312561D01*
X413318Y312712D01*
X414118D01*
X414119Y312561D01*
D02*
G37*
G36*
X412150D02*
X412185Y312069D01*
X412201Y311974D01*
X412220Y311891D01*
X412242Y311819D01*
X412266Y311759D01*
X412294Y311710D01*
X411204D01*
X411232Y311759D01*
X411256Y311819D01*
X411278Y311891D01*
X411297Y311974D01*
X411313Y312069D01*
X411336Y312292D01*
X411348Y312561D01*
X411349Y312712D01*
X412149D01*
X412150Y312561D01*
D02*
G37*
G36*
X348138Y312602D02*
X348162Y312534D01*
X348203Y312474D01*
X348260Y312422D01*
X348333Y312379D01*
X348422Y312343D01*
X348528Y312315D01*
X348650Y312295D01*
X348788Y312282D01*
X348942Y312279D01*
Y311478D01*
X348788Y311474D01*
X348650Y311462D01*
X348528Y311442D01*
X348422Y311415D01*
X348333Y311379D01*
X348260Y311334D01*
X348203Y311282D01*
X348162Y311223D01*
X348138Y311155D01*
X348130Y311079D01*
Y312679D01*
X348138Y312602D01*
D02*
G37*
G36*
X446602Y311077D02*
X446594Y311154D01*
X446570Y311222D01*
X446529Y311281D01*
X446473Y311333D01*
X446399Y311378D01*
X446310Y311414D01*
X446205Y311441D01*
X446083Y311461D01*
X445945Y311473D01*
X445790Y311477D01*
Y312278D01*
X445945Y312281D01*
X446083Y312294D01*
X446205Y312314D01*
X446310Y312341D01*
X446399Y312378D01*
X446473Y312421D01*
X446529Y312474D01*
X446570Y312533D01*
X446594Y312601D01*
X446602Y312678D01*
Y311077D01*
D02*
G37*
G36*
X324544Y309110D02*
X324536Y309186D01*
X324512Y309254D01*
X324472Y309314D01*
X324416Y309366D01*
X324344Y309410D01*
X324256Y309446D01*
X324152Y309474D01*
X324032Y309494D01*
X323896Y309506D01*
X323744Y309510D01*
Y310310D01*
X323896Y310314D01*
X324032Y310326D01*
X324152Y310346D01*
X324256Y310374D01*
X324344Y310410D01*
X324416Y310454D01*
X324472Y310506D01*
X324512Y310566D01*
X324536Y310634D01*
X324544Y310710D01*
Y309110D01*
D02*
G37*
G36*
X464319Y309109D02*
X464311Y309185D01*
X464286Y309253D01*
X464246Y309313D01*
X464189Y309365D01*
X464116Y309409D01*
X464027Y309445D01*
X463921Y309473D01*
X463799Y309493D01*
X463661Y309505D01*
X463507Y309509D01*
Y310309D01*
X463661Y310313D01*
X463799Y310325D01*
X463921Y310345D01*
X464027Y310373D01*
X464116Y310409D01*
X464189Y310453D01*
X464246Y310505D01*
X464286Y310565D01*
X464311Y310633D01*
X464319Y310709D01*
Y309109D01*
D02*
G37*
G36*
X460919Y310694D02*
X461016Y310613D01*
X461114Y310542D01*
X461215Y310480D01*
X461318Y310428D01*
X461423Y310385D01*
X461531Y310352D01*
X461641Y310328D01*
X461753Y310314D01*
X461867Y310309D01*
Y309509D01*
X461753Y309504D01*
X461641Y309490D01*
X461531Y309466D01*
X461423Y309433D01*
X461318Y309390D01*
X461215Y309338D01*
X461114Y309276D01*
X461016Y309205D01*
X460919Y309124D01*
X460825Y309034D01*
Y310784D01*
X460919Y310694D01*
D02*
G37*
G36*
X380003Y310223D02*
X379964Y310141D01*
X379946Y310053D01*
X379950Y309957D01*
X379975Y309855D01*
X380021Y309745D01*
X380088Y309629D01*
X380176Y309505D01*
X380286Y309374D01*
X380417Y309236D01*
X379710Y308529D01*
X379572Y308660D01*
X379441Y308769D01*
X379317Y308858D01*
X379201Y308925D01*
X379091Y308971D01*
X378988Y308996D01*
X378893Y308999D01*
X378804Y308981D01*
X378723Y308943D01*
X378649Y308882D01*
X380063Y310297D01*
X380003Y310223D01*
D02*
G37*
G36*
X433039Y309025D02*
X433112Y308137D01*
X433156Y307917D01*
X433211Y307735D01*
X433274Y307592D01*
X433348Y307486D01*
X433432Y307418D01*
X433525Y307389D01*
X431542Y307601D01*
X431636Y307607D01*
X431719Y307645D01*
X431793Y307715D01*
X431857Y307817D01*
X431911Y307952D01*
X431955Y308119D01*
X431989Y308318D01*
X432014Y308550D01*
X432034Y309109D01*
X433034Y309397D01*
X433039Y309025D01*
D02*
G37*
G36*
X348138Y308665D02*
X348162Y308597D01*
X348203Y308537D01*
X348260Y308485D01*
X348333Y308441D01*
X348422Y308405D01*
X348528Y308377D01*
X348650Y308357D01*
X348788Y308345D01*
X348942Y308341D01*
Y307541D01*
X348788Y307537D01*
X348650Y307525D01*
X348528Y307505D01*
X348422Y307477D01*
X348333Y307441D01*
X348260Y307397D01*
X348203Y307345D01*
X348162Y307285D01*
X348138Y307217D01*
X348130Y307141D01*
Y308741D01*
X348138Y308665D01*
D02*
G37*
G36*
X446602Y307140D02*
X446594Y307217D01*
X446570Y307284D01*
X446529Y307345D01*
X446473Y307397D01*
X446399Y307440D01*
X446310Y307476D01*
X446205Y307505D01*
X446083Y307524D01*
X445945Y307537D01*
X445790Y307540D01*
Y308341D01*
X445945Y308345D01*
X446083Y308356D01*
X446205Y308377D01*
X446310Y308404D01*
X446399Y308440D01*
X446473Y308485D01*
X446529Y308537D01*
X446570Y308596D01*
X446594Y308664D01*
X446602Y308740D01*
Y307140D01*
D02*
G37*
G36*
X406361Y306878D02*
X406336Y306818D01*
X406315Y306746D01*
X406296Y306663D01*
X406280Y306568D01*
X406257Y306345D01*
X406245Y306076D01*
X406244Y305925D01*
X405444D01*
X405442Y306076D01*
X405407Y306568D01*
X405391Y306663D01*
X405372Y306746D01*
X405351Y306818D01*
X405326Y306878D01*
X405299Y306927D01*
X406389D01*
X406361Y306878D01*
D02*
G37*
G36*
X404392D02*
X404368Y306818D01*
X404346Y306746D01*
X404327Y306663D01*
X404311Y306568D01*
X404288Y306345D01*
X404277Y306076D01*
X404275Y305925D01*
X403475D01*
X403474Y306076D01*
X403439Y306568D01*
X403423Y306663D01*
X403404Y306746D01*
X403382Y306818D01*
X403358Y306878D01*
X403330Y306927D01*
X404420D01*
X404392Y306878D01*
D02*
G37*
G36*
X402424D02*
X402399Y306818D01*
X402378Y306746D01*
X402359Y306663D01*
X402343Y306568D01*
X402320Y306345D01*
X402308Y306076D01*
X402307Y305925D01*
X401507D01*
X401505Y306076D01*
X401470Y306568D01*
X401454Y306663D01*
X401436Y306746D01*
X401414Y306818D01*
X401389Y306878D01*
X401362Y306927D01*
X402452D01*
X402424Y306878D01*
D02*
G37*
G36*
X400456D02*
X400431Y306818D01*
X400409Y306746D01*
X400390Y306663D01*
X400374Y306568D01*
X400351Y306345D01*
X400340Y306076D01*
X400338Y305925D01*
X399538D01*
X399537Y306076D01*
X399502Y306568D01*
X399486Y306663D01*
X399467Y306746D01*
X399445Y306818D01*
X399421Y306878D01*
X399393Y306927D01*
X400483D01*
X400456Y306878D01*
D02*
G37*
G36*
X396518D02*
X396494Y306818D01*
X396472Y306746D01*
X396453Y306663D01*
X396437Y306568D01*
X396414Y306345D01*
X396403Y306076D01*
X396401Y305925D01*
X395601D01*
X395600Y306076D01*
X395565Y306568D01*
X395549Y306663D01*
X395530Y306746D01*
X395508Y306818D01*
X395484Y306878D01*
X395456Y306927D01*
X396546D01*
X396518Y306878D01*
D02*
G37*
G36*
X394550D02*
X394525Y306818D01*
X394504Y306746D01*
X394485Y306663D01*
X394469Y306568D01*
X394446Y306345D01*
X394434Y306076D01*
X394432Y305925D01*
X393633D01*
X393631Y306076D01*
X393596Y306568D01*
X393580Y306663D01*
X393562Y306746D01*
X393540Y306818D01*
X393515Y306878D01*
X393488Y306927D01*
X394578D01*
X394550Y306878D01*
D02*
G37*
G36*
X418172Y306878D02*
X418147Y306818D01*
X418126Y306746D01*
X418107Y306663D01*
X418091Y306568D01*
X418068Y306345D01*
X418056Y306076D01*
X418055Y305925D01*
X417255D01*
X417253Y306076D01*
X417218Y306568D01*
X417202Y306663D01*
X417183Y306746D01*
X417162Y306818D01*
X417137Y306878D01*
X417110Y306927D01*
X418199D01*
X418172Y306878D01*
D02*
G37*
G36*
X416203D02*
X416179Y306818D01*
X416157Y306746D01*
X416138Y306663D01*
X416122Y306568D01*
X416099Y306345D01*
X416087Y306076D01*
X416086Y305925D01*
X415286D01*
X415285Y306076D01*
X415250Y306568D01*
X415234Y306663D01*
X415215Y306746D01*
X415193Y306818D01*
X415169Y306878D01*
X415141Y306927D01*
X416231D01*
X416203Y306878D01*
D02*
G37*
G36*
X412266D02*
X412242Y306818D01*
X412220Y306746D01*
X412201Y306663D01*
X412185Y306568D01*
X412162Y306345D01*
X412150Y306076D01*
X412149Y305925D01*
X411349D01*
X411348Y306076D01*
X411313Y306568D01*
X411297Y306663D01*
X411278Y306746D01*
X411256Y306818D01*
X411232Y306878D01*
X411204Y306927D01*
X412294D01*
X412266Y306878D01*
D02*
G37*
G36*
X390632Y306905D02*
X390624Y306863D01*
X390618Y306803D01*
X390603Y306511D01*
X390596Y305860D01*
X389596D01*
X389551Y306927D01*
X390640D01*
X390632Y306905D01*
D02*
G37*
G36*
X324544Y305173D02*
X324536Y305249D01*
X324512Y305317D01*
X324472Y305377D01*
X324416Y305429D01*
X324344Y305473D01*
X324256Y305509D01*
X324152Y305537D01*
X324032Y305557D01*
X323896Y305569D01*
X323744Y305573D01*
Y306373D01*
X323896Y306377D01*
X324032Y306389D01*
X324152Y306409D01*
X324256Y306437D01*
X324344Y306473D01*
X324416Y306517D01*
X324472Y306569D01*
X324512Y306629D01*
X324536Y306697D01*
X324544Y306773D01*
Y305173D01*
D02*
G37*
G36*
X464319Y305172D02*
X464311Y305248D01*
X464286Y305316D01*
X464246Y305376D01*
X464189Y305428D01*
X464116Y305472D01*
X464027Y305508D01*
X463921Y305536D01*
X463799Y305556D01*
X463661Y305568D01*
X463507Y305572D01*
Y306372D01*
X463661Y306376D01*
X463799Y306388D01*
X463921Y306408D01*
X464027Y306436D01*
X464116Y306472D01*
X464189Y306516D01*
X464246Y306568D01*
X464286Y306628D01*
X464311Y306696D01*
X464319Y306772D01*
Y305172D01*
D02*
G37*
G36*
X460919Y306757D02*
X461016Y306676D01*
X461114Y306605D01*
X461215Y306543D01*
X461318Y306491D01*
X461423Y306448D01*
X461531Y306415D01*
X461641Y306391D01*
X461753Y306377D01*
X461867Y306372D01*
Y305572D01*
X461753Y305567D01*
X461641Y305553D01*
X461531Y305529D01*
X461423Y305496D01*
X461318Y305453D01*
X461215Y305401D01*
X461114Y305339D01*
X461016Y305268D01*
X460919Y305187D01*
X460825Y305097D01*
Y306847D01*
X460919Y306757D01*
D02*
G37*
G36*
X348138Y304728D02*
X348162Y304660D01*
X348203Y304600D01*
X348260Y304548D01*
X348333Y304504D01*
X348422Y304468D01*
X348528Y304440D01*
X348650Y304420D01*
X348788Y304408D01*
X348942Y304404D01*
Y303604D01*
X348788Y303600D01*
X348650Y303588D01*
X348528Y303568D01*
X348422Y303540D01*
X348333Y303504D01*
X348260Y303460D01*
X348203Y303408D01*
X348162Y303348D01*
X348138Y303280D01*
X348130Y303204D01*
Y304804D01*
X348138Y304728D01*
D02*
G37*
G36*
X340588Y304789D02*
X340685Y304708D01*
X340783Y304637D01*
X340884Y304575D01*
X340987Y304523D01*
X341092Y304480D01*
X341200Y304447D01*
X341309Y304423D01*
X341421Y304409D01*
X341506Y304406D01*
X341612Y304408D01*
X341748Y304420D01*
X341868Y304440D01*
X341972Y304468D01*
X342060Y304504D01*
X342132Y304548D01*
X342188Y304600D01*
X342228Y304660D01*
X342252Y304728D01*
X342260Y304804D01*
Y303204D01*
X342252Y303280D01*
X342228Y303348D01*
X342188Y303408D01*
X342132Y303460D01*
X342060Y303504D01*
X341972Y303540D01*
X341868Y303568D01*
X341748Y303588D01*
X341612Y303600D01*
X341506Y303603D01*
X341421Y303600D01*
X341309Y303585D01*
X341200Y303562D01*
X341092Y303528D01*
X340987Y303486D01*
X340884Y303433D01*
X340783Y303372D01*
X340685Y303300D01*
X340588Y303220D01*
X340494Y303129D01*
Y304879D01*
X340588Y304789D01*
D02*
G37*
G36*
X324544Y300867D02*
X324537Y300893D01*
X324517Y300917D01*
X324484Y300938D01*
X324438Y300956D01*
X324379Y300972D01*
X324306Y300984D01*
X324220Y300994D01*
X324008Y301005D01*
X323883Y301007D01*
Y301807D01*
X324008Y301810D01*
X324220Y301830D01*
X324306Y301849D01*
X324379Y301872D01*
X324438Y301901D01*
X324484Y301935D01*
X324517Y301974D01*
X324537Y302018D01*
X324544Y302068D01*
Y300867D01*
D02*
G37*
G36*
X348138Y300791D02*
X348162Y300723D01*
X348203Y300663D01*
X348260Y300611D01*
X348333Y300567D01*
X348422Y300531D01*
X348528Y300503D01*
X348650Y300483D01*
X348788Y300471D01*
X348942Y300467D01*
Y299667D01*
X348788Y299663D01*
X348650Y299651D01*
X348528Y299631D01*
X348422Y299603D01*
X348333Y299567D01*
X348260Y299523D01*
X348203Y299471D01*
X348162Y299411D01*
X348138Y299343D01*
X348130Y299267D01*
Y300867D01*
X348138Y300791D01*
D02*
G37*
G36*
X340588Y300852D02*
X340685Y300771D01*
X340783Y300700D01*
X340884Y300638D01*
X340987Y300586D01*
X341092Y300543D01*
X341200Y300510D01*
X341309Y300486D01*
X341421Y300472D01*
X341506Y300469D01*
X341612Y300471D01*
X341748Y300483D01*
X341868Y300503D01*
X341972Y300531D01*
X342060Y300567D01*
X342132Y300611D01*
X342188Y300663D01*
X342228Y300723D01*
X342252Y300791D01*
X342260Y300867D01*
Y299267D01*
X342252Y299343D01*
X342228Y299411D01*
X342188Y299471D01*
X342132Y299523D01*
X342060Y299567D01*
X341972Y299603D01*
X341868Y299631D01*
X341748Y299651D01*
X341612Y299663D01*
X341506Y299666D01*
X341421Y299663D01*
X341309Y299648D01*
X341200Y299625D01*
X341092Y299591D01*
X340987Y299549D01*
X340884Y299496D01*
X340783Y299435D01*
X340685Y299363D01*
X340588Y299283D01*
X340494Y299192D01*
Y300942D01*
X340588Y300852D01*
D02*
G37*
G36*
X330421Y298823D02*
X330446Y298755D01*
X330486Y298695D01*
X330543Y298643D01*
X330616Y298599D01*
X330706Y298563D01*
X330811Y298535D01*
X330933Y298515D01*
X331071Y298503D01*
X331225Y298499D01*
Y297699D01*
X331071Y297695D01*
X330933Y297683D01*
X330811Y297663D01*
X330706Y297635D01*
X330616Y297599D01*
X330543Y297555D01*
X330486Y297503D01*
X330446Y297443D01*
X330421Y297375D01*
X330413Y297299D01*
Y298899D01*
X330421Y298823D01*
D02*
G37*
G36*
X411602Y295418D02*
X411559Y295471D01*
X411509Y295518D01*
X411449Y295560D01*
X411381Y295596D01*
X411305Y295627D01*
X411220Y295652D01*
X411127Y295672D01*
X411025Y295686D01*
X410915Y295694D01*
X410797Y295697D01*
Y296497D01*
X410912Y296500D01*
X411018Y296508D01*
X411116Y296523D01*
X411206Y296543D01*
X411287Y296569D01*
X411361Y296601D01*
X411425Y296638D01*
X411482Y296681D01*
X411530Y296730D01*
X411570Y296785D01*
X411602Y295418D01*
D02*
G37*
G36*
X348138Y296854D02*
X348162Y296786D01*
X348203Y296726D01*
X348260Y296674D01*
X348333Y296631D01*
X348422Y296595D01*
X348528Y296566D01*
X348650Y296547D01*
X348788Y296534D01*
X348942Y296531D01*
Y295730D01*
X348788Y295726D01*
X348650Y295714D01*
X348528Y295694D01*
X348422Y295666D01*
X348333Y295631D01*
X348260Y295586D01*
X348203Y295534D01*
X348162Y295474D01*
X348138Y295406D01*
X348130Y295331D01*
Y296931D01*
X348138Y296854D01*
D02*
G37*
G36*
X330421Y294886D02*
X330446Y294818D01*
X330486Y294758D01*
X330543Y294706D01*
X330616Y294662D01*
X330706Y294626D01*
X330811Y294598D01*
X330933Y294578D01*
X331071Y294566D01*
X331225Y294562D01*
Y293762D01*
X331071Y293758D01*
X330933Y293746D01*
X330811Y293726D01*
X330706Y293698D01*
X330616Y293662D01*
X330543Y293618D01*
X330486Y293566D01*
X330446Y293506D01*
X330421Y293438D01*
X330413Y293362D01*
Y294962D01*
X330421Y294886D01*
D02*
G37*
G36*
X420097Y293528D02*
X420131Y293048D01*
X420152Y292912D01*
X420207Y292677D01*
X420242Y292578D01*
X420281Y292491D01*
X420325Y292416D01*
X418864D01*
X418908Y292491D01*
X418947Y292578D01*
X418982Y292677D01*
X419012Y292789D01*
X419037Y292912D01*
X419074Y293196D01*
X419085Y293356D01*
X419095Y293712D01*
X420094D01*
X420097Y293528D01*
D02*
G37*
G36*
X408974Y293447D02*
X409001Y293193D01*
X409024Y293072D01*
X409054Y292954D01*
X409090Y292839D01*
X409133Y292728D01*
X409182Y292621D01*
X409238Y292517D01*
X409301Y292416D01*
X407840D01*
X407903Y292517D01*
X407959Y292621D01*
X408009Y292728D01*
X408052Y292839D01*
X408088Y292954D01*
X408118Y293072D01*
X408141Y293193D01*
X408158Y293318D01*
X408168Y293447D01*
X408171Y293579D01*
X408971D01*
X408974Y293447D01*
D02*
G37*
G36*
X406218D02*
X406245Y293193D01*
X406268Y293072D01*
X406298Y292954D01*
X406334Y292839D01*
X406377Y292728D01*
X406426Y292621D01*
X406483Y292517D01*
X406545Y292416D01*
X405085D01*
X405147Y292517D01*
X405203Y292621D01*
X405253Y292728D01*
X405296Y292839D01*
X405332Y292954D01*
X405362Y293072D01*
X405385Y293193D01*
X405402Y293318D01*
X405412Y293447D01*
X405415Y293579D01*
X406215D01*
X406218Y293447D01*
D02*
G37*
G36*
X403462D02*
X403489Y293193D01*
X403512Y293072D01*
X403542Y292954D01*
X403578Y292839D01*
X403621Y292728D01*
X403671Y292621D01*
X403727Y292517D01*
X403790Y292416D01*
X402329D01*
X402391Y292517D01*
X402448Y292621D01*
X402497Y292728D01*
X402540Y292839D01*
X402576Y292954D01*
X402606Y293072D01*
X402629Y293193D01*
X402646Y293318D01*
X402656Y293447D01*
X402659Y293579D01*
X403459D01*
X403462Y293447D01*
D02*
G37*
G36*
X400706D02*
X400733Y293193D01*
X400756Y293072D01*
X400786Y292954D01*
X400822Y292839D01*
X400865Y292728D01*
X400915Y292621D01*
X400971Y292517D01*
X401034Y292416D01*
X399573D01*
X399636Y292517D01*
X399692Y292621D01*
X399741Y292728D01*
X399784Y292839D01*
X399821Y292954D01*
X399850Y293072D01*
X399873Y293193D01*
X399890Y293318D01*
X399900Y293447D01*
X399903Y293579D01*
X400703D01*
X400706Y293447D01*
D02*
G37*
G36*
X337379Y288135D02*
Y285971D01*
X336878Y285588D01*
X336797Y285609D01*
X335888D01*
X335009Y285374D01*
X334221Y284919D01*
X333577Y284276D01*
X333122Y283488D01*
X332887Y282609D01*
Y281699D01*
X333122Y280820D01*
X333577Y280032D01*
X334088Y279520D01*
X333902Y279020D01*
X328650D01*
Y275568D01*
X336343D01*
X344036D01*
Y279020D01*
X338784D01*
X338597Y279520D01*
X339108Y280032D01*
X339563Y280820D01*
X339798Y281699D01*
Y281908D01*
X340298Y282116D01*
X340507Y281907D01*
X340507Y281907D01*
X340871Y281664D01*
X341300Y281578D01*
X341300Y281578D01*
X356718D01*
X356909Y281117D01*
X346414Y270621D01*
X344052D01*
X344036Y271115D01*
X344036D01*
Y274568D01*
X336343D01*
X328650D01*
Y271115D01*
X328650D01*
X328634Y270621D01*
X325465D01*
X324221Y271865D01*
Y288344D01*
X331137D01*
Y292106D01*
X331137D01*
Y292281D01*
X331137D01*
Y293040D01*
X332473D01*
X337379Y288135D01*
D02*
G37*
G36*
X423037Y285437D02*
X422998Y285349D01*
X422963Y285250D01*
X422933Y285139D01*
X422908Y285015D01*
X422871Y284732D01*
X422860Y284572D01*
X422850Y284216D01*
X421850D01*
X421848Y284400D01*
X421813Y284880D01*
X421793Y285015D01*
X421737Y285250D01*
X421703Y285349D01*
X421664Y285437D01*
X421620Y285512D01*
X423081D01*
X423037Y285437D01*
D02*
G37*
G36*
X420281D02*
X420242Y285349D01*
X420207Y285250D01*
X420178Y285139D01*
X420152Y285015D01*
X420115Y284732D01*
X420104Y284572D01*
X420094Y284216D01*
X419095D01*
X419092Y284400D01*
X419058Y284880D01*
X419037Y285015D01*
X418982Y285250D01*
X418947Y285349D01*
X418908Y285437D01*
X418864Y285512D01*
X420325D01*
X420281Y285437D01*
D02*
G37*
G36*
X417525D02*
X417486Y285349D01*
X417451Y285250D01*
X417422Y285139D01*
X417396Y285015D01*
X417359Y284732D01*
X417348Y284572D01*
X417339Y284216D01*
X416339D01*
X416336Y284400D01*
X416302Y284880D01*
X416281Y285015D01*
X416226Y285250D01*
X416191Y285349D01*
X416152Y285437D01*
X416108Y285512D01*
X417569D01*
X417525Y285437D01*
D02*
G37*
G36*
X398234D02*
X398195Y285349D01*
X398160Y285250D01*
X398130Y285139D01*
X398105Y285015D01*
X398068Y284732D01*
X398057Y284572D01*
X398047Y284216D01*
X397047D01*
X397045Y284400D01*
X397010Y284880D01*
X396990Y285015D01*
X396934Y285250D01*
X396900Y285349D01*
X396861Y285437D01*
X396817Y285512D01*
X398278D01*
X398234Y285437D01*
D02*
G37*
G36*
X434839Y279126D02*
X434829Y279221D01*
X434799Y279306D01*
X434749Y279381D01*
X434679Y279446D01*
X434589Y279501D01*
X434479Y279546D01*
X434349Y279581D01*
X434199Y279606D01*
X434029Y279621D01*
X433839Y279626D01*
Y280626D01*
X434029Y280631D01*
X434199Y280646D01*
X434349Y280671D01*
X434479Y280706D01*
X434589Y280751D01*
X434679Y280806D01*
X434749Y280871D01*
X434799Y280946D01*
X434829Y281031D01*
X434839Y281126D01*
Y279126D01*
D02*
G37*
G36*
X417346Y282024D02*
X417367Y281875D01*
X417402Y281761D01*
X417452Y281680D01*
X417515Y281634D01*
X417593Y281622D01*
X417685Y281644D01*
X417791Y281700D01*
X417911Y281790D01*
X418046Y281914D01*
Y280500D01*
X417911Y280356D01*
X417791Y280205D01*
X417685Y280049D01*
X417593Y279887D01*
X417515Y279720D01*
X417452Y279546D01*
X417402Y279366D01*
X417367Y279181D01*
X417346Y278990D01*
X417339Y278793D01*
X416339Y280000D01*
X417339Y282207D01*
X417346Y282024D01*
D02*
G37*
G36*
X381248Y280505D02*
X381278Y280420D01*
X381328Y280345D01*
X381398Y280280D01*
X381488Y280225D01*
X381598Y280180D01*
X381728Y280145D01*
X381878Y280120D01*
X382048Y280105D01*
X382238Y280100D01*
Y279100D01*
X382048Y279095D01*
X381878Y279080D01*
X381728Y279055D01*
X381598Y279020D01*
X381488Y278975D01*
X381398Y278920D01*
X381328Y278855D01*
X381278Y278780D01*
X381248Y278695D01*
X381238Y278600D01*
Y280600D01*
X381248Y280505D01*
D02*
G37*
G36*
X380405Y277714D02*
X380320Y277683D01*
X380245Y277633D01*
X380180Y277562D01*
X380125Y277471D01*
X380080Y277360D01*
X380045Y277228D01*
X380020Y277076D01*
X380005Y276904D01*
X380000Y276712D01*
X379000D01*
X378995Y276904D01*
X378980Y277076D01*
X378955Y277228D01*
X378920Y277360D01*
X378875Y277471D01*
X378820Y277562D01*
X378755Y277633D01*
X378680Y277683D01*
X378595Y277714D01*
X378500Y277724D01*
X380500D01*
X380405Y277714D01*
D02*
G37*
G36*
X380005Y274764D02*
X380020Y274592D01*
X380045Y274440D01*
X380080Y274309D01*
X380125Y274198D01*
X380180Y274106D01*
X380245Y274036D01*
X380320Y273985D01*
X380405Y273955D01*
X380500Y273944D01*
X378500D01*
X378595Y273955D01*
X378680Y273985D01*
X378755Y274036D01*
X378820Y274106D01*
X378875Y274198D01*
X378920Y274309D01*
X378955Y274440D01*
X378980Y274592D01*
X378995Y274764D01*
X379000Y274956D01*
X380000D01*
X380005Y274764D01*
D02*
G37*
G36*
X378048Y271000D02*
X378038Y271095D01*
X378007Y271180D01*
X377957Y271255D01*
X377886Y271320D01*
X377795Y271375D01*
X377683Y271420D01*
X377552Y271455D01*
X377400Y271480D01*
X377228Y271495D01*
X377036Y271500D01*
Y272500D01*
X377228Y272505D01*
X377400Y272520D01*
X377552Y272545D01*
X377683Y272580D01*
X377795Y272625D01*
X377886Y272680D01*
X377957Y272745D01*
X378007Y272820D01*
X378038Y272905D01*
X378048Y273000D01*
Y271000D01*
D02*
G37*
G36*
X373368Y269661D02*
X373165Y269451D01*
X372845Y269076D01*
X372730Y268911D01*
X372643Y268762D01*
X372586Y268628D01*
X372558Y268510D01*
X372559Y268407D01*
X372589Y268319D01*
X372649Y268247D01*
X371149Y269551D01*
X371233Y269503D01*
X371338Y269490D01*
X371464Y269512D01*
X371610Y269567D01*
X371777Y269657D01*
X371964Y269782D01*
X372171Y269941D01*
X372647Y270361D01*
X372916Y270623D01*
X373368Y269661D01*
D02*
G37*
G36*
X339987Y264785D02*
X340083Y264704D01*
X340182Y264633D01*
X340283Y264571D01*
X340386Y264519D01*
X340491Y264476D01*
X340599Y264443D01*
X340708Y264419D01*
X340820Y264405D01*
X340934Y264400D01*
Y263600D01*
X340820Y263595D01*
X340708Y263581D01*
X340599Y263557D01*
X340491Y263524D01*
X340386Y263481D01*
X340283Y263429D01*
X340182Y263367D01*
X340083Y263296D01*
X339987Y263215D01*
X339893Y263125D01*
Y264875D01*
X339987Y264785D01*
D02*
G37*
G36*
X372589Y261933D02*
X372559Y261845D01*
X372558Y261742D01*
X372586Y261624D01*
X372643Y261490D01*
X372730Y261341D01*
X372845Y261176D01*
X372990Y260996D01*
X373368Y260591D01*
X372563Y259982D01*
X372361Y260177D01*
X371998Y260485D01*
X371836Y260597D01*
X371688Y260683D01*
X371553Y260741D01*
X371432Y260772D01*
X371324Y260776D01*
X371230Y260752D01*
X371149Y260701D01*
X372649Y262005D01*
X372589Y261933D01*
D02*
G37*
G36*
X417349Y259137D02*
X417379Y258967D01*
X417429Y258817D01*
X417499Y258687D01*
X417589Y258577D01*
X417699Y258487D01*
X417829Y258417D01*
X417979Y258367D01*
X418149Y258337D01*
X418339Y258327D01*
X416839Y257327D01*
X415339Y258327D01*
X415529Y258337D01*
X415699Y258367D01*
X415849Y258417D01*
X415979Y258487D01*
X416089Y258577D01*
X416179Y258687D01*
X416249Y258817D01*
X416299Y258967D01*
X416329Y259137D01*
X416339Y259327D01*
X417339D01*
X417349Y259137D01*
D02*
G37*
G36*
X457575Y256827D02*
X457565Y256922D01*
X457535Y257007D01*
X457484Y257082D01*
X457413Y257147D01*
X457322Y257202D01*
X457211Y257247D01*
X457079Y257282D01*
X456927Y257307D01*
X456755Y257322D01*
X456563Y257327D01*
Y258327D01*
X456755Y258332D01*
X456927Y258347D01*
X457079Y258372D01*
X457211Y258407D01*
X457322Y258452D01*
X457413Y258507D01*
X457484Y258572D01*
X457535Y258647D01*
X457565Y258732D01*
X457575Y258827D01*
Y256827D01*
D02*
G37*
G36*
X380974Y258732D02*
X381004Y258647D01*
X381054Y258572D01*
X381124Y258507D01*
X381214Y258452D01*
X381324Y258407D01*
X381454Y258372D01*
X381604Y258347D01*
X381774Y258332D01*
X381964Y258327D01*
Y257327D01*
X381774Y257322D01*
X381604Y257307D01*
X381454Y257282D01*
X381324Y257247D01*
X381214Y257202D01*
X381124Y257147D01*
X381054Y257082D01*
X381004Y257007D01*
X380974Y256922D01*
X380964Y256827D01*
Y258827D01*
X380974Y258732D01*
D02*
G37*
G36*
X378048Y256827D02*
X378038Y256922D01*
X378007Y257007D01*
X377957Y257082D01*
X377886Y257147D01*
X377795Y257202D01*
X377683Y257247D01*
X377552Y257282D01*
X377400Y257307D01*
X377228Y257322D01*
X377036Y257327D01*
Y258327D01*
X377228Y258332D01*
X377400Y258347D01*
X377552Y258372D01*
X377683Y258407D01*
X377795Y258452D01*
X377886Y258507D01*
X377957Y258572D01*
X378007Y258647D01*
X378038Y258732D01*
X378048Y258827D01*
Y256827D01*
D02*
G37*
%LPC*%
G36*
X431600Y399528D02*
Y397800D01*
X433328D01*
X433007Y398574D01*
X432374Y399207D01*
X431600Y399528D01*
D02*
G37*
G36*
X430600D02*
X429825Y399207D01*
X429192Y398574D01*
X428872Y397800D01*
X430600D01*
Y399528D01*
D02*
G37*
G36*
X433328Y396800D02*
X431600D01*
Y395072D01*
X432374Y395392D01*
X433007Y396025D01*
X433328Y396800D01*
D02*
G37*
G36*
X430600D02*
X428872D01*
X429192Y396025D01*
X429825Y395392D01*
X430600Y395072D01*
Y396800D01*
D02*
G37*
G36*
X361020Y399256D02*
Y394858D01*
X363909D01*
Y395933D01*
X363793Y396810D01*
X363455Y397628D01*
X362916Y398330D01*
X362214Y398868D01*
X361397Y399207D01*
X361020Y399256D01*
D02*
G37*
G36*
X360020D02*
X359643Y399207D01*
X358825Y398868D01*
X358124Y398330D01*
X357585Y397628D01*
X357246Y396810D01*
X357131Y395933D01*
Y394858D01*
X360020D01*
Y399256D01*
D02*
G37*
G36*
X327000D02*
Y394858D01*
X329889D01*
Y395933D01*
X329773Y396810D01*
X329435Y397628D01*
X328896Y398330D01*
X328194Y398868D01*
X327377Y399207D01*
X327000Y399256D01*
D02*
G37*
G36*
X326000D02*
X325623Y399207D01*
X324805Y398868D01*
X324104Y398330D01*
X323565Y397628D01*
X323226Y396810D01*
X323111Y395933D01*
Y394858D01*
X326000D01*
Y399256D01*
D02*
G37*
G36*
X363909Y393858D02*
X357131D01*
Y392783D01*
X357246Y391906D01*
X357585Y391089D01*
X357887Y390696D01*
X357645Y390205D01*
X357180Y390239D01*
X357139Y390260D01*
X357092Y390287D01*
X357044Y390322D01*
X356993Y390364D01*
X356924Y390430D01*
X356872Y390463D01*
X356650Y390685D01*
X355952Y390974D01*
X355196D01*
X354498Y390685D01*
X353963Y390150D01*
X353674Y389452D01*
Y388696D01*
X353963Y387998D01*
X354498Y387463D01*
X355196Y387174D01*
X355952D01*
X356650Y387463D01*
X356872Y387685D01*
X356924Y387718D01*
X356993Y387784D01*
X357044Y387826D01*
X357092Y387860D01*
X357139Y387888D01*
X357184Y387911D01*
X357229Y387928D01*
X357274Y387942D01*
X357321Y387951D01*
X357329Y387952D01*
X365127D01*
Y386799D01*
X369873D01*
Y391349D01*
X365127D01*
Y390196D01*
X363400D01*
X363153Y390696D01*
X363455Y391089D01*
X363793Y391906D01*
X363909Y392783D01*
Y393858D01*
D02*
G37*
G36*
X329889D02*
X327000D01*
Y389460D01*
X327377Y389510D01*
X328194Y389848D01*
X328896Y390387D01*
X329435Y391089D01*
X329773Y391906D01*
X329889Y392783D01*
Y393858D01*
D02*
G37*
G36*
X326000D02*
X323111D01*
Y392783D01*
X323226Y391906D01*
X323565Y391089D01*
X324104Y390387D01*
X324805Y389848D01*
X325623Y389510D01*
X326000Y389460D01*
Y393858D01*
D02*
G37*
G36*
X419910Y389282D02*
Y387500D01*
X421692D01*
X421360Y388303D01*
X420713Y388950D01*
X419910Y389282D01*
D02*
G37*
G36*
X418910D02*
X418107Y388950D01*
X417460Y388303D01*
X417128Y387500D01*
X418910D01*
Y389282D01*
D02*
G37*
G36*
X421692Y386500D02*
X419910D01*
Y384718D01*
X420713Y385050D01*
X421360Y385697D01*
X421692Y386500D01*
D02*
G37*
G36*
X418910D02*
X417128D01*
X417460Y385697D01*
X418107Y385050D01*
X418910Y384718D01*
Y386500D01*
D02*
G37*
G36*
X370173Y385901D02*
X368000D01*
Y383826D01*
X370173D01*
Y385901D01*
D02*
G37*
G36*
X367000D02*
X364827D01*
Y383826D01*
X367000D01*
Y385901D01*
D02*
G37*
G36*
X435778Y383427D02*
X434392D01*
Y380958D01*
X435778D01*
Y383427D01*
D02*
G37*
G36*
X370173Y382826D02*
X368000D01*
Y380751D01*
X370173D01*
Y382826D01*
D02*
G37*
G36*
X367000D02*
X364827D01*
Y380751D01*
X367000D01*
Y382826D01*
D02*
G37*
G36*
X361020Y383521D02*
Y378528D01*
X363909D01*
Y380198D01*
X363793Y381075D01*
X363455Y381893D01*
X362916Y382595D01*
X362214Y383133D01*
X361397Y383472D01*
X361020Y383521D01*
D02*
G37*
G36*
X326000D02*
X325623Y383472D01*
X324805Y383133D01*
X324104Y382595D01*
X323565Y381893D01*
X323226Y381075D01*
X323111Y380198D01*
Y378528D01*
X326000D01*
Y383521D01*
D02*
G37*
G36*
X435778Y379958D02*
X434392D01*
Y377490D01*
X435778D01*
Y379958D01*
D02*
G37*
G36*
X405072Y376714D02*
X402210D01*
Y374245D01*
X405072D01*
Y376714D01*
D02*
G37*
G36*
X401210D02*
X398347D01*
Y374245D01*
X401210D01*
Y376714D01*
D02*
G37*
G36*
X411476Y376071D02*
X409226D01*
Y373671D01*
X411476D01*
Y376071D01*
D02*
G37*
G36*
X408225D02*
X405975D01*
Y373671D01*
X408225D01*
Y376071D01*
D02*
G37*
G36*
X363909Y377528D02*
X361020D01*
Y372535D01*
X361397Y372585D01*
X362214Y372923D01*
X362916Y373462D01*
X363455Y374164D01*
X363793Y374981D01*
X363909Y375858D01*
Y377528D01*
D02*
G37*
G36*
X326000D02*
X323111D01*
Y375858D01*
X323226Y374981D01*
X323565Y374164D01*
X324104Y373462D01*
X324805Y372923D01*
X325623Y372585D01*
X326000Y372535D01*
Y377528D01*
D02*
G37*
G36*
X375000Y373228D02*
Y371500D01*
X376728D01*
X376408Y372274D01*
X375775Y372907D01*
X375000Y373228D01*
D02*
G37*
G36*
X374000D02*
X373225Y372907D01*
X372592Y372274D01*
X372272Y371500D01*
X374000D01*
Y373228D01*
D02*
G37*
G36*
X405072Y373245D02*
X402210D01*
Y370777D01*
X405072D01*
Y373245D01*
D02*
G37*
G36*
X401210D02*
X398347D01*
Y370777D01*
X401210D01*
Y373245D01*
D02*
G37*
G36*
X411476Y372671D02*
X409226D01*
Y370271D01*
X411476D01*
Y372671D01*
D02*
G37*
G36*
X408225D02*
X405975D01*
Y370271D01*
X408225D01*
Y372671D01*
D02*
G37*
G36*
X323000Y372142D02*
Y369673D01*
X324976D01*
Y372142D01*
X323000D01*
D02*
G37*
G36*
X376728Y370500D02*
X375000D01*
Y368772D01*
X375775Y369092D01*
X376408Y369725D01*
X376728Y370500D01*
D02*
G37*
G36*
X374000D02*
X372272D01*
X372592Y369725D01*
X373225Y369092D01*
X374000Y368772D01*
Y370500D01*
D02*
G37*
G36*
X358681Y369426D02*
X356606D01*
Y367253D01*
X358681D01*
Y369426D01*
D02*
G37*
G36*
X355606D02*
X353531D01*
Y367253D01*
X355606D01*
Y369426D01*
D02*
G37*
G36*
X387750Y369500D02*
X385500D01*
Y367100D01*
X387750D01*
Y369500D01*
D02*
G37*
G36*
X384500D02*
X382250D01*
Y367100D01*
X384500D01*
Y369500D01*
D02*
G37*
G36*
X391761Y368840D02*
X388899D01*
Y366371D01*
X391761D01*
Y368840D01*
D02*
G37*
G36*
X324976Y368673D02*
X323000D01*
Y366205D01*
X324976D01*
Y368673D01*
D02*
G37*
G36*
X358681Y366253D02*
X356606D01*
Y364079D01*
X358681D01*
Y366253D01*
D02*
G37*
G36*
X355606D02*
X353531D01*
Y364079D01*
X355606D01*
Y366253D01*
D02*
G37*
G36*
X370315Y366674D02*
X368724Y365083D01*
X370421Y363386D01*
X372012Y364977D01*
X370315Y366674D01*
D02*
G37*
G36*
X368017Y364376D02*
X366426Y362785D01*
X368123Y361088D01*
X369714Y362679D01*
X368017Y364376D01*
D02*
G37*
G36*
X358823Y363173D02*
X356748D01*
Y361000D01*
X358823D01*
Y363173D01*
D02*
G37*
G36*
X355748D02*
X353673D01*
Y361000D01*
X355748D01*
Y363173D01*
D02*
G37*
G36*
X363500Y359728D02*
Y358000D01*
X365228D01*
X364908Y358774D01*
X364275Y359407D01*
X363500Y359728D01*
D02*
G37*
G36*
X362500D02*
X361725Y359407D01*
X361092Y358774D01*
X360772Y358000D01*
X362500D01*
Y359728D01*
D02*
G37*
G36*
X358823Y360000D02*
X356748D01*
Y357827D01*
X358823D01*
Y360000D01*
D02*
G37*
G36*
X355748D02*
X353673D01*
Y357827D01*
X355748D01*
Y360000D01*
D02*
G37*
G36*
X365228Y357000D02*
X363500D01*
Y355272D01*
X364275Y355592D01*
X364908Y356225D01*
X365228Y357000D01*
D02*
G37*
G36*
X362500D02*
X360772D01*
X361092Y356225D01*
X361725Y355592D01*
X362500Y355272D01*
Y357000D01*
D02*
G37*
G36*
X359700Y356450D02*
X357300D01*
Y354200D01*
X359700D01*
Y356450D01*
D02*
G37*
G36*
X356300D02*
X353900D01*
Y354200D01*
X356300D01*
Y356450D01*
D02*
G37*
G36*
X359700Y353200D02*
X357300D01*
Y350950D01*
X359700D01*
Y353200D01*
D02*
G37*
G36*
X356300D02*
X353900D01*
Y350950D01*
X356300D01*
Y353200D01*
D02*
G37*
G36*
X344036Y360001D02*
X336343D01*
X328650D01*
Y356548D01*
X333904D01*
X334089Y356048D01*
X333577Y355536D01*
X333122Y354748D01*
X332887Y353869D01*
Y352959D01*
X333122Y352080D01*
X333577Y351292D01*
X334221Y350648D01*
X335009Y350193D01*
X335888Y349958D01*
X336797D01*
X337677Y350193D01*
X338464Y350648D01*
X339108Y351292D01*
X339563Y352080D01*
X339798Y352959D01*
Y353869D01*
X339563Y354748D01*
X339108Y355536D01*
X338596Y356048D01*
X338781Y356548D01*
X344036D01*
Y360001D01*
D02*
G37*
%LPD*%
G36*
X365851Y388274D02*
X365843Y388350D01*
X365818Y388418D01*
X365778Y388478D01*
X365721Y388530D01*
X365648Y388574D01*
X365559Y388610D01*
X365453Y388638D01*
X365331Y388658D01*
X365193Y388670D01*
X365039Y388674D01*
Y389474D01*
X365193Y389478D01*
X365331Y389490D01*
X365453Y389510D01*
X365559Y389538D01*
X365648Y389574D01*
X365721Y389618D01*
X365778Y389670D01*
X365818Y389730D01*
X365843Y389798D01*
X365851Y389874D01*
Y388274D01*
D02*
G37*
G36*
X356519Y389830D02*
X356609Y389756D01*
X356702Y389690D01*
X356797Y389632D01*
X356895Y389584D01*
X356996Y389544D01*
X357099Y389514D01*
X357205Y389492D01*
X357314Y389478D01*
X357425Y389474D01*
Y388674D01*
X357314Y388670D01*
X357205Y388656D01*
X357099Y388634D01*
X356996Y388604D01*
X356895Y388564D01*
X356797Y388516D01*
X356702Y388458D01*
X356609Y388392D01*
X356519Y388318D01*
X356431Y388234D01*
Y389914D01*
X356519Y389830D01*
D02*
G37*
%LPC*%
G36*
X436000Y373250D02*
X433600D01*
Y371000D01*
X436000D01*
Y373250D01*
D02*
G37*
G36*
X432600D02*
X430200D01*
Y371000D01*
X432600D01*
Y373250D01*
D02*
G37*
G36*
X436000Y370000D02*
X433600D01*
Y367750D01*
X436000D01*
Y370000D01*
D02*
G37*
G36*
X432600D02*
X430200D01*
Y367750D01*
X432600D01*
Y370000D01*
D02*
G37*
G36*
X441949Y365673D02*
X439874D01*
Y363500D01*
X441949D01*
Y365673D01*
D02*
G37*
G36*
X438874D02*
X436799D01*
Y363500D01*
X438874D01*
Y365673D01*
D02*
G37*
G36*
X457889Y364452D02*
X450697D01*
Y360999D01*
X457889D01*
Y364452D01*
D02*
G37*
G36*
X447350Y362464D02*
Y360736D01*
X449079D01*
X448758Y361511D01*
X448125Y362144D01*
X447350Y362464D01*
D02*
G37*
G36*
X446350D02*
X445576Y362144D01*
X444943Y361511D01*
X444622Y360736D01*
X446350D01*
Y362464D01*
D02*
G37*
G36*
X441949Y362500D02*
X439874D01*
Y360327D01*
X441949D01*
Y362500D01*
D02*
G37*
G36*
X438874D02*
X436799D01*
Y360327D01*
X438874D01*
Y362500D01*
D02*
G37*
G36*
X449079Y359736D02*
X447350D01*
Y358008D01*
X448125Y358329D01*
X448758Y358962D01*
X449079Y359736D01*
D02*
G37*
G36*
X446350D02*
X444622D01*
X444943Y358962D01*
X445576Y358329D01*
X446350Y358008D01*
Y359736D01*
D02*
G37*
G36*
X441300Y353728D02*
Y352000D01*
X443028D01*
X442707Y352775D01*
X442074Y353408D01*
X441300Y353728D01*
D02*
G37*
G36*
X440300D02*
X439526Y353408D01*
X438893Y352775D01*
X438572Y352000D01*
X440300D01*
Y353728D01*
D02*
G37*
G36*
X443028Y351000D02*
X441300D01*
Y349272D01*
X442074Y349592D01*
X442707Y350225D01*
X443028Y351000D01*
D02*
G37*
G36*
X440300D02*
X438572D01*
X438893Y350225D01*
X439526Y349592D01*
X440300Y349272D01*
Y351000D01*
D02*
G37*
G36*
X368610Y350654D02*
Y348925D01*
X370339D01*
X370018Y349700D01*
X369385Y350333D01*
X368610Y350654D01*
D02*
G37*
G36*
X367610D02*
X366836Y350333D01*
X366203Y349700D01*
X365882Y348925D01*
X367610D01*
Y350654D01*
D02*
G37*
G36*
X370339Y347925D02*
X368610D01*
Y346197D01*
X369385Y346518D01*
X370018Y347151D01*
X370339Y347925D01*
D02*
G37*
G36*
X367610D02*
X365882D01*
X366203Y347151D01*
X366836Y346518D01*
X367610Y346197D01*
Y347925D01*
D02*
G37*
G36*
X473482Y372526D02*
X471232D01*
Y370126D01*
X473482D01*
Y372526D01*
D02*
G37*
G36*
X470232D02*
X467982D01*
Y370126D01*
X470232D01*
Y372526D01*
D02*
G37*
G36*
X473482Y369126D02*
X471232D01*
Y366726D01*
X473482D01*
Y369126D01*
D02*
G37*
G36*
X470232D02*
X467982D01*
Y366726D01*
X470232D01*
Y369126D01*
D02*
G37*
G36*
X472800Y365328D02*
Y363600D01*
X474528D01*
X474207Y364374D01*
X473574Y365007D01*
X472800Y365328D01*
D02*
G37*
G36*
X471800D02*
X471026Y365007D01*
X470393Y364374D01*
X470072Y363600D01*
X471800D01*
Y365328D01*
D02*
G37*
G36*
X474528Y362600D02*
X472800D01*
Y360872D01*
X473574Y361192D01*
X474207Y361825D01*
X474528Y362600D01*
D02*
G37*
G36*
X471800D02*
X470072D01*
X470393Y361825D01*
X471026Y361192D01*
X471800Y360872D01*
Y362600D01*
D02*
G37*
G36*
X427549Y314814D02*
X425957Y313223D01*
X427655Y311526D01*
X429246Y313117D01*
X427549Y314814D01*
D02*
G37*
G36*
X425250Y312516D02*
X423659Y310925D01*
X425356Y309228D01*
X426947Y310819D01*
X425250Y312516D01*
D02*
G37*
G36*
X427655Y310111D02*
X426064Y308521D01*
X427761Y306823D01*
X429352Y308414D01*
X427655Y310111D01*
D02*
G37*
G36*
X427000Y305128D02*
Y303400D01*
X428728D01*
X428407Y304174D01*
X427774Y304807D01*
X427000Y305128D01*
D02*
G37*
G36*
X426000D02*
X425225Y304807D01*
X424592Y304174D01*
X424272Y303400D01*
X426000D01*
Y305128D01*
D02*
G37*
G36*
X428728Y302400D02*
X427000D01*
Y300672D01*
X427774Y300992D01*
X428407Y301625D01*
X428728Y302400D01*
D02*
G37*
G36*
X426000D02*
X424272D01*
X424592Y301625D01*
X425225Y300992D01*
X426000Y300672D01*
Y302400D01*
D02*
G37*
G36*
X458890Y301224D02*
Y299496D01*
X460618D01*
X460297Y300271D01*
X459664Y300904D01*
X458890Y301224D01*
D02*
G37*
G36*
X457890D02*
X457115Y300904D01*
X456482Y300271D01*
X456161Y299496D01*
X457890D01*
Y301224D01*
D02*
G37*
G36*
X460618Y298496D02*
X458890D01*
Y296768D01*
X459664Y297089D01*
X460297Y297722D01*
X460618Y298496D01*
D02*
G37*
G36*
X457890D02*
X456161D01*
X456482Y297722D01*
X457115Y297089D01*
X457890Y296768D01*
Y298496D01*
D02*
G37*
G36*
X437000Y297102D02*
Y295374D01*
X438728D01*
X438407Y296148D01*
X437775Y296781D01*
X437000Y297102D01*
D02*
G37*
G36*
X436000D02*
X435225Y296781D01*
X434592Y296148D01*
X434272Y295374D01*
X436000D01*
Y297102D01*
D02*
G37*
G36*
X438728Y294374D02*
X437000D01*
Y292646D01*
X437775Y292967D01*
X438407Y293600D01*
X438728Y294374D01*
D02*
G37*
G36*
X436000D02*
X434272D01*
X434592Y293600D01*
X435225Y292967D01*
X436000Y292646D01*
Y294374D01*
D02*
G37*
G36*
X458890Y291382D02*
Y289653D01*
X460618D01*
X460297Y290428D01*
X459664Y291061D01*
X458890Y291382D01*
D02*
G37*
G36*
X457890D02*
X457115Y291061D01*
X456482Y290428D01*
X456161Y289653D01*
X457890D01*
Y291382D01*
D02*
G37*
G36*
X425606Y293836D02*
Y289464D01*
X426929D01*
Y292113D01*
X426790Y292811D01*
X426395Y293402D01*
X425804Y293797D01*
X425606Y293836D01*
D02*
G37*
G36*
X471200Y293661D02*
X467248D01*
X463295D01*
Y291980D01*
X463595D01*
Y288343D01*
X470900D01*
Y291980D01*
X471200D01*
Y293661D01*
D02*
G37*
G36*
X382250Y289400D02*
X380000D01*
Y287000D01*
X382250D01*
Y289400D01*
D02*
G37*
G36*
X379000D02*
X376750D01*
Y287000D01*
X379000D01*
Y289400D01*
D02*
G37*
G36*
X460618Y288653D02*
X458890D01*
Y286925D01*
X459664Y287246D01*
X460297Y287879D01*
X460618Y288653D01*
D02*
G37*
G36*
X457890D02*
X456161D01*
X456482Y287879D01*
X457115Y287246D01*
X457890Y286925D01*
Y288653D01*
D02*
G37*
G36*
X453484Y291692D02*
X449531D01*
X445578D01*
Y290011D01*
X445878D01*
Y286374D01*
X453184D01*
Y290011D01*
X453484D01*
Y291692D01*
D02*
G37*
G36*
X439173Y288449D02*
X437000D01*
Y286374D01*
X439173D01*
Y288449D01*
D02*
G37*
G36*
X436000D02*
X433827D01*
Y286374D01*
X436000D01*
Y288449D01*
D02*
G37*
G36*
X426929Y288464D02*
X425606D01*
Y284091D01*
X425804Y284131D01*
X426395Y284525D01*
X426790Y285117D01*
X426929Y285814D01*
Y288464D01*
D02*
G37*
G36*
X394291D02*
X392969D01*
Y285814D01*
X393108Y285117D01*
X393503Y284525D01*
X394094Y284131D01*
X394291Y284091D01*
Y288464D01*
D02*
G37*
G36*
X472200Y285428D02*
Y283700D01*
X473928D01*
X473607Y284474D01*
X472974Y285107D01*
X472200Y285428D01*
D02*
G37*
G36*
X471200D02*
X470426Y285107D01*
X469793Y284474D01*
X469472Y283700D01*
X471200D01*
Y285428D01*
D02*
G37*
G36*
X382250Y286000D02*
X380000D01*
Y283600D01*
X382250D01*
Y286000D01*
D02*
G37*
G36*
X379000D02*
X376750D01*
Y283600D01*
X379000D01*
Y286000D01*
D02*
G37*
G36*
X439173Y285374D02*
X437000D01*
Y283299D01*
X439173D01*
Y285374D01*
D02*
G37*
G36*
X436000D02*
X433827D01*
Y283299D01*
X436000D01*
Y285374D01*
D02*
G37*
G36*
X473928Y282700D02*
X472200D01*
Y280972D01*
X472974Y281293D01*
X473607Y281926D01*
X473928Y282700D01*
D02*
G37*
G36*
X471200D02*
X469472D01*
X469793Y281926D01*
X470426Y281293D01*
X471200Y280972D01*
Y282700D01*
D02*
G37*
G36*
X406012Y279787D02*
Y278059D01*
X407740D01*
X407419Y278834D01*
X406786Y279467D01*
X406012Y279787D01*
D02*
G37*
G36*
X405012D02*
X404237Y279467D01*
X403604Y278834D01*
X403284Y278059D01*
X405012D01*
Y279787D01*
D02*
G37*
G36*
X458845Y285609D02*
X457935D01*
X457056Y285374D01*
X456268Y284919D01*
X455624Y284276D01*
X455169Y283488D01*
X454934Y282609D01*
Y281699D01*
X455169Y280820D01*
X455624Y280032D01*
X456137Y279519D01*
X455951Y279019D01*
X450697D01*
Y275567D01*
X458389D01*
X466082D01*
Y279019D01*
X460828D01*
X460643Y279519D01*
X461155Y280032D01*
X461610Y280820D01*
X461846Y281699D01*
Y282609D01*
X461610Y283488D01*
X461155Y284276D01*
X460512Y284919D01*
X459724Y285374D01*
X458845Y285609D01*
D02*
G37*
G36*
X407740Y277059D02*
X406012D01*
Y275331D01*
X406786Y275652D01*
X407419Y276285D01*
X407740Y277059D01*
D02*
G37*
G36*
X405012D02*
X403284D01*
X403604Y276285D01*
X404237Y275652D01*
X405012Y275331D01*
Y277059D01*
D02*
G37*
G36*
X466082Y274567D02*
X458889D01*
Y271114D01*
X466082D01*
Y274567D01*
D02*
G37*
G36*
X457889D02*
X450697D01*
Y271114D01*
X457889D01*
Y274567D01*
D02*
G37*
G36*
X362960Y269988D02*
Y268260D01*
X364688D01*
X364367Y269034D01*
X363734Y269667D01*
X362960Y269988D01*
D02*
G37*
G36*
X361960D02*
X361185Y269667D01*
X360552Y269034D01*
X360231Y268260D01*
X361960D01*
Y269988D01*
D02*
G37*
G36*
X433571Y269945D02*
Y268216D01*
X435299D01*
X434978Y268991D01*
X434345Y269624D01*
X433571Y269945D01*
D02*
G37*
G36*
X432571D02*
X431796Y269624D01*
X431163Y268991D01*
X430843Y268216D01*
X432571D01*
Y269945D01*
D02*
G37*
G36*
X423728D02*
Y268216D01*
X425457D01*
X425136Y268991D01*
X424503Y269624D01*
X423728Y269945D01*
D02*
G37*
G36*
X422728D02*
X421954Y269624D01*
X421321Y268991D01*
X421000Y268216D01*
X422728D01*
Y269945D01*
D02*
G37*
G36*
X406012D02*
Y268216D01*
X407740D01*
X407419Y268991D01*
X406786Y269624D01*
X406012Y269945D01*
D02*
G37*
G36*
X405012D02*
X404237Y269624D01*
X403604Y268991D01*
X403284Y268216D01*
X405012D01*
Y269945D01*
D02*
G37*
G36*
X396169D02*
Y268216D01*
X397898D01*
X397577Y268991D01*
X396944Y269624D01*
X396169Y269945D01*
D02*
G37*
G36*
X395169D02*
X394395Y269624D01*
X393762Y268991D01*
X393441Y268216D01*
X395169D01*
Y269945D01*
D02*
G37*
G36*
X461400Y268750D02*
X459000D01*
Y266500D01*
X461400D01*
Y268750D01*
D02*
G37*
G36*
X458000D02*
X455600D01*
Y266500D01*
X458000D01*
Y268750D01*
D02*
G37*
G36*
X364688Y267260D02*
X362960D01*
Y265531D01*
X363734Y265852D01*
X364367Y266485D01*
X364688Y267260D01*
D02*
G37*
G36*
X361960D02*
X360231D01*
X360552Y266485D01*
X361185Y265852D01*
X361960Y265531D01*
Y267260D01*
D02*
G37*
G36*
X435299Y267216D02*
X433571D01*
Y265488D01*
X434345Y265809D01*
X434978Y266442D01*
X435299Y267216D01*
D02*
G37*
G36*
X432571D02*
X430843D01*
X431163Y266442D01*
X431796Y265809D01*
X432571Y265488D01*
Y267216D01*
D02*
G37*
G36*
X425457D02*
X423728D01*
Y265488D01*
X424503Y265809D01*
X425136Y266442D01*
X425457Y267216D01*
D02*
G37*
G36*
X422728D02*
X421000D01*
X421321Y266442D01*
X421954Y265809D01*
X422728Y265488D01*
Y267216D01*
D02*
G37*
G36*
X407740D02*
X406012D01*
Y265488D01*
X406786Y265809D01*
X407419Y266442D01*
X407740Y267216D01*
D02*
G37*
G36*
X405012D02*
X403284D01*
X403604Y266442D01*
X404237Y265809D01*
X405012Y265488D01*
Y267216D01*
D02*
G37*
G36*
X397898D02*
X396169D01*
Y265488D01*
X396944Y265809D01*
X397577Y266442D01*
X397898Y267216D01*
D02*
G37*
G36*
X395169D02*
X393441D01*
X393762Y266442D01*
X394395Y265809D01*
X395169Y265488D01*
Y267216D01*
D02*
G37*
G36*
X461400Y265500D02*
X459000D01*
Y263250D01*
X461400D01*
Y265500D01*
D02*
G37*
G36*
X458000D02*
X455600D01*
Y263250D01*
X458000D01*
Y265500D01*
D02*
G37*
G36*
X356000Y263028D02*
Y261300D01*
X357728D01*
X357407Y262074D01*
X356774Y262707D01*
X356000Y263028D01*
D02*
G37*
G36*
X355000D02*
X354225Y262707D01*
X353592Y262074D01*
X353272Y261300D01*
X355000D01*
Y263028D01*
D02*
G37*
G36*
X357728Y260300D02*
X356000D01*
Y258572D01*
X356774Y258892D01*
X357407Y259525D01*
X357728Y260300D01*
D02*
G37*
G36*
X355000D02*
X353272D01*
X353592Y259525D01*
X354225Y258892D01*
X355000Y258572D01*
Y260300D01*
D02*
G37*
G36*
X468000Y268450D02*
X462800D01*
Y263550D01*
X464278D01*
Y260373D01*
X462599D01*
Y255627D01*
X467149D01*
Y256878D01*
X469000D01*
X469000Y256878D01*
X469429Y256964D01*
X469793Y257207D01*
X470552Y257966D01*
X470558Y257971D01*
X470598Y257997D01*
X470640Y258020D01*
X470684Y258039D01*
X470732Y258055D01*
X470784Y258068D01*
X470843Y258078D01*
X470908Y258084D01*
X471004Y258086D01*
X471065Y258100D01*
X471378D01*
X472076Y258389D01*
X472611Y258924D01*
X472900Y259622D01*
Y260378D01*
X472611Y261076D01*
X472076Y261611D01*
X471378Y261900D01*
X470622D01*
X469924Y261611D01*
X469389Y261076D01*
X469100Y260378D01*
Y260065D01*
X469086Y260004D01*
X469084Y259908D01*
X469078Y259843D01*
X469068Y259784D01*
X469055Y259732D01*
X469039Y259684D01*
X469020Y259640D01*
X468997Y259598D01*
X468971Y259558D01*
X468966Y259552D01*
X468535Y259121D01*
X467149D01*
Y260373D01*
X466522D01*
Y263550D01*
X468000D01*
Y268450D01*
D02*
G37*
G36*
X331800Y260000D02*
X327000D01*
Y255200D01*
X327198D01*
X328546Y255561D01*
X329754Y256259D01*
X330741Y257246D01*
X331439Y258454D01*
X331800Y259802D01*
Y260000D01*
D02*
G37*
G36*
X326000D02*
X321200D01*
Y259802D01*
X321561Y258454D01*
X322259Y257246D01*
X323246Y256259D01*
X324454Y255561D01*
X325802Y255200D01*
X326000D01*
Y260000D01*
D02*
G37*
%LPD*%
G36*
X466124Y264254D02*
X466056Y264230D01*
X465996Y264190D01*
X465944Y264134D01*
X465900Y264062D01*
X465864Y263974D01*
X465836Y263870D01*
X465816Y263750D01*
X465804Y263614D01*
X465800Y263462D01*
X465000D01*
X464996Y263614D01*
X464984Y263750D01*
X464964Y263870D01*
X464936Y263974D01*
X464900Y264062D01*
X464856Y264134D01*
X464804Y264190D01*
X464744Y264230D01*
X464676Y264254D01*
X464600Y264262D01*
X466200D01*
X466124Y264254D01*
D02*
G37*
G36*
X465804Y260307D02*
X465816Y260169D01*
X465836Y260047D01*
X465864Y259942D01*
X465900Y259852D01*
X465944Y259779D01*
X465996Y259722D01*
X466056Y259682D01*
X466124Y259657D01*
X466200Y259649D01*
X464600D01*
X464676Y259657D01*
X464744Y259682D01*
X464804Y259722D01*
X464856Y259779D01*
X464900Y259852D01*
X464936Y259942D01*
X464964Y260047D01*
X464984Y260169D01*
X464996Y260307D01*
X465000Y260461D01*
X465800D01*
X465804Y260307D01*
D02*
G37*
G36*
X470988Y258800D02*
X470867Y258797D01*
X470750Y258786D01*
X470638Y258767D01*
X470530Y258740D01*
X470426Y258705D01*
X470327Y258662D01*
X470232Y258611D01*
X470142Y258551D01*
X470055Y258484D01*
X469974Y258408D01*
X469408Y258974D01*
X469484Y259055D01*
X469551Y259142D01*
X469611Y259232D01*
X469662Y259327D01*
X469705Y259426D01*
X469740Y259530D01*
X469767Y259638D01*
X469786Y259750D01*
X469797Y259867D01*
X469800Y259988D01*
X470988Y258800D01*
D02*
G37*
G36*
X466433Y258724D02*
X466457Y258656D01*
X466498Y258596D01*
X466555Y258544D01*
X466628Y258500D01*
X466717Y258464D01*
X466823Y258436D01*
X466945Y258416D01*
X467083Y258404D01*
X467237Y258400D01*
Y257600D01*
X467083Y257596D01*
X466945Y257584D01*
X466823Y257564D01*
X466717Y257536D01*
X466628Y257500D01*
X466555Y257456D01*
X466498Y257404D01*
X466457Y257344D01*
X466433Y257276D01*
X466425Y257200D01*
Y258800D01*
X466433Y258724D01*
D02*
G37*
%LPC*%
G36*
X373354Y309935D02*
X371657Y308238D01*
X373248Y306647D01*
X374945Y308344D01*
X373354Y309935D01*
D02*
G37*
G36*
X370950Y307530D02*
X369253Y305833D01*
X370844Y304242D01*
X372541Y305940D01*
X370950Y307530D01*
D02*
G37*
G36*
X366642Y303409D02*
Y301681D01*
X368370D01*
X368049Y302456D01*
X367416Y303089D01*
X366642Y303409D01*
D02*
G37*
G36*
X365642D02*
X364867Y303089D01*
X364234Y302456D01*
X363913Y301681D01*
X365642D01*
Y303409D01*
D02*
G37*
G36*
X368370Y300681D02*
X366642D01*
Y298953D01*
X367416Y299274D01*
X368049Y299907D01*
X368370Y300681D01*
D02*
G37*
G36*
X365642D02*
X363913D01*
X364234Y299907D01*
X364867Y299274D01*
X365642Y298953D01*
Y300681D01*
D02*
G37*
G36*
X360736Y297504D02*
Y295776D01*
X362464D01*
X362144Y296550D01*
X361511Y297183D01*
X360736Y297504D01*
D02*
G37*
G36*
X359736D02*
X358962Y297183D01*
X358329Y296550D01*
X358008Y295776D01*
X359736D01*
Y297504D01*
D02*
G37*
G36*
X362464Y294776D02*
X360736D01*
Y293047D01*
X361511Y293368D01*
X362144Y294001D01*
X362464Y294776D01*
D02*
G37*
G36*
X359736D02*
X358008D01*
X358329Y294001D01*
X358962Y293368D01*
X359736Y293047D01*
Y294776D01*
D02*
G37*
G36*
X348925Y279787D02*
Y278059D01*
X350654D01*
X350333Y278834D01*
X349700Y279467D01*
X348925Y279787D01*
D02*
G37*
G36*
X347925D02*
X347151Y279467D01*
X346518Y278834D01*
X346197Y278059D01*
X347925D01*
Y279787D01*
D02*
G37*
G36*
X350654Y277059D02*
X348925D01*
Y275331D01*
X349700Y275652D01*
X350333Y276285D01*
X350654Y277059D01*
D02*
G37*
G36*
X347925D02*
X346197D01*
X346518Y276285D01*
X347151Y275652D01*
X347925Y275331D01*
Y277059D01*
D02*
G37*
%LPD*%
D10*
X411749Y355775D02*
Y360049D01*
X416260Y364560D02*
Y375500D01*
X411749Y360049D02*
X416260Y364560D01*
X388127Y318627D02*
X389500Y320000D01*
X388127Y309319D02*
Y318627D01*
X389500Y320000D02*
Y345200D01*
X387100Y360655D02*
X388127Y359627D01*
X375300Y357800D02*
X378155Y360655D01*
X387100D01*
X377006Y357694D02*
X389500Y345200D01*
X375406Y357694D02*
X377006D01*
X375300Y357800D02*
X375406Y357694D01*
X388127Y355775D02*
Y359627D01*
Y351373D02*
Y355775D01*
Y351373D02*
X411800Y327700D01*
X419594Y317783D02*
Y319905D01*
Y288964D02*
Y317783D01*
X426119D01*
X411800Y327700D02*
X419594Y319905D01*
Y282756D02*
Y288964D01*
X421000Y333200D02*
Y341800D01*
X411800Y327700D02*
X415500D01*
X421000Y333200D01*
X372700Y349600D02*
X374989Y347311D01*
X372700Y349600D02*
Y355200D01*
X375300Y357800D01*
X374989Y347311D02*
X379662D01*
X416800Y341800D02*
X421000D01*
X411749Y346851D02*
Y355775D01*
Y346851D02*
X416800Y341800D01*
X422574Y343374D02*
X426119D01*
X421000Y341800D02*
X422574Y343374D01*
X440874D02*
X444811Y347311D01*
X449531D01*
X426119Y343374D02*
X440874D01*
X389000Y304500D02*
X390096Y305596D01*
X384446Y304500D02*
X389000D01*
X378127Y310819D02*
X384446Y304500D01*
X390096Y305596D02*
Y309319D01*
X432534Y308061D02*
Y317466D01*
X432428Y306046D02*
Y307955D01*
X430248Y319752D02*
X432534Y317466D01*
X432428Y306046D02*
X432534Y305940D01*
X432428Y307955D02*
X432534Y308061D01*
X426119Y319752D02*
X430248D01*
X467248Y345342D02*
Y364752D01*
X440000Y370500D02*
X461500D01*
X467248Y364752D01*
X440006Y375500D02*
X440018Y375488D01*
X416260Y375500D02*
X440006D01*
X440018Y375488D02*
Y380458D01*
Y370518D02*
Y375488D01*
X442488D01*
X443758Y376758D02*
Y380458D01*
X442488Y375488D02*
X443758Y376758D01*
X440000Y370500D02*
X440018Y370518D01*
X443758Y391458D02*
X465032D01*
X470732Y385758D01*
Y376526D02*
Y385758D01*
X416839Y257827D02*
Y280000D01*
Y257827D02*
X458953D01*
X379500D02*
X416839D01*
X458953D02*
X459126Y258000D01*
X416839Y280000D02*
Y288964D01*
Y280000D02*
X419594Y282756D01*
X379500Y279600D02*
X394100D01*
X397547Y283047D01*
Y288964D01*
X424874Y280126D02*
X436500D01*
X422350Y282650D02*
X424874Y280126D01*
X422350Y282650D02*
Y288964D01*
X372173Y261079D02*
X375425Y257827D01*
X372173Y261079D02*
Y261177D01*
X371000Y262252D02*
X371098D01*
X375425Y257827D02*
X379500D01*
X371098Y262252D02*
X372173Y261177D01*
X375000Y272000D02*
X379500D01*
X372273Y269273D02*
X375000Y272000D01*
X372273Y269175D02*
Y269273D01*
X371098Y268000D02*
X372273Y269175D01*
X371000Y268000D02*
X371098D01*
X379500Y272000D02*
Y279600D01*
X337783Y382253D02*
X349232D01*
X352306Y379179D01*
X334710D02*
X337783Y382253D01*
X352306Y374533D02*
Y379179D01*
X334710Y374538D02*
Y379179D01*
X334060Y373888D02*
X334710Y374538D01*
X352306Y374533D02*
X352960Y373878D01*
D16*
X387000Y320800D02*
Y345437D01*
X379662Y317783D02*
X383983D01*
X387000Y320800D01*
X381647Y355397D02*
X392064Y344980D01*
X388100Y362300D02*
X390096Y360304D01*
X381647Y355397D02*
Y358205D01*
X382500Y362300D02*
X388100D01*
X378700Y366100D02*
X382500Y362300D01*
X380200Y350802D02*
Y351000D01*
Y350802D02*
X381502Y349500D01*
X382937D01*
X387000Y345437D01*
X392064Y309319D02*
Y344980D01*
X399938Y343462D02*
Y355775D01*
Y343462D02*
X412300Y331100D01*
X401907Y344059D02*
Y355775D01*
Y344059D02*
X412509Y333457D01*
X416732D01*
X405844Y345868D02*
Y355775D01*
X403875Y345414D02*
X413250Y336039D01*
X403875Y345414D02*
Y355775D01*
X405844Y345868D02*
X412855Y338857D01*
X416732D01*
X407812Y347223D02*
Y355775D01*
Y347223D02*
X413532Y341503D01*
X415536Y345453D02*
X417432D01*
X413718Y347272D02*
Y355775D01*
Y347272D02*
X415536Y345453D01*
X420045Y327603D02*
X426097D01*
X426119Y327626D01*
X390096Y355775D02*
Y360304D01*
X391358Y391458D02*
X436278D01*
X378700Y378800D02*
X391358Y391458D01*
X378700Y366100D02*
Y378800D01*
X355975Y343374D02*
X378700Y366100D01*
X393700Y301100D02*
X396001Y303401D01*
Y309319D01*
X376357Y301100D02*
X393700D01*
X394033Y304732D02*
Y309319D01*
X375936Y302800D02*
X392100D01*
X394033Y304732D01*
X338500Y285500D02*
X341300Y282700D01*
X338500Y285500D02*
Y288600D01*
X332938Y294162D02*
X338500Y288600D01*
X340050Y286450D02*
Y290050D01*
X332001Y298099D02*
X340050Y290050D01*
Y286450D02*
X342300Y284200D01*
X357336D01*
X341300Y282700D02*
X357957D01*
X357336Y284200D02*
X375936Y302800D01*
X357957Y282700D02*
X376357Y301100D01*
X327485Y294162D02*
X332938D01*
X327485Y298099D02*
X332001D01*
X346879Y269500D02*
X376779Y299400D01*
X324121Y268000D02*
X347500D01*
X348500Y266500D02*
X378000Y296000D01*
X325000Y269500D02*
X346879D01*
X376779Y299400D02*
X396187D01*
X377200Y297700D02*
X396892D01*
X339000Y264000D02*
X348500D01*
X378800Y294300D02*
X380563D01*
X323500Y266500D02*
X348500D01*
X378000Y296000D02*
X397596D01*
X348500Y264000D02*
X378800Y294300D01*
X347500Y268000D02*
X377200Y297700D01*
X339601Y300067D02*
X345201D01*
X339601Y304004D02*
X345201D01*
X355137Y339438D02*
X359074Y343374D01*
X379662D01*
X345201Y339438D02*
X355137D01*
X345201Y343374D02*
X355975D01*
X354700Y335501D02*
X360605Y341405D01*
X379662D01*
X345201Y335501D02*
X354700D01*
X379662Y339437D02*
X384608D01*
X432353Y361727D02*
X432451D01*
X429700Y359074D02*
X432353Y361727D01*
X433626Y362902D02*
Y363000D01*
X432451Y361727D02*
X433626Y362902D01*
X350067Y300067D02*
X371720Y321720D01*
X345201Y300067D02*
X350067D01*
X371720Y321720D02*
X379662D01*
X349931Y296130D02*
X373552Y319752D01*
X345201Y296130D02*
X349931D01*
X373552Y319752D02*
X379662D01*
X345201Y304004D02*
X350304D01*
X369989Y323689D01*
X379662D01*
X345201Y307941D02*
X350841D01*
X345201Y311878D02*
X351179D01*
X366926Y327626D01*
X350841Y307941D02*
X368557Y325657D01*
X379662D01*
X351916Y315815D02*
X365694Y329594D01*
X345201Y315815D02*
X351916D01*
X366926Y327626D02*
X379662D01*
X365694Y329594D02*
X379662D01*
X345201Y319753D02*
X352553D01*
X353189Y323690D02*
X363031Y333531D01*
X345201Y323690D02*
X353189D01*
X363031Y333531D02*
X379662D01*
X364363Y331563D02*
X379662D01*
X352553Y319753D02*
X364363Y331563D01*
X345201Y327626D02*
X354226D01*
X362100Y335500D01*
X379662D01*
X345201Y331563D02*
X354164D01*
X360068Y337468D01*
X379662D01*
X402932Y317782D02*
X407812Y312902D01*
Y309319D02*
Y312902D01*
X407032Y317457D02*
X409781Y314709D01*
X327485Y337469D02*
X333085D01*
X327485Y333532D02*
X333085D01*
X327485Y329595D02*
X333085D01*
X327485Y325658D02*
X333085D01*
X327485Y321721D02*
X333085D01*
X327485Y317784D02*
X333085D01*
X412603Y296097D02*
X412632Y296126D01*
X410797Y296097D02*
X412603D01*
X408571Y293871D02*
X410797Y296097D01*
X408571Y288964D02*
Y293871D01*
X405815Y294214D02*
X412701Y301100D01*
X414100D02*
X417655Y304655D01*
X412701Y301100D02*
X414100D01*
X411904Y303000D02*
X413500D01*
X415686Y305186D01*
X403059Y294155D02*
X411904Y303000D01*
X417655Y304655D02*
Y309319D01*
X415686Y305186D02*
Y309319D01*
Y320003D01*
X411749Y305249D02*
Y309319D01*
X400303Y293803D02*
X411749Y305249D01*
X400303Y288964D02*
Y293803D01*
X403059Y288964D02*
Y294155D01*
X459932Y313846D02*
X467248D01*
X459932Y305972D02*
X467248D01*
X459932Y309909D02*
X467248D01*
X459932Y317783D02*
X467248D01*
X459932Y329594D02*
X467248D01*
X459932Y333531D02*
X467248D01*
X320100Y269900D02*
Y307624D01*
X321600Y270521D02*
Y304600D01*
X322973Y305973D01*
X321600Y270521D02*
X324121Y268000D01*
X320100Y307624D02*
X322386Y309910D01*
X323100Y271400D02*
X325000Y269500D01*
X323100Y300624D02*
X323883Y301407D01*
X320100Y269900D02*
X323500Y266500D01*
X323100Y271400D02*
Y300624D01*
X322847Y313847D02*
X327485D01*
X321000Y312000D02*
X322847Y313847D01*
X326855Y301407D02*
X327485Y302036D01*
X323883Y301407D02*
X326855D01*
X322973Y305973D02*
X327485D01*
X322386Y309910D02*
X327485D01*
X396892Y297700D02*
X401907Y302715D01*
X396187Y299400D02*
X399938Y303151D01*
X397596Y296000D02*
X403875Y302279D01*
Y309319D01*
X401907Y302715D02*
Y309319D01*
X399938Y303151D02*
Y309319D01*
X398300Y294300D02*
X405844Y301844D01*
X380563Y294300D02*
X398300D01*
X405844Y301844D02*
Y309319D01*
X405815Y288964D02*
Y294214D01*
X411749Y309319D02*
Y316340D01*
X407032Y321057D02*
X411749Y316340D01*
X409781Y309319D02*
Y314709D01*
X410732Y324957D02*
X415686Y320003D01*
X410732Y321357D02*
X413718Y318372D01*
Y309319D02*
Y318372D01*
X397970Y313721D02*
X399232Y314984D01*
X397970Y309319D02*
Y313721D01*
X415686Y349703D02*
X416932Y348457D01*
X419232D01*
X415686Y349703D02*
Y355775D01*
X460095Y341405D02*
X467248D01*
X458500Y343000D02*
Y347850D01*
Y343000D02*
X460095Y341405D01*
X453850Y352500D02*
X458500Y347850D01*
X456500Y342000D02*
Y347500D01*
Y342000D02*
X461032Y337468D01*
X453000Y351000D02*
X456500Y347500D01*
X446000Y352500D02*
X453850D01*
X446000Y351000D02*
X453000D01*
X417655Y355775D02*
X442725D01*
X446000Y352500D01*
X461032Y337468D02*
X467248D01*
X442311Y347311D02*
X446000Y351000D01*
X426119Y347311D02*
X442311D01*
X426119Y337468D02*
X443405D01*
X445374Y335500D01*
X449531D01*
X443405Y341405D02*
X445374Y343374D01*
X449531D01*
X426119Y341405D02*
X443405D01*
X434906Y329594D02*
X444748Y319752D01*
X426119Y329594D02*
X434906D01*
X444748Y319752D02*
X449531D01*
X444185Y315814D02*
X449531D01*
X434343Y325657D02*
X444185Y315814D01*
X426119Y325657D02*
X434343D01*
X426119Y321720D02*
X430780D01*
X444559Y307941D01*
X449531D01*
X426119Y323689D02*
X432811D01*
X444623Y311877D02*
X449531D01*
X432811Y323689D02*
X444623Y311877D01*
X426119Y331563D02*
X437437D01*
X445311Y323689D02*
X449531D01*
X437437Y331563D02*
X445311Y323689D01*
X426119Y333531D02*
X439969D01*
X445847Y327653D01*
X449504D01*
X449531Y327626D01*
X426119Y335500D02*
X441500D01*
X445437Y331563D02*
X449531D01*
X441500Y335500D02*
X445437Y331563D01*
X426119Y339437D02*
X449531D01*
X449531Y339437D01*
X401710Y365871D02*
X408726D01*
X469000Y258000D02*
X471000Y260000D01*
X464874Y258000D02*
X469000D01*
X464874D02*
X465400Y258526D01*
Y266000D01*
X342523Y373225D02*
Y377244D01*
X355574Y389074D02*
X367500D01*
X367474Y388900D02*
X367500Y388874D01*
X385000Y373500D02*
X385245Y373745D01*
X392261D01*
X396001Y355775D02*
Y372715D01*
X394971Y373745D02*
X396001Y372715D01*
X392261Y373745D02*
X394971D01*
X397970Y355775D02*
Y364841D01*
X399000Y365871D01*
X401710D01*
X349325Y361773D02*
X350500Y360598D01*
X341500Y365000D02*
X346000D01*
X350500Y360500D02*
Y360598D01*
X349227Y361773D02*
X349325D01*
X346000Y365000D02*
X349227Y361773D01*
X338590Y367910D02*
X341500Y365000D01*
X338590Y367910D02*
Y373868D01*
X350358Y366753D02*
Y373878D01*
X346460Y373878D02*
Y378284D01*
X342523Y377244D02*
X343563Y378284D01*
X346460D01*
X344490Y373878D02*
X344497Y373871D01*
Y367840D02*
Y373871D01*
X340560Y368630D02*
X341350Y367840D01*
X344497D01*
X340560Y368630D02*
Y373878D01*
D17*
X356800Y353700D02*
D03*
X349900D02*
D03*
X433100Y370500D02*
D03*
X440000D02*
D03*
X458500Y266000D02*
D03*
X465400D02*
D03*
D21*
X439374Y363000D02*
D03*
X433626D02*
D03*
X464874Y258000D02*
D03*
X459126D02*
D03*
X350358Y366753D02*
D03*
X356106D02*
D03*
X350500Y360500D02*
D03*
X356248D02*
D03*
D22*
X408726Y366271D02*
D03*
Y373171D02*
D03*
X385000Y366600D02*
D03*
Y373500D02*
D03*
X470732Y376526D02*
D03*
Y369626D02*
D03*
X379500Y279600D02*
D03*
Y286500D02*
D03*
D41*
X330900Y367400D02*
X334060D01*
X322500Y359000D02*
X330900Y367400D01*
X334060Y367460D02*
Y373888D01*
X346521Y347493D02*
Y350321D01*
X349000Y352800D02*
Y352950D01*
X349750Y353700D01*
X345201Y347311D02*
X346340D01*
X346521Y347493D01*
Y350321D02*
X349000Y352800D01*
X349750Y353700D02*
X349900D01*
X335811Y347311D02*
X345201D01*
X333843Y345343D02*
X335811Y347311D01*
X327485Y345343D02*
X333843D01*
X322500Y350328D02*
X325532Y347296D01*
X322500Y350328D02*
Y355000D01*
X325532Y345524D02*
Y347296D01*
Y345524D02*
X325713Y345343D01*
X327485D01*
X322500Y355000D02*
Y359000D01*
D42*
X326500Y394358D02*
D03*
X360520D02*
D03*
D43*
Y378028D02*
D03*
X326500D02*
D03*
D44*
X458390Y282154D02*
D03*
Y353414D02*
D03*
X336343D02*
D03*
Y282154D02*
D03*
D45*
X326500Y260500D02*
D03*
D46*
X431100Y397300D02*
D03*
X471700Y283200D02*
D03*
X472300Y363100D02*
D03*
X458390Y289154D02*
D03*
Y298996D02*
D03*
X355500Y260800D02*
D03*
X362460Y267760D02*
D03*
X381647Y358205D02*
D03*
X380200Y351000D02*
D03*
X334060Y367460D02*
D03*
X363000Y357500D02*
D03*
X374500Y371000D02*
D03*
X440800Y351500D02*
D03*
X368110Y348425D02*
D03*
X446850Y360236D02*
D03*
X436500Y294874D02*
D03*
X426500Y302900D02*
D03*
X433071Y267717D02*
D03*
X423228D02*
D03*
X405512Y277559D02*
D03*
X395669Y267717D02*
D03*
X405512D02*
D03*
X348425Y277559D02*
D03*
X360236Y295276D02*
D03*
X366142Y301181D02*
D03*
X412300Y331100D02*
D03*
X416732Y338857D02*
D03*
X413250Y336039D02*
D03*
X420045Y327580D02*
D03*
X339601Y300067D02*
D03*
Y304004D02*
D03*
X384608Y339437D02*
D03*
X429700Y359074D02*
D03*
X402932Y317782D02*
D03*
X407032Y317457D02*
D03*
X333085Y337469D02*
D03*
Y333532D02*
D03*
X333085Y329595D02*
D03*
Y325658D02*
D03*
Y321721D02*
D03*
X333085Y317784D02*
D03*
X412632Y296126D02*
D03*
X459932Y313846D02*
D03*
Y305972D02*
D03*
Y309909D02*
D03*
Y317783D02*
D03*
Y329594D02*
D03*
Y333531D02*
D03*
X321000Y312000D02*
D03*
X339000Y264000D02*
D03*
X399232Y314984D02*
D03*
X407032Y321057D02*
D03*
X410732Y321357D02*
D03*
Y324957D02*
D03*
X419232Y348457D02*
D03*
X416732Y333457D02*
D03*
X413532Y341503D02*
D03*
X417432Y345453D02*
D03*
X416260Y375500D02*
D03*
X346460Y378284D02*
D03*
X344497Y367840D02*
D03*
D47*
X471000Y260000D02*
D03*
X355574Y389074D02*
D03*
D48*
X465032Y391458D02*
D03*
D49*
X419410Y387000D02*
D03*
D50*
X401710Y373745D02*
D03*
X392261Y365871D02*
D03*
Y373745D02*
D03*
X401710Y365871D02*
D03*
D51*
X375300Y357800D02*
D03*
X370421Y362679D02*
D03*
X427655Y310819D02*
D03*
X432534Y305940D02*
D03*
D52*
X436278Y391458D02*
D03*
X440018D02*
D03*
X443758D02*
D03*
X443758Y380458D02*
D03*
X440018Y380458D02*
D03*
X436278Y380458D02*
D03*
D53*
X373248Y305940D02*
D03*
X378127Y310819D02*
D03*
D54*
X436500Y280126D02*
D03*
Y285874D02*
D03*
X371000Y268000D02*
D03*
Y262252D02*
D03*
X367500Y389074D02*
D03*
Y383326D02*
D03*
D55*
X379500Y272000D02*
D03*
Y257827D02*
D03*
X322500Y369173D02*
D03*
Y355000D02*
D03*
D56*
X379662Y347311D02*
D03*
Y345342D02*
D03*
Y343374D02*
D03*
Y341405D02*
D03*
Y339437D02*
D03*
Y337468D02*
D03*
Y335500D02*
D03*
Y333531D02*
D03*
Y331563D02*
D03*
Y329594D02*
D03*
Y327626D02*
D03*
Y325657D02*
D03*
Y323689D02*
D03*
Y321720D02*
D03*
Y319752D02*
D03*
Y317783D02*
D03*
X426119D02*
D03*
Y319752D02*
D03*
Y321720D02*
D03*
Y323689D02*
D03*
Y325657D02*
D03*
Y327626D02*
D03*
Y329594D02*
D03*
Y331563D02*
D03*
Y333531D02*
D03*
Y335500D02*
D03*
Y337468D02*
D03*
Y339437D02*
D03*
Y341405D02*
D03*
Y343374D02*
D03*
X426119Y345342D02*
D03*
Y347311D02*
D03*
D57*
X388127Y309319D02*
D03*
X390096D02*
D03*
X392064D02*
D03*
X394033D02*
D03*
X396001D02*
D03*
X397970D02*
D03*
X399938D02*
D03*
X401907D02*
D03*
X403875D02*
D03*
X405844D02*
D03*
X407812D02*
D03*
X409781D02*
D03*
X411749Y309319D02*
D03*
X413718D02*
D03*
X415686D02*
D03*
X417655D02*
D03*
Y355775D02*
D03*
X415686D02*
D03*
X413718D02*
D03*
X411749D02*
D03*
X409781D02*
D03*
X407812D02*
D03*
X405844D02*
D03*
X403875D02*
D03*
X401907D02*
D03*
X399938D02*
D03*
X397970D02*
D03*
X396001D02*
D03*
X394033D02*
D03*
X392064D02*
D03*
X390096D02*
D03*
X388127D02*
D03*
D58*
X336620Y373878D02*
D03*
X338590Y373868D02*
D03*
X340560Y373878D02*
D03*
X342530Y373878D02*
D03*
X344490Y373878D02*
D03*
X346460D02*
D03*
X348430Y373878D02*
D03*
X350400D02*
D03*
D59*
X330910Y373888D02*
D03*
X334060D02*
D03*
X352960Y373878D02*
D03*
X356110Y373878D02*
D03*
D60*
X458390Y275066D02*
D03*
Y360500D02*
D03*
X336343Y360501D02*
D03*
X336343Y275067D02*
D03*
D61*
X449531Y347311D02*
D03*
X467248Y345342D02*
D03*
X449531Y343374D02*
D03*
X467248Y341405D02*
D03*
X449531Y339437D02*
D03*
X467248Y337468D02*
D03*
X449531Y335500D02*
D03*
X467248Y333531D02*
D03*
X449531Y331563D02*
D03*
X467248Y329594D02*
D03*
X449531Y327626D02*
D03*
X467248Y325657D02*
D03*
X449531Y323689D02*
D03*
X467248Y321720D02*
D03*
X449531Y319752D02*
D03*
X467248Y317783D02*
D03*
X449531Y315814D02*
D03*
X467248Y313846D02*
D03*
X449531Y311877D02*
D03*
X467248Y309909D02*
D03*
X449531Y307941D02*
D03*
X467248Y305972D02*
D03*
X449531Y304004D02*
D03*
X467248Y302035D02*
D03*
X449531Y300066D02*
D03*
X467248Y298098D02*
D03*
X449531Y296129D02*
D03*
X467248Y294161D02*
D03*
X449531Y292193D02*
D03*
X467248Y290224D02*
D03*
X449531Y288256D02*
D03*
X345201Y288256D02*
D03*
X327485Y290225D02*
D03*
X345201Y292193D02*
D03*
X327485Y294162D02*
D03*
X345201Y296130D02*
D03*
X327485Y298099D02*
D03*
X345201Y300067D02*
D03*
X327485Y302036D02*
D03*
X345201Y304004D02*
D03*
X327485Y305973D02*
D03*
X345201Y307941D02*
D03*
X327485Y309910D02*
D03*
X345201Y311878D02*
D03*
X327485Y313847D02*
D03*
X345201Y315815D02*
D03*
X327485Y317784D02*
D03*
X345201Y319753D02*
D03*
X327485Y321721D02*
D03*
X345201Y323690D02*
D03*
X327485Y325658D02*
D03*
X345201Y327626D02*
D03*
X327485Y329595D02*
D03*
X345201Y331563D02*
D03*
X327485Y333532D02*
D03*
X345201Y335501D02*
D03*
X327485Y337469D02*
D03*
X345201Y339438D02*
D03*
X327485Y341406D02*
D03*
X345201Y343374D02*
D03*
X327485Y345343D02*
D03*
X345201Y347311D02*
D03*
D62*
X422350Y288964D02*
D03*
X419594D02*
D03*
X411327D02*
D03*
X414083D02*
D03*
X403059D02*
D03*
X405815D02*
D03*
X394791D02*
D03*
X397547D02*
D03*
X425106D02*
D03*
X416839D02*
D03*
X400303D02*
D03*
X408571D02*
D03*
M02*
