G04*
G04 #@! TF.GenerationSoftware,Altium Limited,Altium Designer,22.0.2 (36)*
G04*
G04 Layer_Color=8388736*
%FSLAX25Y25*%
%MOIN*%
G70*
G04*
G04 #@! TF.SameCoordinates,A8AB103B-E7CB-45E0-896D-D1B8D88E5F6C*
G04*
G04*
G04 #@! TF.FilePolarity,Negative*
G04*
G01*
G75*
%ADD26C,0.03000*%
%ADD27R,0.04600X0.04300*%
%ADD28R,0.05800X0.03556*%
%ADD29R,0.06312X0.05918*%
%ADD30R,0.02965X0.04737*%
%ADD31R,0.03950X0.04147*%
%ADD32R,0.04300X0.04600*%
%ADD33O,0.01260X0.03200*%
%ADD34O,0.03200X0.01260*%
%ADD35R,0.11030X0.11030*%
%ADD36O,0.05120X0.08270*%
%ADD37O,0.05120X0.09460*%
%ADD38C,0.00800*%
%ADD39C,0.05600*%
%ADD40C,0.09400*%
G36*
X393105Y400221D02*
X393171D01*
X393245Y400214D01*
X393327Y400206D01*
X393497Y400184D01*
X393689Y400155D01*
X393874Y400110D01*
X394052Y400051D01*
Y399111D01*
X394045D01*
X394030Y399126D01*
X394008Y399133D01*
X393971Y399156D01*
X393926Y399170D01*
X393874Y399193D01*
X393815Y399222D01*
X393749Y399244D01*
X393593Y399296D01*
X393416Y399333D01*
X393216Y399363D01*
X393001Y399378D01*
X392935D01*
X392890Y399370D01*
X392831Y399363D01*
X392764Y399355D01*
X392690Y399341D01*
X392616Y399326D01*
X392446Y399274D01*
X392357Y399237D01*
X392261Y399200D01*
X392172Y399148D01*
X392091Y399089D01*
X392010Y399022D01*
X391928Y398948D01*
X391921Y398941D01*
X391913Y398926D01*
X391891Y398904D01*
X391869Y398874D01*
X391839Y398830D01*
X391802Y398778D01*
X391765Y398719D01*
X391728Y398652D01*
X391691Y398571D01*
X391654Y398490D01*
X391625Y398401D01*
X391588Y398297D01*
X391543Y398083D01*
X391536Y397957D01*
X391529Y397831D01*
Y397824D01*
Y397801D01*
Y397764D01*
X391536Y397720D01*
X391543Y397661D01*
X391551Y397594D01*
X391558Y397520D01*
X391573Y397446D01*
X391617Y397269D01*
X391691Y397091D01*
X391728Y396995D01*
X391780Y396906D01*
X391839Y396825D01*
X391906Y396743D01*
X391913Y396736D01*
X391921Y396728D01*
X391943Y396706D01*
X391980Y396677D01*
X392017Y396647D01*
X392061Y396617D01*
X392121Y396580D01*
X392180Y396543D01*
X392254Y396499D01*
X392328Y396462D01*
X392505Y396403D01*
X392713Y396351D01*
X392824Y396344D01*
X392942Y396336D01*
X393001D01*
X393046Y396344D01*
X393097D01*
X393164Y396351D01*
X393231Y396358D01*
X393312Y396373D01*
X393482Y396410D01*
X393667Y396462D01*
X393860Y396536D01*
X394052Y396632D01*
Y395737D01*
X394045D01*
X394030Y395729D01*
X394000Y395715D01*
X393963Y395700D01*
X393911Y395685D01*
X393852Y395663D01*
X393786Y395641D01*
X393704Y395618D01*
X393615Y395596D01*
X393519Y395574D01*
X393408Y395552D01*
X393297Y395537D01*
X393171Y395522D01*
X393038Y395507D01*
X392898Y395500D01*
X392705D01*
X392653Y395507D01*
X392579D01*
X392491Y395522D01*
X392387Y395530D01*
X392276Y395552D01*
X392158Y395574D01*
X392024Y395611D01*
X391891Y395648D01*
X391758Y395700D01*
X391617Y395759D01*
X391484Y395833D01*
X391351Y395914D01*
X391225Y396003D01*
X391107Y396114D01*
X391099Y396122D01*
X391085Y396144D01*
X391048Y396181D01*
X391011Y396225D01*
X390966Y396292D01*
X390914Y396366D01*
X390863Y396447D01*
X390803Y396551D01*
X390744Y396662D01*
X390692Y396788D01*
X390641Y396921D01*
X390596Y397069D01*
X390559Y397224D01*
X390530Y397394D01*
X390507Y397572D01*
X390500Y397757D01*
Y397772D01*
Y397809D01*
X390507Y397861D01*
Y397935D01*
X390522Y398031D01*
X390537Y398134D01*
X390559Y398260D01*
X390589Y398386D01*
X390618Y398527D01*
X390663Y398667D01*
X390722Y398815D01*
X390789Y398963D01*
X390863Y399111D01*
X390959Y399259D01*
X391062Y399400D01*
X391181Y399533D01*
X391188Y399540D01*
X391210Y399563D01*
X391247Y399600D01*
X391307Y399644D01*
X391373Y399696D01*
X391455Y399755D01*
X391551Y399814D01*
X391654Y399881D01*
X391773Y399947D01*
X391906Y400007D01*
X392054Y400066D01*
X392209Y400118D01*
X392372Y400162D01*
X392550Y400199D01*
X392735Y400221D01*
X392935Y400229D01*
X393046D01*
X393105Y400221D01*
D02*
G37*
G36*
X407409Y398911D02*
X407476Y398897D01*
X407557Y398874D01*
X407653Y398845D01*
X407749Y398808D01*
X407853Y398749D01*
X407949Y398682D01*
X408053Y398593D01*
X408142Y398482D01*
X408223Y398349D01*
X408290Y398194D01*
X408349Y398016D01*
X408364Y397920D01*
X408378Y397809D01*
X408393Y397698D01*
Y397572D01*
Y395574D01*
X407446D01*
Y397394D01*
Y397402D01*
Y397431D01*
Y397468D01*
X407439Y397520D01*
X407431Y397579D01*
X407416Y397646D01*
X407372Y397794D01*
X407342Y397868D01*
X407305Y397935D01*
X407261Y398001D01*
X407209Y398060D01*
X407143Y398112D01*
X407061Y398149D01*
X406980Y398179D01*
X406876Y398186D01*
X406832D01*
X406780Y398179D01*
X406713Y398157D01*
X406647Y398134D01*
X406565Y398097D01*
X406491Y398046D01*
X406417Y397972D01*
X406410Y397964D01*
X406388Y397935D01*
X406358Y397890D01*
X406329Y397831D01*
X406299Y397750D01*
X406269Y397661D01*
X406247Y397557D01*
X406240Y397439D01*
Y395574D01*
X405285D01*
Y398837D01*
X406240D01*
Y398319D01*
X406255D01*
X406262Y398327D01*
X406269Y398349D01*
X406292Y398379D01*
X406321Y398416D01*
X406358Y398460D01*
X406403Y398512D01*
X406454Y398564D01*
X406521Y398623D01*
X406588Y398675D01*
X406669Y398726D01*
X406750Y398778D01*
X406847Y398823D01*
X406950Y398867D01*
X407061Y398897D01*
X407180Y398911D01*
X407305Y398919D01*
X407350D01*
X407409Y398911D01*
D02*
G37*
G36*
X400098Y395574D02*
X399017D01*
X397856Y398837D01*
X398877D01*
X399476Y396780D01*
X399484Y396765D01*
X399491Y396728D01*
X399506Y396662D01*
X399528Y396588D01*
X399543Y396499D01*
X399565Y396403D01*
X399580Y396307D01*
X399587Y396218D01*
X399602D01*
Y396225D01*
X399609Y396262D01*
X399617Y396307D01*
X399624Y396373D01*
X399639Y396455D01*
X399661Y396551D01*
X399683Y396654D01*
X399713Y396765D01*
X400327Y398837D01*
X401326D01*
X400098Y395574D01*
D02*
G37*
G36*
X396205Y398911D02*
X396294Y398897D01*
X396398Y398874D01*
X396516Y398845D01*
X396635Y398800D01*
X396768Y398749D01*
X396894Y398675D01*
X397012Y398586D01*
X397130Y398475D01*
X397234Y398342D01*
X397323Y398179D01*
X397389Y397994D01*
X397412Y397898D01*
X397434Y397787D01*
X397449Y397668D01*
Y397542D01*
Y395574D01*
X396538D01*
Y396048D01*
X396531D01*
Y396040D01*
X396516Y396025D01*
X396494Y395996D01*
X396472Y395959D01*
X396435Y395922D01*
X396390Y395877D01*
X396339Y395826D01*
X396287Y395774D01*
X396220Y395722D01*
X396146Y395670D01*
X396065Y395626D01*
X395976Y395589D01*
X395887Y395552D01*
X395784Y395522D01*
X395673Y395507D01*
X395554Y395500D01*
X395510D01*
X395480Y395507D01*
X395391Y395515D01*
X395288Y395530D01*
X395169Y395567D01*
X395044Y395611D01*
X394918Y395670D01*
X394807Y395759D01*
X394792Y395774D01*
X394762Y395803D01*
X394718Y395863D01*
X394666Y395944D01*
X394614Y396048D01*
X394570Y396173D01*
X394540Y396314D01*
X394526Y396477D01*
Y396484D01*
Y396521D01*
X394533Y396566D01*
X394540Y396625D01*
X394563Y396699D01*
X394585Y396780D01*
X394622Y396869D01*
X394666Y396965D01*
X394725Y397061D01*
X394799Y397158D01*
X394888Y397246D01*
X394999Y397335D01*
X395132Y397417D01*
X395280Y397483D01*
X395451Y397535D01*
X395650Y397572D01*
X396546Y397690D01*
Y397698D01*
Y397713D01*
Y397742D01*
X396538Y397779D01*
X396516Y397868D01*
X396472Y397979D01*
X396442Y398031D01*
X396405Y398083D01*
X396353Y398127D01*
X396294Y398171D01*
X396228Y398208D01*
X396146Y398238D01*
X396057Y398253D01*
X395954Y398260D01*
X395895D01*
X395858Y398253D01*
X395806D01*
X395739Y398245D01*
X395673Y398231D01*
X395599Y398216D01*
X395428Y398171D01*
X395243Y398112D01*
X395051Y398023D01*
X394947Y397964D01*
X394851Y397905D01*
Y398638D01*
X394859Y398645D01*
X394896Y398660D01*
X394940Y398682D01*
X395007Y398712D01*
X395095Y398741D01*
X395192Y398778D01*
X395310Y398808D01*
X395443Y398837D01*
X395451D01*
X395458Y398845D01*
X395502Y398852D01*
X395576Y398867D01*
X395665Y398882D01*
X395761Y398897D01*
X395865Y398904D01*
X395976Y398919D01*
X396139D01*
X396205Y398911D01*
D02*
G37*
G36*
X403309D02*
X403361Y398904D01*
X403435Y398897D01*
X403509Y398882D01*
X403591Y398867D01*
X403761Y398815D01*
X403850Y398786D01*
X403938Y398741D01*
X404027Y398689D01*
X404116Y398638D01*
X404197Y398571D01*
X404271Y398497D01*
X404279Y398490D01*
X404286Y398475D01*
X404308Y398453D01*
X404331Y398423D01*
X404360Y398379D01*
X404397Y398327D01*
X404434Y398268D01*
X404471Y398194D01*
X404501Y398120D01*
X404538Y398031D01*
X404575Y397935D01*
X404604Y397831D01*
X404627Y397720D01*
X404649Y397602D01*
X404656Y397476D01*
X404664Y397343D01*
Y396936D01*
X402518D01*
Y396928D01*
X402525Y396906D01*
Y396869D01*
X402540Y396817D01*
X402555Y396758D01*
X402577Y396691D01*
X402606Y396625D01*
X402651Y396558D01*
X402695Y396484D01*
X402762Y396418D01*
X402836Y396351D01*
X402917Y396292D01*
X403021Y396247D01*
X403139Y396203D01*
X403272Y396181D01*
X403428Y396173D01*
X403480D01*
X403517Y396181D01*
X403568D01*
X403620Y396188D01*
X403753Y396210D01*
X403901Y396240D01*
X404064Y396284D01*
X404227Y396351D01*
X404390Y396440D01*
Y395744D01*
X404382D01*
X404368Y395737D01*
X404345Y395722D01*
X404308Y395707D01*
X404264Y395685D01*
X404212Y395670D01*
X404146Y395648D01*
X404072Y395626D01*
X403990Y395596D01*
X403901Y395574D01*
X403805Y395559D01*
X403702Y395537D01*
X403591Y395522D01*
X403472Y395507D01*
X403213Y395500D01*
X403139D01*
X403087Y395507D01*
X403021Y395515D01*
X402947Y395522D01*
X402858Y395537D01*
X402769Y395552D01*
X402577Y395604D01*
X402473Y395641D01*
X402377Y395685D01*
X402273Y395737D01*
X402177Y395796D01*
X402088Y395863D01*
X402000Y395937D01*
X401992Y395944D01*
X401985Y395959D01*
X401963Y395981D01*
X401933Y396018D01*
X401903Y396062D01*
X401866Y396114D01*
X401822Y396181D01*
X401785Y396255D01*
X401748Y396336D01*
X401704Y396425D01*
X401667Y396529D01*
X401637Y396640D01*
X401607Y396751D01*
X401593Y396884D01*
X401578Y397017D01*
X401570Y397158D01*
Y397165D01*
Y397195D01*
Y397232D01*
X401578Y397291D01*
X401585Y397357D01*
X401593Y397431D01*
X401607Y397520D01*
X401630Y397609D01*
X401681Y397816D01*
X401718Y397920D01*
X401763Y398023D01*
X401815Y398134D01*
X401881Y398238D01*
X401948Y398334D01*
X402029Y398430D01*
X402037Y398438D01*
X402051Y398453D01*
X402074Y398475D01*
X402111Y398504D01*
X402155Y398541D01*
X402214Y398586D01*
X402273Y398630D01*
X402347Y398675D01*
X402429Y398719D01*
X402518Y398763D01*
X402614Y398808D01*
X402710Y398845D01*
X402821Y398874D01*
X402939Y398897D01*
X403065Y398911D01*
X403191Y398919D01*
X403258D01*
X403309Y398911D01*
D02*
G37*
%LPC*%
G36*
X396546Y397128D02*
X395932Y397054D01*
X395924D01*
X395909Y397047D01*
X395887D01*
X395850Y397039D01*
X395769Y397010D01*
X395673Y396965D01*
X395576Y396906D01*
X395495Y396825D01*
X395458Y396780D01*
X395436Y396721D01*
X395421Y396654D01*
X395414Y396588D01*
Y396580D01*
Y396558D01*
X395421Y396521D01*
X395428Y396484D01*
X395443Y396432D01*
X395465Y396381D01*
X395495Y396329D01*
X395539Y396284D01*
X395547Y396277D01*
X395562Y396270D01*
X395591Y396247D01*
X395628Y396233D01*
X395680Y396210D01*
X395739Y396188D01*
X395806Y396181D01*
X395880Y396173D01*
X395932D01*
X395983Y396188D01*
X396050Y396203D01*
X396124Y396225D01*
X396198Y396262D01*
X396279Y396314D01*
X396353Y396381D01*
X396361Y396388D01*
X396383Y396418D01*
X396413Y396462D01*
X396450Y396521D01*
X396487Y396595D01*
X396516Y396684D01*
X396538Y396788D01*
X396546Y396899D01*
Y397128D01*
D02*
G37*
G36*
X403184Y398268D02*
X403139D01*
X403095Y398260D01*
X403036Y398245D01*
X402969Y398216D01*
X402895Y398179D01*
X402821Y398127D01*
X402747Y398060D01*
X402740Y398053D01*
X402717Y398023D01*
X402688Y397979D01*
X402651Y397920D01*
X402606Y397846D01*
X402569Y397757D01*
X402532Y397653D01*
X402510Y397535D01*
X403776D01*
Y397542D01*
Y397565D01*
Y397602D01*
X403768Y397653D01*
X403761Y397705D01*
X403746Y397764D01*
X403702Y397905D01*
X403672Y397972D01*
X403635Y398038D01*
X403583Y398097D01*
X403524Y398157D01*
X403457Y398201D01*
X403376Y398238D01*
X403287Y398260D01*
X403184Y398268D01*
D02*
G37*
%LPD*%
D26*
X368200Y383189D02*
X368228Y383217D01*
X330214Y309514D02*
X330242Y309542D01*
X330200Y291700D02*
X330228Y291728D01*
X368124Y389113D02*
X368152Y389141D01*
D27*
X323600Y349500D02*
D03*
X330500D02*
D03*
X395000Y380000D02*
D03*
X401900D02*
D03*
D28*
X453283Y267036D02*
D03*
X471000Y267035D02*
D03*
X471000Y275500D02*
D03*
X453283Y275500D02*
D03*
D29*
X374220Y394328D02*
D03*
X385244D02*
D03*
X374220Y380126D02*
D03*
X385244Y380126D02*
D03*
D30*
X330740Y368118D02*
D03*
X327000D02*
D03*
X323260D02*
D03*
X323260Y357882D02*
D03*
X330740Y357882D02*
D03*
D31*
X340126Y382800D02*
D03*
X345874D02*
D03*
X346274Y390000D02*
D03*
X339726D02*
D03*
D32*
X340000Y359600D02*
D03*
Y366500D02*
D03*
D33*
X424130Y394910D02*
D03*
X424130Y379090D02*
D03*
X422560D02*
D03*
Y394910D02*
D03*
X420980Y379090D02*
D03*
Y394910D02*
D03*
X419410Y379090D02*
D03*
X419410Y394910D02*
D03*
X417830Y379090D02*
D03*
Y394910D02*
D03*
X416260Y379090D02*
D03*
Y394910D02*
D03*
X414690Y379090D02*
D03*
X414690Y394910D02*
D03*
D34*
X427320Y382280D02*
D03*
Y383850D02*
D03*
Y385430D02*
D03*
Y387000D02*
D03*
Y388580D02*
D03*
Y390150D02*
D03*
Y391720D02*
D03*
X411500D02*
D03*
X411500Y390150D02*
D03*
X411500Y388580D02*
D03*
X411500Y387000D02*
D03*
X411500Y385430D02*
D03*
X411500Y383850D02*
D03*
X411500Y382280D02*
D03*
D35*
X419410Y387000D02*
D03*
D36*
X326500Y394358D02*
D03*
X360520D02*
D03*
D37*
Y378028D02*
D03*
X326500D02*
D03*
D38*
X332134Y380116D02*
D03*
X354889D02*
D03*
D39*
X458390Y282154D02*
D03*
Y353414D02*
D03*
X336343D02*
D03*
Y282154D02*
D03*
D40*
X326500Y260500D02*
D03*
M02*
