G04*
G04 #@! TF.GenerationSoftware,Altium Limited,Altium Designer,22.0.2 (36)*
G04*
G04 Layer_Color=16711935*
%FSLAX25Y25*%
%MOIN*%
G70*
G04*
G04 #@! TF.SameCoordinates,A8AB103B-E7CB-45E0-896D-D1B8D88E5F6C*
G04*
G04*
G04 #@! TF.FilePolarity,Negative*
G04*
G01*
G75*
%ADD27R,0.04600X0.04300*%
%ADD31R,0.03950X0.04147*%
%ADD32R,0.04300X0.04600*%
%ADD36O,0.05120X0.08270*%
%ADD37O,0.05120X0.09460*%
%ADD38C,0.00800*%
%ADD39C,0.05600*%
%ADD40C,0.09400*%
%ADD63R,0.05524X0.04737*%
G04:AMPARAMS|DCode=64|XSize=46mil|YSize=43mil|CornerRadius=0mil|HoleSize=0mil|Usage=FLASHONLY|Rotation=135.000|XOffset=0mil|YOffset=0mil|HoleType=Round|Shape=Rectangle|*
%AMROTATEDRECTD64*
4,1,4,0.03147,-0.00106,0.00106,-0.03147,-0.03147,0.00106,-0.00106,0.03147,0.03147,-0.00106,0.0*
%
%ADD64ROTATEDRECTD64*%

%ADD65R,0.02572X0.04737*%
G04:AMPARAMS|DCode=66|XSize=46mil|YSize=43mil|CornerRadius=0mil|HoleSize=0mil|Usage=FLASHONLY|Rotation=45.000|XOffset=0mil|YOffset=0mil|HoleType=Round|Shape=Rectangle|*
%AMROTATEDRECTD66*
4,1,4,-0.00106,-0.03147,-0.03147,-0.00106,0.00106,0.03147,0.03147,0.00106,-0.00106,-0.03147,0.0*
%
%ADD66ROTATEDRECTD66*%

%ADD67R,0.04147X0.03950*%
%ADD68R,0.03753X0.04737*%
%ADD69O,0.06312X0.01981*%
%ADD70O,0.01981X0.06312*%
%ADD71R,0.01574X0.04924*%
%ADD72R,0.02754X0.04924*%
%ADD73R,0.14186X0.06706*%
%ADD74R,0.06706X0.03162*%
%ADD75O,0.02375X0.08674*%
D27*
X356800Y353700D02*
D03*
X349900D02*
D03*
X433100Y370500D02*
D03*
X440000D02*
D03*
X458500Y266000D02*
D03*
X465400D02*
D03*
D31*
X439374Y363000D02*
D03*
X433626D02*
D03*
X464874Y258000D02*
D03*
X459126D02*
D03*
X350358Y366753D02*
D03*
X356106D02*
D03*
X350500Y360500D02*
D03*
X356248D02*
D03*
D32*
X408726Y366271D02*
D03*
Y373171D02*
D03*
X385000Y366600D02*
D03*
Y373500D02*
D03*
X470732Y376526D02*
D03*
Y369626D02*
D03*
X379500Y279600D02*
D03*
Y286500D02*
D03*
D36*
X326500Y394358D02*
D03*
X360520D02*
D03*
D37*
Y378028D02*
D03*
X326500D02*
D03*
D38*
X332134Y380116D02*
D03*
X354889D02*
D03*
D39*
X458390Y282154D02*
D03*
Y353414D02*
D03*
X336343D02*
D03*
Y282154D02*
D03*
D40*
X326500Y260500D02*
D03*
D63*
X401710Y373745D02*
D03*
X392261Y365871D02*
D03*
Y373745D02*
D03*
X401710Y365871D02*
D03*
D64*
X375300Y357800D02*
D03*
X370421Y362679D02*
D03*
X427655Y310819D02*
D03*
X432534Y305940D02*
D03*
D65*
X436278Y391458D02*
D03*
X440018D02*
D03*
X443758D02*
D03*
X443758Y380458D02*
D03*
X440018Y380458D02*
D03*
X436278Y380458D02*
D03*
D66*
X373248Y305940D02*
D03*
X378127Y310819D02*
D03*
D67*
X436500Y280126D02*
D03*
Y285874D02*
D03*
X371000Y268000D02*
D03*
Y262252D02*
D03*
X367500Y389074D02*
D03*
Y383326D02*
D03*
D68*
X379500Y272000D02*
D03*
Y257827D02*
D03*
X322500Y369173D02*
D03*
Y355000D02*
D03*
D69*
X379662Y347311D02*
D03*
Y345342D02*
D03*
Y343374D02*
D03*
Y341405D02*
D03*
Y339437D02*
D03*
Y337468D02*
D03*
Y335500D02*
D03*
Y333531D02*
D03*
Y331563D02*
D03*
Y329594D02*
D03*
Y327626D02*
D03*
Y325657D02*
D03*
Y323689D02*
D03*
Y321720D02*
D03*
Y319752D02*
D03*
Y317783D02*
D03*
X426119D02*
D03*
Y319752D02*
D03*
Y321720D02*
D03*
Y323689D02*
D03*
Y325657D02*
D03*
Y327626D02*
D03*
Y329594D02*
D03*
Y331563D02*
D03*
Y333531D02*
D03*
Y335500D02*
D03*
Y337468D02*
D03*
Y339437D02*
D03*
Y341405D02*
D03*
Y343374D02*
D03*
X426119Y345342D02*
D03*
Y347311D02*
D03*
D70*
X388127Y309319D02*
D03*
X390096D02*
D03*
X392064D02*
D03*
X394033D02*
D03*
X396001D02*
D03*
X397970D02*
D03*
X399938D02*
D03*
X401907D02*
D03*
X403875D02*
D03*
X405844D02*
D03*
X407812D02*
D03*
X409781D02*
D03*
X411749Y309319D02*
D03*
X413718D02*
D03*
X415686D02*
D03*
X417655D02*
D03*
Y355775D02*
D03*
X415686D02*
D03*
X413718D02*
D03*
X411749D02*
D03*
X409781D02*
D03*
X407812D02*
D03*
X405844D02*
D03*
X403875D02*
D03*
X401907D02*
D03*
X399938D02*
D03*
X397970D02*
D03*
X396001D02*
D03*
X394033D02*
D03*
X392064D02*
D03*
X390096D02*
D03*
X388127D02*
D03*
D71*
X336620Y373878D02*
D03*
X338590Y373868D02*
D03*
X340560Y373878D02*
D03*
X342530Y373878D02*
D03*
X344490Y373878D02*
D03*
X346460D02*
D03*
X348430Y373878D02*
D03*
X350400D02*
D03*
D72*
X330910Y373888D02*
D03*
X334060D02*
D03*
X352960Y373878D02*
D03*
X356110Y373878D02*
D03*
D73*
X458390Y275066D02*
D03*
Y360500D02*
D03*
X336343Y360501D02*
D03*
X336343Y275067D02*
D03*
D74*
X449531Y347311D02*
D03*
X467248Y345342D02*
D03*
X449531Y343374D02*
D03*
X467248Y341405D02*
D03*
X449531Y339437D02*
D03*
X467248Y337468D02*
D03*
X449531Y335500D02*
D03*
X467248Y333531D02*
D03*
X449531Y331563D02*
D03*
X467248Y329594D02*
D03*
X449531Y327626D02*
D03*
X467248Y325657D02*
D03*
X449531Y323689D02*
D03*
X467248Y321720D02*
D03*
X449531Y319752D02*
D03*
X467248Y317783D02*
D03*
X449531Y315814D02*
D03*
X467248Y313846D02*
D03*
X449531Y311877D02*
D03*
X467248Y309909D02*
D03*
X449531Y307941D02*
D03*
X467248Y305972D02*
D03*
X449531Y304004D02*
D03*
X467248Y302035D02*
D03*
X449531Y300066D02*
D03*
X467248Y298098D02*
D03*
X449531Y296129D02*
D03*
X467248Y294161D02*
D03*
X449531Y292193D02*
D03*
X467248Y290224D02*
D03*
X449531Y288256D02*
D03*
X345201Y288256D02*
D03*
X327485Y290225D02*
D03*
X345201Y292193D02*
D03*
X327485Y294162D02*
D03*
X345201Y296130D02*
D03*
X327485Y298099D02*
D03*
X345201Y300067D02*
D03*
X327485Y302036D02*
D03*
X345201Y304004D02*
D03*
X327485Y305973D02*
D03*
X345201Y307941D02*
D03*
X327485Y309910D02*
D03*
X345201Y311878D02*
D03*
X327485Y313847D02*
D03*
X345201Y315815D02*
D03*
X327485Y317784D02*
D03*
X345201Y319753D02*
D03*
X327485Y321721D02*
D03*
X345201Y323690D02*
D03*
X327485Y325658D02*
D03*
X345201Y327626D02*
D03*
X327485Y329595D02*
D03*
X345201Y331563D02*
D03*
X327485Y333532D02*
D03*
X345201Y335501D02*
D03*
X327485Y337469D02*
D03*
X345201Y339438D02*
D03*
X327485Y341406D02*
D03*
X345201Y343374D02*
D03*
X327485Y345343D02*
D03*
X345201Y347311D02*
D03*
D75*
X422350Y288964D02*
D03*
X419594D02*
D03*
X411327D02*
D03*
X414083D02*
D03*
X403059D02*
D03*
X405815D02*
D03*
X394791D02*
D03*
X397547D02*
D03*
X425106D02*
D03*
X416839D02*
D03*
X400303D02*
D03*
X408571D02*
D03*
M02*
