G04*
G04 #@! TF.GenerationSoftware,Altium Limited,Altium Designer,22.0.2 (36)*
G04*
G04 Layer_Color=65535*
%FSLAX25Y25*%
%MOIN*%
G70*
G04*
G04 #@! TF.SameCoordinates,A8AB103B-E7CB-45E0-896D-D1B8D88E5F6C*
G04*
G04*
G04 #@! TF.FilePolarity,Positive*
G04*
G01*
G75*
%ADD10C,0.01000*%
%ADD11C,0.00590*%
%ADD12C,0.00100*%
%ADD13C,0.00500*%
%ADD14C,0.00787*%
%ADD15C,0.00600*%
%ADD16C,0.00800*%
G36*
X344181Y390000D02*
X342213Y391181D01*
Y388819D01*
X344181Y390000D01*
D02*
G37*
G36*
X329123Y335152D02*
Y334309D01*
X323795Y336514D01*
Y337380D01*
X329123Y335152D01*
D02*
G37*
G36*
X328368Y333117D02*
X326503D01*
X326496D01*
X326474D01*
X326437D01*
X326385Y333110D01*
X326333Y333103D01*
X326267Y333088D01*
X326126Y333051D01*
X326059Y333021D01*
X325993Y332984D01*
X325926Y332940D01*
X325874Y332888D01*
X325823Y332821D01*
X325786Y332747D01*
X325763Y332666D01*
X325756Y332570D01*
Y332525D01*
X325771Y332481D01*
X325786Y332422D01*
X325815Y332348D01*
X325852Y332281D01*
X325911Y332207D01*
X325985Y332141D01*
X325993Y332133D01*
X326022Y332118D01*
X326074Y332089D01*
X326141Y332059D01*
X326222Y332030D01*
X326318Y332000D01*
X326422Y331985D01*
X326540Y331978D01*
X328368D01*
Y331023D01*
X326481D01*
X326474D01*
X326452D01*
X326415D01*
X326370Y331016D01*
X326311Y331008D01*
X326252Y330994D01*
X326119Y330957D01*
X326052Y330927D01*
X325985Y330890D01*
X325926Y330846D01*
X325867Y330794D01*
X325823Y330735D01*
X325786Y330661D01*
X325763Y330579D01*
X325756Y330483D01*
Y330439D01*
X325771Y330387D01*
X325786Y330328D01*
X325808Y330261D01*
X325852Y330187D01*
X325904Y330120D01*
X325978Y330054D01*
X325985Y330046D01*
X326015Y330032D01*
X326067Y330002D01*
X326126Y329972D01*
X326215Y329943D01*
X326311Y329913D01*
X326422Y329898D01*
X326548Y329891D01*
X328368D01*
Y328936D01*
X325105D01*
Y329891D01*
X325615D01*
Y329906D01*
X325601Y329913D01*
X325571Y329935D01*
X325519Y329972D01*
X325453Y330024D01*
X325386Y330091D01*
X325312Y330165D01*
X325245Y330261D01*
X325179Y330357D01*
X325171Y330372D01*
X325157Y330409D01*
X325127Y330468D01*
X325097Y330542D01*
X325075Y330631D01*
X325046Y330735D01*
X325031Y330838D01*
X325023Y330957D01*
Y330986D01*
X325031Y331023D01*
Y331068D01*
X325046Y331127D01*
X325053Y331186D01*
X325097Y331334D01*
X325134Y331408D01*
X325171Y331489D01*
X325223Y331571D01*
X325282Y331645D01*
X325349Y331719D01*
X325438Y331785D01*
X325527Y331845D01*
X325638Y331896D01*
X325630Y331904D01*
X325608Y331911D01*
X325578Y331933D01*
X325541Y331970D01*
X325497Y332007D01*
X325445Y332059D01*
X325386Y332111D01*
X325327Y332178D01*
X325275Y332252D01*
X325216Y332333D01*
X325164Y332422D01*
X325120Y332525D01*
X325083Y332629D01*
X325053Y332747D01*
X325031Y332866D01*
X325023Y332999D01*
Y333043D01*
X325031Y333095D01*
X325046Y333169D01*
X325060Y333243D01*
X325090Y333339D01*
X325134Y333436D01*
X325186Y333532D01*
X325260Y333628D01*
X325342Y333724D01*
X325453Y333820D01*
X325578Y333902D01*
X325726Y333968D01*
X325904Y334020D01*
X326111Y334050D01*
X326222Y334065D01*
X326341D01*
X328368D01*
Y333117D01*
D02*
G37*
G36*
X326829Y328256D02*
X326896Y328248D01*
X326977Y328241D01*
X327066Y328226D01*
X327155Y328204D01*
X327362Y328145D01*
X327465Y328108D01*
X327576Y328063D01*
X327680Y328004D01*
X327784Y327937D01*
X327880Y327863D01*
X327976Y327782D01*
X327983Y327775D01*
X327998Y327760D01*
X328020Y327730D01*
X328050Y327693D01*
X328087Y327649D01*
X328124Y327590D01*
X328168Y327523D01*
X328205Y327442D01*
X328250Y327353D01*
X328294Y327257D01*
X328331Y327153D01*
X328368Y327042D01*
X328398Y326916D01*
X328420Y326783D01*
X328435Y326642D01*
X328442Y326494D01*
Y326420D01*
X328435Y326361D01*
X328427Y326295D01*
X328420Y326221D01*
X328405Y326132D01*
X328383Y326036D01*
X328331Y325836D01*
X328294Y325732D01*
X328250Y325621D01*
X328198Y325518D01*
X328139Y325414D01*
X328072Y325318D01*
X327991Y325229D01*
X327983Y325222D01*
X327969Y325207D01*
X327946Y325185D01*
X327909Y325155D01*
X327865Y325118D01*
X327806Y325081D01*
X327739Y325037D01*
X327665Y325000D01*
X327584Y324955D01*
X327488Y324911D01*
X327391Y324874D01*
X327280Y324837D01*
X327162Y324807D01*
X327036Y324785D01*
X326896Y324770D01*
X326755Y324763D01*
X326748D01*
X326718D01*
X326681D01*
X326622Y324770D01*
X326555Y324778D01*
X326474Y324785D01*
X326385Y324800D01*
X326296Y324822D01*
X326089Y324881D01*
X325985Y324918D01*
X325882Y324963D01*
X325778Y325022D01*
X325675Y325088D01*
X325578Y325162D01*
X325490Y325244D01*
X325482Y325251D01*
X325467Y325266D01*
X325445Y325296D01*
X325416Y325333D01*
X325379Y325377D01*
X325342Y325436D01*
X325297Y325510D01*
X325253Y325584D01*
X325216Y325673D01*
X325171Y325777D01*
X325134Y325880D01*
X325097Y325999D01*
X325068Y326124D01*
X325046Y326258D01*
X325031Y326398D01*
X325023Y326546D01*
Y326620D01*
X325031Y326679D01*
X325038Y326746D01*
X325046Y326820D01*
X325060Y326901D01*
X325083Y326998D01*
X325134Y327197D01*
X325171Y327301D01*
X325216Y327405D01*
X325268Y327508D01*
X325334Y327612D01*
X325401Y327708D01*
X325482Y327797D01*
X325490Y327804D01*
X325504Y327819D01*
X325527Y327841D01*
X325564Y327871D01*
X325608Y327908D01*
X325667Y327945D01*
X325726Y327989D01*
X325800Y328034D01*
X325882Y328071D01*
X325978Y328115D01*
X326074Y328152D01*
X326185Y328189D01*
X326304Y328219D01*
X326422Y328241D01*
X326555Y328256D01*
X326696Y328263D01*
X326703D01*
X326733D01*
X326770D01*
X326829Y328256D01*
D02*
G37*
G36*
X325985Y324267D02*
X325956Y324223D01*
X325919Y324156D01*
X325874Y324067D01*
X325830Y323964D01*
X325793Y323838D01*
X325763Y323705D01*
X325756Y323564D01*
Y323520D01*
X325763Y323490D01*
X325771Y323409D01*
X325786Y323312D01*
X325823Y323201D01*
X325867Y323083D01*
X325934Y322965D01*
X326022Y322861D01*
X326037Y322846D01*
X326074Y322817D01*
X326133Y322780D01*
X326215Y322728D01*
X326318Y322676D01*
X326444Y322639D01*
X326592Y322609D01*
X326755Y322595D01*
X326762D01*
X326777D01*
X326799D01*
X326829Y322602D01*
X326910Y322609D01*
X327007Y322624D01*
X327125Y322654D01*
X327236Y322698D01*
X327354Y322765D01*
X327458Y322846D01*
X327465Y322861D01*
X327495Y322891D01*
X327539Y322950D01*
X327584Y323024D01*
X327636Y323127D01*
X327673Y323246D01*
X327702Y323379D01*
X327717Y323534D01*
Y323571D01*
X327710Y323601D01*
X327702Y323675D01*
X327687Y323771D01*
X327658Y323882D01*
X327613Y324008D01*
X327554Y324141D01*
X327473Y324274D01*
X328250D01*
Y324267D01*
X328257Y324260D01*
X328265Y324237D01*
X328279Y324215D01*
X328294Y324178D01*
X328309Y324134D01*
X328331Y324082D01*
X328346Y324023D01*
X328383Y323890D01*
X328413Y323719D01*
X328435Y323527D01*
X328442Y323305D01*
Y323231D01*
X328435Y323179D01*
X328427Y323113D01*
X328420Y323039D01*
X328405Y322957D01*
X328383Y322868D01*
X328331Y322676D01*
X328294Y322580D01*
X328250Y322476D01*
X328198Y322373D01*
X328139Y322276D01*
X328072Y322180D01*
X327991Y322091D01*
X327983Y322084D01*
X327969Y322069D01*
X327946Y322047D01*
X327909Y322017D01*
X327865Y321988D01*
X327806Y321943D01*
X327747Y321906D01*
X327673Y321862D01*
X327591Y321818D01*
X327502Y321781D01*
X327406Y321736D01*
X327303Y321707D01*
X327192Y321677D01*
X327073Y321655D01*
X326947Y321640D01*
X326814Y321633D01*
X326807D01*
X326777D01*
X326733D01*
X326674Y321640D01*
X326607Y321647D01*
X326526Y321662D01*
X326437Y321677D01*
X326341Y321692D01*
X326133Y321751D01*
X326022Y321795D01*
X325911Y321840D01*
X325800Y321899D01*
X325697Y321966D01*
X325601Y322040D01*
X325504Y322128D01*
X325497Y322136D01*
X325482Y322151D01*
X325460Y322180D01*
X325430Y322217D01*
X325393Y322269D01*
X325349Y322328D01*
X325312Y322402D01*
X325260Y322484D01*
X325216Y322572D01*
X325179Y322669D01*
X325134Y322780D01*
X325097Y322898D01*
X325068Y323024D01*
X325046Y323157D01*
X325031Y323305D01*
X325023Y323453D01*
Y323542D01*
X325031Y323594D01*
Y323645D01*
X325046Y323764D01*
X325060Y323897D01*
X325090Y324038D01*
X325127Y324171D01*
X325179Y324282D01*
X325993D01*
X325985Y324267D01*
D02*
G37*
G36*
X328020Y321078D02*
X328072Y321063D01*
X328131Y321048D01*
X328191Y321018D01*
X328250Y320974D01*
X328309Y320922D01*
X328316Y320915D01*
X328331Y320893D01*
X328353Y320856D01*
X328376Y320811D01*
X328398Y320752D01*
X328420Y320685D01*
X328435Y320604D01*
X328442Y320515D01*
Y320478D01*
X328435Y320434D01*
X328427Y320382D01*
X328405Y320315D01*
X328383Y320249D01*
X328346Y320182D01*
X328302Y320116D01*
X328294Y320108D01*
X328279Y320093D01*
X328242Y320064D01*
X328205Y320034D01*
X328154Y320005D01*
X328094Y319975D01*
X328020Y319960D01*
X327946Y319953D01*
X327939D01*
X327909D01*
X327865Y319960D01*
X327821Y319975D01*
X327761Y319997D01*
X327702Y320027D01*
X327643Y320064D01*
X327584Y320123D01*
X327576Y320130D01*
X327562Y320153D01*
X327539Y320190D01*
X327510Y320241D01*
X327480Y320301D01*
X327458Y320367D01*
X327443Y320441D01*
X327436Y320530D01*
Y320567D01*
X327443Y320611D01*
X327451Y320663D01*
X327473Y320730D01*
X327495Y320789D01*
X327532Y320856D01*
X327584Y320922D01*
X327591Y320930D01*
X327606Y320944D01*
X327643Y320974D01*
X327680Y321004D01*
X327732Y321033D01*
X327798Y321063D01*
X327865Y321078D01*
X327946Y321085D01*
X327954D01*
X327983D01*
X328020Y321078D01*
D02*
G37*
G36*
X326777Y319413D02*
X326851Y319405D01*
X326925Y319398D01*
X327014Y319383D01*
X327110Y319368D01*
X327325Y319324D01*
X327539Y319250D01*
X327650Y319205D01*
X327754Y319146D01*
X327858Y319087D01*
X327954Y319013D01*
X327961Y319006D01*
X327976Y318998D01*
X327998Y318969D01*
X328028Y318939D01*
X328065Y318902D01*
X328109Y318850D01*
X328154Y318798D01*
X328198Y318732D01*
X328242Y318658D01*
X328287Y318576D01*
X328331Y318488D01*
X328368Y318399D01*
X328398Y318295D01*
X328420Y318184D01*
X328435Y318066D01*
X328442Y317947D01*
Y317888D01*
X328435Y317851D01*
X328427Y317799D01*
X328420Y317740D01*
X328383Y317607D01*
X328331Y317459D01*
X328287Y317378D01*
X328242Y317304D01*
X328191Y317230D01*
X328131Y317156D01*
X328057Y317089D01*
X327976Y317030D01*
Y317015D01*
X328368D01*
Y316060D01*
X323536D01*
Y317015D01*
X325601D01*
Y317030D01*
X325593Y317037D01*
X325578Y317045D01*
X325549Y317067D01*
X325512Y317096D01*
X325467Y317141D01*
X325416Y317185D01*
X325364Y317244D01*
X325312Y317304D01*
X325260Y317378D01*
X325208Y317459D01*
X325157Y317540D01*
X325112Y317637D01*
X325075Y317740D01*
X325046Y317851D01*
X325031Y317970D01*
X325023Y318095D01*
Y318155D01*
X325031Y318199D01*
X325038Y318251D01*
X325046Y318310D01*
X325075Y318451D01*
X325127Y318606D01*
X325164Y318687D01*
X325208Y318769D01*
X325260Y318843D01*
X325312Y318924D01*
X325386Y318998D01*
X325460Y319065D01*
X325467Y319072D01*
X325482Y319080D01*
X325504Y319094D01*
X325541Y319124D01*
X325586Y319146D01*
X325638Y319176D01*
X325697Y319213D01*
X325771Y319242D01*
X325852Y319279D01*
X325941Y319309D01*
X326037Y319339D01*
X326141Y319368D01*
X326252Y319390D01*
X326378Y319405D01*
X326503Y319413D01*
X326644Y319420D01*
X326651D01*
X326681D01*
X326725D01*
X326777Y319413D01*
D02*
G37*
G36*
X328368Y314247D02*
X327872D01*
Y314233D01*
X327880Y314225D01*
X327895Y314218D01*
X327924Y314196D01*
X327961Y314166D01*
X328006Y314129D01*
X328050Y314085D01*
X328102Y314033D01*
X328154Y313966D01*
X328265Y313826D01*
X328353Y313655D01*
X328390Y313559D01*
X328420Y313456D01*
X328435Y313352D01*
X328442Y313234D01*
Y313182D01*
X328435Y313130D01*
X328420Y313056D01*
X328398Y312967D01*
X328368Y312871D01*
X328324Y312767D01*
X328272Y312664D01*
X328198Y312553D01*
X328109Y312449D01*
X327998Y312353D01*
X327865Y312264D01*
X327710Y312190D01*
X327525Y312138D01*
X327421Y312116D01*
X327317Y312101D01*
X327199Y312087D01*
X327073D01*
X325105D01*
Y313041D01*
X326984D01*
X326992D01*
X327014D01*
X327051Y313049D01*
X327095D01*
X327155Y313056D01*
X327214Y313071D01*
X327347Y313115D01*
X327421Y313145D01*
X327488Y313182D01*
X327547Y313226D01*
X327599Y313285D01*
X327650Y313352D01*
X327687Y313426D01*
X327710Y313515D01*
X327717Y313618D01*
Y313663D01*
X327710Y313722D01*
X327695Y313781D01*
X327665Y313855D01*
X327636Y313937D01*
X327584Y314011D01*
X327517Y314077D01*
X327510Y314085D01*
X327480Y314107D01*
X327436Y314129D01*
X327377Y314166D01*
X327295Y314196D01*
X327206Y314218D01*
X327095Y314240D01*
X326977Y314247D01*
X325105D01*
Y315195D01*
X328368D01*
Y314247D01*
D02*
G37*
G36*
Y310370D02*
X326511D01*
X326503D01*
X326481D01*
X326444D01*
X326392Y310362D01*
X326333Y310355D01*
X326274Y310340D01*
X326133Y310303D01*
X326059Y310274D01*
X325993Y310237D01*
X325934Y310192D01*
X325874Y310140D01*
X325823Y310074D01*
X325786Y310000D01*
X325763Y309918D01*
X325756Y309822D01*
Y309778D01*
X325763Y309726D01*
X325786Y309659D01*
X325808Y309593D01*
X325845Y309511D01*
X325897Y309437D01*
X325971Y309363D01*
X325978Y309356D01*
X326008Y309334D01*
X326052Y309304D01*
X326119Y309275D01*
X326193Y309245D01*
X326289Y309215D01*
X326392Y309193D01*
X326511Y309186D01*
X328368D01*
Y308231D01*
X323536D01*
Y309186D01*
X325593D01*
Y309201D01*
X325586Y309208D01*
X325571Y309215D01*
X325541Y309238D01*
X325504Y309267D01*
X325460Y309304D01*
X325416Y309356D01*
X325364Y309408D01*
X325305Y309467D01*
X325201Y309615D01*
X325112Y309785D01*
X325075Y309881D01*
X325046Y309985D01*
X325031Y310089D01*
X325023Y310207D01*
Y310259D01*
X325031Y310311D01*
X325046Y310385D01*
X325060Y310466D01*
X325097Y310562D01*
X325134Y310658D01*
X325194Y310769D01*
X325260Y310873D01*
X325349Y310969D01*
X325460Y311065D01*
X325586Y311147D01*
X325741Y311221D01*
X325919Y311280D01*
X326126Y311310D01*
X326244Y311324D01*
X326363D01*
X328368D01*
Y310370D01*
D02*
G37*
G36*
X328339Y307639D02*
X328346Y307610D01*
X328368Y307558D01*
X328383Y307484D01*
X328405Y307395D01*
X328427Y307284D01*
X328435Y307151D01*
X328442Y306995D01*
Y306951D01*
X328435Y306899D01*
X328427Y306833D01*
X328405Y306751D01*
X328383Y306662D01*
X328353Y306574D01*
X328309Y306477D01*
X328250Y306374D01*
X328176Y306285D01*
X328087Y306196D01*
X327983Y306115D01*
X327858Y306048D01*
X327710Y305996D01*
X327547Y305967D01*
X327354Y305952D01*
X325815D01*
Y305419D01*
X325105D01*
Y305952D01*
X324387D01*
X324113Y306907D01*
X325105D01*
Y307647D01*
X325815D01*
Y306907D01*
X327192D01*
X327199D01*
X327214D01*
X327243D01*
X327273Y306914D01*
X327354Y306929D01*
X327451Y306958D01*
X327554Y307010D01*
X327636Y307084D01*
X327665Y307129D01*
X327695Y307188D01*
X327710Y307247D01*
X327717Y307321D01*
Y307351D01*
X327710Y307380D01*
X327702Y307417D01*
X327695Y307469D01*
X327673Y307521D01*
X327650Y307587D01*
X327621Y307647D01*
X328331D01*
X328339Y307639D01*
D02*
G37*
G36*
X328368Y303917D02*
X325105D01*
Y304872D01*
X328368D01*
Y303917D01*
D02*
G37*
G36*
X324121Y304946D02*
X324172Y304931D01*
X324232Y304916D01*
X324291Y304886D01*
X324350Y304849D01*
X324409Y304798D01*
X324417Y304790D01*
X324431Y304768D01*
X324454Y304738D01*
X324476Y304687D01*
X324505Y304635D01*
X324528Y304561D01*
X324542Y304487D01*
X324550Y304398D01*
Y304361D01*
X324542Y304317D01*
X324535Y304257D01*
X324513Y304198D01*
X324491Y304132D01*
X324454Y304065D01*
X324409Y304006D01*
X324402Y303998D01*
X324380Y303984D01*
X324350Y303954D01*
X324306Y303932D01*
X324254Y303902D01*
X324195Y303873D01*
X324121Y303858D01*
X324047Y303850D01*
X324039D01*
X324010D01*
X323973Y303858D01*
X323921Y303873D01*
X323869Y303887D01*
X323802Y303917D01*
X323743Y303954D01*
X323691Y304006D01*
X323684Y304013D01*
X323669Y304035D01*
X323647Y304065D01*
X323617Y304117D01*
X323595Y304169D01*
X323573Y304235D01*
X323558Y304317D01*
X323551Y304398D01*
Y304442D01*
X323558Y304487D01*
X323566Y304546D01*
X323588Y304605D01*
X323610Y304672D01*
X323647Y304738D01*
X323691Y304798D01*
X323699Y304805D01*
X323714Y304820D01*
X323751Y304849D01*
X323788Y304879D01*
X323839Y304901D01*
X323899Y304931D01*
X323973Y304946D01*
X324047Y304953D01*
X324054D01*
X324084D01*
X324121Y304946D01*
D02*
G37*
G36*
X328161Y303059D02*
X328235Y303051D01*
X328324Y303036D01*
X328420Y303022D01*
X328524Y302999D01*
X328635Y302977D01*
X328746Y302940D01*
X328864Y302896D01*
X328982Y302851D01*
X329093Y302785D01*
X329204Y302718D01*
X329308Y302637D01*
X329404Y302548D01*
X329412Y302541D01*
X329426Y302526D01*
X329449Y302496D01*
X329478Y302452D01*
X329523Y302400D01*
X329560Y302333D01*
X329604Y302259D01*
X329648Y302171D01*
X329700Y302067D01*
X329745Y301956D01*
X329782Y301830D01*
X329819Y301697D01*
X329856Y301556D01*
X329878Y301401D01*
X329893Y301231D01*
X329900Y301053D01*
Y300942D01*
X329893Y300890D01*
Y300824D01*
X329878Y300676D01*
X329856Y300506D01*
X329819Y300335D01*
X329774Y300158D01*
X329708Y300002D01*
X328894D01*
Y300010D01*
X328908Y300025D01*
X328923Y300054D01*
X328938Y300091D01*
X328960Y300136D01*
X328990Y300195D01*
X329012Y300254D01*
X329042Y300321D01*
X329093Y300476D01*
X329145Y300654D01*
X329175Y300839D01*
X329190Y301031D01*
Y301083D01*
X329182Y301112D01*
Y301157D01*
X329175Y301209D01*
X329153Y301320D01*
X329123Y301453D01*
X329071Y301586D01*
X329005Y301712D01*
X328916Y301830D01*
X328901Y301845D01*
X328864Y301875D01*
X328805Y301919D01*
X328716Y301978D01*
X328612Y302030D01*
X328487Y302074D01*
X328339Y302104D01*
X328168Y302119D01*
X327895D01*
Y302104D01*
X327902Y302097D01*
X327917Y302089D01*
X327946Y302067D01*
X327983Y302037D01*
X328020Y302000D01*
X328065Y301956D01*
X328117Y301904D01*
X328168Y301845D01*
X328220Y301778D01*
X328272Y301697D01*
X328316Y301616D01*
X328353Y301527D01*
X328390Y301423D01*
X328420Y301312D01*
X328435Y301201D01*
X328442Y301075D01*
Y301016D01*
X328435Y300972D01*
X328427Y300920D01*
X328420Y300861D01*
X328390Y300720D01*
X328339Y300557D01*
X328302Y300476D01*
X328257Y300395D01*
X328205Y300313D01*
X328146Y300232D01*
X328080Y300158D01*
X328006Y300084D01*
X327998Y300076D01*
X327983Y300069D01*
X327961Y300047D01*
X327924Y300025D01*
X327880Y299995D01*
X327828Y299965D01*
X327769Y299936D01*
X327695Y299899D01*
X327613Y299862D01*
X327525Y299832D01*
X327428Y299803D01*
X327325Y299773D01*
X327214Y299751D01*
X327095Y299729D01*
X326962Y299721D01*
X326829Y299714D01*
X326822D01*
X326792D01*
X326748D01*
X326696Y299721D01*
X326622Y299729D01*
X326540Y299736D01*
X326452Y299751D01*
X326355Y299766D01*
X326148Y299810D01*
X325926Y299884D01*
X325823Y299936D01*
X325719Y299988D01*
X325615Y300047D01*
X325519Y300121D01*
X325512Y300128D01*
X325497Y300143D01*
X325475Y300165D01*
X325438Y300195D01*
X325401Y300239D01*
X325364Y300284D01*
X325319Y300343D01*
X325268Y300409D01*
X325223Y300483D01*
X325179Y300565D01*
X325097Y300742D01*
X325068Y300846D01*
X325046Y300957D01*
X325031Y301075D01*
X325023Y301194D01*
Y301253D01*
X325031Y301290D01*
X325038Y301342D01*
X325046Y301401D01*
X325083Y301534D01*
X325134Y301682D01*
X325171Y301756D01*
X325223Y301838D01*
X325275Y301904D01*
X325334Y301978D01*
X325408Y302045D01*
X325490Y302104D01*
Y302119D01*
X325105D01*
Y303066D01*
X328013D01*
X328020D01*
X328050D01*
X328102D01*
X328161Y303059D01*
D02*
G37*
G36*
X329123Y297316D02*
Y296473D01*
X323795Y298678D01*
Y299544D01*
X329123Y297316D01*
D02*
G37*
G36*
Y294452D02*
Y293609D01*
X323795Y295814D01*
Y296680D01*
X329123Y294452D01*
D02*
G37*
G36*
X328020Y293431D02*
X328072Y293416D01*
X328131Y293402D01*
X328191Y293372D01*
X328250Y293328D01*
X328309Y293276D01*
X328316Y293268D01*
X328331Y293246D01*
X328353Y293209D01*
X328376Y293165D01*
X328398Y293106D01*
X328420Y293039D01*
X328435Y292958D01*
X328442Y292869D01*
Y292832D01*
X328435Y292787D01*
X328427Y292736D01*
X328405Y292669D01*
X328383Y292602D01*
X328346Y292536D01*
X328302Y292469D01*
X328294Y292462D01*
X328279Y292447D01*
X328242Y292417D01*
X328205Y292388D01*
X328154Y292358D01*
X328094Y292329D01*
X328020Y292314D01*
X327946Y292306D01*
X327939D01*
X327909D01*
X327865Y292314D01*
X327821Y292329D01*
X327761Y292351D01*
X327702Y292380D01*
X327643Y292417D01*
X327584Y292477D01*
X327576Y292484D01*
X327562Y292506D01*
X327539Y292543D01*
X327510Y292595D01*
X327480Y292654D01*
X327458Y292721D01*
X327443Y292795D01*
X327436Y292884D01*
Y292921D01*
X327443Y292965D01*
X327451Y293017D01*
X327473Y293083D01*
X327495Y293143D01*
X327532Y293209D01*
X327584Y293276D01*
X327591Y293283D01*
X327606Y293298D01*
X327643Y293328D01*
X327680Y293357D01*
X327732Y293387D01*
X327798Y293416D01*
X327865Y293431D01*
X327946Y293439D01*
X327954D01*
X327983D01*
X328020Y293431D01*
D02*
G37*
G36*
X325645D02*
X325697Y293416D01*
X325756Y293402D01*
X325815Y293372D01*
X325874Y293328D01*
X325934Y293276D01*
X325941Y293268D01*
X325956Y293246D01*
X325978Y293209D01*
X326000Y293165D01*
X326030Y293106D01*
X326052Y293039D01*
X326067Y292958D01*
X326074Y292869D01*
Y292832D01*
X326067Y292787D01*
X326059Y292728D01*
X326037Y292669D01*
X326015Y292602D01*
X325978Y292536D01*
X325934Y292469D01*
X325926Y292462D01*
X325904Y292447D01*
X325874Y292417D01*
X325830Y292388D01*
X325778Y292358D01*
X325712Y292329D01*
X325645Y292314D01*
X325564Y292306D01*
X325556D01*
X325527D01*
X325482Y292314D01*
X325438Y292329D01*
X325379Y292351D01*
X325319Y292380D01*
X325260Y292417D01*
X325201Y292477D01*
X325194Y292484D01*
X325179Y292506D01*
X325157Y292543D01*
X325127Y292595D01*
X325105Y292654D01*
X325083Y292721D01*
X325068Y292795D01*
X325060Y292884D01*
Y292921D01*
X325068Y292965D01*
X325075Y293017D01*
X325097Y293083D01*
X325120Y293143D01*
X325157Y293209D01*
X325201Y293276D01*
X325208Y293283D01*
X325223Y293298D01*
X325260Y293328D01*
X325297Y293357D01*
X325349Y293387D01*
X325416Y293416D01*
X325482Y293431D01*
X325564Y293439D01*
X325571D01*
X325601D01*
X325645Y293431D01*
D02*
G37*
G36*
X327465Y291840D02*
X327510Y291833D01*
X327562Y291825D01*
X327673Y291796D01*
X327798Y291751D01*
X327932Y291677D01*
X327991Y291633D01*
X328057Y291574D01*
X328117Y291515D01*
X328168Y291441D01*
Y291433D01*
X328183Y291418D01*
X328191Y291396D01*
X328213Y291367D01*
X328235Y291322D01*
X328257Y291278D01*
X328279Y291219D01*
X328302Y291152D01*
X328331Y291078D01*
X328353Y290997D01*
X328376Y290908D01*
X328398Y290812D01*
X328427Y290597D01*
X328442Y290360D01*
Y290271D01*
X328435Y290220D01*
Y290168D01*
X328420Y290035D01*
X328405Y289887D01*
X328376Y289724D01*
X328339Y289546D01*
X328287Y289376D01*
X327495D01*
Y289383D01*
X327510Y289398D01*
X327525Y289428D01*
X327539Y289457D01*
X327562Y289502D01*
X327591Y289554D01*
X327643Y289679D01*
X327695Y289827D01*
X327747Y289983D01*
X327776Y290153D01*
X327791Y290331D01*
Y290382D01*
X327784Y290427D01*
X327776Y290516D01*
X327754Y290627D01*
X327710Y290738D01*
X327658Y290834D01*
X327621Y290871D01*
X327576Y290900D01*
X327532Y290915D01*
X327473Y290923D01*
X327465D01*
X327436Y290915D01*
X327391Y290900D01*
X327340Y290863D01*
X327288Y290804D01*
X327251Y290767D01*
X327221Y290715D01*
X327192Y290664D01*
X327162Y290597D01*
X327132Y290523D01*
X327103Y290434D01*
Y290427D01*
X327095Y290405D01*
X327081Y290375D01*
X327066Y290338D01*
X327051Y290286D01*
X327029Y290227D01*
X326977Y290101D01*
X326918Y289961D01*
X326844Y289827D01*
X326762Y289702D01*
X326725Y289642D01*
X326681Y289598D01*
X326666Y289591D01*
X326637Y289561D01*
X326585Y289531D01*
X326511Y289487D01*
X326422Y289450D01*
X326318Y289413D01*
X326193Y289383D01*
X326052Y289376D01*
X326045D01*
X326030D01*
X326008D01*
X325971Y289383D01*
X325882Y289398D01*
X325778Y289428D01*
X325660Y289472D01*
X325534Y289539D01*
X325467Y289583D01*
X325408Y289635D01*
X325349Y289694D01*
X325297Y289761D01*
Y289768D01*
X325282Y289776D01*
X325275Y289798D01*
X325253Y289835D01*
X325231Y289872D01*
X325208Y289916D01*
X325186Y289975D01*
X325157Y290035D01*
X325134Y290109D01*
X325112Y290183D01*
X325068Y290360D01*
X325038Y290560D01*
X325023Y290789D01*
Y290863D01*
X325031Y290908D01*
Y290952D01*
X325038Y291063D01*
X325053Y291196D01*
X325083Y291344D01*
X325112Y291500D01*
X325157Y291655D01*
X325904D01*
Y291648D01*
X325897Y291640D01*
X325882Y291618D01*
X325867Y291589D01*
X325830Y291507D01*
X325793Y291404D01*
X325749Y291278D01*
X325719Y291137D01*
X325689Y290982D01*
X325682Y290812D01*
Y290775D01*
X325689Y290730D01*
Y290678D01*
X325719Y290560D01*
X325734Y290501D01*
X325763Y290442D01*
Y290434D01*
X325778Y290419D01*
X325823Y290375D01*
X325889Y290331D01*
X325934Y290316D01*
X325978Y290308D01*
X325985D01*
X326015Y290316D01*
X326052Y290331D01*
X326104Y290360D01*
X326163Y290412D01*
X326222Y290486D01*
X326252Y290530D01*
X326281Y290590D01*
X326311Y290649D01*
X326341Y290723D01*
Y290730D01*
X326348Y290745D01*
X326355Y290767D01*
X326363Y290797D01*
X326392Y290878D01*
X326429Y290974D01*
X326474Y291078D01*
X326518Y291189D01*
X326563Y291300D01*
X326614Y291389D01*
X326622Y291396D01*
X326637Y291426D01*
X326659Y291463D01*
X326696Y291515D01*
X326740Y291566D01*
X326799Y291626D01*
X326859Y291677D01*
X326933Y291729D01*
X326940Y291737D01*
X326970Y291751D01*
X327007Y291766D01*
X327058Y291788D01*
X327125Y291811D01*
X327206Y291833D01*
X327288Y291840D01*
X327384Y291848D01*
X327391D01*
X327406D01*
X327436D01*
X327465Y291840D01*
D02*
G37*
G36*
X326777Y288777D02*
X326851Y288769D01*
X326933Y288762D01*
X327021Y288747D01*
X327118Y288732D01*
X327325Y288680D01*
X327539Y288606D01*
X327650Y288562D01*
X327754Y288510D01*
X327858Y288444D01*
X327954Y288370D01*
X327961Y288362D01*
X327976Y288347D01*
X327998Y288325D01*
X328028Y288296D01*
X328065Y288259D01*
X328109Y288207D01*
X328154Y288148D01*
X328198Y288081D01*
X328242Y288014D01*
X328287Y287933D01*
X328368Y287748D01*
X328398Y287644D01*
X328420Y287541D01*
X328435Y287422D01*
X328442Y287304D01*
Y287245D01*
X328435Y287208D01*
X328427Y287156D01*
X328420Y287097D01*
X328383Y286964D01*
X328331Y286816D01*
X328287Y286742D01*
X328242Y286668D01*
X328191Y286594D01*
X328131Y286520D01*
X328057Y286453D01*
X327976Y286394D01*
Y286379D01*
X329870D01*
Y285424D01*
X325105D01*
Y286379D01*
X325601D01*
Y286394D01*
X325593Y286401D01*
X325578Y286409D01*
X325549Y286431D01*
X325512Y286460D01*
X325467Y286505D01*
X325416Y286549D01*
X325364Y286601D01*
X325312Y286668D01*
X325260Y286742D01*
X325208Y286816D01*
X325157Y286904D01*
X325112Y287001D01*
X325075Y287104D01*
X325046Y287208D01*
X325031Y287326D01*
X325023Y287452D01*
Y287511D01*
X325031Y287556D01*
X325038Y287607D01*
X325046Y287667D01*
X325075Y287807D01*
X325127Y287963D01*
X325164Y288044D01*
X325208Y288125D01*
X325260Y288207D01*
X325312Y288288D01*
X325386Y288362D01*
X325460Y288429D01*
X325467Y288436D01*
X325482Y288444D01*
X325504Y288458D01*
X325541Y288488D01*
X325586Y288510D01*
X325638Y288540D01*
X325697Y288577D01*
X325771Y288606D01*
X325852Y288643D01*
X325941Y288673D01*
X326037Y288703D01*
X326141Y288732D01*
X326259Y288754D01*
X326378Y288769D01*
X326511Y288777D01*
X326644Y288784D01*
X326651D01*
X326681D01*
X326725D01*
X326777Y288777D01*
D02*
G37*
G36*
X328339Y284832D02*
X328346Y284803D01*
X328368Y284751D01*
X328383Y284677D01*
X328405Y284588D01*
X328427Y284477D01*
X328435Y284344D01*
X328442Y284189D01*
Y284144D01*
X328435Y284092D01*
X328427Y284026D01*
X328405Y283944D01*
X328383Y283856D01*
X328353Y283767D01*
X328309Y283671D01*
X328250Y283567D01*
X328176Y283478D01*
X328087Y283389D01*
X327983Y283308D01*
X327858Y283241D01*
X327710Y283190D01*
X327547Y283160D01*
X327354Y283145D01*
X325815D01*
Y282612D01*
X325105D01*
Y283145D01*
X324387D01*
X324113Y284100D01*
X325105D01*
Y284840D01*
X325815D01*
Y284100D01*
X327192D01*
X327199D01*
X327214D01*
X327243D01*
X327273Y284107D01*
X327354Y284122D01*
X327451Y284152D01*
X327554Y284203D01*
X327636Y284277D01*
X327665Y284322D01*
X327695Y284381D01*
X327710Y284440D01*
X327717Y284514D01*
Y284544D01*
X327710Y284573D01*
X327702Y284610D01*
X327695Y284662D01*
X327673Y284714D01*
X327650Y284781D01*
X327621Y284840D01*
X328331D01*
X328339Y284832D01*
D02*
G37*
G36*
Y282324D02*
X328346Y282294D01*
X328368Y282242D01*
X328383Y282168D01*
X328405Y282080D01*
X328427Y281969D01*
X328435Y281835D01*
X328442Y281680D01*
Y281636D01*
X328435Y281584D01*
X328427Y281517D01*
X328405Y281436D01*
X328383Y281347D01*
X328353Y281258D01*
X328309Y281162D01*
X328250Y281058D01*
X328176Y280970D01*
X328087Y280881D01*
X327983Y280799D01*
X327858Y280733D01*
X327710Y280681D01*
X327547Y280651D01*
X327354Y280637D01*
X325815D01*
Y280104D01*
X325105D01*
Y280637D01*
X324387D01*
X324113Y281591D01*
X325105D01*
Y282331D01*
X325815D01*
Y281591D01*
X327192D01*
X327199D01*
X327214D01*
X327243D01*
X327273Y281599D01*
X327354Y281613D01*
X327451Y281643D01*
X327554Y281695D01*
X327636Y281769D01*
X327665Y281813D01*
X327695Y281872D01*
X327710Y281932D01*
X327717Y282006D01*
Y282035D01*
X327710Y282065D01*
X327702Y282102D01*
X327695Y282154D01*
X327673Y282205D01*
X327650Y282272D01*
X327621Y282331D01*
X328331D01*
X328339Y282324D01*
D02*
G37*
G36*
X328368Y278639D02*
X326511D01*
X326503D01*
X326481D01*
X326444D01*
X326392Y278631D01*
X326333Y278624D01*
X326274Y278609D01*
X326133Y278572D01*
X326059Y278542D01*
X325993Y278505D01*
X325934Y278461D01*
X325874Y278409D01*
X325823Y278343D01*
X325786Y278269D01*
X325763Y278187D01*
X325756Y278091D01*
Y278047D01*
X325763Y277995D01*
X325786Y277928D01*
X325808Y277862D01*
X325845Y277780D01*
X325897Y277706D01*
X325971Y277632D01*
X325978Y277625D01*
X326008Y277603D01*
X326052Y277573D01*
X326119Y277543D01*
X326193Y277514D01*
X326289Y277484D01*
X326392Y277462D01*
X326511Y277455D01*
X328368D01*
Y276500D01*
X323536D01*
Y277455D01*
X325593D01*
Y277469D01*
X325586Y277477D01*
X325571Y277484D01*
X325541Y277506D01*
X325504Y277536D01*
X325460Y277573D01*
X325416Y277625D01*
X325364Y277677D01*
X325305Y277736D01*
X325201Y277884D01*
X325112Y278054D01*
X325075Y278150D01*
X325046Y278254D01*
X325031Y278357D01*
X325023Y278476D01*
Y278528D01*
X325031Y278579D01*
X325046Y278653D01*
X325060Y278735D01*
X325097Y278831D01*
X325134Y278927D01*
X325194Y279038D01*
X325260Y279142D01*
X325349Y279238D01*
X325460Y279334D01*
X325586Y279416D01*
X325741Y279490D01*
X325919Y279549D01*
X326126Y279578D01*
X326244Y279593D01*
X326363D01*
X328368D01*
Y278639D01*
D02*
G37*
G36*
X462942Y262621D02*
X463009D01*
X463083Y262614D01*
X463164Y262606D01*
X463342Y262584D01*
X463534Y262555D01*
X463719Y262510D01*
X463897Y262451D01*
Y261533D01*
X463889Y261541D01*
X463875Y261548D01*
X463852Y261563D01*
X463815Y261585D01*
X463771Y261607D01*
X463719Y261637D01*
X463660Y261667D01*
X463593Y261696D01*
X463431Y261748D01*
X463246Y261800D01*
X463038Y261837D01*
X462935Y261852D01*
X462757D01*
X462691Y261844D01*
X462609Y261837D01*
X462520Y261822D01*
X462424Y261792D01*
X462328Y261763D01*
X462239Y261718D01*
X462232Y261711D01*
X462210Y261696D01*
X462173Y261667D01*
X462136Y261622D01*
X462091Y261570D01*
X462062Y261511D01*
X462032Y261445D01*
X462025Y261363D01*
Y261356D01*
Y261334D01*
X462032Y261297D01*
X462047Y261260D01*
X462062Y261208D01*
X462084Y261149D01*
X462121Y261097D01*
X462173Y261038D01*
X462180Y261030D01*
X462202Y261008D01*
X462254Y260978D01*
X462321Y260934D01*
X462365Y260904D01*
X462417Y260875D01*
X462476Y260838D01*
X462543Y260801D01*
X462624Y260764D01*
X462705Y260719D01*
X462802Y260675D01*
X462905Y260631D01*
X462913D01*
X462935Y260616D01*
X462972Y260601D01*
X463016Y260579D01*
X463068Y260557D01*
X463135Y260520D01*
X463275Y260446D01*
X463431Y260357D01*
X463586Y260253D01*
X463727Y260135D01*
X463786Y260076D01*
X463838Y260016D01*
X463852Y260002D01*
X463882Y259957D01*
X463919Y259891D01*
X463971Y259794D01*
X464015Y259683D01*
X464060Y259550D01*
X464089Y259402D01*
X464097Y259239D01*
Y259232D01*
Y259210D01*
Y259180D01*
X464089Y259128D01*
X464082Y259077D01*
X464074Y259010D01*
X464037Y258869D01*
X463986Y258707D01*
X463949Y258625D01*
X463897Y258544D01*
X463845Y258462D01*
X463786Y258381D01*
X463712Y258307D01*
X463630Y258240D01*
X463623D01*
X463608Y258226D01*
X463579Y258211D01*
X463542Y258189D01*
X463497Y258159D01*
X463438Y258129D01*
X463371Y258100D01*
X463290Y258070D01*
X463201Y258041D01*
X463105Y258011D01*
X462994Y257981D01*
X462876Y257952D01*
X462750Y257930D01*
X462609Y257915D01*
X462461Y257907D01*
X462306Y257900D01*
X462232D01*
X462173Y257907D01*
X462106D01*
X462032Y257915D01*
X461943Y257922D01*
X461854Y257930D01*
X461647Y257959D01*
X461433Y258004D01*
X461218Y258063D01*
X461018Y258144D01*
Y259121D01*
X461026Y259114D01*
X461040Y259099D01*
X461070Y259077D01*
X461114Y259047D01*
X461166Y259017D01*
X461225Y258973D01*
X461299Y258936D01*
X461381Y258892D01*
X461470Y258847D01*
X461566Y258810D01*
X461780Y258736D01*
X461891Y258707D01*
X462010Y258684D01*
X462136Y258670D01*
X462269Y258662D01*
X462335D01*
X462409Y258670D01*
X462491Y258677D01*
X462594Y258699D01*
X462691Y258721D01*
X462787Y258758D01*
X462868Y258803D01*
X462876Y258810D01*
X462898Y258825D01*
X462935Y258862D01*
X462972Y258899D01*
X463009Y258951D01*
X463046Y259010D01*
X463068Y259084D01*
X463075Y259158D01*
Y259165D01*
Y259188D01*
X463068Y259225D01*
X463053Y259269D01*
X463038Y259321D01*
X463009Y259380D01*
X462964Y259447D01*
X462913Y259506D01*
X462905Y259513D01*
X462876Y259535D01*
X462824Y259572D01*
X462794Y259602D01*
X462750Y259624D01*
X462698Y259654D01*
X462639Y259691D01*
X462572Y259728D01*
X462491Y259765D01*
X462402Y259809D01*
X462306Y259861D01*
X462195Y259905D01*
X462069Y259957D01*
X462054Y259965D01*
X462025Y259979D01*
X461973Y260002D01*
X461899Y260039D01*
X461817Y260090D01*
X461729Y260150D01*
X461632Y260216D01*
X461536Y260290D01*
X461433Y260379D01*
X461336Y260483D01*
X461248Y260586D01*
X461166Y260705D01*
X461092Y260838D01*
X461040Y260971D01*
X461011Y261126D01*
X460996Y261282D01*
Y261289D01*
Y261311D01*
Y261341D01*
X461003Y261385D01*
X461011Y261437D01*
X461026Y261504D01*
X461055Y261644D01*
X461114Y261807D01*
X461151Y261889D01*
X461203Y261970D01*
X461255Y262051D01*
X461322Y262125D01*
X461396Y262207D01*
X461484Y262273D01*
X461492Y262281D01*
X461507Y262288D01*
X461536Y262303D01*
X461573Y262333D01*
X461625Y262355D01*
X461684Y262384D01*
X461751Y262421D01*
X461832Y262451D01*
X461914Y262488D01*
X462017Y262518D01*
X462121Y262547D01*
X462232Y262577D01*
X462358Y262599D01*
X462491Y262614D01*
X462624Y262621D01*
X462772Y262629D01*
X462883D01*
X462942Y262621D01*
D02*
G37*
G36*
X468026Y261748D02*
X466716D01*
Y257974D01*
X465739D01*
Y261748D01*
X464437D01*
Y262547D01*
X468026D01*
Y261748D01*
D02*
G37*
G36*
X458754Y262540D02*
X458865Y262525D01*
X458983Y262510D01*
X459124Y262481D01*
X459272Y262444D01*
X459427Y262392D01*
X459575Y262325D01*
X459723Y262244D01*
X459864Y262140D01*
X459990Y262022D01*
X460093Y261881D01*
X460175Y261711D01*
X460204Y261622D01*
X460226Y261526D01*
X460234Y261415D01*
X460241Y261304D01*
Y261297D01*
Y261282D01*
Y261260D01*
X460234Y261223D01*
Y261186D01*
X460226Y261141D01*
X460204Y261030D01*
X460175Y260904D01*
X460123Y260771D01*
X460056Y260638D01*
X459967Y260505D01*
X459953Y260490D01*
X459916Y260453D01*
X459856Y260394D01*
X459768Y260320D01*
X459664Y260246D01*
X459531Y260164D01*
X459383Y260098D01*
X459213Y260039D01*
Y260024D01*
X459220D01*
X459227Y260016D01*
X459272Y260002D01*
X459331Y259957D01*
X459420Y259898D01*
X459472Y259854D01*
X459523Y259809D01*
X459583Y259750D01*
X459642Y259683D01*
X459708Y259609D01*
X459775Y259528D01*
X459842Y259432D01*
X459916Y259328D01*
X460774Y257974D01*
X459657D01*
X458939Y259158D01*
Y259165D01*
X458931Y259173D01*
X458902Y259217D01*
X458857Y259284D01*
X458813Y259358D01*
X458754Y259439D01*
X458687Y259513D01*
X458628Y259580D01*
X458569Y259632D01*
X458561Y259639D01*
X458547Y259646D01*
X458517Y259669D01*
X458480Y259691D01*
X458384Y259728D01*
X458332Y259735D01*
X458273Y259743D01*
X457977D01*
Y257974D01*
X457000D01*
Y262547D01*
X458680D01*
X458754Y262540D01*
D02*
G37*
G36*
X339157Y339875D02*
X339172Y339868D01*
X339209Y339853D01*
X339268Y339823D01*
X339349Y339786D01*
X339445Y339742D01*
X339549Y339675D01*
X339660Y339609D01*
X339778Y339527D01*
X339897Y339431D01*
X340008Y339328D01*
X340111Y339209D01*
X340208Y339083D01*
X340282Y338950D01*
X340348Y338802D01*
X340385Y338639D01*
X340400Y338469D01*
Y338410D01*
X340393Y338343D01*
Y338262D01*
X340378Y338166D01*
X340363Y338070D01*
X340348Y337973D01*
X340319Y337892D01*
X339556D01*
X339564Y337899D01*
X339571Y337929D01*
X339593Y337966D01*
X339608Y338018D01*
X339630Y338084D01*
X339653Y338151D01*
X339660Y338232D01*
X339667Y338321D01*
Y338336D01*
X339660Y338388D01*
X339645Y338454D01*
X339623Y338536D01*
X339579Y338625D01*
X339505Y338713D01*
X339468Y338758D01*
X339416Y338802D01*
X339357Y338839D01*
X339290Y338869D01*
X338868Y339046D01*
X335605Y337737D01*
Y338787D01*
X337655Y339424D01*
X337662D01*
X337684Y339431D01*
X337729Y339446D01*
X337773Y339461D01*
X337840Y339468D01*
X337906Y339483D01*
X337988Y339498D01*
X338069Y339513D01*
Y339527D01*
X338062D01*
X338039Y339535D01*
X338002Y339542D01*
X337958Y339550D01*
X337899Y339564D01*
X337825Y339579D01*
X337743Y339601D01*
X337655Y339624D01*
X335605Y340275D01*
Y341222D01*
X339157Y339875D01*
D02*
G37*
G36*
X338839Y337574D02*
X338846Y337544D01*
X338868Y337492D01*
X338883Y337418D01*
X338905Y337330D01*
X338927Y337219D01*
X338935Y337085D01*
X338942Y336930D01*
Y336886D01*
X338935Y336834D01*
X338927Y336767D01*
X338905Y336686D01*
X338883Y336597D01*
X338853Y336508D01*
X338809Y336412D01*
X338750Y336308D01*
X338676Y336220D01*
X338587Y336131D01*
X338483Y336049D01*
X338358Y335983D01*
X338210Y335931D01*
X338047Y335901D01*
X337854Y335887D01*
X336315D01*
Y335354D01*
X335605D01*
Y335887D01*
X334887D01*
X334613Y336841D01*
X335605D01*
Y337581D01*
X336315D01*
Y336841D01*
X337692D01*
X337699D01*
X337714D01*
X337743D01*
X337773Y336849D01*
X337854Y336863D01*
X337951Y336893D01*
X338054Y336945D01*
X338136Y337019D01*
X338165Y337063D01*
X338195Y337122D01*
X338210Y337182D01*
X338217Y337256D01*
Y337285D01*
X338210Y337315D01*
X338202Y337352D01*
X338195Y337404D01*
X338173Y337455D01*
X338150Y337522D01*
X338121Y337581D01*
X338831D01*
X338839Y337574D01*
D02*
G37*
G36*
Y335065D02*
X338846Y335036D01*
X338868Y334984D01*
X338883Y334910D01*
X338905Y334821D01*
X338927Y334710D01*
X338935Y334577D01*
X338942Y334421D01*
Y334377D01*
X338935Y334325D01*
X338927Y334259D01*
X338905Y334177D01*
X338883Y334088D01*
X338853Y334000D01*
X338809Y333903D01*
X338750Y333800D01*
X338676Y333711D01*
X338587Y333622D01*
X338483Y333541D01*
X338358Y333474D01*
X338210Y333422D01*
X338047Y333393D01*
X337854Y333378D01*
X336315D01*
Y332845D01*
X335605D01*
Y333378D01*
X334887D01*
X334613Y334333D01*
X335605D01*
Y335073D01*
X336315D01*
Y334333D01*
X337692D01*
X337699D01*
X337714D01*
X337743D01*
X337773Y334340D01*
X337854Y334355D01*
X337951Y334384D01*
X338054Y334436D01*
X338136Y334510D01*
X338165Y334555D01*
X338195Y334614D01*
X338210Y334673D01*
X338217Y334747D01*
Y334777D01*
X338210Y334806D01*
X338202Y334843D01*
X338195Y334895D01*
X338173Y334947D01*
X338150Y335013D01*
X338121Y335073D01*
X338831D01*
X338839Y335065D01*
D02*
G37*
G36*
X338868Y331343D02*
X335605D01*
Y332298D01*
X338868D01*
Y331343D01*
D02*
G37*
G36*
X334621Y332372D02*
X334672Y332357D01*
X334732Y332342D01*
X334791Y332312D01*
X334850Y332275D01*
X334909Y332224D01*
X334917Y332216D01*
X334931Y332194D01*
X334954Y332164D01*
X334976Y332113D01*
X335005Y332061D01*
X335028Y331987D01*
X335042Y331913D01*
X335050Y331824D01*
Y331787D01*
X335042Y331743D01*
X335035Y331683D01*
X335013Y331624D01*
X334991Y331558D01*
X334954Y331491D01*
X334909Y331432D01*
X334902Y331424D01*
X334880Y331410D01*
X334850Y331380D01*
X334806Y331358D01*
X334754Y331328D01*
X334695Y331299D01*
X334621Y331284D01*
X334547Y331276D01*
X334539D01*
X334510D01*
X334473Y331284D01*
X334421Y331299D01*
X334369Y331313D01*
X334302Y331343D01*
X334243Y331380D01*
X334191Y331432D01*
X334184Y331439D01*
X334169Y331461D01*
X334147Y331491D01*
X334117Y331543D01*
X334095Y331595D01*
X334073Y331661D01*
X334058Y331743D01*
X334051Y331824D01*
Y331868D01*
X334058Y331913D01*
X334066Y331972D01*
X334088Y332031D01*
X334110Y332098D01*
X334147Y332164D01*
X334191Y332224D01*
X334199Y332231D01*
X334214Y332246D01*
X334251Y332275D01*
X334288Y332305D01*
X334339Y332327D01*
X334399Y332357D01*
X334473Y332372D01*
X334547Y332379D01*
X334554D01*
X334584D01*
X334621Y332372D01*
D02*
G37*
G36*
X338868Y329648D02*
Y328561D01*
X335886Y327784D01*
X335871D01*
X335842Y327776D01*
X335797Y327761D01*
X335731Y327747D01*
X335657Y327739D01*
X335568Y327724D01*
X335383Y327710D01*
Y327695D01*
X335398D01*
X335435Y327687D01*
X335486Y327680D01*
X335560Y327673D01*
X335642Y327665D01*
X335723Y327650D01*
X335805Y327636D01*
X335886Y327613D01*
X338868Y326814D01*
Y325689D01*
X334295Y324468D01*
Y325541D01*
X337396Y326222D01*
X337403D01*
X337433Y326230D01*
X337477Y326237D01*
X337536Y326244D01*
X337610Y326259D01*
X337699Y326267D01*
X337803Y326274D01*
X337914Y326281D01*
Y326304D01*
X337899D01*
X337869Y326311D01*
X337817D01*
X337758Y326318D01*
X337677Y326333D01*
X337588Y326348D01*
X337484Y326370D01*
X337381Y326392D01*
X334295Y327243D01*
Y328279D01*
X337418Y329056D01*
X337425D01*
X337455Y329064D01*
X337492Y329071D01*
X337551Y329086D01*
X337625Y329093D01*
X337706Y329108D01*
X337803Y329116D01*
X337906Y329130D01*
Y329145D01*
X337891D01*
X337862D01*
X337810Y329153D01*
X337743Y329160D01*
X337669Y329167D01*
X337588Y329182D01*
X337403Y329212D01*
X334295Y329878D01*
Y330869D01*
X338868Y329648D01*
D02*
G37*
G36*
X336463Y324357D02*
X336456Y324335D01*
X336441Y324298D01*
X336419Y324246D01*
X336397Y324187D01*
X336382Y324113D01*
X336374Y324032D01*
X336367Y323943D01*
Y323891D01*
X336382Y323832D01*
X336397Y323758D01*
X336426Y323677D01*
X336471Y323588D01*
X336537Y323506D01*
X336619Y323425D01*
X336633Y323418D01*
X336663Y323395D01*
X336722Y323366D01*
X336796Y323329D01*
X336892Y323292D01*
X337011Y323262D01*
X337144Y323240D01*
X337299Y323233D01*
X338868D01*
Y322278D01*
X335605D01*
Y323233D01*
X336219D01*
Y323247D01*
X336212D01*
X336189Y323262D01*
X336160Y323277D01*
X336115Y323292D01*
X336064Y323321D01*
X336004Y323358D01*
X335879Y323447D01*
X335819Y323499D01*
X335760Y323558D01*
X335701Y323632D01*
X335649Y323706D01*
X335605Y323795D01*
X335575Y323891D01*
X335553Y323995D01*
X335546Y324106D01*
Y324165D01*
X335553Y324202D01*
X335560Y324291D01*
X335568Y324328D01*
X335583Y324365D01*
X336471D01*
X336463Y324357D01*
D02*
G37*
G36*
X337507Y319510D02*
X337514D01*
X337536Y319518D01*
X337573D01*
X337625Y319533D01*
X337684Y319547D01*
X337751Y319570D01*
X337817Y319599D01*
X337884Y319644D01*
X337958Y319688D01*
X338025Y319755D01*
X338091Y319829D01*
X338150Y319910D01*
X338195Y320014D01*
X338239Y320132D01*
X338261Y320265D01*
X338269Y320421D01*
Y320472D01*
X338261Y320509D01*
Y320561D01*
X338254Y320613D01*
X338232Y320746D01*
X338202Y320894D01*
X338158Y321057D01*
X338091Y321220D01*
X338002Y321383D01*
X338698D01*
Y321375D01*
X338705Y321360D01*
X338720Y321338D01*
X338735Y321301D01*
X338757Y321257D01*
X338772Y321205D01*
X338794Y321138D01*
X338816Y321064D01*
X338846Y320983D01*
X338868Y320894D01*
X338883Y320798D01*
X338905Y320694D01*
X338920Y320583D01*
X338935Y320465D01*
X338942Y320206D01*
Y320132D01*
X338935Y320080D01*
X338927Y320014D01*
X338920Y319940D01*
X338905Y319851D01*
X338890Y319762D01*
X338839Y319570D01*
X338802Y319466D01*
X338757Y319370D01*
X338705Y319266D01*
X338646Y319170D01*
X338580Y319081D01*
X338506Y318992D01*
X338498Y318985D01*
X338483Y318978D01*
X338461Y318955D01*
X338424Y318926D01*
X338380Y318896D01*
X338328Y318859D01*
X338261Y318815D01*
X338187Y318778D01*
X338106Y318741D01*
X338017Y318696D01*
X337914Y318659D01*
X337803Y318630D01*
X337692Y318600D01*
X337558Y318585D01*
X337425Y318571D01*
X337285Y318563D01*
X337277D01*
X337248D01*
X337211D01*
X337151Y318571D01*
X337085Y318578D01*
X337011Y318585D01*
X336922Y318600D01*
X336833Y318622D01*
X336626Y318674D01*
X336522Y318711D01*
X336419Y318756D01*
X336308Y318807D01*
X336204Y318874D01*
X336108Y318941D01*
X336012Y319022D01*
X336004Y319029D01*
X335990Y319044D01*
X335967Y319066D01*
X335938Y319103D01*
X335901Y319148D01*
X335856Y319207D01*
X335812Y319266D01*
X335768Y319340D01*
X335723Y319422D01*
X335679Y319510D01*
X335634Y319607D01*
X335597Y319703D01*
X335568Y319814D01*
X335546Y319932D01*
X335531Y320058D01*
X335523Y320184D01*
Y320250D01*
X335531Y320302D01*
X335538Y320354D01*
X335546Y320428D01*
X335560Y320502D01*
X335575Y320583D01*
X335627Y320754D01*
X335657Y320842D01*
X335701Y320931D01*
X335753Y321020D01*
X335805Y321109D01*
X335871Y321190D01*
X335945Y321264D01*
X335953Y321272D01*
X335967Y321279D01*
X335990Y321301D01*
X336019Y321323D01*
X336064Y321353D01*
X336115Y321390D01*
X336175Y321427D01*
X336249Y321464D01*
X336323Y321494D01*
X336411Y321531D01*
X336508Y321568D01*
X336611Y321597D01*
X336722Y321619D01*
X336841Y321642D01*
X336966Y321649D01*
X337100Y321656D01*
X337507D01*
Y319510D01*
D02*
G37*
G36*
X337277Y318075D02*
X337351Y318067D01*
X337433Y318060D01*
X337521Y318045D01*
X337618Y318030D01*
X337825Y317979D01*
X338039Y317905D01*
X338150Y317860D01*
X338254Y317808D01*
X338358Y317742D01*
X338454Y317668D01*
X338461Y317660D01*
X338476Y317646D01*
X338498Y317623D01*
X338528Y317594D01*
X338565Y317557D01*
X338609Y317505D01*
X338654Y317446D01*
X338698Y317379D01*
X338742Y317313D01*
X338787Y317231D01*
X338868Y317046D01*
X338898Y316943D01*
X338920Y316839D01*
X338935Y316721D01*
X338942Y316602D01*
Y316543D01*
X338935Y316506D01*
X338927Y316454D01*
X338920Y316395D01*
X338883Y316262D01*
X338831Y316114D01*
X338787Y316040D01*
X338742Y315966D01*
X338691Y315892D01*
X338631Y315818D01*
X338557Y315751D01*
X338476Y315692D01*
Y315677D01*
X340370D01*
Y314723D01*
X335605D01*
Y315677D01*
X336101D01*
Y315692D01*
X336093Y315699D01*
X336078Y315707D01*
X336049Y315729D01*
X336012Y315759D01*
X335967Y315803D01*
X335916Y315847D01*
X335864Y315899D01*
X335812Y315966D01*
X335760Y316040D01*
X335708Y316114D01*
X335657Y316203D01*
X335612Y316299D01*
X335575Y316402D01*
X335546Y316506D01*
X335531Y316624D01*
X335523Y316750D01*
Y316809D01*
X335531Y316854D01*
X335538Y316906D01*
X335546Y316965D01*
X335575Y317105D01*
X335627Y317261D01*
X335664Y317342D01*
X335708Y317424D01*
X335760Y317505D01*
X335812Y317586D01*
X335886Y317660D01*
X335960Y317727D01*
X335967Y317734D01*
X335982Y317742D01*
X336004Y317757D01*
X336041Y317786D01*
X336086Y317808D01*
X336138Y317838D01*
X336197Y317875D01*
X336271Y317905D01*
X336352Y317942D01*
X336441Y317971D01*
X336537Y318001D01*
X336641Y318030D01*
X336759Y318053D01*
X336878Y318067D01*
X337011Y318075D01*
X337144Y318082D01*
X337151D01*
X337181D01*
X337225D01*
X337277Y318075D01*
D02*
G37*
G36*
X338868Y312917D02*
X335605D01*
Y313872D01*
X338868D01*
Y312917D01*
D02*
G37*
G36*
X334621Y313946D02*
X334672Y313931D01*
X334732Y313916D01*
X334791Y313886D01*
X334850Y313849D01*
X334909Y313798D01*
X334917Y313790D01*
X334931Y313768D01*
X334954Y313738D01*
X334976Y313687D01*
X335005Y313635D01*
X335028Y313561D01*
X335042Y313487D01*
X335050Y313398D01*
Y313361D01*
X335042Y313317D01*
X335035Y313257D01*
X335013Y313198D01*
X334991Y313132D01*
X334954Y313065D01*
X334909Y313006D01*
X334902Y312998D01*
X334880Y312984D01*
X334850Y312954D01*
X334806Y312932D01*
X334754Y312902D01*
X334695Y312873D01*
X334621Y312858D01*
X334547Y312850D01*
X334539D01*
X334510D01*
X334473Y312858D01*
X334421Y312873D01*
X334369Y312887D01*
X334302Y312917D01*
X334243Y312954D01*
X334191Y313006D01*
X334184Y313013D01*
X334169Y313035D01*
X334147Y313065D01*
X334117Y313117D01*
X334095Y313169D01*
X334073Y313235D01*
X334058Y313317D01*
X334051Y313398D01*
Y313442D01*
X334058Y313487D01*
X334066Y313546D01*
X334088Y313605D01*
X334110Y313672D01*
X334147Y313738D01*
X334191Y313798D01*
X334199Y313805D01*
X334214Y313820D01*
X334251Y313849D01*
X334288Y313879D01*
X334339Y313901D01*
X334399Y313931D01*
X334473Y313946D01*
X334547Y313953D01*
X334554D01*
X334584D01*
X334621Y313946D01*
D02*
G37*
G36*
X338868Y311496D02*
Y310490D01*
X336907Y309987D01*
X336900D01*
X336870Y309979D01*
X336833Y309972D01*
X336781Y309964D01*
X336722Y309957D01*
X336656Y309950D01*
X336508Y309935D01*
Y309913D01*
X336515D01*
X336545D01*
X336589Y309905D01*
X336641Y309898D01*
X336707Y309890D01*
X336767Y309883D01*
X336900Y309853D01*
X338868Y309313D01*
Y308322D01*
X335605Y307389D01*
Y308366D01*
X337773Y308840D01*
X337780D01*
X337795Y308847D01*
X337825D01*
X337862Y308854D01*
X337914Y308862D01*
X337973Y308877D01*
X338047Y308884D01*
X338128Y308891D01*
Y308914D01*
X338121D01*
X338091D01*
X338054Y308921D01*
X338002Y308928D01*
X337884Y308943D01*
X337758Y308965D01*
X335605Y309550D01*
Y310453D01*
X337773Y310978D01*
X337780D01*
X337788Y310986D01*
X337817D01*
X337854Y310993D01*
X337899Y311000D01*
X337965Y311008D01*
X338039Y311015D01*
X338136Y311023D01*
Y311045D01*
X338128D01*
X338106D01*
X338076Y311052D01*
X338032Y311060D01*
X337980Y311067D01*
X337914Y311074D01*
X337773Y311097D01*
X335605Y311555D01*
Y312436D01*
X338868Y311496D01*
D02*
G37*
G36*
X337714Y307093D02*
X337766Y307086D01*
X337832Y307078D01*
X337973Y307041D01*
X338136Y306990D01*
X338217Y306953D01*
X338298Y306901D01*
X338380Y306849D01*
X338461Y306790D01*
X338535Y306716D01*
X338602Y306634D01*
Y306627D01*
X338617Y306612D01*
X338631Y306583D01*
X338654Y306546D01*
X338683Y306501D01*
X338713Y306442D01*
X338742Y306375D01*
X338772Y306294D01*
X338802Y306205D01*
X338831Y306109D01*
X338861Y305998D01*
X338890Y305880D01*
X338913Y305754D01*
X338927Y305613D01*
X338935Y305465D01*
X338942Y305310D01*
Y305236D01*
X338935Y305177D01*
Y305110D01*
X338927Y305036D01*
X338920Y304947D01*
X338913Y304858D01*
X338883Y304651D01*
X338839Y304437D01*
X338779Y304222D01*
X338698Y304022D01*
X337721D01*
X337729Y304030D01*
X337743Y304044D01*
X337766Y304074D01*
X337795Y304118D01*
X337825Y304170D01*
X337869Y304229D01*
X337906Y304303D01*
X337951Y304385D01*
X337995Y304474D01*
X338032Y304570D01*
X338106Y304784D01*
X338136Y304895D01*
X338158Y305014D01*
X338173Y305140D01*
X338180Y305273D01*
Y305339D01*
X338173Y305413D01*
X338165Y305495D01*
X338143Y305598D01*
X338121Y305695D01*
X338084Y305791D01*
X338039Y305872D01*
X338032Y305880D01*
X338017Y305902D01*
X337980Y305939D01*
X337943Y305976D01*
X337891Y306013D01*
X337832Y306050D01*
X337758Y306072D01*
X337684Y306079D01*
X337677D01*
X337655D01*
X337618Y306072D01*
X337573Y306057D01*
X337521Y306042D01*
X337462Y306013D01*
X337396Y305968D01*
X337336Y305917D01*
X337329Y305909D01*
X337307Y305880D01*
X337270Y305828D01*
X337240Y305798D01*
X337218Y305754D01*
X337188Y305702D01*
X337151Y305643D01*
X337114Y305576D01*
X337077Y305495D01*
X337033Y305406D01*
X336981Y305310D01*
X336937Y305199D01*
X336885Y305073D01*
X336878Y305058D01*
X336863Y305029D01*
X336841Y304977D01*
X336804Y304903D01*
X336752Y304821D01*
X336693Y304733D01*
X336626Y304636D01*
X336552Y304540D01*
X336463Y304437D01*
X336360Y304340D01*
X336256Y304252D01*
X336138Y304170D01*
X336004Y304096D01*
X335871Y304044D01*
X335716Y304015D01*
X335560Y304000D01*
X335553D01*
X335531D01*
X335501D01*
X335457Y304007D01*
X335405Y304015D01*
X335338Y304030D01*
X335198Y304059D01*
X335035Y304118D01*
X334954Y304155D01*
X334872Y304207D01*
X334791Y304259D01*
X334717Y304326D01*
X334635Y304400D01*
X334569Y304488D01*
X334561Y304496D01*
X334554Y304511D01*
X334539Y304540D01*
X334510Y304577D01*
X334487Y304629D01*
X334458Y304688D01*
X334421Y304755D01*
X334391Y304836D01*
X334354Y304918D01*
X334325Y305021D01*
X334295Y305125D01*
X334265Y305236D01*
X334243Y305362D01*
X334228Y305495D01*
X334221Y305628D01*
X334214Y305776D01*
Y305887D01*
X334221Y305946D01*
Y306013D01*
X334228Y306087D01*
X334236Y306168D01*
X334258Y306346D01*
X334288Y306538D01*
X334332Y306723D01*
X334391Y306901D01*
X335309D01*
X335301Y306893D01*
X335294Y306879D01*
X335279Y306856D01*
X335257Y306819D01*
X335235Y306775D01*
X335205Y306723D01*
X335176Y306664D01*
X335146Y306597D01*
X335094Y306435D01*
X335042Y306250D01*
X335005Y306042D01*
X334991Y305939D01*
Y305761D01*
X334998Y305695D01*
X335005Y305613D01*
X335020Y305524D01*
X335050Y305428D01*
X335079Y305332D01*
X335124Y305243D01*
X335131Y305236D01*
X335146Y305214D01*
X335176Y305177D01*
X335220Y305140D01*
X335272Y305095D01*
X335331Y305066D01*
X335398Y305036D01*
X335479Y305029D01*
X335486D01*
X335509D01*
X335546Y305036D01*
X335583Y305051D01*
X335634Y305066D01*
X335694Y305088D01*
X335745Y305125D01*
X335805Y305177D01*
X335812Y305184D01*
X335834Y305206D01*
X335864Y305258D01*
X335908Y305325D01*
X335938Y305369D01*
X335967Y305421D01*
X336004Y305480D01*
X336041Y305547D01*
X336078Y305628D01*
X336123Y305709D01*
X336167Y305806D01*
X336212Y305909D01*
Y305917D01*
X336226Y305939D01*
X336241Y305976D01*
X336263Y306020D01*
X336286Y306072D01*
X336323Y306139D01*
X336397Y306279D01*
X336485Y306435D01*
X336589Y306590D01*
X336707Y306731D01*
X336767Y306790D01*
X336826Y306842D01*
X336841Y306856D01*
X336885Y306886D01*
X336952Y306923D01*
X337048Y306975D01*
X337159Y307019D01*
X337292Y307064D01*
X337440Y307093D01*
X337603Y307101D01*
X337610D01*
X337632D01*
X337662D01*
X337714Y307093D01*
D02*
G37*
G36*
X407532Y387500D02*
X397386D01*
X397475Y387507D01*
X397556Y387522D01*
X397623Y387544D01*
X397682Y387567D01*
X397727Y387589D01*
X397764Y387611D01*
X397786Y387626D01*
X397793Y387633D01*
X397845Y387692D01*
X397889Y387752D01*
X397919Y387811D01*
X397934Y387870D01*
X397949Y387922D01*
X397956Y387959D01*
Y387996D01*
X397949Y388077D01*
X397934Y388144D01*
X397904Y388210D01*
X397875Y388262D01*
X397845Y388299D01*
X397815Y388336D01*
X397801Y388351D01*
X397793Y388358D01*
X397727Y388410D01*
X397660Y388447D01*
X397601Y388469D01*
X397534Y388492D01*
X397482Y388499D01*
X397438Y388506D01*
X397401D01*
X397312Y388499D01*
X397238Y388484D01*
X397172Y388462D01*
X397112Y388432D01*
X397061Y388403D01*
X397024Y388381D01*
X397001Y388366D01*
X396994Y388358D01*
X396935Y388299D01*
X396898Y388240D01*
X396868Y388181D01*
X396846Y388122D01*
X396831Y388077D01*
X396824Y388033D01*
Y387996D01*
X396831Y387922D01*
X396846Y387848D01*
X396876Y387789D01*
X396905Y387737D01*
X396935Y387700D01*
X396964Y387663D01*
X396979Y387648D01*
X396987Y387641D01*
X397053Y387596D01*
X397120Y387559D01*
X397186Y387537D01*
X397253Y387515D01*
X397305Y387507D01*
X397349Y387500D01*
X394404D01*
X394552Y387507D01*
X394685Y387515D01*
X394818Y387537D01*
X394937Y387559D01*
X395055Y387581D01*
X395159Y387618D01*
X395255Y387648D01*
X395344Y387685D01*
X395418Y387715D01*
X395484Y387752D01*
X395544Y387781D01*
X395588Y387803D01*
X395625Y387833D01*
X395655Y387848D01*
X395669Y387855D01*
X395677Y387863D01*
X395758Y387937D01*
X395832Y388011D01*
X395899Y388092D01*
X395958Y388173D01*
X396002Y388262D01*
X396039Y388344D01*
X396099Y388506D01*
X396136Y388654D01*
X396143Y388714D01*
X396150Y388773D01*
X396158Y388817D01*
Y388876D01*
X396143Y389032D01*
X396113Y389172D01*
X396069Y389298D01*
X396017Y389402D01*
X395958Y389483D01*
X395914Y389550D01*
X395884Y389587D01*
X395869Y389602D01*
X395751Y389705D01*
X395625Y389779D01*
X395499Y389838D01*
X395381Y389890D01*
X395270Y389920D01*
X395188Y389935D01*
X395151Y389942D01*
X395129Y389949D01*
X395107D01*
Y389964D01*
X395270Y390016D01*
X395410Y390083D01*
X395529Y390157D01*
X395632Y390238D01*
X395721Y390327D01*
X395795Y390423D01*
X395854Y390519D01*
X395906Y390615D01*
X395943Y390712D01*
X395973Y390800D01*
X395988Y390882D01*
X396002Y390948D01*
X396010Y391015D01*
X396017Y391059D01*
Y391089D01*
Y391096D01*
X396010Y391193D01*
X396002Y391289D01*
X395951Y391452D01*
X395891Y391592D01*
X395817Y391711D01*
X395736Y391807D01*
X395677Y391873D01*
X395625Y391910D01*
X395618Y391925D01*
X395610D01*
X395447Y392029D01*
X395270Y392103D01*
X395100Y392155D01*
X394929Y392192D01*
X394781Y392214D01*
X394715Y392221D01*
X394663D01*
X394619Y392229D01*
X394552D01*
X394323Y392221D01*
X394108Y392192D01*
X393923Y392147D01*
X393834Y392125D01*
X393760Y392103D01*
X393686Y392081D01*
X393627Y392058D01*
X393568Y392036D01*
X393523Y392014D01*
X393494Y391999D01*
X393464Y391984D01*
X393449Y391977D01*
X393442D01*
Y391193D01*
X393605Y391296D01*
X393760Y391370D01*
X393916Y391422D01*
X394049Y391459D01*
X394167Y391481D01*
X394219Y391489D01*
X394256D01*
X394293Y391496D01*
X394337D01*
X394463Y391489D01*
X394567Y391474D01*
X394663Y391444D01*
X394744Y391407D01*
X394811Y391355D01*
X394870Y391311D01*
X394915Y391252D01*
X394952Y391200D01*
X394981Y391148D01*
X395003Y391089D01*
X395033Y391000D01*
Y390956D01*
X395040Y390926D01*
Y390911D01*
Y390904D01*
X395033Y390793D01*
X395003Y390704D01*
X394959Y390623D01*
X394900Y390549D01*
X394826Y390490D01*
X394752Y390438D01*
X394670Y390401D01*
X394582Y390364D01*
X394411Y390319D01*
X394337Y390312D01*
X394263Y390297D01*
X394204D01*
X394160Y390290D01*
X393745D01*
Y389550D01*
X394152D01*
X394323Y389542D01*
X394478Y389520D01*
X394604Y389498D01*
X394715Y389468D01*
X394796Y389431D01*
X394855Y389409D01*
X394892Y389387D01*
X394907Y389380D01*
X394996Y389313D01*
X395063Y389232D01*
X395114Y389150D01*
X395144Y389069D01*
X395166Y388995D01*
X395174Y388936D01*
X395181Y388899D01*
Y388891D01*
Y388884D01*
X395174Y388773D01*
X395144Y388677D01*
X395107Y388588D01*
X395070Y388521D01*
X395026Y388469D01*
X394989Y388425D01*
X394959Y388403D01*
X394952Y388395D01*
X394863Y388336D01*
X394759Y388299D01*
X394663Y388270D01*
X394559Y388247D01*
X394471Y388233D01*
X394404Y388225D01*
X394337D01*
X394226Y388233D01*
X394115Y388240D01*
X393916Y388277D01*
X393731Y388336D01*
X393575Y388395D01*
X393509Y388425D01*
X393449Y388455D01*
X393398Y388484D01*
X393353Y388514D01*
X393316Y388536D01*
X393294Y388551D01*
X393279Y388566D01*
X393272D01*
Y387722D01*
X393442Y387648D01*
X393627Y387596D01*
X393819Y387552D01*
X393997Y387530D01*
X394086Y387522D01*
X394160Y387515D01*
X394226Y387507D01*
X394286D01*
X394337Y387500D01*
X391000D01*
Y392251D01*
X400220D01*
X399991Y392095D01*
X399754Y391955D01*
X399517Y391836D01*
X399303Y391740D01*
X399199Y391696D01*
X399110Y391659D01*
X399029Y391629D01*
X398955Y391607D01*
X398903Y391585D01*
X398859Y391577D01*
X398829Y391563D01*
X398822D01*
Y390741D01*
X398918Y390756D01*
X399022Y390778D01*
X399110Y390800D01*
X399199Y390830D01*
X399273Y390852D01*
X399332Y390874D01*
X399369Y390889D01*
X399384Y390897D01*
X399495Y390948D01*
X399591Y390993D01*
X399673Y391037D01*
X399747Y391082D01*
X399799Y391119D01*
X399843Y391148D01*
X399865Y391163D01*
X399873Y391170D01*
Y387574D01*
X400835D01*
Y392251D01*
X407532D01*
Y387500D01*
D02*
G37*
%LPC*%
G36*
X326711Y327294D02*
X326703D01*
X326666D01*
X326622Y327286D01*
X326563Y327279D01*
X326489Y327271D01*
X326407Y327257D01*
X326318Y327227D01*
X326230Y327197D01*
X326141Y327160D01*
X326059Y327109D01*
X325978Y327042D01*
X325904Y326968D01*
X325845Y326879D01*
X325800Y326776D01*
X325763Y326657D01*
X325756Y326524D01*
Y326509D01*
X325763Y326465D01*
X325771Y326391D01*
X325786Y326309D01*
X325823Y326213D01*
X325867Y326117D01*
X325926Y326021D01*
X326015Y325932D01*
X326030Y325925D01*
X326059Y325902D01*
X326119Y325865D01*
X326200Y325828D01*
X326304Y325791D01*
X326429Y325754D01*
X326577Y325732D01*
X326740Y325725D01*
X326748D01*
X326785D01*
X326829Y325732D01*
X326896Y325740D01*
X326970Y325747D01*
X327051Y325769D01*
X327140Y325791D01*
X327229Y325828D01*
X327317Y325865D01*
X327406Y325917D01*
X327488Y325984D01*
X327562Y326065D01*
X327628Y326154D01*
X327673Y326258D01*
X327702Y326383D01*
X327717Y326524D01*
Y326561D01*
X327710Y326598D01*
X327702Y326642D01*
X327687Y326702D01*
X327665Y326768D01*
X327636Y326835D01*
X327591Y326909D01*
X327539Y326983D01*
X327473Y327049D01*
X327391Y327116D01*
X327295Y327175D01*
X327177Y327220D01*
X327044Y327264D01*
X326888Y327286D01*
X326711Y327294D01*
D02*
G37*
G36*
X326651Y318436D02*
X326644D01*
X326629D01*
X326607D01*
X326585D01*
X326503Y318428D01*
X326407Y318414D01*
X326304Y318391D01*
X326193Y318354D01*
X326089Y318310D01*
X325993Y318251D01*
X325985Y318243D01*
X325956Y318221D01*
X325919Y318177D01*
X325874Y318118D01*
X325830Y318051D01*
X325793Y317962D01*
X325763Y317859D01*
X325756Y317740D01*
Y317688D01*
X325771Y317629D01*
X325786Y317555D01*
X325815Y317474D01*
X325860Y317385D01*
X325919Y317289D01*
X326000Y317207D01*
X326008Y317200D01*
X326045Y317178D01*
X326096Y317141D01*
X326163Y317104D01*
X326252Y317067D01*
X326355Y317030D01*
X326474Y317008D01*
X326607Y317000D01*
X326962D01*
X326977D01*
X327014D01*
X327073Y317008D01*
X327147Y317022D01*
X327236Y317045D01*
X327325Y317082D01*
X327414Y317126D01*
X327502Y317193D01*
X327510Y317200D01*
X327532Y317230D01*
X327569Y317267D01*
X327606Y317326D01*
X327650Y317400D01*
X327680Y317481D01*
X327710Y317577D01*
X327717Y317681D01*
Y317696D01*
X327710Y317740D01*
X327702Y317807D01*
X327680Y317881D01*
X327650Y317970D01*
X327599Y318066D01*
X327532Y318155D01*
X327443Y318236D01*
X327428Y318243D01*
X327391Y318266D01*
X327325Y318303D01*
X327236Y318340D01*
X327125Y318369D01*
X326992Y318406D01*
X326829Y318428D01*
X326651Y318436D01*
D02*
G37*
G36*
X326814Y302126D02*
X326526D01*
X326518D01*
X326511D01*
X326474D01*
X326407Y302119D01*
X326333Y302104D01*
X326252Y302074D01*
X326156Y302045D01*
X326067Y301993D01*
X325978Y301926D01*
X325971Y301919D01*
X325941Y301889D01*
X325904Y301852D01*
X325867Y301793D01*
X325823Y301719D01*
X325793Y301638D01*
X325763Y301542D01*
X325756Y301431D01*
Y301416D01*
X325763Y301371D01*
X325771Y301312D01*
X325793Y301231D01*
X325823Y301142D01*
X325874Y301053D01*
X325941Y300957D01*
X326030Y300876D01*
X326045Y300868D01*
X326082Y300846D01*
X326141Y300809D01*
X326230Y300779D01*
X326341Y300742D01*
X326466Y300705D01*
X326622Y300683D01*
X326799Y300676D01*
X326807D01*
X326822D01*
X326844D01*
X326873D01*
X326947Y300683D01*
X327044Y300698D01*
X327155Y300720D01*
X327266Y300757D01*
X327377Y300802D01*
X327473Y300868D01*
X327480Y300876D01*
X327510Y300905D01*
X327547Y300950D01*
X327591Y301009D01*
X327643Y301083D01*
X327680Y301172D01*
X327710Y301275D01*
X327717Y301394D01*
Y301408D01*
X327710Y301445D01*
X327702Y301505D01*
X327687Y301579D01*
X327658Y301667D01*
X327613Y301756D01*
X327547Y301838D01*
X327465Y301919D01*
X327451Y301926D01*
X327421Y301949D01*
X327362Y301986D01*
X327288Y302023D01*
X327199Y302060D01*
X327081Y302097D01*
X326955Y302119D01*
X326814Y302126D01*
D02*
G37*
G36*
X326651Y287800D02*
X326644D01*
X326614D01*
X326570Y287792D01*
X326511D01*
X326444Y287778D01*
X326370Y287763D01*
X326289Y287741D01*
X326200Y287711D01*
X326119Y287674D01*
X326037Y287630D01*
X325963Y287570D01*
X325897Y287504D01*
X325837Y287430D01*
X325793Y287334D01*
X325763Y287230D01*
X325756Y287104D01*
Y287052D01*
X325771Y286993D01*
X325786Y286919D01*
X325815Y286830D01*
X325860Y286742D01*
X325926Y286653D01*
X326008Y286571D01*
X326015Y286564D01*
X326052Y286542D01*
X326104Y286505D01*
X326178Y286468D01*
X326267Y286431D01*
X326378Y286394D01*
X326503Y286372D01*
X326644Y286364D01*
X326925D01*
X326933D01*
X326940D01*
X326984D01*
X327044Y286372D01*
X327125Y286386D01*
X327214Y286409D01*
X327310Y286446D01*
X327406Y286490D01*
X327495Y286549D01*
X327502Y286557D01*
X327532Y286586D01*
X327562Y286623D01*
X327606Y286682D01*
X327643Y286756D01*
X327680Y286838D01*
X327710Y286934D01*
X327717Y287045D01*
Y287060D01*
X327710Y287104D01*
X327702Y287171D01*
X327680Y287245D01*
X327650Y287334D01*
X327599Y287430D01*
X327532Y287519D01*
X327443Y287600D01*
X327428Y287607D01*
X327391Y287630D01*
X327325Y287667D01*
X327236Y287704D01*
X327125Y287733D01*
X326992Y287770D01*
X326829Y287792D01*
X326651Y287800D01*
D02*
G37*
G36*
X458473Y261807D02*
X457977D01*
Y260490D01*
X458517D01*
X458576Y260497D01*
X458658Y260512D01*
X458739Y260542D01*
X458835Y260571D01*
X458924Y260623D01*
X459005Y260690D01*
X459013Y260697D01*
X459035Y260727D01*
X459072Y260771D01*
X459109Y260830D01*
X459146Y260897D01*
X459183Y260986D01*
X459205Y261082D01*
X459213Y261186D01*
Y261193D01*
Y261215D01*
X459205Y261245D01*
X459198Y261282D01*
X459176Y261385D01*
X459153Y261437D01*
X459124Y261496D01*
X459079Y261556D01*
X459035Y261607D01*
X458976Y261667D01*
X458902Y261711D01*
X458813Y261748D01*
X458717Y261778D01*
X458606Y261800D01*
X458473Y261807D01*
D02*
G37*
G36*
X336907Y320768D02*
X336900D01*
X336878D01*
X336841D01*
X336789Y320761D01*
X336737Y320754D01*
X336678Y320739D01*
X336537Y320694D01*
X336471Y320665D01*
X336404Y320628D01*
X336345Y320576D01*
X336286Y320517D01*
X336241Y320450D01*
X336204Y320369D01*
X336182Y320280D01*
X336175Y320176D01*
Y320132D01*
X336182Y320088D01*
X336197Y320028D01*
X336226Y319962D01*
X336263Y319888D01*
X336315Y319814D01*
X336382Y319740D01*
X336389Y319732D01*
X336419Y319710D01*
X336463Y319681D01*
X336522Y319644D01*
X336596Y319599D01*
X336685Y319562D01*
X336789Y319525D01*
X336907Y319503D01*
Y320768D01*
D02*
G37*
G36*
X337151Y317098D02*
X337144D01*
X337114D01*
X337070Y317091D01*
X337011D01*
X336944Y317076D01*
X336870Y317061D01*
X336789Y317039D01*
X336700Y317009D01*
X336619Y316972D01*
X336537Y316928D01*
X336463Y316869D01*
X336397Y316802D01*
X336337Y316728D01*
X336293Y316632D01*
X336263Y316528D01*
X336256Y316402D01*
Y316351D01*
X336271Y316291D01*
X336286Y316217D01*
X336315Y316129D01*
X336360Y316040D01*
X336426Y315951D01*
X336508Y315870D01*
X336515Y315862D01*
X336552Y315840D01*
X336604Y315803D01*
X336678Y315766D01*
X336767Y315729D01*
X336878Y315692D01*
X337003Y315670D01*
X337144Y315662D01*
X337425D01*
X337433D01*
X337440D01*
X337484D01*
X337544Y315670D01*
X337625Y315685D01*
X337714Y315707D01*
X337810Y315744D01*
X337906Y315788D01*
X337995Y315847D01*
X338002Y315855D01*
X338032Y315884D01*
X338062Y315921D01*
X338106Y315981D01*
X338143Y316055D01*
X338180Y316136D01*
X338210Y316232D01*
X338217Y316343D01*
Y316358D01*
X338210Y316402D01*
X338202Y316469D01*
X338180Y316543D01*
X338150Y316632D01*
X338099Y316728D01*
X338032Y316817D01*
X337943Y316898D01*
X337928Y316906D01*
X337891Y316928D01*
X337825Y316965D01*
X337736Y317002D01*
X337625Y317031D01*
X337492Y317068D01*
X337329Y317091D01*
X337151Y317098D01*
D02*
G37*
G36*
X405008Y392147D02*
X404120D01*
X404002Y391910D01*
X403869Y391674D01*
X403735Y391437D01*
X403595Y391222D01*
X403536Y391119D01*
X403476Y391030D01*
X403425Y390948D01*
X403373Y390882D01*
X403336Y390823D01*
X403306Y390786D01*
X403291Y390756D01*
X403284Y390749D01*
X403077Y390460D01*
X402862Y390179D01*
X402759Y390053D01*
X402662Y389927D01*
X402566Y389809D01*
X402477Y389698D01*
X402396Y389602D01*
X402322Y389513D01*
X402255Y389439D01*
X402204Y389372D01*
X402152Y389320D01*
X402122Y389276D01*
X402100Y389254D01*
X402093Y389246D01*
Y388543D01*
X404135D01*
Y387574D01*
X405008D01*
Y388543D01*
X405652D01*
Y389239D01*
X405008D01*
Y392147D01*
D02*
G37*
%LPD*%
G36*
X404135Y389239D02*
X402936D01*
X403121Y389476D01*
X403284Y389676D01*
X403351Y389772D01*
X403417Y389853D01*
X403476Y389935D01*
X403528Y390001D01*
X403573Y390068D01*
X403617Y390120D01*
X403654Y390164D01*
X403676Y390208D01*
X403698Y390238D01*
X403713Y390260D01*
X403728Y390268D01*
Y390275D01*
X403824Y390408D01*
X403906Y390534D01*
X403972Y390645D01*
X404031Y390741D01*
X404076Y390815D01*
X404113Y390874D01*
X404128Y390904D01*
X404135Y390919D01*
Y389239D01*
D02*
G37*
D10*
X321552Y352456D02*
G03*
X321500Y346600I3492J-2959D01*
G01*
X332648Y346544D02*
G03*
X332700Y352400I-3492J2959D01*
G01*
X459137Y274272D02*
G03*
X459137Y268272I0J-3000D01*
G01*
X465137Y268272D02*
G03*
X465142Y274268I2J2998D01*
G01*
X337044Y357552D02*
G03*
X342900Y357500I2959J3492D01*
G01*
X342956Y368648D02*
G03*
X337100Y368700I-2959J-3492D01*
G01*
X392952Y382956D02*
G03*
X392900Y377100I3492J-2959D01*
G01*
X404048Y377044D02*
G03*
X404100Y382900I-3492J2959D01*
G01*
X328800Y346500D02*
X332500Y346500D01*
X328800Y352500D02*
X332600Y352500D01*
X321600D02*
X325300Y352500D01*
X321600Y346500D02*
X325300Y346500D01*
X453875Y273213D02*
X453877Y273215D01*
X453875Y273213D02*
X453875Y273212D01*
X459137Y274272D02*
X465142Y274268D01*
X459137Y268272D02*
X465137D01*
X470410Y273212D02*
X470410Y269324D01*
X453875Y273212D02*
X453875Y269324D01*
Y264969D02*
X470410D01*
X453875Y277567D02*
X470410D01*
X373433Y397871D02*
X386031D01*
X373433Y390784D02*
X386031D01*
X378551D02*
Y397871D01*
X322315Y361425D02*
X322315Y364575D01*
X322315Y361425D02*
X331764D01*
Y364575D01*
X322315Y364575D02*
X331764Y364575D01*
X343000Y364800D02*
Y368500D01*
X337000Y364800D02*
Y368600D01*
X337000Y361300D02*
X337000Y357600D01*
X343000D02*
X343000Y361300D01*
X373433Y383669D02*
X386031D01*
X373433Y376583D02*
X386031D01*
X378551D02*
Y383669D01*
X400200Y377000D02*
X403900D01*
X400200Y383000D02*
X404000D01*
X393000D02*
X396700D01*
X393000Y377000D02*
X396700D01*
D11*
X429710Y382280D02*
G03*
X429710Y382280I-300J0D01*
G01*
D12*
X444200Y374400D02*
X444300D01*
X451000Y379000D02*
X451100D01*
X450800Y378900D02*
X451100D01*
X450800Y378800D02*
X451100D01*
X450700Y378700D02*
X451100D01*
X450500Y378100D02*
X451200D01*
X450500Y378000D02*
X451100D01*
X450500Y377900D02*
X451100D01*
X450500Y377800D02*
X451100D01*
X450500Y377700D02*
X451100D01*
X450500Y377600D02*
X451100D01*
X450400Y377500D02*
X451100D01*
X450000Y377100D02*
X450100D01*
X449900Y377000D02*
X450100D01*
X449800Y376800D02*
X449900D01*
X449800Y376700D02*
X450000D01*
X449800Y376600D02*
X450000D01*
X450300D02*
X450800D01*
X450100Y376100D02*
X452200D01*
X449700Y376000D02*
X450000D01*
X450200D02*
X452100D01*
X449800Y375900D02*
X450000D01*
X450200D02*
X452000D01*
X450200Y375800D02*
X452000D01*
X448500Y375700D02*
X448600D01*
X450200D02*
X452000D01*
X448300Y375600D02*
X449000D01*
X450500D02*
X452000D01*
X448200Y375500D02*
X449200D01*
X450500D02*
X451900D01*
X448200Y375400D02*
X449300D01*
X450600D02*
X451800D01*
X448100Y375300D02*
X449400D01*
X450700D02*
X451600D01*
X448100Y375200D02*
X449600D01*
X450800D02*
X451300D01*
X448100Y375100D02*
X449800D01*
X448000Y375000D02*
X449900D01*
X446000Y374900D02*
X446500D01*
X448000D02*
X450000D01*
X445800Y374800D02*
X447000D01*
X448000D02*
X450200D01*
X445700Y374700D02*
X447400D01*
X448200D02*
X448300D01*
X448400D02*
X450200D01*
X445700Y374600D02*
X447600D01*
X448500D02*
X450300D01*
X445700Y374500D02*
X448000D01*
X445600Y374400D02*
X448200D01*
X445700Y374300D02*
X448500D01*
X445900Y374200D02*
X448700D01*
X447100Y374100D02*
X448800D01*
X448200Y374000D02*
X448800D01*
X450900Y373800D02*
X452700D01*
X450900Y373700D02*
X452700D01*
X450900Y373600D02*
X452700D01*
X450800Y373500D02*
X452600D01*
X450700Y373400D02*
X452600D01*
X450600Y373300D02*
X452600D01*
X450300Y373200D02*
X452700D01*
X445000Y372900D02*
X452200D01*
X445700Y372800D02*
X452100D01*
X446600Y372700D02*
X452100D01*
X447400Y372600D02*
X452000D01*
X448300Y372500D02*
X452000D01*
X449200Y372400D02*
X452000D01*
X452200D02*
X452300D01*
X449900Y372300D02*
X451900D01*
X452200D02*
X452700D01*
X452400Y371600D02*
X452500D01*
X450400Y380200D02*
X451000D01*
X451100D02*
X451200D01*
X451600D02*
X451700D01*
X450400Y380100D02*
X450900D01*
X450400Y380000D02*
X450900D01*
X450500Y379900D02*
X450800D01*
X450500Y379800D02*
X450800D01*
X451700D02*
X452400D01*
X450500Y379700D02*
X450800D01*
X450500Y379600D02*
X450800D01*
X450500Y379500D02*
X450800D01*
X450600Y379400D02*
X450700D01*
X453200Y371100D02*
X456400D01*
X456800Y379100D02*
X457600D01*
X453900Y379000D02*
X454100D01*
X457000D02*
X457200D01*
X457300D02*
X457600D01*
X457900D02*
X460200D01*
X453900Y378900D02*
X454300D01*
X457500D02*
X457700D01*
X457900D02*
X460200D01*
X457400Y378800D02*
X460700D01*
X457200Y378700D02*
X460700D01*
X454200Y378600D02*
X454600D01*
X457000D02*
X458200D01*
X454400Y378500D02*
X454700D01*
X456700D02*
X458100D01*
X458200D02*
X458400D01*
X458500D02*
X459100D01*
X459200D02*
X459400D01*
X456100Y378400D02*
X457800D01*
X458000D02*
X458100D01*
X458200D02*
X458400D01*
X458500D02*
X459400D01*
X454900Y378300D02*
X455300D01*
X455400D02*
X457400D01*
X458000D02*
X458100D01*
X458300D02*
X458400D01*
X455100Y378200D02*
X457400D01*
X458000D02*
X458100D01*
X458300D02*
X458400D01*
X458500D02*
X459900D01*
X455200Y378100D02*
X456300D01*
X457100D02*
X457700D01*
X457900D02*
X458100D01*
X458200D02*
X458400D01*
X454700Y378000D02*
X454800D01*
X457200D02*
X457600D01*
X454700Y377900D02*
X454800D01*
X457200D02*
X457700D01*
X457200Y377800D02*
X457800D01*
X458100D02*
X458200D01*
X457400Y377700D02*
X457900D01*
X458200D02*
X458300D01*
X458400D02*
X459400D01*
X459500D02*
X460200D01*
X457400Y377600D02*
X457900D01*
X458100D02*
X458300D01*
X458400D02*
X460200D01*
X453900Y377500D02*
X454100D01*
X457400D02*
X457900D01*
X457500Y377400D02*
X458000D01*
X458100D02*
X458300D01*
X457500Y377300D02*
X458300D01*
X454400Y377100D02*
X454700D01*
X454400Y377000D02*
X454700D01*
X457600Y376700D02*
X459900D01*
X460000D02*
X460100D01*
X460300D02*
X460400D01*
X460600D02*
X460700D01*
X457900Y376600D02*
X459500D01*
X456600Y376500D02*
X456700D01*
X458300D02*
X458900D01*
X456600Y376400D02*
X456700D01*
X454400Y376200D02*
X454500D01*
X454300Y376100D02*
X454600D01*
X454400Y376000D02*
X454600D01*
X458000D02*
X458200D01*
X459100D02*
X459300D01*
X454500Y375900D02*
X454600D01*
X455600D02*
X455800D01*
X458000D02*
X458300D01*
X459100D02*
X459400D01*
X455500Y375800D02*
X456200D01*
X457900D02*
X458300D01*
X459100D02*
X459400D01*
X455600Y375700D02*
X456200D01*
X458000D02*
X458300D01*
X459100D02*
X459400D01*
X455800Y375600D02*
X455900D01*
X458000D02*
X458300D01*
X459100D02*
X459400D01*
X458000Y375500D02*
X458300D01*
X459100D02*
X459400D01*
X458000Y375400D02*
X458300D01*
X459000D02*
X459400D01*
X458000Y375300D02*
X458300D01*
X459000D02*
X459400D01*
X458000Y375200D02*
X458300D01*
X459000D02*
X459300D01*
X458000Y375100D02*
X458200D01*
X459100D02*
X459300D01*
X455000Y375000D02*
X455100D01*
X455000Y374900D02*
X455100D01*
X456800D02*
X457400D01*
X459700D02*
X460500D01*
X455500Y374800D02*
X455800D01*
X456600D02*
X457600D01*
X459500D02*
X460700D01*
X455300Y374700D02*
X455400D01*
X455600D02*
X455700D01*
X455500Y374500D02*
X455600D01*
X453200Y372800D02*
X453900D01*
X453700Y372700D02*
X453900D01*
X453000Y371900D02*
X453300D01*
X453000Y371800D02*
X453300D01*
X452900Y371700D02*
X453300D01*
X452900Y371600D02*
X453300D01*
X457000Y387100D02*
X459000D01*
X457100Y387000D02*
X458900D01*
X457100Y386900D02*
X458800D01*
X457200Y386800D02*
X458800D01*
X457200Y386700D02*
X458800D01*
X457200Y386600D02*
X458800D01*
X457200Y386500D02*
X458700D01*
X457300Y386400D02*
X458700D01*
X457300Y386300D02*
X458600D01*
X457400Y386200D02*
X458500D01*
X457500Y386100D02*
X458500D01*
X457700Y386000D02*
X458200D01*
X457800Y385900D02*
X458000D01*
X457800Y384100D02*
X458596Y384180D01*
X453900Y383900D02*
X454000D01*
X453900Y383800D02*
X454100D01*
X454000Y383700D02*
X454200D01*
X454100Y383600D02*
X454300D01*
X454100Y383500D02*
X454600D01*
X454300Y383400D02*
X454700D01*
X454400Y383300D02*
X455400D01*
X454400Y383200D02*
X455900D01*
X453100Y383100D02*
X453300D01*
X453900D02*
X454000D01*
X454300D02*
X456400D01*
X452900Y383000D02*
X454100D01*
X454500D02*
X456000D01*
X454500Y382800D02*
X458500D01*
X454500Y382700D02*
X458300D01*
X459200Y382200D02*
X459300D01*
X458600Y382100D02*
X459500D01*
X458500Y382000D02*
X459600D01*
X458100Y381900D02*
X458600D01*
X454600Y380500D02*
X455100D01*
X454700Y380400D02*
X455000D01*
X454700Y380300D02*
X455000D01*
X454700Y380200D02*
X455000D01*
X454700Y380100D02*
X455000D01*
X454700Y380000D02*
X455000D01*
X454700Y379800D02*
X454900D01*
X454700Y379700D02*
X454900D01*
X455000D02*
X455200D01*
X454700Y379600D02*
X454900D01*
X453500Y395100D02*
X454600D01*
X453500Y395000D02*
X454600D01*
X453500Y394900D02*
X454600D01*
X453500Y394800D02*
X454600D01*
X453500Y394700D02*
X454600D01*
X453500Y394600D02*
X454600D01*
X453500Y394500D02*
X454700D01*
X453500Y394400D02*
X454700D01*
X453500Y394300D02*
X454800D01*
X453600Y394200D02*
X454800D01*
X453600Y394100D02*
X455000D01*
X453600Y394000D02*
X455000D01*
X453600Y393900D02*
X455000D01*
X453600Y393800D02*
X455000D01*
X455200D02*
X455400D01*
X453600Y393700D02*
X455600D01*
X453600Y393600D02*
X455600D01*
X453600Y393500D02*
X455900D01*
X460500D02*
X460600D01*
X453600Y393400D02*
X456000D01*
X453600Y393300D02*
X455900D01*
X453700Y393200D02*
X455900D01*
X453700Y393100D02*
X455300D01*
X460400D02*
X460500D01*
X453700Y393000D02*
X455200D01*
X453700Y392900D02*
X454400D01*
X454500D02*
X455000D01*
X453600Y392800D02*
X454100D01*
X454700D02*
X454800D01*
X453700Y392700D02*
X454100D01*
X453800Y392600D02*
X454100D01*
X453800Y392500D02*
X454200D01*
X453800Y392400D02*
X454200D01*
X460200D02*
X460300D01*
X453800Y392300D02*
X454200D01*
X453800Y392200D02*
X454300D01*
X458700D02*
X458800D01*
X459300D02*
X459400D01*
X453800Y392100D02*
X454300D01*
X458600D02*
X459700D01*
X453900Y392000D02*
X454300D01*
X453900Y391900D02*
X454400D01*
X454600D02*
X454700D01*
X453900Y391800D02*
X454500D01*
X454600D02*
X454700D01*
X454000Y391700D02*
X454500D01*
X454600D02*
X454800D01*
X454000Y391600D02*
X454500D01*
X454600D02*
X454800D01*
X454000Y391500D02*
X454500D01*
X454600D02*
X454800D01*
X454000Y391400D02*
X454900D01*
X456800D02*
X457000D01*
X457200D02*
X457300D01*
X454000Y391300D02*
X454800D01*
X454100Y391200D02*
X454800D01*
X456800D02*
X457100D01*
X454100Y391100D02*
X454800D01*
X454100Y391000D02*
X454700D01*
X454200Y390900D02*
X454700D01*
X454200Y390800D02*
X454700D01*
X454200Y390700D02*
X454700D01*
X454300Y390600D02*
X454700D01*
X453700Y390500D02*
X453900D01*
X454300D02*
X454800D01*
X454300Y390400D02*
X454700D01*
X453600Y390300D02*
X453700D01*
X454300D02*
X454700D01*
X453400Y390200D02*
X454200D01*
X454300D02*
X454700D01*
X453400Y390100D02*
X454700D01*
X453400Y390000D02*
X454800D01*
X453400Y389900D02*
X454900D01*
X453400Y389800D02*
X454900D01*
X453300Y389700D02*
X455100D01*
X453100Y389600D02*
X453300D01*
X453400D02*
X455300D01*
X453000Y389500D02*
X455500D01*
X453300Y389400D02*
X453800D01*
X454300D02*
X455700D01*
X452900Y389300D02*
X453100D01*
X453400D02*
X453800D01*
X454600D02*
X456000D01*
X453000Y389200D02*
X453100D01*
X453400D02*
X453800D01*
X454900D02*
X456100D01*
X456200D02*
X456400D01*
X453200Y389100D02*
X453900D01*
X455200D02*
X456400D01*
X453100Y389000D02*
X453300D01*
X453500D02*
X453900D01*
X453200Y388900D02*
X453300D01*
X453500D02*
X453900D01*
X453200Y388800D02*
X454000D01*
X455800D02*
X460700D01*
X453300Y388700D02*
X454000D01*
X456000D02*
X460400D01*
X453400Y388600D02*
X454000D01*
X456100D02*
X460200D01*
X453500Y388500D02*
X454100D01*
X456300D02*
X459900D01*
X453600Y388400D02*
X454200D01*
X456400D02*
X459700D01*
X453700Y388300D02*
X454200D01*
X456500D02*
X459500D01*
X453800Y388200D02*
X454300D01*
X456600D02*
X459300D01*
X454000Y388100D02*
X454400D01*
X456600D02*
X459300D01*
X454100Y388000D02*
X454500D01*
X456500D02*
X459400D01*
X454300Y387900D02*
X454600D01*
X456200D02*
X459600D01*
X454400Y387800D02*
X454700D01*
X455700D02*
X459700D01*
X454800Y387700D02*
X460000D01*
X455400Y387600D02*
X460700D01*
X456900Y387300D02*
X460100D01*
X454500Y399200D02*
X454700D01*
X454400Y399100D02*
X454700D01*
X454400Y399000D02*
X454700D01*
X454300Y398900D02*
X454700D01*
X454300Y398800D02*
X454700D01*
X454300Y398700D02*
X454600D01*
X454200Y398600D02*
X454600D01*
X454100Y398500D02*
X454600D01*
X454100Y398400D02*
X454600D01*
X454000Y398300D02*
X454500D01*
X453900Y398200D02*
X454500D01*
X454000Y398100D02*
X454500D01*
X453800Y398000D02*
X454500D01*
X453800Y397900D02*
X454500D01*
X453800Y397800D02*
X454500D01*
X453700Y397700D02*
X454500D01*
X453600Y397600D02*
X454500D01*
X453600Y397500D02*
X454500D01*
X453600Y397400D02*
X454500D01*
X453600Y397300D02*
X454500D01*
X453600Y397200D02*
X454500D01*
X453600Y397100D02*
X454500D01*
X453500Y397000D02*
X454500D01*
X453500Y396900D02*
X454500D01*
X453500Y396800D02*
X454500D01*
X453500Y396700D02*
X454500D01*
X453500Y396600D02*
X454500D01*
X453500Y396500D02*
X454500D01*
X453500Y396400D02*
X454500D01*
X453500Y396300D02*
X454500D01*
X453500Y396200D02*
X454500D01*
X453500Y396100D02*
X454500D01*
X453500Y396000D02*
X454400D01*
X453500Y395900D02*
X454400D01*
X453500Y395800D02*
X454400D01*
X453500Y395700D02*
X454600D01*
X453500Y395600D02*
X454400D01*
X454500D02*
X454600D01*
X453500Y395500D02*
X454400D01*
X454500D02*
X454600D01*
X453500Y395400D02*
X454400D01*
X454500D02*
X454600D01*
X453500Y395300D02*
X454400D01*
X454500D02*
X454600D01*
X462700Y379100D02*
X465800D01*
X461000Y379000D02*
X461200D01*
X462600D02*
X465800D01*
X460900Y378900D02*
X461200D01*
X462600D02*
X465800D01*
X460900Y378800D02*
X461200D01*
X462500D02*
X465800D01*
X460900Y378700D02*
X461000D01*
X461100D02*
X461200D01*
X462500D02*
X465800D01*
X460900Y378600D02*
X461000D01*
X462500D02*
X466000D01*
X462400Y378500D02*
X465900D01*
X462400Y378400D02*
X465900D01*
X462400Y378300D02*
X466000D01*
X462400Y378200D02*
X466000D01*
X462100Y378100D02*
X465900D01*
X462200Y378000D02*
X466000D01*
X462100Y377900D02*
X466000D01*
X462000Y377800D02*
X466000D01*
X462000Y377700D02*
X462100D01*
X462300D02*
X466000D01*
X462300Y377600D02*
X466000D01*
X461000Y377500D02*
X461100D01*
X462200D02*
X466100D01*
X462100Y377400D02*
X466200D01*
X462100Y377300D02*
X462300D01*
X462800D02*
X466200D01*
X462100Y377200D02*
X462300D01*
X462800D02*
X466100D01*
X462200Y377100D02*
X462400D01*
X462800D02*
X466100D01*
X462100Y377000D02*
X462500D01*
X462800D02*
X466100D01*
X462000Y376900D02*
X462300D01*
X462900D02*
X466100D01*
X462900Y376800D02*
X466100D01*
X462900Y376700D02*
X466000D01*
X462900Y376600D02*
X466000D01*
X462800Y376500D02*
X466000D01*
X462800Y376400D02*
X464100D01*
X464400D02*
X466100D01*
X462800Y376300D02*
X464000D01*
X464500D02*
X466100D01*
X462400Y376200D02*
X462500D01*
X462800D02*
X463900D01*
X464500D02*
X466100D01*
X462300Y376100D02*
X462500D01*
X462800D02*
X463800D01*
X464500D02*
X466000D01*
X462800Y376000D02*
X463800D01*
X464600D02*
X465900D01*
X461300Y375900D02*
X461700D01*
X462800D02*
X463800D01*
X464700D02*
X465900D01*
X461000Y375800D02*
X461600D01*
X462800D02*
X463800D01*
X464700D02*
X465900D01*
X461000Y375700D02*
X461300D01*
X462700D02*
X463800D01*
X464800D02*
X465800D01*
X461100Y375600D02*
X461300D01*
X462500D02*
X463800D01*
X464900D02*
X465800D01*
X461100Y375500D02*
X461200D01*
X462500D02*
X463900D01*
X465200D02*
X465700D01*
X461100Y375400D02*
X461200D01*
X462400D02*
X463900D01*
X462400Y375300D02*
X464000D01*
X462400Y375200D02*
X464100D01*
X467400D02*
X467700D01*
X462500Y375100D02*
X464200D01*
X467100D02*
X467900D01*
X461700Y375000D02*
X461900D01*
X462200D02*
X462300D01*
X462500D02*
X464300D01*
X465200D02*
X465400D01*
X466800D02*
X468000D01*
X461500Y374900D02*
X462300D01*
X462600D02*
X464600D01*
X465000D02*
X465500D01*
X466600D02*
X468100D01*
X461000Y374800D02*
X462100D01*
X462700D02*
X465300D01*
X466400D02*
X468200D01*
X462700Y374700D02*
X464900D01*
X466300D02*
X468200D01*
X462800Y374600D02*
X464700D01*
X466100D02*
X468300D01*
X462900Y374500D02*
X464600D01*
X465800D02*
X468300D01*
X462900Y374400D02*
X464600D01*
X465600D02*
X468200D01*
X463000Y374300D02*
X464600D01*
X463100Y374200D02*
X464600D01*
X463100Y374100D02*
X464700D01*
X465000D02*
X466800D01*
X463100Y374000D02*
X464700D01*
X465000D02*
X465200D01*
X465300D02*
X465400D01*
X465600D02*
X466100D01*
X463200Y373900D02*
X464700D01*
X463200Y373800D02*
X464700D01*
X463300Y373700D02*
X464700D01*
X463300Y373600D02*
X464700D01*
X463400Y373500D02*
X464800D01*
X463400Y373400D02*
X464800D01*
X463400Y373300D02*
X465000D01*
X463400Y373200D02*
X465200D01*
X463900Y372600D02*
X468600D01*
X463900Y372500D02*
X467900D01*
X464000Y372400D02*
X467200D01*
X464000Y372300D02*
X466500D01*
X464000Y372200D02*
X465700D01*
X464000Y372100D02*
X465000D01*
X464000Y371600D02*
X464100D01*
X463200Y387100D02*
X464400D01*
X463300Y387000D02*
X464300D01*
X463300Y386900D02*
X464300D01*
X463300Y386800D02*
X464300D01*
X463300Y386700D02*
X464200D01*
X463300Y386600D02*
X464200D01*
X463400Y386500D02*
X464200D01*
X463400Y386400D02*
X464100D01*
X463400Y386300D02*
X464100D01*
X463400Y386200D02*
X464100D01*
X463400Y386100D02*
X464000D01*
X463400Y386000D02*
X464000D01*
X463400Y385900D02*
X464000D01*
X463400Y385800D02*
X463900D01*
X463400Y385700D02*
X463900D01*
X463400Y385600D02*
X463800D01*
X463400Y385500D02*
X463800D01*
X463400Y385400D02*
X463800D01*
X463400Y385300D02*
X463700D01*
X463300Y385200D02*
X463600D01*
X463300Y385100D02*
X463600D01*
X463300Y385000D02*
X463500D01*
X463200Y384900D02*
X463500D01*
X463200Y384800D02*
X463400D01*
X463100Y384700D02*
X463400D01*
X463100Y384600D02*
X463300D01*
X463000Y384500D02*
X463200D01*
X463000Y384400D02*
X463200D01*
X462900Y384300D02*
X463100D01*
X462800Y384200D02*
X463000D01*
X462800Y384100D02*
X463000D01*
X462700Y384000D02*
X462900D01*
X462600Y383900D02*
X462800D01*
X462500Y383800D02*
X462800D01*
X462400Y383700D02*
X462700D01*
X462300Y383600D02*
X462600D01*
X462200Y383500D02*
X462600D01*
X462200Y383400D02*
X462500D01*
X462000Y383300D02*
X462400D01*
X461700Y383200D02*
X461900D01*
X462000D02*
X462200D01*
X461100Y383100D02*
X462100D01*
Y383000D02*
X462300D01*
X462900D02*
X463100D01*
X462100Y382900D02*
X462200D01*
X462800D02*
X463100D01*
X462800Y382800D02*
X463200D01*
X462700Y382700D02*
X463300D01*
X462600Y382600D02*
X463300D01*
X462200Y382500D02*
X463600D01*
X463700Y382400D02*
X463800D01*
X462300Y380400D02*
X462400D01*
X462700D02*
X465400D01*
X462900Y380300D02*
X464900D01*
X465100D02*
X465400D01*
X463000Y380200D02*
X464900D01*
X463000Y380100D02*
X465000D01*
X462900Y380000D02*
X465100D01*
X462900Y379900D02*
X465100D01*
X462900Y379800D02*
X465100D01*
X462900Y379700D02*
X465200D01*
X461900Y379600D02*
X462400D01*
X462900D02*
X465200D01*
X462200Y379500D02*
X462400D01*
X462900D02*
X465200D01*
X465500D02*
X465800D01*
X461100Y379400D02*
X461400D01*
X461500D02*
X461700D01*
X462800D02*
X465800D01*
X461000Y379300D02*
X461300D01*
X462700D02*
X465800D01*
X462700Y395100D02*
X463600D01*
X463900D02*
X464000D01*
X462700Y395000D02*
X463700D01*
X463900D02*
X464000D01*
X462700Y394900D02*
X463600D01*
X463900D02*
X464000D01*
X462600Y394800D02*
X463600D01*
X463900D02*
X464000D01*
X462600Y394700D02*
X463600D01*
X463900D02*
X464000D01*
X462600Y394600D02*
X463700D01*
X463900D02*
X464000D01*
X462500Y394500D02*
X463700D01*
X463900D02*
X464000D01*
X462500Y394400D02*
X463700D01*
X463900D02*
X464000D01*
X462500Y394300D02*
X463700D01*
X463900D02*
X464000D01*
X462500Y394200D02*
X464000D01*
X460900Y394100D02*
X461000D01*
X462400D02*
X463600D01*
X463900D02*
X464000D01*
X462400Y394000D02*
X463600D01*
X463900D02*
X464000D01*
X461100Y393900D02*
X461400D01*
X462300D02*
X463600D01*
X463900D02*
X464000D01*
X461200Y393800D02*
X461400D01*
X462300D02*
X463600D01*
X463900D02*
X464000D01*
X462300Y393700D02*
X463600D01*
X463900D02*
X464000D01*
X461300Y393600D02*
X461500D01*
X462300D02*
X463600D01*
X463900D02*
X464000D01*
X460900Y393500D02*
X461500D01*
X462300D02*
X463600D01*
X460900Y393400D02*
X461600D01*
X462300D02*
X463600D01*
X463900D02*
X464000D01*
X462200Y393300D02*
X463600D01*
X463900D02*
X464000D01*
X462200Y393200D02*
X463500D01*
X462300Y393100D02*
X463500D01*
X462200Y393000D02*
X463500D01*
X462200Y392900D02*
X463400D01*
X462300Y392800D02*
X463300D01*
X462300Y392700D02*
X463300D01*
X462300Y392600D02*
X463300D01*
X462400Y392500D02*
X463200D01*
X462300Y392400D02*
X463200D01*
X462200Y392300D02*
X463200D01*
X462800Y390400D02*
X462900D01*
X462700Y390300D02*
X462900D01*
X462200Y389100D02*
X463200D01*
X462400Y389000D02*
X463200D01*
X462400Y388900D02*
X463400D01*
X462400Y388800D02*
X463500D01*
X462400Y388700D02*
X463400D01*
X463900D02*
X464000D01*
X462300Y388600D02*
X463400D01*
X463900D02*
X464000D01*
X462200Y388500D02*
X463200D01*
X463800D02*
X463900D01*
X462200Y388400D02*
X463100D01*
X463700D02*
X463900D01*
X462100Y388300D02*
X463000D01*
X463600D02*
X464000D01*
X462100Y388200D02*
X462800D01*
X463600D02*
X464000D01*
X462000Y388100D02*
X462700D01*
X463600D02*
X464100D01*
X461900Y388000D02*
X462600D01*
X463500D02*
X464200D01*
X464400D02*
X464500D01*
X461800Y387900D02*
X462300D01*
X463500D02*
X464300D01*
X464400D02*
X464500D01*
X461700Y387800D02*
X462200D01*
X463400D02*
X464300D01*
X461500Y387700D02*
X461900D01*
X463300D02*
X464400D01*
X461400Y387600D02*
X461800D01*
X463200D02*
X464500D01*
X463200Y387500D02*
X464500D01*
X463200Y387400D02*
X464500D01*
X463200Y387300D02*
X464500D01*
X462500Y398900D02*
X462700D01*
X462500Y398800D02*
X462800D01*
X462600Y398700D02*
X462900D01*
X462600Y398600D02*
X462900D01*
X462700Y398500D02*
X463000D01*
X462700Y398400D02*
X463100D01*
X462700Y398300D02*
X463100D01*
X462700Y398200D02*
X463200D01*
X462800Y398100D02*
X463300D01*
X462800Y398000D02*
X463300D01*
X462800Y397900D02*
X463400D01*
X462800Y397800D02*
X463400D01*
X462800Y397700D02*
X463500D01*
X462900Y397600D02*
X463500D01*
X462900Y397500D02*
X463500D01*
X462900Y397400D02*
X463600D01*
X462900Y397300D02*
X463600D01*
X462900Y397200D02*
X463600D01*
X462900Y397100D02*
X463600D01*
X462900Y397000D02*
X463600D01*
X462900Y396900D02*
X463600D01*
X463700D02*
X463800D01*
X462800Y396800D02*
X463600D01*
X463700D02*
X463800D01*
X462800Y396700D02*
X463600D01*
X462800Y396600D02*
X463600D01*
X462900Y396500D02*
X463600D01*
X463700D02*
X463800D01*
X462800Y396400D02*
X463600D01*
X462800Y396300D02*
X463600D01*
X462800Y396200D02*
X463600D01*
X462800Y396100D02*
X463600D01*
X462800Y396000D02*
X463600D01*
X462800Y395900D02*
X463600D01*
X462800Y395800D02*
X463600D01*
X463900D02*
X464000D01*
X462800Y395700D02*
X463600D01*
X463900D02*
X464000D01*
X462800Y395600D02*
X463600D01*
X463900D02*
X464000D01*
X462700Y395500D02*
X463600D01*
X463900D02*
X464000D01*
X462700Y395400D02*
X463600D01*
X463900D02*
X464000D01*
X462700Y395300D02*
X463600D01*
X463900D02*
X464000D01*
X469800Y374800D02*
X470100D01*
X469500Y374700D02*
X470200D01*
X469300Y374600D02*
X470300D01*
X468900Y374500D02*
X470300D01*
X457000Y387200D02*
X459100D01*
X456700Y379200D02*
X457300D01*
X452900Y371200D02*
X457400D01*
X453500Y395200D02*
X454600D01*
X463200Y387200D02*
X464400D01*
X462700Y379200D02*
X465800D01*
X462700Y395200D02*
X463600D01*
X463900D02*
X464000D01*
X460300Y371100D02*
X463500D01*
X451200Y379100D02*
X454000D01*
X457800D02*
X461500D01*
X451200Y379000D02*
X453800D01*
X460300D02*
X460900D01*
X451200Y378900D02*
X453800D01*
X460300D02*
X460800D01*
X451200Y378800D02*
X454300D01*
X451200Y378700D02*
X454400D01*
X450700Y378600D02*
X454000D01*
X458300D02*
X460800D01*
X450600Y378500D02*
X454000D01*
X459500D02*
X461100D01*
X450600Y378400D02*
X454000D01*
X459500D02*
X461600D01*
X450500Y378300D02*
X454000D01*
X458500D02*
X461700D01*
X450500Y378200D02*
X454100D01*
X460200D02*
X462200D01*
X451300Y378100D02*
X454200D01*
X458500D02*
X462000D01*
X451300Y378000D02*
X454200D01*
X458000D02*
X461100D01*
X451300Y377900D02*
X454200D01*
X457900D02*
X461200D01*
X451200Y377800D02*
X454300D01*
X458500D02*
X461200D01*
X451200Y377700D02*
X454200D01*
X460300D02*
X460900D01*
X451200Y377600D02*
X454200D01*
X460300D02*
X461100D01*
X451200Y377500D02*
X453800D01*
X458100D02*
X460900D01*
X450400Y377400D02*
X453700D01*
X458400D02*
X461000D01*
X450300Y377300D02*
X453600D01*
X458400D02*
X461100D01*
X450300Y377200D02*
X453600D01*
X457500D02*
X461300D01*
X450300Y377100D02*
X453600D01*
X457500D02*
X461300D01*
X450300Y377000D02*
X453600D01*
X457500D02*
X461300D01*
X450300Y376900D02*
X453500D01*
X457500D02*
X461200D01*
X450300Y376800D02*
X453500D01*
X457300D02*
X460800D01*
X450300Y376700D02*
X453500D01*
X450900Y376600D02*
X453500D01*
X460800D02*
X460900D01*
X450300Y376500D02*
X453500D01*
X450300Y376400D02*
X453600D01*
X450300Y376300D02*
X453600D01*
X450200Y376200D02*
X453600D01*
X452300Y376100D02*
X453600D01*
X452300Y376000D02*
X453600D01*
X452300Y375900D02*
X453600D01*
X452300Y375800D02*
X453600D01*
X452300Y375700D02*
X453600D01*
X452200Y375600D02*
X453600D01*
X452200Y375500D02*
X453900D01*
X452200Y375400D02*
X453800D01*
X452100Y375300D02*
X453700D01*
X452000Y375200D02*
X453600D01*
X451900Y375100D02*
X453600D01*
X451800Y375000D02*
X453600D01*
X451600Y374900D02*
X453600D01*
X451400Y374800D02*
X453400D01*
X451000Y374700D02*
X453300D01*
X456000D02*
X462100D01*
X451100Y374600D02*
X453300D01*
X455700D02*
X462100D01*
X451100Y374500D02*
X453200D01*
X455700D02*
X462300D01*
X451000Y374400D02*
X453000D01*
X455400D02*
X462300D01*
X444000Y374300D02*
X444900D01*
X451000D02*
X453000D01*
X455500D02*
X462300D01*
X444000Y374200D02*
X445800D01*
X451000D02*
X452900D01*
X455300D02*
X462300D01*
X443900Y374100D02*
X446600D01*
X451000D02*
X452900D01*
X455200D02*
X462300D01*
X443900Y374000D02*
X447000D01*
X451000D02*
X452800D01*
X455200D02*
X462400D01*
X443900Y373900D02*
X447100D01*
X451000D02*
X452800D01*
X455100D02*
X462500D01*
X443900Y373800D02*
X447900D01*
X455000D02*
X462500D01*
X443800Y373700D02*
X448200D01*
X455000D02*
X462500D01*
X443800Y373600D02*
X448800D01*
X455000D02*
X462500D01*
X443700Y373500D02*
X449100D01*
X455000D02*
X462600D01*
X443600Y373400D02*
X449100D01*
X455000D02*
X462600D01*
X443600Y373300D02*
X448700D01*
X454900D02*
X462600D01*
X443600Y373200D02*
X449000D01*
X454900D02*
X462700D01*
X443600Y373100D02*
X452400D01*
X452500D02*
X453000D01*
X454900D02*
X462800D01*
X444200Y373000D02*
X452200D01*
X452600D02*
X453500D01*
X454800D02*
X462900D01*
X452700Y372900D02*
X453700D01*
X454700Y372800D02*
X463500D01*
X454100Y372700D02*
X463500D01*
X454200Y372600D02*
X463300D01*
X454600Y372500D02*
X463300D01*
X454300Y372400D02*
X463300D01*
X454100Y372300D02*
X463400D01*
X452400Y372200D02*
X452800D01*
X454100D02*
X463600D01*
X452800Y372100D02*
X453000D01*
X454100D02*
X463700D01*
X452800Y372000D02*
X453200D01*
X453800D02*
X463700D01*
X453800Y371900D02*
X463600D01*
X453800Y371800D02*
X463700D01*
X453700Y371700D02*
X463900D01*
X452700Y371600D02*
X452800D01*
X453700D02*
X463900D01*
X452200Y371500D02*
X464100D01*
X452200Y371400D02*
X464000D01*
X452500Y371300D02*
X464000D01*
X456300Y383000D02*
X461600D01*
X452800Y382900D02*
X454100D01*
X454500D02*
X461900D01*
X452800Y382800D02*
X454200D01*
X459200D02*
X462200D01*
X452700Y382700D02*
X454400D01*
X459300D02*
X462200D01*
X452500Y382600D02*
X458100D01*
X459500D02*
X462000D01*
X452400Y382500D02*
X458000D01*
X459700D02*
X462000D01*
X452300Y382400D02*
X458000D01*
X459700D02*
X463600D01*
X452200Y382300D02*
X457900D01*
X459800D02*
X463800D01*
X452000Y382200D02*
X457900D01*
X459900D02*
X464200D01*
X451800Y382100D02*
X457900D01*
X459900D02*
X464300D01*
X451700Y382000D02*
X457900D01*
X459800D02*
X464300D01*
X451600Y381900D02*
X458000D01*
X459100D02*
X464400D01*
X451600Y381800D02*
X458200D01*
X459400D02*
X464500D01*
X451600Y381700D02*
X458100D01*
X459600D02*
X464500D01*
X451500Y381600D02*
X458100D01*
X459600D02*
X464600D01*
X451300Y381500D02*
X458100D01*
X451100Y381400D02*
X458100D01*
X459600D02*
X464700D01*
X451000Y381300D02*
X458200D01*
X459500D02*
X464600D01*
X451000Y381200D02*
X458400D01*
X451000Y381100D02*
X458600D01*
X450500Y380600D02*
X455300D01*
X450400Y380500D02*
X454400D01*
X450400Y380400D02*
X454100D01*
X456400D02*
X462000D01*
X450400Y380300D02*
X453900D01*
X456400D02*
X462100D01*
X452000Y380200D02*
X453800D01*
X456100D02*
X462300D01*
X452100Y380100D02*
X453700D01*
X455700D02*
X462300D01*
X452100Y380000D02*
X453700D01*
X455300D02*
X462300D01*
X451700Y379900D02*
X453700D01*
X454700D02*
X462400D01*
X452500Y379800D02*
X453700D01*
X455000D02*
X462400D01*
X451600Y379700D02*
X453700D01*
X456300D02*
X462400D01*
X451500Y379600D02*
X453800D01*
X456500D02*
X461700D01*
X451100Y379500D02*
X453800D01*
X456600D02*
X461200D01*
X451100Y379400D02*
X453900D01*
X456600D02*
X460900D01*
X451200Y379300D02*
X453900D01*
X456700D02*
X460900D01*
X460800Y393700D02*
X461100D01*
X460800Y393600D02*
X461200D01*
X460500Y393400D02*
X460800D01*
X460500Y393300D02*
X461600D01*
X460500Y393200D02*
X461600D01*
X460600Y393100D02*
X461700D01*
X460500Y393000D02*
X461700D01*
X460400Y392900D02*
X461700D01*
X460500Y392800D02*
X461800D01*
X460500Y392700D02*
X461800D01*
X460500Y392600D02*
X461900D01*
X460500Y392500D02*
X461900D01*
X460400Y392400D02*
X462000D01*
X460200Y392300D02*
X462000D01*
X460100Y392200D02*
X463100D01*
X459900Y392100D02*
X463100D01*
X458500Y392000D02*
X463100D01*
X458100Y391900D02*
X463000D01*
X458000Y391800D02*
X463000D01*
X457800Y391700D02*
X463000D01*
X457700Y391600D02*
X463000D01*
X457500Y391500D02*
X462900D01*
X457400Y391400D02*
X462900D01*
X456800Y391300D02*
X462900D01*
X457200Y391200D02*
X462800D01*
X457000Y391100D02*
X462800D01*
X457100Y391000D02*
X462700D01*
X457000Y390900D02*
X462700D01*
X457000Y390800D02*
X462700D01*
X457000Y390700D02*
X462600D01*
X457000Y390600D02*
X462500D01*
X457100Y390500D02*
X462800D01*
X457200Y390400D02*
X462600D01*
X457100Y390300D02*
X462500D01*
X457100Y390200D02*
X462900D01*
X457100Y390100D02*
X462900D01*
X457000Y390000D02*
X462900D01*
X457000Y389900D02*
X463000D01*
X457000Y389800D02*
X463000D01*
X457000Y389700D02*
X463000D01*
X456900Y389600D02*
X463100D01*
X456800Y389500D02*
X463200D01*
X452800Y389400D02*
X453000D01*
X456800D02*
X463200D01*
X456700Y389300D02*
X463300D01*
X456600Y389200D02*
X463300D01*
X456500Y389100D02*
X462100D01*
X455400Y389000D02*
X461600D01*
X455600Y388900D02*
X461100D01*
X452800Y388000D02*
X452900D01*
X452800Y387900D02*
X452900D01*
X452700Y387800D02*
X452900D01*
X452800Y387700D02*
X452900D01*
X452800Y387600D02*
X452900D01*
X452800Y387500D02*
X452900D01*
X456500D02*
X461600D01*
X456800Y387400D02*
X461300D01*
X468600Y374400D02*
X470400D01*
X465500Y374300D02*
X470500D01*
X465300Y374200D02*
X470600D01*
X467400Y374100D02*
X470700D01*
X467100Y374000D02*
X470800D01*
X466900Y373900D02*
X470900D01*
X466500Y373800D02*
X471000D01*
X466300Y373700D02*
X471000D01*
X466000Y373600D02*
X470900D01*
X465900Y373500D02*
X470700D01*
X465900Y373400D02*
X470200D01*
X466100Y373300D02*
X469800D01*
X465900Y373200D02*
X469400D01*
X451200Y379200D02*
X454000D01*
X457500D02*
X461300D01*
X459700Y371200D02*
X463800D01*
X463300Y373100D02*
X469100D01*
X463200Y373000D02*
X469100D01*
X454800Y372900D02*
X469300D01*
X463800Y372800D02*
X469300D01*
X463900Y372700D02*
X469100D01*
X459600Y381500D02*
X464800D01*
X459400Y381200D02*
X464800D01*
X459100Y381100D02*
X464900D01*
X451100Y381000D02*
X465200D01*
X450800Y380900D02*
X465500D01*
X450600Y380800D02*
X465600D01*
X450500Y380700D02*
X465500D01*
X456400Y380600D02*
X465400D01*
X456400Y380500D02*
X465400D01*
D13*
X326553Y348017D02*
Y350970D01*
X327537Y348017D02*
Y350970D01*
X396001Y369808D02*
X397970D01*
X338530Y362553D02*
X341483D01*
X338530Y363537D02*
X341483D01*
X397953Y378517D02*
Y381470D01*
X398937Y378517D02*
Y381470D01*
D14*
X337685Y385359D02*
X341425Y385359D01*
X344575D02*
X348315Y385359D01*
X337685Y380241D02*
X341425Y380241D01*
X344575D02*
X348315Y380241D01*
Y385359D01*
X337685Y380241D02*
Y385359D01*
X345565Y387441D02*
X348715D01*
Y392559D01*
X345565D02*
X348715D01*
X337285Y387441D02*
X340435D01*
X337285D02*
Y392559D01*
X340336D01*
D15*
X411240Y378830D02*
X413490D01*
X411240D02*
Y381080D01*
Y395170D02*
X413490D01*
X411240Y392920D02*
Y395170D01*
X425330Y378830D02*
X427580D01*
Y381080D01*
X425330Y395170D02*
X427580D01*
Y392920D02*
Y395170D01*
D16*
X442382Y253894D02*
X448681D01*
Y260193D01*
X345689Y368933D02*
X351988D01*
X345689Y362634D02*
Y368933D01*
M02*
