G04*
G04 #@! TF.GenerationSoftware,Altium Limited,Altium Designer,22.0.2 (36)*
G04*
G04 Layer_Color=32896*
%FSLAX25Y25*%
%MOIN*%
G70*
G04*
G04 #@! TF.SameCoordinates,A8AB103B-E7CB-45E0-896D-D1B8D88E5F6C*
G04*
G04*
G04 #@! TF.FilePolarity,Positive*
G04*
G01*
G75*
%ADD10C,0.01000*%
%ADD13C,0.00500*%
%ADD14C,0.00787*%
%ADD16C,0.00800*%
%ADD76C,0.00984*%
%ADD77C,0.01575*%
%ADD78R,0.03937X0.00787*%
G36*
X381469Y266882D02*
X377532D01*
X379500Y263339D01*
X381469Y266882D01*
D02*
G37*
G36*
X324468Y364055D02*
X320532D01*
X322500Y360512D01*
X324468Y364055D01*
D02*
G37*
G36*
X347760Y352036D02*
X347760Y349674D01*
X345398Y350855D01*
X347760Y352036D01*
D02*
G37*
G36*
X446972Y283531D02*
Y285893D01*
X449334Y284712D01*
X446972Y283531D01*
D02*
G37*
G36*
X386552Y355086D02*
X383796Y353708D01*
Y356464D01*
X386552Y355086D01*
D02*
G37*
G36*
X393245Y378273D02*
X390883Y378273D01*
X392064Y376304D01*
X393245Y378273D01*
D02*
G37*
G36*
X441900Y351000D02*
X433634D01*
D01*
X431429D01*
X431481Y351007D01*
X431555D01*
X431644Y351022D01*
X431747Y351030D01*
X431858Y351052D01*
X431977Y351074D01*
X432110Y351111D01*
X432243Y351148D01*
X432376Y351200D01*
X432517Y351259D01*
X432650Y351333D01*
X432783Y351414D01*
X432909Y351503D01*
X433027Y351614D01*
X433035Y351622D01*
X433050Y351644D01*
X433087Y351681D01*
X433124Y351725D01*
X433168Y351792D01*
X433220Y351866D01*
X433272Y351947D01*
X433331Y352051D01*
X433390Y352162D01*
X433442Y352288D01*
X433494Y352421D01*
X433538Y352569D01*
X433575Y352724D01*
X433605Y352894D01*
X433627Y353072D01*
X433634Y353257D01*
Y352769D01*
Y353309D01*
X433627Y353361D01*
Y353435D01*
X433612Y353531D01*
X433597Y353634D01*
X433575Y353760D01*
X433545Y353886D01*
X433516Y354027D01*
X433471Y354167D01*
X433412Y354315D01*
X433346Y354463D01*
X433272Y354611D01*
X433175Y354759D01*
X433072Y354900D01*
X432953Y355033D01*
X432946Y355040D01*
X432924Y355063D01*
X432887Y355100D01*
X432828Y355144D01*
X432761Y355196D01*
X432680Y355255D01*
X432583Y355314D01*
X432480Y355381D01*
X432361Y355447D01*
X432228Y355507D01*
X432080Y355566D01*
X431925Y355618D01*
X431762Y355662D01*
X431584Y355699D01*
X431399Y355721D01*
X431200Y355729D01*
X433634D01*
X430082D01*
X431089D01*
X431029Y355721D01*
X430963D01*
X430889Y355714D01*
X430807Y355706D01*
X430637Y355684D01*
X430445Y355655D01*
X430260Y355610D01*
X430082Y355551D01*
Y354611D01*
X430090D01*
X430104Y354626D01*
X430127Y354633D01*
X430164Y354656D01*
X430208Y354670D01*
X430260Y354693D01*
X430319Y354722D01*
X430386Y354744D01*
X430541Y354796D01*
X430719Y354833D01*
X430918Y354863D01*
X431133Y354878D01*
X431200D01*
X431244Y354870D01*
X431303Y354863D01*
X431370Y354855D01*
X431444Y354841D01*
X431518Y354826D01*
X431688Y354774D01*
X431777Y354737D01*
X431873Y354700D01*
X431962Y354648D01*
X432043Y354589D01*
X432125Y354522D01*
X432206Y354448D01*
X432213Y354441D01*
X432221Y354426D01*
X432243Y354404D01*
X432265Y354374D01*
X432295Y354330D01*
X432332Y354278D01*
X432369Y354219D01*
X432406Y354152D01*
X432443Y354071D01*
X432480Y353990D01*
X432509Y353901D01*
X432546Y353797D01*
X432591Y353583D01*
X432598Y353457D01*
X432606Y353331D01*
Y353324D01*
Y353301D01*
Y353264D01*
X432598Y353220D01*
X432591Y353161D01*
X432583Y353094D01*
X432576Y353020D01*
X432561Y352946D01*
X432517Y352769D01*
X432443Y352591D01*
X432406Y352495D01*
X432354Y352406D01*
X432295Y352325D01*
X432228Y352243D01*
X432221Y352236D01*
X432213Y352228D01*
X432191Y352206D01*
X432154Y352177D01*
X432117Y352147D01*
X432073Y352117D01*
X432014Y352080D01*
X431954Y352043D01*
X431880Y351999D01*
X431806Y351962D01*
X431629Y351903D01*
X431422Y351851D01*
X431311Y351844D01*
X431192Y351836D01*
X431133D01*
X431089Y351844D01*
X431037D01*
X430970Y351851D01*
X430904Y351858D01*
X430822Y351873D01*
X430652Y351910D01*
X430467Y351962D01*
X430275Y352036D01*
X430082Y352132D01*
Y354167D01*
Y351237D01*
X430090D01*
X430104Y351229D01*
X430134Y351215D01*
X430171Y351200D01*
X430223Y351185D01*
X430282Y351163D01*
X430349Y351141D01*
X430430Y351118D01*
X430519Y351096D01*
X430615Y351074D01*
X430726Y351052D01*
X430837Y351037D01*
X430963Y351022D01*
X431096Y351007D01*
X431237Y351000D01*
X430082D01*
D01*
X429313D01*
D01*
X427522D01*
X427559Y351007D01*
X427596D01*
X427648Y351015D01*
X427766Y351030D01*
X427899Y351059D01*
X428055Y351104D01*
X428225Y351163D01*
X428395Y351252D01*
X428565Y351355D01*
X428728Y351481D01*
X428809Y351562D01*
X428883Y351644D01*
X428957Y351740D01*
X429024Y351836D01*
X429091Y351947D01*
X429142Y352066D01*
X429194Y352191D01*
X429231Y352332D01*
X429268Y352480D01*
X429290Y352635D01*
X429305Y352806D01*
X429313Y352983D01*
Y355647D01*
X425576D01*
Y351000D01*
X423289D01*
Y355729D01*
X441900D01*
Y351000D01*
D02*
G37*
G36*
X428336Y352983D02*
Y352968D01*
Y352931D01*
X428328Y352880D01*
X428321Y352806D01*
X428306Y352717D01*
X428291Y352621D01*
X428262Y352517D01*
X428225Y352413D01*
X428173Y352302D01*
X428114Y352199D01*
X428040Y352103D01*
X427951Y352014D01*
X427855Y351940D01*
X427729Y351888D01*
X427588Y351851D01*
X427433Y351836D01*
X427396D01*
X427352Y351844D01*
X427292Y351851D01*
X427226Y351873D01*
X427152Y351895D01*
X427078Y351932D01*
X426989Y351977D01*
X426908Y352036D01*
X426834Y352103D01*
X426760Y352191D01*
X426693Y352302D01*
X426634Y352428D01*
X426589Y352576D01*
X426560Y352746D01*
X426552Y352939D01*
Y355647D01*
X428336D01*
Y352983D01*
D02*
G37*
G36*
X425583Y352909D02*
X425590Y352857D01*
X425598Y352791D01*
X425605Y352724D01*
X425635Y352569D01*
X425679Y352399D01*
X425731Y352214D01*
X425812Y352021D01*
X425916Y351829D01*
X426042Y351644D01*
X426116Y351555D01*
X426190Y351474D01*
X426279Y351392D01*
X426375Y351318D01*
X426486Y351252D01*
X426597Y351192D01*
X426715Y351133D01*
X426848Y351089D01*
X426989Y351052D01*
X427144Y351022D01*
X427307Y351007D01*
X427477Y351000D01*
X425576D01*
Y352954D01*
X425583Y352909D01*
D02*
G37*
G36*
X414446Y264721D02*
X414631Y264699D01*
X414809Y264662D01*
X414971Y264618D01*
X415127Y264566D01*
X415275Y264507D01*
X415408Y264447D01*
X415526Y264381D01*
X415630Y264314D01*
X415726Y264255D01*
X415808Y264196D01*
X415874Y264144D01*
X415933Y264100D01*
X415970Y264063D01*
X415993Y264040D01*
X416000Y264033D01*
X416118Y263900D01*
X416222Y263759D01*
X416318Y263611D01*
X416392Y263463D01*
X416459Y263315D01*
X416518Y263167D01*
X416562Y263027D01*
X416592Y262886D01*
X416622Y262760D01*
X416644Y262634D01*
X416659Y262531D01*
X416673Y262435D01*
Y262361D01*
X416681Y262309D01*
Y262272D01*
Y262257D01*
X416673Y262072D01*
X416651Y261894D01*
X416622Y261724D01*
X416585Y261569D01*
X416540Y261421D01*
X416488Y261288D01*
X416437Y261162D01*
X416377Y261051D01*
X416318Y260947D01*
X416266Y260866D01*
X416215Y260792D01*
X416170Y260725D01*
X416133Y260681D01*
X416096Y260644D01*
X416081Y260622D01*
X416074Y260614D01*
X415956Y260503D01*
X415830Y260414D01*
X415697Y260333D01*
X415563Y260259D01*
X415423Y260200D01*
X415290Y260148D01*
X415156Y260111D01*
X415023Y260074D01*
X414905Y260052D01*
X414794Y260030D01*
X414690Y260022D01*
X414601Y260007D01*
X414527D01*
X414476Y260000D01*
X414283D01*
X414143Y260007D01*
X414009Y260022D01*
X413884Y260037D01*
X413773Y260052D01*
X413662Y260074D01*
X413565Y260096D01*
X413477Y260118D01*
X413395Y260141D01*
X413329Y260163D01*
X413269Y260185D01*
X413218Y260200D01*
X413181Y260215D01*
X413151Y260229D01*
X413136Y260237D01*
X413129D01*
Y261132D01*
X413321Y261036D01*
X413514Y260962D01*
X413699Y260910D01*
X413869Y260873D01*
X413950Y260858D01*
X414017Y260851D01*
X414083Y260844D01*
X414135D01*
X414180Y260836D01*
X414239D01*
X414357Y260844D01*
X414468Y260851D01*
X414675Y260903D01*
X414853Y260962D01*
X414927Y260999D01*
X415001Y261043D01*
X415060Y261080D01*
X415119Y261117D01*
X415164Y261147D01*
X415201Y261177D01*
X415238Y261206D01*
X415260Y261228D01*
X415267Y261236D01*
X415275Y261243D01*
X415341Y261325D01*
X415401Y261406D01*
X415452Y261495D01*
X415489Y261591D01*
X415563Y261769D01*
X415608Y261946D01*
X415623Y262020D01*
X415630Y262094D01*
X415637Y262161D01*
X415645Y262220D01*
X415652Y262264D01*
Y262301D01*
Y262324D01*
Y262331D01*
X415645Y262457D01*
X415637Y262583D01*
X415593Y262797D01*
X415556Y262901D01*
X415526Y262990D01*
X415489Y263071D01*
X415452Y263152D01*
X415415Y263219D01*
X415378Y263278D01*
X415341Y263330D01*
X415312Y263374D01*
X415290Y263404D01*
X415267Y263426D01*
X415260Y263441D01*
X415253Y263448D01*
X415171Y263522D01*
X415090Y263589D01*
X415008Y263648D01*
X414920Y263700D01*
X414823Y263737D01*
X414735Y263774D01*
X414564Y263826D01*
X414490Y263841D01*
X414416Y263855D01*
X414350Y263863D01*
X414291Y263870D01*
X414246Y263878D01*
X414180D01*
X413965Y263863D01*
X413765Y263833D01*
X413588Y263796D01*
X413432Y263744D01*
X413366Y263722D01*
X413306Y263693D01*
X413255Y263670D01*
X413210Y263656D01*
X413173Y263633D01*
X413151Y263626D01*
X413136Y263611D01*
X413129D01*
Y264551D01*
X413306Y264610D01*
X413491Y264655D01*
X413684Y264684D01*
X413854Y264706D01*
X413935Y264714D01*
X414009Y264721D01*
X414076D01*
X414135Y264729D01*
X414246D01*
X414446Y264721D01*
D02*
G37*
G36*
X419700Y260074D02*
X417014D01*
Y260866D01*
X418723D01*
Y264647D01*
X419700D01*
Y260074D01*
D02*
G37*
G36*
X412315D02*
X410739D01*
X410539Y260081D01*
X410354Y260104D01*
X410176Y260133D01*
X410006Y260170D01*
X409851Y260222D01*
X409710Y260274D01*
X409577Y260333D01*
X409451Y260392D01*
X409347Y260451D01*
X409251Y260511D01*
X409170Y260562D01*
X409103Y260614D01*
X409044Y260651D01*
X409007Y260681D01*
X408985Y260703D01*
X408977Y260710D01*
X408859Y260836D01*
X408755Y260969D01*
X408659Y261110D01*
X408585Y261251D01*
X408519Y261391D01*
X408459Y261532D01*
X408415Y261672D01*
X408378Y261806D01*
X408356Y261931D01*
X408334Y262050D01*
X408319Y262153D01*
X408304Y262242D01*
Y262316D01*
X408297Y262375D01*
Y262405D01*
Y262420D01*
X408304Y262620D01*
X408326Y262812D01*
X408356Y262990D01*
X408400Y263152D01*
X408459Y263308D01*
X408519Y263456D01*
X408593Y263589D01*
X408674Y263707D01*
X408763Y263818D01*
X408859Y263922D01*
X408963Y264018D01*
X409066Y264107D01*
X409177Y264181D01*
X409288Y264248D01*
X409510Y264366D01*
X409740Y264462D01*
X409962Y264529D01*
X410169Y264581D01*
X410354Y264610D01*
X410435Y264625D01*
X410509Y264632D01*
X410568Y264640D01*
X410628D01*
X410672Y264647D01*
X412315D01*
Y260074D01*
D02*
G37*
G36*
X474584Y359456D02*
X474636Y359271D01*
X474681Y359078D01*
X474703Y358901D01*
X474710Y358812D01*
X474718Y358738D01*
X474725Y358671D01*
Y358612D01*
X474732Y358560D01*
Y358494D01*
X474725Y358346D01*
X474718Y358213D01*
X474695Y358079D01*
X474673Y357961D01*
X474651Y357843D01*
X474614Y357739D01*
X474584Y357643D01*
X474547Y357554D01*
X474518Y357480D01*
X474481Y357413D01*
X474451Y357354D01*
X474429Y357310D01*
X474399Y357273D01*
X474384Y357243D01*
X474377Y357228D01*
X474370Y357221D01*
X474296Y357140D01*
X474222Y357066D01*
X474140Y356999D01*
X474059Y356940D01*
X473970Y356895D01*
X473889Y356858D01*
X473726Y356799D01*
X473578Y356762D01*
X473519Y356755D01*
X473459Y356747D01*
X473415Y356740D01*
X473385D01*
X473363D01*
X473356D01*
X473201Y356755D01*
X473060Y356784D01*
X472934Y356829D01*
X472830Y356881D01*
X472749Y356940D01*
X472683Y356984D01*
X472646Y357014D01*
X472631Y357029D01*
X472527Y357147D01*
X472453Y357273D01*
X472394Y357399D01*
X472342Y357517D01*
X472312Y357628D01*
X472298Y357709D01*
X472290Y357746D01*
X472283Y357769D01*
Y357791D01*
X472268D01*
X472216Y357628D01*
X472150Y357487D01*
X472076Y357369D01*
X471994Y357265D01*
X471906Y357177D01*
X471809Y357103D01*
X471713Y357043D01*
X471617Y356992D01*
X471521Y356955D01*
X471432Y356925D01*
X471350Y356910D01*
X471284Y356895D01*
X471217Y356888D01*
X471173Y356881D01*
X471143D01*
X471136D01*
X471040Y356888D01*
X470943Y356895D01*
X470781Y356947D01*
X470640Y357006D01*
X470522Y357080D01*
X470426Y357162D01*
X470359Y357221D01*
X470322Y357273D01*
X470307Y357280D01*
Y357288D01*
X470203Y357450D01*
X470129Y357628D01*
X470078Y357798D01*
X470041Y357968D01*
X470018Y358116D01*
X470011Y358183D01*
Y358235D01*
X470004Y358279D01*
Y358346D01*
X470011Y358575D01*
X470041Y358790D01*
X470085Y358975D01*
X470107Y359064D01*
X470129Y359138D01*
X470152Y359212D01*
X470174Y359271D01*
X470196Y359330D01*
X470218Y359374D01*
X470233Y359404D01*
X470248Y359434D01*
X470255Y359448D01*
Y359456D01*
X471040D01*
X470936Y359293D01*
X470862Y359138D01*
X470810Y358982D01*
X470773Y358849D01*
X470751Y358731D01*
X470744Y358679D01*
Y358642D01*
X470736Y358605D01*
Y358560D01*
X470744Y358435D01*
X470758Y358331D01*
X470788Y358235D01*
X470825Y358153D01*
X470877Y358087D01*
X470921Y358028D01*
X470981Y357983D01*
X471032Y357946D01*
X471084Y357917D01*
X471143Y357894D01*
X471232Y357865D01*
X471277D01*
X471306Y357857D01*
X471321D01*
X471328D01*
X471439Y357865D01*
X471528Y357894D01*
X471609Y357939D01*
X471684Y357998D01*
X471743Y358072D01*
X471795Y358146D01*
X471832Y358227D01*
X471869Y358316D01*
X471913Y358486D01*
X471920Y358560D01*
X471935Y358634D01*
Y358694D01*
X471943Y358738D01*
Y359152D01*
X472683D01*
Y358745D01*
X472690Y358575D01*
X472712Y358420D01*
X472734Y358294D01*
X472764Y358183D01*
X472801Y358102D01*
X472823Y358042D01*
X472845Y358005D01*
X472853Y357991D01*
X472919Y357902D01*
X473001Y357835D01*
X473082Y357783D01*
X473164Y357754D01*
X473238Y357732D01*
X473297Y357724D01*
X473334Y357717D01*
X473341D01*
X473349D01*
X473459Y357724D01*
X473556Y357754D01*
X473644Y357791D01*
X473711Y357828D01*
X473763Y357872D01*
X473807Y357909D01*
X473830Y357939D01*
X473837Y357946D01*
X473896Y358035D01*
X473933Y358139D01*
X473963Y358235D01*
X473985Y358338D01*
X474000Y358427D01*
X474007Y358494D01*
Y358560D01*
X474000Y358671D01*
X473992Y358782D01*
X473955Y358982D01*
X473896Y359167D01*
X473837Y359323D01*
X473807Y359389D01*
X473778Y359448D01*
X473748Y359500D01*
X473719Y359545D01*
X473696Y359582D01*
X473681Y359604D01*
X473667Y359619D01*
Y359626D01*
X474510D01*
X474584Y359456D01*
D02*
G37*
G36*
X474658Y354764D02*
Y353662D01*
X470085Y352071D01*
Y353092D01*
X473312Y354083D01*
X473489Y354128D01*
X473563Y354143D01*
X473630Y354157D01*
X473689Y354165D01*
X473733Y354172D01*
X473763Y354180D01*
X473770D01*
Y354202D01*
X473615Y354224D01*
X473533Y354239D01*
X473467Y354254D01*
X473408Y354268D01*
X473363Y354276D01*
X473326Y354291D01*
X473319D01*
X470085Y355282D01*
Y356333D01*
X474658Y354764D01*
D02*
G37*
G36*
X474584Y351397D02*
X474636Y351212D01*
X474681Y351020D01*
X474703Y350842D01*
X474710Y350753D01*
X474718Y350679D01*
X474725Y350613D01*
Y350554D01*
X474732Y350502D01*
Y350435D01*
X474725Y350287D01*
X474718Y350154D01*
X474695Y350021D01*
X474673Y349902D01*
X474651Y349784D01*
X474614Y349680D01*
X474584Y349584D01*
X474547Y349495D01*
X474518Y349421D01*
X474481Y349355D01*
X474451Y349296D01*
X474429Y349251D01*
X474399Y349214D01*
X474384Y349185D01*
X474377Y349170D01*
X474370Y349162D01*
X474296Y349081D01*
X474222Y349007D01*
X474140Y348940D01*
X474059Y348881D01*
X473970Y348837D01*
X473889Y348800D01*
X473726Y348741D01*
X473578Y348704D01*
X473519Y348696D01*
X473459Y348689D01*
X473415Y348681D01*
X473385D01*
X473363D01*
X473356D01*
X473201Y348696D01*
X473060Y348726D01*
X472934Y348770D01*
X472830Y348822D01*
X472749Y348881D01*
X472683Y348926D01*
X472646Y348955D01*
X472631Y348970D01*
X472527Y349088D01*
X472453Y349214D01*
X472394Y349340D01*
X472342Y349458D01*
X472312Y349569D01*
X472298Y349651D01*
X472290Y349688D01*
X472283Y349710D01*
Y349732D01*
X472268D01*
X472216Y349569D01*
X472150Y349429D01*
X472076Y349310D01*
X471994Y349207D01*
X471906Y349118D01*
X471809Y349044D01*
X471713Y348985D01*
X471617Y348933D01*
X471521Y348896D01*
X471432Y348866D01*
X471350Y348852D01*
X471284Y348837D01*
X471217Y348829D01*
X471173Y348822D01*
X471143D01*
X471136D01*
X471040Y348829D01*
X470943Y348837D01*
X470781Y348889D01*
X470640Y348948D01*
X470522Y349022D01*
X470426Y349103D01*
X470359Y349162D01*
X470322Y349214D01*
X470307Y349222D01*
Y349229D01*
X470203Y349392D01*
X470129Y349569D01*
X470078Y349740D01*
X470041Y349910D01*
X470018Y350058D01*
X470011Y350124D01*
Y350176D01*
X470004Y350221D01*
Y350287D01*
X470011Y350517D01*
X470041Y350731D01*
X470085Y350916D01*
X470107Y351005D01*
X470129Y351079D01*
X470152Y351153D01*
X470174Y351212D01*
X470196Y351271D01*
X470218Y351316D01*
X470233Y351345D01*
X470248Y351375D01*
X470255Y351390D01*
Y351397D01*
X471040D01*
X470936Y351234D01*
X470862Y351079D01*
X470810Y350924D01*
X470773Y350790D01*
X470751Y350672D01*
X470744Y350620D01*
Y350583D01*
X470736Y350546D01*
Y350502D01*
X470744Y350376D01*
X470758Y350272D01*
X470788Y350176D01*
X470825Y350095D01*
X470877Y350028D01*
X470921Y349969D01*
X470981Y349925D01*
X471032Y349888D01*
X471084Y349858D01*
X471143Y349836D01*
X471232Y349806D01*
X471277D01*
X471306Y349799D01*
X471321D01*
X471328D01*
X471439Y349806D01*
X471528Y349836D01*
X471609Y349880D01*
X471684Y349939D01*
X471743Y350013D01*
X471795Y350087D01*
X471832Y350169D01*
X471869Y350258D01*
X471913Y350428D01*
X471920Y350502D01*
X471935Y350576D01*
Y350635D01*
X471943Y350679D01*
Y351094D01*
X472683D01*
Y350687D01*
X472690Y350517D01*
X472712Y350361D01*
X472734Y350235D01*
X472764Y350124D01*
X472801Y350043D01*
X472823Y349984D01*
X472845Y349947D01*
X472853Y349932D01*
X472919Y349843D01*
X473001Y349777D01*
X473082Y349725D01*
X473164Y349695D01*
X473238Y349673D01*
X473297Y349666D01*
X473334Y349658D01*
X473341D01*
X473349D01*
X473459Y349666D01*
X473556Y349695D01*
X473644Y349732D01*
X473711Y349769D01*
X473763Y349814D01*
X473807Y349851D01*
X473830Y349880D01*
X473837Y349888D01*
X473896Y349976D01*
X473933Y350080D01*
X473963Y350176D01*
X473985Y350280D01*
X474000Y350369D01*
X474007Y350435D01*
Y350502D01*
X474000Y350613D01*
X473992Y350724D01*
X473955Y350924D01*
X473896Y351109D01*
X473837Y351264D01*
X473807Y351331D01*
X473778Y351390D01*
X473748Y351442D01*
X473719Y351486D01*
X473696Y351523D01*
X473681Y351545D01*
X473667Y351560D01*
Y351567D01*
X474510D01*
X474584Y351397D01*
D02*
G37*
G36*
X455745Y385874D02*
X454790D01*
Y387731D01*
X454783Y387850D01*
X454761Y387953D01*
X454731Y388050D01*
X454701Y388124D01*
X454672Y388190D01*
X454642Y388235D01*
X454620Y388264D01*
X454613Y388272D01*
X454539Y388346D01*
X454465Y388397D01*
X454383Y388434D01*
X454317Y388457D01*
X454250Y388479D01*
X454198Y388486D01*
X454154D01*
X454058Y388479D01*
X453976Y388457D01*
X453902Y388420D01*
X453836Y388368D01*
X453784Y388309D01*
X453739Y388249D01*
X453702Y388183D01*
X453673Y388109D01*
X453636Y387968D01*
X453621Y387909D01*
X453614Y387850D01*
X453606Y387798D01*
Y387761D01*
Y387739D01*
Y387731D01*
Y385874D01*
X452652D01*
Y387879D01*
Y387998D01*
X452666Y388116D01*
X452696Y388323D01*
X452755Y388501D01*
X452829Y388656D01*
X452911Y388782D01*
X453007Y388893D01*
X453103Y388982D01*
X453207Y389049D01*
X453318Y389108D01*
X453414Y389145D01*
X453510Y389182D01*
X453591Y389197D01*
X453665Y389211D01*
X453717Y389219D01*
X453769D01*
X453887Y389211D01*
X453991Y389197D01*
X454095Y389167D01*
X454191Y389130D01*
X454361Y389041D01*
X454509Y388938D01*
X454568Y388878D01*
X454620Y388827D01*
X454672Y388782D01*
X454709Y388738D01*
X454738Y388701D01*
X454761Y388671D01*
X454768Y388656D01*
X454775Y388649D01*
X454790D01*
Y390706D01*
X455745D01*
Y385874D01*
D02*
G37*
G36*
X462849Y387169D02*
Y387043D01*
X462834Y386925D01*
X462819Y386821D01*
X462797Y386718D01*
X462745Y386533D01*
X462671Y386377D01*
X462582Y386244D01*
X462486Y386133D01*
X462383Y386044D01*
X462272Y385970D01*
X462168Y385918D01*
X462064Y385874D01*
X461968Y385844D01*
X461879Y385822D01*
X461805Y385807D01*
X461754Y385800D01*
X461702D01*
X461583Y385807D01*
X461480Y385822D01*
X461376Y385852D01*
X461280Y385889D01*
X461110Y385978D01*
X460969Y386089D01*
X460903Y386140D01*
X460851Y386192D01*
X460806Y386237D01*
X460769Y386281D01*
X460740Y386318D01*
X460718Y386348D01*
X460710Y386362D01*
X460703Y386370D01*
X460688D01*
Y385874D01*
X459741D01*
Y389137D01*
X460688D01*
Y387265D01*
X460695Y387147D01*
X460718Y387036D01*
X460740Y386947D01*
X460769Y386866D01*
X460806Y386806D01*
X460829Y386762D01*
X460851Y386732D01*
X460858Y386725D01*
X460925Y386658D01*
X460999Y386607D01*
X461080Y386577D01*
X461154Y386547D01*
X461213Y386533D01*
X461273Y386525D01*
X461317D01*
X461421Y386533D01*
X461509Y386555D01*
X461583Y386592D01*
X461650Y386644D01*
X461709Y386695D01*
X461754Y386755D01*
X461791Y386821D01*
X461820Y386895D01*
X461865Y387028D01*
X461879Y387088D01*
X461887Y387147D01*
Y387191D01*
X461894Y387228D01*
Y387250D01*
Y387258D01*
Y389137D01*
X462849D01*
Y387169D01*
D02*
G37*
G36*
X457395Y389211D02*
X457543Y389197D01*
X457676Y389174D01*
X457802Y389145D01*
X457920Y389108D01*
X458031Y389063D01*
X458128Y389026D01*
X458216Y388982D01*
X458298Y388930D01*
X458372Y388893D01*
X458431Y388849D01*
X458483Y388812D01*
X458520Y388782D01*
X458549Y388760D01*
X458564Y388745D01*
X458572Y388738D01*
X458660Y388642D01*
X458734Y388545D01*
X458801Y388442D01*
X458860Y388331D01*
X458905Y388220D01*
X458949Y388109D01*
X459008Y387902D01*
X459023Y387805D01*
X459038Y387717D01*
X459053Y387635D01*
X459060Y387569D01*
X459067Y387509D01*
Y387465D01*
Y387435D01*
Y387428D01*
X459060Y387295D01*
X459045Y387169D01*
X459023Y387051D01*
X458993Y386940D01*
X458964Y386836D01*
X458919Y386740D01*
X458882Y386651D01*
X458838Y386570D01*
X458794Y386496D01*
X458757Y386436D01*
X458712Y386377D01*
X458683Y386333D01*
X458653Y386296D01*
X458631Y386274D01*
X458616Y386259D01*
X458609Y386251D01*
X458520Y386170D01*
X458424Y386103D01*
X458327Y386044D01*
X458224Y385992D01*
X458120Y385948D01*
X458024Y385911D01*
X457832Y385859D01*
X457743Y385837D01*
X457661Y385822D01*
X457587Y385815D01*
X457521Y385807D01*
X457469Y385800D01*
X457395D01*
X457173Y385807D01*
X456981Y385830D01*
X456810Y385859D01*
X456677Y385896D01*
X456618Y385911D01*
X456566Y385933D01*
X456522Y385948D01*
X456485Y385963D01*
X456463Y385978D01*
X456440Y385985D01*
X456433Y385992D01*
X456426D01*
Y386769D01*
X456559Y386688D01*
X456692Y386629D01*
X456818Y386584D01*
X456929Y386555D01*
X457025Y386540D01*
X457099Y386533D01*
X457129Y386525D01*
X457166D01*
X457321Y386540D01*
X457454Y386570D01*
X457573Y386607D01*
X457676Y386658D01*
X457750Y386703D01*
X457809Y386747D01*
X457839Y386777D01*
X457854Y386784D01*
X457935Y386888D01*
X458002Y387006D01*
X458046Y387117D01*
X458076Y387236D01*
X458091Y387332D01*
X458098Y387413D01*
X458105Y387443D01*
Y387465D01*
Y387480D01*
Y387487D01*
X458091Y387650D01*
X458061Y387798D01*
X458024Y387924D01*
X457972Y388027D01*
X457920Y388109D01*
X457883Y388168D01*
X457854Y388205D01*
X457839Y388220D01*
X457735Y388309D01*
X457617Y388375D01*
X457499Y388420D01*
X457388Y388457D01*
X457291Y388471D01*
X457210Y388479D01*
X457180Y388486D01*
X457136D01*
X456995Y388479D01*
X456862Y388449D01*
X456736Y388412D01*
X456633Y388368D01*
X456544Y388323D01*
X456477Y388286D01*
X456433Y388257D01*
X456418Y388249D01*
Y389063D01*
X456529Y389115D01*
X456662Y389152D01*
X456803Y389182D01*
X456936Y389197D01*
X457055Y389211D01*
X457106D01*
X457158Y389219D01*
X457247D01*
X457395Y389211D01*
D02*
G37*
G36*
X470900Y389648D02*
X469598D01*
Y385874D01*
X468621D01*
Y389648D01*
X467311D01*
Y390447D01*
X470900D01*
Y389648D01*
D02*
G37*
G36*
X465335Y389211D02*
X465476Y389197D01*
X465609Y389174D01*
X465735Y389145D01*
X465853Y389108D01*
X465957Y389071D01*
X466060Y389026D01*
X466149Y388989D01*
X466223Y388945D01*
X466297Y388901D01*
X466356Y388864D01*
X466401Y388827D01*
X466438Y388797D01*
X466467Y388775D01*
X466482Y388760D01*
X466490Y388753D01*
X466571Y388664D01*
X466645Y388568D01*
X466712Y388464D01*
X466771Y388360D01*
X466815Y388257D01*
X466852Y388153D01*
X466911Y387946D01*
X466934Y387857D01*
X466948Y387768D01*
X466956Y387687D01*
X466963Y387620D01*
X466971Y387561D01*
Y387524D01*
Y387495D01*
Y387487D01*
X466963Y387347D01*
X466948Y387206D01*
X466926Y387080D01*
X466897Y386962D01*
X466860Y386851D01*
X466823Y386755D01*
X466778Y386658D01*
X466734Y386577D01*
X466697Y386503D01*
X466652Y386436D01*
X466615Y386377D01*
X466578Y386333D01*
X466549Y386296D01*
X466527Y386274D01*
X466512Y386259D01*
X466504Y386251D01*
X466416Y386170D01*
X466319Y386103D01*
X466216Y386044D01*
X466112Y385992D01*
X466001Y385948D01*
X465898Y385911D01*
X465698Y385859D01*
X465602Y385837D01*
X465513Y385822D01*
X465439Y385815D01*
X465372Y385807D01*
X465313Y385800D01*
X465239D01*
X465091Y385807D01*
X464950Y385822D01*
X464817Y385844D01*
X464691Y385874D01*
X464580Y385911D01*
X464477Y385948D01*
X464381Y385992D01*
X464292Y386037D01*
X464210Y386074D01*
X464144Y386118D01*
X464085Y386155D01*
X464040Y386192D01*
X464003Y386222D01*
X463974Y386244D01*
X463959Y386259D01*
X463951Y386266D01*
X463870Y386362D01*
X463796Y386459D01*
X463729Y386562D01*
X463670Y386666D01*
X463626Y386777D01*
X463589Y386880D01*
X463530Y387088D01*
X463507Y387176D01*
X463493Y387265D01*
X463485Y387347D01*
X463478Y387413D01*
X463470Y387472D01*
Y387509D01*
Y387539D01*
Y387546D01*
X463478Y387687D01*
X463493Y387820D01*
X463515Y387939D01*
X463544Y388057D01*
X463581Y388168D01*
X463618Y388264D01*
X463663Y388360D01*
X463700Y388442D01*
X463744Y388516D01*
X463789Y388575D01*
X463826Y388634D01*
X463863Y388679D01*
X463892Y388716D01*
X463914Y388738D01*
X463929Y388753D01*
X463937Y388760D01*
X464025Y388841D01*
X464122Y388908D01*
X464225Y388975D01*
X464329Y389026D01*
X464432Y389071D01*
X464536Y389108D01*
X464736Y389160D01*
X464832Y389182D01*
X464913Y389197D01*
X464987Y389204D01*
X465054Y389211D01*
X465113Y389219D01*
X465187D01*
X465335Y389211D01*
D02*
G37*
G36*
X425862Y282077D02*
X425573D01*
X425507Y282071D01*
X425451Y282066D01*
X425407Y282055D01*
X425368Y282038D01*
X425335Y282027D01*
X425312Y282016D01*
X425301Y282010D01*
X425296Y282005D01*
X425262Y281972D01*
X425240Y281933D01*
X425224Y281894D01*
X425212Y281855D01*
X425207Y281822D01*
X425201Y281794D01*
Y281772D01*
Y281766D01*
Y278225D01*
X425007D01*
X424968Y278297D01*
X424924Y278359D01*
X424885Y278408D01*
X424841Y278447D01*
X424807Y278475D01*
X424780Y278497D01*
X424757Y278508D01*
X424752Y278514D01*
X424691Y278542D01*
X424624Y278558D01*
X424552Y278575D01*
X424485Y278580D01*
X424424Y278586D01*
X424380Y278592D01*
X424069D01*
Y278847D01*
X424541D01*
X424597Y278852D01*
X424641Y278869D01*
X424663Y278886D01*
X424669Y278891D01*
X424696Y278925D01*
X424707Y278958D01*
X424713Y278986D01*
Y278991D01*
Y278997D01*
Y281766D01*
X424707Y281822D01*
X424702Y281872D01*
X424685Y281910D01*
X424669Y281944D01*
X424652Y281972D01*
X424641Y281988D01*
X424630Y281999D01*
X424624Y282005D01*
X424585Y282027D01*
X424546Y282044D01*
X424447Y282066D01*
X424408Y282071D01*
X424369Y282077D01*
X424069D01*
Y282332D01*
X425862D01*
Y282077D01*
D02*
G37*
%LPC*%
G36*
X439569Y355647D02*
X438148D01*
X437164Y352880D01*
X437157Y352865D01*
X437142Y352820D01*
X437120Y352754D01*
X437097Y352672D01*
X437068Y352576D01*
X437038Y352465D01*
X437016Y352354D01*
X436994Y352236D01*
X436972D01*
Y352243D01*
X436964Y352251D01*
Y352273D01*
X436957Y352302D01*
X436935Y352369D01*
X436912Y352458D01*
X436890Y352561D01*
X436853Y352672D01*
X436824Y352783D01*
X436787Y352887D01*
X435795Y355647D01*
X434411D01*
Y351074D01*
X435381D01*
Y353849D01*
Y353856D01*
Y353864D01*
Y353886D01*
Y353916D01*
Y353960D01*
Y354004D01*
X435373Y354115D01*
Y354256D01*
X435358Y354419D01*
X435351Y354611D01*
X435336Y354818D01*
X435366D01*
Y354811D01*
Y354796D01*
X435373Y354774D01*
X435381Y354744D01*
X435395Y354670D01*
X435418Y354582D01*
X435440Y354478D01*
X435462Y354382D01*
X435484Y354293D01*
X435506Y354226D01*
X436631Y351074D01*
X437408D01*
X438555Y354197D01*
Y354204D01*
X438563Y354219D01*
X438577Y354256D01*
X438592Y354315D01*
X438607Y354397D01*
X438622Y354448D01*
X438637Y354508D01*
X438651Y354574D01*
X438666Y354648D01*
X438681Y354730D01*
X438703Y354818D01*
X438725D01*
Y354811D01*
Y354796D01*
Y354759D01*
X438718Y354722D01*
Y354670D01*
X438711Y354604D01*
Y354537D01*
X438703Y354456D01*
Y354278D01*
X438696Y354086D01*
X438688Y353871D01*
Y353657D01*
Y351074D01*
X439569D01*
Y355647D01*
D02*
G37*
G36*
X411338Y263848D02*
X410813D01*
X410687Y263841D01*
X410576Y263833D01*
X410361Y263789D01*
X410176Y263730D01*
X410095Y263693D01*
X410021Y263656D01*
X409954Y263619D01*
X409895Y263582D01*
X409851Y263552D01*
X409806Y263522D01*
X409777Y263500D01*
X409754Y263478D01*
X409740Y263471D01*
X409732Y263463D01*
X409658Y263389D01*
X409592Y263308D01*
X409540Y263226D01*
X409495Y263138D01*
X409421Y262960D01*
X409370Y262790D01*
X409340Y262642D01*
X409333Y262575D01*
X409325Y262516D01*
X409318Y262472D01*
Y262435D01*
Y262412D01*
Y262405D01*
X409325Y262279D01*
X409333Y262153D01*
X409355Y262035D01*
X409377Y261931D01*
X409407Y261828D01*
X409444Y261739D01*
X409481Y261650D01*
X409518Y261576D01*
X409555Y261510D01*
X409592Y261450D01*
X409621Y261399D01*
X409658Y261354D01*
X409680Y261325D01*
X409703Y261302D01*
X409710Y261288D01*
X409717Y261280D01*
X409791Y261206D01*
X409880Y261147D01*
X409962Y261088D01*
X410050Y261043D01*
X410235Y260969D01*
X410406Y260918D01*
X410487Y260903D01*
X410561Y260888D01*
X410635Y260881D01*
X410687Y260873D01*
X410739Y260866D01*
X411338D01*
Y263848D01*
D02*
G37*
G36*
X465224Y388486D02*
X465209D01*
X465076Y388479D01*
X464958Y388442D01*
X464854Y388397D01*
X464765Y388338D01*
X464691Y388264D01*
X464625Y388183D01*
X464573Y388101D01*
X464536Y388013D01*
X464506Y387924D01*
X464477Y387835D01*
X464462Y387754D01*
X464455Y387680D01*
X464447Y387620D01*
X464440Y387576D01*
Y387539D01*
Y387532D01*
X464447Y387354D01*
X464469Y387199D01*
X464514Y387065D01*
X464558Y386947D01*
X464617Y386851D01*
X464684Y386769D01*
X464751Y386703D01*
X464825Y386651D01*
X464899Y386607D01*
X464965Y386577D01*
X465032Y386555D01*
X465091Y386540D01*
X465135Y386533D01*
X465172Y386525D01*
X465209D01*
X465350Y386540D01*
X465476Y386570D01*
X465579Y386614D01*
X465668Y386681D01*
X465750Y386755D01*
X465816Y386836D01*
X465868Y386925D01*
X465905Y387014D01*
X465942Y387102D01*
X465964Y387191D01*
X465986Y387273D01*
X465994Y387347D01*
X466001Y387413D01*
X466009Y387458D01*
Y387495D01*
Y387502D01*
X466001Y387665D01*
X465979Y387813D01*
X465942Y387939D01*
X465905Y388042D01*
X465868Y388124D01*
X465831Y388183D01*
X465809Y388212D01*
X465801Y388227D01*
X465713Y388316D01*
X465616Y388375D01*
X465520Y388420D01*
X465424Y388457D01*
X465343Y388471D01*
X465269Y388479D01*
X465224Y388486D01*
D02*
G37*
%LPD*%
D10*
X358900Y350800D02*
G03*
X358848Y356656I-3545J2897D01*
G01*
X347700Y356600D02*
G03*
X347752Y350744I3545J-2897D01*
G01*
X405826Y364071D02*
G03*
X411681Y364123I2897J3545D01*
G01*
X411625Y375271D02*
G03*
X405770Y375219I-2897J-3545D01*
G01*
X382100Y364400D02*
G03*
X387956Y364452I2897J3545D01*
G01*
X387900Y375600D02*
G03*
X382044Y375548I-2897J-3545D01*
G01*
X374734Y354264D02*
G03*
X378838Y358442I-458J4555D01*
G01*
X370916Y366285D02*
G03*
X366812Y362108I458J-4555D01*
G01*
X431000Y373400D02*
G03*
X431052Y367544I3545J-2897D01*
G01*
X442200Y367600D02*
G03*
X442148Y373456I-3545J2897D01*
G01*
X473632Y378626D02*
G03*
X467777Y378574I-2897J-3545D01*
G01*
X467832Y367426D02*
G03*
X473688Y367478I2897J3545D01*
G01*
X428220Y314354D02*
G03*
X424117Y310176I458J-4555D01*
G01*
X432039Y302333D02*
G03*
X436142Y306511I-458J4555D01*
G01*
X369712Y306505D02*
G03*
X373890Y302401I4555J458D01*
G01*
X381733Y310324D02*
G03*
X377556Y314427I-4555J-458D01*
G01*
X376600Y277500D02*
G03*
X382456Y277552I2897J3545D01*
G01*
X382400Y288700D02*
G03*
X376544Y288648I-2897J-3545D01*
G01*
X456400Y268900D02*
G03*
X456452Y263044I3545J-2897D01*
G01*
X467600Y263100D02*
G03*
X467548Y268956I-3545J2897D01*
G01*
X390153Y292932D02*
G03*
X387200Y289980I0J-2953D01*
G01*
X431609Y289980D02*
G03*
X428657Y292932I-2953J0D01*
G01*
X347900Y350700D02*
X351600D01*
X347800Y356700D02*
X351600D01*
X355100D02*
X358800D01*
X355100Y350700D02*
X358800D01*
X411726Y371471D02*
Y375171D01*
X405725Y371471D02*
Y375171D01*
X405725Y367971D02*
X405725Y364171D01*
X411726Y364271D02*
X411726Y367971D01*
X388000Y371800D02*
Y375500D01*
X382000Y371800D02*
Y375500D01*
X382000Y368300D02*
X382000Y364500D01*
X388000Y364600D02*
X388000Y368300D01*
X366885Y361972D02*
X369502Y359356D01*
X371057Y366285D02*
X373744Y363598D01*
X376219Y361123D02*
X378836Y358507D01*
X371977Y356881D02*
X374593Y354264D01*
X438300Y373500D02*
X442000D01*
X438300Y367500D02*
X442100D01*
X431100D02*
X434800Y367500D01*
X431100Y373500D02*
X434800Y373500D01*
X473732Y367626D02*
X473732Y371326D01*
X467732D02*
X467732Y367526D01*
Y374826D02*
Y378526D01*
X473732Y374826D02*
Y378526D01*
X433453Y309263D02*
X436069Y306647D01*
X429210Y305020D02*
X431897Y302333D01*
X424119Y310111D02*
X426735Y307495D01*
X428362Y314354D02*
X430978Y311738D01*
X374804Y311738D02*
X377420Y314354D01*
X379046Y307495D02*
X381733Y310182D01*
X373955Y302404D02*
X376571Y305020D01*
X369712Y306647D02*
X372329Y309263D01*
X376500Y284800D02*
Y288500D01*
X382500Y284800D02*
Y288600D01*
Y277600D02*
Y281300D01*
X376500Y277600D02*
Y281300D01*
X463700Y269000D02*
X467400Y269000D01*
X463700Y263000D02*
X467500Y263000D01*
X456500D02*
X460200D01*
X456500Y269000D02*
X460200D01*
X421395Y314043D02*
X421395Y351051D01*
X384387Y314043D02*
X421395D01*
X387143Y351051D02*
X421395D01*
X384387Y348295D02*
X387143Y351051D01*
X384387Y348295D02*
X384387Y314043D01*
X325790Y399178D02*
Y404598D01*
X361450D01*
X325790Y383428D02*
Y389548D01*
X361450Y399198D02*
Y404598D01*
Y383458D02*
Y389528D01*
X465971Y355775D02*
X466657D01*
X450122D02*
X450808D01*
X465971Y279791D02*
X466657D01*
X450122D02*
X450808D01*
X450122D02*
Y285967D01*
X466657Y279791D02*
Y287936D01*
Y347630D02*
Y355775D01*
X453468Y353216D02*
X454879D01*
X453468Y282350D02*
Y353216D01*
X461835Y282843D02*
X463311Y284318D01*
Y350263D01*
X461598Y351976D02*
X463311Y350263D01*
X450122Y349599D02*
Y355775D01*
X328075Y279792D02*
X328762D01*
X343924Y279792D02*
X344611D01*
X328075Y355776D02*
X328762Y355776D01*
X343924D02*
X344611D01*
Y349600D02*
Y355776D01*
X328075Y347631D02*
Y355776D01*
Y279792D02*
Y287937D01*
X339853Y282351D02*
X341264D01*
Y353217D01*
X331421Y351249D02*
X332897Y352724D01*
X331421Y351249D02*
X331421Y285304D01*
X333135Y283591D01*
X344611Y279792D02*
X344611Y285968D01*
D13*
X353847Y352217D02*
Y355170D01*
X352863Y352217D02*
Y355170D01*
X407256Y369234D02*
X410209D01*
X407256Y370218D02*
X410209D01*
X383530Y369563D02*
X386483D01*
X383530Y370547D02*
X386483D01*
X372163Y358839D02*
X374251Y360927D01*
X371467Y359535D02*
X373555Y361623D01*
X436053Y369030D02*
Y371983D01*
X437037Y369030D02*
Y371983D01*
X469263Y373573D02*
X472215D01*
X469263Y372589D02*
X472215D01*
X428703Y307692D02*
X430791Y309779D01*
X429399Y306996D02*
X431487Y309083D01*
X374287Y309076D02*
X376375Y306988D01*
X374983Y309772D02*
X377071Y307684D01*
X378017Y282553D02*
X380970D01*
X378017Y283537D02*
X380970D01*
X461453Y264530D02*
Y267483D01*
X462437Y264530D02*
Y267483D01*
D14*
X438075Y365559D02*
X441815Y365559D01*
X431185D02*
X434925Y365559D01*
X438075Y360441D02*
X441815Y360441D01*
X431185D02*
X434925Y360441D01*
X431185Y360441D02*
Y365559D01*
X441815Y360441D02*
Y365559D01*
X433915Y383958D02*
Y387927D01*
X446120Y383958D02*
X446120Y387927D01*
X433915D02*
X446120D01*
X433915Y383958D02*
X446120D01*
X439059Y277685D02*
X439059Y281425D01*
X439059Y288315D02*
X439059Y284575D01*
X433941Y281425D02*
X433941Y277685D01*
X433941Y284575D02*
X433941Y288315D01*
X439059D01*
X433941Y277685D02*
X439059D01*
X368441Y270441D02*
X368441Y266701D01*
X368441Y259811D02*
X368441Y263551D01*
X373559Y266701D02*
Y270441D01*
Y259811D02*
Y263551D01*
X368441Y259811D02*
X373559D01*
X368441Y270441D02*
X373559D01*
X463575Y260559D02*
X467315Y260559D01*
X456685D02*
X460425Y260559D01*
X463575Y255441D02*
X467315Y255441D01*
X456685D02*
X460425Y255441D01*
X456685Y255441D02*
Y260559D01*
X467315Y255441D02*
Y260559D01*
X364941Y387775D02*
X364941Y391515D01*
X364941Y384625D02*
X364941Y380885D01*
X370059Y391515D02*
X370059Y387775D01*
X370059Y380885D02*
X370059Y384625D01*
X364941Y380885D02*
X370059D01*
X364941Y391515D02*
X370059D01*
X347917Y364194D02*
X351657D01*
X354807D02*
X358547D01*
X347917Y369312D02*
X351657D01*
X354807D02*
X358547D01*
Y364194D02*
Y369312D01*
X347917Y364194D02*
Y369312D01*
X348059Y357941D02*
X351799D01*
X354949D02*
X358689D01*
X348059Y363059D02*
X351799D01*
X354949D02*
X358689D01*
Y357941D02*
Y363059D01*
X348059Y357941D02*
Y363059D01*
D16*
X387200Y273864D02*
Y290964D01*
X431609Y276003D02*
Y290964D01*
Y276003D02*
X439483Y276003D01*
X440429Y275058D01*
Y265057D02*
Y275058D01*
D76*
X434014Y392458D02*
G03*
X434014Y392458I-492J0D01*
G01*
D77*
X388718Y347114D02*
G03*
X388718Y347114I-394J0D01*
G01*
D78*
X379500Y262945D02*
D03*
X322500Y360118D02*
D03*
M02*
