M48
;Layer_Color=9474304
;FILE_FORMAT=2:5
INCH,LZ
;TYPE=PLATED
T1F00S00C0.01200
T2F00S00C0.02559
T5F00S00C0.07800
;TYPE=NON_PLATED
T6F00S00C0.05512
%
T01
X0471Y026
X04717Y02832
X045839Y0289154
Y0298996
X0459932Y0305972
Y0309909
X04365Y0294874
X04265Y03029
X0412632Y0296126
X0405512Y0277559
Y0267717
X0395669
X0423228
X0433071
X036246Y026776
X03555Y02608
X0339Y0264
X0348425Y0277559
X0360236Y0295276
X0366142Y0301181
X0339601Y0300067
Y0304004
X0321Y0312
X0333085Y0317784
X0333085Y0321721
Y0325658
Y0329595
X0333085Y0333532
Y0337469
X033406Y036746
X0344497Y036784
X034646Y0378284
X0355574Y0389074
X03745Y0371
X0381647Y0358205
X03802Y0351
X036811Y0348425
X0363Y03575
X0384608Y0339437
X0413532Y0341503
X041325Y0336039
X04123Y03311
X0416732Y0333457
Y0338857
X0417432Y0345453
X0419232Y0348457
X04297Y0359074
X044685Y0360236
X04408Y03515
X0459932Y0333531
Y0329594
Y0317783
Y0313846
X0420045Y032758
X0410732Y0324957
Y0321357
X0407032Y0321057
Y0317457
X0402932Y0317782
X0399232Y0314984
X041626Y03755
X041941Y0387
X04311Y03973
X0465032Y0391458
X04723Y03631
T02
X0332134Y0380116
X0354889
T05
X03265Y02605
T06
X0336343Y0282154
X045839
Y0353414
X0336343
M30
