G04*
G04 #@! TF.GenerationSoftware,Altium Limited,Altium Designer,22.0.2 (36)*
G04*
G04 Layer_Color=255*
%FSLAX25Y25*%
%MOIN*%
G70*
G04*
G04 #@! TF.SameCoordinates,A8AB103B-E7CB-45E0-896D-D1B8D88E5F6C*
G04*
G04*
G04 #@! TF.FilePolarity,Positive*
G04*
G01*
G75*
%ADD17R,0.03800X0.03500*%
%ADD18R,0.05000X0.02756*%
%ADD19R,0.05512X0.05118*%
%ADD20R,0.02165X0.03937*%
%ADD21R,0.03150X0.03347*%
%ADD22R,0.03500X0.03800*%
%ADD23O,0.00860X0.02800*%
%ADD24O,0.02800X0.00860*%
%ADD25R,0.10630X0.10630*%
%ADD42O,0.04720X0.07870*%
%ADD43O,0.04720X0.09060*%
%ADD44C,0.04800*%
%ADD45C,0.08600*%
D17*
X323600Y349500D02*
D03*
X330500D02*
D03*
X395000Y380000D02*
D03*
X401900D02*
D03*
D18*
X453283Y267036D02*
D03*
X471000Y267035D02*
D03*
X471000Y275500D02*
D03*
X453283Y275500D02*
D03*
D19*
X374220Y394328D02*
D03*
X385244D02*
D03*
X374220Y380126D02*
D03*
X385244Y380126D02*
D03*
D20*
X330740Y368118D02*
D03*
X327000D02*
D03*
X323260D02*
D03*
X323260Y357882D02*
D03*
X330740Y357882D02*
D03*
D21*
X340126Y382800D02*
D03*
X345874D02*
D03*
X346274Y390000D02*
D03*
X339726D02*
D03*
D22*
X340000Y359600D02*
D03*
Y366500D02*
D03*
D23*
X424130Y394910D02*
D03*
X424130Y379090D02*
D03*
X422560D02*
D03*
Y394910D02*
D03*
X420980Y379090D02*
D03*
Y394910D02*
D03*
X419410Y379090D02*
D03*
X419410Y394910D02*
D03*
X417830Y379090D02*
D03*
Y394910D02*
D03*
X416260Y379090D02*
D03*
Y394910D02*
D03*
X414690Y379090D02*
D03*
X414690Y394910D02*
D03*
D24*
X427320Y382280D02*
D03*
Y383850D02*
D03*
Y385430D02*
D03*
Y387000D02*
D03*
Y388580D02*
D03*
Y390150D02*
D03*
Y391720D02*
D03*
X411500D02*
D03*
X411500Y390150D02*
D03*
X411500Y388580D02*
D03*
X411500Y387000D02*
D03*
X411500Y385430D02*
D03*
X411500Y383850D02*
D03*
X411500Y382280D02*
D03*
D25*
X419410Y387000D02*
D03*
D42*
X326500Y394358D02*
D03*
X360520D02*
D03*
D43*
Y378028D02*
D03*
X326500D02*
D03*
D44*
X458390Y282154D02*
D03*
Y353414D02*
D03*
X336343D02*
D03*
Y282154D02*
D03*
D45*
X326500Y260500D02*
D03*
M02*
